<svg xmlns="http://www.w3.org/2000/svg" viewBox="0 0 261.78 172.98">
<g transform="translate(-1974.61,-2282.10)" stroke-width="9.35">
<g id="AIO-Cooler-icon-v4">
			<g id="fan 00000081644928422458446530000002609652227741567159 ">
				<path id="cutout 00000095308542735199328260000008414559356053376952 " fill="none" stroke="currentColor" stroke-linecap="round" stroke-linejoin="round" d="m2040.77 2328.37c0-14.36 11.64-26 26-26 14.36 0 26 11.64 26 26 0 14.36-11.64 26-26 26-14.36 0-26-11.64-26-26z"/>
				<path id="centre 00000160187085329970435150000014321330339715200920 " fill="none" stroke="currentColor" stroke-linecap="round" stroke-linejoin="round" d="m2061.77 2328.37c0-2.78 2.24-5.03 5-5.03 2.76 0 5 2.25 5 5.03 0 2.78-2.24 5.04-5 5.04-2.76 0-5-2.26-5-5.04z"/>
				<g id="fan-blades 00000146500337376971644170000004197845589213808789 ">
					<path id="blade 00000078026672761677820410000017110829956831897753 " fill="none" stroke="currentColor" stroke-linecap="round" stroke-linejoin="round" d="m2060.92 2322.48l-6.07-6.12c-0.64-0.64-0.95-1.53-0.86-2.42l0.17-1.55c0.19-1.81 1.35-3.38 3.03-4.08l4.9-2.06"/>
					<path id="blade 00000141441824254637100320000012748103266856611746 " fill="none" stroke="currentColor" stroke-linecap="round" stroke-linejoin="round" d="m2071.43 2350.5l4.92-2.06c1.68-0.71 2.85-2.27 3.04-4.09l0.16-1.54c0.09-0.89-0.22-1.79-0.85-2.43l-6.08-6.12"/>
					<path id="blade 00000006678904016841464410000013680154079269224108 " fill="none" stroke="currentColor" stroke-linecap="round" stroke-linejoin="round" d="m2060.92 2334.27l-6.06 6.1c-0.64 0.65-1.54 0.97-2.45 0.87l-1.47-0.16c-1.82-0.19-3.39-1.36-4.09-3.05l-2.05-4.95"/>
					<path id="blade 00000136385920518269435510000012435905647802292367 " fill="none" stroke="currentColor" stroke-linecap="round" stroke-linejoin="round" d="m2088.74 2323.66l-2.05-4.94c-0.7-1.69-2.27-2.86-4.09-3.06l-1.47-0.15c-0.9-0.1-1.8 0.22-2.45 0.87l-6.06 6.1"/>
				</g>
			</g>
			<g id="fan 00000168836907887481121030000018302361137577657265 ">
				<path id="cutout 00000146487458545544997330000006151296816425165501 " fill="none" stroke="currentColor" stroke-linecap="round" stroke-linejoin="round" d="m2102.58 2328.37c0-14.36 11.64-26 26-26 14.36 0 26 11.64 26 26 0 14.36-11.64 26-26 26-14.36 0-26-11.64-26-26z"/>
				<path id="centre 00000113315571421350392250000013606632022117947302 " fill="none" stroke="currentColor" stroke-linecap="round" stroke-linejoin="round" d="m2123.61 2328.37c0-2.76 2.23-5 4.97-5 2.74 0 4.96 2.24 4.96 5 0 2.77-2.22 5-4.96 5-2.74 0-4.97-2.23-4.97-5z"/>
				<g id="fan-blades 00000032629290393147681790000000477993577503690629 ">
					<path id="blade 00000027601415355933001700000001003278599494280851 " fill="none" stroke="currentColor" stroke-linecap="round" stroke-linejoin="round" d="m2122.73 2322.48l-6.07-6.12c-0.64-0.64-0.95-1.53-0.86-2.42l0.16-1.55c0.19-1.81 1.36-3.38 3.04-4.08l4.9-2.06"/>
					<path id="blade 00000183943572843651217890000015254153655611406779 " fill="none" stroke="currentColor" stroke-linecap="round" stroke-linejoin="round" d="m2133.24 2350.5l4.92-2.06c1.68-0.71 2.84-2.27 3.03-4.09l0.17-1.54c0.09-0.89-0.22-1.79-0.86-2.43l-6.07-6.12"/>
					<path id="blade 00000168798926766059362700000009990760462154847643 " fill="none" stroke="currentColor" stroke-linecap="round" stroke-linejoin="round" d="m2122.73 2334.27l-6.06 6.1c-0.65 0.65-1.55 0.97-2.45 0.87l-1.47-0.16c-1.82-0.19-3.39-1.36-4.09-3.05l-2.05-4.95"/>
					<path id="blade 00000102532972034207235260000013218705476303130526 " fill="none" stroke="currentColor" stroke-linecap="round" stroke-linejoin="round" d="m2150.55 2323.66l-2.05-4.94c-0.7-1.69-2.27-2.86-4.09-3.06l-1.47-0.15c-0.91-0.1-1.81 0.22-2.45 0.87l-6.06 6.1"/>
				</g>
			</g>
			<g id="fan 00000071561223327934663750000010067365440348791693 ">
				<path id="cutout 00000176727145140062301670000015574171989501861027 " fill="none" stroke="currentColor" stroke-linecap="round" stroke-linejoin="round" d="m2164.39 2328.37c0-14.36 11.64-26 26-26 14.36 0 26 11.64 26 26 0 14.36-11.64 26-26 26-14.36 0-26-11.64-26-26z"/>
				<path id="centre 00000157284730127763797220000008413540820621468800 " fill="none" stroke="currentColor" stroke-linecap="round" stroke-linejoin="round" d="m2185.39 2328.37c0-2.78 2.24-5.03 5-5.03 2.76 0 5 2.25 5 5.03 0 2.78-2.24 5.04-5 5.04-2.76 0-5-2.26-5-5.04z"/>
				<g id="fan-blades 00000173153156107455509990000015100096496733411209 ">
					<path id="blade 00000090974647791497155640000006208288610379700647 " fill="none" stroke="currentColor" stroke-linecap="round" stroke-linejoin="round" d="m2184.54 2322.48l-6.08-6.12c-0.63-0.64-0.95-1.53-0.85-2.42l0.16-1.55c0.19-1.81 1.36-3.38 3.04-4.08l4.9-2.06"/>
					<path id="blade 00000044868534063364758350000008447384736612078748 " fill="none" stroke="currentColor" stroke-linecap="round" stroke-linejoin="round" d="m2195.05 2350.5l4.91-2.06c1.69-0.71 2.85-2.27 3.04-4.09l0.16-1.54c0.1-0.89-0.21-1.79-0.85-2.43l-6.07-6.12"/>
					<path id="blade 00000149374591897608286530000018363936779802659712 " fill="none" stroke="currentColor" stroke-linecap="round" stroke-linejoin="round" d="m2184.54 2334.27l-6.07 6.1c-0.64 0.65-1.54 0.97-2.44 0.87l-1.48-0.16c-1.82-0.19-3.38-1.36-4.08-3.05l-2.05-4.95"/>
					<path id="blade 00000152968128494829032440000002139675152764371349 " fill="none" stroke="currentColor" stroke-linecap="round" stroke-linejoin="round" d="m2212.35 2323.66l-2.04-4.94c-0.7-1.69-2.27-2.86-4.09-3.06l-1.47-0.15c-0.91-0.1-1.81 0.22-2.45 0.87l-6.06 6.1"/>
				</g>
			</g>
			<g id="case 00000136385301067859251540000008874998017089885338 ">
				<path id="left-side 00000058579098131963857890000016199621857283565741 " fill="none" stroke="currentColor" stroke-linecap="round" stroke-linejoin="round" d="m2095.68 2297.1h-59.91v62.54h57.91c1.56-1.56 2.43-2.44 4-4v-54.54c1.56-1.56 2.43-2.43 4-4h55.8"/>
				<path id="right-side 00000022558797792241069880000013207867037296332679 " fill="none" stroke="currentColor" stroke-linecap="round" stroke-linejoin="round" d="m2099.68 2359.64h55.8c1.56-1.56 2.44-2.44 4-4v-54.54c1.56-1.56 2.44-2.43 4-4h52.91c2.76 0 5 2.24 5 5v52.54c0 2.76-2.24 5-5 5h-54.91"/>
			</g>
			<g id="inlet-outlet 00000167367211902243603200000010184151426055779489 ">
				<g id="inlet 00000005243601135080024990000005206533986714957240 ">
					<path id="inlet 00000019643263802350106720000014963455149580531099 " fill="none" stroke="currentColor" stroke-linecap="round" stroke-linejoin="round" d="m2023.11 2313.84c1.96-1.95 5.12-1.95 7.08 0 1.95 1.95 1.95 5.12 0 7.07-1.96 1.95-5.12 1.95-7.08 0"/>
					<g id="top-pipe 00000052086266275373968870000009111441902932187008 ">
						<path id="top-piece 00000044893433731842426120000015547417493493390484 " fill="none" stroke="currentColor" stroke-linecap="round" stroke-linejoin="round" d="m2003.61 2333.37v-7c0-6.62 5.38-12 12-12h11.04m0 6h-10.04c-3.86 0-7 3.14-7 7v6"/>
					</g>
				</g>
				<g id="outlet 00000117665030611915642670000013813443831295250330 ">
					<path id="outlet 00000032607230462671642910000009876886961141990291 " fill="none" stroke="currentColor" stroke-linecap="round" stroke-linejoin="round" d="m2023.11 2335.84c1.96-1.95 5.12-1.95 7.08 0 1.95 1.95 1.95 5.12 0 7.07-1.96 1.95-5.12 1.95-7.08 0"/>
				</g>
				<g id="IO-case 00000156570451696049433850000010769645035840104865 ">
					<path id="bottom 00000155863676294274567430000000244166146742370210 " fill="none" stroke="currentColor" stroke-linecap="round" stroke-linejoin="round" d="m2017.53 2344.37v11.27c0 2.21 1.79 4 4 4h10.24"/>
					<path id="middle 00000182501376368730286070000016373953632719819676 " fill="none" stroke="currentColor" stroke-linecap="round" stroke-linejoin="round" d="m2017.53 2322.37v12"/>
					<path id="top 00000005946820714334581250000006893282756872520101 " fill="none" stroke="currentColor" stroke-linecap="round" stroke-linejoin="round" d="m2031.77 2297.1h-10.24c-2.21 0-4 1.8-4 4v11.27"/>
				</g>
			</g>
			<path id="inlet 00000124857598642992104300000018267666992181410749 " fill="none" stroke="currentColor" stroke-linecap="round" stroke-linejoin="round" d="m2003.61 2345.37v40.68c0 6.63 5.38 12 12 12h83.16v-1h2.63 0.01c0.82 2.33 3.04 4 5.65 4 3.32 0 6-2.68 6-6 0-3.31-2.68-6-6-6-2.61 0-4.83 1.67-5.65 4h-0.01-2.63v-1h-82.16c-3.86 0-7-3.13-7-7v-39.68m97.45 52.68c-1.66 0-3-1.34-3-3 0-1.65 1.34-3 3-3 1.66 0 3 1.35 3 3 0 1.66-1.34 3-3 3z"/>
			<path id="outlet 00000009561070694081840890000016210445805606212236 " fill="none" stroke="currentColor" stroke-linecap="round" stroke-linejoin="round" d="m2026.65 2342.37h-23.04c-4.41 0-8 3.59-8 8v39.68c0 9.94 8.06 18 18 18h85.16v1h2.63 0.01c0.82-2.33 3.04-4 5.65-4 3.32 0 6 2.69 6 6 0 3.32-2.68 6-6 6-2.61 0-4.83-1.67-5.65-4h-0.01-2.63v1h-86.16c-12.7 0-23-10.29-23-23v-42.68c0-6.62 5.38-12 12-12h25.04m80.41 77.68c-1.66 0-3-1.34-3-3 0-1.65 1.34-3 3-3 1.66 0 3 1.35 3 3 0 1.66-1.34 3-3 3z"/>
			<path id="cpu-block" fill="none" stroke="currentColor" stroke-linecap="round" stroke-linejoin="round" d="m2098.77 2417.05v23.03h74.06v-74.06h-74.06v23.03m0 12v4m17.01 26.29v-56.57m54.05 50.85h-30.79c-3.5 0-6.84 1.47-9.21 4.05l-0.57 0.62c-2.37 2.58-5.71 4.05-9.21 4.05h-18.28m0-62.57h18.28c3.5 0 6.84 1.46 9.21 4.04l0.57 0.62c2.37 2.58 5.71 4.05 9.21 4.05h30.79"/>
			<g id="oled">
				<g id="temperature">
					<path id="2 00000052814380757774312940000003871699459767119504 " fill="none" stroke="currentColor" stroke-linecap="round" stroke-linejoin="round" d="m2138.97 2403.55h6.04c0.55 0 1 0.45 1 1v4.17c0 0.55-0.45 1-1 1h-5.04c-0.55 0-1 0.45-1 1v4.17c0 0.55 0.45 1 1 1h6.04"/>
					<path id="3 00000154390086152849779890000008787510787258429083 " fill="none" stroke="currentColor" stroke-linecap="round" stroke-linejoin="round" d="m2128.97 2403.55h6.04c0.55 0 1 0.45 1 1v10.34c0 0.55-0.45 1-1 1h-6.04m2-6.17h3.07"/>
					<path id="degrees 00000156588713882776797600000001158508149219204028 " fill="none" stroke="currentColor" stroke-linecap="round" stroke-linejoin="round" d="m2152.77 2404.98c0 0.79-0.64 1.43-1.43 1.43-0.79 0-1.43-0.64-1.43-1.43 0-0.79 0.64-1.43 1.43-1.43 0.79 0 1.43 0.64 1.43 1.43z"/>
					<path id="&lt;Path&gt;" fill="none" stroke="currentColor" stroke-linecap="round" stroke-linejoin="round" d="m2159.64 2408.72c0 0.55-0.84 1-1.4 1h-1.49c-1.1 0-2-0.89-2-2v-2.17c0-1.1 0.9-2 2-2h1.49c0.56 0 1.4 0.45 1.4 1"/>
				</g>
				<g id="cpu">
					<path id="&lt;Path&gt;" fill="none" stroke="currentColor" stroke-linecap="round" stroke-linejoin="round" d="m2139.68 2390.21h-3.25c-0.43 0-0.78 0.36-0.78 0.79v5.43c0 0.43 0.35 0.78 0.78 0.78h3.25"/>
					<path id="&lt;Path&gt;" fill="none" stroke="currentColor" stroke-linecap="round" stroke-linejoin="round" d="m2142.07 2397.21v-3.5h3.85c0.43 0 0.78-0.35 0.78-0.78v-1.93c0-0.43-0.35-0.79-0.78-0.79h-3.85v3.5"/>
					<path id="&lt;Path&gt;" fill="none" stroke="currentColor" stroke-linecap="round" stroke-linejoin="round" d="m2148.78 2390.21v6.22c0 0.43 0.35 0.78 0.78 0.78h2.62c0.43 0 0.79-0.35 0.79-0.78v-6.22"/>
				</g>
			</g>
			<path id="branding 00000140008884116412900150000016414681324873773204 " fill="none" stroke="currentColor" stroke-linecap="round" stroke-linejoin="round" d="m2150.01 2371.16v4m4-4v4m4-4v4m4-4v4m4-4v4"/>
		</g>
</g>
</svg>