<svg xmlns="http://www.w3.org/2000/svg" viewBox="1434.6 2282.1 261.8 174.8">
<g id="AIO-Cooler-icon-v2 00000044139116962107009030000008862181965395195017 ">
			<g id="fan 00000018213837035751160300000015357937923934422169 ">
				<path id="cutout 00000054249383230139766860000010343918212412038817 " fill="currentColor" stroke="currentColor" stroke-linecap="round" stroke-linejoin="round" d="m1500.77 2328.37c0-14.36 11.64-26 26-26 14.36 0 26 11.64 26 26 0 14.36-11.64 26-26 26-14.36 0-26-11.64-26-26z"/>
				<g id="blade 00000048485501191123668010000011531387561125088164 ">
					<g id="centre 00000085221154950046880060000015581549348999178928 ">
						<path id="&lt;Path&gt;" fill="currentColor" stroke="currentColor" stroke-linecap="round" stroke-linejoin="round" stroke-dasharray="3.93537,3.93537" d="m1521.77 2328.37c0-2.78 2.24-5.03 5-5.03 6.61 0.2 6.61 9.87 0 10.07-2.76 0-5-2.25-5-5.04z"/>
					</g>
				</g>
				<path id="fan 00000036217537853183311050000006111659840351826613 " fill="currentColor" stroke="currentColor" stroke-miterlimit="10" d="m1518.51 2328.37c0-4.56 3.7-8.26 8.26-8.26 4.56 0 8.26 3.7 8.26 8.26 0 4.57-3.7 8.26-8.26 8.26-4.56 0-8.26-3.69-8.26-8.26zm18.45-1.84c1.93-5.85 1.58-11.92-0.59-17.96-5.27-2.55-11.34-2.88-16.82-0.99 5.81 2.74 10.36 6.78 13.12 12.29m-4.05 18.69c5.84 1.94 11.92 1.58 17.95-0.59 2.55-5.27 2.89-11.34 0.99-16.81-2.73 5.8-6.78 10.35-12.29 13.11m-18.68-4.05c-1.94 5.85-1.59 11.92 0.58 17.95 5.27 2.56 11.34 2.89 16.82 0.99-5.81-2.73-10.35-6.78-13.12-12.29m4.06-18.68c-5.85-1.94-11.92-1.59-17.96 0.59-2.55 5.26-2.88 11.34-0.99 16.81 2.74-5.81 6.78-10.35 12.29-13.12"/>
			</g>
			<g id="fan 00000091724001476089876360000006854928840837090477 ">
				<path id="cutout 00000046322722651553534880000001678496865957373846 " fill="currentColor" stroke="currentColor" stroke-linecap="round" stroke-linejoin="round" d="m1562.58 2328.37c0-14.36 11.64-26 26-26 14.36 0 26 11.64 26 26 0 14.36-11.64 26-26 26-14.36 0-26-11.64-26-26z"/>
				<g id="blade 00000013192487044937172680000002798148521162439053 ">
					<g id="centre 00000168820762742668389610000012870962055057087367 ">
						<path id="&lt;Path&gt;" fill="currentColor" stroke="currentColor" stroke-linecap="round" stroke-linejoin="round" stroke-dasharray="3.90721,3.90721" d="m1583.61 2328.37c0.21-6.61 9.73-6.6 9.93 0-0.2 6.61-9.72 6.61-9.93 0z"/>
					</g>
				</g>
				<path id="fan 00000147220294096450464880000001583075550576627332 " fill="currentColor" stroke="currentColor" stroke-miterlimit="10" d="m1580.32 2328.37c0-4.56 3.7-8.26 8.26-8.26 4.56 0 8.26 3.7 8.26 8.26 0 4.57-3.7 8.26-8.26 8.26-4.56 0-8.26-3.69-8.26-8.26zm18.44-1.84c1.94-5.85 1.59-11.92-0.58-17.96-5.27-2.55-11.34-2.88-16.82-0.99 5.81 2.74 10.35 6.78 13.12 12.29m-4.06 18.69c5.85 1.94 11.92 1.58 17.96-0.59 2.55-5.27 2.89-11.34 0.99-16.81-2.73 5.8-6.78 10.35-12.29 13.11m-18.68-4.05c-1.94 5.85-1.59 11.92 0.58 17.95 5.27 2.56 11.34 2.89 16.82 0.99-5.81-2.73-10.36-6.78-13.12-12.29m4.05-18.68c-5.84-1.94-11.92-1.59-17.95 0.59-2.55 5.26-2.89 11.34-0.99 16.81 2.73-5.81 6.78-10.35 12.29-13.12"/>
			</g>
			<g id="fan 00000143609241215137788760000010489244393848694950 ">
				<path id="cutout 00000084510076222816764470000017809245629166137237 " fill="currentColor" stroke="currentColor" stroke-linecap="round" stroke-linejoin="round" d="m1624.39 2328.37c0-14.36 11.64-26 26-26 14.36 0 26 11.64 26 26 0 14.36-11.64 26-26 26-14.36 0-26-11.64-26-26z"/>
				<g id="blade 00000041291170370035647450000010516973527027304117 ">
					<g id="centre 00000045602272166498136230000001955110394952379312 ">
						<path id="&lt;Path&gt;" fill="currentColor" stroke="currentColor" stroke-linecap="round" stroke-linejoin="round" stroke-dasharray="3.93537,3.93537" d="m1645.39 2328.37c0-2.78 2.24-5.03 5-5.03 6.61 0.2 6.6 9.87 0 10.07-2.76 0-5-2.25-5-5.04z"/>
					</g>
				</g>
				<path id="fan 00000151545378015619203320000015375575526954851214 " fill="currentColor" stroke="currentColor" stroke-miterlimit="10" d="m1642.13 2328.37c0-4.56 3.69-8.26 8.26-8.26 4.56 0 8.26 3.7 8.26 8.26 0 4.57-3.7 8.26-8.26 8.26-4.57 0-8.26-3.69-8.26-8.26zm18.44-1.84c1.94-5.85 1.59-11.92-0.58-17.96-5.27-2.55-11.35-2.88-16.82-0.99 5.81 2.74 10.35 6.78 13.12 12.29m-4.06 18.69c5.85 1.94 11.92 1.58 17.96-0.59 2.55-5.27 2.88-11.34 0.99-16.81-2.74 5.8-6.78 10.35-12.29 13.11m-18.69-4.05c-1.94 5.85-1.58 11.92 0.59 17.95 5.27 2.56 11.34 2.89 16.81 0.99-5.8-2.73-10.35-6.78-13.11-12.29m4.05-18.68c-5.85-1.94-11.92-1.59-17.95 0.59-2.56 5.26-2.89 11.34-0.99 16.81 2.73-5.81 6.78-10.35 12.29-13.12"/>
			</g>
			<g id="case 00000138543806996710796410000008010003788404087441 ">
				<path id="left-side 00000159434240067330500480000011119151738501638529 " fill="currentColor" stroke="currentColor" stroke-linecap="round" stroke-linejoin="round" d="m1555.68 2297.1h-59.91v62.54h57.91c1.56-1.56 2.43-2.44 4-4v-54.54c1.56-1.56 2.43-2.43 4-4h55.8"/>
				<path id="right-side 00000036940779253612097650000006407863832774182805 " fill="currentColor" stroke="currentColor" stroke-linecap="round" stroke-linejoin="round" d="m1559.68 2359.64h55.8c1.56-1.56 2.44-2.44 4-4v-54.54c1.56-1.56 2.44-2.43 4-4h52.91c2.76 0 5 2.24 5 5v52.54c0 2.76-2.24 5-5 5h-54.91"/>
			</g>
			<g id="inlet 00000016050951537221072970000007988780920374677949 ">
				<path id="inlet 00000093881478417754431640000010166624781450454957 " fill="currentColor" stroke="currentColor" stroke-linecap="round" stroke-linejoin="round" d="m1483.11 2313.84c1.96-1.95 5.12-1.95 7.08 0 1.95 1.95 1.95 5.12 0 7.07-1.96 1.95-5.12 1.95-7.08 0"/>
			</g>
			<path id="outlet 00000150818461627191502450000001129190861885946026 " fill="currentColor" stroke="currentColor" stroke-linecap="round" stroke-linejoin="round" d="m1483.11 2335.84c1.96-1.95 5.12-1.95 7.08 0 1.95 1.95 1.95 5.12 0 7.07-1.96 1.95-5.12 1.95-7.08 0"/>
			<path id="connection 00000089532957104582319940000014416573112791339687 " fill="currentColor" stroke="currentColor" stroke-linecap="round" stroke-linejoin="round" d="m1486.65 2342.37h-25.04c-3.31 0-6 2.69-6 6v31.68c0 3.32 2.69 6 6 6h86.07c8.28 0 15 6.72 15 15v0.03h1v4.62c0 1.1-0.9 2-2 2h-4c-1.11 0-2-0.9-2-2v-4.62h1v-0.03c0-4.97-4.03-9-9-9h-86.07c-6.62 0-12-5.37-12-12v-31.68c0-6.62 5.38-12 12-12h25.04"/>
			<path id="bottom-pipe 00000023974680775337308120000005573475327143612042 " fill="currentColor" stroke="currentColor" stroke-linecap="round" stroke-linejoin="round" d="m1561.28 2407.7v3.13m-3.2-3.13v3.13m7.83 0h-9.23c-0.56 0-1 0.45-1 1v5.41c0 0.56 0.44 1 1 1h9.23z"/>
			<path id="pipe" fill="currentColor" stroke="currentColor" stroke-linecap="round" stroke-linejoin="round" d="m1459.61 2333.54v-7.17c0-6.62 5.38-12 12-12h15.04m-27.04 31.35v21.33c0 6.63 5.38 12 12 12h78.79c3.32 0 6 2.69 6 6v0.8m6.28 6.43v-7.23c0-6.62-5.38-12-12-12h-79.07c-3.31 0-6-2.68-6-6v-21.68m21.04-25h-15.04c-3.31 0-6 2.69-6 6v7"/>
			<g id="IO-case 00000050647033390560307650000014557871584246961315 ">
				<path id="bottom 00000169520939793943982110000015157100199399292083 " fill="currentColor" stroke="currentColor" stroke-linecap="round" stroke-linejoin="round" d="m1477.53 2344.37v11.27c0 2.21 1.79 4 4 4h10.24"/>
				<path id="middle 00000113327231550135703500000011417036239576775297 " fill="currentColor" stroke="currentColor" stroke-linecap="round" stroke-linejoin="round" d="m1477.53 2322.37v12"/>
				<path id="top 00000151541367132063246750000014680433846993070760 " fill="currentColor" stroke="currentColor" stroke-linecap="round" stroke-linejoin="round" d="m1491.77 2297.1h-10.24c-2.21 0-4 1.8-4 4v11.27"/>
			</g>
			<path id="cpu-block 00000010302254211135847950000005851071670751928462 " fill="currentColor" stroke="currentColor" stroke-linecap="round" stroke-linejoin="round" d="m1565.91 2429.62v4.32c3.12 3.13 4.87 4.88 8 8h38.81c3.12-3.12 4.87-4.87 8-8v-38.81c-3.13-3.12-4.88-4.87-8-8h-38.81c-3.13 3.13-4.88 4.88-8 8v4.32m41.6 27.17h-41.6v-24.17h41.6z"/>
			<path id="branding 00000036968464913785860860000017849181653755124661 " fill="currentColor" stroke="currentColor" stroke-miterlimit="10" d="m1607.48 2433.32v1.79c0 0.88 0.72 1.6 1.6 1.6h4.8c0.89 0 1.6-0.72 1.6-1.6v-4.8c0-0.89-0.71-1.6-1.6-1.6h-4.8c-0.88 0-1.6 0.71-1.6 1.6v0.8c0 0.88 0.72 1.6 1.6 1.6h2.88c0.89 0 1.6 0.71 1.6 1.6v0.69"/>
		</g>
</svg>