<svg xmlns="http://www.w3.org/2000/svg" viewBox="0 0 200.97 200.00">
<g transform="translate(-3966.16,-1063.50)" stroke-width="11.82">
<g id="Bending-Jigs-icon">
			<path id="&lt;Compound Path&gt;" fill="none" stroke="currentColor" stroke-miterlimit="10" d="m4080.06 1078.5c-16.57 0-30 13.43-30 30 0 16.57 13.43 30 30 30 16.57 0 30-13.43 30-30 0-16.57-13.43-30-30-30zm0 10c11.03 0 20 8.97 20 20 0 11.03-8.97 20-20 20-11.02 0-20-8.97-20-20 0-11.03 8.98-20 20-20zm0 15c-2.76 0-5 2.24-5 5 0 2.76 2.24 5 5 5 2.76 0 5-2.24 5-5 0-2.76-2.24-5-5-5z"/>
			<path id="&lt;Compound Path&gt;" fill="none" stroke="currentColor" stroke-miterlimit="10" d="m4015.15 1110.03c-5.77 0-11.43 3.29-13.9 9.26l-20.09 48.51c-3.05 7.35-3.05 15.61 0 22.96l20.08 48.48c2.47 5.97 8.13 9.26 13.89 9.26 3.78 0 7.6-1.41 10.59-4.41l47.11-47.25c9.74-9.76 9.72-25.57-0.03-35.33l-47.09-47.08c-2.99-2.99-6.8-4.4-10.56-4.4zm0 10c0.92 0 2.28 0.25 3.49 1.47l47.09 47.08c5.84 5.85 5.85 15.35 0.01 21.2l-47.11 47.25c-1.21 1.21-2.57 1.47-3.5 1.47-1.63 0-3.71-0.81-4.66-3.09l-20.07-48.48c-2.05-4.93-2.05-10.37 0-15.3l20.09-48.51c0.94-2.28 3.02-3.09 4.66-3.09zm36.82 54.23c-2.77 0-5 2.24-5 5 0 2.77 2.23 5 5 5 2.76 0 5-2.23 5-5 0-2.76-2.24-5-5-5zm-41.38 0c-2.77 0-5 2.24-5 5 0 2.77 2.23 5 5 5 2.76 0 5-2.23 5-5 0-2.76-2.24-5-5-5z"/>
			<path id="&lt;Compound Path&gt;" fill="none" stroke="currentColor" stroke-miterlimit="10" d="m4122.13 1135.7c-16.57 0-30 13.43-30 30v45c0 8.29 6.71 15 15 15h30c8.28 0 15-6.71 15-15v-45c0-16.57-13.44-30-30-30zm0 10c11.02 0 20 8.97 20 20v45c0 2.76-2.25 5-5 5h-30c-2.76 0-5-2.24-5-5v-45c0-11.03 8.97-20 20-20zm0 50.53c-2.77 0-5 2.24-5 5 0 2.77 2.23 5 5 5 2.76 0 5-2.23 5-5 0-2.76-2.24-5-5-5zm0-35.53c-2.77 0-5 2.24-5 5 0 2.76 2.23 5 5 5 2.76 0 5-2.24 5-5 0-2.76-2.24-5-5-5z"/>
		</g>
</g>
</svg>