<svg xmlns="http://www.w3.org/2000/svg" viewBox="0 0 238.45 235.52">
<g transform="translate(-2559.61,-95.47)" stroke-width="8.52">
<g id="Case-icon-v2">
			<g id="main-parts">
				<path id="bottom" fill="none" stroke="currentColor" stroke-miterlimit="10" d="m2783.06 296.61h-208.45v6h208.45z"/>
				<path id="top" fill="none" stroke="currentColor" stroke-miterlimit="10" d="m2783.06 110.47h-208.45v6h208.45z"/>
				<path id="feet" fill="none" stroke="currentColor" stroke-linecap="round" stroke-miterlimit="10" d="m2599.65 304.61l-8 11.38h-17.04v-11.38m183.41 0l8 11.38h17.04v-11.38"/>
				<path id="front" fill="none" stroke="currentColor" stroke-miterlimit="10" d="m2783.06 118.47v176.14m-10-176.14v176.14"/>
				<path id="back" fill="none" stroke="currentColor" stroke-linecap="round" stroke-miterlimit="10" d="m2582.61 294.61v-2.61l-5-5v-73.53l5-5v-90m-8 176.14v-176.14"/>
			</g>
			<path id="fixing-mounting-holes" fill="none" stroke="currentColor" stroke-miterlimit="10" d="m2780.06 132.97c0 1.1-0.89 2-2 2-1.1 0-2-0.9-2-2 0-1.1 0.9-2 2-2 1.11 0 2 0.9 2 2zm-2 71.57c-1.1 0-2 0.9-2 2 0 1.1 0.9 2 2 2 1.11 0 2-0.9 2-2 0-1.1-0.89-2-2-2zm-1.5-19.44v1.2c0 0.83 0.67 1.5 1.5 1.5 0.83 0 1.5-0.67 1.5-1.5v-1.2l1.07-0.4v-6.81c0-0.55-0.44-1-1-1h-3.14c-0.55 0-1 0.45-1 1v6.81zm1.5 93.01c-1.11 0-2 0.9-2 2 0 1.1 0.89 2 2 2 1.1 0 2-0.9 2-2 0-1.1-0.9-2-2-2z"/>
			<path id="radiator-mounting" fill="none" stroke="currentColor" stroke-miterlimit="10" d="m2761.77 294.61v-10.94c0-0.53 0.21-1.04 0.58-1.42l2.83-2.82c0.38-0.38 0.59-0.89 0.59-1.42v-4.86c0-0.53-0.21-1.04-0.59-1.41l-2.83-2.83c-0.37-0.38-0.58-0.89-0.58-1.42v-9.52c0-0.53 0.21-1.04 0.58-1.41l2.83-2.83c0.38-0.38 0.59-0.88 0.59-1.41v-4.87c0-0.53-0.21-1.04-0.59-1.41l-2.83-2.83c-0.37-0.37-0.58-0.88-0.58-1.41v-9.52c0-0.53 0.21-1.04 0.58-1.42l2.83-2.83c0.38-0.37 0.59-0.88 0.59-1.41v-4.86c0-0.53-0.21-1.04-0.59-1.42l-2.83-2.83c-0.37-0.37-0.58-0.88-0.58-1.41v-9.52c0-0.53 0.21-1.04 0.58-1.41l2.83-2.83c0.38-0.38 0.59-0.89 0.59-1.42v-4.86c0-0.53-0.21-1.04-0.59-1.41l-2.83-2.83c-0.37-0.38-0.58-0.89-0.58-1.42v-9.52c0-0.53 0.21-1.04 0.58-1.41l2.83-2.83c0.38-0.37 0.59-0.88 0.59-1.41v-4.87c0-0.53-0.21-1.03-0.59-1.41l-2.83-2.83c-0.37-0.37-0.58-0.88-0.58-1.41v-9.52c0-0.53 0.21-1.04 0.58-1.42l2.83-2.83c0.38-0.37 0.59-0.88 0.59-1.41v-4.86c0-0.53-0.21-1.04-0.59-1.42l-2.83-2.82c-0.37-0.38-0.58-0.89-0.58-1.42v-5.34c0-0.53 0.21-1.04 0.58-1.42l2.83-2.82c0.38-0.38 0.59-0.89 0.59-1.42v-4.54c0-1.1-0.9-2-2-2h-44.32c-1.1 0-2 0.9-2 2v4.54c0 0.53 0.22 1.04 0.59 1.42l2.83 2.82c0.37 0.38 0.58 0.89 0.58 1.42v5.34c0 0.53-0.21 1.04-0.58 1.42l-2.83 2.82c-0.37 0.38-0.59 0.89-0.59 1.42v4.86c0 0.53 0.22 1.04 0.59 1.41l2.83 2.83c0.37 0.38 0.58 0.89 0.58 1.42v9.52c0 0.53-0.21 1.04-0.58 1.41l-2.83 2.83c-0.37 0.38-0.59 0.88-0.59 1.41v4.87c0 0.53 0.22 1.04 0.59 1.41l2.83 2.83c0.37 0.37 0.58 0.88 0.58 1.41v9.52c0 0.53-0.21 1.04-0.58 1.42l-2.83 2.83c-0.37 0.37-0.59 0.88-0.59 1.41v4.86c0 0.53 0.22 1.04 0.59 1.42l2.83 2.83c0.37 0.37 0.58 0.88 0.58 1.41v9.52c0 0.53-0.21 1.04-0.58 1.41l-2.83 2.83c-0.37 0.38-0.59 0.89-0.59 1.42v4.86c0 0.53 0.22 1.04 0.59 1.41l2.83 2.83c0.37 0.38 0.58 0.89 0.58 1.42v9.52c0 0.53-0.21 1.04-0.58 1.41l-2.83 2.83c-0.37 0.37-0.59 0.88-0.59 1.41v4.87c0 0.53 0.22 1.03 0.59 1.41l2.83 2.83c0.37 0.37 0.58 0.88 0.58 1.41v9.52c0 0.53-0.21 1.04-0.58 1.42l-2.83 2.83c-0.37 0.37-0.59 0.88-0.59 1.41v4.86c0 0.53 0.22 1.04 0.59 1.42l2.83 2.82c0.37 0.38 0.58 0.89 0.58 1.42v10.94m44.32-27.29v-9.18c0-0.55-0.45-1-1-1-0.56 0-1 0.45-1 1v9.18c0 0.55 0.44 1 1 1 0.55 0 1-0.45 1-1zm0-25.7v-9.17c0-0.55-0.45-1-1-1-0.56 0-1 0.45-1 1v9.17c0 0.56 0.44 1 1 1 0.55 0 1-0.44 1-1zm0-25.69v-9.18c0-0.55-0.45-1-1-1-0.56 0-1 0.45-1 1v9.18c0 0.55 0.44 1 1 1 0.55 0 1-0.45 1-1zm0-25.7v-9.17c0-0.56-0.45-1-1-1-0.56 0-1 0.44-1 1v9.17c0 0.55 0.44 1 1 1 0.55 0 1-0.45 1-1zm0-25.69v-9.18c0-0.55-0.45-1-1-1-0.56 0-1 0.45-1 1v9.18c0 0.55 0.44 1 1 1 0.55 0 1-0.45 1-1zm0-25.7v-5c0-0.55-0.45-1-1-1-0.56 0-1 0.45-1 1v5c0 0.55 0.44 1 1 1 0.55 0 1-0.45 1-1zm-1 151c-0.56 0-1-0.45-1-1v-5c0-0.55 0.44-1 1-1 0.55 0 1 0.45 1 1v5c0 0.55-0.45 1-1 1zm-47.32-1v-5c0-0.55 0.45-1 1-1 0.56 0 1 0.45 1 1v5c0 0.55-0.44 1-1 1-0.55 0-1-0.45-1-1zm0-21.52v-9.18c0-0.55 0.45-1 1-1 0.56 0 1 0.45 1 1v9.18c0 0.55-0.44 1-1 1-0.55 0-1-0.45-1-1zm0-25.7v-9.17c0-0.55 0.45-1 1-1 0.56 0 1 0.45 1 1v9.17c0 0.56-0.44 1-1 1-0.55 0-1-0.44-1-1zm0-25.69v-9.18c0-0.55 0.45-1 1-1 0.56 0 1 0.45 1 1v9.18c0 0.55-0.44 1-1 1-0.55 0-1-0.45-1-1zm0-25.7v-9.17c0-0.56 0.45-1 1-1 0.56 0 1 0.44 1 1v9.17c0 0.55-0.44 1-1 1-0.55 0-1-0.45-1-1zm0-25.69v-9.18c0-0.55 0.45-1 1-1 0.56 0 1 0.45 1 1v9.18c0 0.55-0.44 1-1 1-0.55 0-1-0.45-1-1zm0-25.7v-5c0-0.55 0.45-1 1-1 0.56 0 1 0.45 1 1v5c0 0.55-0.44 1-1 1-0.55 0-1-0.45-1-1z"/>
			<g id="rubber-cable-ports">
				<path id="rubber 00000052066283023617722070000004285129553360365477 " fill="none" stroke="currentColor" stroke-miterlimit="10" d="m2699.03 122.92l11.03 5.54c1.35 0.68 2.2 2.06 2.2 3.57v34.92c0 1.51-0.85 2.89-2.2 3.57l-11.03 5.53c-1.33 0.67-2.9-0.29-2.9-1.78v-49.56c0-1.49 1.57-2.45 2.9-1.79zm5.17 8.74v35.66m-3.79-31.66h7.58m-7.58 6.91h7.58m-7.58 6.92h7.58m-7.58 13.83h7.58m-7.58-6.92h7.58"/>
				<path id="rubber 00000183239008456888012700000001688425303031996092 " fill="none" stroke="currentColor" stroke-miterlimit="10" d="m2698.34 184.5l11.02-5.54c1.33-0.66 2.9 0.3 2.9 1.79v51.58c0 1.49-1.57 2.45-2.9 1.79l-11.02-5.54c-1.35-0.68-2.21-2.06-2.21-3.57v-36.94c0-1.51 0.86-2.89 2.21-3.57zm5.86 4.21v35.66m-3.79-31.66h7.58m-7.58 6.91h7.58m-7.58 6.92h7.58m-7.58 13.83h7.58m-7.58-6.91h7.58"/>
				<path id="rubber 00000052084208176469923240000016838608779702154169 " fill="none" stroke="currentColor" stroke-miterlimit="10" d="m2601.2 141.52l-5.53-11.03c-0.67-1.33 0.3-2.89 1.79-2.89h51.58c1.48 0 2.45 1.56 1.78 2.89l-5.53 11.03c-0.68 1.35-2.06 2.2-3.58 2.2h-36.93c-1.52 0-2.9-0.85-3.58-2.2zm4.22-5.86h35.66m-31.66 3.79v-7.58m6.91 7.58v-7.58m6.92 7.58v-7.58m13.83 7.58v-7.58m-6.92 7.58v-7.58"/>
				<path id="rubber" fill="none" stroke="currentColor" stroke-miterlimit="10" d="m2699.03 237.03l11.03 5.53c1.35 0.68 2.2 2.06 2.2 3.57v34.92c0 1.51-0.85 2.89-2.2 3.57l-11.03 5.54c-1.33 0.66-2.9-0.3-2.9-1.79v-49.56c0-1.49 1.57-2.45 2.9-1.78zm5.17 8.73v35.66m-3.79-31.66h7.58m-7.58 6.92h7.58m-7.58 6.91h7.58m-7.58 13.83h7.58m-7.58-6.91h7.58"/>
			</g>
			<path id="mb-cutout" fill="none" stroke="currentColor" stroke-linecap="round" stroke-miterlimit="10" d="m2672.83 218.2h-68c-2.66 0-5.2-1.05-7.07-2.92l-6.15-6.15c-1.87-1.87-2.93-4.42-2.93-7.07v-41.78c0-3.31 2.69-6 6-6h68.01c2.65 0 5.2 1.05 7.07 2.93l6.14 6.14c1.88 1.88 2.93 4.42 2.93 7.07v41.78c0 3.32-2.68 6-6 6z"/>
			<path id="slots" fill="none" stroke="currentColor" stroke-linecap="round" stroke-miterlimit="10" d="m2667.87 148.53v-9m3.2 0v9m15.6 0v-9m3.2 0v9m-3.2 43v-9m3.2 0v9m-22 43v-9m3.2 0v9m15.6 0v-9m3.2 0v9m-22 43v-9m3.2 0v9m15.6 0v-9m3.2 0v9"/>
			<path id="cutouts" fill="none" stroke="currentColor" stroke-linecap="round" stroke-miterlimit="10" d="m2668.7 294.61l2.15-6.43c0.27-0.82 1.04-1.37 1.9-1.37h12.25c0.86 0 1.62 0.55 1.9 1.37l2.15 6.43m-62 0l-2.15-6.43c-0.28-0.82-1.04-1.37-1.9-1.37h-12.25c-0.86 0-1.63 0.55-1.9 1.37l-2.15 6.43"/>
		</g>
</g>
</svg>