<svg xmlns="http://www.w3.org/2000/svg" viewBox="2844.2 110.5 209.3 200.0">
<g id="Case-icon-v3">
			<path id="air-vents" fill="currentColor" stroke="currentColor" stroke-linecap="round" stroke-linejoin="round" d="m3029.99 229.83h-2.1v-1.64m0 8.95v1.64h2.1m-2.1-6.12v1.65h2.1m-2.1-15.08v1.65h2.1m-2.1-10.6v1.65h2.1m-2.1-6.12v1.64h2.1m-2.1 7.31v1.64h2.1m-2.1 65.5v1.64h2.1m-2.1-15.07v1.64h2.1m-2.1 2.84v1.64h2.1m-2.1-10.6v1.65h2.1m-2.1 11.78v1.65h2.1m-2.1-19.55v1.64h2.1m-2.1-15.07v1.64h2.1m-2.1 2.84v1.64h2.1m-2.1 2.83v1.65h2.1m-2.1-15.08v1.65h2.1m-2.1-100.12v1.65h2.1m-2.1 7.31v1.64h2.1m-2.1-6.12v1.65h2.1m-2.1 7.3v1.65h2.1m-2.1-19.55v1.64h2.1m-2.1 20.74v1.64h2.1m-2.1 38.64v1.65h2.1m-2.1-15.08v1.65h2.1m-2.1-6.12v1.64h2.1m-2.1 7.31v1.64h2.1m-2.1 2.84v1.64h2.1m-2.1-24.02v1.64h2.1m-2.1-6.12v1.64h2.1m-2.1-6.12v1.65h2.1m-2.1 11.78v1.65h2.1m-2.1 43.11v1.65h2.1m2.83-46.41v1.65h2.11m-2.11-6.12v1.64h2.11m-2.11-6.12v1.64h2.11m-2.11 11.79v1.64h2.11m-2.11 2.83v1.65h2.11m-2.11 7.31v1.64h2.11m-2.11-6.12v1.64h2.11m-2.11-28.5v1.65h2.11m-2.11-32.98v1.65h2.11m-2.11 7.3v1.65h2.11m-2.11 56.54v1.65h2.11m-2.11-64.31v1.64h2.11m-2.11 11.79v1.64h2.11m-2.11 2.83v1.65h2.11m-2.11 2.83v1.64h2.11m-2.11-15.07v1.65h2.11m-2.11 74.44v1.65h2.11m-2.11 34.16v1.64h2.11m-2.11 2.83v1.65h2.11m-2.11-10.6v1.65h2.11m-2.11-6.12v1.64h2.11m-2.11 16.26v1.64h2.11m-2.11 7.31v1.65h2.11m-2.11-32.98v1.64h2.11m-2.11 25.22v1.64h2.11m-2.11-55.36v1.65h2.11m-2.11-6.12v1.64h2.11m-2.11 65.5v1.64h2.11m-2.11-77.73v1.64h2.11m-2.11 34.16v1.65h2.11m-2.11-32.98v1.65h2.11m-2.11 25.21v1.64h2.11m-2.11-6.12v1.65h2.11m-2.11-6.12v1.64h2.11m-99.16-94.16h-1.65v-2.11m-8.95 0v2.11h1.65m2.83-2.11v2.11h1.64m11.79-2.11v2.11h1.64m7.31-2.11v2.11h1.64m2.83-2.11v2.11h1.65m-10.6-2.11v2.11h1.65m-68.79-2.11v2.11h1.65m11.78-2.11v2.11h1.65m-6.12-2.11v2.11h1.64m7.31-2.11v2.11h1.64m-15.07-2.11v2.11h1.64m16.26-2.11v2.11h1.65m11.78-2.11v2.11h1.65m-6.12-2.11v2.11h1.64m-6.12-2.11v2.11h1.64m11.79-2.11v2.11h1.64m96.83-2.11v2.11h1.64m-10.59-2.11v2.11h1.64m2.83-2.11v2.11h1.65m-10.6-2.11v2.11h1.64m16.26-2.11v2.11h1.65m-24.03-2.11v2.11h1.65m-41.93-2.11v2.11h1.65m11.78-2.11v2.11h1.64m2.83-2.11v2.11h1.65m-10.6-2.11v2.11h1.65m-6.12-2.11v2.11h1.64m20.74-2.11v2.11h1.64m2.83-2.11v2.11h1.65m2.83-2.11v2.11h1.64m-15.07-2.11v2.11h1.64m-46.4-2.11v2.11h1.65m43.11-7.04v2.1h1.64m2.84-2.1v2.1h1.64m2.83-2.1v2.1h1.65m-15.08-2.1v2.1h1.65m-6.12-2.1v2.1h1.64m-10.59-2.1v2.1h1.64m2.83-2.1v2.1h1.65m25.21-2.1v2.1h1.64m29.69-2.1v2.1h1.64m-10.59-2.1v2.1h1.64m-59.83-2.1v2.1h1.65m61.01-2.1v2.1h1.65m-15.07-2.1v2.1h1.64m-6.12-2.1v2.1h1.64m-6.12-2.1v2.1h1.65m11.78-2.1v2.1h1.65m-77.74-2.1v2.1h1.65m-37.46-2.1v2.1h1.65m-6.12-2.1v2.1h1.64m7.31-2.1v2.1h1.64m2.84-2.1v2.1h1.64m-19.55-2.1v2.1h1.65m-10.6-2.1v2.1h1.64m29.69-2.1v2.1h1.65m-28.5-2.1v2.1h1.64m52.07-2.1v2.1h1.64m2.83-2.1v2.1h1.65m-68.79-2.1v2.1h1.65m74.44-2.1v2.1h1.65m-37.45-2.1v2.1h1.64m29.69-2.1v2.1h1.64m-28.5-2.1v2.1h1.65m2.83-2.1v2.1h1.64m2.83-2.1v2.1h1.65m-64.31 2.83v2.11h1.65m2.83-2.11v2.11h1.64m-1.64-7.04v2.1h1.64m-6.12-2.1v2.1h1.65m-10.6 2.83v2.11h1.65m2.83-2.11v2.11h1.64m-1.64-7.04v2.1h1.64m-6.12-2.1v2.1h1.65"/>
			<path id="fixing-holes" fill="currentColor" stroke="currentColor" stroke-linecap="round" stroke-linejoin="round" d="m2876.17 144.34c0 1.31-1.06 2.36-2.36 2.36-1.3 0-2.36-1.05-2.36-2.36 0-1.3 1.06-2.35 2.36-2.35 1.3 0 2.36 1.05 2.36 2.35zm126.93-2.35c-1.31 0-2.36 1.05-2.36 2.35 0 1.31 1.05 2.36 2.36 2.36 1.3 0 2.36-1.05 2.36-2.36 0-1.3-1.06-2.35-2.36-2.35z"/>
			<path id="feet 00000147924732048806216950000010094220987139868859 " fill="currentColor" stroke="currentColor" stroke-linecap="round" stroke-linejoin="round" d="m2888.87 288.73l-1.89 6.74h-21.19l-1.89-6.74m132.63 0l1.89 6.74h21.19l1.89-6.74"/>
			<g id="fans">
				<path id="fan 00000085937818493347314450000016864974814648912801 " fill="currentColor" stroke="currentColor" stroke-linecap="round" stroke-linejoin="round" d="m3009.01 155.67v31.53m0-27.09h3.79m-3.79 22.65h3.79"/>
				<path id="fan 00000110468051324210591930000005468537685751666560 " fill="currentColor" stroke="currentColor" stroke-linecap="round" stroke-linejoin="round" d="m2869.64 190.24v-31.53m0 27.09h-3.79m3.79-22.65h-3.79"/>
				<path id="fan 00000023276866465996731630000000409479415989161147 " fill="currentColor" stroke="currentColor" stroke-linecap="round" stroke-linejoin="round" d="m3009.01 191.53v31.53m0-27.09h3.79m-3.79 22.65h3.79"/>
				<path id="fan 00000138546378195329181140000016823187089007209361 " fill="currentColor" stroke="currentColor" stroke-linecap="round" stroke-linejoin="round" d="m3009.01 227.39v22.65m0-18.21h3.79"/>
			</g>
			<path id="metal-bar" fill="currentColor" stroke="currentColor" stroke-linecap="round" stroke-linejoin="round" d="m2984.18 276.46v-26.73l-3.47-15.42v-57.33l3.47-14.29v-13.63m-32.79 127.4v-26.73l3.48-15.42v-57.33l-3.48-14.29v-13.63m17.69 75.35v-35.94c0-0.52-0.42-0.94-0.94-0.94h-0.7c-0.52 0-0.95 0.42-0.95 0.94v35.94c0 0.52 0.43 0.95 0.95 0.95h0.7c0.52 0 0.94-0.43 0.94-0.95zm-15.8-61.72h19.69m-9.61 14.29h14.81m-14.81 57.33h14.81m-24.89 15.73h19.69"/>
			<path id="case 00000075159082882067553480000009300383164433933200 " fill="currentColor" stroke="currentColor" stroke-linecap="round" stroke-linejoin="round" d="m2859.18 142.46v6.6h155.71l9.44-9.43h-165.15v-14.16h179.31v160.43h-14.16v-143.44m-2.83 143.44h-162.32v-134.01m4.72 98.15h87.49m-87.49 33.03v-131.18m150.99 0v131.18m-150.99-6.61h30.76l3.78 4.13h31.91l3.77-4.13h80.77m-30.71-26.42h30.71m-11.79-100.98v7.14h-10.79v82.52h-9.44m-33.36-80.63h-76.28c-0.52 0-0.95-0.42-0.95-0.95v-2.41c0-0.53 0.43-0.95 0.95-0.95h76.28m-23.27 45.77h-42.99c-1.05 0-1.89-0.84-1.89-1.89v-3.59q0-0.5-0.25-0.94l-3.28-5.74q-0.24-0.43-0.25-0.93v-22.17c0-1.04 0.85-1.88 1.89-1.88h46.77c1.04 0 1.88 0.84 1.88 1.88v33.37c0 1.05-0.84 1.89-1.88 1.89zm1.88 3.43v19.67c0 1.56-1.26 2.83-2.83 2.83h-40.4c-1.56 0-2.83-1.27-2.83-2.83v-18.79m156.43-78.39l-12.96 12.96"/>
		</g>
</svg>