<svg xmlns="http://www.w3.org/2000/svg" viewBox="0 0 108.92 219.70">
<g transform="translate(-3471.04,-808.19)" stroke-width="12.92">
<g id="Coolant-icon 00000054963113160504401480000011937758105900433050 ">
			<path id="bottle 00000013911626052141209040000010354567655651492521 " fill="currentColor" stroke="currentColor" stroke-miterlimit="10" d="m3556.6 1012.89h-62.2c-4.62 0-8.36-3.75-8.36-8.36v-108.31c0-2.63 0.82-5.19 2.36-7.33l14.78-20.53c2.36-3.27 6.15-5.21 10.18-5.21h24.28c4.03 0 7.82 1.94 10.18 5.21l14.78 20.53c1.54 2.14 2.36 4.7 2.36 7.33v108.31c0 4.61-3.74 8.36-8.36 8.36zm-65.34-8.36h68.48m-45.1-141.38v-4.7m21.72 0v4.7"/>
			<path id="lid 00000183236650878130068080000011755684125384959391 " fill="currentColor" stroke="currentColor" stroke-miterlimit="10" d="m3539.73 856.88h-28.46v-16.9c0-1.16 0.93-2.09 2.09-2.09h24.28c1.16 0 2.09 0.93 2.09 2.09zm-23.62-16.79v14.58m6.21-14.58v14.58m6.2-14.58v14.58m6.21-14.58v14.58"/>
			<path id="label 00000160168837475507203380000012414394235205189796 " fill="currentColor" stroke="currentColor" stroke-miterlimit="10" d="m3553.97 978.15h-56.94v-79.14h56.94zm-50.38-57.8h11.27v-7.67h-11.27zm13.11 0h11.27v-7.67h-11.27zm-14.71 11.87h36.04m-36.04 15.08h15.67m-15.67 6.13h47.02m-47.02 6.27h47.02m-47.02 6.27h47.02"/>
		</g>
</g>
</svg>