<svg xmlns="http://www.w3.org/2000/svg" viewBox="0 0 134.63 137.31">
<g transform="translate(-1764.85,-1811.56)" stroke-width="4.90">
<g id="CPU-Block-Intel-icon-v1">
			<g id="profile 00000076579138945749402230000015999388603751040403 ">
				<g id="corners 00000031190323310461773170000004923356664517136034 ">
					<path id="TR 00000057111078580001745490000016829739403869652389 " fill="none" stroke="currentColor" stroke-miterlimit="10" d="m1875.45 1853.83v-5.28l9.03-9.03c3.58-3.58 3.58-9.38 0-12.96-3.58-3.58-9.38-3.58-12.96 0l-9.03 9.03h-5.28"/>
					<path id="BR 00000010303566327566846490000001978770597513437327 " fill="none" stroke="currentColor" stroke-miterlimit="10" d="m1857.21 1922.16h5.28l9.03 9.03c1.79 1.79 4.13 2.68 6.48 2.68 2.35 0 4.69-0.89 6.48-2.68 3.58-3.58 3.58-9.39 0-12.97l-9.03-9.02v-5.29"/>
					<path id="BL 00000111893833563591865800000004216226363210245024 " fill="none" stroke="currentColor" stroke-miterlimit="10" d="m1788.88 1903.91v5.29l-9.03 9.02c-3.58 3.58-3.58 9.39 0 12.97 1.79 1.79 4.14 2.68 6.48 2.68 2.35 0 4.69-0.89 6.49-2.68l9.02-9.03h5.29"/>
					<path id="TL 00000025408432596820098490000002742047353366978468 " fill="none" stroke="currentColor" stroke-miterlimit="10" d="m1807.13 1835.59h-5.29l-9.02-9.03c-3.59-3.58-9.39-3.58-12.97 0-3.58 3.58-3.58 9.38 0 12.96l9.03 9.03v5.28"/>
				</g>
				<path id="outer 00000096018830002104304580000001695913433879958919 " fill="none" stroke="currentColor" stroke-miterlimit="10" d="m1879.67 1878.87c0 26.24-21.27 47.5-47.5 47.5-26.24 0-47.5-21.26-47.5-47.5 0-26.23 21.26-47.5 47.5-47.5 26.23 0 47.5 21.27 47.5 47.5z"/>
			</g>
			<g id="inlet-outlet 00000023256856884994249260000010755468490358679965 ">
				<path id="outlet 00000101793900871687419660000008350629043395603331 " fill="none" stroke="currentColor" stroke-miterlimit="10" d="m1851.85 1878.87c0 4.15-3.36 7.5-7.5 7.5-4.15 0-7.5-3.35-7.5-7.5 0-4.14 3.35-7.5 7.5-7.5 4.14 0 7.5 3.36 7.5 7.5z"/>
				<path id="inlet 00000041973774179707498380000017007370509181683884 " fill="none" stroke="currentColor" stroke-miterlimit="10" d="m1827.49 1878.87c0 4.15-3.36 7.5-7.5 7.5-4.15 0-7.5-3.35-7.5-7.5 0-4.14 3.35-7.5 7.5-7.5 4.14 0 7.5 3.36 7.5 7.5z"/>
			</g>
			<g id="fixing-holes 00000077299767971177850320000004302074899355959472 ">
				<path id="fixing-hole 00000158725469793485421120000007762907148302170044 " fill="none" stroke="currentColor" stroke-miterlimit="10" d="m1881.82 1833.04c0 2.11-1.71 3.82-3.82 3.82-2.11 0-3.82-1.71-3.82-3.82 0-2.11 1.71-3.82 3.82-3.82 2.11 0 3.82 1.71 3.82 3.82z"/>
				<path id="fixing-hole 00000177442954147275258310000014762483330327223214 " fill="none" stroke="currentColor" stroke-miterlimit="10" d="m1790.15 1833.04c0 2.11-1.71 3.82-3.82 3.82-2.11 0-3.82-1.71-3.82-3.82 0-2.11 1.71-3.82 3.82-3.82 2.11 0 3.82 1.71 3.82 3.82z"/>
				<path id="fixing-hole 00000145737877931530535320000006974913602644782501 " fill="none" stroke="currentColor" stroke-miterlimit="10" d="m1790.15 1924.71c0 2.11-1.71 3.82-3.82 3.82-2.11 0-3.82-1.71-3.82-3.82 0-2.11 1.71-3.82 3.82-3.82 2.11 0 3.82 1.71 3.82 3.82z"/>
				<path id="fixing-hole 00000136397492019072048570000003144930851108512927 " fill="none" stroke="currentColor" stroke-miterlimit="10" d="m1881.82 1924.71c0 2.11-1.71 3.82-3.82 3.82-2.11 0-3.82-1.71-3.82-3.82 0-2.11 1.71-3.82 3.82-3.82 2.11 0 3.82 1.71 3.82 3.82z"/>
			</g>
			<g id="markings 00000157271985232559312590000005178583696569474744 ">
				<path id="circular 00000140015807952538227360000004988992852173272967 " fill="none" stroke="currentColor" stroke-miterlimit="10" d="m1872.17 1878.87c0 22.09-17.91 40-40 40-22.09 0-40-17.91-40-40 0-22.09 17.91-40 40-40 22.09 0 40 17.91 40 40z"/>
				<path id="bottom 00000072260096485627952610000017098925161777717381 " fill="none" stroke="currentColor" stroke-miterlimit="10" d="m1807.17 1892.12h48"/>
				<path id="top 00000039119672778197683460000005297934891477225879 " fill="none" stroke="currentColor" stroke-miterlimit="10" d="m1855.17 1865.62h-48"/>
			</g>
		</g>
</g>
</svg>