<svg xmlns="http://www.w3.org/2000/svg" viewBox="2034.8 1811.6 134.6 137.3">
<g id="CPU-Block-Intel-icon-v2">
			<path id="outlet 00000024683496746613623080000010384978065830310538 " fill="currentColor" stroke="currentColor" stroke-miterlimit="10" d="m2129.39 1878.87c0 4.22-3.42 7.64-7.64 7.64-4.22 0-7.64-3.42-7.64-7.64 0-4.22 3.42-7.64 7.64-7.64 4.22 0 7.64 3.42 7.64 7.64z"/>
			<path id="inlet 00000165210221926549041560000017387187624354017170 " fill="currentColor" stroke="currentColor" stroke-miterlimit="10" d="m2090.23 1878.87c0 4.22-3.42 7.64-7.64 7.64-4.22 0-7.64-3.42-7.64-7.64 0-4.22 3.42-7.64 7.64-7.64 4.22 0 7.64 3.42 7.64 7.64z"/>
			<g id="fixing-holes 00000087378279801509652200000002183177856744780434 ">
				<path id="fixing-hole 00000055703589637151999200000009610379940519178625 " fill="currentColor" stroke="currentColor" stroke-miterlimit="10" d="m2151.82 1833.04c0 2.11-1.71 3.82-3.82 3.82-2.11 0-3.82-1.71-3.82-3.82 0-2.11 1.71-3.82 3.82-3.82 2.11 0 3.82 1.71 3.82 3.82z"/>
				<path id="fixing-hole 00000029006011191225950280000015106850989383760771 " fill="currentColor" stroke="currentColor" stroke-miterlimit="10" d="m2060.15 1833.04c0 2.11-1.71 3.82-3.82 3.82-2.11 0-3.82-1.71-3.82-3.82 0-2.11 1.71-3.82 3.82-3.82 2.11 0 3.82 1.71 3.82 3.82z"/>
				<path id="fixing-hole 00000090286186642262483100000000877075366408206759 " fill="currentColor" stroke="currentColor" stroke-miterlimit="10" d="m2060.15 1924.71c0 2.11-1.71 3.82-3.82 3.82-2.11 0-3.82-1.71-3.82-3.82 0-2.11 1.71-3.82 3.82-3.82 2.11 0 3.82 1.71 3.82 3.82z"/>
				<path id="fixing-hole 00000104674176885581794190000000067073739331632796 " fill="currentColor" stroke="currentColor" stroke-miterlimit="10" d="m2151.82 1924.71c0 2.11-1.71 3.82-3.82 3.82-2.11 0-3.82-1.71-3.82-3.82 0-2.11 1.71-3.82 3.82-3.82 2.11 0 3.82 1.71 3.82 3.82z"/>
			</g>
			<path id="fixing-arms 00000129200476140737929090000007501813690191853203 " fill="currentColor" stroke="currentColor" stroke-miterlimit="10" d="m2147.65 1911.4l6.83 6.82c3.58 3.58 3.58 9.39 0 12.97-1.79 1.79-4.13 2.68-6.48 2.68-2.35 0-4.69-0.89-6.48-2.68l-6.83-6.83m12.96-78.01l6.83-6.83c3.58-3.58 3.58-9.38 0-12.96-3.58-3.58-9.38-3.58-12.96 0l-6.83 6.83m-65.05 0l-6.82-6.83c-3.59-3.58-9.39-3.58-12.97 0-3.58 3.58-3.58 9.38 0 12.96l6.83 6.83m0 65.05l-6.83 6.82c-3.58 3.58-3.58 9.39 0 12.97 1.79 1.79 4.14 2.68 6.48 2.68 2.35 0 4.69-0.89 6.49-2.68l6.82-6.83"/>
			<path id="case 00000078763462673865165650000013769472889624440194 " fill="currentColor" stroke="currentColor" stroke-miterlimit="10" d="m2149.23 1850.83c-7.06-7.06-11.96-11.96-19.02-19.02-9.45-1.29-18.74-1.94-28.04-1.94-9.3 0-18.6 0.65-28.05 1.94-7.06 7.06-11.95 11.96-19.01 19.02-2.59 18.89-2.59 37.19 0 56.09 7.06 7.06 11.95 11.95 19.01 19.01 9.45 1.3 18.75 1.94 28.05 1.94 9.3 0 18.59-0.64 28.04-1.94 7.06-7.06 11.96-11.95 19.02-19.01 2.58-18.9 2.58-37.2 0-56.09zm-7.66 52.51l-0.16 0.16-14.78 14.77c-8.27 1.01-16.31 1.5-24.46 1.5-8.16 0-16.2-0.49-24.47-1.5l-13.23-13.22-1.7-1.71-1.1-11.97h20.92c6.9 0 12.5-5.59 12.5-12.5 0-6.9-5.6-12.5-12.5-12.5h-20.92l1.1-11.97 4.57-4.57 10.36-10.36c8.27-1 16.31-1.49 24.47-1.49 8.15 0 16.19 0.49 24.46 1.49l7.47 7.47 7.47 7.46 1.09 11.97h-20.91c-6.91 0-12.5 5.6-12.5 12.5 0 6.91 5.59 12.5 12.5 12.5h20.91zm-39.4-8.15c-1.53 0-2.78-1.48-2.78-3.3v-26.03c0-1.83 1.25-3.3 2.78-3.3 1.54 0 2.79 1.47 2.79 3.3v26.03c0 1.82-1.25 3.3-2.79 3.3z"/>
			<path id="&lt;Path&gt;" fill="currentColor" stroke="currentColor" stroke-miterlimit="10" stroke-width="1" d="m2136.5 1864.41c-5.29-13.57-18.66-23.22-34.33-23.22-15.68 0-29.05 9.65-34.34 23.22"/>
			<path id="&lt;Path&gt;" fill="currentColor" stroke="currentColor" stroke-miterlimit="10" stroke-width="1" d="m2067.83 1893.34c5.29 13.57 18.66 23.21 34.34 23.21 15.67 0 29.04-9.64 34.33-23.21"/>
		</g>
</svg>