<svg xmlns="http://www.w3.org/2000/svg" viewBox="0 0 131.74 160.00">
<g transform="translate(-1496.30,-1798.87)" stroke-width="5.71">
<g id="CPU-Block-icon-v1">
			<path id="branding 00000069382721747863059110000010323291691241707681 " fill="none" stroke="currentColor" stroke-miterlimit="10" d="m1593.82 1932.48v3.03c0 1.5 1.21 2.71 2.71 2.71h8.14c1.5 0 2.71-1.21 2.71-2.71v-8.14c0-1.5-1.21-2.71-2.71-2.71h-8.14c-1.5 0-2.71 1.21-2.71 2.71v1.36c0 1.49 1.21 2.71 2.71 2.71h4.89c1.49 0 2.71 1.21 2.71 2.71v1.18"/>
			<path id="model" fill="none" stroke="currentColor" stroke-miterlimit="10" d="m1580.27 1861.35v21.48m-4.36-7.91v12.43"/>
			<g id="inlet-outlet 00000155115073194483251960000011104508797079079050 ">
				<path id="inlet 00000125572833825355599370000010709607119533835922 " fill="none" stroke="currentColor" stroke-miterlimit="10" d="m1540.97 1863.05c0 4.68-3.79 8.48-8.48 8.48-4.68 0-8.48-3.8-8.48-8.48 0-4.69 3.8-8.48 8.48-8.48 4.69 0 8.48 3.79 8.48 8.48z"/>
				<path id="outlet 00000170964680940714275070000011861434724945281453 " fill="none" stroke="currentColor" stroke-miterlimit="10" d="m1540.97 1894.7c0 4.68-3.79 8.48-8.48 8.48-4.68 0-8.48-3.8-8.48-8.48 0-4.68 3.8-8.48 8.48-8.48 4.69 0 8.48 3.8 8.48 8.48z"/>
				<path id="in" fill="none" stroke="currentColor" stroke-miterlimit="10" d="m1556.81 1859.66l-6.79 3.39 6.79 3.39"/>
				<path id="out" fill="none" stroke="currentColor" stroke-miterlimit="10" d="m1550.02 1898.09l6.79-3.39-6.79-3.39"/>
			</g>
			<path id="rgb 00000166642976753072056730000009074194774474112691 " fill="none" stroke="currentColor" stroke-miterlimit="10" d="m1588.38 1943.87v-32.71c0-3-1.19-5.87-3.31-7.99l-11.38-11.38c-2.12-2.12-3.31-4.99-3.31-7.99v-22.29c0-3 1.19-5.87 3.31-7.99l11.1-11.1c2.12-2.12 3.31-4.99 3.31-7.99v-20.56m-4.52 0v18.3c0 3-1.19 5.87-3.31 7.99l-11.1 11.1c-2.12 2.12-3.31 4.99-3.31 7.99v26.81c0 3 1.19 5.87 3.31 7.99l11.38 11.38c2.12 2.12 3.31 5 3.31 7.99v30.45"/>
			<path id="block 00000081610760782892685100000001645998421690072223 " fill="none" stroke="currentColor" stroke-miterlimit="10" d="m1511.3 1939.35v-120.96c1.76-1.76 2.75-2.75 4.52-4.52h92.69c1.77 1.77 2.76 2.76 4.53 4.52v120.96c-1.77 1.77-2.76 2.76-4.53 4.52h-92.69c-1.77-1.76-2.76-2.75-4.52-4.52zm73.49-96.93v60.75"/>
		</g>
</g>
</svg>