<svg xmlns="http://www.w3.org/2000/svg" viewBox="0 0 121.58 156.24">
<g transform="translate(-1771.38,-1561.84)" stroke-width="5.58">
<g id="CPU-Block-AMD-icon-v1">
			<path id="branding 00000114031427218548931170000015308101443007981205 " fill="none" stroke="currentColor" stroke-miterlimit="10" d="m1847.88 1665.76v3.91c0 1.93 1.56 3.5 3.5 3.5h10.5c1.93 0 3.5-1.57 3.5-3.5v-10.5c0-1.93-1.57-3.5-3.5-3.5h-10.5c-1.94 0-3.5 1.57-3.5 3.5v1.75c0 1.93 1.56 3.5 3.5 3.5h6.3c1.93 0 3.5 1.57 3.5 3.5v1.52"/>
			<path id="block 00000162319507450738137580000014681139599967414146 " fill="none" stroke="currentColor" stroke-miterlimit="10" d="m1866.97 1681.17h-69.6c-2.51-2.5-3.91-3.91-6.41-6.41v-69.6c2.5-2.51 3.9-3.91 6.41-6.41h69.6c2.5 2.5 3.9 3.9 6.41 6.41v69.6c-2.51 2.5-3.91 3.91-6.41 6.41z"/>
			<path id="rgb 00000115479499379413640190000011751527782313191820 " fill="none" stroke="currentColor" stroke-miterlimit="10" d="m1866.97 1681.17l-8.41 7.41h-24.19l-8.41-7.41"/>
			<path id="fixing-plate 00000132062708753190945120000011287996879054352797 " fill="none" stroke="currentColor" stroke-miterlimit="10" d="m1875.81 1693.39l-9.42 9.42c-2.76 2.76-7.19 2.87-10.08 0.27l-10.02-9.02c-2.02-1.81-4.64-2.82-7.35-2.82h-13.55c-2.71 0-5.33 1.01-7.35 2.82l-10.01 9.02c-2.9 2.6-7.33 2.49-10.08-0.27l-9.43-9.42c-1.37-1.38-2.14-3.24-2.14-5.18v-96.5c0-1.95 0.77-3.81 2.14-5.18l9.43-9.43c2.75-2.75 7.18-2.87 10.08-0.26l10.01 9.01c2.02 1.82 4.64 2.82 7.35 2.82h13.55c2.71 0 5.33-1 7.35-2.82l10.02-9.01c2.89-2.61 7.32-2.49 10.08 0.26l9.42 9.43c1.37 1.37 2.15 3.23 2.15 5.18v96.5c0 1.94-0.78 3.8-2.15 5.18z"/>
			<path id="fixing-holes 00000170992809519565997750000007178607096837630084 " fill="none" stroke="currentColor" stroke-miterlimit="10" d="m1866.65 1592.48c-0.58 0-1.17-0.22-1.62-0.67l-5.76-5.76c-0.89-0.9-0.89-2.35 0-3.24 0.9-0.89 2.35-0.89 3.24 0l5.76 5.76c0.9 0.9 0.9 2.35 0 3.24-0.45 0.45-1.03 0.67-1.62 0.67zm-67.35-0.67l5.76-5.76c0.89-0.9 0.89-2.34 0-3.24-0.89-0.89-2.34-0.89-3.24 0l-5.76 5.76c-0.89 0.9-0.89 2.34 0 3.24 0.45 0.45 1.03 0.67 1.62 0.67 0.59 0 1.17-0.22 1.62-0.67zm5.76 105.29c0.89-0.89 0.89-2.34 0-3.23l-5.76-5.76c-0.9-0.9-2.34-0.9-3.24 0-0.89 0.89-0.89 2.34 0 3.23l5.76 5.76c0.45 0.45 1.03 0.68 1.62 0.68 0.59 0 1.17-0.23 1.62-0.68zm57.45 0l5.76-5.76c0.9-0.89 0.9-2.34 0-3.23-0.89-0.9-2.34-0.9-3.24 0l-5.76 5.76c-0.89 0.89-0.89 2.34 0 3.23 0.45 0.45 1.04 0.68 1.62 0.68 0.59 0 1.18-0.23 1.62-0.68z"/>
			<g id="inlet-outlet 00000090291732026093323770000015392816932273739396 ">
				<path id="outlet 00000022534519232815134980000009801771306719559825 " fill="none" stroke="currentColor" stroke-miterlimit="10" d="m1857.81 1639.96c0 3.79-3.08 6.87-6.87 6.87-3.79 0-6.87-3.08-6.87-6.87 0-3.8 3.08-6.87 6.87-6.87 3.79 0 6.87 3.07 6.87 6.87z"/>
				<path id="inlet 00000043454905452181994830000008168032098416738966 " fill="none" stroke="currentColor" stroke-miterlimit="10" d="m1830.68 1639.96c0 3.79-3.07 6.87-6.86 6.87-3.8 0-6.87-3.08-6.87-6.87 0-3.8 3.07-6.87 6.87-6.87 3.79 0 6.86 3.07 6.86 6.87z"/>
			</g>
		</g>
</g>
</svg>