<svg xmlns="http://www.w3.org/2000/svg" viewBox="0 0 168.92 184.85">
<g transform="translate(-2017.71,-2025.36)" stroke-width="10.87">
<g id="CPU-Cooler-icon-v4">
			<path id="rgb 00000013893298145374736360000015890413869375810746 " fill="none" stroke="currentColor" stroke-linecap="round" stroke-miterlimit="10" d="m2128.27 2195.21v-29.86l11.38-10.74c0.4-0.45 0.62-1.04 0.62-1.64v-112.61h-5v111.67l-11.38 10.73c-0.4 0.46-0.62 1.04-0.62 1.65v30.8zm-47.21 0v-30.8c0-0.61-0.22-1.19-0.61-1.65l-11.39-10.73v-111.67h-5v112.61c0 0.6 0.22 1.19 0.62 1.64l11.38 10.74v29.86z"/>
			<path id="profile 00000013165160139235709640000013060433814272986041 " fill="none" stroke="currentColor" stroke-linecap="round" stroke-linejoin="round" d="m2132.27 2040.36h-60.21m0 10h60.21m-48.21 144.85h36.21m0-10h-36.21m47.21 10h14.47q1.26 0 2.47-0.39l17.89-5.81c3.3-1.07 5.53-4.14 5.53-7.61v-127.22c0-3.47-2.23-6.54-5.53-7.61l-17.89-5.81q-1.21-0.39-2.47-0.4h-2.47m-12 144.85h13.52q0.63 0 1.23-0.19l12.84-4.17c1.65-0.54 2.77-2.08 2.77-3.81v-118.5c0-1.74-1.12-3.27-2.77-3.81l-12.84-4.17q-0.6-0.2-1.23-0.2h-1.52m-82.21-10h-2.46q-1.27 0.01-2.48 0.4l-17.89 5.81c-3.29 1.07-5.52 4.14-5.52 7.61v127.22c0 3.47 2.23 6.54 5.52 7.61l17.89 5.81q1.21 0.39 2.48 0.39h14.46m-12-144.85h-1.51q-0.64 0-1.24 0.2l-12.84 4.17c-1.65 0.54-2.76 2.07-2.76 3.81v118.5c0 1.73 1.11 3.27 2.76 3.81l12.84 4.17q0.6 0.19 1.24 0.19h13.51"/>
			<path id="screws 00000070106872865928702130000003459244004857089715 " fill="none" stroke="currentColor" stroke-linecap="round" stroke-miterlimit="10" stroke-width="1" d="m2086.56 2068.1c0 3.46-2.79 6.25-6.25 6.25-3.45 0-6.25-2.79-6.25-6.25 0-3.45 2.8-6.25 6.25-6.25 3.46 0 6.25 2.8 6.25 6.25zm-6.25-3.25v6.5m3.25-3.25h-6.5m53.21 0c0 3.46-2.8 6.25-6.25 6.25-3.45 0-6.25-2.79-6.25-6.25 0-3.45 2.8-6.25 6.25-6.25 3.45 0 6.25 2.8 6.25 6.25zm-6.25-3.25v6.5m3.25-3.25h-6.5m-50.21 102.86c0 3.46-2.79 6.25-6.25 6.25-3.45 0-6.25-2.79-6.25-6.25 0-3.45 2.8-6.25 6.25-6.25 3.46 0 6.25 2.8 6.25 6.25zm-6.25-3.25v6.5m3.25-3.25h-6.5m85.21 0c0 3.46-2.8 6.25-6.25 6.25-3.45 0-6.25-2.79-6.25-6.25 0-3.45 2.8-6.25 6.25-6.25 3.45 0 6.25 2.8 6.25 6.25zm-6.25-3.25v6.5m3.25-3.25h-6.5"/>
			<path id="branding 00000175287145672568576720000008182789710678478260 " fill="none" stroke="currentColor" stroke-linecap="round" stroke-miterlimit="10" stroke-width="1" d="m2077.63 2106.7h14.89m-14.89 24h49.07m-49.07-8h49.07v-8h-49.07z"/>
		</g>
</g>
</svg>