<svg xmlns="http://www.w3.org/2000/svg" viewBox="0 0 204.54 195.00">
<g transform="translate(-1459.90,-2020.29)">
<g id="CPU-Cooler-icon-v2">
			<g id="fans 00000017502565808962725450000018008970588311643040 ">
				<path id="fan" fill="currentColor" stroke="currentColor" stroke-linecap="round" stroke-linejoin="round" d="m1566.67 2175.06v-139.77h5.25v139.77zm25.37 0v-139.77h-5.25v139.77zm-20.12-137.15h14.87m-14.87 134.53h14.87m-14.87-65.52h14.87m-14.87-3.5h14.87m-20.12-19.24h5.25m-5.25 41.99h5.25m14.87-41.99h5.25m-5.25 41.99h5.25"/>
				<path id="fan 00000178191175997852104570000010408708930512962973 " fill="currentColor" stroke="currentColor" stroke-linecap="round" stroke-linejoin="round" d="m1474.9 2175.06v-139.77h5.25v139.77zm25.36 0v-139.77h-5.24v139.77zm-20.12-137.15h14.87m-14.87 134.53h14.87m-14.87-65.52h14.87m-14.87-3.5h14.87m-20.12-19.24h5.25m-5.25 41.99h5.25m14.87-41.99h5.25m-5.25 41.99h5.25"/>
			</g>
			<g id="housing-units">
				<path id="housing" fill="currentColor" stroke="currentColor" stroke-linecap="round" stroke-linejoin="round" d="m1525.62 2039.22h24.14v112.66h-24.14v-14.98h-10.01v-97.68z"/>
				<path id="connection 00000172402217733775780220000008712933069396616632 " fill="currentColor" stroke="currentColor" stroke-linecap="round" stroke-linejoin="round" d="m1515.61 2090.9h-9.65v-5.09h-2.64m0-46.59h12.29m-9.65 1.75v43.09"/>
				<path id="grooves" fill="currentColor" stroke="currentColor" stroke-linecap="round" stroke-linejoin="round" d="m1532.66 2150.13v-109.16m-10.03 0v94.18m20.05 14.98v-109.16"/>
				<path id="housing 00000063606982817099838710000002526297412453182369 " fill="currentColor" stroke="currentColor" stroke-linecap="round" stroke-linejoin="round" d="m1632.54 2039.22h-25.16v112.66h24.14v-14.98h10.01v-97.68z"/>
				<path id="connection 00000067224829377774010230000007159385916133567895 " fill="currentColor" stroke="currentColor" stroke-linecap="round" stroke-linejoin="round" d="m1607.38 2090.9h-9.65v-5.09h-2.64m0-46.59h12.29m-9.65 1.75v43.09"/>
				<path id="grooves 00000039854877724758753410000018194244923740531635 " fill="currentColor" stroke="currentColor" stroke-linecap="round" stroke-linejoin="round" d="m1624.48 2040.97v109.16m10.03-14.98v-94.18m-20.05 0v109.16"/>
			</g>
			<g id="cooling-fins">
				<path id="fins" fill="currentColor" stroke="currentColor" stroke-linecap="round" stroke-linejoin="round" d="m1518.66 2045.05h0.92m6.11 0h3.91m6.11 0h3.92m-20.97 5.09h0.92m6.11 0h3.91m6.11 0h3.92m-20.97 5.1h0.92m6.11 0h3.91m6.11 0h3.92m-20.97 5.09h0.92m6.11 0h3.91m10.03 0h-3.92m-17.05 5.1h0.92m6.11 0h3.91m6.11 0h3.92m-20.97 5.09h0.92m6.11 0h3.91m10.03 0h-3.92m-17.05 5.1h0.92m6.11 0h3.91m10.03 0h-3.92m-17.05 5.09h0.92m6.11 0h3.91m10.03 0h-3.92m-17.05 5.1h0.92m6.11 0h3.91m10.03 0h-3.92m-17.05 5.09h0.92m6.11 0h3.91m10.03 0h-3.92m-17.05 5.09h0.92m6.11 0h3.91m10.03 0h-3.92m-17.05 5.1h0.92m6.11 0h3.91m10.03 0h-3.92m-17.05 5.09h0.92m6.11 0h3.91m10.03 0h-3.92m-17.05 5.1h0.92m6.11 0h3.91m10.03 0h-3.92m-17.05 5.09h0.92m6.11 0h3.91m10.03 0h-3.92m-17.05 5.1h0.92m6.11 0h3.91m10.03 0h-3.92m-17.05 5.09h0.92m6.11 0h3.91m10.03 0h-3.92m-17.05 5.1h0.92m6.11 0h3.91m6.11 0h3.92m-30.62-86.61h3.55m-3.55 5.09h3.55m-3.55 5.1h3.55m-3.55 5.09h3.55m-3.55 5.1h3.55m-3.55 5.09h3.55m-3.55 5.1h3.55m-3.55 5.09h3.55m-3.55 5.1h3.55m0 10.18h-3.55m0 5.1h3.55m-3.55 5.09h3.55m-3.55 5.1h3.55m-3.55 5.09h3.55m0 5.1h-3.55m3.55 5.09h-3.55m0 5.1h3.55m27.07 5.24h-3.92m0 5.25h3.92m0 5.24h-3.92m21.95-102.33h-4.85m0 5.11h4.85m-4.85 5.12h4.85m0 5.12h-4.85m0 5.11h4.85m-4.85 5.12h4.85m-4.85 5.12h4.85m-4.85 5.11h4.85m-4.85 5.12h4.85m-4.85 5.12h4.85m-4.85 5.11h4.85m0 5.12h-4.85m0 5.12h4.85m-4.85 5.12h4.85m-4.85 5.11h4.85m-4.85 5.12h4.85m-4.85 5.12h4.85m-4.85 5.11h4.85m-4.85 5.12h4.85m-4.85 5.12h4.85m-4.85 5.11h4.85m-48.65-10.23h3.55m-3.55 5.12h13.55m-13.55 5.11h13.55m24.15-102.34h-0.98m0 5.09h0.98m0 5.1h-0.98m0.98 5.09h-0.98m0 5.1h0.98m-0.98 5.09h0.98m-0.98 5.1h0.98m0 5.09h-0.98m0.98 5.1h-0.98m0.98 5.09h-0.98m0 5.09h0.98m-0.98 5.1h0.98m0 5.09h-0.98m0 5.1h0.98m0 5.09h-0.98m0 5.1h0.98m-0.98 5.09h0.98m0 5.1h-0.98m0.98 5.24h-0.98m0 5.25h0.98m0 5.24h-0.98m-16.13-10.49h-0.93m0.93 5.25h-0.93m0.93 5.24h-0.93"/>
				<path id="fins 00000074417196945521261980000005095587764515295630 " fill="currentColor" stroke="currentColor" stroke-linecap="round" stroke-linejoin="round" d="m1637.56 2045.05h0.92m-10.94 0h3.91m-13.93 0h3.91m16.13 5.09h0.92m-10.94 0h3.91m-13.93 0h3.91m16.13 5.1h0.92m-10.94 0h3.91m-13.93 0h3.91m16.13 5.09h0.92m-10.94 0h3.91m-10.02 0h-3.91m20.04 5.1h0.92m-10.94 0h3.91m-13.93 0h3.91m16.13 5.09h0.92m-10.94 0h3.91m-10.02 0h-3.91m20.04 5.1h0.92m-10.94 0h3.91m-10.02 0h-3.91m20.04 5.09h0.92m-10.94 0h3.91m-10.02 0h-3.91m20.04 5.1h0.92m-10.94 0h3.91m-10.02 0h-3.91m20.04 5.09h0.92m-10.94 0h3.91m-10.02 0h-3.91m20.04 5.09h0.92m-10.94 0h3.91m-10.02 0h-3.91m20.04 5.1h0.92m-10.94 0h3.91m-10.02 0h-3.91m20.04 5.09h0.92m-10.94 0h3.91m-10.02 0h-3.91m20.04 5.1h0.92m-10.94 0h3.91m-10.02 0h-3.91m20.04 5.09h0.92m-10.94 0h3.91m-10.02 0h-3.91m20.04 5.1h0.92m-10.94 0h3.91m-10.02 0h-3.91m20.04 5.09h0.92m-10.94 0h3.91m-10.02 0h-3.91m20.04 5.1h0.92m-10.94 0h3.91m-13.93 0h3.91m21.85-86.61h6.16m-6.16 5.09h6.16m-6.16 5.1h6.16m-6.16 5.09h6.16m-6.16 5.1h6.16m0 5.09h-6.16m0 5.1h6.16m-6.16 5.09h6.16m-6.16 5.1h6.16m0 10.18h-6.16m0 5.1h6.16m-6.16 5.09h6.16m-6.16 5.1h6.16m-6.16 5.09h6.16m0 5.1h-6.16m6.16 5.09h-6.16m0 5.1h6.16m-28.01 5.24h-3.91m0 5.25h3.91m0 5.24h-3.91m-16.74-102.33h3.55m-3.55 5.11h3.55m-3.55 5.12h3.55m0 5.12h-3.55m0 5.11h3.55m-3.55 5.12h3.55m-3.55 5.12h3.55m-3.55 5.11h3.55m0 5.12h-3.55m48.66 5.12h-6.16m-42.5 5.11h3.55m0 5.12h-3.55m3.55 5.12h-3.55m0 5.12h3.55m-3.55 5.11h3.55m-3.55 5.12h3.55m-3.55 5.12h3.55m-3.55 5.11h3.55m-3.55 5.12h3.55m-3.55 5.12h3.55m-3.55 5.11h3.55m38.95-10.23h6.16m-15.47 5.12h15.47m-15.47 5.11h15.47m-38.03-102.34h-0.98m0.98 5.09h-0.98m0.98 5.1h-0.98m0.98 5.09h-0.98m0.98 5.1h-0.98m0.98 5.09h-0.98m0.98 5.1h-0.98m0.98 5.09h-0.98m0.98 5.1h-0.98m0.98 5.09h-0.98m0.98 5.09h-0.98m0.98 5.1h-0.98m0.98 5.09h-0.98m0.98 5.1h-0.98m0.98 5.09h-0.98m0.98 5.1h-0.98m0.98 5.09h-0.98m0.98 5.1h-0.98m0.98 5.24h-0.98m0.98 5.25h-0.98m0.98 5.24h-0.98m18.04-10.49h-0.93m0.93 5.25h-0.93m0.93 5.24h-0.93"/>
			</g>
			<path id="heat-pipes" fill="currentColor" stroke="currentColor" stroke-linecap="round" stroke-linejoin="round" d="m1531.23 2153.63v4.24q0 3.01 0.55 5.96l2.58 14c1.23 6.63 7.02 11.45 13.77 11.45h60.88c6.75 0 12.54-4.82 13.77-11.45l2.58-14q0.55-2.95 0.55-5.96v-4.24m-19.83 32.15c5.28 0 9.8-3.76 10.76-8.95l2.4-13q0.54-2.95 0.55-5.96v-4.24m3.49 0v4.24q0 3.01-0.54 5.96l-2.59 14c-1.22 6.63-7.01 11.45-13.76 11.45m-61.5-35.65v4.34q0 2.91-0.51 5.77l-1.87 10.5q-0.24 1.34-0.24 2.69v0.1c0 4.83 3.91 8.75 8.75 8.75h55.11c4.83 0 8.74-3.92 8.74-8.75v-0.1q0-1.35-0.24-2.69l-1.87-10.5q-0.51-2.86-0.51-5.77v-4.34m2.59 24.17l1.36-14.44c0.21-1.99 0.35-5.99 0.35-5.99l-0.11-3.74m-82.58 0v4.24q0 3.01 0.54 5.96l2.59 14c1.23 6.63 7.01 11.45 13.76 11.45m-13.39-35.65v4.24q0 3.01 0.54 5.96l2.4 13c0.96 5.19 5.48 8.95 10.76 8.95m-10.36-32.15l-0.11 3.74c0 0 0.14 4 0.35 5.99l1.36 14.44"/>
			<path id="cooling-block" fill="currentColor" stroke="currentColor" stroke-linecap="round" stroke-linejoin="round" d="m1553.83 2182.73v-1.24h49.48v1.24m-49.48 9.6v1.24h49.48v-1.24m-40.99 1.24v6.72h32.5v-6.72"/>
			<path id="screws 00000170279195160190660310000006522474142093861507 " fill="currentColor" stroke="currentColor" stroke-linecap="round" stroke-linejoin="round" d="m1601.15 2195.81v2.15c0 0.24-0.19 0.43-0.44 0.43h-2.12c-0.24 0-0.43-0.19-0.43-0.43v-2.15m-42.17 0v2.15c0 0.24 0.19 0.43 0.44 0.43h2.12c0.24 0 0.44-0.19 0.44-0.43v-2.15"/>
		</g>
</g>
</svg>