<svg xmlns="http://www.w3.org/2000/svg" viewBox="0 0 128.49 213.30">
<g transform="translate(-1227.92,-1745.36)">
<g id="CPU-Block-AMD-icon-v3">
			<g id="inlet-outlet 00000132045674072382092200000015577357634067154305 ">
				<path id="outlet 00000021096900801261863720000012407466581176088493 " fill="currentColor" stroke="currentColor" stroke-miterlimit="10" d="m1299.78 1862.8h-15.23c-2.32 0-4.2 1.88-4.2 4.2v15.23c0 2.32 1.88 4.21 4.2 4.21h15.23c2.32 0 4.2-1.89 4.2-4.21v-15.23c0-2.32-1.88-4.2-4.2-4.2zm-7.61 4.73c3.91 0 7.09 3.17 7.09 7.09 0 3.91-3.18 7.09-7.09 7.09-3.92 0-7.09-3.18-7.09-7.09 0-3.92 3.17-7.09 7.09-7.09z"/>
				<path id="outlet 00000157992480173304829570000013679290342980507047 " fill="currentColor" stroke="currentColor" stroke-miterlimit="10" d="m1303.98 1924.84v-20.49c0-2.32-1.88-4.21-4.2-4.21h-15.23c-2.32 0-4.2 1.89-4.2 4.21v20.49m11.82-19.97c3.91 0 7.09 3.18 7.09 7.09 0 3.92-3.18 7.09-7.09 7.09-3.92 0-7.09-3.17-7.09-7.09 0-3.91 3.17-7.09 7.09-7.09z"/>
				<path id="direction" fill="currentColor" stroke="currentColor" stroke-linejoin="round" d="m1309.88 1876.68l-3.78-2.06 3.78-2.06z"/>
			</g>
			<path id="branding 00000176762005243471711910000006848833380975566995 " fill="currentColor" stroke="currentColor" stroke-linejoin="round" d="m1276.28 1839.19v35.43m3.78-35.43v13.83"/>
			<path id="block 00000158743939852275275540000015038373245547502216 " fill="currentColor" stroke="currentColor" stroke-miterlimit="10" d="m1334.71 1915.14l-22.17 9.7h-40.75l-22.17-9.7v-72.54l22.17-9.7h40.75l22.17 9.7zm-22.17 9.7v-91.94m-40.75 91.94v-91.94"/>
			<g id="fixing-plate 00000102535556287646006850000003957810778951435445 ">
				<g id="bottom 00000015349663969480937940000008863344900761104552 ">
					<path id="holes 00000020372003502385039780000008214636808605260188 " fill="currentColor" stroke="currentColor" stroke-miterlimit="10" d="m1278.14 1926.89l-5.57 5.58c-1.42 1.42-3.68 1.56-5.27 0.34l-20.66-15.87m59.76 10.16l5.37 5.37c1.42 1.42 3.67 1.56 5.26 0.34l20.66-15.87m-80.81 12.93l5.95 4.56c1.24 0.96 1.48 2.74 0.52 3.98-0.95 1.24-2.73 1.48-3.97 0.52l-5.95-4.56c-1.24-0.96-1.48-2.74-0.52-3.98 0.56-0.73 1.4-1.11 2.25-1.11 0.6 0 1.21 0.19 1.72 0.59zm74.53 0.44c0.97 1.24 0.74 3.02-0.49 3.98l-5.95 4.63c-1.24 0.97-3.02 0.74-3.98-0.49-0.96-1.24-0.74-3.02 0.5-3.98l5.94-4.63c0.52-0.4 1.13-0.6 1.74-0.6 0.85 0 1.69 0.38 2.24 1.09z"/>
					<path id="plate 00000067193774782715260410000005526354713895307150 " fill="currentColor" stroke="currentColor" stroke-miterlimit="10" d="m1249.62 1900.47l-6.2 12.19c-0.39 0.78-0.56 1.64-0.5 2.51l1.55 20.28c0.14 1.94 1.46 3.59 3.32 4.16l13.19 4.05c1.38 0.43 2.87 0.2 4.06-0.61l10.74-7.35c0.78-0.53 1.71-0.82 2.66-0.82h27.45c0.95 0 1.88 0.29 2.67 0.82l10.75 7.35c1.19 0.81 2.68 1.04 4.06 0.61l13.17-4.05c1.86-0.57 3.18-2.22 3.33-4.16l1.54-20.28c0.07-0.87-0.11-1.73-0.5-2.51l-6.2-12.19"/>
				</g>
				<g id="top 00000106117513660575458220000011015723356965076399 ">
					<path id="holes 00000137853252648545580160000012602972529827337112 " fill="currentColor" stroke="currentColor" stroke-miterlimit="10" d="m1246.64 1840.81l20.66-15.87c1.59-1.23 3.85-1.08 5.27 0.34l5.57 5.58m59.55 9.95l-20.66-15.87c-1.59-1.23-3.84-1.08-5.26 0.34l-5.37 5.36m-49.52-2.76l5.95-4.57c1.24-0.95 1.48-2.73 0.52-3.98-0.95-1.24-2.73-1.47-3.97-0.52l-5.95 4.57c-1.24 0.95-1.48 2.73-0.52 3.98 0.56 0.72 1.4 1.1 2.25 1.1 0.6 0 1.21-0.19 1.72-0.58zm74.53-0.45c0.97-1.23 0.74-3.02-0.49-3.98l-5.95-4.63c-1.24-0.96-3.02-0.74-3.98 0.5-0.96 1.24-0.74 3.02 0.5 3.98l5.94 4.63c0.52 0.4 1.13 0.6 1.74 0.6 0.85 0 1.69-0.38 2.24-1.1z"/>
					<path id="plate 00000050647426857156386020000000248196014123206023 " fill="currentColor" stroke="currentColor" stroke-miterlimit="10" d="m1249.62 1857.28l-6.2-12.2c-0.39-0.77-0.56-1.63-0.5-2.5l1.55-20.28c0.14-1.94 1.46-3.59 3.32-4.16l13.19-4.06c1.38-0.42 2.87-0.19 4.06 0.62l10.74 7.34c0.78 0.54 1.71 0.83 2.66 0.83h27.45c0.95 0 1.88-0.29 2.67-0.83l10.75-7.34c1.19-0.81 2.68-1.04 4.06-0.62l13.17 4.06c1.86 0.57 3.18 2.22 3.33 4.16l1.54 20.28c0.07 0.87-0.11 1.73-0.5 2.5l-6.2 12.2"/>
				</g>
			</g>
		</g>
</g>
</svg>