<svg xmlns="http://www.w3.org/2000/svg" viewBox="0 0 171.03 195.00">
<g transform="translate(-1206.65,-2020.29)" stroke-width="11.47">
<g id="CPU-Cooler-icon-v1">
			<g id="blade 00000047782138416797557800000012322084200210707085 ">
				<path id="centre 00000085947501323410032170000013255177177001527222 " fill="currentColor" stroke="currentColor" stroke-miterlimit="10" d="m1310.02 2098.17c0 9.85-7.99 17.85-17.85 17.85-9.86 0-17.85-8-17.85-17.85 0-9.86 7.99-17.85 17.85-17.85 9.86 0 17.85 7.99 17.85 17.85z"/>
				<path id="centre 00000084512671943636542980000007314165660660524961 " fill="currentColor" stroke="currentColor" stroke-miterlimit="10" d="m1317.57 2098.17c0 14.02-11.37 25.4-25.4 25.4-14.03 0-25.4-11.38-25.4-25.4 0-14.03 11.37-25.4 25.4-25.4 14.03 0 25.4 11.37 25.4 25.4z"/>
			</g>
			<path id="fan-frame" fill="currentColor" stroke="currentColor" stroke-linecap="round" stroke-miterlimit="10" d="m1306.65 2077.3c-5.8-11.56-14.8-20.5-26.19-27.04-2.14-1.23-1.69-4.48 0.73-4.98 11.18-2.31 22.95-1.04 33.49 3.79 0.67 0.31 1.2 0.89 1.44 1.59 4.98 14.45 5.69 28.98 1.05 42.98m-20.47 29.53c14 4.64 28.52 3.93 42.97-1.05 0.71-0.24 1.29-0.76 1.6-1.44 4.83-10.54 6.1-22.31 3.79-33.49-0.5-2.42-3.75-2.87-4.98-0.73-6.54 11.39-15.48 20.39-27.05 26.19m-45.87-9.95c-4.64 14-3.93 28.52 1.06 42.98 0.24 0.7 0.76 1.28 1.43 1.59 10.54 4.83 22.31 6.1 33.5 3.79 2.41-0.5 2.87-3.75 0.73-4.98-11.4-6.54-20.4-15.48-26.2-27.04m9.96-45.87c-14-4.64-28.53-3.93-42.98 1.05-0.7 0.24-1.29 0.76-1.6 1.44-4.83 10.54-6.09 22.31-3.79 33.49 0.5 2.42 3.76 2.87 4.99 0.73 6.54-11.4 15.48-20.39 27.04-26.2"/>
			<path id="fan-frame 00000085233825472471308490000000769856972133996721 " fill="currentColor" stroke="currentColor" stroke-miterlimit="10" d="m1355.05 2152.94v-109.54c0-4.48-3.64-8.11-8.12-8.11h-109.53c-4.48 0-8.11 3.63-8.11 8.11v109.54c0 4.48 3.63 8.11 8.11 8.11h109.53c4.48 0 8.12-3.63 8.12-8.11zm-4.06-54.77c0 32.49-26.34 58.82-58.82 58.82-32.49 0-58.83-26.33-58.83-58.82 0-32.49 26.34-58.82 58.83-58.82 32.48 0 58.82 26.33 58.82 58.82z"/>
			<path id="sectioning" fill="currentColor" stroke="currentColor" stroke-miterlimit="10" d="m1233.34 2074.22v-11.23c0-2.15 0.86-4.22 2.38-5.74l15.53-15.53c1.52-1.52 3.59-2.37 5.74-2.37h11.23m-34.88 82.77v11.23c0 2.15 0.86 4.21 2.38 5.74l15.53 15.53c1.52 1.52 3.59 2.37 5.74 2.37h11.23m47.9 0h11.23c2.15 0 4.21-0.85 5.73-2.37l15.53-15.53c1.53-1.53 2.38-3.59 2.38-5.74v-11.23m0-47.9v-11.23c0-2.15-0.85-4.22-2.38-5.74l-15.53-15.53c-1.52-1.52-3.58-2.37-5.73-2.37h-11.23"/>
			<path id="holes 00000093174295875936388670000006820533466745599161 " fill="currentColor" stroke="currentColor" stroke-miterlimit="10" d="m1243.3 2151.09c0 2.24-1.81 4.06-4.05 4.06-2.24 0-4.06-1.82-4.06-4.06 0-2.24 1.82-4.06 4.06-4.06 2.24 0 4.05 1.82 4.05 4.06zm101.79-4.06c-2.24 0-4.06 1.82-4.06 4.06 0 2.24 1.82 4.06 4.06 4.06 2.24 0 4.05-1.82 4.05-4.06 0-2.24-1.81-4.06-4.05-4.06zm-105.84-105.84c-2.24 0-4.06 1.82-4.06 4.06 0 2.24 1.82 4.06 4.06 4.06 2.24 0 4.05-1.82 4.05-4.06 0-2.24-1.81-4.06-4.05-4.06zm105.84 0c-2.24 0-4.06 1.82-4.06 4.06 0 2.24 1.82 4.06 4.06 4.06 2.24 0 4.05-1.82 4.05-4.06 0-2.24-1.81-4.06-4.05-4.06z"/>
			<path id="cooling-block 00000024707792879643157520000000929989736478675356 " fill="currentColor" stroke="currentColor" stroke-linecap="round" stroke-linejoin="round" d="m1323.31 2189.81v9.47c0 0.56-0.45 1.01-1 1.01h-59.53c-0.55 0-1-0.45-1-1.01v-8.35"/>
			<path id="heatpipes" fill="currentColor" stroke="currentColor" stroke-miterlimit="10" d="m1284.03 2164.07l7.13 28.97c0.47 1.89-0.69 3.8-2.57 4.26q-0.43 0.11-0.85 0.11c-1.58 0-3.02-1.08-3.41-2.68l-7.55-30.66m-16.32 0l14.43 31.29c0.59 1.29 1.87 2.05 3.2 2.05q0.75 0 1.47-0.33c1.77-0.81 2.54-2.9 1.72-4.67l-13.07-28.34m-24.6 0l21.5 31.79c0.68 1 1.79 1.55 2.92 1.55 0.68 0 1.36-0.2 1.97-0.61 1.61-1.09 2.03-3.28 0.94-4.89l-18.83-27.84m48.19 0l-7.13 28.97c-0.46 1.89 0.69 3.8 2.58 4.26q0.42 0.11 0.84 0.11c1.59 0 3.02-1.08 3.42-2.68l7.54-30.66m8.57 0l-13.07 28.34c-0.81 1.77-0.04 3.86 1.73 4.67q0.72 0.33 1.47 0.33c1.33 0 2.6-0.76 3.2-2.05l14.43-31.29m8.34 0l-18.83 27.84c-1.09 1.61-0.66 3.8 0.95 4.89 0.6 0.41 1.29 0.61 1.97 0.61 1.13 0 2.24-0.55 2.92-1.55l21.49-31.79"/>
			<path id="fixing-bracket" fill="currentColor" stroke="currentColor" stroke-linecap="round" stroke-linejoin="round" d="m1307.06 2180.23h-1.87m-0.99 4.03h1m14.48-4.03h-1.65m-1.85 4.03h0.78m-22.25-4.03h-5.09m0.99 4.03h3.11m-27.42-4.03h-1.65m2.73 4.03h0.78m60.52 0h16.18v-4.03h-13.46m-78.87 0h-12.3v4.03h15.02m23.88 0h1.01m-0.99-4.03h-1.87"/>
			<path id="bolts" fill="currentColor" stroke="currentColor" stroke-linecap="round" stroke-linejoin="round" d="m1340.44 2184.26v3.15h-4.03v-3.15m6.44-4.03v-3.86l-1.61-1.4h-5.63l-1.61 1.4v3.86m-86.08 4.03v3.15h-4.02v-3.15m6.44-4.03v-3.86l-1.61-1.4h-5.64l-1.61 1.4v3.86"/>
			<g id="cooling">
				<path id="cooling-fins 00000052813392651939258260000003467328042301998771 " fill="currentColor" stroke="currentColor" stroke-linecap="round" stroke-miterlimit="10" d="m1319.95 2091.42h4.83m9.71 0h-3.75m-11.32 4.01h5.36m5.96-8.02h6.4m-16.22 0h3.86m0-4.01h-3.14m3.14 48.12h-36.05m49.39 0h-7.38m0 4.01h4.17m-42.18 0h32.05m-5.73-32.08h4.37m1.36-4.01h-5.26m-59.97 28.07h2.72m-18.73 0h10.05m0-4.01h-12.25m20.72 0h-2.51m0 12.03h3.84m-13.97 0h4.17m0-4.01h-7.37m16.5 0h-3.17m88.66-24.06h-0.82m-0.82 4.01h0.82m-4.39 12.03h-1.64m-10.62 4.01h10.06m6.22-44.11h-16.28m16.41 4.01h0.79m-23.16-12.02h-2.5m21.91 0h-13.45m0 4h15.04m-23.7 0h2.7m24.17 20.05h-0.8m-0.24 4.01h0.81m-89.17 16.04h2.55m-22.58 0h14.07m0-4.01h-15.53m24.32 0h-2.83m86.72 0h-0.83m-1.46 4.01h0.83m3.75-28.07h-0.78m0.33 4.01h0.8m-89.36-32.07h34.69m-46.96 0h6.31m0-4.01h-2.88m39.21 0h-30.37m-17.51 12.03h4.85m6.7-4.01h-9.17m53.39 0h-38.26m38.42 4.01h2.83m-35.99 28.06h-5.26m0 4.01h5.28m-13.92 0h2.68m13.22-56.13h10.31m3.66-4.01h-3.41m-17.82 12.03h25.14m-6.13-4.01h-18.54m-38.37-12.03h5.5m3.22-4.01h-8.72m37.9 60.14h5.35m0.71-4.01h-2.86m-27.14 12.03h0.79m-0.22-4.01h-0.79m0.03-4.01h0.82m0.34-4.01h-0.82m1.18 20.05h1.24m-1.26-4.01h-0.79m17.46 0h-5.5m15.64 0h-4.18m0 4.01h3.38m-17.33 0h7.99m-17.22-24.06h0.83m0.94-4.01h-0.84m1.22-4.01h0.87m1.6-4h-0.88m45.25 52.12h20.75m56.57-52.12h-4.62m0 4h4.62m0 28.07h-4.62m0 4.01h4.62m0-12.03h-4.62m0 4.01h4.62m0-12.03h-4.62m0 4.01h4.62m0 20.05h-4.62m0 4.01h4.62m-141.03 16.04h4.62m0-4.01h-4.62m141.03 0h-4.62m0 4.01h4.62m0-12.03h-4.62m0 4.01h4.62m-141.03 0h4.62m0-4.01h-4.62m141.03-72.17h-4.62m0 4.01h4.62m0-12.03h-4.63q0.01 0.05 0.01 0.09m0 3.92h4.62m0-12.03h-8.71m3.21 4.01h5.5m-37.9 28.07h-2.85m17.93 0h-9.12m0 4.01h11.51m-20.03 0h2.56m37.9-4.01h-4.62m0 4.01h4.62m0-12.03h-4.62m0 4.01h4.62m0 20.04h-4.62m0 4.01h4.62m-141.03-24.05h4.62m0-4.01h-4.62m0-12.03h4.62m0-3.92q0.01-0.04 0.01-0.09h-4.63m0 12.03h4.62m0-4.01h-4.62m85.25-8.02h-3.5m12.25 4.01h1.81m7.32 12.03h-4.14m12.95 0h-2.85m0 4.01h6.27m-15.61 0h3.38m-0.51-12.03h-5.82m1.21 4.01h5.12m-103.13 56.13h4.62m0-4.01h-4.62m0-12.03h4.62m0-4.01h-4.62m0 12.03h4.62m0-4.01h-4.62m0-28.06h4.62m0-4.01h-4.62m0 52.12h4.62m0-4.01h-4.62m0-28.07h4.62m0-4.01h-4.62m0-4.01h4.62m0-4h-4.62"/>
				<path id="vertical-bars" fill="currentColor" stroke="currentColor" stroke-miterlimit="10" d="m1330.74 2056.51v39.72m-5.96 6.04v-50.58m-71.19 4.82v13.14m5.96-1.03v-16.92m71.19 88.13v-13.14m-5.96 1.03v16.92m-65.23 0v-50.57m-5.96 6.04v39.72"/>
			</g>
		</g>
</g>
</svg>