<svg xmlns="http://www.w3.org/2000/svg" viewBox="0 0 152.10 180.00">
<g transform="translate(-1480.52,-1549.96)" stroke-width="10.59">
<g id="CPU-Block-Threadripper-icon-v2">
			<path id="block 00000085967989100214705960000000849671763894808219 " fill="currentColor" stroke="currentColor" stroke-linecap="round" stroke-linejoin="round" d="m1603.89 1581.86h-83.45c-3.3 3.3-5.15 5.15-8.45 8.45v99.3c3.3 3.3 5.15 5.15 8.45 8.45h83.45c3.3-3.3 5.15-5.15 8.45-8.45v-99.3c-3.3-3.3-5.15-5.15-8.45-8.45z"/>
			<g id="inlet-outlet 00000143605629172144490080000010921676731552474262 ">
				<path id="outlet 00000117675716608003531010000002781733485482064268 " fill="currentColor" stroke="currentColor" stroke-miterlimit="10" d="m1553.74 1639.96c0 4.37-3.55 7.92-7.92 7.92-4.38 0-7.92-3.55-7.92-7.92 0-4.38 3.54-7.92 7.92-7.92 4.37 0 7.92 3.54 7.92 7.92z"/>
				<path id="inlet 00000046311206761589472200000018420616585207186844 " fill="currentColor" stroke="currentColor" stroke-miterlimit="10" d="m1586.44 1639.96c0 4.37-3.55 7.92-7.93 7.92-4.37 0-7.92-3.55-7.92-7.92 0-4.38 3.55-7.92 7.92-7.92 4.38 0 7.93 3.54 7.93 7.92z"/>
				<path id="direction 00000080912706400040256410000000081663180803379643 " fill="currentColor" stroke="currentColor" stroke-linecap="round" stroke-linejoin="round" d="m1527.06 1636.6l5.51 3.36-5.51 3.35"/>
			</g>
			<g id="fixing-holes 00000088091951344965881480000005980089927646512542 ">
				<path id="fixing-hole 00000034090493036701045080000003715618962494595730 " fill="currentColor" stroke="currentColor" stroke-miterlimit="10" d="m1525 1707.61c0 1.75-1.42 3.17-3.17 3.17-1.75 0-3.17-1.42-3.17-3.17 0-1.75 1.42-3.17 3.17-3.17 1.75 0 3.17 1.42 3.17 3.17z"/>
				<path id="fixing-hole 00000063633977350719675260000016483085269382525349 " fill="currentColor" stroke="currentColor" stroke-miterlimit="10" d="m1605.68 1707.61c0 1.75-1.42 3.17-3.17 3.17-1.75 0-3.17-1.42-3.17-3.17 0-1.75 1.42-3.17 3.17-3.17 1.75 0 3.17 1.42 3.17 3.17z"/>
				<path id="fixing-hole 00000018220567619973625280000011257666758231301034 " fill="currentColor" stroke="currentColor" stroke-miterlimit="10" d="m1531.33 1571.82c0 1.75-1.42 3.17-3.17 3.17-1.75 0-3.17-1.42-3.17-3.17 0-1.75 1.42-3.17 3.17-3.17 1.75 0 3.17 1.42 3.17 3.17z"/>
				<path id="fixing-hole 00000021077117062949937690000015956553909366702512 " fill="currentColor" stroke="currentColor" stroke-miterlimit="10" d="m1599.34 1571.82c0 1.75-1.42 3.17-3.17 3.17-1.75 0-3.17-1.42-3.17-3.17 0-1.75 1.42-3.17 3.17-3.17 1.75 0 3.17 1.42 3.17 3.17z"/>
			</g>
			<path id="branding 00000040551640509341062030000009442971160844092829 " fill="currentColor" stroke="currentColor" stroke-miterlimit="10" d="m1581.97 1678.35v4.13c0 2.04 1.66 3.69 3.7 3.69h11.09c2.04 0 3.7-1.65 3.7-3.69v-11.1c0-2.04-1.66-3.69-3.7-3.69h-11.09c-2.04 0-3.7 1.65-3.7 3.69v1.85c0 2.04 1.66 3.7 3.7 3.7h6.66c2.04 0 3.69 1.65 3.69 3.7v1.6"/>
			<path id="fixing-plate 00000009555527708631867840000008178641166247588246 " fill="currentColor" stroke="currentColor" stroke-miterlimit="10" d="m1604.72 1564.96c1.72 0 3.37 0.7 4.56 1.93l6.56 6.79c1.15 1.18 1.78 2.76 1.78 4.4v123.75c0 1.65-0.63 3.23-1.78 4.41l-6.56 6.78c-1.19 1.24-2.84 1.94-4.56 1.94h-11.18c-1.71 0-3.35-0.69-4.54-1.92l-9.65-9.9c-1.19-1.22-2.83-1.91-4.54-1.91h-25.29c-1.71 0-3.34 0.69-4.54 1.91l-9.64 9.9c-1.2 1.23-2.83 1.92-4.54 1.92h-11.19c-1.72 0-3.36-0.7-4.56-1.94l-6.56-6.78c-1.14-1.18-1.78-2.76-1.78-4.41v-123.75c0-1.64 0.64-3.22 1.78-4.4l6.56-6.79c1.2-1.23 2.84-1.93 4.56-1.93h11.19c1.71 0 3.34 0.69 4.54 1.91l9.64 9.91c1.2 1.22 2.83 1.91 4.54 1.91h25.29c1.71 0 3.35-0.69 4.54-1.91l9.65-9.91c1.19-1.22 2.83-1.91 4.54-1.91zm-67.49 146.13l-8.81-8.99c-1.19-1.23-2.83-1.93-4.55-1.93h-17.17m110.92 0h-17.17c-1.72 0-3.36 0.7-4.56 1.93l-8.8 8.99m-73.86-142.32l7.85 8.02c1.19 1.21 2.82 1.9 4.52 1.9h23.49m26.34 0h23.28c1.71 0 3.34-0.69 4.53-1.9l7.85-8.02"/>
		</g>
</g>
</svg>