<svg xmlns="http://www.w3.org/2000/svg" viewBox="2041.4 1561.8 121.6 156.2">
<g id="CPU-Block-AMD-icon-v2">
			<path id="block-profile" fill="currentColor" stroke="currentColor" stroke-miterlimit="10" d="m2136.97 1681.17h-69.6c-2.51-2.5-3.91-3.91-6.41-6.41v-69.6c2.5-2.51 3.9-3.91 6.41-6.41h69.6c2.5 2.5 3.9 3.9 6.41 6.41v69.6c-2.51 2.5-3.91 3.91-6.41 6.41z"/>
			<path id="fixing-plate" fill="currentColor" stroke="currentColor" stroke-miterlimit="10" d="m2145.81 1693.39l-9.42 9.42c-2.76 2.76-7.19 2.87-10.08 0.27l-10.02-9.02c-2.02-1.81-4.64-2.82-7.35-2.82h-13.55c-2.71 0-5.33 1.01-7.35 2.82l-10.01 9.02c-2.9 2.6-7.33 2.49-10.08-0.27l-9.43-9.42c-1.37-1.38-2.14-3.24-2.14-5.18v-96.5c0-1.95 0.77-3.81 2.14-5.18l9.43-9.43c2.75-2.75 7.18-2.87 10.08-0.26l10.01 9.01c2.02 1.82 4.64 2.82 7.35 2.82h13.55c2.71 0 5.33-1 7.35-2.82l10.02-9.01c2.89-2.61 7.32-2.49 10.08 0.26l9.42 9.43c1.37 1.37 2.15 3.23 2.15 5.18v96.5c0 1.94-0.78 3.8-2.15 5.18z"/>
			<path id="fixing-holes 00000043426637040684862440000013410409088809934464 " fill="currentColor" stroke="currentColor" stroke-miterlimit="10" d="m2136.65 1592.48c-0.58 0-1.17-0.22-1.62-0.67l-5.76-5.76c-0.89-0.9-0.89-2.35 0-3.24 0.9-0.89 2.35-0.89 3.24 0l5.76 5.76c0.9 0.9 0.9 2.35 0 3.24-0.45 0.45-1.03 0.67-1.62 0.67zm-67.35-0.67l5.76-5.76c0.89-0.9 0.89-2.34 0-3.24-0.89-0.89-2.34-0.89-3.24 0l-5.76 5.76c-0.89 0.9-0.89 2.34 0 3.24 0.45 0.45 1.03 0.67 1.62 0.67 0.59 0 1.17-0.22 1.62-0.67zm5.76 105.29c0.89-0.89 0.89-2.34 0-3.23l-5.76-5.76c-0.9-0.9-2.34-0.9-3.24 0-0.89 0.89-0.89 2.34 0 3.23l5.76 5.76c0.45 0.45 1.03 0.68 1.62 0.68 0.59 0 1.17-0.23 1.62-0.68zm57.45 0l5.76-5.76c0.9-0.89 0.9-2.34 0-3.23-0.89-0.9-2.34-0.9-3.24 0l-5.76 5.76c-0.89 0.89-0.89 2.34 0 3.23 0.45 0.45 1.04 0.68 1.62 0.68 0.59 0 1.18-0.23 1.62-0.68z"/>
			<path id="inner-profile 00000141442852676324914210000012135803956963917485 " fill="currentColor" stroke="currentColor" stroke-miterlimit="10" d="m2125.53 1671.47h-46.73c-1.7 0-3.33-0.67-4.53-1.88l-1.74-1.74c-1.2-1.2-1.88-2.83-1.88-4.53v-46.73c0-1.7 0.68-3.33 1.88-4.53l1.74-1.74c1.2-1.2 2.83-1.88 4.53-1.88h46.73c1.7 0 3.33 0.68 4.53 1.88l1.74 1.74c1.21 1.2 1.88 2.83 1.88 4.53v46.73c0 1.7-0.67 3.33-1.88 4.53l-1.74 1.74c-1.2 1.21-2.83 1.88-4.53 1.88z"/>
			<path id="o-ring" fill="currentColor" stroke="currentColor" stroke-miterlimit="10" d="m2110.36 1667.43h-16.39c-3.04 0-5.95-1.21-8.11-3.36l-7.81-7.81c-2.15-2.15-3.36-5.07-3.36-8.11v-16.39c0-3.04 1.21-5.95 3.36-8.1l7.81-7.82c2.16-2.15 5.07-3.36 8.11-3.36h16.39c3.04 0 5.96 1.21 8.11 3.36l7.81 7.82c2.15 2.15 3.36 5.06 3.36 8.1v16.39c0 3.04-1.21 5.96-3.36 8.11l-7.81 7.81c-2.15 2.15-5.07 3.36-8.11 3.36z"/>
			<path id="centre 00000001655768756520509250000013253269182384746403 " fill="currentColor" stroke="currentColor" stroke-miterlimit="10" d="m2098.85 1633.88v-5.83c0-1.83 1.49-3.31 3.32-3.31 1.83 0 3.31 1.48 3.31 3.31v23.81c0 1.83-1.48 3.32-3.31 3.32-1.83 0-3.32-1.49-3.32-3.32v-5.83"/>
			<path id="outlet 00000093160405342159860140000015931240928745663674 " fill="currentColor" stroke="currentColor" stroke-miterlimit="10" d="m2127.81 1639.96c0 3.79-3.08 6.87-6.87 6.87-3.79 0-6.87-3.08-6.87-6.87 0-3.8 3.08-6.87 6.87-6.87 3.79 0 6.87 3.07 6.87 6.87z"/>
			<path id="inlet 00000177478729592354794360000000275628504389254802 " fill="currentColor" stroke="currentColor" stroke-miterlimit="10" d="m2100.68 1639.96c0 3.79-3.07 6.87-6.86 6.87-3.8 0-6.87-3.08-6.87-6.87 0-3.8 3.07-6.87 6.87-6.87 3.79 0 6.86 3.07 6.86 6.87z"/>
		</g>
</svg>