<svg xmlns="http://www.w3.org/2000/svg" viewBox="0 0 220.00 212.94">
<g transform="translate(-1722.17,-2011.32)" stroke-width="12.94">
<g id="CPU-Cooler-icon-v3">
			<g id="blade 00000031188837312453262920000014666482227618666640 ">
				<path id="centre 00000073683394523628286800000012941998451070200212 " fill="currentColor" stroke="currentColor" stroke-miterlimit="10" d="m1854.17 2124.56c0 12.15-9.85 22-22 22-12.15 0-22-9.85-22-22 0-12.15 9.85-22 22-22 12.15 0 22 9.85 22 22z"/>
				<path id="centre 00000109019750954391931540000007042447679720818099 " fill="currentColor" stroke="currentColor" stroke-miterlimit="10" d="m1863.47 2124.56c0 17.29-14.01 31.3-31.3 31.3-17.29 0-31.31-14.01-31.31-31.3 0-17.29 14.02-31.3 31.31-31.3 17.29 0 31.3 14.01 31.3 31.3z"/>
				<path id="branding 00000049212027735874518070000015562495282562305956 " fill="currentColor" stroke="currentColor" stroke-miterlimit="10" d="m1818.26 2124.56h27.82"/>
			</g>
			<path id="blades 00000125574213699110798630000012220564067591359641 " fill="currentColor" stroke="currentColor" stroke-linecap="round" stroke-miterlimit="10" d="m1850.02 2098.85c-7.15-14.26-18.24-25.27-32.29-33.34-2.63-1.51-2.07-5.52 0.9-6.13 13.79-2.85 28.29-1.29 41.28 4.67 0.83 0.38 1.48 1.1 1.78 1.96 6.14 17.81 7.01 35.72 1.29 52.97m-25.23 36.4c17.25 5.72 35.16 4.84 52.97-1.3 0.86-0.29 1.58-0.94 1.96-1.77 5.96-12.99 7.52-27.5 4.68-41.28-0.62-2.98-4.63-3.54-6.14-0.9-8.07 14.05-19.08 25.14-33.34 32.29m-56.53-12.27c-5.72 17.25-4.84 35.15 1.3 52.97 0.29 0.86 0.94 1.58 1.77 1.96 12.99 5.96 27.5 7.52 41.28 4.67 2.98-0.61 3.54-4.62 0.9-6.14-14.04-8.06-25.14-19.08-32.29-33.33m12.27-56.53c-17.25-5.72-35.15-4.85-52.97 1.29-0.86 0.3-1.58 0.95-1.96 1.78-5.96 12.99-7.52 27.49-4.67 41.28 0.61 2.97 4.62 3.53 6.14 0.9 8.06-14.05 19.08-25.14 33.33-32.29"/>
			<g id="frame">
				<path id="inner-diameter 00000022557083154712828850000017752701082296712889 " fill="currentColor" stroke="currentColor" stroke-linecap="round" stroke-miterlimit="10" d="m1886.59 2158.93c-8.03 12.68-20.36 22.37-34.95 27m-80.84-41.89c4.63 14.59 14.32 26.92 27 34.94m14.9-115.78c-14.6 4.63-26.93 14.32-34.95 27m115.78 14.9c-4.62-14.6-14.31-26.93-27-34.96"/>
				<path id="edge" fill="currentColor" stroke="currentColor" stroke-miterlimit="10" d="m1910.09 2124.56c0 43.04-34.89 77.93-77.92 77.93-43.04 0-77.93-34.89-77.92-77.93 0-43.03 34.88-77.92 77.92-77.92 43.03 0 77.92 34.89 77.92 77.92z"/>
				<path id="outer-profile 00000044872717401673342850000016076097153441337747 " fill="currentColor" stroke="currentColor" stroke-miterlimit="10" d="m1860.62 2044.78l-3.41-15.23c-8-2.1-16.39-3.23-25.04-3.23-8.74 0-17.21 1.15-25.27 3.29l-3.42 15.25c-32.65 11.75-56.01 43-56.01 79.7 0 46.78 37.92 84.7 84.7 84.7 46.77 0 84.69-37.92 84.69-84.69 0-36.8-23.46-68.1-56.24-79.79z"/>
				<path id="branding 00000002350993564304696480000013230168539258942881 " fill="currentColor" stroke="currentColor" stroke-miterlimit="10" d="m1818.26 2035.87h27.82"/>
			</g>
			<g id="fixing-plate 00000176014749842914611780000000143019433372469946 ">
				<path id="plate 00000056387606825085412870000000627115332048579228 " fill="currentColor" stroke="currentColor" stroke-linecap="round" stroke-miterlimit="10" d="m1903.89 2074.67h8.11c1.55-2 3.97-3.3 6.7-3.3 4.67 0 8.47 3.8 8.47 8.47 0 4.68-3.8 8.47-8.47 8.47-2.73 0-5.15-1.29-6.7-3.3h-1.94m-149.6-10.34h-8.13c-1.55-2-3.97-3.3-6.69-3.3-4.68 0-8.47 3.8-8.47 8.47 0 4.68 3.79 8.47 8.47 8.47 2.73 0 5.15-1.29 6.69-3.3h1.95m-0.02 79.1h-1.93c-1.55-2-3.97-3.3-6.69-3.3-4.68 0-8.47 3.8-8.47 8.47 0 4.68 3.79 8.47 8.47 8.47 2.73 0 5.15-1.29 6.69-3.3h8.13m143.42 0h8.12c1.55 2.01 3.97 3.3 6.7 3.3 4.67 0 8.47-3.79 8.47-8.47 0-4.67-3.8-8.47-8.47-8.47-2.73 0-5.15 1.3-6.7 3.3h-1.92"/>
				<path id="srewholes" fill="currentColor" stroke="currentColor" stroke-miterlimit="10" d="m1921.41 2079.84c0 1.5-1.22 2.71-2.71 2.71-1.5 0-2.71-1.21-2.71-2.71 0-1.49 1.21-2.71 2.71-2.71 1.49 0 2.71 1.22 2.71 2.71zm-175.77-2.71c-1.5 0-2.71 1.22-2.71 2.71 0 1.5 1.21 2.71 2.71 2.71 1.49 0 2.71-1.21 2.71-2.71 0-1.49-1.22-2.71-2.71-2.71zm173.06 89.44c-1.5 0-2.71 1.22-2.71 2.71 0 1.5 1.21 2.71 2.71 2.71 1.49 0 2.71-1.21 2.71-2.71 0-1.49-1.22-2.71-2.71-2.71zm-173.06 0c-1.5 0-2.71 1.22-2.71 2.71 0 1.5 1.21 2.71 2.71 2.71 1.49 0 2.71-1.21 2.71-2.71 0-1.49-1.22-2.71-2.71-2.71z"/>
			</g>
			<path id="cooling-fins 00000003816084215422878520000009379311707772992170 " fill="currentColor" stroke="currentColor" stroke-linecap="round" stroke-miterlimit="10" d="m1804.99 2080.55v9.42m4.94 0.28v-9.7m4.94 0v10.33m4.94-10.33v11.3m4.95-11.3v12.62m4.94-12.62v12.8m4.94-12.8v12.8m4.94-10.1v10.89m4.94-4.54v6.19m14.83 63.36v9.42m-4.94 0v-9.7m-4.95-0.63v10.33m-4.94 0v-11.3m-4.94 11.3v-12.62m-4.94 12.62v-12.8m-4.94 0v12.8m-4.94-2.69v-10.9m-4.95 4.55v-6.2m-22.23-1.59h-9.42m0-4.94h9.7m-9.7-4.94h10.33m-10.33-4.94h11.3m1.32-4.95h-12.62m0-4.94h12.8m-12.8-4.94h12.8m-10.11-4.94h10.9m-4.55-4.94h6.2m72.77-14.83h-9.41m9.41 4.94h-9.69m-0.63 4.94h10.32m0 4.95h-11.29m11.29 4.94h-12.61m12.61 4.94h-12.79m12.79 4.94h-12.79m10.1 4.94h-10.89m4.54 4.95h-6.19m15.32 34.56l-12.26-12.26m5.31-0.35l9.78 9.78m-9.86-4.2v4.12m-4.94-9.06v9.06m11.88-6.95h-4.11m7.02-81.15l-12.26 12.26m-0.34-5.31l9.78-9.78m-4.2 9.86h4.11m-9.06 4.94h9.06m-6.94-11.88v4.11m-81.16-7.02l12.27 12.26m-5.32 0.35l-9.78-9.78m9.86 4.2v-4.12m4.94 9.06v-9.06m-11.88 6.94h4.11m-7.02 81.16l12.26-12.27m0.35 5.32l-9.78 9.78m4.2-9.86h-4.12m9.06-4.94h-9.06m6.95 11.88v-4.11"/>
		</g>
</g>
</svg>