<svg xmlns="http://www.w3.org/2000/svg" viewBox="0 0 123.91 230.00">
<g transform="translate(-2346.88,-1999.61)">
<g id="Distro-Plate-icon-v1">
			<g id="channels 00000075868837900116360360000014034775153740050099 ">
				<path id="channel 00000126312196650462596880000007831394613261686913 " fill="currentColor" stroke="currentColor" stroke-miterlimit="10" d="m2421.66 2062.37h2.1c0.69 0 1.36-0.27 1.85-0.76l6.59-6.59c0.49-0.49 0.76-1.16 0.76-1.85v-4.36c0-0.69-0.27-1.36-0.76-1.85l-12.03-12.02c-0.49-0.49-1.15-0.77-1.84-0.77h-11.66"/>
				<path id="channel 00000048479937596077882950000006876230193591782053 " fill="currentColor" stroke="currentColor" stroke-miterlimit="10" d="m2436.4 2066.19l-5.46 5.46c-1.02 1.02-2.41 1.59-3.85 1.59h-5.2"/>
				<path id="channel 00000106847860042217222680000012066447965336148890 " fill="currentColor" stroke="currentColor" stroke-miterlimit="10" d="m2406.44 2023.3h15.22c1.44 0 2.82 0.57 3.84 1.59l10.9 10.9"/>
				<path id="channel 00000092448367827937718790000000605683527256361129 " fill="currentColor" stroke="currentColor" stroke-miterlimit="10" d="m2417.82 2056.39l-6.88-6.87c-0.49-0.49-1.16-0.76-1.85-0.76h-8.08c-1.44 0-2.83-0.58-3.85-1.59l-12.23-12.23c-0.48-0.49-1.15-0.77-1.84-0.77h-0.34c-0.72 0-1.31 0.59-1.31 1.31v23.19"/>
				<path id="channel 00000034056852698197813210000003711213051478010791 " fill="currentColor" stroke="currentColor" stroke-miterlimit="10" d="m2370.57 2058.44v-29.7c0-3.01 2.44-5.44 5.44-5.44h10.41c1.44 0 2.82 0.57 3.84 1.59l12.23 12.23c0.49 0.49 1.16 0.77 1.85 0.77h8.08c1.44 0 2.82 0.57 3.84 1.58l9.08 9.06"/>
				<path id="channel 00000098222062294594746320000012067788035655095989 " fill="currentColor" stroke="currentColor" stroke-miterlimit="10" d="m2396.66 2052.8v38.63"/>
				<path id="channel 00000150062930438378038840000002081909920325865862 " fill="currentColor" stroke="currentColor" stroke-miterlimit="10" d="m2385.79 2091.43v-38.63"/>
				<path id="channel 00000056415224881910819130000006508499838171649414 " fill="currentColor" stroke="currentColor" stroke-miterlimit="10" d="m2370.57 2205.58v-114.15"/>
				<path id="channel 00000096739279752827644970000001041824700702239640 " fill="currentColor" stroke="currentColor" stroke-miterlimit="10" d="m2381.44 2091.43v114.15"/>
				<path id="channel 00000098179290483594838730000003007896112127519140 " fill="currentColor" stroke="currentColor" stroke-miterlimit="10" d="m2427.09 2081.45v11.98c0 1.44-0.57 2.82-1.59 3.84l-28.08 28.08c-0.49 0.49-0.76 1.16-0.76 1.85v32.02c0 0.69 0.27 1.35 0.76 1.84l1.11 1.11c0.24 0.24 0.57 0.38 0.92 0.38h0.25c0.72 0 1.31-0.58 1.31-1.31v-31.62c0-1.44 0.57-2.82 1.59-3.84l23.91-23.91"/>
				<path id="&lt;Path&gt;" fill="currentColor" stroke="currentColor" stroke-miterlimit="10" d="m2426.51 2205.22h-12.47c-1.44 0-2.82-0.57-3.84-1.59l-22.82-22.82c-1.02-1.02-1.59-2.4-1.59-3.84v-53.1c0-1.45 0.57-2.83 1.59-3.85l28.08-28.08c0.49-0.49 0.76-1.15 0.76-1.84v-8.43"/>
			</g>
			<g id="inlets-outlets 00000077297831120466642120000015236871277277790127 ">
				<path id="hole 00000150788190820983312480000018328686508234683305 " fill="currentColor" stroke="currentColor" stroke-linecap="round" stroke-linejoin="round" d="m2424.66 2052.54c0 1.65-1.34 3-3 3-1.66 0-3-1.35-3-3 0-1.66 1.34-3 3-3 1.66 0 3 1.34 3 3z"/>
				<path id="hole 00000000927521833667734340000014568607610340079492 " fill="currentColor" stroke="currentColor" stroke-linecap="round" stroke-linejoin="round" d="m2424.66 2081.44c0 1.66-1.34 3-3 3-1.66 0-3-1.34-3-3 0-1.65 1.34-3 3-3 1.66 0 3 1.35 3 3z"/>
				<path id="hole 00000021083197879398569220000007181995872535190701 " fill="currentColor" stroke="currentColor" stroke-linecap="round" stroke-linejoin="round" d="m2394.22 2052.8c0 1.65-1.34 3-3 3-1.65 0-3-1.35-3-3 0-1.66 1.35-3 3-3 1.66 0 3 1.34 3 3z"/>
				<path id="hole 00000172426762847996338200000007492567746263966111 " fill="currentColor" stroke="currentColor" stroke-linecap="round" stroke-linejoin="round" d="m2379.01 2205.58c0 1.66-1.35 3-3 3-1.66 0-3-1.34-3-3 0-1.66 1.34-3 3-3 1.65 0 3 1.34 3 3z"/>
				<path id="hole 00000134932448206563044010000014486463610588260767 " fill="currentColor" stroke="currentColor" stroke-linecap="round" stroke-linejoin="round" d="m2379.01 2058.67c0 1.66-1.35 3-3 3-1.66 0-3-1.34-3-3 0-1.66 1.34-3 3-3 1.65 0 3 1.34 3 3z"/>
				<path id="hole 00000038380104826703012400000001264593752416795272 " fill="currentColor" stroke="currentColor" stroke-linecap="round" stroke-linejoin="round" d="m2424.66 2067.81c0 1.65-1.34 3-3 3-1.66 0-3-1.35-3-3 0-1.66 1.34-3 3-3 1.66 0 3 1.34 3 3z"/>
				<path id="hole 00000105406155782525301630000008292370994585216414 " fill="currentColor" stroke="currentColor" stroke-linecap="round" stroke-linejoin="round" d="m2379.01 2091.43c0 1.66-1.35 3-3 3-1.66 0-3-1.34-3-3 0-1.65 1.34-3 3-3 1.65 0 3 1.35 3 3z"/>
				<path id="hole 00000139254570790958769890000018208346729029993856 " fill="currentColor" stroke="currentColor" stroke-linecap="round" stroke-linejoin="round" d="m2409.44 2028.74c0 1.65-1.34 3-3 3-1.65 0-3-1.35-3-3 0-1.66 1.35-3 3-3 1.66 0 3 1.34 3 3z"/>
				<path id="hole 00000165920688287920638330000000402796725858372743 " fill="currentColor" stroke="currentColor" stroke-linecap="round" stroke-linejoin="round" d="m2394.22 2091.43c0 1.66-1.34 3-3 3-1.65 0-3-1.34-3-3 0-1.65 1.35-3 3-3 1.66 0 3 1.35 3 3z"/>
				<path id="hole 00000124845788100573620790000001172498301030322314 " fill="currentColor" stroke="currentColor" stroke-linecap="round" stroke-linejoin="round" d="m2434.87 2205.58c0 1.66-1.34 3-3 3-1.66 0-3-1.34-3-3 0-1.66 1.34-3 3-3 1.66 0 3 1.34 3 3z"/>
				<path id="hole 00000001638326190592239980000014383267388994492080 " fill="currentColor" stroke="currentColor" stroke-linecap="round" stroke-linejoin="round" d="m2434.87 2102.59c0 1.66-1.34 3-3 3-1.66 0-3-1.34-3-3 0-1.65 1.34-3 3-3 1.66 0 3 1.35 3 3z"/>
			</g>
			<path id="bottom-edge 00000065759230972059139290000011315027914269231020 " fill="currentColor" stroke="currentColor" stroke-miterlimit="10" d="m2435.79 2214.61h-70.91c-1.66 0-3-1.35-3-3v-194c0-1.66 1.34-3 3-3h70.91"/>
			<path id="plate 00000049901691253100089700000016941696776957090486 " fill="currentColor" stroke="currentColor" stroke-miterlimit="10" d="m2438.4 2014.61h14.39c1.66 0 3 1.34 3 3v194c0 1.65-1.34 3-3 3h-14.39z"/>
			<path id="branding 00000049928759544560527310000006984129816991444885 " fill="currentColor" stroke="currentColor" stroke-miterlimit="10" d="m2442.09 2024.37v2.24c0 1.1 0.9 2 2 2h6c1.11 0 2-0.9 2-2v-6c0-1.11-0.89-2-2-2h-6c-1.1 0-2 0.89-2 2v1c0 1.1 0.9 2 2 2h3.6c1.11 0 2 0.89 2 2v0.86"/>
			<g id="screws 00000052790310317291158170000008056875976454278569 ">
				<path id="screw 00000173131627609177881500000004288653978499913625 " fill="currentColor" d="m2429.84 2085.95c0 0.41-0.33 0.75-0.75 0.75-0.41 0-0.75-0.34-0.75-0.75 0-0.42 0.34-0.75 0.75-0.75 0.42 0 0.75 0.33 0.75 0.75z"/>
				<path id="screw 00000018935367716802200740000005075439214650960291 " fill="currentColor" d="m2421.91 2021.3c0 0.42-0.34 0.75-0.75 0.75-0.41 0-0.75-0.33-0.75-0.75 0-0.41 0.34-0.75 0.75-0.75 0.41 0 0.75 0.34 0.75 0.75z"/>
				<path id="screw 00000008109083789634623140000010550250383420809600 " fill="currentColor" d="m2411.69 2021.3c0 0.42-0.33 0.75-0.75 0.75-0.41 0-0.75-0.33-0.75-0.75 0-0.41 0.34-0.75 0.75-0.75 0.42 0 0.75 0.34 0.75 0.75z"/>
				<path id="screw 00000183949549527743402590000004708821742793748641 " fill="currentColor" d="m2386.67 2021.3c0 0.42-0.34 0.75-0.75 0.75-0.41 0-0.75-0.33-0.75-0.75 0-0.41 0.34-0.75 0.75-0.75 0.41 0 0.75 0.34 0.75 0.75z"/>
				<path id="screw 00000171678631956843264200000009091310083098173318 " fill="currentColor" d="m2377.26 2021.3c0 0.42-0.34 0.75-0.75 0.75-0.42 0-0.75-0.33-0.75-0.75 0-0.41 0.33-0.75 0.75-0.75 0.41 0 0.75 0.34 0.75 0.75z"/>
				<path id="screw 00000183931453094550923080000012245328715587146391 " fill="currentColor" d="m2414.97 2086.17c0 0.42-0.33 0.75-0.75 0.75-0.41 0-0.75-0.33-0.75-0.75 0-0.41 0.34-0.75 0.75-0.75 0.42 0 0.75 0.34 0.75 0.75z"/>
				<path id="screw 00000169560003933236012350000013191138470817093533 " fill="currentColor" d="m2429.84 2094.93c0 0.41-0.33 0.75-0.75 0.75-0.41 0-0.75-0.34-0.75-0.75 0-0.41 0.34-0.75 0.75-0.75 0.42 0 0.75 0.34 0.75 0.75z"/>
				<path id="screw 00000165946153472262535590000005529747801525662385 " fill="currentColor" d="m2399.61 2158.72c0 0.41-0.34 0.75-0.75 0.75-0.41 0-0.75-0.34-0.75-0.75 0-0.42 0.34-0.75 0.75-0.75 0.41 0 0.75 0.33 0.75 0.75z"/>
				<path id="screw 00000009583428167427105850000008088717683128671902 " fill="currentColor" d="m2399.61 2143.21c0 0.41-0.34 0.75-0.75 0.75-0.41 0-0.75-0.34-0.75-0.75 0-0.42 0.34-0.75 0.75-0.75 0.41 0 0.75 0.33 0.75 0.75z"/>
				<path id="screw 00000103968399705583876880000005047548803714742918 " fill="currentColor" d="m2399.61 2127.7c0 0.41-0.34 0.75-0.75 0.75-0.41 0-0.75-0.34-0.75-0.75 0-0.42 0.34-0.75 0.75-0.75 0.41 0 0.75 0.33 0.75 0.75z"/>
				<path id="screw 00000130613167112602295900000017694390917552561540 " fill="currentColor" d="m2369.32 2053.94c0 0.42-0.33 0.75-0.75 0.75-0.41 0-0.75-0.33-0.75-0.75 0-0.41 0.34-0.75 0.75-0.75 0.42 0 0.75 0.34 0.75 0.75z"/>
				<path id="screw 00000161615412885736637180000008057787915449898154 " fill="currentColor" d="m2369.32 2029.24c0 0.41-0.33 0.75-0.75 0.75-0.41 0-0.75-0.34-0.75-0.75 0-0.42 0.34-0.75 0.75-0.75 0.42 0 0.75 0.33 0.75 0.75z"/>
				<path id="screw 00000029030021149720006930000001255210490710470588 " fill="currentColor" d="m2369.32 2041.59c0 0.41-0.33 0.75-0.75 0.75-0.41 0-0.75-0.34-0.75-0.75 0-0.41 0.34-0.75 0.75-0.75 0.42 0 0.75 0.34 0.75 0.75z"/>
				<path id="screw 00000041996455782272652330000012408519341256764830 " fill="currentColor" d="m2399.41 2086.61c0 0.41-0.34 0.75-0.75 0.75-0.41 0-0.75-0.34-0.75-0.75 0-0.42 0.34-0.75 0.75-0.75 0.41 0 0.75 0.33 0.75 0.75z"/>
				<path id="screw 00000127016362293521104210000005881914301114995892 " fill="currentColor" d="m2399.41 2070.2c0 0.42-0.34 0.75-0.75 0.75-0.41 0-0.75-0.33-0.75-0.75 0-0.41 0.34-0.75 0.75-0.75 0.41 0 0.75 0.34 0.75 0.75z"/>
				<path id="screw 00000112598251097030513640000001289693329094263428 " fill="currentColor" d="m2399.41 2053.8c0 0.41-0.34 0.75-0.75 0.75-0.41 0-0.75-0.34-0.75-0.75 0-0.42 0.34-0.75 0.75-0.75 0.41 0 0.75 0.33 0.75 0.75z"/>
				<path id="screw 00000129174322640875675310000016588866472848943267 " fill="currentColor" d="m2384.37 2086.61c0 0.41-0.34 0.75-0.75 0.75-0.42 0-0.75-0.34-0.75-0.75 0-0.42 0.33-0.75 0.75-0.75 0.41 0 0.75 0.33 0.75 0.75z"/>
				<path id="screw 00000031206932486892046770000005004290031163928463 " fill="currentColor" d="m2384.37 2071.1c0 0.42-0.34 0.75-0.75 0.75-0.42 0-0.75-0.33-0.75-0.75 0-0.41 0.33-0.75 0.75-0.75 0.41 0 0.75 0.34 0.75 0.75z"/>
				<path id="screw 00000122002407791739597540000001640098964658732174 " fill="currentColor" d="m2384.37 2055.6c0 0.41-0.34 0.75-0.75 0.75-0.42 0-0.75-0.34-0.75-0.75 0-0.42 0.33-0.75 0.75-0.75 0.41 0 0.75 0.33 0.75 0.75z"/>
				<path id="screw 00000035523064755351472960000014827856294977504149 " fill="currentColor" d="m2369.32 2200.83c0 0.41-0.33 0.75-0.75 0.75-0.41 0-0.75-0.34-0.75-0.75 0-0.41 0.34-0.75 0.75-0.75 0.42 0 0.75 0.34 0.75 0.75z"/>
				<path id="screw 00000059282069393323531070000002387327127104411316 " fill="currentColor" d="m2369.32 2185.78c0 0.42-0.33 0.75-0.75 0.75-0.41 0-0.75-0.33-0.75-0.75 0-0.41 0.34-0.75 0.75-0.75 0.42 0 0.75 0.34 0.75 0.75z"/>
				<path id="screw 00000066480729540892979120000005872729017955083394 " fill="currentColor" d="m2369.32 2170.74c0 0.41-0.33 0.75-0.75 0.75-0.41 0-0.75-0.34-0.75-0.75 0-0.41 0.34-0.75 0.75-0.75 0.42 0 0.75 0.34 0.75 0.75z"/>
				<path id="screw 00000008112046204443729210000000022946104282255007 " fill="currentColor" d="m2369.32 2155.69c0 0.42-0.33 0.75-0.75 0.75-0.41 0-0.75-0.33-0.75-0.75 0-0.41 0.34-0.75 0.75-0.75 0.42 0 0.75 0.34 0.75 0.75z"/>
				<path id="screw 00000127765801194063685970000014121388158894837654 " fill="currentColor" d="m2369.32 2140.65c0 0.41-0.33 0.75-0.75 0.75-0.41 0-0.75-0.34-0.75-0.75 0-0.41 0.34-0.75 0.75-0.75 0.42 0 0.75 0.34 0.75 0.75z"/>
				<path id="screw 00000029039876168386393000000009020816270402102429 " fill="currentColor" d="m2369.32 2125.6c0 0.42-0.33 0.75-0.75 0.75-0.41 0-0.75-0.33-0.75-0.75 0-0.41 0.34-0.75 0.75-0.75 0.42 0 0.75 0.34 0.75 0.75z"/>
				<path id="screw 00000055685052080929296120000010728830312681274033 " fill="currentColor" d="m2369.32 2110.56c0 0.41-0.33 0.75-0.75 0.75-0.41 0-0.75-0.34-0.75-0.75 0-0.41 0.34-0.75 0.75-0.75 0.42 0 0.75 0.34 0.75 0.75z"/>
				<path id="screw 00000083053974939625108690000014949100043727850926 " fill="currentColor" d="m2369.32 2095.51c0 0.42-0.33 0.75-0.75 0.75-0.41 0-0.75-0.33-0.75-0.75 0-0.41 0.34-0.75 0.75-0.75 0.42 0 0.75 0.34 0.75 0.75z"/>
				<path id="screw 00000061468040452998162850000002842686110980249988 " fill="currentColor" d="m2384.37 2200.83c0 0.41-0.34 0.75-0.75 0.75-0.42 0-0.75-0.34-0.75-0.75 0-0.41 0.33-0.75 0.75-0.75 0.41 0 0.75 0.34 0.75 0.75z"/>
				<path id="screw 00000036232747734380206190000001451411755907643291 " fill="currentColor" d="m2384.37 2185.78c0 0.42-0.34 0.75-0.75 0.75-0.42 0-0.75-0.33-0.75-0.75 0-0.41 0.33-0.75 0.75-0.75 0.41 0 0.75 0.34 0.75 0.75z"/>
				<path id="screw 00000054246317655026296810000006147077741138385796 " fill="currentColor" d="m2384.37 2170.74c0 0.41-0.34 0.75-0.75 0.75-0.42 0-0.75-0.34-0.75-0.75 0-0.41 0.33-0.75 0.75-0.75 0.41 0 0.75 0.34 0.75 0.75z"/>
				<path id="screw 00000030472259343910777000000004970164954881186975 " fill="currentColor" d="m2384.37 2155.69c0 0.42-0.34 0.75-0.75 0.75-0.42 0-0.75-0.33-0.75-0.75 0-0.41 0.33-0.75 0.75-0.75 0.41 0 0.75 0.34 0.75 0.75z"/>
				<path id="screw 00000093145647573577446540000006672026065622592131 " fill="currentColor" d="m2384.37 2140.65c0 0.41-0.34 0.75-0.75 0.75-0.42 0-0.75-0.34-0.75-0.75 0-0.41 0.33-0.75 0.75-0.75 0.41 0 0.75 0.34 0.75 0.75z"/>
				<path id="screw 00000065786637833072566550000013969591443143562401 " fill="currentColor" d="m2384.37 2125.6c0 0.42-0.34 0.75-0.75 0.75-0.42 0-0.75-0.33-0.75-0.75 0-0.41 0.33-0.75 0.75-0.75 0.41 0 0.75 0.34 0.75 0.75z"/>
				<path id="screw 00000056405031948205104010000017996167494959336070 " fill="currentColor" d="m2384.37 2110.56c0 0.41-0.34 0.75-0.75 0.75-0.42 0-0.75-0.34-0.75-0.75 0-0.41 0.33-0.75 0.75-0.75 0.41 0 0.75 0.34 0.75 0.75z"/>
				<path id="screw 00000155106094103369287900000017641212905077069204 " fill="currentColor" d="m2384.37 2095.51c0 0.42-0.34 0.75-0.75 0.75-0.42 0-0.75-0.33-0.75-0.75 0-0.41 0.33-0.75 0.75-0.75 0.41 0 0.75 0.34 0.75 0.75z"/>
				<path id="screw 00000166667260858557370180000010481862756422205365 " fill="currentColor" d="m2422.51 2207.83c0 0.41-0.33 0.75-0.75 0.75-0.41 0-0.75-0.34-0.75-0.75 0-0.41 0.34-0.75 0.75-0.75 0.42 0 0.75 0.34 0.75 0.75z"/>
				<path id="screw 00000103241857279493414940000002053325312568810399 " fill="currentColor" d="m2414.51 2207.83c0 0.41-0.33 0.75-0.75 0.75-0.41 0-0.75-0.34-0.75-0.75 0-0.41 0.34-0.75 0.75-0.75 0.42 0 0.75 0.34 0.75 0.75z"/>
			</g>
		</g>
</g>
</svg>