<svg xmlns="http://www.w3.org/2000/svg" viewBox="0 0 154.34 205.00">
<g transform="translate(-3448.33,-584.89)">
<g id="Distilled-Water-icon">
			<g id="label 00000037653893759719380950000003177294602140510136 ">
				<path id="main 00000047754186176875241130000012232125214030382756 " fill="currentColor" stroke="currentColor" stroke-miterlimit="10" d="m3563.34 729.74h-75.68c-1.29 0-2.33-1.05-2.33-2.34v-61.7c0-1.29 1.04-2.33 2.33-2.33h75.68c1.28 0 2.33 1.04 2.33 2.33v61.7c0 1.29-1.05 2.34-2.33 2.34zm-70.71-29.71h32.03m-32.03-26.86h65.74m-65.74 33h65.74m-65.74 6.27h65.74m-65.74 6.28h54.07"/>
				<path id="branding 00000106138715482566357330000009414209048203268534 " fill="currentColor" stroke="currentColor" stroke-miterlimit="10" d="m3531.52 690.98v3.91c0 1.93 1.57 3.5 3.5 3.5h10.51c1.93 0 3.5-1.57 3.5-3.5v-10.51c0-1.93-1.57-3.5-3.5-3.5h-10.51c-1.93 0-3.5 1.57-3.5 3.5v1.75c0 1.94 1.57 3.5 3.5 3.5h6.31c1.93 0 3.5 1.57 3.5 3.51v1.52"/>
				<path id="&lt;Path&gt;" fill="currentColor" stroke="currentColor" stroke-miterlimit="10" d="m3565.67 734.41h-80.34c-2.58 0-4.67-2.09-4.67-4.67v-66.37c0-2.58 2.09-4.67 4.67-4.67h80.34c2.58 0 4.67 2.09 4.67 4.67v66.37c0 2.58-2.09 4.67-4.67 4.67z"/>
			</g>
			<path id="handle" fill="currentColor" stroke="currentColor" stroke-miterlimit="10" d="m3522.76 626.72l1.44-4.26c0.65-1.93 0.66-4.02 0.01-5.95l-1.42-4.25c-0.64-1.9-2.43-3.18-4.43-3.18h-29.09c-2.01 0-3.79 1.28-4.43 3.18l-1.42 4.25c-0.65 1.93-0.65 4.02 0 5.96l1.44 4.25c0.64 1.9 2.42 3.17 4.43 3.17h29.05c2 0 3.78-1.27 4.42-3.17z"/>
			<g id="bottle">
				<path id="profile 00000023247211843898792800000018048758416923635090 " fill="currentColor" stroke="currentColor" stroke-miterlimit="10" d="m3570.75 599.89h-20.81c-1.93 0-3.5 1.56-3.5 3.5v13.43c0 0.64 0.52 1.16 1.17 1.16h25.47c0.65 0 1.17-0.52 1.17-1.16v-13.43c0-1.94-1.57-3.5-3.5-3.5z"/>
				<path id="grip 00000112608597160462659820000008442936470891468988 " fill="currentColor" stroke="currentColor" stroke-miterlimit="10" d="m3568.41 603.97v6.31m-5.38-6.31v6.31m-5.37-6.31v6.31m-5.38-6.31v6.31"/>
				<path id="&lt;Path&gt;" fill="currentColor" stroke="currentColor" stroke-miterlimit="10" d="m3546.44 612.55h27.81"/>
			</g>
			<path id="bottle 00000043437952056945057930000014851592128377693842 " fill="currentColor" stroke="currentColor" stroke-miterlimit="10" d="m3535.38 619.33l-4.25-12.67c-1.28-3.8-4.84-6.37-8.86-6.37h-36.8c-3.94 0-7.46 2.47-8.79 6.18l-12.13 33.73c-0.81 2.4-1.22 4.9-1.22 7.43v100.26q0 2.18 0.41 4.32l3.37 17.92c0.52 2.76 2.93 4.76 5.74 4.76h105.3c2.81 0 5.22-2 5.74-4.76l3.37-17.92q0.41-2.14 0.41-4.32v-100.26c0-2.53-0.41-5.03-1.22-7.43l-5.17-15.31c-0.65-1.89-2.43-3.17-4.43-3.17h-38.15c-1.51 0-2.84-0.96-3.32-2.39zm-67.84 130.74h115.92m-11.57-132.09v3.74m-23.09 0v-3.74"/>
		</g>
</g>
</svg>