<svg xmlns="http://www.w3.org/2000/svg" viewBox="0 0 152.02 165.94">
<g transform="translate(-3142.81,-2033.63)" stroke-width="9.76">
<g id="Distro-Plate-icon-v4">
			<g id="holes">
				<path id="hole 00000129887394210565912180000015805284422260136352 " fill="currentColor" stroke="currentColor" stroke-linecap="round" stroke-linejoin="round" d="m3191.36 2148.93c0 1.65-1.34 3-3 3-1.65 0-3-1.35-3-3 0-1.66 1.35-3 3-3 1.66 0 3 1.34 3 3z"/>
				<path id="hole 00000055706106314326744300000006465811195096263348 " fill="currentColor" stroke="currentColor" stroke-linecap="round" stroke-linejoin="round" d="m3196.08 2175.5c0 1.66-1.34 3-3 3-1.65 0-3-1.34-3-3 0-1.65 1.35-3 3-3 1.66 0 3 1.35 3 3z"/>
				<path id="hole 00000146484451092193716580000016596386292450287011 " fill="currentColor" stroke="currentColor" stroke-linecap="round" stroke-linejoin="round" d="m3186.15 2119.55c0 1.66-1.35 3-3 3-1.66 0-3-1.34-3-3 0-1.66 1.34-3 3-3 1.65 0 3 1.34 3 3z"/>
				<path id="hole 00000075138535023867175650000011911721011502676868 " fill="currentColor" stroke="currentColor" stroke-linecap="round" stroke-linejoin="round" d="m3173.59 2061.62c0 1.65-1.34 3-3 3-1.66 0-3-1.35-3-3 0-1.66 1.34-3 3-3 1.66 0 3 1.34 3 3z"/>
				<path id="hole 00000108998688676166694090000008345238782955363249 " fill="currentColor" stroke="currentColor" stroke-linecap="round" stroke-linejoin="round" d="m3183.17 2104.8c0 1.65-1.34 3-3 3-1.66 0-3-1.35-3-3 0-1.66 1.34-3 3-3 1.66 0 3 1.34 3 3z"/>
				<path id="hole 00000016058239540549064790000014026510551140690077 " fill="currentColor" stroke="currentColor" stroke-linecap="round" stroke-linejoin="round" d="m3178.66 2079.42c0 1.66-1.34 3-3 3-1.65 0-3-1.34-3-3 0-1.65 1.35-3 3-3 1.66 0 3 1.35 3 3z"/>
				<path id="hole 00000008863718190283301620000006947940377707178411 " fill="currentColor" stroke="currentColor" stroke-linecap="round" stroke-linejoin="round" d="m3194.68 2067.11c0 1.66-1.34 3-3 3-1.66 0-3-1.34-3-3 0-1.65 1.34-3 3-3 1.66 0 3 1.35 3 3z"/>
				<path id="hole 00000088851016039570721830000003274511342643974833 " fill="currentColor" stroke="currentColor" stroke-linecap="round" stroke-linejoin="round" d="m3259.22 2092.91c0 1.65-1.34 3-3 3-1.65 0-3-1.35-3-3 0-1.66 1.35-3 3-3 1.66 0 3 1.34 3 3z"/>
				<path id="hole 00000124153921581863529850000014882692628851638922 " fill="currentColor" stroke="currentColor" stroke-linecap="round" stroke-linejoin="round" d="m3202.55 2107.82c0 1.65-1.34 3-3 3-1.65 0-3-1.35-3-3 0-1.66 1.35-3 3-3 1.66 0 3 1.34 3 3z"/>
				<path id="hole 00000106137590132257504190000014851694074801884832 " fill="currentColor" stroke="currentColor" stroke-linecap="round" stroke-linejoin="round" d="m3218.35 2083.95c0 1.66-1.35 3-3 3-1.66 0-3-1.34-3-3 0-1.65 1.34-3 3-3 1.65 0 3 1.35 3 3z"/>
			</g>
			<path id="branding 00000049217945434032974050000005938858654227668375 " fill="currentColor" stroke="currentColor" stroke-miterlimit="10" d="m3219.01 2174.96v2.03c0 1 0.82 1.82 1.82 1.82h5.47c1 0 1.82-0.82 1.82-1.82v-5.46c0-1.01-0.82-1.82-1.82-1.82h-5.47c-1 0-1.82 0.81-1.82 1.82v0.91c0 1 0.82 1.82 1.82 1.82h3.28c1.01 0 1.82 0.81 1.82 1.82v0.79"/>
			<g id="screws">
				<path id="screw 00000049182892249352941130000004017818854374379660 " fill="currentColor" d="m3179.93 2072.4c0 0.42-0.34 0.75-0.75 0.75-0.42 0-0.75-0.33-0.75-0.75 0-0.41 0.33-0.75 0.75-0.75 0.41 0 0.75 0.34 0.75 0.75z"/>
				<path id="screw 00000143596007551153460630000011952289512296526251 " fill="currentColor" d="m3193 2080.2c0 0.42-0.34 0.75-0.75 0.75-0.41 0-0.75-0.33-0.75-0.75 0-0.41 0.34-0.75 0.75-0.75 0.41 0 0.75 0.34 0.75 0.75z"/>
				<path id="screw 00000085229158724076138520000011019655682595838593 " fill="currentColor" d="m3194.51 2059.13c0 0.41-0.33 0.75-0.75 0.75-0.41 0-0.75-0.34-0.75-0.75 0-0.41 0.34-0.75 0.75-0.75 0.42 0 0.75 0.34 0.75 0.75z"/>
				<path id="screw 00000023996628755837222340000010928558652133378210 " fill="currentColor" d="m3202.06 2074.5c0 0.41-0.34 0.75-0.75 0.75-0.42 0-0.75-0.34-0.75-0.75 0-0.42 0.33-0.75 0.75-0.75 0.41 0 0.75 0.33 0.75 0.75z"/>
				<path id="screw 00000078741805222996553680000015884005524922027919 " fill="currentColor" d="m3197.1 2087.7c0 0.42-0.33 0.75-0.75 0.75-0.41 0-0.75-0.33-0.75-0.75 0-0.41 0.34-0.75 0.75-0.75 0.42 0 0.75 0.34 0.75 0.75z"/>
				<path id="screw 00000145042310688271441520000002070360063597070764 " fill="currentColor" d="m3212.48 2068.78c0 0.42-0.33 0.75-0.75 0.75-0.41 0-0.75-0.33-0.75-0.75 0-0.41 0.34-0.75 0.75-0.75 0.42 0 0.75 0.34 0.75 0.75z"/>
				<path id="screw 00000119805043008702490660000009126632291037813667 " fill="currentColor" d="m3259.93 2085.41c0 0.42-0.34 0.75-0.75 0.75-0.41 0-0.75-0.33-0.75-0.75 0-0.41 0.34-0.75 0.75-0.75 0.41 0 0.75 0.34 0.75 0.75z"/>
				<path id="screw 00000113346327568820206340000006776652310421252784 " fill="currentColor" d="m3260.29 2105.68c0 0.42-0.34 0.75-0.75 0.75-0.42 0-0.75-0.33-0.75-0.75 0-0.41 0.33-0.75 0.75-0.75 0.41 0 0.75 0.34 0.75 0.75z"/>
				<path id="screw 00000041988591366543877010000009463497832479488924 " fill="currentColor" d="m3256.27 2115.12c0 0.41-0.34 0.75-0.75 0.75-0.42 0-0.75-0.34-0.75-0.75 0-0.42 0.33-0.75 0.75-0.75 0.41 0 0.75 0.33 0.75 0.75z"/>
				<path id="screw 00000050652331786984334850000008629699816383841706 " fill="currentColor" d="m3252.24 2124.55c0 0.42-0.33 0.75-0.75 0.75-0.41 0-0.75-0.33-0.75-0.75 0-0.41 0.34-0.75 0.75-0.75 0.42 0 0.75 0.34 0.75 0.75z"/>
				<path id="screw 00000150078611844621934920000014231663160558041763 " fill="currentColor" d="m3264.31 2096.25c0 0.41-0.33 0.75-0.75 0.75-0.41 0-0.75-0.34-0.75-0.75 0-0.42 0.34-0.75 0.75-0.75 0.42 0 0.75 0.33 0.75 0.75z"/>
				<path id="screw 00000107585231897263533370000016751500126219946136 " fill="currentColor" d="m3219.66 2068.41c0 0.42-0.34 0.75-0.75 0.75-0.42 0-0.75-0.33-0.75-0.75 0-0.41 0.33-0.75 0.75-0.75 0.41 0 0.75 0.34 0.75 0.75z"/>
				<path id="screw 00000147905295101429573270000017231930582474709134 " fill="currentColor" d="m3246.51 2079.75c0 0.41-0.34 0.75-0.75 0.75-0.42 0-0.75-0.34-0.75-0.75 0-0.42 0.33-0.75 0.75-0.75 0.41 0 0.75 0.33 0.75 0.75z"/>
				<path id="screw 00000044169157257816277880000000155711003123463593 " fill="currentColor" d="m3233.08 2074.08c0 0.42-0.33 0.75-0.75 0.75-0.41 0-0.75-0.33-0.75-0.75 0-0.41 0.34-0.75 0.75-0.75 0.42 0 0.75 0.34 0.75 0.75z"/>
				<path id="screw 00000123422066202530562460000007619702904672708763 " fill="currentColor" d="m3188.77 2113.18c0 0.41-0.34 0.75-0.75 0.75-0.41 0-0.75-0.34-0.75-0.75 0-0.42 0.34-0.75 0.75-0.75 0.41 0 0.75 0.33 0.75 0.75z"/>
				<path id="screw 00000169538638791670199700000013596513201906247554 " fill="currentColor" d="m3188.02 2108.94c0 0.42-0.34 0.75-0.75 0.75-0.41 0-0.75-0.33-0.75-0.75 0-0.41 0.34-0.75 0.75-0.75 0.41 0 0.75 0.34 0.75 0.75z"/>
				<path id="screw 00000134965788932270665040000012981130877385123233 " fill="currentColor" d="m3194.18 2099.42c0 0.42-0.34 0.75-0.75 0.75-0.42 0-0.75-0.33-0.75-0.75 0-0.41 0.33-0.75 0.75-0.75 0.41 0 0.75 0.34 0.75 0.75z"/>
				<path id="screw 00000100380073989952023490000005441120315102172805 " fill="currentColor" d="m3183.33 2163.22c0 0.42-0.34 0.75-0.75 0.75-0.42 0-0.75-0.33-0.75-0.75 0-0.41 0.33-0.75 0.75-0.75 0.41 0 0.75 0.34 0.75 0.75z"/>
				<path id="screw 00000080928899507899646740000001493338521229800114 " fill="currentColor" d="m3178.29 2135.07c0 0.42-0.33 0.75-0.75 0.75-0.41 0-0.75-0.33-0.75-0.75 0-0.41 0.34-0.75 0.75-0.75 0.42 0 0.75 0.34 0.75 0.75z"/>
				<path id="screw 00000142872154439394433620000015167394175825952896 " fill="currentColor" d="m3180.81 2149.15c0 0.41-0.34 0.75-0.75 0.75-0.42 0-0.75-0.34-0.75-0.75 0-0.42 0.33-0.75 0.75-0.75 0.41 0 0.75 0.33 0.75 0.75z"/>
				<path id="screw 00000047023418652307180650000004927270551491455386 " fill="currentColor" d="m3170.51 2093.35c0 0.41-0.34 0.75-0.75 0.75-0.41 0-0.75-0.34-0.75-0.75 0-0.41 0.34-0.75 0.75-0.75 0.41 0 0.75 0.34 0.75 0.75z"/>
				<path id="screw 00000028296687939225954500000017606129010951783304 " fill="currentColor" d="m3172.74 2105.87c0 0.41-0.34 0.75-0.75 0.75-0.42 0-0.75-0.34-0.75-0.75 0-0.42 0.33-0.75 0.75-0.75 0.41 0 0.75 0.33 0.75 0.75z"/>
				<path id="screw 00000031174604323027015920000016076554688221674414 " fill="currentColor" d="m3168.28 2080.83c0 0.42-0.33 0.75-0.75 0.75-0.41 0-0.75-0.33-0.75-0.75 0-0.41 0.34-0.75 0.75-0.75 0.42 0 0.75 0.34 0.75 0.75z"/>
				<path id="screw 00000170264958642472557660000005938760868289795728 " fill="currentColor" d="m3185.84 2177.3c0 0.41-0.33 0.75-0.75 0.75-0.41 0-0.75-0.34-0.75-0.75 0-0.42 0.34-0.75 0.75-0.75 0.42 0 0.75 0.33 0.75 0.75z"/>
				<path id="screw 00000021833617502549444770000005134931254147136925 " fill="currentColor" d="m3209.87 2170.44c0 0.41-0.33 0.75-0.75 0.75-0.41 0-0.75-0.34-0.75-0.75 0-0.42 0.34-0.75 0.75-0.75 0.42 0 0.75 0.33 0.75 0.75z"/>
				<path id="screw 00000052106456106645931720000002654019025439570849 " fill="currentColor" d="m3220.26 2159.95c0 0.42-0.33 0.75-0.75 0.75-0.41 0-0.75-0.33-0.75-0.75 0-0.41 0.34-0.75 0.75-0.75 0.42 0 0.75 0.34 0.75 0.75z"/>
				<path id="screw 00000081607788166307240090000007554116731471322499 " fill="currentColor" d="m3205.22 2127.66c0 0.41-0.33 0.75-0.75 0.75-0.41 0-0.75-0.34-0.75-0.75 0-0.42 0.34-0.75 0.75-0.75 0.42 0 0.75 0.33 0.75 0.75z"/>
				<path id="screw 00000172433604382399227910000005444869723913005702 " fill="currentColor" d="m3213.1 2138.52c0 0.41-0.34 0.75-0.75 0.75-0.42 0-0.75-0.34-0.75-0.75 0-0.42 0.33-0.75 0.75-0.75 0.41 0 0.75 0.33 0.75 0.75z"/>
				<path id="screw 00000121987766883416388270000013014123901216190866 " fill="currentColor" d="m3197.35 2116.73c0 0.41-0.33 0.75-0.75 0.75-0.41 0-0.75-0.34-0.75-0.75 0-0.42 0.34-0.75 0.75-0.75 0.42 0 0.75 0.33 0.75 0.75z"/>
				<path id="screw 00000054964318705439858360000008070763120501818020 " fill="currentColor" d="m3220.97 2149.45c0 0.42-0.34 0.75-0.75 0.75-0.42 0-0.75-0.33-0.75-0.75 0-0.41 0.33-0.75 0.75-0.75 0.41 0 0.75 0.34 0.75 0.75z"/>
				<path id="screw 00000138550070067721965630000009322866743361435803 " fill="currentColor" d="m3228.84 2160.31c0 0.42-0.34 0.75-0.75 0.75-0.42 0-0.75-0.33-0.75-0.75 0-0.41 0.33-0.75 0.75-0.75 0.41 0 0.75 0.34 0.75 0.75z"/>
				<path id="screw 00000015336886584289523580000002750286823914733220 " fill="currentColor" d="m3236.71 2171.17c0 0.41-0.34 0.75-0.75 0.75-0.41 0-0.75-0.34-0.75-0.75 0-0.41 0.34-0.75 0.75-0.75 0.41 0 0.75 0.34 0.75 0.75z"/>
				<path id="screw 00000118390263264888481660000016691531967431555507 " fill="currentColor" d="m3248.05 2181.73c0 0.42-0.34 0.75-0.75 0.75-0.42 0-0.75-0.33-0.75-0.75 0-0.41 0.33-0.75 0.75-0.75 0.41 0 0.75 0.34 0.75 0.75z"/>
				<path id="screw 00000070113761843901676460000001993126940292214923 " fill="currentColor" d="m3255.84 2181.73c0 0.42-0.34 0.75-0.75 0.75-0.42 0-0.75-0.33-0.75-0.75 0-0.41 0.33-0.75 0.75-0.75 0.41 0 0.75 0.34 0.75 0.75z"/>
				<path id="screw 00000036224526794356543850000005950587075296895873 " fill="currentColor" d="m3256.72 2129.64c0 0.42-0.34 0.75-0.75 0.75-0.42 0-0.75-0.33-0.75-0.75 0-0.41 0.33-0.75 0.75-0.75 0.41 0 0.75 0.34 0.75 0.75z"/>
				<path id="screw 00000048482394733955284490000013627812277089256618 " fill="currentColor" d="m3268.53 2134.8c0 0.41-0.33 0.75-0.75 0.75-0.41 0-0.75-0.34-0.75-0.75 0-0.41 0.34-0.75 0.75-0.75 0.42 0 0.75 0.34 0.75 0.75z"/>
				<path id="screw 00000059302180987753168540000007640879643068420784 " fill="currentColor" d="m3270.02 2156.4c0 0.42-0.34 0.75-0.75 0.75-0.42 0-0.75-0.33-0.75-0.75 0-0.41 0.33-0.75 0.75-0.75 0.41 0 0.75 0.34 0.75 0.75z"/>
				<path id="screw 00000000201938061972852960000002157109001706288517 " fill="currentColor" d="m3266.33 2166.06c0 0.41-0.34 0.75-0.75 0.75-0.42 0-0.75-0.34-0.75-0.75 0-0.42 0.33-0.75 0.75-0.75 0.41 0 0.75 0.33 0.75 0.75z"/>
				<path id="screw 00000130637314962884749060000012407073986418545834 " fill="currentColor" d="m3262.28 2176.46c0 0.42-0.34 0.75-0.75 0.75-0.42 0-0.75-0.33-0.75-0.75 0-0.41 0.33-0.75 0.75-0.75 0.41 0 0.75 0.34 0.75 0.75z"/>
				<path id="screw 00000143581861872863717560000001155230651825397915 " fill="currentColor" d="m3274.08 2146c0 0.41-0.33 0.75-0.75 0.75-0.41 0-0.75-0.34-0.75-0.75 0-0.42 0.34-0.75 0.75-0.75 0.42 0 0.75 0.33 0.75 0.75z"/>
				<path id="screw 00000042699332661440769970000006202535733363315096 " fill="currentColor" d="m3199.49 2180.92c0 0.41-0.34 0.75-0.75 0.75-0.42 0-0.75-0.34-0.75-0.75 0-0.42 0.33-0.75 0.75-0.75 0.41 0 0.75 0.33 0.75 0.75z"/>
				<path id="screw 00000167383865802758319810000013882361060377798294 " fill="currentColor" d="m3175.77 2121c0 0.41-0.33 0.75-0.75 0.75-0.41 0-0.75-0.34-0.75-0.75 0-0.42 0.34-0.75 0.75-0.75 0.42 0 0.75 0.33 0.75 0.75z"/>
				<path id="screw 00000079484613764615654610000005905927929608573832 " fill="currentColor" d="m3173.42 2053.63c0 0.42-0.34 0.75-0.75 0.75-0.41 0-0.75-0.33-0.75-0.75 0-0.41 0.34-0.75 0.75-0.75 0.41 0 0.75 0.34 0.75 0.75z"/>
				<path id="screw 00000140722686283466221810000006393247437886290831 " fill="currentColor" d="m3169.49 2069.59c0 0.41-0.34 0.75-0.75 0.75-0.42 0-0.75-0.34-0.75-0.75 0-0.42 0.33-0.75 0.75-0.75 0.41 0 0.75 0.33 0.75 0.75z"/>
				<path id="screw 00000152970136255494349530000011340645948308243108 " fill="currentColor" d="m3183.97 2056.38c0 0.42-0.34 0.75-0.75 0.75-0.42 0-0.75-0.33-0.75-0.75 0-0.41 0.33-0.75 0.75-0.75 0.41 0 0.75 0.34 0.75 0.75z"/>
			</g>
			<path id="profile 00000162333615416867807040000000336632089050643329 " fill="currentColor" stroke="currentColor" stroke-linecap="round" stroke-linejoin="round" d="m3279.83 2137.65l-7.76-47.47c-0.5-3.08-2.56-5.68-5.45-6.87l-82.84-34.18c-1.7-0.72-3.58-0.89-5.38-0.5l-15.95 3.43c-3.15 0.68-5.21 3.74-4.64 6.91l6.48 36.49c0.12 0.7 0.49 1.33 1.04 1.78l1.53 1.27c0.55 0.45 0.92 1.09 1.04 1.79l6.36 35.8c0.11 0.61 0.03 1.24-0.23 1.8l-1.2 2.55c-0.26 0.56-0.34 1.19-0.23 1.79l6.63 37.38c0.51 2.87 3 4.95 5.91 4.95h74.42c2.51 0 4.76-1.56 5.63-3.92l14.2-38.43c0.54-1.46 0.7-3.03 0.44-4.57z"/>
			<path id="channels 00000078041641418587395090000004903017138542428806 " fill="currentColor" stroke="currentColor" stroke-miterlimit="10" d="m3190.29 2072.44l-21.09-5.5m23.87-5.15l-21.09-5.5m24.8 122.69l20.78-20.96c1.78-1.92 1.96-4.83 0.43-6.96l-23.62-32.72c-0.83-1.15-2.06-1.93-3.45-2.19l-4.77-0.89m71.96-27.31l-40.27-17c-1.55-0.66-3.31-0.57-4.79 0.24l-10.42 5.72c-1.44 0.79-2.46 2.18-2.76 3.8l-4.5 23.69m2.34 8.03l46.38 64.27c1.03 1.43 2.69 2.28 4.46 2.28h5.29c2.27 0 4.3-1.39 5.12-3.51l11.81-30.47c1.05-2.71-0.2-5.78-2.85-6.99l-16.18-7.38c-2.71-1.23-3.94-4.41-2.77-7.16l12.06-28.3m-83.3 25.34l10.07 56.3m-17.56-96.46l4.45 25.04m10.27 2.06l6.16-9.52c0.76-1.17 1.04-2.58 0.79-3.95l-2.37-13.29c-0.37-2.1-1.93-3.8-3.99-4.35l-8.47-2.26"/>
		</g>
</g>
</svg>