<svg xmlns="http://www.w3.org/2000/svg" viewBox="0 0 123.91 230.00">
<g transform="translate(-2616.88,-2001.50)" stroke-width="8.21">
<g id="Distro-Plate-icon-v2">
			<g id="inlets-outlets 00000013910444768283680720000017511324887955790739 ">
				<path id="hole 00000164503448507397902730000016574285885918332586 " fill="none" stroke="currentColor" stroke-linecap="round" stroke-linejoin="round" d="m2715.01 2030.63c0 1.66-1.34 3-3 3-1.66 0-3-1.34-3-3 0-1.66 1.34-3 3-3 1.66 0 3 1.34 3 3z"/>
				<path id="hole 00000107547287940614128800000011001102922318343322 " fill="none" stroke="currentColor" stroke-linecap="round" stroke-linejoin="round" d="m2715.01 2077.67c0 1.66-1.34 3-3 3-1.66 0-3-1.34-3-3 0-1.65 1.34-3 3-3 1.66 0 3 1.35 3 3z"/>
				<path id="hole 00000067937931524526956450000013086815264811370929 " fill="none" stroke="currentColor" stroke-linecap="round" stroke-linejoin="round" d="m2649.01 2030.63c0 1.66-1.35 3-3 3-1.66 0-3-1.34-3-3 0-1.66 1.34-3 3-3 1.65 0 3 1.34 3 3z"/>
				<path id="hole 00000116931703903623837020000000096113448403646879 " fill="none" stroke="currentColor" stroke-linecap="round" stroke-linejoin="round" d="m2649.01 2176.44c0 1.66-1.35 3-3 3-1.66 0-3-1.34-3-3 0-1.66 1.34-3 3-3 1.65 0 3 1.34 3 3z"/>
				<path id="hole 00000158008288021415483960000003039850178155548334 " fill="none" stroke="currentColor" stroke-linecap="round" stroke-linejoin="round" d="m2649.01 2198.44c0 1.66-1.35 3-3 3-1.66 0-3-1.34-3-3 0-1.66 1.34-3 3-3 1.65 0 3 1.34 3 3z"/>
				<path id="hole 00000171702285649344376370000006747165970876349373 " fill="none" stroke="currentColor" stroke-linecap="round" stroke-linejoin="round" d="m2715.01 2057.43c0 1.66-1.34 3-3 3-1.66 0-3-1.34-3-3 0-1.66 1.34-3 3-3 1.66 0 3 1.34 3 3z"/>
				<path id="hole 00000181782379553583216790000016549963499553678768 " fill="none" stroke="currentColor" stroke-linecap="round" stroke-linejoin="round" d="m2649.01 2102.53c0 1.65-1.35 3-3 3-1.66 0-3-1.35-3-3 0-1.66 1.34-3 3-3 1.65 0 3 1.34 3 3z"/>
			</g>
			<path id="branding 00000076602912231205856760000016570816307090339741 " fill="none" stroke="currentColor" stroke-miterlimit="10" d="m2661.7 2206.44v2.04c0 1 0.82 1.82 1.83 1.82h5.46c1 0 1.82-0.82 1.82-1.82v-5.47c0-1-0.82-1.82-1.82-1.82h-5.46c-1.01 0-1.83 0.82-1.83 1.82v0.91c0 1.01 0.82 1.83 1.83 1.83h3.27c1.01 0 1.82 0.81 1.82 1.82v0.79"/>
			<g id="screws 00000077322491737054859710000015173251881878603409 ">
				<path id="screw 00000160872179730896596940000000121368528558033048 " fill="none" d="m2704.71 2051.46c0 0.41-0.34 0.75-0.75 0.75-0.41 0-0.75-0.34-0.75-0.75 0-0.42 0.34-0.75 0.75-0.75 0.41 0 0.75 0.33 0.75 0.75z"/>
				<path id="screw 00000127029580981023542100000003287486553493258939 " fill="none" d="m2704.71 2062.23c0 0.41-0.34 0.75-0.75 0.75-0.41 0-0.75-0.34-0.75-0.75 0-0.41 0.34-0.75 0.75-0.75 0.41 0 0.75 0.34 0.75 0.75z"/>
				<path id="screw 00000013878893245682880100000015888892002356888733 " fill="none" d="m2704.71 2073c0 0.42-0.34 0.75-0.75 0.75-0.41 0-0.75-0.33-0.75-0.75 0-0.41 0.34-0.75 0.75-0.75 0.41 0 0.75 0.34 0.75 0.75z"/>
				<path id="screw 00000060744549840732988300000008341665595627705532 " fill="none" d="m2704.71 2083.78c0 0.41-0.34 0.75-0.75 0.75-0.41 0-0.75-0.34-0.75-0.75 0-0.42 0.34-0.75 0.75-0.75 0.41 0 0.75 0.33 0.75 0.75z"/>
				<path id="screw 00000002371831729582517670000011582826499022170784 " fill="none" d="m2721.26 2082.42c0 0.42-0.34 0.75-0.75 0.75-0.41 0-0.75-0.33-0.75-0.75 0-0.41 0.34-0.75 0.75-0.75 0.41 0 0.75 0.34 0.75 0.75z"/>
				<path id="screw 00000103229659933849768610000000017777717359983022 " fill="none" d="m2638.26 2181.19c0 0.42-0.34 0.75-0.75 0.75-0.42 0-0.75-0.33-0.75-0.75 0-0.41 0.33-0.75 0.75-0.75 0.41 0 0.75 0.34 0.75 0.75z"/>
				<path id="screw 00000089575681266419062720000002325579825886965380 " fill="none" d="m2721.26 2052.68c0 0.41-0.34 0.75-0.75 0.75-0.41 0-0.75-0.34-0.75-0.75 0-0.41 0.34-0.75 0.75-0.75 0.41 0 0.75 0.34 0.75 0.75z"/>
				<path id="screw 00000074408007892256423710000014831521232364455577 " fill="none" d="m2721.26 2044.03c0 0.41-0.34 0.75-0.75 0.75-0.41 0-0.75-0.34-0.75-0.75 0-0.42 0.34-0.75 0.75-0.75 0.41 0 0.75 0.33 0.75 0.75z"/>
				<path id="screw 00000065767346579108701900000009482758710297282726 " fill="none" d="m2721.26 2035.38c0 0.41-0.34 0.75-0.75 0.75-0.41 0-0.75-0.34-0.75-0.75 0-0.42 0.34-0.75 0.75-0.75 0.41 0 0.75 0.33 0.75 0.75z"/>
				<path id="screw 00000142899070702461455760000004656421096999651220 " fill="none" d="m2708.01 2022.13c0 0.41-0.34 0.75-0.75 0.75-0.41 0-0.75-0.34-0.75-0.75 0-0.42 0.34-0.75 0.75-0.75 0.41 0 0.75 0.33 0.75 0.75z"/>
				<path id="screw 00000096740647250416729460000013795094812732192959 " fill="none" d="m2698.66 2022.13c0 0.41-0.34 0.75-0.75 0.75-0.42 0-0.75-0.34-0.75-0.75 0-0.42 0.33-0.75 0.75-0.75 0.41 0 0.75 0.33 0.75 0.75z"/>
				<path id="screw 00000156568865247973837900000014129328629690843577 " fill="none" d="m2689.3 2022.13c0 0.41-0.33 0.75-0.75 0.75-0.41 0-0.75-0.34-0.75-0.75 0-0.42 0.34-0.75 0.75-0.75 0.42 0 0.75 0.33 0.75 0.75z"/>
				<path id="screw 00000062873500302894832490000009955319696423958932 " fill="none" d="m2679.95 2022.13c0 0.41-0.33 0.75-0.75 0.75-0.41 0-0.75-0.34-0.75-0.75 0-0.42 0.34-0.75 0.75-0.75 0.42 0 0.75 0.33 0.75 0.75z"/>
				<path id="screw 00000110436009603550549120000009162237493425078413 " fill="none" d="m2638.26 2035.6c0 0.41-0.34 0.75-0.75 0.75-0.42 0-0.75-0.34-0.75-0.75 0-0.42 0.33-0.75 0.75-0.75 0.41 0 0.75 0.33 0.75 0.75z"/>
				<path id="screw 00000173150847572904988800000014188032633585570693 " fill="none" d="m2638.26 2048.03c0 0.42-0.34 0.75-0.75 0.75-0.42 0-0.75-0.33-0.75-0.75 0-0.41 0.33-0.75 0.75-0.75 0.41 0 0.75 0.34 0.75 0.75z"/>
				<path id="screw 00000044893677653993151020000000255833591250701721 " fill="none" d="m2638.26 2060.47c0 0.41-0.34 0.75-0.75 0.75-0.42 0-0.75-0.34-0.75-0.75 0-0.42 0.33-0.75 0.75-0.75 0.41 0 0.75 0.33 0.75 0.75z"/>
				<path id="screw 00000042725627569989242950000015950712982574180267 " fill="none" d="m2638.26 2072.9c0 0.42-0.34 0.75-0.75 0.75-0.42 0-0.75-0.33-0.75-0.75 0-0.41 0.33-0.75 0.75-0.75 0.41 0 0.75 0.34 0.75 0.75z"/>
				<path id="screw 00000139278053604757631940000005009460840286573998 " fill="none" d="m2638.26 2085.34c0 0.41-0.34 0.75-0.75 0.75-0.42 0-0.75-0.34-0.75-0.75 0-0.41 0.33-0.75 0.75-0.75 0.41 0 0.75 0.34 0.75 0.75z"/>
				<path id="screw 00000129198082321777235700000000221810118968774019 " fill="none" d="m2638.26 2097.78c0 0.41-0.34 0.75-0.75 0.75-0.42 0-0.75-0.34-0.75-0.75 0-0.42 0.33-0.75 0.75-0.75 0.41 0 0.75 0.33 0.75 0.75z"/>
				<path id="screw 00000058588799049123066610000007759817122484342685 " fill="none" d="m2688.04 2100.45c0 0.41-0.34 0.75-0.75 0.75-0.41 0-0.75-0.34-0.75-0.75 0-0.42 0.34-0.75 0.75-0.75 0.41 0 0.75 0.33 0.75 0.75z"/>
				<path id="screw 00000178915366490155339090000002902799553161788585 " fill="none" d="m2677.86 2100.45c0 0.41-0.34 0.75-0.75 0.75-0.41 0-0.75-0.34-0.75-0.75 0-0.42 0.34-0.75 0.75-0.75 0.41 0 0.75 0.33 0.75 0.75z"/>
				<path id="screw 00000173874727573114925580000009965430784196125583 " fill="none" d="m2667.68 2100.45c0 0.41-0.34 0.75-0.75 0.75-0.42 0-0.75-0.34-0.75-0.75 0-0.42 0.33-0.75 0.75-0.75 0.41 0 0.75 0.33 0.75 0.75z"/>
				<path id="screw 00000178190697760847844420000003944549944218388402 " fill="none" d="m2672.26 2177.52c0 0.41-0.34 0.75-0.75 0.75-0.42 0-0.75-0.34-0.75-0.75 0-0.42 0.33-0.75 0.75-0.75 0.41 0 0.75 0.33 0.75 0.75z"/>
				<path id="screw 00000027594890138557054250000014878103404126546096 " fill="none" d="m2672.26 2164.05c0 0.41-0.34 0.75-0.75 0.75-0.42 0-0.75-0.34-0.75-0.75 0-0.42 0.33-0.75 0.75-0.75 0.41 0 0.75 0.33 0.75 0.75z"/>
				<path id="screw 00000153666673930033282000000016865079148023651244 " fill="none" d="m2672.26 2150.57c0 0.42-0.34 0.75-0.75 0.75-0.42 0-0.75-0.33-0.75-0.75 0-0.41 0.33-0.75 0.75-0.75 0.41 0 0.75 0.34 0.75 0.75z"/>
				<path id="screw 00000049209784789359267840000001290335667727465641 " fill="none" d="m2672.26 2137.1c0 0.41-0.34 0.75-0.75 0.75-0.42 0-0.75-0.34-0.75-0.75 0-0.41 0.33-0.75 0.75-0.75 0.41 0 0.75 0.34 0.75 0.75z"/>
				<path id="screw 00000036246313833249834100000006480747310013483404 " fill="none" d="m2672.26 2123.63c0 0.41-0.34 0.75-0.75 0.75-0.42 0-0.75-0.34-0.75-0.75 0-0.42 0.33-0.75 0.75-0.75 0.41 0 0.75 0.33 0.75 0.75z"/>
				<path id="screw 00000108295062553574236940000009731333756546648473 " fill="none" d="m2695.36 2117.25c0 0.41-0.33 0.75-0.75 0.75-0.41 0-0.75-0.34-0.75-0.75 0-0.42 0.34-0.75 0.75-0.75 0.42 0 0.75 0.33 0.75 0.75z"/>
				<path id="screw 00000111870689683584263050000005484134394013284750 " fill="none" d="m2687 2117.25c0 0.41-0.34 0.75-0.75 0.75-0.41 0-0.75-0.34-0.75-0.75 0-0.42 0.34-0.75 0.75-0.75 0.41 0 0.75 0.33 0.75 0.75z"/>
				<path id="screw 00000166639982655508474300000008721368136236421281 " fill="none" d="m2678.64 2117.25c0 0.41-0.34 0.75-0.75 0.75-0.42 0-0.75-0.34-0.75-0.75 0-0.42 0.33-0.75 0.75-0.75 0.41 0 0.75 0.33 0.75 0.75z"/>
				<path id="screw 00000020359017729902327840000017567126197366977683 " fill="none" d="m2638.26 2193.69c0 0.42-0.34 0.75-0.75 0.75-0.42 0-0.75-0.33-0.75-0.75 0-0.41 0.33-0.75 0.75-0.75 0.41 0 0.75 0.34 0.75 0.75z"/>
				<path id="screw 00000085966723961592524630000003860141028964955829 " fill="none" d="m2637.99 2152.05c0 0.41-0.34 0.75-0.75 0.75-0.41 0-0.75-0.34-0.75-0.75 0-0.41 0.34-0.75 0.75-0.75 0.41 0 0.75 0.34 0.75 0.75z"/>
				<path id="screw 00000160880309465170938640000005568174735542770358 " fill="none" d="m2637.99 2140.99c0 0.42-0.34 0.75-0.75 0.75-0.41 0-0.75-0.33-0.75-0.75 0-0.41 0.34-0.75 0.75-0.75 0.41 0 0.75 0.34 0.75 0.75z"/>
				<path id="screw 00000105389186969161141450000003267673081929563792 " fill="none" d="m2637.99 2129.93c0 0.42-0.34 0.75-0.75 0.75-0.41 0-0.75-0.33-0.75-0.75 0-0.41 0.34-0.75 0.75-0.75 0.41 0 0.75 0.34 0.75 0.75z"/>
				<path id="screw 00000120523789117125081170000017308576440158478001 " fill="none" d="m2721.26 2091.35c0 0.41-0.34 0.75-0.75 0.75-0.41 0-0.75-0.34-0.75-0.75 0-0.42 0.34-0.75 0.75-0.75 0.41 0 0.75 0.33 0.75 0.75z"/>
			</g>
			<path id="profile 00000037659110454489214020000007304160968473138365 " fill="none" stroke="currentColor" stroke-miterlimit="10" d="m2680.14 2122.88h42.65c1.66 0 3-1.35 3-3v-100.38c0-1.66-1.34-3-3-3h-87.91c-1.66 0-3 1.34-3 3v194c0 1.65 1.34 3 3 3h39.26c1.65 0 3-1.35 3-3v-87.62c0-1.66 1.34-3 3-3z"/>
			<path id="channels 00000075133253072403158190000016544807772877180291 " fill="none" stroke="currentColor" stroke-miterlimit="10" d="m2706.51 2077.91v14.46c0 0.93-0.37 1.82-1.03 2.47l-7.37 7.38c-0.66 0.66-1.55 1.03-2.48 1.03h-33.45c-0.93 0-1.82 0.36-2.48 1.02l-18.43 18.44c-0.66 0.66-1.03 1.55-1.03 2.47v31.62c0 0.93 0.37 1.82 1.03 2.47l15.21 15.22c0.66 0.66 1.03 1.55 1.03 2.48v0.74c0 0.93-0.37 1.82-1.03 2.48l-3.27 3.27c-0.63 0.63-1.7 0.18-1.7-0.71v-6.07m-1.61 25.65l17.58-17.59c0.66-0.65 1.03-1.54 1.03-2.47v-9.03q0 0 0 0v-57.49c0-0.83 0.67-1.5 1.5-1.5h29.35c1.46 0 2.86-0.58 3.89-1.62l12.65-12.64c1.03-1.04 1.61-2.43 1.61-3.89v-18.43m-77 98.77v22m0-167.59v71.68m71.5-77.4h-37.56c-0.93 0-1.82 0.37-2.47 1.02l-10.28 10.28c-0.58 0.58-1.53 0.58-2.12 0l-9.68-9.69m67.61 30.69v-26.8m-67.61 75.78l7.74-7.74c0.65-0.65 1.54-1.02 2.47-1.02h31.93c0.93 0 1.82-0.37 2.47-1.03l5.62-5.62c0.66-0.65 1.03-1.54 1.03-2.47v-37.82c0-0.93 0.37-1.82 1.02-2.48l2.62-2.62c0.63-0.63 1.71-0.18 1.71 0.71v10.87"/>
		</g>
</g>
</svg>