<svg xmlns="http://www.w3.org/2000/svg" viewBox="0 0 75.26 230.00">
<g transform="translate(-2911.20,-2001.50)" stroke-width="8.21">
<g id="Distro-Plate-icon-v3">
			<path id="branding 00000137811402323722205880000009069584643745603725 " fill="none" stroke="currentColor" stroke-miterlimit="10" d="m2956.03 2206.44v2.04c0 1 0.82 1.82 1.82 1.82h5.46c1.01 0 1.83-0.82 1.83-1.82v-5.47c0-1-0.82-1.82-1.83-1.82h-5.46c-1 0-1.82 0.82-1.82 1.82v0.91c0 1.01 0.82 1.83 1.82 1.83h3.28c1.01 0 1.82 0.81 1.82 1.82v0.79"/>
			<g id="screws 00000022540396775180056810000012962518654530284685 ">
				<path id="screw 00000004520890156504345600000002865355077479977625 " fill="none" d="m2932.58 2181.19c0 0.42-0.33 0.75-0.75 0.75-0.41 0-0.75-0.33-0.75-0.75 0-0.41 0.34-0.75 0.75-0.75 0.42 0 0.75 0.34 0.75 0.75z"/>
				<path id="screw 00000054266087962139093630000013549527166699392663 " fill="none" d="m2966.58 2177.52c0 0.41-0.33 0.75-0.75 0.75-0.41 0-0.75-0.34-0.75-0.75 0-0.42 0.34-0.75 0.75-0.75 0.42 0 0.75 0.33 0.75 0.75z"/>
				<path id="screw 00000136408409373912257030000014121230897700908948 " fill="none" d="m2966.58 2164.05c0 0.41-0.33 0.75-0.75 0.75-0.41 0-0.75-0.34-0.75-0.75 0-0.42 0.34-0.75 0.75-0.75 0.42 0 0.75 0.33 0.75 0.75z"/>
				<path id="screw 00000038409441011311808440000012721163594230817924 " fill="none" d="m2966.58 2150.57c0 0.42-0.33 0.75-0.75 0.75-0.41 0-0.75-0.33-0.75-0.75 0-0.41 0.34-0.75 0.75-0.75 0.42 0 0.75 0.34 0.75 0.75z"/>
				<path id="screw 00000178201660309366796750000017420202088919218599 " fill="none" d="m2966.58 2137.1c0 0.41-0.33 0.75-0.75 0.75-0.41 0-0.75-0.34-0.75-0.75 0-0.41 0.34-0.75 0.75-0.75 0.42 0 0.75 0.34 0.75 0.75z"/>
				<path id="screw 00000004521180607545582710000015976341316858552752 " fill="none" d="m2966.58 2123.63c0 0.41-0.33 0.75-0.75 0.75-0.41 0-0.75-0.34-0.75-0.75 0-0.42 0.34-0.75 0.75-0.75 0.42 0 0.75 0.33 0.75 0.75z"/>
				<path id="screw 00000174580262406671888360000012723818366345101464 " fill="none" d="m2932.58 2193.69c0 0.42-0.33 0.75-0.75 0.75-0.41 0-0.75-0.33-0.75-0.75 0-0.41 0.34-0.75 0.75-0.75 0.42 0 0.75 0.34 0.75 0.75z"/>
				<path id="screw 00000175307323544176449360000013829424001268646568 " fill="none" d="m2932.32 2152.05c0 0.41-0.34 0.75-0.75 0.75-0.42 0-0.75-0.34-0.75-0.75 0-0.41 0.33-0.75 0.75-0.75 0.41 0 0.75 0.34 0.75 0.75z"/>
				<path id="screw 00000106136204477600348270000003573887328726199689 " fill="none" d="m2932.32 2140.99c0 0.42-0.34 0.75-0.75 0.75-0.42 0-0.75-0.33-0.75-0.75 0-0.41 0.33-0.75 0.75-0.75 0.41 0 0.75 0.34 0.75 0.75z"/>
				<path id="screw 00000139285061530182117570000007956571476247003270 " fill="none" d="m2932.32 2129.93c0 0.42-0.34 0.75-0.75 0.75-0.42 0-0.75-0.33-0.75-0.75 0-0.41 0.33-0.75 0.75-0.75 0.41 0 0.75 0.34 0.75 0.75z"/>
				<path id="screw 00000106145566685049398120000006315449033496504230 " fill="none" d="m2966.58 2082.92c0 0.42-0.33 0.75-0.75 0.75-0.41 0-0.75-0.33-0.75-0.75 0-0.41 0.34-0.75 0.75-0.75 0.42 0 0.75 0.34 0.75 0.75z"/>
				<path id="screw 00000176745585749489684290000002965615814567770533 " fill="none" d="m2966.58 2072.9c0 0.42-0.33 0.75-0.75 0.75-0.41 0-0.75-0.33-0.75-0.75 0-0.41 0.34-0.75 0.75-0.75 0.42 0 0.75 0.34 0.75 0.75z"/>
				<path id="screw 00000054957150318449546550000008915431478200145290 " fill="none" d="m2966.58 2062.88c0 0.42-0.33 0.75-0.75 0.75-0.41 0-0.75-0.33-0.75-0.75 0-0.41 0.34-0.75 0.75-0.75 0.42 0 0.75 0.34 0.75 0.75z"/>
				<path id="screw 00000022522904545125206800000007000016270015530683 " fill="none" d="m2966.58 2052.86c0 0.41-0.33 0.75-0.75 0.75-0.41 0-0.75-0.34-0.75-0.75 0-0.41 0.34-0.75 0.75-0.75 0.42 0 0.75 0.34 0.75 0.75z"/>
				<path id="screw 00000017494210149816337760000005874789463299419290 " fill="none" d="m2932.32 2099.3c0 0.42-0.34 0.75-0.75 0.75-0.42 0-0.75-0.33-0.75-0.75 0-0.41 0.33-0.75 0.75-0.75 0.41 0 0.75 0.34 0.75 0.75z"/>
				<path id="screw 00000055684950783241945320000013750946588050576793 " fill="none" d="m2932.32 2087.69c0 0.42-0.34 0.75-0.75 0.75-0.42 0-0.75-0.33-0.75-0.75 0-0.41 0.33-0.75 0.75-0.75 0.41 0 0.75 0.34 0.75 0.75z"/>
				<path id="screw 00000163767675329699719670000011749425956050646698 " fill="none" d="m2932.32 2076.08c0 0.42-0.34 0.75-0.75 0.75-0.42 0-0.75-0.33-0.75-0.75 0-0.41 0.33-0.75 0.75-0.75 0.41 0 0.75 0.34 0.75 0.75z"/>
				<path id="screw 00000154423865563119695060000010762794891003994293 " fill="none" d="m2932.32 2064.47c0 0.42-0.34 0.75-0.75 0.75-0.42 0-0.75-0.33-0.75-0.75 0-0.41 0.33-0.75 0.75-0.75 0.41 0 0.75 0.34 0.75 0.75z"/>
				<path id="screw 00000118373025833164078400000017588231870069022385 " fill="none" d="m2932.32 2052.86c0 0.41-0.34 0.75-0.75 0.75-0.42 0-0.75-0.34-0.75-0.75 0-0.41 0.33-0.75 0.75-0.75 0.41 0 0.75 0.34 0.75 0.75z"/>
			</g>
			<path id="profile 00000062880006461529645500000000486817047250262401 " fill="none" stroke="currentColor" stroke-miterlimit="10" d="m2971.46 2042.61v170.89c0 1.65-1.34 3-3 3h-39.26c-1.65 0-3-1.35-3-3v-170.89"/>
			<path id="channels 00000047019368867395435370000012260380284442946238 " fill="none" stroke="currentColor" stroke-miterlimit="10" d="m2953.45 2104.91l-17.86 17.8c-0.65 0.66-1.02 1.55-1.02 2.47v31.62c0 0.93 0.37 1.82 1.02 2.47l15.22 15.22c0.65 0.66 1.02 1.55 1.02 2.48v0.74c0 0.93-0.37 1.82-1.02 2.48l-3.27 3.27c-0.63 0.63-1.71 0.18-1.71-0.71v-6.07m-1.61 25.65l17.59-17.59c0.65-0.65 1.02-1.54 1.02-2.47v-9.03q0 0 0 0v-64.44m-28 67.64v22"/>
			<g id="inlets-outlets 00000018921976940402613760000006240294812631597234 ">
				<path id="hole 00000116219743397347901000000004776199470170985625 " fill="none" stroke="currentColor" stroke-linecap="round" stroke-linejoin="round" d="m2943.33 2176.44c0 1.66-1.34 3-3 3-1.65 0-3-1.34-3-3 0-1.66 1.35-3 3-3 1.66 0 3 1.34 3 3z"/>
				<path id="hole 00000003804270779671042600000000216504586919026850 " fill="none" stroke="currentColor" stroke-linecap="round" stroke-linejoin="round" d="m2943.33 2198.44c0 1.66-1.34 3-3 3-1.65 0-3-1.34-3-3 0-1.66 1.35-3 3-3 1.66 0 3 1.34 3 3z"/>
				<path id="hole 00000129891001353489568800000003470506805933993892 " fill="none" stroke="currentColor" stroke-linecap="round" stroke-linejoin="round" d="m2960.33 2108.53c0 1.65-1.34 3-3 3-1.65 0-3-1.35-3-3 0-1.66 1.35-3 3-3 1.66 0 3 1.34 3 3z"/>
				<path id="hole 00000021079448037387295420000009021491971418285736 " fill="none" stroke="currentColor" stroke-linecap="round" stroke-linejoin="round" d="m2954.33 2048.11c0-1.66 1.35-3 3-3 1.66 0 3 1.34 3 3 0 1.66-1.34 3-3 3-1.65 0-3-1.34-3-3z"/>
				<path id="hole 00000103981799261120228320000013461541090333406638 " fill="none" stroke="currentColor" stroke-linecap="round" stroke-linejoin="round" d="m2937.07 2048.11c0-1.66 1.34-3 3-3 1.65 0 3 1.34 3 3 0 1.66-1.35 3-3 3-1.66 0-3-1.34-3-3z"/>
				<path id="hole 00000058568331863668532390000017451462957174108289 " fill="none" stroke="currentColor" stroke-linecap="round" stroke-linejoin="round" d="m2937.07 2104.33c0-1.66 1.34-3 3-3 1.65 0 3 1.34 3 3 0 1.66-1.35 3-3 3-1.66 0-3-1.34-3-3z"/>
			</g>
			<path id="channels 00000018959118400092806450000005762127963806296762 " fill="none" stroke="currentColor" stroke-miterlimit="10" d="m2962.83 2048.11v39.56c0 0.93-0.37 1.82-1.02 2.48l-17.86 17.8m-3.88-65.34h17.26m-22.76 61.44v-55.94"/>
			<path id="top 00000137114001234488112500000011959816359980657805 " fill="none" stroke="currentColor" stroke-miterlimit="10" d="m2971.43 2039.52h-45.19v-20.02c0-1.66 1.34-3 3-3h39.19c1.65 0 3 1.34 3 3z"/>
			<path id="marking 00000029028913593969910650000015714078281117637038 " fill="none" stroke="currentColor" stroke-miterlimit="10" d="m2934.57 2021.55h28.26"/>
		</g>
</g>
</svg>