<svg xmlns="http://www.w3.org/2000/svg" viewBox="0 0 267.93 181.44">
<g transform="translate(-3366.99,-1287.44)" stroke-width="9.57">
<g id="Earbuds-icon-v1">
			<g id="earbud">
				<path id="brand" fill="none" stroke="currentColor" stroke-linecap="round" stroke-linejoin="round" d="m3603.88 1389.48l-14.54 4.94"/>
				<path id="rgb 00000000920339805365387790000007919639051163097739 " fill="none" stroke="currentColor" stroke-linecap="round" stroke-linejoin="round" d="m3602.06 1398.34l-7.56 0.89-22.46 34.13h2.69z"/>
				<path id="body 00000013173471825142533360000016496097126739481500 " fill="none" stroke="currentColor" stroke-linecap="round" stroke-linejoin="round" d="m3559.1 1446.5l-7.36-1.73 29.2-68.42 32.48-11.03 1.41 8.82m5.09 9.48l-5.09-9.48-29.07 9.88-26.66 62.48h11.76zm-6.5-18.31l6.54 13.26-0.04 5.05m-38.97-7.27l4.82 7.67m19.63-15.98l1.56 8.77 7.2 14.19m-1.46-2.89l3.34-4.96-2.62-4.47-4.75 1.5"/>
				<path id="chamber" fill="none" stroke="currentColor" stroke-linecap="round" stroke-linejoin="round" d="m3608.56 1366.97c-2.88-6.12-10.36-10.47-20.67-10.47-13.35 0-23.57 7.01-26.36 18.23-2.16 8.66-4.31 23.37 8.47 27.25"/>
				<path id="rubber-tip" fill="none" stroke="currentColor" stroke-linecap="round" stroke-linejoin="round" d="m3565.41 1400.05c0 0 0.75 3.2-3.73 3.2-4.47 0-0.75 0-7.61 0-11.52 0-15.84-8.4-15.82-18.79 0.03-12.75 7.76-18.27 13.49-19.76 5.74-1.5 7-2.09 9.79-2.09 2.79 0 3.88 3.14 3.88 3.14m-3.46-3.11c-3.03 2.85-5.2 10.59-5.2 19.71 0 10.56 2.91 19.26 6.69 20.68"/>
				<path id="&lt;Path&gt;" fill="none" stroke="currentColor" stroke-linecap="round" stroke-linejoin="round" d=""/>
			</g>
			<g id="earbud 00000102537787414724256950000014493251864398721692 ">
				<path id="brand 00000156564885474885048890000017215466844179853954 " fill="none" stroke="currentColor" stroke-linecap="round" stroke-linejoin="round" d="m3447.12 1389.48l14.54 4.94"/>
				<path id="rgb 00000077313690047400821310000010707330626920115852 " fill="none" stroke="currentColor" stroke-linecap="round" stroke-linejoin="round" d="m3448.94 1398.34l7.56 0.89 22.46 34.13h-2.69z"/>
				<path id="body 00000121975090484143153910000006051209625174499987 " fill="none" stroke="currentColor" stroke-linecap="round" stroke-linejoin="round" d="m3436.17 1374.14l1.41-8.82 32.48 11.03 29.2 68.42-7.36 1.73m-11.76 0h11.76l-26.66-62.48-29.07-9.88-5.09 9.48zm-49.05-62.87l-0.04-5.05 6.54-13.26m27.65 18.71l4.82-7.67m-33.21 14.65l7.2-14.19 1.56-8.77m-3.27 12.14l-4.75-1.5-2.62 4.47 3.34 4.96"/>
				<path id="chamber 00000029766196663876301510000009131270028827838645 " fill="none" stroke="currentColor" stroke-linecap="round" stroke-linejoin="round" d="m3442.44 1366.97c2.88-6.12 10.36-10.47 20.67-10.47 13.35 0 23.57 7.01 26.36 18.23 2.16 8.66 4.31 23.37-8.47 27.25"/>
				<path id="rubber-tip 00000036941242620027518190000006858661570426355845 " fill="none" stroke="currentColor" stroke-linecap="round" stroke-linejoin="round" d="m3485.59 1365.75c0 0 1.09-3.14 3.88-3.14 2.79 0 4.05 0.59 9.79 2.09 5.73 1.49 13.46 7.01 13.49 19.76 0.02 10.39-4.3 18.79-15.82 18.79-6.86 0-3.14 0-7.61 0-4.48 0-3.73-3.2-3.73-3.2m1.97 2.98c3.78-1.42 6.69-10.12 6.69-20.68 0-9.12-2.17-16.86-5.2-19.71"/>
				<path id="&lt;Path&gt;" fill="none" stroke="currentColor" stroke-linecap="round" stroke-linejoin="round" d=""/>
			</g>
		</g>
</g>
</svg>