<svg xmlns="http://www.w3.org/2000/svg" viewBox="0 0 243.24 234.76">
<g transform="translate(-3673.01,-1266.16)">
<g id="Earbuds-icon-v2">
			<path id="right-ear" fill="currentColor" stroke="currentColor" stroke-linecap="round" stroke-linejoin="round" d="m3747.53 1372.18c2.64-0.43 5.43-0.53 8.31-0.26 13.78 1.34 24.13 10.86 23.12 21.28-1 10.43-12.99 17.8-26.77 16.46-2.87-0.27-5.6-0.91-8.1-1.84m-1.44-0.66q1.05 0.61 2.23 0.74 0 0 0 0c5.41 0.51 10.56-7.04 11.51-16.88 0.95-9.83-2.66-18.23-8.06-18.76q-0.01 0-0.01 0-1.18-0.1-2.33 0.29m-12.43 37.01c9.48 0.38 17.87-7.88 18.93-18.91 0.83-8.52-2.94-16.26-9.02-20.01q-0.03 0.21-0.08 0.42l-1.89 7.58c1.39 3.31 2.02 7.12 1.64 11.1-0.63 6.51-3.81 12.05-8.26 15.43l-0.39 1.6q-0.21 0.8-0.51 1.52zm-3.07-4.78q-0.21 0.8-0.51 1.52l-1.7 5.09c-1.19 3.57-1.79 7.31-1.79 11.07v21.25c0 2.62-2.13 4.75-4.75 4.75h-0.43q-0.97-0.01-1.81-0.36l3.81 1.91q0.92 0.44 2 0.45h0.43c2.62 0 4.75-2.13 4.75-4.75v-21.25c0-3.76 0.6-7.5 1.79-11.07l1.7-5.09q0.3-0.72 0.51-1.52l8.9-35.71c1.22-4.91-1.37-9.54-5.45-11.48l-3.82-1.91c3.98 1.99 6.47 6.55 5.27 11.39zm-2.7-47.95l-29.65 5.75c-7.09 1.37-10.43 9.57-6.32 15.51l20.74 29.96c4.9 7.07 15.85 5.07 17.93-3.27l8.9-35.71c1.77-7.1-4.42-13.63-11.6-12.24zm-7.33 11.42l-15 2.91m7.1 36.89l2.21 6.61c1.19 3.57 1.79 7.31 1.79 11.07v17.98c0 2.62 2.13 4.75 4.75 4.75h0.43c2.62 0 4.75-2.13 4.75-4.75v-21.25c0-3.76 0.61-7.5 1.8-11.07l1.69-5.09m-16.81-46.64c-0.48-13.33 0.81-27.46 4.9-33.7 1.45-2.2 1.34-5.4-0.23-7.15-1.25-2.16-3.66-2.46-5.4-0.67-6.67 6.89-10.18 20.63-11.95 30.93-0.74 4.33-1.31 8.9-1.7 13.38"/>
			<g id="left-ear">
				<path id="grip 00000056414736568488034180000012004675429854242709 " fill="currentColor" stroke="currentColor" stroke-miterlimit="10" d="m3894.28 1396.44c-0.39-4.48-0.96-9.05-1.71-13.38-1.77-10.3-5.27-24.03-11.95-30.93-1.74-1.79-4.15-1.49-5.4 0.67-1.57 1.75-1.68 4.95-0.23 7.15 4.1 6.25 5.39 20.37 4.9 33.7"/>
				<path id="mic-piece" fill="currentColor" stroke="currentColor" stroke-miterlimit="10" d="m3829.14 1437.77q0.03-0.01 0.07-0.01 0.03-0.01 0.06-0.02 0.03-0.01 0.06-0.01 0.03-0.02 0.06-0.03 0.04 0 0.07-0.01 0.03-0.01 0.06-0.02 0.03-0.01 0.06-0.01 0.03-0.01 0.07-0.02 0.03-0.01 0.06-0.01 0.03-0.01 0.06-0.02 0.03-0.01 0.07-0.02 0.03-0.01 0.06-0.02 0.03 0 0.06-0.01 0.03-0.01 0.06-0.02 0.03-0.01 0.07-0.01 0.03-0.01 0.06-0.02 0.03-0.01 0.06-0.01 0.03-0.02 0.06-0.03 0.04 0 0.07-0.01 0.03-0.01 0.06-0.02 0.03-0.01 0.06-0.01 0.03-0.01 0.07-0.02 0.03-0.01 0.06-0.01 0.03-0.01 0.06-0.02 0.03-0.01 0.07-0.02 0.03-0.01 0.06-0.02 0.03 0 0.06-0.01 0.03-0.01 0.06-0.02 0.04-0.01 0.07-0.01 0.03-0.01 0.06-0.02 0.03-0.01 0.06-0.01 0.03-0.02 0.06-0.03 0.04 0 0.07-0.01 0.03-0.01 0.06-0.02 0.03-0.01 0.06-0.01 0.04-0.01 0.07-0.02 0.03-0.01 0.06-0.01 0.03-0.01 0.06-0.03 0.03 0 0.07-0.01 0.03-0.01 0.06-0.02 0.03 0 0.06-0.01 0.03-0.01 0.06-0.02 0.04-0.01 0.07-0.01 0.03-0.01 0.06-0.02 0.03-0.01 0.06-0.02 0.03-0.01 0.07-0.02 0.03 0 0.06-0.01 0.03-0.01 0.06-0.02 0.03-0.01 0.07-0.01 0.03-0.01 0.06-0.02 0.03-0.01 0.06-0.01 0.03-0.02 0.06-0.03 0.03 0 0.07-0.01 0.03-0.01 0.06-0.02 0.03 0 0.06-0.01 0.03-0.01 0.06-0.02 0.04-0.01 0.07-0.01 0.03-0.01 0.06-0.02 0.03-0.01 0.06-0.02 0.03-0.01 0.07-0.02 0.03 0 0.06-0.01 0.03-0.01 0.06-0.02 0.03-0.01 0.07-0.01 0.03-0.01 0.06-0.02 0.03-0.01 0.06-0.01 0.03-0.02 0.06-0.03 0.03 0 0.07-0.01 0.03-0.01 0.06-0.02 0.03 0 0.06-0.01 0.03-0.01 0.06-0.02 0.04-0.01 0.07-0.01 0.03-0.01 0.06-0.02 0.03-0.01 0.06-0.02 0.04-0.01 0.07-0.02 0.03 0 0.06-0.01 0.03-0.01 0.06-0.02 0.03-0.01 0.07-0.01 0.03-0.01 0.06-0.02 0.03-0.01 0.06-0.01 0.03-0.02 0.06-0.03 0.04 0 0.07-0.01 0.03-0.01 0.06-0.02 0.03 0 0.06-0.01 0.03-0.01 0.06-0.02 0.04-0.01 0.07-0.01 0.03-0.01 0.06-0.02 0.03-0.01 0.06-0.02 0.04-0.01 0.07-0.02 0.03 0 0.06-0.01 0.03-0.01 0.06-0.02 0.03-0.01 0.07-0.01 0.03-0.01 0.06-0.02 0.03-0.01 0.06-0.01 0.03-0.02 0.06-0.03 0.04 0 0.07-0.01 0.03-0.01 0.06-0.02 0.03 0 0.06-0.01 0.03-0.01 0.07-0.02 0.03-0.01 0.06-0.01 0.03-0.01 0.06-0.02 0.03-0.01 0.07-0.02 0.03-0.01 0.06-0.02 0.03 0 0.06-0.01 0.03-0.01 0.06-0.02 0.03-0.01 0.07-0.01 0.03-0.01 0.06-0.02 0.03-0.01 0.06-0.01 0.03-0.02 0.06-0.03 0.04 0 0.07-0.01 0.03-0.01 0.06-0.02 0.03-0.01 0.06-0.01 0.03-0.01 0.07-0.02 0.03-0.01 0.06-0.01 0.03-0.01 0.06-0.02 0.03-0.01 0.07-0.02 0.03-0.01 0.06-0.02 0.03 0 0.06-0.01 0.03-0.01 0.06-0.02 0.04-0.01 0.07-0.01 0.03-0.01 0.06-0.02 0.03-0.01 0.06-0.01 0.03-0.02 0.06-0.03 0.04 0 0.07-0.01 0.03-0.01 0.06-0.02 0.03-0.01 0.06-0.01 0.04-0.01 0.07-0.02 0.03-0.01 0.06-0.01 0.03-0.01 0.06-0.02 0.03-0.01 0.07-0.02 0.03-0.01 0.06-0.02 0.03 0 0.06-0.01 0.03-0.01 0.06-0.02 0.04-0.01 0.07-0.01 0.03-0.01 0.06-0.02 0.03-0.01 0.06-0.01 0.03-0.02 0.07-0.03 0.03 0 0.06-0.01 0.03-0.01 0.06-0.02 0.03-0.01 0.07-0.01 0.03-0.01 0.06-0.02 0.03-0.01 0.06-0.01 0.03-0.01 0.06-0.03 0.03 0 0.07-0.01 0.03-0.01 0.06-0.02 0.03 0 0.06-0.01 0.03-0.01 0.06-0.02 0.04-0.01 0.07-0.01 0.03-0.01 0.06-0.02 0.03-0.01 0.06-0.01 0.03-0.02 0.07-0.03 0.03 0 0.06-0.01 0.03-0.01 0.06-0.02 0.03-0.01 0.07-0.01 0.03-0.01 0.06-0.02 0.03-0.01 0.06-0.01 0.03-0.01 0.06-0.03 0.03 0 0.07-0.01 0.03-0.01 0.06-0.02 0.03 0 0.06-0.01 0.03-0.01 0.06-0.02 0.04-0.01 0.07-0.01 0.03-0.01 0.06-0.02 0.03-0.01 0.06-0.02 0.03-0.01 0.07-0.02 0.03 0 0.06-0.01 0.03-0.01 0.06-0.02 0.03-0.01 0.07-0.01 0.03-0.01 0.06-0.02 0.03-0.01 0.06-0.01 0.03-0.02 0.06-0.03 0.04 0 0.07-0.01 0.03-0.01 0.06-0.02 0.03 0 0.06-0.01 0.03-0.01 0.06-0.02 0.04-0.01 0.07-0.01 0.03-0.01 0.06-0.02 0.03-0.01 0.06-0.02 0.04-0.01 0.07-0.02 0.03 0 0.06-0.01 0.03-0.01 0.06-0.02 0.03-0.01 0.07-0.01 0.03-0.01 0.06-0.02 0.03-0.01 0.06-0.01 0.03-0.02 0.06-0.03 0.04 0 0.07-0.01 0.03-0.01 0.06-0.02 0.03 0 0.06-0.01 0.03-0.01 0.07-0.02 0.03-0.01 0.06-0.01 0.03-0.01 0.06-0.02 0.03-0.01 0.07-0.02 0.03-0.01 0.06-0.02 0.03 0 0.06-0.01 0.03-0.01 0.06-0.02 0.03-0.01 0.07-0.01 0.03-0.01 0.06-0.02 0.03-0.01 0.06-0.01 0.03-0.02 0.06-0.03 0.04 0 0.07-0.01 0.03-0.01 0.06-0.02 0.03 0 0.06-0.01 0.03-0.01 0.07-0.02 0.03-0.01 0.06-0.01 0.03-0.01 0.06-0.02 0.03-0.01 0.07-0.02 0.03-0.01 0.06-0.02 0.03 0 0.06-0.01 0.03-0.01 0.06-0.02 0.03-0.01 0.07-0.01 0.03-0.01 0.06-0.02 0.03-0.01 0.06-0.01 0.03-0.02 0.06-0.03 0.04 0 0.07-0.01 0.03-0.01 0.06-0.02 0.03 0 0.06-0.01 0.04-0.01 0.07-0.02 0.03-0.01 0.06-0.01 0.03-0.01 0.06-0.02 0.03-0.01 0.07-0.02 0.03-0.01 0.06-0.02 0.03 0 0.06-0.01 0.03-0.01 0.06-0.02 0.04-0.01 0.07-0.01 0.03-0.01 0.06-0.02 0.03-0.01 0.06-0.01 0.03-0.02 0.07-0.03 0.03 0 0.06-0.01 0.03-0.01 0.06-0.02 0.03-0.01 0.06-0.01 0.04-0.01 0.07-0.02 0.03-0.01 0.06-0.01 0.03-0.01 0.06-0.02 0.03-0.01 0.07-0.02 0.03-0.01 0.06-0.02 0.03 0 0.06-0.01 0.03-0.01 0.06-0.02 0.04-0.01 0.07-0.01 0.03-0.01 0.06-0.02 0.03-0.01 0.06-0.01 0.03-0.02 0.07-0.03 0.03 0 0.06-0.01 0.03-0.01 0.06-0.02 0.03-0.01 0.07-0.01 0.03-0.01 0.06-0.02 0.03-0.01 0.06-0.01 0.03-0.01 0.06-0.03 0.03 0 0.07-0.01 0.03-0.01 0.06-0.02 0.03 0 0.06-0.01 0.03-0.01 0.06-0.02 0.04-0.01 0.07-0.01 0.03-0.01 0.06-0.02 0.03-0.01 0.06-0.01 0.03-0.02 0.07-0.03 0.03 0 0.06-0.01 0.03-0.01 0.06-0.02 0.03-0.01 0.07-0.01 0.03-0.01 0.06-0.02 0.03-0.01 0.06-0.01 0.03-0.01 0.06-0.03 0.04 0 0.07-0.01 0.03-0.01 0.06-0.02 0.03 0 0.06-0.01 0.03-0.01 0.06-0.02 0.04-0.01 0.07-0.01 0.03-0.01 0.06-0.02 0.03-0.01 0.06-0.01 0.04-0.02 0.07-0.03 0.03 0 0.06-0.01 0.03-0.01 0.06-0.02 0.03-0.01 0.07-0.01 0.03-0.01 0.06-0.02 0.03-0.01 0.06-0.01 0.03-0.02 0.06-0.03 0.04 0 0.07-0.01 0.03-0.01 0.06-0.02 0.03 0 0.06-0.01 0.03-0.01 0.07-0.02 0.03-0.01 0.06-0.01 0.03-0.01 0.06-0.02 0.03-0.01 0.07-0.02 0.03-0.01 0.06-0.02 0.03 0 0.06-0.01 0.03-0.01 0.06-0.02 0.03-0.01 0.07-0.01 0.03-0.01 0.06-0.02 0.03-0.01 0.06-0.01 0.03-0.02 0.06-0.03 0.04 0 0.07-0.01 0.03-0.01 0.06-0.02 0.03 0 0.06-0.01 0.03-0.01 0.07-0.02 0.03-0.01 0.06-0.01 0.03-0.01 0.06-0.02 0.03-0.01 0.07-0.02 0.03-0.01 0.06-0.02 0.03 0 0.06-0.01 0.03-0.01 0.06-0.02 0.03-0.01 0.07-0.01 0.03-0.01 0.06-0.02 0.03-0.01 0.06-0.01 0.03-0.02 0.06-0.03 0.04 0 0.07-0.01 0.03-0.01 0.06-0.02 0.03 0 0.06-0.01 0.04-0.01 0.07-0.02 0.03-0.01 0.06-0.01 0.03-0.01 0.06-0.02 0.03-0.01 0.07-0.02 0.03-0.01 0.06-0.02 0.03 0 0.06-0.01 0.03-0.01 0.06-0.02 0.04-0.01 0.07-0.01 0.03-0.01 0.06-0.02 0.03-0.01 0.06-0.01 0.03-0.02 0.06-0.03 0.04 0 0.07-0.01 0.03-0.01 0.06-0.02 0.03 0 0.06-0.01 0.04-0.01 0.07-0.02 0.03-0.01 0.06-0.01 0.03-0.01 0.06-0.02 0.03-0.01 0.07-0.02 0.03-0.01 0.06-0.02 0.03 0 0.06-0.01 0.03-0.01 0.06-0.02 0.04-0.01 0.07-0.01 0.03-0.01 0.06-0.02 0.03-0.01 0.06-0.01 0.03-0.02 0.07-0.03 0.03 0 0.06-0.01 0.03-0.01 0.06-0.02 0.03-0.01 0.07-0.01 0.03-0.01 0.06-0.02 0.03-0.01 0.06-0.01 0.03-0.01 0.06-0.02 0.03-0.01 0.07-0.02 0.03-0.01 0.06-0.02 0.03 0 0.06-0.01 0.03-0.01 0.06-0.02 0.04-0.01 0.07-0.01 0.03-0.01 0.06-0.02 0.03-0.01 0.06-0.01 0.03-0.02 0.07-0.03 0.03 0 0.06-0.01 0.03-0.01 0.06-0.02 0.03-0.01 0.07-0.01 0.03-0.01 0.06-0.02 0.03-0.01 0.06-0.01 0.03-0.01 0.06-0.02 0.04-0.01 0.07-0.02 0.03-0.01 0.06-0.02 0.03 0 0.06-0.01 0.03-0.01 0.06-0.02 0.04-0.01 0.07-0.01 0.03-0.01 0.06-0.02 0.03-0.01 0.06-0.01 0.04-0.02 0.07-0.03 0.03 0 0.06-0.01 0.03-0.01 0.06-0.02 0.03-0.01 0.07-0.01 0.03-0.01 0.06-0.02 0.03-0.01 0.06-0.01 0.03-0.01 0.06-0.03 0.04 0 0.07-0.01 0.03-0.01 0.06-0.02 0.03 0 0.06-0.01 0.03-0.01 0.06-0.02 0.04-0.01 0.07-0.01 0.03-0.01 0.06-0.02 0.03-0.01 0.07-0.01 0.03-0.02 0.06-0.03 0.03 0 0.06-0.01 0.03-0.01 0.06-0.02 0.03-0.01 0.07-0.01 0.03-0.01 0.06-0.02 0.03-0.01 0.06-0.01 0.03-0.01 0.06-0.03 0.04 0 0.07-0.01 0.03-0.01 0.06-0.02 0.03 0 0.06-0.01 0.03-0.01 0.07-0.02 0.03-0.01 0.06-0.01 0.03-0.01 0.06-0.02 0.03-0.01 0.07-0.02 0.03-0.01 0.06-0.02 0.03 0 0.06-0.01 0.03-0.01 0.06-0.02 0.03-0.01 0.07-0.01 0.03-0.01 0.06-0.02 0.03-0.01 0.06-0.01 0.03-0.02 0.06-0.03 0.04 0 0.07-0.01 0.03-0.01 0.06-0.02 0.03 0 0.06-0.01 0.03-0.01 0.07-0.02 0.03-0.01 0.06-0.01 0.03-0.01 0.06-0.02 0.03-0.01 0.07-0.02 0.03-0.01 0.06-0.02 0.03 0 0.06-0.01 0.03-0.01 0.06-0.02 0.04-0.01 0.07-0.01 0.03-0.01 0.06-0.02 0.03-0.01 0.06-0.01 0.03-0.02 0.06-0.03 0.04 0 0.07-0.01 0.03-0.01 0.06-0.02 0.03 0 0.06-0.01 0.04-0.01 0.07-0.02 0.03-0.01 0.06-0.01 0.03-0.01 0.06-0.02 0.03-0.01 0.07-0.02 0.03-0.01 0.06-0.02 0.03 0 0.06-0.01 0.03-0.01 0.06-0.02 0.04-0.01 0.07-0.01 0.03-0.01 0.06-0.02 0.03-0.01 0.06-0.01 0.03-0.02 0.07-0.03 0.03 0 0.06-0.01 0.03-0.01 0.06-0.02 0.03 0 0.07-0.01 0.03-0.01 0.06-0.02 0.03-0.01 0.06-0.01 0.03-0.01 0.06-0.02 0.03-0.01 0.07-0.02 0.03-0.01 0.06-0.02 0.03 0 0.06-0.01 0.03-0.01 0.06-0.02 0.04-0.01 0.07-0.01 0.03-0.01 0.06-0.02 0.03-0.01 0.06-0.01 0.03-0.02 0.07-0.03 0.03 0 0.06-0.01 0.03-0.01 0.06-0.02 0.03 0 0.07-0.01 0.03-0.01 0.06-0.02 0.03-0.01 0.06-0.01 0.03-0.01 0.06-0.02 0.03-0.01 0.07-0.02 0.03-0.01 0.06-0.02 0.03 0 0.06-0.01 0.03-0.01 0.06-0.02 0.04-0.01 0.07-0.01 0.03-0.01 0.06-0.02 0.03-0.01 0.06-0.01 0.04-0.02 0.07-0.03 0.03 0 0.06-0.01 0.03-0.01 0.06-0.02 0.03-0.01 0.07-0.01 0.03-0.01 0.06-0.02 0.03-0.01 0.06-0.01 0.03-0.01 0.06-0.02 0.04-0.01 0.07-0.02 0.03-0.01 0.06-0.02 0.03 0 0.06-0.01 0.03-0.01 0.06-0.02 0.04-0.01 0.07-0.01 0.03-0.01 0.06-0.02 0.03-0.01 0.07-0.01 0.03-0.02 0.06-0.03 0.03 0 0.06-0.01 0.03-0.01 0.06-0.02 0.03-0.01 0.07-0.01 0.03-0.01 0.06-0.02 0.03-0.01 0.06-0.01 0.03-0.01 0.06-0.02 0.04-0.01 0.07-0.02 0.03-0.01 0.06-0.02 0.03 0 0.06-0.01 0.03-0.01 0.07-0.02 0.03-0.01 0.06-0.01 0.03-0.01 0.06-0.02 0.03-0.01 0.07-0.01 0.03-0.02 0.06-0.03 0.03 0 0.06-0.01 0.03-0.01 0.06-0.02 0.03-0.01 0.07-0.01 0.03-0.01 0.06-0.02 0.03-0.01 0.06-0.01 0.03-0.01 0.06-0.03 0.04 0 0.07-0.01 0.03-0.01 0.06-0.02 0.03 0 0.06-0.01 0.03-0.01 0.07-0.02 0.03-0.01 0.06-0.01 0.03-0.01 0.06-0.02 0.03-0.01 0.07-0.01 0.03-0.02 0.06-0.03 0.03 0 0.06-0.01 0.03-0.01 0.06-0.02 0.04-0.01 0.07-0.01 0.03-0.01 0.06-0.02 0.03-0.01 0.06-0.01 0.03-0.02 0.06-0.03 0.04 0 0.07-0.01 0.03-0.01 0.06-0.02 0.03 0 0.06-0.01 0.04-0.01 0.07-0.02c1.73-0.45 3.74 1.51 4.49 4.39 0.75 2.88-0.04 5.58-1.77 6.04q-0.03 0-0.06 0.01-0.03 0.01-0.06 0.02-0.04 0-0.07 0.01-0.03 0.01-0.06 0.02-0.03 0.01-0.06 0.01-0.03 0.01-0.07 0.02-0.03 0.01-0.06 0.02-0.03 0.01-0.06 0.02-0.03 0-0.07 0.01-0.03 0.01-0.06 0.02-0.03 0.01-0.06 0.01-0.03 0.01-0.06 0.02-0.03 0.01-0.07 0.01-0.03 0.02-0.06 0.03-0.03 0-0.06 0.01-0.03 0.01-0.06 0.02-0.04 0-0.07 0.01-0.03 0.01-0.06 0.02-0.03 0.01-0.06 0.01-0.03 0.01-0.07 0.02-0.03 0.01-0.06 0.02-0.03 0.01-0.06 0.02-0.03 0-0.07 0.01-0.03 0.01-0.06 0.02-0.03 0.01-0.06 0.01-0.03 0.01-0.06 0.02-0.03 0.01-0.07 0.01-0.03 0.02-0.06 0.03-0.03 0-0.06 0.01-0.03 0.01-0.06 0.02-0.04 0-0.07 0.01-0.03 0.01-0.06 0.02-0.03 0.01-0.06 0.01-0.04 0.01-0.07 0.02-0.03 0.01-0.06 0.02-0.03 0.01-0.06 0.02-0.03 0-0.07 0.01-0.03 0.01-0.06 0.02-0.03 0.01-0.06 0.01-0.03 0.01-0.06 0.02-0.04 0.01-0.07 0.01-0.03 0.02-0.06 0.03-0.03 0-0.06 0.01-0.03 0.01-0.06 0.02-0.04 0.01-0.07 0.01-0.03 0.01-0.06 0.02-0.03 0.01-0.06 0.01-0.04 0.01-0.07 0.02-0.03 0.01-0.06 0.02-0.03 0.01-0.06 0.02-0.03 0-0.07 0.01-0.03 0.01-0.06 0.02-0.03 0.01-0.06 0.01-0.03 0.01-0.06 0.02-0.04 0.01-0.07 0.01-0.03 0.02-0.06 0.03-0.03 0-0.06 0.01-0.03 0.01-0.07 0.02-0.03 0.01-0.06 0.01-0.03 0.01-0.06 0.02-0.03 0.01-0.07 0.01-0.03 0.01-0.06 0.02-0.03 0.01-0.06 0.02-0.03 0.01-0.06 0.02-0.03 0-0.07 0.01-0.03 0.01-0.06 0.02-0.03 0.01-0.06 0.01-0.03 0.01-0.06 0.02-0.04 0.01-0.07 0.01-0.03 0.02-0.06 0.03-0.03 0-0.06 0.01-0.03 0.01-0.07 0.02-0.03 0.01-0.06 0.01-0.03 0.01-0.06 0.02-0.03 0.01-0.07 0.01-0.03 0.01-0.06 0.03-0.03 0-0.06 0.01-0.03 0.01-0.06 0.02-0.04 0-0.07 0.01-0.03 0.01-0.06 0.02-0.03 0.01-0.06 0.01-0.03 0.01-0.06 0.02-0.04 0.01-0.07 0.01-0.03 0.02-0.06 0.03-0.03 0-0.06 0.01-0.04 0.01-0.07 0.02-0.03 0.01-0.06 0.01-0.03 0.01-0.06 0.02-0.03 0.01-0.07 0.01-0.03 0.01-0.06 0.03-0.03 0-0.06 0.01-0.03 0.01-0.06 0.02-0.04 0-0.07 0.01-0.03 0.01-0.06 0.02-0.03 0.01-0.06 0.01-0.03 0.01-0.07 0.02-0.03 0.01-0.06 0.02-0.03 0.01-0.06 0.02-0.03 0-0.07 0.01-0.03 0.01-0.06 0.02-0.03 0.01-0.06 0.01-0.03 0.01-0.06 0.02-0.03 0.01-0.07 0.01-0.03 0.02-0.06 0.03-0.03 0-0.06 0.01-0.03 0.01-0.06 0.02-0.04 0-0.07 0.01-0.03 0.01-0.06 0.02-0.03 0.01-0.06 0.01-0.03 0.01-0.07 0.02-0.03 0.01-0.06 0.02-0.03 0.01-0.06 0.02-0.03 0-0.07 0.01-0.03 0.01-0.06 0.02-0.03 0.01-0.06 0.01-0.03 0.01-0.06 0.02-0.03 0.01-0.07 0.01-0.03 0.02-0.06 0.03-0.03 0-0.06 0.01-0.03 0.01-0.06 0.02-0.04 0-0.07 0.01-0.03 0.01-0.06 0.02-0.03 0.01-0.06 0.01-0.03 0.01-0.07 0.02-0.03 0.01-0.06 0.02-0.03 0.01-0.06 0.02-0.03 0-0.07 0.01-0.03 0.01-0.06 0.02-0.03 0.01-0.06 0.01-0.03 0.01-0.06 0.02-0.04 0.01-0.07 0.01-0.03 0.02-0.06 0.03-0.03 0-0.06 0.01-0.03 0.01-0.06 0.02-0.04 0-0.07 0.01-0.03 0.01-0.06 0.02-0.03 0.01-0.06 0.01-0.04 0.01-0.07 0.02-0.03 0.01-0.06 0.02-0.03 0.01-0.06 0.02-0.03 0-0.07 0.01-0.03 0.01-0.06 0.02-0.03 0.01-0.06 0.01-0.03 0.01-0.06 0.02-0.04 0.01-0.07 0.01-0.03 0.02-0.06 0.03-0.03 0-0.06 0.01-0.03 0.01-0.07 0.02-0.03 0-0.06 0.01-0.03 0.01-0.06 0.02-0.03 0.01-0.07 0.01-0.03 0.01-0.06 0.02-0.03 0.01-0.06 0.02-0.03 0.01-0.06 0.02-0.03 0-0.07 0.01-0.03 0.01-0.06 0.02-0.03 0.01-0.06 0.01-0.03 0.01-0.06 0.02-0.04 0.01-0.07 0.01-0.03 0.02-0.06 0.03-0.03 0-0.06 0.01-0.03 0.01-0.07 0.02-0.03 0.01-0.06 0.01-0.03 0.01-0.06 0.02-0.03 0.01-0.07 0.01-0.03 0.01-0.06 0.02-0.03 0.01-0.06 0.02-0.03 0.01-0.06 0.02-0.04 0-0.07 0.01-0.03 0.01-0.06 0.02-0.03 0.01-0.06 0.01-0.03 0.01-0.06 0.02-0.04 0.01-0.07 0.01-0.03 0.02-0.06 0.03-0.03 0-0.06 0.01-0.04 0.01-0.07 0.02-0.03 0.01-0.06 0.01-0.03 0.01-0.06 0.02-0.03 0.01-0.07 0.01-0.03 0.01-0.06 0.02-0.03 0.01-0.06 0.02-0.03 0.01-0.06 0.02-0.04 0-0.07 0.01-0.03 0.01-0.06 0.02-0.03 0.01-0.06 0.01-0.03 0.01-0.07 0.02-0.03 0.01-0.06 0.01-0.03 0.02-0.06 0.03-0.03 0-0.06 0.01-0.04 0.01-0.07 0.02-0.03 0.01-0.06 0.01-0.03 0.01-0.06 0.02-0.03 0.01-0.07 0.01-0.03 0.01-0.06 0.03-0.03 0-0.06 0.01-0.03 0.01-0.06 0.02-0.04 0-0.07 0.01-0.03 0.01-0.06 0.02-0.03 0.01-0.06 0.01-0.03 0.01-0.07 0.02-0.03 0.01-0.06 0.02-0.03 0.01-0.06 0.02-0.03 0-0.07 0.01-0.03 0.01-0.06 0.02-0.03 0.01-0.06 0.01-0.03 0.01-0.06 0.02-0.03 0.01-0.07 0.01-0.03 0.02-0.06 0.03-0.03 0-0.06 0.01-0.03 0.01-0.06 0.02-0.04 0-0.07 0.01-0.03 0.01-0.06 0.02-0.03 0.01-0.06 0.01-0.03 0.01-0.07 0.02-0.03 0.01-0.06 0.02-0.03 0.01-0.06 0.02-0.03 0-0.07 0.01-0.03 0.01-0.06 0.02-0.03 0.01-0.06 0.01-0.03 0.01-0.06 0.02-0.04 0.01-0.07 0.01-0.03 0.02-0.06 0.03-0.03 0-0.06 0.01-0.03 0.01-0.06 0.02-0.04 0-0.07 0.01-0.03 0.01-0.06 0.02-0.03 0.01-0.06 0.01-0.04 0.01-0.07 0.02-0.03 0.01-0.06 0.02-0.03 0.01-0.06 0.02-0.03 0-0.07 0.01-0.03 0.01-0.06 0.02-0.03 0.01-0.06 0.01-0.03 0.01-0.06 0.02-0.04 0.01-0.07 0.01-0.03 0.02-0.06 0.03-0.03 0-0.06 0.01-0.03 0.01-0.07 0.02-0.03 0-0.06 0.01-0.03 0.01-0.06 0.02-0.03 0.01-0.07 0.01-0.03 0.01-0.06 0.02-0.03 0.01-0.06 0.02-0.03 0.01-0.06 0.02-0.03 0-0.07 0.01-0.03 0.01-0.06 0.02-0.03 0.01-0.06 0.01-0.03 0.01-0.06 0.02-0.04 0.01-0.07 0.01-0.03 0.02-0.06 0.03-0.03 0-0.06 0.01-0.03 0.01-0.07 0.02-0.03 0-0.06 0.01-0.03 0.01-0.06 0.02-0.03 0.01-0.07 0.01-0.03 0.01-0.06 0.02-0.03 0.01-0.06 0.02-0.03 0.01-0.06 0.02-0.03 0-0.07 0.01-0.03 0.01-0.06 0.02-0.03 0.01-0.06 0.01-0.03 0.01-0.06 0.02-0.04 0.01-0.07 0.01-0.03 0.02-0.06 0.03-0.03 0-0.06 0.01-0.04 0.01-0.07 0.02-0.03 0.01-0.06 0.01-0.03 0.01-0.06 0.02-0.03 0.01-0.07 0.01-0.03 0.01-0.06 0.02-0.03 0.01-0.06 0.02-0.03 0.01-0.06 0.02-0.04 0-0.07 0.01-0.03 0.01-0.06 0.02-0.03 0.01-0.06 0.01-0.03 0.01-0.06 0.02-0.04 0.01-0.07 0.01-0.03 0.02-0.06 0.03-0.03 0-0.06 0.01-0.04 0.01-0.07 0.02-0.03 0.01-0.06 0.01-0.03 0.01-0.06 0.02-0.03 0.01-0.07 0.01-0.03 0.01-0.06 0.02-0.03 0.01-0.06 0.02-0.03 0.01-0.06 0.02-0.04 0-0.07 0.01-0.03 0.01-0.06 0.02-0.03 0.01-0.06 0.01-0.03 0.01-0.07 0.02-0.03 0.01-0.06 0.01-0.03 0.02-0.06 0.03-0.03 0-0.07 0.01-0.03 0.01-0.06 0.02-0.03 0.01-0.06 0.01-0.03 0.01-0.06 0.02-0.03 0.01-0.07 0.01-0.03 0.01-0.06 0.03-0.03 0-0.06 0.01-0.03 0.01-0.06 0.02-0.04 0-0.07 0.01-0.03 0.01-0.06 0.02-0.03 0.01-0.06 0.01-0.03 0.01-0.07 0.02-0.03 0.01-0.06 0.01-0.03 0.02-0.06 0.03-0.03 0-0.07 0.01-0.03 0.01-0.06 0.02-0.03 0.01-0.06 0.01-0.03 0.01-0.06 0.02-0.04 0.01-0.07 0.01-0.03 0.01-0.06 0.03-0.03 0-0.06 0.01-0.03 0.01-0.06 0.02-0.04 0-0.07 0.01-0.03 0.01-0.06 0.02-0.03 0.01-0.06 0.01-0.04 0.01-0.07 0.02-0.03 0.01-0.06 0.02-0.03 0.01-0.06 0.02-0.03 0-0.07 0.01-0.03 0.01-0.06 0.02-0.03 0.01-0.06 0.01-0.03 0.01-0.06 0.02-0.04 0.01-0.07 0.01-0.03 0.02-0.06 0.03-0.03 0-0.06 0.01-0.03 0.01-0.07 0.02-0.03 0-0.06 0.01-0.03 0.01-0.06 0.02-0.03 0.01-0.07 0.01-0.03 0.01-0.06 0.02-0.03 0.01-0.06 0.02-0.03 0.01-0.06 0.02-0.03 0-0.07 0.01-0.03 0.01-0.06 0.02-0.03 0.01-0.06 0.01-0.03 0.01-0.06 0.02-0.04 0.01-0.07 0.01-0.03 0.02-0.06 0.03-0.03 0-0.06 0.01-0.03 0.01-0.07 0.02-0.03 0-0.06 0.01-0.03 0.01-0.06 0.02-0.03 0.01-0.07 0.01-0.03 0.01-0.06 0.02-0.03 0.01-0.06 0.02-0.03 0.01-0.06 0.02-0.03 0-0.07 0.01-0.03 0.01-0.06 0.02-0.03 0.01-0.06 0.01-0.03 0.01-0.06 0.02-0.04 0.01-0.07 0.01-0.03 0.02-0.06 0.03-0.03 0-0.06 0.01-0.04 0.01-0.07 0.02-0.03 0-0.06 0.01-0.03 0.01-0.06 0.02-0.03 0.01-0.07 0.01-0.03 0.01-0.06 0.02-0.03 0.01-0.06 0.02-0.03 0.01-0.06 0.02-0.04 0-0.07 0.01-0.03 0.01-0.06 0.02-0.03 0.01-0.06 0.01-0.03 0.01-0.06 0.02-0.04 0.01-0.07 0.01-0.03 0.02-0.06 0.03-0.03 0-0.06 0.01-0.04 0.01-0.07 0.02-0.03 0-0.06 0.01-0.03 0.01-0.06 0.02-0.03 0.01-0.07 0.01-0.03 0.01-0.06 0.02-0.03 0.01-0.06 0.02-0.03 0.01-0.06 0.02-0.04 0-0.07 0.01-0.03 0.01-0.06 0.02-0.03 0.01-0.06 0.01-0.03 0.01-0.07 0.02-0.03 0.01-0.06 0.01-0.03 0.02-0.06 0.03-0.03 0-0.07 0.01-0.03 0.01-0.06 0.02-0.03 0.01-0.06 0.01-0.03 0.01-0.06 0.02-0.03 0.01-0.07 0.01-0.03 0.01-0.06 0.02-0.03 0.01-0.06 0.02-0.03 0.01-0.06 0.02-0.04 0-0.07 0.01-0.03 0.01-0.06 0.02-0.03 0.01-0.06 0.01-0.03 0.01-0.07 0.02-0.03 0.01-0.06 0.01-0.03 0.02-0.06 0.03-0.03 0-0.07 0.01-0.03 0.01-0.06 0.02-0.03 0.01-0.06 0.01-0.03 0.01-0.06 0.02-0.04 0.01-0.07 0.01-0.03 0.01-0.06 0.03-0.03 0-0.06 0.01-0.03 0.01-0.06 0.02-0.04 0-0.07 0.01-0.03 0.01-0.06 0.02-0.03 0.01-0.06 0.01-0.04 0.01-0.07 0.02-0.03 0.01-0.06 0.01-0.03 0.02-0.06 0.03-0.03 0-0.07 0.01-0.03 0.01-0.06 0.02-0.03 0.01-0.06 0.01-0.03 0.01-0.06 0.02-0.04 0.01-0.07 0.01-0.03 0.01-0.06 0.03-0.03 0-0.06 0.01-0.03 0.01-0.06 0.02-0.04 0-0.07 0.01-0.03 0.01-0.06 0.02-0.03 0.01-0.07 0.01-0.03 0.01-0.06 0.02-0.03 0.01-0.06 0.01-0.03 0.02-0.06 0.03-0.03 0-0.07 0.01-0.03 0.01-0.06 0.02-0.03 0.01-0.06 0.01-0.03 0.01-0.06 0.02-0.04 0.01-0.07 0.01-0.03 0.01-0.06 0.03-0.03 0-0.06 0.01-0.03 0.01-0.07 0.02-0.03 0-0.06 0.01-0.03 0.01-0.06 0.02-0.03 0.01-0.07 0.01-0.03 0.01-0.06 0.02-0.03 0.01-0.06 0.02-0.03 0.01-0.06 0.02-0.03 0-0.07 0.01-0.03 0.01-0.06 0.02-0.03 0.01-0.06 0.01-0.03 0.01-0.06 0.02-0.04 0.01-0.07 0.01-0.03 0.02-0.06 0.03-0.03 0-0.06 0.01-0.03 0.01-0.07 0.02-0.03 0-0.06 0.01-0.03 0.01-0.06 0.02-0.03 0.01-0.07 0.01-0.03 0.01-0.06 0.02-0.03 0.01-0.06 0.02-0.03 0.01-0.06 0.02-0.04 0-0.07 0.01-0.03 0.01-0.06 0.02-0.03 0.01-0.06 0.01-0.03 0.01-0.06 0.02-0.04 0.01-0.07 0.01-0.03 0.02-0.06 0.03-0.03 0-0.06 0.01-0.04 0.01-0.07 0.02-0.03 0-0.06 0.01-0.03 0.01-0.06 0.02-0.03 0.01-0.07 0.01-0.03 0.01-0.06 0.02-0.03 0.01-0.06 0.02-0.03 0.01-0.06 0.02-0.04 0-0.07 0.01-0.03 0.01-0.06 0.02-0.03 0.01-0.06 0.01-0.03 0.01-0.07 0.02-0.03 0.01-0.06 0.01-0.03 0.02-0.06 0.03-0.03 0-0.07 0.01-0.03 0.01-0.06 0.02-0.03 0-0.06 0.01-0.03 0.01-0.06 0.02-0.03 0.01-0.07 0.01-0.03 0.01-0.06 0.02-0.03 0.01-0.06 0.02-0.03 0.01-0.06 0.02-0.04 0-0.07 0.01-0.03 0.01-0.06 0.02-0.03 0.01-0.06 0.01-0.03 0.01-0.07 0.02-0.03 0.01-0.06 0.01-0.03 0.02-0.06 0.03-0.03 0-0.07 0.01-0.03 0.01-0.06 0.02-0.03 0.01-0.06 0.01-0.03 0.01-0.06 0.02-0.03 0.01-0.07 0.01-0.03 0.01-0.06 0.02-0.03 0.01-0.06 0.02-0.03 0.01-0.06 0.02-0.04 0-0.07 0.01-0.03 0.01-0.06 0.02-0.03 0.01-0.06 0.01-0.03 0.01-0.07 0.02-0.03 0.01-0.06 0.01-0.03 0.02-0.06 0.03m-113.73 17.03l-28.08 7.34c-1.39 0.36-2.31 1.45-2.05 2.44l2.56 9.79c0.26 0.98 1.59 1.48 2.98 1.12l28.08-7.34c2.22-0.58 3.23-4.04 2.27-7.73-0.96-3.68-3.54-6.2-5.76-5.62zm111.9-24.03l-106.75 27.91q0.36 0.82 0.61 1.74 0.24 0.93 0.32 1.82l106.75-27.91c0.59-0.15 0.86-1.07 0.6-2.06-0.25-0.98-0.94-1.65-1.53-1.5zm-0.9-3.43c-1.35 0.35-2.13 2.09-2.04 4.2l2.94-0.77c0.59-0.15 1.28 0.52 1.53 1.5 0.26 0.99-0.01 1.91-0.6 2.06l-2.94 0.77c0.96 1.89 2.48 3.02 3.84 2.67 1.73-0.46 2.52-3.16 1.77-6.04-0.76-2.88-2.77-4.84-4.5-4.39z"/>
				<path id="side 00000086649785131954317200000009280142679672046237 " fill="currentColor" stroke="currentColor" stroke-linecap="round" stroke-linejoin="round" d="m3863 1440.05q0.03 0 0.06-0.01 0.03-0.01 0.06-0.02 0.03-0.01 0.07-0.01 0.03-0.01 0.06-0.02 0.03-0.01 0.06-0.01c1.73-0.46 2.52-3.16 1.77-6.04-0.75-2.88-2.76-4.84-4.49-4.39q-0.03 0.01-0.07 0.02-0.03 0.01-0.06 0.01-0.03 0.01-0.06 0.02-0.03 0.01-0.07 0.01-0.02 0.01-0.03 0.02l-6.63-26.57c-1.77-7.1 4.43-13.63 11.61-12.24l29.65 5.75c7.08 1.37 10.42 9.57 6.32 15.51l-20.75 29.96m-7.9-39.8l15 2.91m-24.52 35.14l1.7 5.09c1.19 3.57 1.79 7.31 1.79 11.07v21.25c0 2.62 2.13 4.75 4.75 4.75h0.43c2.62 0 4.75-2.13 4.75-4.75v-17.98c0-3.76 0.61-7.5 1.8-11.07l2.2-6.61c-4.58 6.62-14.46 5.29-17.42-1.75z"/>
				<path id="side-edge" fill="currentColor" stroke="currentColor" stroke-linecap="round" stroke-miterlimit="10" d="m3856.07 1430.73l-6.4-25.67c-1.22-4.91 1.37-9.54 5.45-11.47l3.82-1.91m-0.25 49.5q0.17 0.58 0.39 1.11l1.7 5.09c1.19 3.57 1.79 7.31 1.79 11.07v21.25c0 2.62 2.13 4.75 4.75 4.75h0.43q1.08-0.01 2-0.45l3.81-1.91"/>
				<path id="earpiece" fill="currentColor" stroke="currentColor" stroke-linejoin="round" d="m3839.43 1435.08c-1.39-2.79-2.39-6.25-2.76-10.06-0.95-9.83 2.66-18.23 8.06-18.76q0.01 0 0.01 0 1.18-0.1 2.33 0.29m2.52-1.91c-6.08 3.75-9.85 11.49-9.03 20.01 0.34 3.45 1.39 6.62 2.96 9.35m8.04-21.36c-1.39 3.31-2.02 7.12-1.64 11.1 0.28 2.9 1.07 5.6 2.25 8.01m1.2 11.02c1.94 0.72 4.01 1.07 6.13 0.99m-13.97-37.58c-2.64-0.43-5.43-0.53-8.31-0.26-13.78 1.34-24.13 10.86-23.13 21.28 0.65 6.67 5.79 12.08 13.01 14.77"/>
			</g>
		</g>
</g>
</svg>