<svg xmlns="http://www.w3.org/2000/svg" viewBox="0 0 135.00 135.00">
<g transform="translate(-2341.33,-857.62)" stroke-width="7.94">
<g id="140mm-Cooling-Fan-icon-v1 00000157284286854529377610000005733699578682457775 ">
			<g id="centre 00000054266933109751445550000005357484016569663923 ">
				<g id="centre 00000123427276497735969690000007390412046975468434 ">
					<path id="&lt;Compound Path&gt;" fill="currentColor" d="m2408.83 916.62c-4.73 0-8.56 3.81-8.56 8.5 0 4.7 3.83 8.51 8.56 8.51 4.73 0 8.57-3.81 8.57-8.51 0-4.69-3.84-8.5-8.57-8.5zm0 1c4.17 0 7.57 3.36 7.57 7.5 0 4.14-3.4 7.51-7.57 7.51-4.17 0-7.56-3.37-7.56-7.51 0-4.14 3.39-7.5 7.56-7.5z"/>
				</g>
			</g>
			<path id="cuttout 00000088838431345578042920000006274601160407263379 " fill="currentColor" stroke="currentColor" stroke-miterlimit="10" d="m2408.83 883.12c23.05 0 41.73 18.81 41.73 42 0 23.2-18.68 42-41.73 42-23.04 0-41.72-18.8-41.72-42 0-23.19 18.68-42 41.72-42z"/>
			<g id="screwholes 00000078024784537332718170000018014077453698599304 ">
				<path id="screwhole 00000083087445009861655670000007531750896496531388 " fill="currentColor" stroke="currentColor" stroke-miterlimit="10" d="m2367.7 969.35c0 1.7-1.38 3.09-3.09 3.09-1.71 0-3.09-1.39-3.09-3.09 0-1.71 1.38-3.09 3.09-3.09 1.71 0 3.09 1.38 3.09 3.09z"/>
				<path id="screwhole 00000177451802171893453700000005261020837738123925 " fill="currentColor" stroke="currentColor" stroke-miterlimit="10" d="m2449.97 880.9c0-1.7 1.38-3.09 3.09-3.09 1.7 0 3.09 1.39 3.09 3.09 0 1.71-1.39 3.09-3.09 3.09-1.71 0-3.09-1.38-3.09-3.09z"/>
				<path id="screwhole 00000019655288706954602030000003437048407491655849 " fill="currentColor" stroke="currentColor" stroke-miterlimit="10" d="m2453.06 966.26c1.7 0 3.09 1.38 3.09 3.09 0 1.7-1.39 3.09-3.09 3.09-1.71 0-3.09-1.39-3.09-3.09 0-1.71 1.38-3.09 3.09-3.09z"/>
				<path id="screwhole 00000076565161426186816310000005189799738989678735 " fill="currentColor" stroke="currentColor" stroke-miterlimit="10" d="m2364.61 883.99c-1.71 0-3.09-1.38-3.09-3.09 0-1.7 1.38-3.09 3.09-3.09 1.71 0 3.09 1.39 3.09 3.09 0 1.71-1.38 3.09-3.09 3.09z"/>
			</g>
			<g id="profile 00000135652606783095405320000008203858847856292028 ">
				<path id="right 00000182499831815567266410000006372992132721478817 " fill="currentColor" stroke="currentColor" stroke-miterlimit="10" d="m2461.33 954v-57.75"/>
				<path id="left 00000172433924640076262190000005175833803768258210 " fill="currentColor" stroke="currentColor" stroke-miterlimit="10" d="m2356.33 896.25v57.75"/>
				<path id="top 00000048475226186409174190000002897319187875569582 " fill="currentColor" stroke="currentColor" stroke-miterlimit="10" d="m2437.71 872.62h-57.75"/>
				<path id="bottom 00000145776596834708412370000006168740435431410829 " fill="currentColor" stroke="currentColor" stroke-miterlimit="10" d="m2379.96 977.62h57.75"/>
				<path id="main-profile 00000093177257798585745050000007399551044147808427 " fill="currentColor" stroke="currentColor" stroke-miterlimit="10" d="m2461.33 878.8c0-3.41-2.76-6.18-6.17-6.18h-11.16l-4.28 4.29h-61.77l-4.71-4.29h-10.73c-3.41 0-6.18 2.77-6.18 6.18v11.16l4.29 4.28v61.77l-4.29 4.28v11.16c0 3.41 2.77 6.17 6.18 6.17h10.73l4.71-4.28h61.77l4.28 4.28h11.16c3.41 0 6.17-2.76 6.17-6.17v-11.14l-4.28-4.3v-61.77l4.28-4.28z"/>
			</g>
			<path id="blades 00000106124453222528037990000006713011305034077875 " fill="currentColor" stroke="currentColor" stroke-miterlimit="10" d="m2394.34 923.59l-9.63-12.44c-0.83-1.06-1.43-2.32-1.54-3.67-0.11-1.41 0.2-2.85 0.94-4.12l6.73-11.48m32.48 34.78l9.64 12.44c0.82 1.06 1.42 2.32 1.53 3.67 0.12 1.41-0.19 2.85-0.93 4.12l-6.73 11.48m-19.53-18.76l-12.44 9.64c-1.07 0.83-2.32 1.42-3.67 1.54-1.41 0.11-2.85-0.2-4.12-0.94l-11.48-6.73m34.78-32.48l12.43-9.64c1.07-0.83 2.33-1.42 3.68-1.54 1.41-0.11 2.85 0.2 4.11 0.94l11.49 6.73"/>
		</g>
</g>
</svg>