<svg xmlns="http://www.w3.org/2000/svg" viewBox="2888.8 626.5 120.0 146.7">
<g id="120mm-Cooling-Fan-icon-v3">
			<path id="blades" fill="currentColor" stroke="currentColor" stroke-miterlimit="10" d="m2940.03 668.7c1.68-9.27 8.25-16.9 17.16-19.94l3.22-1.09m-2.78 56.73c-1.67 9.26-8.24 16.89-17.15 19.93l-3.22 1.1m-6.27-30.08c-9.27-1.68-16.9-8.24-19.94-17.16l-1.1-3.22m56.73 2.78c9.27 1.67 16.9 8.24 19.94 17.15l1.1 3.22m-57.73-17.97c-5.37-7.74-6.12-17.78-1.97-26.23l1.5-3.05m38.16 42.08c5.36 7.73 6.12 17.77 1.96 26.22l-1.5 3.06m-25.7-16.84c-7.74 5.37-17.78 6.12-26.23 1.97l-3.06-1.5m42.08-38.16c7.74-5.36 17.78-6.11 26.23-1.96l3.05 1.5"/>
			<g id="screwhole 00000016755802478085815140000017427669326380130722 ">
				<g id="centre 00000112630412938134767170000009495711863357143464 ">
					<path id="&lt;Compound Path&gt;" fill="currentColor" d="m2948.83 669.88c-9.2 0-16.66 7.46-16.66 16.67 0 9.2 7.46 16.66 16.66 16.66 9.21 0 16.67-7.46 16.67-16.66 0-9.21-7.46-16.67-16.67-16.67zm0 1c8.64 0 15.67 7.03 15.67 15.67 0 8.64-7.03 15.66-15.67 15.66-8.63 0-15.66-7.02-15.66-15.66 0-8.64 7.03-15.67 15.66-15.67z"/>
				</g>
			</g>
			<path id="holes 00000139987963675895688460000008776542911617527177 " fill="currentColor" stroke="currentColor" stroke-miterlimit="10" d="m2911.61 725.99c0 1.23-0.99 2.22-2.22 2.22-1.23 0-2.22-0.99-2.22-2.22 0-1.22 0.99-2.22 2.22-2.22 1.23 0 2.22 1 2.22 2.22zm76.67-76.66c1.23 0 2.22-1 2.22-2.23 0-1.22-0.99-2.22-2.22-2.22-1.23 0-2.22 1-2.22 2.22 0 1.23 0.99 2.23 2.22 2.23zm-2.22 76.66c0 1.23 0.99 2.22 2.22 2.22 1.23 0 2.22-0.99 2.22-2.22 0-1.22-0.99-2.22-2.22-2.22-1.23 0-2.22 1-2.22 2.22zm-74.45-78.89c0-1.22-0.99-2.22-2.22-2.22-1.23 0-2.22 1-2.22 2.22 0 1.23 0.99 2.23 2.22 2.23 1.23 0 2.22-1 2.22-2.23z"/>
			<path id="cuttout 00000111893313691849780380000008378811961021525683 " fill="currentColor" stroke="currentColor" stroke-miterlimit="10" d="m2904.25 660.21q-0.41-1.01-0.42-2.1v-11.01c0-3.06 2.49-5.55 5.56-5.55h11.01q1.09 0 2.1 0.41m-2.31 4.19c-0.72-0.29-1.55-0.18-2.16 0.29-3.49 2.68-6.62 5.81-9.31 9.3-0.47 0.62-0.57 1.44-0.29 2.16m84.99 2.31q0.41-1.01 0.41-2.1v-11.01c0-3.07-2.48-5.55-5.55-5.55h-11.01q-1.09 0-2.1 0.41m14.06 15.94c0.29-0.72 0.18-1.54-0.29-2.16-2.68-3.49-5.81-6.62-9.3-9.3-0.61-0.47-1.44-0.58-2.16-0.29m-2.31 84.99q1.01 0.41 2.1 0.41h11.01c3.07 0 5.55-2.49 5.55-5.56v-11q0-1.1-0.41-2.11m-15.94 14.07c0.72 0.28 1.55 0.18 2.16-0.29 3.49-2.69 6.62-5.82 9.3-9.3 0.48-0.62 0.58-1.45 0.3-2.17m-84.99-2.31q-0.41 1.01-0.42 2.11v11c0 3.07 2.49 5.56 5.56 5.56h11.01q1.09 0 2.1-0.41m-14.07-15.95c-0.28 0.72-0.18 1.55 0.29 2.17 2.69 3.48 5.82 6.61 9.31 9.3 0.61 0.47 1.44 0.57 2.16 0.29"/>
			<path id="outer-rim" fill="currentColor" stroke="currentColor" stroke-miterlimit="10" d="m2993.83 672.23c-4.63-14.56-16.12-26.05-30.68-30.68h-28.63c-14.56 4.63-26.06 16.12-30.69 30.68v28.63c4.63 14.56 16.13 26.06 30.69 30.69h28.63c14.56-4.63 26.05-16.13 30.68-30.69zm-88.05 14.32c0-23.78 19.28-43.05 43.05-43.05 23.78 0 43.05 19.27 43.05 43.05 0 23.77-19.27 43.04-43.05 43.04-23.77 0-43.05-19.27-43.05-43.04z"/>
			<path id="branding 00000011709860366048391560000006622238282932710321 " fill="currentColor" stroke="currentColor" stroke-miterlimit="10" d="m2940.03 686.55h17.6"/>
		</g>
</svg>