<svg xmlns="http://www.w3.org/2000/svg" viewBox="0 0 135.00 135.00">
<g transform="translate(-2611.33,-857.59)" stroke-width="4.82">
<g id="140mm-Cooling-Fan-icon-v2">
			<path id="inner-diameter" fill="none" stroke="currentColor" stroke-linecap="round" stroke-linejoin="round" d="m2727.75 925.09c0 27.02-21.9 48.92-48.92 48.92-27.01 0-48.92-21.9-48.92-48.92 0-27.02 21.91-48.92 48.92-48.92 27.02 0 48.92 21.9 48.92 48.92z"/>
			<path id="centre 00000055706747100390573540000017816710947268367802 " fill="none" stroke="currentColor" stroke-linecap="round" stroke-linejoin="round" d="m2693.15 925.09c0 7.91-6.41 14.32-14.32 14.32-7.9 0-14.31-6.41-14.31-14.32 0-7.91 6.41-14.32 14.31-14.32 7.91 0 14.32 6.41 14.32 14.32z"/>
			<path id="profile 00000064327870836920674040000017832709653291048122 " fill="none" stroke="currentColor" stroke-linecap="round" stroke-linejoin="round" d="m2626.33 925.09c0 7.17 1.44 14.01 4.05 20.24 1.01 2.43 0.45 5.23-1.41 7.09l-1.3 1.3c-0.86 0.86-1.34 2.01-1.34 3.22v13.5c0 3.95 3.2 7.15 7.15 7.15h13.5c1.21 0 2.36-0.48 3.22-1.33l1.31-1.31c1.85-1.86 4.65-2.42 7.08-1.41 6.23 2.61 13.07 4.05 20.24 4.05 7.18 0 14.02-1.44 20.25-4.05 2.42-1.01 5.22-0.45 7.08 1.41l1.31 1.31c0.85 0.85 2.01 1.33 3.22 1.33h13.5c3.94 0 7.14-3.2 7.14-7.15v-13.5c0-1.21-0.48-2.36-1.33-3.22l-1.31-1.3c-1.86-1.86-2.42-4.66-1.4-7.09 2.6-6.23 4.04-13.07 4.04-20.24 0-7.18-1.44-14.02-4.04-20.25-1.02-2.42-0.46-5.22 1.4-7.08l1.31-1.31c0.85-0.85 1.33-2.01 1.33-3.21v-13.5c0-3.95-3.2-7.15-7.14-7.15h-13.5c-1.21 0-2.37 0.48-3.22 1.33l-1.31 1.31c-1.86 1.86-4.66 2.42-7.08 1.4-6.23-2.6-13.07-4.04-20.25-4.04-7.17 0-14.01 1.44-20.24 4.04-2.43 1.02-5.23 0.46-7.08-1.4l-1.31-1.31c-0.86-0.85-2.01-1.33-3.22-1.33h-13.5c-3.95 0-7.15 3.2-7.15 7.15v13.5c0 1.2 0.48 2.36 1.34 3.21l1.3 1.31c1.86 1.86 2.42 4.66 1.41 7.08-2.61 6.23-4.05 13.07-4.05 20.25z"/>
			<g id="fixing-holes 00000099643383785947259140000003526174537194502550 ">
				<path id="hole 00000008118134731811193040000018020485239829705894 " fill="none" stroke="currentColor" stroke-linecap="round" stroke-linejoin="round" d="m2725.02 881.15c0 1.24-1 2.25-2.25 2.25-1.24 0-2.25-1.01-2.25-2.25 0-1.25 1.01-2.25 2.25-2.25 1.25 0 2.25 1 2.25 2.25z"/>
				<path id="hole 00000062915006601866807920000016603303736880386708 " fill="none" stroke="currentColor" stroke-linecap="round" stroke-linejoin="round" d="m2632.64 969.03c0-1.24 1.01-2.25 2.25-2.25 1.25 0 2.25 1.01 2.25 2.25 0 1.24-1 2.25-2.25 2.25-1.24 0-2.25-1.01-2.25-2.25z"/>
				<path id="hole 00000093155424995516379630000008292321169015968926 " fill="none" stroke="currentColor" stroke-linecap="round" stroke-linejoin="round" d="m2722.77 971.28c-1.24 0-2.25-1.01-2.25-2.25 0-1.24 1.01-2.25 2.25-2.25 1.25 0 2.25 1.01 2.25 2.25 0 1.24-1 2.25-2.25 2.25z"/>
				<path id="hole" fill="none" stroke="currentColor" stroke-linecap="round" stroke-linejoin="round" d="m2634.89 878.9c1.25 0 2.25 1 2.25 2.25 0 1.24-1 2.25-2.25 2.25-1.24 0-2.25-1.01-2.25-2.25 0-1.25 1.01-2.25 2.25-2.25z"/>
			</g>
			<path id="rubber-pads 00000085227368468195107200000017749233364234327193 " fill="none" stroke="currentColor" stroke-linecap="round" stroke-linejoin="round" d="m2728.03 892.12c0 1.34-1.73 1.9-2.49 0.79-3.92-5.68-8.85-10.61-14.53-14.53-1.11-0.76-0.55-2.49 0.79-2.49m-82.17 16.23c0 1.34 1.74 1.9 2.5 0.79 3.92-5.68 8.85-10.61 14.53-14.53 1.1-0.76 0.55-2.49-0.79-2.49m82.16 82.16c0-1.34-1.73-1.89-2.49-0.79-3.92 5.68-8.85 10.61-14.53 14.53-1.11 0.77-0.55 2.5 0.79 2.5m-65.93 0c1.34 0 1.89-1.73 0.79-2.5-5.68-3.92-10.61-8.85-14.53-14.53-0.76-1.1-2.5-0.55-2.5 0.79"/>
			<path id="blades 00000013891745410657325680000003732216590856059282 " fill="none" stroke="currentColor" stroke-linecap="round" stroke-linejoin="round" d="m2694.56 911.31l17.42-0.91c1.64-0.09 3.27 0.33 4.67 1.18 2.12 1.3 3.53 3.49 3.83 5.96l0.72 5.83m-14.94 33.9l4.11-4.2c1.74-1.77 2.58-4.25 2.27-6.71-0.21-1.63-0.9-3.16-1.99-4.39l-11.3-12.75m-28.9 37.5l5.84 0.6c2.47 0.25 4.92-0.64 6.66-2.41 1.15-1.18 1.91-2.68 2.19-4.3l2.91-16.72m-47.33 0.72l3.18 4.95c1.34 2.09 3.57 3.45 6.04 3.7 1.63 0.16 3.28-0.17 4.72-0.96l15.17-8.31m-30.36-36.4l-1.88 5.57c-0.8 2.35-0.48 4.94 0.87 7.03 0.89 1.38 2.18 2.46 3.7 3.09l16.36 6.85m9.12-46.6l-5.52 2c-2.34 0.84-4.16 2.71-4.96 5.06v0.03c-0.52 1.54-0.57 3.2-0.13 4.77l4.85 17.45m42.13-22.29l-5-3.07c-2.12-1.3-4.71-1.56-7.05-0.71-1.54 0.56-2.88 1.57-3.84 2.91l-10.39 14.53"/>
		</g>
</g>
</svg>