<svg xmlns="http://www.w3.org/2000/svg" viewBox="0 0 120.00 120.00">
<g transform="translate(-2618.83,-626.55)" stroke-width="4.29">
<g id="120mm-Cooling-Fan-icon-v2">
			<g id="centre 00000098934918673972504350000009863793114848582318 ">
				<g id="centre 00000003100264516277095110000015261081502573704122 ">
					<path id="&lt;Compound Path&gt;" fill="none" d="m2678.83 679.26c-4.05 0-7.34 3.26-7.34 7.29 0 4.03 3.29 7.29 7.34 7.29 4.06 0 7.34-3.26 7.34-7.29 0-4.03-3.28-7.29-7.34-7.29zm0 1c3.5 0 6.34 2.82 6.34 6.29 0 3.47-2.84 6.29-6.34 6.29-3.49 0-6.34-2.82-6.34-6.29 0-3.47 2.85-6.29 6.34-6.29z"/>
				</g>
			</g>
			<path id="cuttout 00000047057778978807292350000000689125193576379533 " fill="none" stroke="currentColor" stroke-miterlimit="10" d="m2678.83 650.55c19.76 0 35.77 16.12 35.77 36 0 19.88-16.01 36-35.77 36-19.75 0-35.76-16.12-35.76-36 0-19.88 16.01-36 35.76-36z"/>
			<g id="screwholes 00000183956844097697254590000008762913270786427013 ">
				<path id="screwhole 00000161620346333659445150000016590422779283620506 " fill="none" stroke="currentColor" stroke-miterlimit="10" d="m2643.57 724.45c0 1.47-1.18 2.65-2.64 2.65-1.46 0-2.65-1.18-2.65-2.65 0-1.46 1.19-2.64 2.65-2.64 1.46 0 2.64 1.18 2.64 2.64z"/>
				<path id="screwhole 00000142854192368909428880000003428329680151038874 " fill="none" stroke="currentColor" stroke-miterlimit="10" d="m2714.09 648.64c0-1.46 1.19-2.64 2.65-2.64 1.46 0 2.65 1.18 2.65 2.64 0 1.46-1.19 2.65-2.65 2.65-1.46 0-2.65-1.19-2.65-2.65z"/>
				<path id="screwhole 00000031885834879819571750000000945708133077238657 " fill="none" stroke="currentColor" stroke-miterlimit="10" d="m2716.74 721.81c1.46 0 2.65 1.18 2.65 2.64 0 1.47-1.19 2.65-2.65 2.65-1.46 0-2.65-1.18-2.65-2.65 0-1.46 1.19-2.64 2.65-2.64z"/>
				<path id="screwhole 00000106130184014049690100000013801386756447753095 " fill="none" stroke="currentColor" stroke-miterlimit="10" d="m2640.93 651.29c-1.46 0-2.65-1.19-2.65-2.65 0-1.46 1.19-2.64 2.65-2.64 1.46 0 2.64 1.18 2.64 2.64 0 1.46-1.18 2.65-2.64 2.65z"/>
			</g>
			<g id="profile 00000022526959454321986590000009730373979387254431 ">
				<path id="main-profile 00000021113959241652441440000017529949573757743536 " fill="none" stroke="currentColor" stroke-miterlimit="10" d="m2720.16 713.02v-52.94"/>
				<path id="main-profile 00000149380046468721258630000013519105011110456748 " fill="none" stroke="currentColor" stroke-miterlimit="10" d="m2652.36 727.87h52.94"/>
				<path id="main-profile 00000001648285859920030310000000909086882714202800 " fill="none" stroke="currentColor" stroke-miterlimit="10" d="m2637.51 660.08v52.94"/>
				<path id="main-profile 00000125592526068927607080000002230398270480806290 " fill="none" stroke="currentColor" stroke-miterlimit="10" d="m2718.54 731.55c2.92 0 5.29-2.37 5.29-5.3v-79.41c0-2.92-2.37-5.29-5.29-5.29h-79.41c-2.93 0-5.3 2.37-5.3 5.29v79.41c0 2.93 2.37 5.3 5.3 5.3z"/>
				<path id="main-profile 00000145017554500210305130000008173843755496796569 " fill="none" stroke="currentColor" stroke-miterlimit="10" d="m2705.3 645.22h-52.94"/>
			</g>
			<path id="blades 00000104672441310999275970000015854638622929795995 " fill="none" stroke="currentColor" stroke-miterlimit="10" d="m2666.41 685.23l-8.25-10.66c-0.71-0.91-1.23-1.99-1.32-3.14-0.1-1.22 0.17-2.45 0.8-3.53l5.77-9.85m27.84 29.81l8.26 10.66c0.71 0.92 1.22 2 1.32 3.15 0.1 1.21-0.17 2.45-0.8 3.53l-5.77 9.85m-16.74-16.08l-10.66 8.26c-0.92 0.7-2 1.22-3.15 1.31-1.21 0.1-2.45-0.17-3.53-0.8l-9.84-5.77m29.81-27.84l10.66-8.26c0.91-0.71 1.99-1.22 3.15-1.32 1.21-0.1 2.44 0.17 3.53 0.81l9.84 5.76"/>
		</g>
</g>
</svg>