<svg xmlns="http://www.w3.org/2000/svg" viewBox="0 0 120.00 120.00">
<g transform="translate(-3158.83,-626.58)" stroke-width="7.06">
<g id="120mm-Cooling-Fan-icon-v4">
			<g id="centre 00000157293731531022801130000013753887491271265457 ">
				<g id="centre 00000037664200988280840530000013783465511462979743 ">
					<path id="&lt;Compound Path&gt;" fill="currentColor" d="m3218.83 671.58c-8.28 0-15 6.72-15 15 0 8.29 6.72 15 15 15 8.29 0 15-6.71 15-15 0-8.28-6.71-15-15-15zm0 1c7.72 0 14 6.28 14 14 0 7.72-6.28 14-14 14-7.72 0-14-6.28-14-14 0-7.72 6.28-14 14-14z"/>
				</g>
			</g>
			<g id="centre-dashed">
				<g id="centre-dashed 00000085212459690693441120000006439451758956266119 ">
					<path id="&lt;Compound Path&gt;" fill="currentColor" d="m3218.83 675.33c-6.21 0-11.25 5.04-11.25 11.25 0 6.22 5.04 11.25 11.25 11.25 6.22 0 11.25-5.03 11.25-11.25 0-6.21-5.03-11.25-11.25-11.25zm0 1c5.66 0 10.25 4.6 10.25 10.25 0 5.66-4.59 10.25-10.25 10.25-5.65 0-10.25-4.59-10.25-10.25 0-5.65 4.6-10.25 10.25-10.25z"/>
				</g>
			</g>
			<path id="outer-diameter" fill="currentColor" stroke="currentColor" stroke-miterlimit="10" d="m3218.83 641.58c24.86 0 45 20.15 45 45 0 24.86-20.14 45-45 45-24.85 0-45-20.14-45-45 0-24.85 20.15-45 45-45z"/>
			<g id="corner-TL">
				<path id="screwhole 00000170251699207592659180000009797555911975619477 " fill="currentColor" stroke="currentColor" stroke-miterlimit="10" d="m3181.17 651.55c-1.45 0-2.63-1.17-2.63-2.63 0-1.45 1.18-2.63 2.63-2.63 1.46 0 2.63 1.18 2.63 2.63 0 1.46-1.17 2.63-2.63 2.63z"/>
				<path id="screwhole 00000117666219657857832080000004625411484707142308 " fill="currentColor" stroke="currentColor" stroke-miterlimit="10" d="m3177.88 660.64c-0.7 0-1.25-0.56-1.25-1.25 0-0.69 0.55-1.25 1.25-1.25 0.69 0 1.25 0.56 1.25 1.25 0 0.69-0.56 1.25-1.25 1.25z"/>
				<path id="screwhole 00000043455711183537596330000004021000948597099697 " fill="currentColor" stroke="currentColor" stroke-miterlimit="10" d="m3191.64 646.88c-0.69 0-1.25-0.56-1.25-1.25 0-0.69 0.56-1.25 1.25-1.25 0.69 0 1.25 0.56 1.25 1.25 0 0.69-0.56 1.25-1.25 1.25z"/>
				<path id="corner" fill="currentColor" stroke="currentColor" stroke-miterlimit="10" d="m3197.43 643.92l-2.48-1.77q-0.71-0.27-1.47-0.27h-10.91c-1.59 0-3.12 0.63-4.24 1.75l-2.45 2.45c-1.12 1.13-1.75 2.65-1.75 4.24v10.91q0 0.76 0.27 1.47l1.77 2.48"/>
			</g>
			<g id="corner-TR">
				<path id="screwhole 00000070088996133410358880000018140498700259801762 " fill="currentColor" stroke="currentColor" stroke-miterlimit="10" d="m3253.86 648.92c0-1.45 1.18-2.63 2.63-2.63 1.46 0 2.63 1.18 2.63 2.63 0 1.46-1.17 2.63-2.63 2.63-1.45 0-2.63-1.17-2.63-2.63z"/>
				<path id="screwhole 00000026864067944752845640000003419911813553796765 " fill="currentColor" stroke="currentColor" stroke-miterlimit="10" d="m3244.78 645.63c0-0.69 0.56-1.25 1.25-1.25 0.69 0 1.25 0.56 1.25 1.25 0 0.69-0.56 1.25-1.25 1.25-0.69 0-1.25-0.56-1.25-1.25z"/>
				<path id="screwhole 00000048486939481684494560000000225718808605019554 " fill="currentColor" stroke="currentColor" stroke-miterlimit="10" d="m3258.54 659.39c0-0.69 0.56-1.25 1.25-1.25 0.69 0 1.25 0.56 1.25 1.25 0 0.69-0.56 1.25-1.25 1.25-0.69 0-1.25-0.56-1.25-1.25z"/>
				<path id="corner 00000021814139944287809150000017808673946611297422 " fill="currentColor" stroke="currentColor" stroke-miterlimit="10" d="m3261.5 665.18l1.76-2.48q0.28-0.71 0.28-1.47v-10.91c0-1.59-0.63-3.11-1.76-4.24l-2.44-2.45c-1.13-1.12-2.65-1.75-4.24-1.75h-10.91q-0.76 0-1.47 0.27l-2.48 1.77"/>
			</g>
			<g id="corner-BR">
				<path id="screwhole 00000014629971931603300720000017049601541271201678 " fill="currentColor" stroke="currentColor" stroke-miterlimit="10" d="m3256.49 721.61c1.46 0 2.63 1.18 2.63 2.63 0 1.46-1.17 2.63-2.63 2.63-1.45 0-2.63-1.17-2.63-2.63 0-1.45 1.18-2.63 2.63-2.63z"/>
				<path id="screwhole 00000091720860323284802140000013737530193695403924 " fill="currentColor" stroke="currentColor" stroke-miterlimit="10" d="m3259.79 712.53c0.69 0 1.25 0.56 1.25 1.25 0 0.69-0.56 1.25-1.25 1.25-0.69 0-1.25-0.56-1.25-1.25 0-0.69 0.56-1.25 1.25-1.25z"/>
				<path id="screwhole 00000173865264642816838060000016999146871290959747 " fill="currentColor" stroke="currentColor" stroke-miterlimit="10" d="m3246.03 726.29c0.69 0 1.25 0.56 1.25 1.25 0 0.69-0.56 1.25-1.25 1.25-0.69 0-1.25-0.56-1.25-1.25 0-0.69 0.56-1.25 1.25-1.25z"/>
				<path id="corner 00000022528033338678424840000010289093879756134305 " fill="currentColor" stroke="currentColor" stroke-miterlimit="10" d="m3240.24 729.25l2.48 1.76q0.71 0.28 1.47 0.28h10.91c1.59 0 3.11-0.63 4.24-1.75l2.44-2.45c1.13-1.13 1.76-2.65 1.76-4.24v-10.91q0-0.76-0.28-1.47l-1.76-2.48"/>
			</g>
			<g id="corner-BL">
				<path id="screwhole 00000029040384407674149200000007896665466620296341 " fill="currentColor" stroke="currentColor" stroke-miterlimit="10" d="m3183.8 724.24c0 1.46-1.17 2.63-2.63 2.63-1.45 0-2.63-1.17-2.63-2.63 0-1.45 1.18-2.63 2.63-2.63 1.46 0 2.63 1.18 2.63 2.63z"/>
				<path id="screwhole 00000116222982472918109170000015259626573590754742 " fill="currentColor" stroke="currentColor" stroke-miterlimit="10" d="m3192.89 727.54c0 0.69-0.56 1.25-1.25 1.25-0.69 0-1.25-0.56-1.25-1.25 0-0.69 0.56-1.25 1.25-1.25 0.69 0 1.25 0.56 1.25 1.25z"/>
				<path id="screwhole 00000127045544380326462040000013699098298981270149 " fill="currentColor" stroke="currentColor" stroke-miterlimit="10" d="m3179.13 713.78c0 0.69-0.56 1.25-1.25 1.25-0.7 0-1.25-0.56-1.25-1.25 0-0.69 0.55-1.25 1.25-1.25 0.69 0 1.25 0.56 1.25 1.25z"/>
				<path id="corner 00000173151059586818819170000002385542218433819296 " fill="currentColor" stroke="currentColor" stroke-miterlimit="10" d="m3176.17 707.99l-1.77 2.48q-0.27 0.71-0.27 1.47v10.91c0 1.59 0.63 3.11 1.75 4.24l2.45 2.45c1.12 1.12 2.65 1.75 4.24 1.75h10.91q0.76 0 1.47-0.28l2.48-1.76"/>
			</g>
			<g id="blades 00000062183023182298571820000002601059559548376463 ">
				<path id="blade 00000160159995685041954290000010390562476245443771 " fill="currentColor" stroke="currentColor" stroke-miterlimit="10" d="m3237.33 683.23c3.43-10.35 2.91-21.1-0.78-31.79-0.18-0.52-0.56-0.95-1.06-1.18-7.8-3.57-16.51-4.51-24.78-2.8-1.79 0.37-2.12 2.77-0.54 3.68 8.43 4.84 15.09 11.45 19.38 20.01"/>
				<path id="blade 00000149382664141986711660000002836141634410504586 " fill="currentColor" stroke="currentColor" stroke-miterlimit="10" d="m3222.18 705.08c10.36 3.43 21.11 2.91 31.8-0.78 0.52-0.18 0.95-0.56 1.18-1.06 3.57-7.8 4.51-16.51 2.8-24.78-0.37-1.79-2.78-2.12-3.68-0.54-4.84 8.43-11.46 15.09-20.01 19.38"/>
				<path id="blade 00000127015852772420747790000000478327471160770485 " fill="currentColor" stroke="currentColor" stroke-miterlimit="10" d="m3200.34 689.93c-3.44 10.36-2.91 21.11 0.78 31.8 0.17 0.52 0.56 0.95 1.06 1.18 7.8 3.57 16.5 4.51 24.78 2.8 1.78-0.37 2.12-2.77 0.54-3.68-8.43-4.84-15.09-11.45-19.38-20.01"/>
				<path id="blade 00000016794058985429964590000007065336949217141651 " fill="currentColor" stroke="currentColor" stroke-miterlimit="10" d="m3215.48 668.09c-10.35-3.43-21.1-2.91-31.79 0.78-0.52 0.17-0.95 0.56-1.18 1.06-3.57 7.8-4.51 16.5-2.8 24.78 0.37 1.78 2.77 2.12 3.68 0.54 4.84-8.43 11.45-15.09 20.01-19.38"/>
			</g>
		</g>
</g>
</svg>