<svg xmlns="http://www.w3.org/2000/svg" viewBox="0 0 135.00 135.00">
<g transform="translate(-2881.33,-857.59)" stroke-width="7.94">
<g id="140mm-Cooling-Fan-icon-v3">
			<g id="profile 00000129193163601837762830000008135359186112361397 ">
				<path id="inner 00000094589150250881047460000009446335922670995133 " fill="none" stroke="currentColor" stroke-linecap="round" stroke-linejoin="round" d="m2997.13 925.09c0 26.67-21.62 48.3-48.3 48.3-26.67 0-48.3-21.63-48.3-48.3 0-26.68 21.63-48.3 48.3-48.3 26.68 0 48.3 21.62 48.3 48.3z"/>
				<path id="outer 00000160904937281765236380000007919914847137659526 " fill="none" stroke="currentColor" stroke-linecap="round" stroke-linejoin="round" d="m2896.33 925.09c0 6.72 1.27 13.15 3.57 19.06 1.26 3.23 0.44 6.9-2.01 9.35l-0.22 0.22c-0.86 0.86-1.34 2.01-1.34 3.22v13.5c0 3.95 3.2 7.15 7.15 7.15h13.5c1.21 0 2.36-0.48 3.22-1.33l0.22-0.23c2.45-2.45 6.12-3.27 9.35-2.01 5.91 2.3 12.34 3.57 19.06 3.57 6.73 0 13.16-1.27 19.07-3.57 3.23-1.26 6.89-0.44 9.34 2.01l0.23 0.23c0.85 0.85 2.01 1.33 3.22 1.33h13.5c3.94 0 7.14-3.2 7.14-7.15v-13.5c0-1.21-0.48-2.36-1.33-3.22l-0.22-0.22c-2.45-2.45-3.27-6.12-2.02-9.35 2.31-5.91 3.57-12.34 3.57-19.06 0-6.73-1.26-13.16-3.57-19.07-1.25-3.22-0.43-6.89 2.02-9.34l0.22-0.23c0.85-0.85 1.33-2.01 1.33-3.21v-13.5c0-3.95-3.2-7.15-7.14-7.15h-13.5c-1.21 0-2.37 0.48-3.22 1.33l-0.23 0.23c-2.45 2.45-6.11 3.27-9.34 2.01-5.91-2.31-12.34-3.57-19.07-3.57-6.72 0-13.15 1.26-19.06 3.57-3.23 1.26-6.9 0.44-9.35-2.01l-0.22-0.23c-0.86-0.85-2.01-1.33-3.22-1.33h-13.5c-3.95 0-7.15 3.2-7.15 7.15v13.5c0 1.2 0.48 2.36 1.34 3.21l0.22 0.23c2.45 2.45 3.27 6.12 2.01 9.34-2.3 5.91-3.57 12.34-3.57 19.07z"/>
			</g>
			<path id="fixing-holes 00000159442501748680966990000005650662865338109603 " fill="none" stroke="currentColor" stroke-linecap="round" stroke-linejoin="round" d="m2994.77 881.15c0 1.1-0.89 2-2 2-1.1 0-2-0.9-2-2 0-1.11 0.9-2 2-2 1.11 0 2 0.89 2 2zm-89.88 89.88c1.11 0 2-0.9 2-2 0-1.11-0.89-2-2-2-1.1 0-2 0.89-2 2 0 1.1 0.9 2 2 2zm89.88-2c0-1.11-0.89-2-2-2-1.1 0-2 0.89-2 2 0 1.1 0.9 2 2 2 1.11 0 2-0.9 2-2zm-91.88-87.88c0 1.1 0.9 2 2 2 1.11 0 2-0.9 2-2 0-1.11-0.89-2-2-2-1.1 0-2 0.89-2 2z"/>
			<path id="rubber-pads" fill="none" stroke="currentColor" stroke-linecap="round" stroke-linejoin="round" d="m2998.03 892.12c0 1.34-1.73 1.9-2.49 0.79-3.92-5.68-8.85-10.61-14.53-14.53-1.11-0.76-0.55-2.49 0.79-2.49m-82.17 16.23c0 1.34 1.74 1.9 2.5 0.79 3.92-5.68 8.85-10.61 14.53-14.53 1.1-0.76 0.55-2.49-0.79-2.49m82.16 82.16c0-1.34-1.73-1.89-2.49-0.79-3.92 5.68-8.85 10.61-14.53 14.53-1.11 0.77-0.55 2.5 0.79 2.5m-65.93 0c1.34 0 1.89-1.73 0.79-2.5-5.68-3.92-10.61-8.85-14.53-14.53-0.76-1.1-2.5-0.55-2.5 0.79"/>
			<path id="centre" fill="none" stroke="currentColor" stroke-linecap="round" stroke-linejoin="round" d="m2948.83 908.3c-9.28 0-16.8 7.52-16.8 16.8 0 9.28 7.52 16.8 16.8 16.8 9.28 0 16.8-7.52 16.8-16.8 0-9.28-7.52-16.8-16.8-16.8z"/>
			<path id="blades 00000062896296891266511780000014486982206410698684 " fill="none" stroke="currentColor" stroke-linecap="round" stroke-linejoin="round" d="m2925.17 889.6c3.12 1.79 7.28 4.64 11.32 9.02q1.7 1.84 3.06 3.66m8.42-19.93c1.67 3.2 3.63 7.86 4.68 13.75q0.43 2.46 0.6 4.72m17.8-12.17c-0.32 3.6-1.17 8.58-3.45 14.1q-0.97 2.32-2.05 4.31m-36.76 3.89q-2.12-0.79-4.53-1.42c-5.76-1.49-10.79-1.63-14.38-1.43m77.2-1.61c-2.21 2.86-5.6 6.59-10.49 9.99q-2.06 1.43-4.04 2.52m18.42 11.22c-3.39 1.21-8.25 2.5-14.19 2.7q-2.49 0.08-4.74-0.07m-10.4 32.87c-2.49-2.61-5.68-6.52-8.34-11.87q-1.11-2.25-1.9-4.38m30.09 2.83c-3.5-0.83-8.29-2.39-13.39-5.45q-2.14-1.28-3.95-2.64m-46.8 9.42c1.32-3.36 3.53-7.91 7.27-12.55q1.57-1.95 3.17-3.56m-20.82-5.55c2.92-2.12 7.22-4.74 12.86-6.62q2.37-0.78 4.57-1.26m13.34 42.12c-0.71-3.54-1.29-8.57-0.65-14.51q0.28-2.49 0.76-4.71"/>
		</g>
</g>
</svg>