<svg xmlns="http://www.w3.org/2000/svg" viewBox="0 0 135.00 135.00">
<g transform="translate(-3151.33,-857.59)" stroke-width="4.82">
<g id="140mm-Cooling-Fan-icon-v4">
			<path id="inner-diameter 00000029764986050627361740000007086787568153534134 " fill="none" stroke="currentColor" stroke-miterlimit="10" d="m3271.33 925.09c0 28.99-23.5 52.5-52.5 52.5-28.99 0-52.5-23.51-52.5-52.5 0-29 23.51-52.5 52.5-52.5 29 0 52.5 23.5 52.5 52.5z"/>
			<path id="centre 00000003084576259976342950000010999021200439871617 " fill="none" stroke="currentColor" stroke-miterlimit="10" d="m3236.33 925.09c0 9.66-7.83 17.5-17.5 17.5-9.66 0-17.5-7.84-17.5-17.5 0-9.67 7.84-17.5 17.5-17.5 9.67 0 17.5 7.83 17.5 17.5z"/>
			<path id="blades 00000140714910192912173950000004165262901039666816 " fill="none" stroke="currentColor" stroke-miterlimit="10" d="m3236.7 881.7c1.56 0.51 2.87 1.63 3.58 3.12 4.12 8.65 4.59 28.09 0.52 34.61m-3.86 19.3c7.64-0.88 22.55-13.37 26.75-21.98 0.72-1.49 0.77-3.21 0.2-4.75m-55.47-7.07c-7.27-2.51-26.1 2.27-33.62 8.21-1.29 1.02-2.08 2.54-2.24 4.19m55.54-12.95c-2.57-7.25-18.05-19-27.38-21.17-1.6-0.37-3.29-0.04-4.67 0.86m0.52 36.59c-6.49 4.14-14.49 21.83-14.53 31.4-0.01 1.65 0.69 3.22 1.88 4.37m35.54-8.68c5.45 5.43 24.51 9.3 33.86 7.21 1.61-0.36 2.99-1.4 3.84-2.81m-55.66-12.43c-0.83 7.65 8.02 24.95 15.48 30.95 1.29 1.03 2.95 1.47 4.59 1.26"/>
			<path id="label" fill="none" stroke="currentColor" stroke-miterlimit="10" d="m3231.33 925.09c0 6.9-5.59 12.5-12.5 12.5-6.9 0-12.5-5.6-12.5-12.5 0-6.91 5.6-12.5 12.5-12.5 6.91 0 12.5 5.59 12.5 12.5z"/>
			<path id="corners 00000142145208950358291410000008626938077078805938 " fill="none" stroke="currentColor" stroke-linecap="round" stroke-miterlimit="10" d="m3166.33 908.82v-30.56c0-3.13 2.54-5.67 5.68-5.67h30.56m68.76 36.23v-30.56c0-3.13-2.54-5.67-5.67-5.67h-30.56m-68.77 68.77v30.55c0 3.14 2.54 5.68 5.68 5.68h30.56m32.53 0h30.56c3.13 0 5.67-2.54 5.67-5.68v-30.55"/>
			<path id="rubber-pads 00000095331730530004805760000007697096101467431844 " fill="none" stroke="currentColor" stroke-linejoin="round" d="m3267.36 894.89c-4.63-7.42-10.91-13.7-18.33-18.33m-78.72 18.33c4.63-7.42 10.91-13.7 18.33-18.33m78.72 78.72c-4.63 7.42-10.91 13.71-18.33 18.34m-60.39 0c-7.42-4.63-13.7-10.92-18.33-18.34"/>
			<path id="fixing-holes 00000064313228255556403990000000012716629946897084 " fill="none" stroke="currentColor" stroke-linejoin="round" d="m3264.07 877.85c1.11 0 2 0.9 2 2 0 1.11-0.89 2-2 2-1.1 0-2-0.89-2-2 0-1.1 0.9-2 2-2zm-92.47 2c0 1.11 0.89 2 2 2 1.1 0 2-0.89 2-2 0-1.1-0.9-2-2-2-1.11 0-2 0.9-2 2zm0 90.48c0 1.1 0.89 2 2 2 1.1 0 2-0.9 2-2 0-1.11-0.9-2-2-2-1.11 0-2 0.89-2 2zm90.47 0c0 1.1 0.9 2 2 2 1.11 0 2-0.9 2-2 0-1.11-0.89-2-2-2-1.1 0-2 0.89-2 2z"/>
		</g>
</g>
</svg>