<svg xmlns="http://www.w3.org/2000/svg" viewBox="2348.8 626.6 120.0 120.0">
<g id="120mm-Cooling-Fan-icon-v1">
			<g id="centre 00000170256603654546862930000003063595455759745672 ">
				<g id="centre 00000118390425310331618210000014084502184755109051 ">
					<path id="&lt;Compound Path&gt;" fill="currentColor" d="m2408.83 674.08c-6.9 0-12.5 5.6-12.5 12.5 0 6.91 5.6 12.5 12.5 12.5 6.91 0 12.5-5.59 12.5-12.5 0-6.9-5.59-12.5-12.5-12.5zm0 1c6.34 0 11.5 5.16 11.5 11.5 0 6.35-5.16 11.5-11.5 11.5-6.34 0-11.5-5.15-11.5-11.5 0-6.34 5.16-11.5 11.5-11.5z"/>
				</g>
			</g>
			<path id="cuttout 00000121985913025395456290000007985231008519922837 " fill="currentColor" stroke="currentColor" stroke-miterlimit="10" d="m2408.83 650.58c19.76 0 35.77 16.12 35.77 36 0 19.89-16.01 36-35.77 36-19.75 0-35.76-16.11-35.76-36 0-19.88 16.01-36 35.76-36z"/>
			<g id="screwholes 00000147937329290854735820000010963742334242188212 ">
				<path id="screwhole 00000076595974317311193720000001429052206916402337 " fill="currentColor" stroke="currentColor" stroke-miterlimit="10" d="m2373.57 724.49c0 1.46-1.18 2.65-2.64 2.65-1.46 0-2.65-1.19-2.65-2.65 0-1.46 1.19-2.65 2.65-2.65 1.46 0 2.64 1.19 2.64 2.65z"/>
				<path id="screwhole 00000152239652304677983170000008158937785280977570 " fill="currentColor" stroke="currentColor" stroke-miterlimit="10" d="m2444.09 648.68c0-1.46 1.19-2.65 2.65-2.65 1.46 0 2.65 1.19 2.65 2.65 0 1.46-1.19 2.65-2.65 2.65-1.46 0-2.65-1.19-2.65-2.65z"/>
				<path id="screwhole 00000041253231429896014090000007129329126088243077 " fill="currentColor" stroke="currentColor" stroke-miterlimit="10" d="m2446.74 721.84c1.46 0 2.65 1.19 2.65 2.65 0 1.46-1.19 2.65-2.65 2.65-1.46 0-2.65-1.19-2.65-2.65 0-1.46 1.19-2.65 2.65-2.65z"/>
				<path id="screwhole 00000155134791003874974310000011605422860944628619 " fill="currentColor" stroke="currentColor" stroke-miterlimit="10" d="m2370.93 651.33c-1.46 0-2.65-1.19-2.65-2.65 0-1.46 1.19-2.65 2.65-2.65 1.46 0 2.64 1.19 2.64 2.65 0 1.46-1.18 2.65-2.64 2.65z"/>
			</g>
			<g id="blade 00000001652924008328308290000009632102338570154654 ">
				<path id="right 00000096038599638394570730000009964261686983385728 " fill="currentColor" stroke="currentColor" stroke-miterlimit="10" d="m2453.83 711.33v-49.5"/>
				<path id="left 00000013167345629664125650000010042128904310628736 " fill="currentColor" stroke="currentColor" stroke-miterlimit="10" d="m2363.83 661.83v49.5"/>
				<path id="top 00000053535250323601650550000002856842344170748579 " fill="currentColor" stroke="currentColor" stroke-miterlimit="10" d="m2433.58 641.58h-49.5"/>
				<path id="bottom 00000000926962364707297350000010414492874412046233 " fill="currentColor" stroke="currentColor" stroke-miterlimit="10" d="m2384.08 731.58h49.5"/>
				<path id="main-profile 00000168093040634554452310000001543625129976132752 " fill="currentColor" stroke="currentColor" stroke-miterlimit="10" d="m2453.83 646.88c0-2.93-2.37-5.3-5.29-5.3h-9.56l-3.68 3.68h-52.94l-4.04-3.68h-9.19c-2.93 0-5.3 2.37-5.3 5.3v9.56l3.68 3.67v52.95l-3.68 3.67v9.56c0 2.92 2.37 5.29 5.3 5.29h9.19l4.04-3.67h52.94l3.68 3.67h9.56c2.92 0 5.29-2.37 5.29-5.29v-9.55l-3.67-3.68v-52.95l3.67-3.67z"/>
			</g>
			<path id="blades 00000060753142815112334120000009087198773107847843 " fill="currentColor" stroke="currentColor" stroke-miterlimit="10" d="m2426.77 689.29c4.31 3.73 6.43 9.39 5.63 15.03l-0.21 1.47m-10.14-31.5c5.6-1.04 11.35 0.83 15.26 4.97l1.02 1.08m-30.94-11.71c2.67-5.03 7.72-8.35 13.39-8.83l1.48-0.12m-28.45 16.89c-2.26-5.23-1.71-11.25 1.45-15.98l0.83-1.24m-4.53 32.77c-5.5-1.48-9.87-5.66-11.59-11.09l-0.45-1.42m22.79 23.98c-4.59 3.37-10.58 4.18-15.9 2.14l-1.39-0.53m32.96-2.87c-0.22 5.69-3.33 10.88-8.23 13.77l-1.28 0.75"/>
		</g>
</svg>