<svg xmlns="http://www.w3.org/2000/svg" viewBox="0 0 111.26 219.03">
<g transform="translate(-3469.87,-1054.47)" stroke-width="12.88">
<g id="Filling-Bottle-icon">
			<path id="bottle 00000102539021902933655780000006432115506706552754 " fill="none" stroke="currentColor" stroke-miterlimit="10" d="m3541.46 1258.5h-49.89c-3.7 0-6.7-2.79-6.7-6.23v-56.09c0-3.54 0.6-7.06 1.78-10.49l11.97-34.85c1.89-2.44 4.93-3.88 8.16-3.88h19.48c3.23 0 6.27 1.44 8.16 3.88l11.97 34.85c1.18 3.43 1.78 6.95 1.78 10.49v56.09c0 3.44-3 6.23-6.71 6.23zm-52.4-6.23h54.92m-36.17-105.31v-3.5m17.42 0v3.5"/>
			<path id="lid 00000022557952370863923470000008770474632488236459 " fill="none" stroke="currentColor" stroke-miterlimit="10" d="m3527.94 1142.29h-22.84v-12.54c0-0.89 0.73-1.61 1.62-1.61h19.6c0.89 0 1.62 0.72 1.62 1.61zm-18.95-12.5v10.86m4.98-10.86v10.86m4.97-10.86v10.86m4.98-10.86v10.86"/>
			<path id="tube" fill="none" stroke="currentColor" stroke-miterlimit="10" d="m3513.84 1128.14v-47.3c0-5.07 2.91-9.43 7.6-11.37 4.69-1.94 9.82-0.92 13.41 2.67l31.28 31.28-3.78 3.78-31.28-31.28c-2.43-2.43-5.51-2.37-7.58-1.51-2.08 0.86-4.3 3-4.3 6.43v47.3"/>
		</g>
</g>
</svg>