<svg xmlns="http://www.w3.org/2000/svg" viewBox="0 0 101.11 85.62">
<g transform="translate(-4235.14,-601.41)" stroke-width="5.95">
<g id="90-Degree-Fitting-icon">
				<g id="front 00000049937977024857139270000016668554424586965413 ">
					<path id="grip" fill="none" stroke="currentColor" stroke-linecap="round" stroke-linejoin="round" d="m4290.63 652.74h30.62v11.04h-30.62zm4 2.8v5.45m3.77-5.45v5.45m3.77-5.45v5.45m3.77-5.45v5.45m3.77-5.45v5.45m3.77-5.45v5.45m3.77-5.45v5.45"/>
					<g id="connection">
						<path id="&lt;Path&gt;" fill="none" stroke="currentColor" stroke-linecap="round" stroke-linejoin="round" d="m4315.94 633.53c0 5.53-4.48 10-10 10-5.52 0-10-4.47-10-10 0-5.52 4.48-10 10-10 5.52 0 10 4.48 10 10z"/>
						<path id="&lt;Path&gt;" fill="none" stroke="currentColor" stroke-linecap="round" stroke-linejoin="round" d="m4312.94 633.53c0 3.87-3.14 7-7 7-3.87 0-7-3.13-7-7 0-3.86 3.13-7 7-7 3.86 0 7 3.14 7 7z"/>
					</g>
					<path id="top 00000085930864528328016590000015861160101980271244 " fill="none" stroke="currentColor" stroke-linecap="round" stroke-linejoin="round" d="m4290.63 650.74v-29.33l5-5h20.62l5 5v29.33m-28.26-28.93v26.21c3.66 1.78 8.12 2.82 12.95 2.82 4.82 0 9.29-1.04 12.94-2.82v-26.21z"/>
					<path id="thread" fill="none" stroke="currentColor" stroke-miterlimit="10" d="m4296.08 664.94v3.52h19.72v-3.52m-1.63 0.88l-16.46 1.76"/>
				</g>
				<g id="side">
					<path id="grip 00000105396010760671084770000002698269052715966595 " fill="none" stroke="currentColor" stroke-linecap="round" stroke-linejoin="round" d="m4250.14 652.74h30.62v11.04h-30.62zm4 2.8v5.45m3.77-5.45v5.45m3.77-5.45v5.45m3.77-5.45v5.45m3.77-5.45v5.45m3.77-5.45v5.45m3.77-5.45v5.45"/>
					<path id="top 00000062879488815217063580000017823405633242824879 " fill="none" stroke="currentColor" stroke-linecap="round" stroke-linejoin="round" d="m4252.96 619.81v-3.4h22.8l5 5v29.33m-2.36-28.93h-25.44v26.21l-2.82 2.82"/>
					<path id="thread 00000117644370990101384400000017033947649443488386 " fill="none" stroke="currentColor" stroke-miterlimit="10" d="m4255.59 664.94v3.52h19.72v-3.52m-1.63 0.88l-16.46 1.76"/>
				</g>
			</g>
</g>
</svg>