<svg xmlns="http://www.w3.org/2000/svg" viewBox="0 0 99.54 78.63">
<g transform="translate(-4353.36,-608.40)" stroke-width="5.86">
<g id="45-Degree-Fitting-icon">
				<g id="front 00000059272140118063003190000001480978407878427570 ">
					<path id="grip 00000116952048944379963630000011527123165049805716 " fill="none" stroke="currentColor" stroke-linecap="round" stroke-linejoin="round" d="m4407.28 652.74h30.62v11.04h-30.62zm4 2.8v5.45m3.77-5.45v5.45m3.77-5.45v5.45m3.77-5.45v5.45m3.77-5.45v5.45m3.77-5.45v5.45m3.77-5.45v5.45"/>
					<g id="connection 00000169519651653322312320000005468974026278112159 ">
						<path id="&lt;Path&gt;" fill="none" stroke="currentColor" stroke-linecap="round" stroke-linejoin="round" d="m4432.59 634.78c0 4.84-4.48 8.75-10 8.75-5.52 0-10-3.91-10-8.75 0-4.83 4.48-8.75 10-8.75 5.52 0 10 3.92 10 8.75z"/>
						<path id="&lt;Path&gt;" fill="none" stroke="currentColor" stroke-linecap="round" stroke-linejoin="round" d="m4429.59 634.78c0 3.39-3.13 6.13-7 6.13-3.86 0-7-2.74-7-6.13 0-3.38 3.14-6.12 7-6.12 3.87 0 7 2.74 7 6.12z"/>
					</g>
					<path id="top 00000121994064606946305610000005548905527511585164 " fill="none" stroke="currentColor" stroke-linecap="round" stroke-linejoin="round" d="m4437.9 650.74v-22.33l-5-5h-20.62l-5 5v22.33m30.62-21.36c0 9.51-6.85 17.22-15.31 17.22-8.45 0-15.31-7.71-15.31-17.22"/>
					<path id="thread 00000072252782737106017690000009471462460889506984 " fill="none" stroke="currentColor" stroke-miterlimit="10" d="m4412.73 664.94v3.52h19.72v-3.52m-1.63 0.88l-16.46 1.76"/>
				</g>
				<g id="side 00000127028364498134402390000014201886926906727814 ">
					<path id="grip 00000154408426853838671080000012164895963680129687 " fill="none" stroke="currentColor" stroke-linecap="round" stroke-linejoin="round" d="m4368.36 652.74h30.62v11.04h-30.62zm4 2.8v5.45m3.77-5.45v5.45m3.77-5.45v5.45m3.77-5.45v5.45m3.77-5.45v5.45m3.77-5.45v5.45m3.77-5.45v5.45"/>
					<path id="thread 00000101783142063376654430000000763244239094422920 " fill="none" stroke="currentColor" stroke-miterlimit="10" d="m4373.81 664.94v3.52h19.72v-3.52m-1.63 0.88l-16.46 1.76"/>
					<path id="&lt;Compound Path&gt;" fill="none" stroke="currentColor" stroke-linecap="round" stroke-linejoin="round" d="m4368.36 650.74v-4.14l23.21-23.2 2.41 0.01 5 5v22.33m-3-22.33h-9.42"/>
				</g>
			</g>
</g>
</svg>