<svg xmlns="http://www.w3.org/2000/svg" viewBox="0 0 99.54 104.62">
<g transform="translate(-4353.36,-672.31)" stroke-width="3.74">
<g id="Straight-Fittings-icon">
				<g id="standard">
					<path id="grip 00000108305787052053929050000005631267821583753900 " fill="none" stroke="currentColor" stroke-linecap="round" stroke-linejoin="round" d="m4407.28 742.65h30.62v11.04h-30.62zm4 2.8v5.44m3.77-5.44v5.44m3.77-5.44v5.44m3.77-5.44v5.44m3.77-5.44v5.44m3.77-5.44v5.44m3.77-5.44v5.44"/>
					<path id="thread 00000000918842311147175750000004974130206408966283 " fill="none" stroke="currentColor" stroke-miterlimit="10" d="m4412.73 754.85v3.52h19.72v-3.52m-1.63 0.88l-16.46 1.76"/>
					<path id="top 00000158016901330112772280000016350433752170078603 " fill="none" stroke="currentColor" stroke-linecap="round" stroke-linejoin="round" d="m4407.28 740.65v-15.34l2-2h26.62l2 2v15.34m-2.36-14.94h-25.89m17.84 14.94l-1.13-1.13h-7.54l-1.12 1.13"/>
				</g>
				<g id="extension">
					<path id="grip 00000062901833982582629650000016807081081319611307 " fill="none" stroke="currentColor" stroke-linecap="round" stroke-linejoin="round" d="m4368.36 742.65h30.62v11.04h-30.62zm4 2.8v5.44m3.77-5.44v5.44m3.77-5.44v5.44m3.77-5.44v5.44m3.77-5.44v5.44m3.77-5.44v5.44m3.77-5.44v5.44"/>
					<path id="thread 00000174587652372298805120000010874630769756663452 " fill="none" stroke="currentColor" stroke-miterlimit="10" d="m4373.81 754.85v3.52h19.72v-3.52m-1.63 0.88l-16.46 1.76"/>
					<path id="top 00000151521195278081838430000010107067466930012824 " fill="none" stroke="currentColor" stroke-linecap="round" stroke-linejoin="round" d="m4368.36 740.65v-51.34l2-2h26.62l2 2v51.34m-2.36-50.94h-25.9m17.84 50.94l-1.12-1.13h-7.54l-1.12 1.13"/>
				</g>
			</g>
</g>
</svg>