<svg xmlns="http://www.w3.org/2000/svg" viewBox="3449.5 387.5 152.0 122.0">
<g id="Flow-Indicator-icon-v1">
			<path id="rotary-wheel 00000032613530216422855940000001809494278299849345 " fill="currentColor" stroke="currentColor" stroke-miterlimit="10" d="m3559.47 440.5c-0.42-0.37-1.09-0.45-1.68-0.23q-2.86 1.1-5.81 1.88c-2.96 0.79-5.97 1.35-8.94 1.64q-2.99 0.29-5.87 0.23-0.59-1.54-1.53-2.85 1.91-2.71 3.47-5.54 2.46-4.53 4.08-9.2 1.08-3.09 1.78-6.19c0.18-0.82-0.33-1.48-1.09-1.43-0.55 0.04-1.09 0.46-1.35 1.03q-1.24 2.8-2.77 5.44c-1.54 2.65-3.27 5.17-5.17 7.48q-1.9 2.32-3.99 4.31-1.46-0.66-3.09-0.92-0.57-3.28-1.47-6.38-1.46-4.95-3.62-9.4-1.42-2.94-3.12-5.63c-0.44-0.71-1.27-0.81-1.77-0.24-0.37 0.42-0.45 1.09-0.23 1.68q1.1 2.86 1.88 5.81c0.79 2.96 1.34 5.97 1.64 8.94q0.29 2.99 0.23 5.87-1.54 0.59-2.85 1.53-2.71-1.91-5.54-3.47-4.54-2.46-9.2-4.08-3.09-1.08-6.19-1.78c-0.82-0.18-1.48 0.33-1.43 1.09 0.04 0.55 0.46 1.09 1.03 1.35q2.8 1.24 5.44 2.77c2.65 1.54 5.17 3.27 7.48 5.17q2.32 1.9 4.31 3.99-0.66 1.46-0.92 3.09-3.28 0.57-6.38 1.47-4.95 1.46-9.4 3.62-2.94 1.42-5.63 3.12c-0.71 0.44-0.81 1.27-0.24 1.77 0.42 0.37 1.09 0.45 1.68 0.23q2.86-1.1 5.81-1.88c2.96-0.79 5.97-1.34 8.94-1.64q2.99-0.29 5.87-0.23 0.59 1.54 1.53 2.85-1.91 2.71-3.47 5.54-2.46 4.54-4.08 9.2-1.08 3.09-1.78 6.19c-0.18 0.82 0.33 1.48 1.09 1.43 0.55-0.04 1.09-0.46 1.35-1.03q1.24-2.8 2.77-5.44c1.54-2.65 3.27-5.17 5.17-7.48q1.9-2.32 3.99-4.31 1.46 0.66 3.09 0.92 0.57 3.28 1.47 6.38 1.46 4.95 3.62 9.4 1.42 2.94 3.12 5.63c0.44 0.71 1.27 0.81 1.77 0.24 0.37-0.42 0.45-1.09 0.23-1.68q-1.1-2.86-1.88-5.81c-0.79-2.96-1.35-5.97-1.64-8.94q-0.29-2.99-0.23-5.87 1.53-0.59 2.85-1.53 2.71 1.91 5.54 3.47 4.54 2.46 9.2 4.08 3.09 1.08 6.19 1.78c0.82 0.18 1.48-0.33 1.43-1.09-0.04-0.55-0.46-1.09-1.03-1.35q-2.8-1.24-5.44-2.77c-2.65-1.54-5.17-3.27-7.48-5.17q-2.32-1.9-4.31-3.99 0.66-1.46 0.92-3.09 3.28-0.57 6.38-1.47 4.95-1.46 9.4-3.62 2.94-1.42 5.63-3.12c0.71-0.44 0.81-1.27 0.24-1.77zm-33.97 12.97c-2.76 0-5-2.24-5-5 0-2.76 2.24-5 5-5 2.76 0 5 2.24 5 5 0 2.76-2.24 5-5 5z"/>
			<path id="case 00000052072894683057811960000002218134938784289680 " fill="currentColor" stroke="currentColor" stroke-miterlimit="10" d="m3559.5 402.47h-68c-6.63 0-12 5.37-12 12v68c0 6.63 5.37 12 12 12h68c6.63 0 12-5.37 12-12v-68c0-6.63-5.37-12-12-12zm-34 84c-20.99 0-38-17.01-38-38 0-20.99 17.01-38 38-38 20.99 0 38 17.01 38 38 0 20.99-17.01 38-38 38z"/>
			<g id="fixings 00000007401836800706813740000000672613705256460218 ">
				<path id="fixing-L 00000148629717630188910740000007789904111590715293 " fill="currentColor" stroke="currentColor" stroke-linecap="round" stroke-linejoin="round" d="m3477.86 483.42h-8.38c-2.76 0-5-2.24-5-5v-20.62c0-2.76 2.24-5 5-5h8.38m-8.38 2.37v25.89"/>
				<path id="fixing-R 00000108275323450129011080000012671061279481812889 " fill="currentColor" stroke="currentColor" stroke-linecap="round" stroke-linejoin="round" d="m3573.14 452.8h8.38c2.76 0 5 2.24 5 5v20.62c0 2.76-2.24 5-5 5h-8.38m8.38-28.25v25.89"/>
			</g>
		</g>
</svg>