<svg xmlns="http://www.w3.org/2000/svg" viewBox="3708.3 382.7 174.4 147.0">
<g id="Flow-Indicator-icon-v2">
			<path id="rotary-wheel 00000182505834559177548790000012937683108995389066 " fill="currentColor" stroke="currentColor" stroke-miterlimit="10" d="m3823 445.97h-15.25c-0.33-1.6-0.96-3.08-1.82-4.39l10.78-10.79c0.98-0.97 0.98-2.56 0-3.53-0.97-0.98-2.56-0.98-3.53 0l-10.79 10.78c-1.31-0.86-2.79-1.49-4.39-1.82v-15.25c0-1.38-1.12-2.5-2.5-2.5-1.38 0-2.5 1.12-2.5 2.5v15.25c-1.6 0.33-3.08 0.96-4.39 1.82l-10.79-10.78c-0.97-0.98-2.56-0.98-3.53 0-0.98 0.97-0.98 2.56 0 3.53l10.78 10.79c-0.86 1.31-1.5 2.79-1.82 4.39h-15.25c-1.38 0-2.5 1.12-2.5 2.5 0 1.38 1.12 2.5 2.5 2.5h15.25c0.32 1.6 0.96 3.08 1.82 4.39l-10.78 10.79c-0.98 0.97-0.98 2.56 0 3.53 0.97 0.98 2.56 0.98 3.53 0l10.79-10.78c1.31 0.86 2.79 1.5 4.39 1.82v15.25c0 1.38 1.12 2.5 2.5 2.5 1.38 0 2.5-1.12 2.5-2.5v-15.25c1.6-0.32 3.08-0.96 4.39-1.82l10.79 10.78c0.97 0.98 2.56 0.98 3.53 0 0.98-0.97 0.98-2.56 0-3.53l-10.78-10.79c0.86-1.31 1.49-2.79 1.82-4.39h15.25c1.38 0 2.5-1.12 2.5-2.5 0-1.38-1.12-2.5-2.5-2.5zm-27.5 7.5c-2.76 0-5-2.24-5-5 0-2.76 2.24-5 5-5 2.76 0 5 2.24 5 5 0 2.76-2.24 5-5 5z"/>
			<g id="screw-holes 00000129181303876892601090000012096857508579686321 ">
				<path id="&lt;Path&gt;" fill="currentColor" stroke="currentColor" stroke-miterlimit="10" d="m3798 406.47c0 1.38-1.12 2.5-2.5 2.5-1.38 0-2.5-1.12-2.5-2.5 0-1.38 1.12-2.5 2.5-2.5 1.38 0 2.5 1.12 2.5 2.5z"/>
				<path id="&lt;Path&gt;" fill="currentColor" stroke="currentColor" stroke-miterlimit="10" d="m3837.5 450.97c-1.38 0-2.5-1.12-2.5-2.5 0-1.38 1.12-2.5 2.5-2.5 1.38 0 2.5 1.12 2.5 2.5 0 1.38-1.12 2.5-2.5 2.5z"/>
				<path id="&lt;Path&gt;" fill="currentColor" stroke="currentColor" stroke-miterlimit="10" d="m3753.5 445.97c1.38 0 2.5 1.12 2.5 2.5 0 1.38-1.12 2.5-2.5 2.5-1.38 0-2.5-1.12-2.5-2.5 0-1.38 1.12-2.5 2.5-2.5z"/>
				<path id="&lt;Path&gt;" fill="currentColor" stroke="currentColor" stroke-miterlimit="10" d="m3793 490.47c0-1.38 1.12-2.5 2.5-2.5 1.38 0 2.5 1.12 2.5 2.5 0 1.38-1.12 2.5-2.5 2.5-1.38 0-2.5-1.12-2.5-2.5z"/>
			</g>
			<path id="case 00000124147360359376642800000014329746904838171308 " fill="currentColor" stroke="currentColor" stroke-linejoin="round" d="m3841.16 440.53v-0.01l-7.35-3.58v0.02c-3.85-12.83-13.97-22.95-26.8-26.8h0.02l-3.58-7.35h-0.01c-1.38-3-4.42-5.09-7.94-5.09-3.53 0-6.56 2.09-7.94 5.09h-0.01l-3.58 7.35h0.02c-12.83 3.85-22.95 13.97-26.8 26.8v-0.02l-7.35 3.58v0.01c-3 1.38-5.09 4.42-5.09 7.94 0 3.53 2.09 6.56 5.09 7.94v0.01l7.35 3.58v-0.02c3.85 12.83 13.97 22.95 26.8 26.8h-0.02l3.58 7.35h0.01c1.38 3 4.41 5.09 7.94 5.09 3.53 0 6.56-2.09 7.94-5.09h0.01l3.58-7.35h-0.02c12.83-3.85 22.95-13.97 26.8-26.8v0.02l7.35-3.58v-0.01c3-1.38 5.09-4.41 5.09-7.94 0-3.53-2.09-6.56-5.09-7.94zm-45.66 40.44c-17.95 0-32.5-14.55-32.5-32.5 0-17.95 14.55-32.5 32.5-32.5 17.95 0 32.5 14.55 32.5 32.5 0 17.95-14.55 32.5-32.5 32.5z"/>
			<g id="pipes 00000008142312803676059170000011875365570956516237 ">
				<path id="pipe-L 00000076568200798407291680000002619838187743968138 " fill="currentColor" stroke="currentColor" stroke-miterlimit="10" d="m3769.33 480.97h-23.52m9.1-19.72h-9.1"/>
				<path id="pipe-R 00000107551263760802277060000012255880105187841971 " fill="currentColor" stroke="currentColor" stroke-miterlimit="10" d="m3845.19 461.25h-9.1m-14.42 19.72h23.52"/>
			</g>
			<g id="fixings 00000083772583203247767130000004246918905869431486 ">
				<path id="fixing-L 00000044135357525169666490000009103402312493142406 " fill="currentColor" stroke="currentColor" stroke-linecap="round" stroke-linejoin="round" d="m3728.28 455.8h16.38v30.62h-16.38c-1.95-1.95-3.05-3.05-5-5v-20.62c1.95-1.95 3.05-3.04 5-5zm0 2.37v25.89"/>
				<path id="fixing-R 00000009579946143298296390000003493900406301346985 " fill="currentColor" stroke="currentColor" stroke-linecap="round" stroke-linejoin="round" d="m3846.34 455.8h16.38c1.95 1.96 3.05 3.05 5 5v20.62c-1.95 1.95-3.05 3.05-5 5h-16.38zm16.38 2.36v25.89"/>
			</g>
		</g>
</svg>