<svg xmlns="http://www.w3.org/2000/svg" viewBox="0 0 259.94 135.00">
<g transform="translate(-585.53,-1099.13)">
<g id="Graphics-Card-reference-icon-v3">
			<path id="IO 00000060010796969215084800000015461775057256764328 " fill="currentColor" stroke="currentColor" stroke-miterlimit="10" d="m607.59 1219.13v-84.08h-7.06"/>
			<path id="connector 00000080195663242443338120000006251259698079527856 " fill="currentColor" stroke="currentColor" stroke-linecap="round" stroke-linejoin="round" d="m634.14 1196.8v10.83h13.23v-7.18c0-0.63 0.51-1.15 1.14-1.15h0.42c0.64-0.01 1.16 0.51 1.16 1.15v7.18h63.39v-7.18c0-0.63 0.52-1.15 1.15-1.15h0.42c0.64-0.01 1.16 0.51 1.16 1.15v3.73h6.78c0.64 0 1.15-0.51 1.15-1.15v-2.98h-3.39v-3.25"/>
			<g id="fan 00000127745818743023544920000009826389957083292041 ">
				<path id="cutout 00000098931012693804085550000012809353662471417474 " fill="currentColor" stroke="currentColor" stroke-miterlimit="10" d="m814.57 1138.29c11.07 11.14 11.07 29.19 0 40.32-11.07 11.14-29.03 11.14-40.1 0-11.07-11.13-11.07-29.18 0-40.32 11.07-11.13 29.03-11.13 40.1 0z"/>
				<g id="centre 00000176751571976400415960000010491177202315561370 ">
					<g id="centre 00000062900521279993428720000008122862132387893393 ">
						<path id="&lt;Compound Path&gt;" fill="currentColor" d="m794.52 1148.61c-5.41 0-9.79 4.41-9.79 9.84 0 5.44 4.38 9.85 9.79 9.85 5.41 0 9.79-4.41 9.79-9.85 0-5.43-4.38-9.84-9.79-9.84zm0 1c4.85 0 8.79 3.97 8.79 8.84 0 4.88-3.94 8.85-8.79 8.85-4.85 0-8.79-3.97-8.79-8.85 0-4.87 3.94-8.84 8.79-8.84z"/>
					</g>
				</g>
				<path id="blades 00000004522374416001337610000006468719350664832956 " fill="currentColor" stroke="currentColor" stroke-linecap="round" stroke-linejoin="round" d="m785.66 1148.89c0 0 1.65-4.63 2.99-8.41 2.25-6.36 8.59-8.98 13.38-7.26m-19.95 2.05c-4.6 2.19-7.23 8.55-4.35 14.65 1.7 3.62 3.8 8.07 3.8 8.07m-12.11-7.09c-1.71 4.82 0.9 11.19 7.23 13.46 3.75 1.35 8.36 3 8.36 3m-13.55 3.6c2.18 4.62 8.5 7.27 14.57 4.38 3.6-1.72 8.03-3.83 8.03-3.83m-7.05 12.18c4.79 1.72 11.12-0.91 13.38-7.27 1.34-3.77 2.99-8.41 2.99-8.41m3.58 13.63c4.59-2.19 7.23-8.55 4.35-14.65-1.71-3.62-3.8-8.07-3.8-8.07m12.11 7.08c1.71-4.81-0.9-11.18-7.23-13.45-3.75-1.35-8.36-3-8.36-3m13.55-3.6c-2.18-4.62-8.51-7.27-14.58-4.38-3.6 1.72-8.02 3.83-8.02 3.83"/>
			</g>
			<g id="fan 00000063609444691710501450000007074348826458428594 ">
				<path id="cutout 00000013156097603412434300000013852318213851748767 " fill="currentColor" stroke="currentColor" stroke-miterlimit="10" d="m742.67 1138.4c11.07 11.08 11.07 29.03 0 40.1-11.07 11.08-29.03 11.08-40.1 0-11.07-11.07-11.07-29.02 0-40.1 11.07-11.07 29.03-11.07 40.1 0z"/>
				<g id="centre 00000044893553569768878740000008649190050777298823 ">
					<g id="centre 00000068655162728621987050000000847880626535867805 ">
						<path id="&lt;Compound Path&gt;" fill="currentColor" d="m722.62 1148.66c-5.41 0-9.79 4.39-9.79 9.79 0 5.41 4.38 9.8 9.79 9.8 5.41 0 9.79-4.39 9.79-9.8 0-5.4-4.38-9.79-9.79-9.79zm0 1c4.85 0 8.79 3.95 8.79 8.79 0 4.85-3.94 8.8-8.79 8.8-4.85 0-8.79-3.95-8.79-8.8 0-4.84 3.94-8.79 8.79-8.79z"/>
					</g>
				</g>
				<path id="blades 00000144335754794456306700000003027556316492339088 " fill="currentColor" stroke="currentColor" stroke-linecap="round" stroke-linejoin="round" d="m713.76 1148.95c0 0 1.65-4.62 2.99-8.37 2.26-6.32 8.59-8.93 13.38-7.22m-19.95 2.04c-4.59 2.18-7.23 8.5-4.35 14.57 1.71 3.6 3.8 8.03 3.8 8.03m-12.11-7.05c-1.71 4.79 0.9 11.12 7.23 13.38 3.75 1.34 8.36 2.98 8.36 2.98m-13.55 3.58c2.18 4.6 8.5 7.23 14.57 4.35 3.6-1.7 8.03-3.8 8.03-3.8m-7.05 12.11c4.79 1.71 11.12-0.9 13.38-7.22 1.34-3.76 2.99-8.37 2.99-8.37m3.58 13.55c4.59-2.18 7.23-8.5 4.35-14.57-1.71-3.6-3.8-8.03-3.8-8.03m12.11 7.05c1.71-4.79-0.9-11.12-7.23-13.38-3.75-1.34-8.36-2.98-8.36-2.98m13.55-3.58c-2.18-4.6-8.51-7.23-14.58-4.36-3.6 1.71-8.02 3.81-8.02 3.81"/>
			</g>
			<g id="fan 00000064326054097512621710000013451453966224966847 ">
				<path id="cutout 00000045616918099040739540000009642480625276990624 " fill="currentColor" stroke="currentColor" stroke-miterlimit="10" d="m670.77 1138.29c11.07 11.14 11.07 29.19 0 40.32-11.07 11.14-29.03 11.14-40.1 0-11.07-11.13-11.07-29.18 0-40.32 11.07-11.13 29.03-11.13 40.1 0z"/>
				<g id="centre 00000174576580931086008920000005547811228199366306 ">
					<g id="centre 00000142141416290899669850000012531193196637531038 ">
						<path id="&lt;Compound Path&gt;" fill="currentColor" d="m650.72 1148.61c-5.41 0-9.79 4.41-9.79 9.84 0 5.44 4.38 9.85 9.79 9.85 5.41 0 9.79-4.41 9.79-9.85 0-5.43-4.38-9.84-9.79-9.84zm0 1c4.85 0 8.79 3.97 8.79 8.84 0 4.88-3.94 8.85-8.79 8.85-4.85 0-8.79-3.97-8.79-8.85 0-4.87 3.94-8.84 8.79-8.84z"/>
					</g>
				</g>
				<path id="blades 00000136389882256743121670000013576239124746847652 " fill="currentColor" stroke="currentColor" stroke-linecap="round" stroke-linejoin="round" d="m641.86 1148.89c0 0 1.65-4.63 2.99-8.41 2.26-6.36 8.59-8.98 13.38-7.26m-19.95 2.05c-4.59 2.19-7.23 8.55-4.35 14.65 1.71 3.62 3.8 8.07 3.8 8.07m-12.11-7.09c-1.71 4.82 0.9 11.19 7.23 13.46 3.75 1.35 8.36 3 8.36 3m-13.55 3.6c2.18 4.62 8.51 7.27 14.58 4.38 3.6-1.72 8.02-3.83 8.02-3.83m-7.05 12.18c4.79 1.72 11.12-0.91 13.38-7.27 1.34-3.77 2.99-8.41 2.99-8.41m3.58 13.63c4.59-2.19 7.23-8.55 4.35-14.65-1.71-3.62-3.8-8.07-3.8-8.07m12.11 7.08c1.71-4.81-0.9-11.18-7.23-13.45-3.75-1.35-8.36-3-8.36-3m13.55-3.6c-2.18-4.62-8.51-7.27-14.58-4.38-3.6 1.72-8.02 3.83-8.02 3.83"/>
			</g>
			<path id="case 00000172433537127098280880000006636277497997584541 " fill="currentColor" stroke="currentColor" stroke-linecap="round" stroke-linejoin="round" d="m713.36 1122.5h-6.16l-4.76 4.96m10.55-0.14l4.62-4.82h5.87m-0.37 4.82l4.62-4.82h5.63m-0.37 4.82l4.62-4.82h86.35l6.51 6.9v58.11l-6.51 6.89h-54.46l-19.31-20.46m-70.42-51.44h23.04m-0.69 71.9h5.63l4.63-4.81m-20.37 4.81h5.63l4.62-4.81m-40.47 0l-4.62 4.81h-35.89l-6.51-6.89v-58.11l6.51-6.9h54.46l19.31 20.47m-23.28 51.43h5.63l4.62-4.81m-20.37 4.81h5.64l4.62-4.81m9.98 4.81h5.63l4.62-4.81m73.33 4.81h-53.23"/>
			<path id="fin 00000174566833105184829220000017945326307263946653 " fill="currentColor" stroke="currentColor" stroke-linecap="round" stroke-miterlimit="10" d="m817.36 1120.66l-6.17-6.53h-51.05l-6.17 6.53"/>
		</g>
</g>
</svg>