<svg xmlns="http://www.w3.org/2000/svg" viewBox="0 0 223.46 165.29">
<g transform="translate(-63.77,-1777.46)">
<g id="Active-Backplate-icon-v1 00000054266966612174649530000000551850756441053348 ">
			<g id="inlet-outlet 00000061473048082692079640000006547871250704065696 ">
				<path id="inlet 00000051383606323060940470000002959045690530994609 " fill="currentColor" stroke="currentColor" stroke-miterlimit="10" d="m155.27 1916.27c0-2.21-1.79-4-4-4-2.21 0-4 1.79-4 4 0 2.21 1.79 4 4 4 2.21 0 4-1.79 4-4z"/>
				<path id="profile 00000110433427945768398870000015164001528385803198 " fill="currentColor" stroke="currentColor" stroke-miterlimit="10" d="m172.07 1916.27c0-2.21-1.79-4-4-4-2.21 0-4 1.79-4 4 0 2.21 1.79 4 4 4 2.21 0 4-1.79 4-4z"/>
				<path id="inlet-bliock 00000108291450482346025710000004044649343459583392 " fill="currentColor" stroke="currentColor" stroke-miterlimit="10" d="m186.34 1909.34v14.41l-10 4h-33.33l-10-4v-14.41m10 16.66v-16.66m33.33 16.66v-16.66"/>
			</g>
			<path id="profile 00000117664249586241363150000016726836353693520789 " fill="currentColor" stroke="currentColor" stroke-miterlimit="10" d=""/>
			<path id="profile-B 00000083081304304780613140000010809721808659464839 " fill="currentColor" stroke="currentColor" stroke-linecap="round" stroke-miterlimit="10" d="m223.41 1893.35h-24v-50.44h24zm-24-50.45l-8.79 2v46.45l8.79 2m24 0l8.79-2v-46.45l-8.79-2"/>
			<path id="plate 00000016042547248890843210000012267508829384986815 " fill="currentColor" stroke="currentColor" stroke-linecap="round" stroke-miterlimit="10" d="m207.41 1907.28h-97.86v-1c0-1.1-0.9-2-2-2h-6.93c-1.11 0-2 0.9-2 2v1h-19.85v-76.54l193.46 0.09v66.45h-38.63c-2.21 0-4 1.79-4 4v6h-12.99m52.62-68.93h-114.01c-1.06 0-2.08 0.42-2.83 1.17l-8.21 8.21c-0.75 0.75-1.77 1.17-2.83 1.17h-59.58"/>
			<g id="fixings 00000089548172973001178710000005237262991536683927 ">
				<path id="rivet 00000053546838311476847520000004694299374460679345 " fill="currentColor" stroke="currentColor" stroke-linecap="round" stroke-miterlimit="10" d="m220.91 1887.35c0 0.83-0.67 1.5-1.5 1.5-0.83 0-1.5-0.67-1.5-1.5 0-0.82 0.67-1.5 1.5-1.5 0.83 0 1.5 0.68 1.5 1.5z"/>
				<path id="rivet 00000103244239999458590250000014808936960029339832 " fill="currentColor" stroke="currentColor" stroke-linecap="round" stroke-miterlimit="10" d="m204.91 1887.35c0 0.83-0.67 1.5-1.5 1.5-0.83 0-1.5-0.67-1.5-1.5 0-0.82 0.67-1.5 1.5-1.5 0.83 0 1.5 0.68 1.5 1.5z"/>
				<path id="rivet 00000167355184517106331480000009936607910624470203 " fill="currentColor" stroke="currentColor" stroke-linecap="round" stroke-miterlimit="10" d="m220.91 1848.91c0 0.83-0.67 1.5-1.5 1.5-0.83 0-1.5-0.67-1.5-1.5 0-0.83 0.67-1.5 1.5-1.5 0.83 0 1.5 0.67 1.5 1.5z"/>
				<path id="rivet 00000151539769359811167600000007736548021915005883 " fill="currentColor" stroke="currentColor" stroke-linecap="round" stroke-miterlimit="10" d="m204.91 1848.91c0 0.83-0.67 1.5-1.5 1.5-0.83 0-1.5-0.67-1.5-1.5 0-0.83 0.67-1.5 1.5-1.5 0.83 0 1.5 0.67 1.5 1.5z"/>
				<path id="fixing 00000132800803407945782490000000910189690610931370 " fill="currentColor" stroke="currentColor" stroke-linecap="round" stroke-miterlimit="10" d="m140.02 1890.72c0 0.83-0.68 1.5-1.5 1.5-0.83 0-1.5-0.67-1.5-1.5 0-0.83 0.67-1.5 1.5-1.5 0.82 0 1.5 0.67 1.5 1.5z"/>
				<path id="fixing 00000152223955900042289510000009343771659890905000 " fill="currentColor" stroke="currentColor" stroke-linecap="round" stroke-miterlimit="10" d="m268.13 1884.61c0 0.83-0.67 1.5-1.5 1.5-0.83 0-1.5-0.67-1.5-1.5 0-0.83 0.67-1.5 1.5-1.5 0.83 0 1.5 0.67 1.5 1.5z"/>
				<path id="fixing 00000165943412877966141060000006924448413294669725 " fill="currentColor" stroke="currentColor" stroke-linecap="round" stroke-miterlimit="10" d="m224.91 1902.01c0 0.83-0.67 1.5-1.5 1.5-0.83 0-1.5-0.67-1.5-1.5 0-0.83 0.67-1.5 1.5-1.5 0.83 0 1.5 0.67 1.5 1.5z"/>
				<path id="fixing 00000004547378421243378840000008709549683647166602 " fill="currentColor" stroke="currentColor" stroke-linecap="round" stroke-miterlimit="10" d="m87.38 1902.01c0 0.83-0.68 1.5-1.5 1.5-0.83 0-1.5-0.67-1.5-1.5 0-0.83 0.67-1.5 1.5-1.5 0.82 0 1.5 0.67 1.5 1.5z"/>
				<path id="fixing 00000068675845994675207740000010645941286687598232 " fill="currentColor" stroke="currentColor" stroke-linecap="round" stroke-miterlimit="10" d="m268.13 1834.25c0 0.83-0.67 1.5-1.5 1.5-0.83 0-1.5-0.67-1.5-1.5 0-0.83 0.67-1.5 1.5-1.5 0.83 0 1.5 0.67 1.5 1.5z"/>
				<path id="fixing 00000124150628776254149970000011405659081541702052 " fill="currentColor" stroke="currentColor" stroke-linecap="round" stroke-miterlimit="10" d="m224.23 1834.25c0 0.83-0.67 1.5-1.5 1.5-0.82 0-1.5-0.67-1.5-1.5 0-0.83 0.68-1.5 1.5-1.5 0.83 0 1.5 0.67 1.5 1.5z"/>
				<path id="fixing 00000062194420028687793950000007571241065065849776 " fill="currentColor" stroke="currentColor" stroke-linecap="round" stroke-miterlimit="10" d="m180.34 1834.25c0 0.83-0.68 1.5-1.5 1.5-0.83 0-1.5-0.67-1.5-1.5 0-0.83 0.67-1.5 1.5-1.5 0.82 0 1.5 0.67 1.5 1.5z"/>
				<path id="fixing 00000116205495197460455630000005218227455064530105 " fill="currentColor" stroke="currentColor" stroke-linecap="round" stroke-miterlimit="10" d="m108.55 1836.75c0 0.83-0.68 1.5-1.5 1.5-0.83 0-1.5-0.67-1.5-1.5 0-0.83 0.67-1.5 1.5-1.5 0.82 0 1.5 0.67 1.5 1.5z"/>
			</g>
			<path id="branding 00000051375013600983402690000013861986548683130301 " fill="currentColor" stroke="currentColor" stroke-linecap="round" stroke-miterlimit="10" d="m214.41 1862.84v22.91m-4-9.29v9.29"/>
			<path id="pipe 00000090256356286649952270000006472155881446791069 " fill="currentColor" stroke="currentColor" stroke-miterlimit="10" d="m214.41 1893.35v11.92c0 6.61-5.39 12-12 12h-16.07m0-4h16.07c4.41 0 8-3.59 8-8v-11.92"/>
			<path id="product 00000150068966906350733300000015468573591848840120 " fill="currentColor" stroke="currentColor" stroke-linecap="round" stroke-miterlimit="10" d="m100.6 1862.84h67.47m-67.47 12h67.47"/>
		</g>
</g>
</svg>