<svg xmlns="http://www.w3.org/2000/svg" viewBox="0 0 219.56 114.53">
<g transform="translate(-65.72,-2014.26)" stroke-width="12.92">
<g id="Graphics-Block-founders-edition-icon-v1 00000046302777869840343280000008173462337763218332 ">
				<path id="outer-main 00000157986619395078044850000008006570850991062444 " fill="currentColor" stroke="currentColor" stroke-miterlimit="10" d=""/>
				<path id="outer-main 00000079475160901159717060000002811309411339701640 " fill="currentColor" stroke="currentColor" stroke-miterlimit="10" d="m154.38 2076.64v-7.64m6.22 7.64v-7.64m-18.39 0v7.64m-6.75 0v-7.64m21.97 7.64v-7.64m-18.59 7.64v-7.64"/>
				<path id="outer-main 00000160155856010686289440000003844262741016744633 " fill="currentColor" stroke="currentColor" stroke-miterlimit="10" d="m211.84 2041.1l19.58 19.58c1.52 1.52 2.37 3.58 2.37 5.73v33.86c0 2.24-1.82 4.06-4.05 4.06h-111.87c-2.16 0-4.22-0.86-5.74-2.38l-19.58-19.58c-1.52-1.52-2.37-3.58-2.37-5.73v-33.86c0-2.24 1.81-4.06 4.05-4.06h111.87c2.15 0 4.22 0.86 5.74 2.38zm-51.24 26.01h-6.22v-4.24l7.25-7.25h39.58l11.04 11.04c1.14 1.14 2.68 1.78 4.3 1.78h17.24v-2.03c0-2.15-0.85-4.21-2.37-5.73l-4.41-4.4h-7.94l-11.04-11.04c-1.14-1.14-2.69-1.78-4.3-1.78h-44.62c-1.61 0-3.16 0.64-4.3 1.78l-10.81 10.81c-1.14 1.14-1.79 2.69-1.79 4.3v6.76h-6.75v-6.76c0-1.61-0.64-3.16-1.79-4.3l-10.81-10.81c-1.14-1.14-2.69-1.78-4.3-1.78h-17.9c-3.36 0-6.08 2.72-6.08 6.08v24.72c0 1.62 0.64 3.16 1.78 4.3l19.58 19.58c1.14 1.14 2.69 1.78 4.3 1.78q0.01 0 0.02 0l83.49-0.32c1.61-0.01 3.14-0.65 4.28-1.78l11.04-11.04h14.72v-12.17h-17.24c-1.62 0-3.16 0.64-4.3 1.78l-11.05 11.05-5.28 0.02v-2.17l4.33-4.32c1.14-1.14 1.78-2.69 1.78-4.3v-3.83c0-1.61-0.64-3.16-1.78-4.3l-7.09-7.08c-1.14-1.15-2.69-1.79-4.3-1.79h-20.83c-1.61 0-3.16 0.65-4.3 1.79l-1.35 1.35c-1.14 1.14-1.78 2.68-1.78 4.3zm-6.22 11.69c0 3.36-2.72 6.08-6.08 6.08-3.36 0-6.09-2.72-6.09-6.08h-6.75c0 3.36-2.73 6.08-6.09 6.08-3.35 0-6.08-2.72-6.08-6.08v-15.93l-7.25-7.25h-9.3v16.12l16.01 16.01 61.01-0.24v-4.74c0-1.61 0.64-3.16 1.78-4.3l3.71-3.72-2.91-2.91h-10.38l-3.2 3.19v3.77c0 3.36-2.72 6.08-6.08 6.08-3.36 0-6.08-2.72-6.08-6.08zm-31.09 0c0 3.36 2.72 6.08 6.08 6.08 3.36 0 6.08-2.72 6.08-6.08m6.76 0c0 3.36 2.72 6.08 6.08 6.08 3.36 0 6.09-2.72 6.09-6.08"/>
				<path id="block 00000069380078212725977280000002444887208425868467 " fill="currentColor" stroke="currentColor" stroke-miterlimit="10" d="m80.72 2105.68v-68.31c0-4.48 3.63-8.11 8.11-8.11h173.34c4.48 0 8.11 3.63 8.11 8.11v68.31c0 4.48-3.63 8.11-8.11 8.11h-173.34c-4.48 0-8.11-3.63-8.11-8.11zm189.56-65.6l-16.59 16.59c-1.02 1.02-1.59 2.39-1.59 3.83v22.06c0 1.43 0.57 2.8 1.59 3.82l16.59 16.6"/>
				<path id="in-out-channels 00000172416506315887646270000000130380578508033417 " fill="currentColor" stroke="currentColor" stroke-miterlimit="10" d="m253.43 2056.95h16.85m-18.18 10.81h18.18m-18.18 7.53h18.18m-16.85 10.81h16.85"/>
				<path id="in-out-channels 00000091694033468085033010000012792248731289771437 " fill="currentColor" stroke="currentColor" stroke-miterlimit="10" d="m252.1 2071.53h18.18m-12.52 18.92h12.52m-12.52-37.85h12.52"/>
			</g>
</g>
</svg>