<svg xmlns="http://www.w3.org/2000/svg" viewBox="864.0 1106.6 243.1 127.5">
<g id="Graphics-Card-reference-icon-v4 00000070088818441933883940000006964392781705457563 ">
			<path id="IO 00000053526633935271368410000010996019665423910052 " fill="currentColor" stroke="currentColor" stroke-linecap="round" stroke-linejoin="round" d="m885.83 1219.13v-81.92h-6.88"/>
			<path id="connector 00000029031439074195721690000010077911800506598794 " fill="currentColor" stroke="currentColor" stroke-linecap="round" stroke-linejoin="round" d="m916.17 1201.86v10.55h12.89v-7c0-0.62 0.5-1.12 1.11-1.12h0.42c0.62-0.01 1.12 0.49 1.12 1.12v7h61.77v-7c0-0.62 0.5-1.12 1.11-1.12h0.42c0.62-0.01 1.12 0.49 1.12 1.12v3.64h6.61c0.62 0 1.12-0.5 1.12-1.12v-2.91h-3.3v-3.16"/>
			<g id="fan 00000052078447771106406370000015410512739432400795 ">
				<path id="cutout 00000167387220902178922170000005922060276999122568 " fill="currentColor" stroke="currentColor" stroke-linecap="round" stroke-linejoin="round" d="m949.16 1143.18c9.3 9.3 9.3 24.37 0 33.67-9.3 9.29-24.37 9.29-33.66 0-9.3-9.3-9.3-24.37 0-33.67 9.29-9.29 24.36-9.29 33.66 0z"/>
				<g id="centre 00000103957403050406979390000011257343737722830736 ">
					<g id="centre 00000114758763658101413310000016367100544939682965 ">
						<path id="&lt;Compound Path&gt;" fill="currentColor" d="m932.33 1153.01c-3.87 0-7 3.14-7 7 0 3.87 3.13 7 7 7 3.87 0 7-3.13 7-7 0-3.86-3.13-7-7-7zm0 1c3.31 0 6 2.7 6 6 0 3.31-2.69 6-6 6-3.31 0-6-2.69-6-6 0-3.3 2.69-6 6-6z"/>
					</g>
				</g>
				<path id="blades 00000147190119187719193640000012752372533955145379 " fill="currentColor" stroke="currentColor" stroke-linecap="round" stroke-linejoin="round" d="m924.89 1152.03c0 0 1.39-3.87 2.51-7.02 1.9-5.31 7.21-7.5 11.23-6.06m-27.37 14.76c-1.43 4.02 0.76 9.34 6.07 11.23 3.15 1.13 7.02 2.51 7.02 2.51m1.68 13.63c4.02 1.44 9.33-0.75 11.23-6.06 1.12-3.15 2.51-7.02 2.51-7.02m13.63-1.68c1.43-4.02-0.76-9.34-6.07-11.24-3.15-1.12-7.02-2.5-7.02-2.5"/>
			</g>
			<g id="fan 00000093868326981425692130000015029934366567484548 ">
				<path id="cutout 00000110454811914370182480000006510913339981815963 " fill="currentColor" stroke="currentColor" stroke-linecap="round" stroke-linejoin="round" d="m1011.76 1142.19c9.84 9.85 9.84 25.8 0 35.65-9.84 9.84-25.8 9.84-35.64 0-9.85-9.85-9.85-25.8 0-35.65 9.84-9.84 25.8-9.84 35.64 0z"/>
				<g id="centre 00000111875590040776076750000009376476296243058594 ">
					<g id="centre 00000107559479320485112840000000552591504131885227 ">
						<path id="&lt;Compound Path&gt;" fill="currentColor" d="m993.94 1153.01c-3.87 0-7 3.14-7 7 0 3.87 3.13 7 7 7 3.86 0 7-3.13 7-7 0-3.86-3.14-7-7-7zm0 1c3.31 0 6 2.7 6 6 0 3.31-2.69 6-6 6-3.31 0-6-2.69-6-6 0-3.3 2.69-6 6-6z"/>
					</g>
				</g>
				<path id="blades 00000131355246624328174750000004751355548774730168 " fill="currentColor" stroke="currentColor" stroke-linecap="round" stroke-linejoin="round" d="m986.06 1151.56c0 0 1.47-4.1 2.66-7.43 2-5.62 7.63-7.94 11.89-6.42m-28.98 15.63c-1.52 4.26 0.8 9.89 6.42 11.89 3.34 1.19 7.44 2.66 7.44 2.66m1.77 14.43c4.26 1.52 9.89-0.8 11.9-6.42 1.19-3.34 2.65-7.44 2.65-7.44m14.43-1.77c1.52-4.26-0.8-9.89-6.42-11.9-3.33-1.19-7.43-2.65-7.43-2.65"/>
			</g>
			<g id="fan 00000035515027597825137960000017638549357180247196 ">
				<path id="cutout 00000012461187785297796490000009394318501777840558 " fill="currentColor" stroke="currentColor" stroke-linecap="round" stroke-linejoin="round" d="m1072.37 1143.18c9.3 9.3 9.3 24.37 0 33.67-9.29 9.29-24.36 9.29-33.66 0-9.29-9.3-9.29-24.37 0-33.67 9.3-9.29 24.37-9.29 33.66 0z"/>
				<g id="centre 00000080197524993038938740000000127201113731705754 ">
					<g id="centre 00000021083478824122026420000001017493421248224167 ">
						<path id="&lt;Compound Path&gt;" fill="currentColor" d="m1055.54 1153.01c-3.86 0-7 3.14-7 7 0 3.87 3.14 7 7 7 3.87 0 7-3.13 7-7 0-3.86-3.13-7-7-7zm0 1c3.31 0 6 2.7 6 6 0 3.31-2.69 6-6 6-3.31 0-6-2.69-6-6 0-3.3 2.69-6 6-6z"/>
					</g>
				</g>
				<path id="blades 00000098933850491277445160000009039228918940244393 " fill="currentColor" stroke="currentColor" stroke-linecap="round" stroke-linejoin="round" d="m1048.11 1152.03c0 0 1.38-3.87 2.5-7.02 1.9-5.31 7.22-7.5 11.24-6.06m-27.37 14.76c-1.44 4.02 0.75 9.34 6.06 11.23 3.15 1.13 7.02 2.51 7.02 2.51m1.68 13.63c4.02 1.44 9.34-0.75 11.23-6.06 1.13-3.15 2.51-7.02 2.51-7.02m13.63-1.68c1.44-4.02-0.75-9.34-6.06-11.24-3.15-1.12-7.03-2.5-7.03-2.5"/>
			</g>
			<g id="cutouts 00000120547799769883564940000011826393858927641519 ">
				<path id="cutout 00000124869603630594016090000018025251438169401279 " fill="currentColor" stroke="currentColor" stroke-linecap="round" stroke-linejoin="round" d="m945.09 1130.33l-30-1.12-15.8 30.8 18.04 31.93 27.76-3.36 18.04-15.81v-25.52z"/>
				<path id="cutout 00000096737766558508093090000015324124249001921153 " fill="currentColor" stroke="currentColor" stroke-linecap="round" stroke-linejoin="round" d="m1006.7 1129.21h-25.52l-18.05 18.04v25.52l18.05 18.05h25.52l18.04-18.05v-25.52z"/>
				<path id="cutout 00000070807699837605798910000002851723655982015121 " fill="currentColor" stroke="currentColor" stroke-linecap="round" stroke-linejoin="round" d="m1070.54 1129.21l-27.76 2.24-18.04 15.8v25.52l18.04 16.93 30 2.24 15.81-31.93z"/>
			</g>
			<path id="case-profile" fill="currentColor" stroke="currentColor" stroke-linecap="round" stroke-linejoin="round" d="m1081.74 1121.63l10.31 38.38-8.11 30.81-6.68 7.58h-171.13l-10.31-37.96 8.11-31.23 6.68-7.58z"/>
			<path id="rgb" fill="currentColor" stroke="currentColor" stroke-linecap="round" stroke-linejoin="round" d="m971.1 1187.01l-4.97 3.79m-8.44-2.66l7.81-6.28m56.24-52.63l-4.96 3.79m13.4-1.13l-7.8 6.28"/>
			<path id="case-shaping" fill="currentColor" stroke="currentColor" stroke-linecap="round" stroke-linejoin="round" d="m945.09 1188.58l36.09 9.82m61.6-66.95l-36.08-9.82m-25.52 7.58l-29.37-7.58m54.89 69.19l29.36 7.58"/>
			<path id="squared-end" fill="currentColor" stroke="currentColor" stroke-linecap="round" stroke-linejoin="round" d="m905.09 1123.87h-13.06l0.66 72.29h10.55"/>
		</g>
</svg>