<svg xmlns="http://www.w3.org/2000/svg" viewBox="0 0 216.24 125.00">
<g transform="translate(-67.38,-624.05)" stroke-width="12.72">
<g id="Graphics-Card-founders-edition-icon-v1 00000098900748477409931300000010171967279315300540 ">
			<path id="IO 00000171695731477781681580000016837813380596489877 " fill="none" stroke="currentColor" stroke-miterlimit="10" d="m91.82 734.05v-80.03h-9.44"/>
			<path id="connector 00000095309457640171349200000002818548357110571940 " fill="none" stroke="currentColor" stroke-linecap="round" stroke-linejoin="round" d="m115.11 713.97v10.92h13.34v-7.24c0-0.64 0.51-1.16 1.15-1.16h0.43c0.64-0.01 1.16 0.51 1.16 1.16v7.24h63.94v-7.24c0-0.64 0.51-1.16 1.15-1.16h0.43c0.64-0.01 1.16 0.51 1.16 1.16v3.77h6.84c0.64 0 1.16-0.52 1.16-1.16v-3.01h-3.41v-7.92"/>
			<path id="case 00000021107034160032792070000007919282219559386556 " fill="none" stroke="currentColor" stroke-miterlimit="10" d="m210.37 707.19l-0.51 0.96c-0.83 1.54 0.29 3.41 2.04 3.41h47.45c5.12 0 9.27-4.16 9.27-9.28v-53.96c0-5.12-4.15-9.27-9.27-9.27h-49.85c-3.21 0-6.18 1.65-7.88 4.37l-38.32 61.52c-0.85 1.36-2.34 2.19-3.94 2.19l-53.35-0.05c-1.28 0-2.32-1.04-2.32-2.32v-58.92c0-1.28 1.05-2.32 2.33-2.32h92.07m-26.77 63.62l88.03 0.11c2.56 0 4.64-2.07 4.64-4.63v-54.47c0-2.56-2.08-4.63-4.64-4.63h-49.31c-1.6 0-3.09 0.82-3.94 2.18l-38.28 61.48c-1.69 2.72-4.67 4.38-7.87 4.38h-56.26c-2.56 0-4.63-2.08-4.63-4.64v-63.23c0-2.57 2.07-4.64 4.64-4.64h52.12c1.74 0 2.86 1.84 2.06 3.38l-0.57 1.09"/>
			<g id="fan 00000166661871150795539460000009442669714757717133 ">
				<path id="cutout 00000047769409634260423560000015891674896222743965 " fill="none" stroke="currentColor" stroke-miterlimit="10" d="m120.61 693.75c-10.19-10.19-10.19-26.71 0-36.89 10.19-10.19 26.7-10.19 36.89 0 10.19 10.18 10.19 26.7 0 36.89-10.19 10.18-26.7 10.18-36.89 0z"/>
				<path id="center 00000116936892311228076360000006323887649743572619 " fill="none" stroke="currentColor" stroke-miterlimit="10" d="m132.91 681.45c-3.4-3.4-3.4-8.9 0-12.3 3.39-3.39 8.9-3.39 12.29 0 3.4 3.4 3.4 8.9 0 12.3-3.39 3.4-8.9 3.4-12.29 0z"/>
				<g id="blades 00000103248507953487007450000007792315939538833042 ">
					<path id="blade 00000027591601898959621220000014780416464159182753 " fill="none" stroke="currentColor" stroke-linecap="round" stroke-linejoin="round" d="m134.42 665.86c-0.32-0.36-5.26-5.99-2.53-11.14 0.42-0.77 1.15-1.82 2.53-2.84"/>
					<path id="blade 00000163031093050235485230000006951802790848777104 " fill="none" stroke="currentColor" stroke-linecap="round" stroke-linejoin="round" d="m143.69 684.74c0.32 0.36 5.26 6 2.53 11.14-0.41 0.77-1.15 1.82-2.53 2.84"/>
					<path id="blade 00000032630449993088810240000001904443845271394195 " fill="none" stroke="currentColor" stroke-linecap="round" stroke-linejoin="round" d="m129.61 679.94c-0.35 0.32-5.99 5.25-11.13 2.52-0.78-0.41-1.83-1.15-2.84-2.52"/>
					<path id="blade 00000011013588848297699860000007014306314048629895 " fill="none" stroke="currentColor" stroke-linecap="round" stroke-linejoin="round" d="m148.5 670.66c0.35-0.32 5.99-5.25 11.13-2.52 0.78 0.41 1.83 1.15 2.84 2.52"/>
					<path id="blade 00000149356868671725346970000000800840607752712842 " fill="none" stroke="currentColor" stroke-linecap="round" stroke-linejoin="round" d="m129.1 671.9c-0.48-0.02-7.95-0.52-9.66-6.08-0.26-0.84-0.48-2.11-0.22-3.8"/>
					<path id="blade 00000000945340863708271310000016037038259576338053 " fill="none" stroke="currentColor" stroke-linecap="round" stroke-linejoin="round" d="m149.01 678.7c0.48 0.02 7.95 0.52 9.66 6.09 0.26 0.84 0.48 2.1 0.22 3.79"/>
					<path id="blade 00000149341699632707271770000007230056142776557220 " fill="none" stroke="currentColor" stroke-linecap="round" stroke-linejoin="round" d="m135.66 685.26c-0.03 0.47-0.53 7.95-6.09 9.66-0.84 0.25-2.1 0.47-3.8 0.22"/>
					<path id="blade 00000065762383976068232040000017763642229429818502 " fill="none" stroke="currentColor" stroke-linecap="round" stroke-linejoin="round" d="m142.45 665.34c0.03-0.47 0.53-7.95 6.09-9.65 0.84-0.26 2.1-0.48 3.8-0.23"/>
				</g>
			</g>
			<g id="fan 00000000185929981178360290000017961999104762035631 ">
				<path id="cutout 00000012468341449602853020000015053778506279770522 " fill="none" stroke="currentColor" stroke-miterlimit="10" d="m210.18 693.75c-10.19-10.19-10.19-26.71 0-36.89 10.18-10.19 26.7-10.19 36.89 0 10.19 10.18 10.19 26.7 0 36.89-10.19 10.18-26.71 10.18-36.89 0z"/>
				<path id="center 00000173845523387999906480000008172022057192471204 " fill="none" stroke="currentColor" stroke-miterlimit="10" d="m222.47 681.45c-3.39-3.4-3.39-8.9 0-12.3 3.4-3.39 8.91-3.39 12.3 0 3.4 3.4 3.4 8.9 0 12.3-3.39 3.4-8.9 3.4-12.3 0z"/>
				<g id="blades 00000045597254969697444700000009055449493247247018 ">
					<path id="blade 00000137826745755378659480000016384422810894304651 " fill="none" stroke="currentColor" stroke-linecap="round" stroke-linejoin="round" d="m223.99 665.86c-0.32-0.36-5.26-5.99-2.53-11.14 0.41-0.77 1.15-1.82 2.53-2.84"/>
					<path id="blade 00000129912594511371653200000006391087876392286103 " fill="none" stroke="currentColor" stroke-linecap="round" stroke-linejoin="round" d="m233.26 684.74c0.32 0.36 5.25 6 2.52 11.14-0.41 0.77-1.14 1.82-2.52 2.84"/>
					<path id="blade 00000127740945467879655170000001921980979102840710 " fill="none" stroke="currentColor" stroke-linecap="round" stroke-linejoin="round" d="m219.18 679.94c-0.35 0.32-5.99 5.25-11.13 2.52-0.78-0.41-1.83-1.15-2.85-2.52"/>
					<path id="blade 00000160872969114859769390000011028264633931813022 " fill="none" stroke="currentColor" stroke-linecap="round" stroke-linejoin="round" d="m238.07 670.66c0.35-0.32 5.99-5.25 11.13-2.52 0.78 0.41 1.82 1.15 2.84 2.52"/>
					<path id="blade 00000078044128005335089150000000579662685200834710 " fill="none" stroke="currentColor" stroke-linecap="round" stroke-linejoin="round" d="m218.67 671.9c-0.48-0.02-7.95-0.52-9.66-6.08-0.26-0.84-0.48-2.11-0.23-3.8"/>
					<path id="blade 00000120550867995362717050000006186793639629311394 " fill="none" stroke="currentColor" stroke-linecap="round" stroke-linejoin="round" d="m238.58 678.7c0.48 0.02 7.95 0.52 9.66 6.09 0.25 0.84 0.48 2.1 0.22 3.79"/>
					<path id="blade 00000029026809724088123280000005677793808492661432 " fill="none" stroke="currentColor" stroke-linecap="round" stroke-linejoin="round" d="m225.23 685.26c-0.03 0.47-0.53 7.95-6.09 9.66-0.84 0.25-2.1 0.47-3.8 0.22"/>
					<path id="blade 00000103255015384717253400000011833550051473761438 " fill="none" stroke="currentColor" stroke-linecap="round" stroke-linejoin="round" d="m232.02 665.34c0.03-0.47 0.52-7.95 6.09-9.65 0.84-0.26 2.1-0.48 3.79-0.23"/>
				</g>
			</g>
		</g>
</g>
</svg>