<svg xmlns="http://www.w3.org/2000/svg" viewBox="0 0 256.08 125.00">
<g transform="translate(-47.46,-862.59)" stroke-width="9.15">
<g id="Graphics-Card-AMD-icon-v1">
			<path id="IO 00000034788742966534331300000017791705539784083858 " fill="none" stroke="currentColor" stroke-linecap="round" stroke-miterlimit="10" d="m69.4 972.59v-82.67h-6.94"/>
			<path id="connector 00000044158718830214239340000015068785820594481309 " fill="none" stroke="currentColor" stroke-linecap="round" stroke-linejoin="round" d="m95.51 950.64v10.64h13v-7.06c0-0.62 0.5-1.12 1.12-1.13h0.42c0.63 0 1.14 0.5 1.14 1.13v7.06h62.33v-7.06c0-0.62 0.5-1.12 1.12-1.13h0.42c0.63 0 1.14 0.5 1.14 1.13v3.67h6.67c0.62 0 1.13-0.5 1.13-1.13v-2.93h-3.33v-7.59"/>
			<path id="markings 00000118368027963663610420000010954412187196592514 " fill="none" stroke="currentColor" stroke-linecap="round" stroke-miterlimit="10" d="m153.34 899.82l-17.34-12.93m0 52.09l17.34-12.94m75.66-39.15l-17.34 12.93m17.34 39.16l-17.34-12.94"/>
			<path id="case 00000032638341250748015270000002227229259704317087 " fill="none" stroke="currentColor" stroke-linecap="round" stroke-miterlimit="10" d="m283.16 948.28h-67.92l-13.28-4.45h-38.92l-13.28 4.45h-73.3v-70.69h73.3l13.28 4.45h38.92l13.28-4.45h67.92c1.03 0 1.94 0.7 2.19 1.71l3.19 12.69v41.9l-3.19 12.68c-0.25 1-1.16 1.71-2.19 1.71zm-193.89-56.29h-12.81m53.5 46.18l13.02 1.99 16.03-6.88m0-40.69l-16.03-6.89-12.99 2.02m76 45.56l16.03 6.88 13-2m0.02-50.46l-13.02-2-16.03 6.89m82.55-0.6h-12.81m-0.02 41.9h12.83m-199.25 0.01l-12.83-0.01"/>
			<g id="fan 00000062167533511494713020000003424724519845886890 ">
				<path id="cutout 00000008828404474982768710000015293741370325825423 " fill="none" stroke="currentColor" stroke-linecap="round" stroke-linejoin="round" d="m277.21 898.8c7.81 13.52 3.17 30.8-10.34 38.61-13.52 7.8-30.8 3.17-38.6-10.35-7.81-13.51-3.18-30.8 10.34-38.6 13.52-7.8 30.8-3.17 38.6 10.34z"/>
				<path id="blades 00000134217539038279012250000004576587059823866815 " fill="none" stroke="currentColor" stroke-linecap="round" stroke-linejoin="round" d="m238.16 892.62c8.07 2.42 12.22 5.72 15.48 11.8m6.32 3.96c2.72-6.34 2.71-11.64-0.42-19.47m1.27 26.88c6.65-1.83 10.79-5.14 14.95-12.47m-20.22 17.75c5.58 4.06 10.75 5.23 19.07 3.92m-26.48-4.75c0.3 6.9 2.61 11.67 8.83 17.36m-12.81-23.67c-5.2 4.54-7.49 9.32-8.06 17.73m10.52-24.77c-6.79-1.23-11.96-0.05-18.89 4.75"/>
				<path id="center 00000182505744192222137040000006735506668938414211 " fill="none" stroke="currentColor" stroke-linecap="round" stroke-linejoin="round" d="m246.23 923.84c-1.74-1.04-3.21-2.48-4.28-4.19m-1.2-10.92c-0.46 1.32-0.73 2.73-0.73 4.2q0.01 0.9 0.14 1.76m8.36-13.74c-1.94 0.68-3.66 1.82-5.04 3.28m16.01-2.06c-1.69-1.06-3.65-1.74-5.75-1.9m11.64 11.27c-0.23-2.1-0.97-4.05-2.1-5.72m-1.61 16.16c1.45-1.43 2.55-3.2 3.18-5.18m-13.62 8.75q0.74 0.1 1.51 0.1c1.58 0 3.08-0.3 4.48-0.83"/>
			</g>
			<g id="fan 00000052799417168421428850000016420517487483740861 ">
				<path id="cutout 00000000940326106506196650000014265803609209623727 " fill="none" stroke="currentColor" stroke-linecap="round" stroke-linejoin="round" d="m206.97 898.8c7.81 13.52 3.18 30.8-10.34 38.61-13.52 7.8-30.8 3.17-38.6-10.35-7.81-13.51-3.18-30.8 10.34-38.6 13.52-7.8 30.8-3.17 38.6 10.34z"/>
				<path id="blades 00000042738794696186178600000008495646401626131086 " fill="none" stroke="currentColor" stroke-linecap="round" stroke-linejoin="round" d="m167.92 892.62c8.07 2.42 12.22 5.72 15.49 11.8m6.31 3.96c2.72-6.34 2.71-11.64-0.42-19.47m1.27 26.88c6.65-1.83 10.79-5.14 14.95-12.47m-20.22 17.75c5.58 4.06 10.75 5.23 19.08 3.92m-26.49-4.75c0.3 6.9 2.61 11.67 8.83 17.36m-12.81-23.67c-5.2 4.54-7.49 9.32-8.06 17.73m10.52-24.77c-6.79-1.23-11.95-0.05-18.89 4.75"/>
				<path id="center 00000053528132304146472770000012908498425207675318 " fill="none" stroke="currentColor" stroke-linecap="round" stroke-linejoin="round" d="m175.99 923.84c-1.74-1.04-3.21-2.48-4.28-4.19m-1.2-10.92c-0.46 1.32-0.73 2.73-0.73 4.2q0.01 0.9 0.14 1.76m8.36-13.74c-1.94 0.68-3.66 1.82-5.04 3.28m16.01-2.06c-1.69-1.06-3.65-1.74-5.75-1.9m11.64 11.27c-0.23-2.1-0.97-4.05-2.1-5.72m-1.61 16.16c1.45-1.43 2.55-3.2 3.18-5.18m-13.62 8.75q0.74 0.1 1.51 0.1c1.58 0 3.08-0.3 4.48-0.83"/>
			</g>
			<g id="fan 00000127755934846585841630000009746562655857587103 ">
				<path id="cutout 00000070107225016868347540000016723561388355044772 " fill="none" stroke="currentColor" stroke-linecap="round" stroke-linejoin="round" d="m136.73 898.8c7.81 13.52 3.18 30.8-10.34 38.61-13.52 7.8-30.8 3.17-38.6-10.35-7.81-13.51-3.17-30.8 10.34-38.6 13.52-7.8 30.8-3.17 38.6 10.34z"/>
				<path id="blades 00000119810092235501475490000013652346249690862226 " fill="none" stroke="currentColor" stroke-linecap="round" stroke-linejoin="round" d="m97.68 892.62c8.07 2.42 12.22 5.72 15.49 11.8m6.32 3.96c2.71-6.34 2.7-11.64-0.43-19.47m1.27 26.88c6.65-1.83 10.79-5.14 14.95-12.47m-20.22 17.75c5.58 4.06 10.75 5.23 19.08 3.92m-26.49-4.75c0.31 6.9 2.61 11.67 8.83 17.36m-12.81-23.67c-5.2 4.54-7.49 9.32-8.06 17.73m10.52-24.77c-6.79-1.23-11.95-0.05-18.89 4.75"/>
				<path id="center 00000000928202524127089990000005490038137251401893 " fill="none" stroke="currentColor" stroke-linecap="round" stroke-linejoin="round" d="m105.75 923.84c-1.74-1.04-3.21-2.48-4.28-4.19m-1.2-10.92c-0.46 1.32-0.73 2.73-0.73 4.2q0.01 0.9 0.14 1.76m8.36-13.74c-1.94 0.68-3.66 1.82-5.04 3.28m16.01-2.06c-1.69-1.06-3.65-1.74-5.75-1.9m11.64 11.27c-0.23-2.1-0.97-4.05-2.1-5.72m-1.61 16.16c1.45-1.43 2.55-3.2 3.19-5.18m-13.63 8.75q0.74 0.1 1.51 0.1c1.58 0 3.08-0.3 4.48-0.83"/>
			</g>
		</g>
</g>
</svg>