<svg xmlns="http://www.w3.org/2000/svg" viewBox="0 0 251.02 125.00">
<g transform="translate(-859.99,-624.05)" stroke-width="14.77">
<g id="Graphics-Card-founders-edition-icon-v4 00000127724710819999974930000014625291855223746202 ">
			<path id="IO 00000029038722365197124410000006208733172702117254 " fill="currentColor" stroke="currentColor" stroke-miterlimit="10" d="m882.11 734.05v-82.35h-7.12"/>
			<path id="connector 00000180330130593246755780000008473657558319920292 " fill="currentColor" stroke="currentColor" stroke-linecap="round" stroke-linejoin="round" d="m907.72 713.97v10.92h13.34v-7.24c0-0.64 0.51-1.15 1.15-1.16h0.43c0.64-0.01 1.16 0.51 1.16 1.16v7.24h63.94v-7.24c0-0.64 0.51-1.15 1.15-1.16h0.42c0.65-0.01 1.17 0.51 1.17 1.16v3.77h6.84c0.64 0 1.16-0.52 1.16-1.16v-3.01h-3.41v-3.28"/>
			<g id="case 00000102510878112523442320000009895767982874152104 ">
				<path id="outer-left 00000011027962062257980320000004777715357028094137 " fill="currentColor" stroke="currentColor" stroke-miterlimit="10" d="m940.17 639.05h-50.82v72.51h50.82c3.69 0 7.23-1.47 9.84-4.08l25.42-25.42c1.81-1.81 4.75-1.81 6.56 0l25.52 25.54c1.46 1.46 0.43 3.96-1.64 3.96h-54.14"/>
				<path id="outer-right 00000031919957497186516210000007272804256168560063 " fill="currentColor" stroke="currentColor" stroke-miterlimit="10" d="m1003.37 639.05l-52.62 0.02c-2.06 0.01-3.1 2.5-1.64 3.96l25.34 25.34c1.81 1.81 4.75 1.81 6.56 0l25.24-25.25c2.61-2.61 6.15-4.07 9.84-4.07h70.65c5.12 0 9.27 4.15 9.27 9.27v53.96c0 5.12-4.15 9.28-9.27 9.28h-70.65"/>
				<path id="inner-left 00000038392429583673605310000010639886593183148728 " fill="currentColor" stroke="currentColor" stroke-miterlimit="10" d="m946.33 646.39l25.62 25.63c1.82 1.81 1.81 4.75 0 6.56l-25.78 25.78c-1.74 1.74-4.1 2.72-6.56 2.72h-45.63v-63.56l45.83 0.15c2.45 0.01 4.79 0.99 6.52 2.72z"/>
				<path id="inner-right 00000178927256848688235190000014227102111631394981 " fill="currentColor" stroke="currentColor" stroke-miterlimit="10" d="m1010.62 704.54l-25.96-25.96c-1.81-1.81-1.81-4.75 0-6.56l25.79-25.79c1.74-1.74 4.1-2.71 6.56-2.71h69.73c2.56 0 4.64 2.07 4.64 4.63v54.47c0 2.56-2.08 4.63-4.64 4.63h-69.56c-2.46 0-4.82-0.97-6.56-2.71z"/>
				<path id="markings 00000155147226281596337700000011930497863881342380 " fill="currentColor" stroke="currentColor" stroke-miterlimit="10" d="m1077.74 681.53h-51.56m0-12.29h51.56"/>
				<path id="fins 00000065787654837761502260000014120067769436082049 " fill="currentColor" stroke="currentColor" stroke-miterlimit="10" d="m977.32 684.35l24.41 24.42m-46.84-66.91l24.23 24.22m15.66 42.69l-20.94-20.95m-12.04-46.02l20.8 20.81m-12.24 28.69l17.46 17.47m-19.05-66.97l17.34 17.29m-19.18 35.65l13.97 14.03m-5.16-66.94l13.87 13.87m-26.2 42.56l10.5 10.51m8.81-66.91l10.31 10.31m-33.1 49.57l7.03 7.03m29.6-60.03l-6.94-6.94m-29.65 66.94l-3.52-3.52m40.17-63.38l3.37 3.37"/>
			</g>
			<g id="fan 00000004518619144233305990000007109102611113415066 ">
				<path id="cutout 00000046326554467309520450000004723001510406420920 " fill="currentColor" stroke="currentColor" stroke-miterlimit="10" d="m907.9 694.16c-10.41-10.42-10.41-27.3 0-37.71 10.42-10.42 27.3-10.42 37.71 0 10.42 10.41 10.42 27.29 0 37.71-10.41 10.41-27.29 10.41-37.71 0z"/>
				<path id="centre 00000092452165490006063300000005859755048330231944 " fill="currentColor" stroke="currentColor" stroke-miterlimit="10" d="m920.38 675.3c0-3.52 2.86-6.38 6.38-6.38 3.52 0 6.38 2.86 6.38 6.38 0 3.52-2.86 6.38-6.38 6.38-3.52 0-6.38-2.86-6.38-6.38z"/>
				<g id="blades 00000107588093704968921900000001788136843611323285 ">
					<path id="blade-T 00000063596158839997651060000003797259621248620701 " fill="currentColor" stroke="currentColor" stroke-miterlimit="10" d="m920.99 669.18c-1.05-2.2-3.65-7.81-3.65-10.03 0-2.77 1.16-4.22 3.7-5.62 2.55-1.4 6.83-1.96 11.65-0.65 2.51 0.68 3.94 0.99 5.22 2.27 1.94 1.94-3.34 1.23-5.96 6.05"/>
					<path id="blade-B 00000004507721682412943190000018076920592704238515 " fill="currentColor" stroke="currentColor" stroke-miterlimit="10" d="m932.52 681.43c1.06 2.19 3.66 7.81 3.66 10.02 0 2.78-1.16 4.22-3.71 5.62-2.54 1.4-6.82 1.97-11.64 0.66-2.51-0.69-3.95-1-5.22-2.28-1.95-1.94 3.34-1.22 5.96-6.05"/>
					<path id="blade-L 00000148648748249735101460000009951515166911380131 " fill="currentColor" stroke="currentColor" stroke-miterlimit="10" d="m920.63 681.07c-2.19 1.05-7.8 3.65-10.02 3.65-2.78 0-4.22-1.16-5.62-3.7-1.4-2.55-1.97-6.83-0.66-11.65 0.69-2.51 1-3.94 2.28-5.22 1.94-1.94 1.22 3.34 6.05 5.96"/>
					<path id="blade-R 00000011739281585223253350000017438770621260246192 " fill="currentColor" stroke="currentColor" stroke-miterlimit="10" d="m932.88 669.54c2.2-1.06 7.81-3.66 10.03-3.66 2.78 0 4.22 1.16 5.62 3.71 1.4 2.54 1.96 6.82 0.65 11.64-0.68 2.51-0.99 3.95-2.27 5.22-1.94 1.95-1.22-3.34-6.05-5.96"/>
				</g>
			</g>
		</g>
</g>
</svg>