<svg xmlns="http://www.w3.org/2000/svg" viewBox="0 0 219.56 114.52">
<g transform="translate(-65.72,-1583.45)" stroke-width="7.84">
<g id="Graphics-Block-founders-edition-icon-v1">
			<path id="outer-main 00000113324799422520708500000008186648556880395451 " fill="none" stroke="currentColor" stroke-miterlimit="10" d=""/>
			<path id="outer-main 00000090254641739337958190000006996110219091922835 " fill="none" stroke="currentColor" stroke-miterlimit="10" d="m154.38 1645.82v-7.64m6.22 7.64v-7.64m-18.39 0v7.64m-6.75 0v-7.64m21.97 7.64v-7.64m-18.59 7.64v-7.64"/>
			<path id="outer-main 00000058551396796620181090000013044516517308151466 " fill="none" stroke="currentColor" stroke-miterlimit="10" d="m211.84 1610.28l19.58 19.58c1.52 1.52 2.37 3.58 2.37 5.74v33.85c0 2.24-1.82 4.06-4.05 4.06h-111.87c-2.16 0-4.22-0.85-5.74-2.38l-19.58-19.57c-1.52-1.53-2.37-3.59-2.37-5.74v-33.86c0-2.24 1.81-4.05 4.05-4.05h111.87c2.15 0 4.22 0.85 5.74 2.37zm-51.24 26.01h-6.22v-4.24l7.25-7.25h39.58l11.04 11.04c1.14 1.14 2.68 1.78 4.3 1.78h17.24v-2.02c0-2.16-0.85-4.22-2.37-5.74l-4.41-4.4h-7.94l-11.04-11.04c-1.14-1.14-2.69-1.78-4.3-1.78h-44.62c-1.61 0-3.16 0.64-4.3 1.78l-10.81 10.81c-1.14 1.14-1.79 2.69-1.79 4.3v6.76h-6.75v-6.76c0-1.61-0.64-3.16-1.79-4.3l-10.81-10.81c-1.14-1.14-2.69-1.78-4.3-1.78h-17.9c-3.36 0-6.08 2.72-6.08 6.08v24.73c0 1.61 0.64 3.16 1.78 4.3l19.58 19.57c1.14 1.15 2.69 1.79 4.3 1.79q0.01 0 0.02 0l83.49-0.33c1.61-0.01 3.14-0.65 4.28-1.78l11.04-11.04h14.72v-12.17h-17.24c-1.62 0-3.16 0.64-4.3 1.79l-11.05 11.04-5.28 0.02v-2.17l4.33-4.32c1.14-1.14 1.78-2.69 1.78-4.3v-3.82c0-1.62-0.64-3.16-1.78-4.3l-7.09-7.09c-1.14-1.14-2.69-1.78-4.3-1.78h-20.83c-1.61 0-3.16 0.64-4.3 1.78l-1.35 1.35c-1.14 1.14-1.78 2.69-1.78 4.3zm-6.22 11.69c0 3.36-2.72 6.09-6.08 6.09-3.36 0-6.09-2.73-6.09-6.09h-6.75c0 3.36-2.73 6.09-6.09 6.09-3.35 0-6.08-2.73-6.08-6.09v-15.93l-7.25-7.25h-9.3v16.13l16.01 16 61.01-0.24v-4.74c0-1.61 0.64-3.16 1.78-4.3l3.71-3.71-2.91-2.92h-10.38l-3.2 3.2v3.76c0 3.36-2.72 6.09-6.08 6.09-3.36 0-6.08-2.73-6.08-6.09zm-31.09 0c0 3.36 2.72 6.09 6.08 6.09 3.36 0 6.08-2.73 6.08-6.09m6.76 0c0 3.36 2.72 6.09 6.08 6.09 3.36 0 6.09-2.73 6.09-6.09"/>
			<path id="block" fill="none" stroke="currentColor" stroke-miterlimit="10" d="m80.72 1674.86v-68.3c0-4.48 3.63-8.11 8.11-8.11h173.34c4.48 0 8.11 3.63 8.11 8.11v68.3c0 4.48-3.63 8.11-8.11 8.11h-173.34c-4.48 0-8.11-3.63-8.11-8.11zm189.56-65.6l-16.59 16.6c-1.02 1.01-1.59 2.38-1.59 3.82v22.06c0 1.43 0.57 2.81 1.59 3.82l16.59 16.6"/>
			<path id="inlet 00000054264225165447690300000001456016800722924965 " fill="none" stroke="currentColor" stroke-miterlimit="10" d="m267.36 1631.54c0 2.99-2.42 5.41-5.41 5.41-2.98 0-5.4-2.42-5.4-5.41 0-2.99 2.42-5.41 5.4-5.41 2.99 0 5.41 2.42 5.41 5.41z"/>
			<path id="outlet 00000080180200665807009780000004893842163795517071 " fill="none" stroke="currentColor" stroke-miterlimit="10" d="m267.36 1649.88c0 2.98-2.42 5.4-5.41 5.4-2.98 0-5.4-2.42-5.4-5.4 0-2.99 2.42-5.41 5.4-5.41 2.99 0 5.41 2.42 5.41 5.41z"/>
			<path id="in-out-channels" fill="none" stroke="currentColor" stroke-miterlimit="10" d="m252.1 1640.71h18.18m-12.52 18.92h12.52m-12.52-37.84h12.52"/>
		</g>
</g>
</svg>