<svg xmlns="http://www.w3.org/2000/svg" viewBox="0 0 214.98 230.39">
<g transform="translate(-338.01,-2002.59)" stroke-width="13.55">
<g id="GPU-Block-Active-Backplate-icon-v2 00000116236396252210361420000006561922187434753413 ">
			<g id="frontplate">
				<g id="inlet-outlet 00000093899466141181309480000007787954843646616715 ">
					<path id="output" fill="currentColor" stroke="currentColor" stroke-linejoin="round" d="m446.16 2027.74c0 2.41-1.95 4.36-4.36 4.36-2.41 0-4.36-1.95-4.36-4.36 0-2.41 1.95-4.37 4.36-4.37 2.41 0 4.36 1.96 4.36 4.37z"/>
					<path id="input" fill="currentColor" stroke="currentColor" stroke-linejoin="round" d="m424.22 2027.74c0 2.41-1.96 4.36-4.37 4.36-2.41 0-4.36-1.95-4.36-4.36 0-2.41 1.95-4.37 4.36-4.37 2.41 0 4.37 1.96 4.37 4.37z"/>
				</g>
				<path id="channels 00000042724117466521394820000001145612148866327444 " fill="currentColor" stroke="currentColor" stroke-linejoin="round" d="m448.51 2027.74v12.53c0 0.37 0.3 0.67 0.68 0.67h3.47c0.43 0 0.84 0.21 1.09 0.56l10.09 14.11c0.25 0.35 0.66 0.56 1.09 0.56h6.07c0.35 0 0.69 0.14 0.94 0.39l6.21 6.1c0.26 0.25 0.4 0.59 0.4 0.95v28.74c0 0.36-0.14 0.7-0.39 0.95l-6.63 6.63c-0.25 0.25-0.59 0.39-0.95 0.39h-5.37-6.23-31.86c-0.35 0-0.69-0.14-0.95-0.39l-10.93-10.93c-0.25-0.25-0.39-0.59-0.39-0.95v-0.87c0-1.49 1.2-2.69 2.69-2.69h19.17c0.22 0 0.42-0.1 0.55-0.28l6.44-9.01c0.17-0.24 0.17-0.55 0-0.78l-7.13-9.98c-0.12-0.17-0.32-0.28-0.54-0.28h-18.36c-1.48 0-2.68-1.2-2.68-2.68v-1.28c0-1.48 1.2-2.69 2.68-2.69h21.96c0.43 0 0.84 0.21 1.09 0.57l6.78 9.48c0.27 0.38 0.83 0.38 1.09 0l1.48-2.06c0.17-0.23 0.17-0.55 0-0.78l-7.36-10.3c-0.25-0.35-0.66-0.56-1.09-0.56h-3.36c-0.36 0-0.7-0.14-0.95-0.39l-1.83-1.83c-0.25-0.25-0.39-0.6-0.39-0.95v-22.95m-21.95 0v12.53c0 0.37-0.3 0.67-0.67 0.67h-6.97c-0.36 0-0.69 0.13-0.94 0.38l-21.06 20.66c-0.25 0.26-0.4 0.6-0.4 0.96v22.03c0 0.35 0.14 0.7 0.4 0.95l10.65 10.65c0.25 0.26 0.59 0.4 0.95 0.4h7.02c0.35 0 0.69-0.14 0.95-0.4l9.36-9.36c0.25-0.25 0.39-0.59 0.39-0.95v-6.13c0-0.35 0.15-0.7 0.4-0.95l0.66-0.66c0.26-0.26 0.6-0.4 0.95-0.4h20.99c1.49 0 2.69-1.2 2.69-2.68v-2.56c0-1.48-1.2-2.68-2.69-2.68h-21.01c-0.36 0-0.7-0.15-0.95-0.4l-0.64-0.64c-0.25-0.25-0.4-0.59-0.4-0.95v-1.26c0-0.35-0.14-0.69-0.39-0.94l-2.06-2.07c-0.25-0.25-0.6-0.39-0.95-0.39h-1.25c-0.35 0-0.7 0.14-0.95 0.39l-6.72 6.72c-0.42 0.43-1.14 0.13-1.14-0.47v-3.18c0-0.35 0.14-0.69 0.39-0.94l11.81-11.81c0.25-0.26 0.59-0.4 0.95-0.4h10.86c0.36 0 0.7-0.14 0.95-0.39l1.85-1.83c0.25-0.25 0.4-0.6 0.4-0.96v-22.94m-8.3 50.38v6.37m17.32 0v-6.37m0-7.92v-6.04m-17.32 0v6.04m38.04 5.27l-1.71 2.21q-0.28 0.36-0.29 0.82v0.54c0 0.37 0.3 0.67 0.68 0.67h2.85c0.37 0 0.67-0.3 0.67-0.67v-3.42c0-0.37-0.3-0.67-0.67-0.67h-0.47c-0.41 0-0.81 0.19-1.06 0.52z"/>
				<g id="large-fixings">
					<path id="large-fixing 00000059276633414966759880000010787753553756039817 " fill="currentColor" stroke="currentColor" stroke-linejoin="round" d="m373.95 2054.74c0 1.39-1.13 2.52-2.52 2.52-1.39 0-2.51-1.13-2.51-2.52 0-1.39 1.12-2.51 2.51-2.51 1.39 0 2.52 1.12 2.52 2.51z"/>
					<path id="large-fixing" fill="currentColor" stroke="currentColor" stroke-linejoin="round" d="m373.95 2099.19c0 1.39-1.13 2.52-2.52 2.52-1.39 0-2.51-1.13-2.51-2.52 0-1.39 1.12-2.51 2.51-2.51 1.39 0 2.52 1.12 2.52 2.51z"/>
				</g>
				<g id="fixings 00000064339334347401103690000012317703127465353365 ">
					<path id="fixing 00000178168592435694502680000016501233837940343736 " fill="currentColor" stroke="currentColor" stroke-linejoin="round" d="m465.08 2047.74c0 0.69-0.56 1.26-1.25 1.26-0.7 0-1.26-0.57-1.26-1.26 0-0.7 0.56-1.26 1.26-1.26 0.69 0 1.25 0.56 1.25 1.26z"/>
					<path id="fixing 00000037689735340679991650000006741824418419655824 " fill="currentColor" stroke="currentColor" stroke-linejoin="round" d="m484.44 2062.35c0 0.7-0.57 1.26-1.26 1.26-0.7 0-1.26-0.56-1.26-1.26 0-0.69 0.56-1.26 1.26-1.26 0.69 0 1.26 0.57 1.26 1.26z"/>
					<path id="fixing 00000026854392256853561790000016622794497427312538 " fill="currentColor" stroke="currentColor" stroke-linejoin="round" d="m484.44 2089.21c0 0.7-0.57 1.26-1.26 1.26-0.7 0-1.26-0.56-1.26-1.26 0-0.69 0.56-1.25 1.26-1.25 0.69 0 1.26 0.56 1.26 1.25z"/>
					<path id="fixing 00000144324666562402135860000008297660995354232199 " fill="currentColor" stroke="currentColor" stroke-linejoin="round" d="m381.06 2059.84c0 0.69-0.56 1.25-1.26 1.25-0.69 0-1.26-0.56-1.26-1.25 0-0.7 0.57-1.26 1.26-1.26 0.7 0 1.26 0.56 1.26 1.26z"/>
					<path id="fixing 00000141440899093967059190000015545959253579531695 " fill="currentColor" stroke="currentColor" stroke-linejoin="round" d="m398.8 2041.85c0 0.7-0.57 1.26-1.26 1.26-0.7 0-1.26-0.56-1.26-1.26 0-0.69 0.56-1.26 1.26-1.26 0.69 0 1.26 0.57 1.26 1.26z"/>
					<path id="fixing 00000048468523897682377300000013222567172163292078 " fill="currentColor" stroke="currentColor" stroke-linejoin="round" d="m432.09 2045.61c0 0.7-0.57 1.26-1.26 1.26-0.7 0-1.26-0.56-1.26-1.26 0-0.69 0.56-1.25 1.26-1.25 0.69 0 1.26 0.56 1.26 1.25z"/>
					<path id="fixing 00000049195760931654545280000001895201071827546521 " fill="currentColor" stroke="currentColor" stroke-linejoin="round" d="m381.06 2089.21c0 0.7-0.56 1.26-1.26 1.26-0.69 0-1.26-0.56-1.26-1.26 0-0.69 0.57-1.25 1.26-1.25 0.7 0 1.26 0.56 1.26 1.25z"/>
					<path id="fixing 00000109714192541741828100000015269014619483222444 " fill="currentColor" stroke="currentColor" stroke-linejoin="round" d="m403.92 2105.26c0 0.7-0.57 1.26-1.26 1.26-0.7 0-1.26-0.56-1.26-1.26 0-0.69 0.56-1.26 1.26-1.26 0.69 0 1.26 0.57 1.26 1.26z"/>
					<path id="fixing 00000137838828662326312870000011221945575484209284 " fill="currentColor" stroke="currentColor" stroke-linejoin="round" d="m434.02 2105.26c0 0.7-0.56 1.26-1.26 1.26-0.69 0-1.26-0.56-1.26-1.26 0-0.69 0.57-1.26 1.26-1.26 0.7 0 1.26 0.57 1.26 1.26z"/>
					<path id="fixing 00000013897447471936913320000005396751261472959153 " fill="currentColor" stroke="currentColor" stroke-linejoin="round" d="m464.13 2105.26c0 0.7-0.57 1.26-1.26 1.26-0.7 0-1.26-0.56-1.26-1.26 0-0.69 0.56-1.26 1.26-1.26 0.69 0 1.26 0.57 1.26 1.26z"/>
				</g>
				<path id="block 00000100364947983661241400000013304616765749989532 " fill="currentColor" stroke="currentColor" stroke-linejoin="round" d="m487.81 2038.12v74.64h-111.71v-67.78h15c1.48 0 2.69-1.2 2.69-2.68v-4.18"/>
				<path id="profile 00000051352508115774783590000006735335535745361339 " fill="currentColor" stroke="currentColor" stroke-linejoin="round" d="m405.34 2038.12v-9.6l8.73-10.93h29.41l18.13 13.13v7.4h76.38v79.03h-184.98v-79.03zm56.27 0h-13.1m-21.95 0h8.52m-29.74 0h7.8"/>
			</g>
			<g id="backplate 00000088093888235745017170000009552729590457458567 ">
				<g id="fixings 00000160893747322538650530000010614297064096567690 ">
					<path id="fixing 00000029751104988956804300000007748877066395903889 " fill="currentColor" stroke="currentColor" stroke-linejoin="round" d="m407.86 2194.37c0-0.7-0.57-1.26-1.26-1.26-0.7 0-1.26 0.56-1.26 1.26 0 0.69 0.56 1.26 1.26 1.26 0.69 0 1.26-0.57 1.26-1.26z"/>
					<path id="fixing 00000142889664183371345960000017540236519979095470 " fill="currentColor" stroke="currentColor" stroke-linejoin="round" d="m384.03 2171.38c0-0.7-0.56-1.26-1.26-1.26-0.69 0-1.26 0.56-1.26 1.26 0 0.69 0.57 1.25 1.26 1.25 0.7 0 1.26-0.56 1.26-1.25z"/>
					<path id="fixing 00000070813636510318387230000011297106157667415949 " fill="currentColor" stroke="currentColor" stroke-linejoin="round" d="m434.89 2138.44c0-0.7-0.56-1.26-1.26-1.26-0.69 0-1.25 0.56-1.25 1.26 0 0.69 0.56 1.25 1.25 1.25 0.7 0 1.26-0.56 1.26-1.25z"/>
					<path id="fixing 00000073682053257744990500000008327316896799483533 " fill="currentColor" stroke="currentColor" stroke-linejoin="round" d="m404.94 2138.44c0-0.7-0.56-1.26-1.26-1.26-0.69 0-1.26 0.56-1.26 1.26 0 0.69 0.57 1.25 1.26 1.25 0.7 0 1.26-0.56 1.26-1.25z"/>
					<path id="fixing 00000152227219287899207010000002694339100552041394 " fill="currentColor" stroke="currentColor" stroke-linejoin="round" d="m384.03 2145.15c0-0.69-0.56-1.26-1.26-1.26-0.69 0-1.26 0.57-1.26 1.26 0 0.7 0.57 1.26 1.26 1.26 0.7 0 1.26-0.56 1.26-1.26z"/>
					<path id="fixing 00000164493085697303249800000013975566408841478291 " fill="currentColor" stroke="currentColor" stroke-linejoin="round" d="m473.07 2148.71c0-0.7-0.57-1.26-1.26-1.26-0.7 0-1.26 0.56-1.26 1.26 0 0.69 0.56 1.26 1.26 1.26 0.69 0 1.26-0.57 1.26-1.26z"/>
					<path id="fixing 00000141447324171552144890000007071476719707166874 " fill="currentColor" stroke="currentColor" stroke-linejoin="round" d="m456.41 2148.71c0-0.7-0.57-1.26-1.26-1.26-0.7 0-1.26 0.56-1.26 1.26 0 0.69 0.56 1.26 1.26 1.26 0.69 0 1.26-0.57 1.26-1.26z"/>
					<path id="fixing 00000079458385949773278180000011518738317465765300 " fill="currentColor" stroke="currentColor" stroke-linejoin="round" d="m451.67 2194.37c0-0.7-0.57-1.26-1.26-1.26-0.7 0-1.26 0.56-1.26 1.26 0 0.69 0.56 1.26 1.26 1.26 0.69 0 1.26-0.57 1.26-1.26z"/>
					<path id="fixing 00000127035803755121151530000016102377280851813520 " fill="currentColor" stroke="currentColor" stroke-linejoin="round" d="m469.01 2186.46c0-0.7-0.57-1.26-1.26-1.26-0.7 0-1.26 0.56-1.26 1.26 0 0.69 0.56 1.26 1.26 1.26 0.69 0 1.26-0.57 1.26-1.26z"/>
					<path id="fixing 00000138552579539554041240000005811020968102624679 " fill="currentColor" stroke="currentColor" stroke-linejoin="round" d="m480.01 2166.83c0-0.7-0.56-1.26-1.26-1.26-0.69 0-1.26 0.56-1.26 1.26 0 0.69 0.57 1.26 1.26 1.26 0.7 0 1.26-0.57 1.26-1.26z"/>
				</g>
				<g id="inlet-outlet 00000160883612901841509860000016978280081259941507 ">
					<path id="outlet 00000126314128419633384650000009282873343462810782 " fill="currentColor" stroke="currentColor" stroke-linejoin="round" d="m444.37 2207.84c0-2.41-1.95-4.37-4.36-4.37-2.41 0-4.37 1.96-4.37 4.37 0 2.41 1.96 4.36 4.37 4.36 2.41 0 4.36-1.95 4.36-4.36z"/>
					<path id="inlet 00000036230431033646580820000012710173952177163168 " fill="currentColor" stroke="currentColor" stroke-linejoin="round" d="m424.22 2207.84c0-2.41-1.96-4.37-4.37-4.37-2.41 0-4.36 1.96-4.36 4.37 0 2.41 1.95 4.36 4.36 4.36 2.41 0 4.37-1.95 4.37-4.36z"/>
				</g>
				<path id="channels 00000023245664100312200560000017004128167302345915 " fill="currentColor" stroke="currentColor" stroke-linejoin="round" d="m413.14 2207.84v-15.89c0-0.37-0.3-0.67-0.67-0.67h-6.97c-0.36 0-0.69-0.13-0.94-0.38l-17.7-17.31c-0.26-0.25-0.4-0.59-0.4-0.96v-29.17c0-0.74 0.6-1.34 1.34-1.34h53.29c0.36 0 0.7 0.14 0.95 0.39l9.49 9.49c0.25 0.25 0.59 0.4 0.95 0.4h19.9c1.48 0 2.69 1.2 2.69 2.68v22.03q-0.01 0.35-0.25 0.6l-5.21 5.21q-0.25 0.25-0.6 0.25h-13.82q-0.35 0.01-0.6 0.25l-7.62 7.61q-0.24 0.26-0.25 0.61v16.2m-13.43 0v-15.71c0-0.47-0.38-0.85-0.85-0.85-0.47 0-0.85-0.38-0.85-0.85v-13.73q0.01-0.35 0.25-0.61l5.55-5.54q0.25-0.24 0.6-0.25h25.42c0.47 0 0.86-0.38 0.86-0.85v-1.15q-0.01-0.35-0.25-0.6l-1.85-1.85q-0.26-0.24-0.61-0.25h-16.84c-0.36 0-0.7-0.14-0.95-0.39l-3.86-3.86c-0.25-0.25-0.59-0.4-0.95-0.4h-8.53c-0.36 0-0.7 0.15-0.95 0.4l-5.07 5.07c-0.26 0.25-0.4 0.6-0.4 0.95v8.3q0.01 0.35 0.25 0.6l3.76 3.76q0.25 0.25 0.25 0.6v9.8c0 0.47-0.38 0.85-0.85 0.85-0.47 0-0.85 0.38-0.85 0.85v15.71m-30.1-44.26h14.98c0.36 0 0.7-0.14 0.95-0.39l6.6-6.6c0.25-0.25 0.39-0.59 0.39-0.95v-2.48c0-0.37-0.3-0.67-0.67-0.67h-14.68c-0.36 0-0.7 0.14-0.95 0.39l-6.9 6.9c-0.25 0.25-0.39 0.59-0.39 0.95v2.18c0 0.37 0.3 0.67 0.67 0.67z"/>
				<path id="block 00000085955941371512935530000001314863217750740395 " fill="currentColor" stroke="currentColor" stroke-linejoin="round" d="m400.69 2197.45l-19.59-19.22c-1.28-1.26-2.01-3-2.01-4.8v-31.97c0-3.7 3.01-6.71 6.71-6.71h56.29c1.8 0 3.48 0.7 4.75 1.97l8.31 8.3h19.23c4.44 0 8.06 3.62 8.06 8.06v24.83c0 1.66-0.65 3.23-1.82 4.4l-5.61 5.61c-1.18 1.18-2.74 1.82-4.4 1.82h-11.95l-4.57 4.57v3.14"/>
				<path id="backplate 00000115485290497443097150000007392076483354657167 " fill="currentColor" stroke="currentColor" stroke-linejoin="round" d="m531.21 2195.77v-3l-1.68-1.68h-45.76l-1.68 1.68v3l-1.68 1.68h-18.8v7.41l-18.13 13.12h-29.41l-8.73-10.92v-9.61h-13.69l-1.68-1.68v-1.06l-1.68-1.68h-33.61l-1.67-1.68v-66.2h184.98v72.3h-5.1zm-84.49 1.68h14.89m-48.47 0h-7.8m27.95 0h-6.72"/>
			</g>
		</g>
</g>
</svg>