<svg xmlns="http://www.w3.org/2000/svg" viewBox="0 0 473.45 125.00">
<g transform="translate(-44.47,-1109.13)" stroke-width="27.85">
<g id="Graphics-Card-reference-icon-v1">
			<path id="IO 00000077296052749624903510000001593911879882025394 " fill="currentColor" stroke="currentColor" stroke-miterlimit="10" d="m66.48 1219.13v-83.47h-7.01"/>
			<path id="connector 00000145046500325966355330000009874416422355877272 " fill="currentColor" stroke="currentColor" stroke-linecap="round" stroke-linejoin="round" d="m92.84 1196.96v10.75h13.13v-7.13c0-0.62 0.5-1.13 1.13-1.14h0.42c0.64-0.01 1.15 0.51 1.15 1.14v7.13h62.94v-7.13c0-0.62 0.51-1.13 1.13-1.14h0.43c0.63-0.01 1.14 0.51 1.14 1.14v3.71h6.74c0.63 0 1.14-0.51 1.14-1.14v-2.96h-3.36v-3.23"/>
			<g id="fans 00000130619065570949356690000003640809071812267668 ">
				<g id="fan 00000018951044913742755330000012486446692158029193 ">
					<path id="cutout 00000000925349132307989180000001465775221603140268 " fill="currentColor" stroke="currentColor" stroke-miterlimit="10" d="m129.48 1138.71c11.14 11.15 11.14 29.22 0 40.36-11.15 11.14-29.22 11.14-40.36 0-11.14-11.14-11.14-29.21 0-40.36 11.14-11.14 29.21-11.14 40.36 0z"/>
					<g id="fan-blades 00000158727399875667547670000004848217048341316260 ">
						<g id="centre 00000051371937099359545650000003363120625867346342 ">
							<path id="&lt;Compound Path&gt;" fill="currentColor" d="m109.3 1153.07c-3.22 0-5.82 2.61-5.82 5.82 0 3.21 2.6 5.82 5.82 5.82 3.21 0 5.82-2.61 5.82-5.82 0-3.21-2.61-5.82-5.82-5.82zm0 1c2.65 0 4.82 2.16 4.82 4.82 0 2.66-2.17 4.82-4.82 4.82-2.66 0-4.82-2.16-4.82-4.82 0-2.66 2.16-4.82 4.82-4.82z"/>
						</g>
					</g>
					<path id="fan-blades 00000070823829272244540000000002279392931871084948 " fill="currentColor" stroke="currentColor" stroke-miterlimit="10" d="m133.01 1169.04c0.65-1.52 0.72-3.22 0.17-4.77l-2.04-5.26c-0.81-2.09-2.82-3.47-5.06-3.49l-8.95-0.07c-1.33-3.01-4.33-5.11-7.83-5.11l13.45-13.46m-1.12 44.67l-4.92-18.38v-0.01c-1.48 2.56-4.24 4.29-7.41 4.29q-0.48 0-0.94-0.06l-4.54 7.72c-1.13 1.93-3.33 2.98-5.55 2.64l-5.57-0.86c-1.62-0.31-3.06-1.22-4.05-2.53m-5.14-16.12l18.38 4.93 0.01 0.01c-0.73-1.26-1.16-2.72-1.16-4.29 0-1.89 0.62-3.64 1.67-5.05l-4.42-7.8c-1.11-1.95-0.91-4.37 0.49-6.12l3.53-4.4c1.08-1.25 2.58-2.04 4.22-2.24"/>
				</g>
				<g id="fan 00000143588292416855735270000015559178293668082567 ">
					<path id="cutout 00000134233874241918857890000008235940060257500350 " fill="currentColor" stroke="currentColor" stroke-miterlimit="10" d="m200.86 1138.71c11.14 11.15 11.14 29.22 0 40.36-11.15 11.14-29.21 11.14-40.36 0-11.14-11.14-11.14-29.21 0-40.36 11.15-11.14 29.21-11.14 40.36 0z"/>
					<g id="fan-blades 00000163761333706378515730000012119085023864672180 ">
						<g id="centre 00000002370583638818652660000005648354916976680840 ">
							<path id="&lt;Compound Path&gt;" fill="currentColor" d="m180.68 1153.07c-3.21 0-5.82 2.61-5.82 5.82 0 3.21 2.61 5.82 5.82 5.82 3.21 0 5.82-2.61 5.82-5.82 0-3.21-2.61-5.82-5.82-5.82zm0 1c2.66 0 4.82 2.16 4.82 4.82 0 2.66-2.16 4.82-4.82 4.82-2.66 0-4.82-2.16-4.82-4.82 0-2.66 2.16-4.82 4.82-4.82z"/>
						</g>
					</g>
					<path id="fan-blades 00000080908747173267190170000002365348423935482260 " fill="currentColor" stroke="currentColor" stroke-miterlimit="10" d="m177.61 1133.28c-1.64 0.2-3.14 0.99-4.22 2.24l-3.53 4.4c-1.4 1.75-1.6 4.17-0.49 6.12l4.42 7.8c-1.04 1.41-1.67 3.16-1.67 5.05 0 1.57 0.43 3.03 1.16 4.29l-0.01-0.01-18.38-4.93m39.25-21.36l-13.46 13.46c3.5 0 6.5 2.1 7.83 5.11l8.95 0.07c2.24 0.02 4.25 1.4 5.06 3.49l2.05 5.26c0.54 1.55 0.47 3.25-0.18 4.77m-11.38 12.51l-4.92-18.38v-0.01c-1.48 2.56-4.24 4.29-7.41 4.29q-0.48 0-0.94-0.06l-4.53 7.72c-1.14 1.93-3.34 2.98-5.55 2.64l-5.58-0.86c-1.62-0.31-3.06-1.22-4.05-2.53"/>
				</g>
				<g id="fan 00000092434513979088727150000005308305806242388122 ">
					<path id="cutout 00000150068306471095210900000006551518073510405808 " fill="currentColor" stroke="currentColor" stroke-miterlimit="10" d="m272.24 1138.71c11.14 11.15 11.14 29.22 0 40.36-11.15 11.14-29.21 11.14-40.36 0-11.14-11.14-11.14-29.21 0-40.36 11.15-11.14 29.21-11.14 40.36 0z"/>
					<g id="fan-blades 00000022560835070666497000000000045980010165190280 ">
						<g id="centre 00000080909789550261183730000010387322964243096236 ">
							<path id="&lt;Compound Path&gt;" fill="currentColor" d="m252.06 1153.07c-3.21 0-5.82 2.61-5.82 5.82 0 3.21 2.61 5.82 5.82 5.82 3.21 0 5.82-2.61 5.82-5.82 0-3.21-2.61-5.82-5.82-5.82zm0 1c2.66 0 4.82 2.16 4.82 4.82 0 2.66-2.16 4.82-4.82 4.82-2.66 0-4.82-2.16-4.82-4.82 0-2.66 2.16-4.82 4.82-4.82z"/>
						</g>
					</g>
					<path id="fan-blades" fill="currentColor" stroke="currentColor" stroke-miterlimit="10" d="m275.78 1169.04c0.64-1.52 0.71-3.22 0.17-4.77l-2.05-5.26c-0.81-2.09-2.82-3.47-5.06-3.49l-8.95-0.07c-1.32-3.01-4.33-5.11-7.83-5.11l13.46-13.46m-1.12 44.67l-4.93-18.38v-0.01c-1.48 2.56-4.24 4.29-7.41 4.29q-0.47 0-0.93-0.06l-4.54 7.72c-1.14 1.93-3.34 2.98-5.55 2.64l-5.58-0.86c-1.62-0.31-3.06-1.22-4.05-2.53m-5.14-16.12l18.38 4.93 0.01 0.01c-0.73-1.26-1.16-2.72-1.16-4.29 0-1.89 0.63-3.64 1.67-5.05l-4.42-7.8c-1.1-1.95-0.91-4.37 0.49-6.12l3.53-4.4c1.08-1.25 2.58-2.04 4.22-2.24"/>
				</g>
			</g>
			<g id="profiles">
				<path id="main-profile" fill="currentColor" stroke="currentColor" stroke-miterlimit="10" d="m79.73 1124.13l-9.9 34.76 9.9 34.76h201.9l9.9-34.76v-34.76zm-4.27 4.68h-2.75v19.98m0 20.21v22.37h4.09m210.19-17.6l4.13 13.64-9.49 6.24"/>
				<path id="inner-profiles" fill="currentColor" stroke="currentColor" stroke-miterlimit="10" d="m252.06 1126.41c8.22 0 23.6 2.35 23.6 2.35l9.91 30.13-9.91 30.13c0 0-15.38 2.35-23.6 2.35-8.22 0-23.6-2.35-23.6-2.35l-9.9-30.13 9.9-30.13c0 0 15.38-2.35 23.6-2.35zm-94.98 2.35l-9.91 30.13 9.91 30.13c0 0 15.38 2.35 23.6 2.35 8.22 0 23.6-2.35 23.6-2.35l9.9-30.13-9.9-30.13c0 0-15.38-2.35-23.6-2.35-8.22 0-23.6 2.35-23.6 2.35zm-71.39 0l-9.9 30.13 9.9 30.13c0 0 15.39 2.35 23.61 2.35 8.22 0 23.6-2.35 23.6-2.35l9.9-30.13-9.9-30.13c0 0-15.38-2.35-23.6-2.35-8.22 0-23.61 2.35-23.61 2.35zm47.21 60.26h24.18m0-60.26h-24.18m71.38 60.26h24.18m0-60.26h-24.18"/>
			</g>
			<path id="markings 00000034087014406558406840000015256164930642971010 " fill="currentColor" stroke="currentColor" stroke-miterlimit="10" d="m150.94 1133.32l-3.25 10.02c-2.76 0-2.67 0-5.43 0.01l-3.29-10.03m71.38 0l3.31 10.08c2.75 0 2.67 0 5.42 0l3.24-9.85m0.07 50.91l-3.33-10.14c-2.76 0.01-2.66 0.01-5.42 0.01l-3.29 10.13m-59.34 0l-3.27-10.08c-2.77 0-2.66 0-5.43 0l-3.27 10.08"/>
		</g>
</g>
</svg>