<svg xmlns="http://www.w3.org/2000/svg" viewBox="0 0 240.04 227.13">
<g transform="translate(-870.81,-2007.23)" stroke-width="14.12">
<g id="GPU-Block-Active-Backplate-icon-v4">
			<g id="backplate 00000017480317939824548420000015918253837991930557 ">
				<g id="inlet-outlet 00000153705191990601621920000008815100617698135954 ">
					<path id="inlet 00000147942892739003960760000014564042266958925467 " fill="currentColor" stroke="currentColor" stroke-miterlimit="10" d="m960.77 2210.67c0-2.21-1.79-4-4-4-2.21 0-4 1.79-4 4 0 2.21 1.79 4 4 4 2.21 0 4-1.79 4-4z"/>
					<path id="outlet 00000155843612843777082920000010653695518802714260 " fill="currentColor" stroke="currentColor" stroke-miterlimit="10" d="m980.64 2210.67c0-2.21-1.79-4-4-4-2.21 0-4 1.79-4 4 0 2.21 1.79 4 4 4 2.21 0 4-1.79 4-4z"/>
					<path id="profile 00000045611235072552851080000014716304085905097148 " fill="currentColor" stroke="currentColor" stroke-miterlimit="10" d="m986.57 2219.36v-17.68"/>
					<path id="profile 00000083790005450583699880000011997465112020674955 " fill="currentColor" stroke="currentColor" stroke-miterlimit="10" d="m946.84 2219.36v-17.68"/>
					<path id="profile 00000170258199588191331510000015113995816823255479 " fill="currentColor" stroke="currentColor" stroke-miterlimit="10" d="m966.71 2219.36v-17.68"/>
					<path id="&lt;Path&gt;" fill="currentColor" stroke="currentColor" stroke-miterlimit="10" d="m991.37 2203.74v12.22l-2 3.4h-45.33l-2-3.4v-12.22"/>
				</g>
				<path id="profile-B 00000056390111881869598000000012636423018015405713 " fill="currentColor" stroke="currentColor" stroke-miterlimit="10" d=""/>
				<path id="backplate 00000029728911895401497380000017072656853350248100 " fill="currentColor" stroke="currentColor" stroke-linecap="round" stroke-miterlimit="10" d="m950.57 2201.68h-17.99v-4c0-1.1-0.9-2-2-2h-28.93c-1.1 0-2 0.9-2 2v4h-11.84c-1.11 0-2-0.89-2-2v-72.53c0-1.11 0.89-2 2-2l196.26 0.08 5 5v66.58l-7 4.87h-99.23m-12.4 0h-7.47"/>
				<path id="branding 00000036937522582408323400000017619110076972207757 " fill="currentColor" stroke="currentColor" stroke-miterlimit="10" d="m1073.07 2191.45v2.23c0 1.11 0.9 2 2 2h6c1.11 0 2-0.89 2-2v-6c0-1.1-0.89-2-2-2h-6c-1.1 0-2 0.9-2 2v1c0 1.11 0.9 2 2 2h3.6c1.11 0 2 0.9 2 2v0.87"/>
				<path id="channels 00000075135456956701666230000001755657421362044038 " fill="currentColor" stroke="currentColor" stroke-miterlimit="10" d="m982.84 2214.67v-22.5c0-0.53 0.21-1.04 0.58-1.42l7.85-7.83c1.13-1.13 1.76-2.65 1.76-4.25v-25.83c0-1.59-0.63-3.12-1.76-4.25l-3.48-3.47c-1.12-1.13-2.65-1.76-4.24-1.76h-54.58c-1.59 0-3.12 0.63-4.24 1.76l-3.48 3.47c-1.13 1.13-1.76 2.66-1.76 4.25v25.23c0 1.6 0.63 3.12 1.76 4.25l3.48 3.47c1.12 1.13 2.65 1.76 4.24 1.76h17.6c2.21 0 4 1.79 4 4v23.12m19.87-23.22v-6.33c0-0.53 0.21-1.04 0.58-1.41l12.42-12.42c0.38-0.38 0.59-0.89 0.59-1.42v-10.71c0-0.55-0.45-1-1-1h-2c-0.55 0-1 0.45-1 1v4.38c0 0.53-0.21 1.04-0.59 1.42l-8.83 8.83c-0.37 0.37-0.88 0.58-1.41 0.58h-25.88c-0.53 0-1.04-0.21-1.42-0.58l-8.82-8.83c-0.38-0.38-0.59-0.89-0.59-1.42v-4.38c0-0.55-0.45-1-1-1h-2c-0.55 0-1 0.45-1 1v16.54c0 1.66 1.34 3 3 3h24.66c0.53 0 1.03 0.21 1.41 0.59l4.83 4.82c0.37 0.38 0.58 0.89 0.58 1.42v5.92m-17.63-35.25h21.84m-21.84-6h21.84m-21.84 16h21.84m3.26 48.47v-23.22c0-1.66-1.35-3-3-3h-1.47c-1.65 0-3 1.34-3 3v23.22m-17.63-53.47h21.84"/>
				<path id="cooling-plate 00000137826990879814582190000009702326741000447132 " fill="currentColor" stroke="currentColor" stroke-linejoin="round" d="m911.2 2195.68v-60.13h96.92v66.13m-96.92-66.13h-6.8v60.13"/>
				<g id="fixings 00000180359694907482696810000002817482602551751350 ">
					<g id="outer 00000070833478595946091380000012970044077974675645 ">
						<path id="fixing 00000004543291897462695610000009724162555264749959 " fill="currentColor" stroke="currentColor" stroke-linecap="round" stroke-miterlimit="10" d="m1031.94 2196.41c0 0.83-0.67 1.5-1.5 1.5-0.83 0-1.5-0.67-1.5-1.5 0-0.82 0.67-1.5 1.5-1.5 0.83 0 1.5 0.68 1.5 1.5z"/>
						<path id="fixing 00000124144815420937508140000014321768539735577534 " fill="currentColor" stroke="currentColor" stroke-linecap="round" stroke-miterlimit="10" d="m894.41 2196.41c0 0.83-0.67 1.5-1.5 1.5-0.83 0-1.5-0.67-1.5-1.5 0-0.82 0.67-1.5 1.5-1.5 0.83 0 1.5 0.68 1.5 1.5z"/>
						<path id="fixing 00000134958043918999118160000005247201093196838022 " fill="currentColor" stroke="currentColor" stroke-linecap="round" stroke-miterlimit="10" d="m1078.98 2128.65c0 0.83-0.68 1.5-1.5 1.5-0.83 0-1.5-0.67-1.5-1.5 0-0.82 0.67-1.5 1.5-1.5 0.82 0 1.5 0.68 1.5 1.5z"/>
						<path id="fixing 00000119104595714970963850000017242158771973310612 " fill="currentColor" stroke="currentColor" stroke-linecap="round" stroke-miterlimit="10" d="m997.27 2128.65c0 0.83-0.68 1.5-1.5 1.5-0.83 0-1.5-0.67-1.5-1.5 0-0.82 0.67-1.5 1.5-1.5 0.82 0 1.5 0.68 1.5 1.5z"/>
						<path id="fixing 00000042007150296796888810000002631057786221386926 " fill="currentColor" stroke="currentColor" stroke-linecap="round" stroke-miterlimit="10" d="m970.32 2128.65c0 0.83-0.68 1.5-1.5 1.5-0.83 0-1.5-0.67-1.5-1.5 0-0.82 0.67-1.5 1.5-1.5 0.82 0 1.5 0.68 1.5 1.5z"/>
						<path id="fixing 00000114768455388024894320000006949648715244856509 " fill="currentColor" stroke="currentColor" stroke-linecap="round" stroke-miterlimit="10" d="m943.37 2128.65c0 0.83-0.67 1.5-1.5 1.5-0.83 0-1.5-0.67-1.5-1.5 0-0.82 0.67-1.5 1.5-1.5 0.83 0 1.5 0.68 1.5 1.5z"/>
						<path id="fixing 00000131327663308117177290000005999154674360863160 " fill="currentColor" stroke="currentColor" stroke-linecap="round" stroke-miterlimit="10" d="m899.58 2128.65c0 0.83-0.67 1.5-1.5 1.5-0.83 0-1.5-0.67-1.5-1.5 0-0.82 0.67-1.5 1.5-1.5 0.83 0 1.5 0.68 1.5 1.5z"/>
					</g>
					<g id="inner 00000026885754313879592880000007255225780257657531 ">
						<path id="fixing 00000061444561321864105670000003463453930519268233 " fill="currentColor" stroke="currentColor" stroke-linejoin="round" d="m917.34 2155.09c0 1.1-0.89 2-2 2-1.1 0-2-0.9-2-2 0-1.11 0.9-2 2-2 1.11 0 2 0.89 2 2z"/>
						<path id="fixing 00000152974215361237440880000006073746903648882077 " fill="currentColor" stroke="currentColor" stroke-linejoin="round" d="m935.9 2139.63c0 1.1-0.89 2-2 2-1.1 0-2-0.9-2-2 0-1.11 0.9-2 2-2 1.11 0 2 0.89 2 2z"/>
						<path id="fixing 00000027602715795703670930000014959918205867399565 " fill="currentColor" stroke="currentColor" stroke-linejoin="round" d="m955.9 2139.63c0 1.1-0.89 2-2 2-1.1 0-2-0.9-2-2 0-1.11 0.9-2 2-2 1.11 0 2 0.89 2 2z"/>
						<path id="fixing 00000081626467865986926230000013914808946217219228 " fill="currentColor" stroke="currentColor" stroke-linejoin="round" d="m975.9 2139.63c0 1.1-0.89 2-2 2-1.1 0-2-0.9-2-2 0-1.11 0.9-2 2-2 1.11 0 2 0.89 2 2z"/>
						<path id="fixing 00000170273061276073039820000009401388943102707384 " fill="currentColor" stroke="currentColor" stroke-linejoin="round" d="m995.3 2145.03c0 1.1-0.89 2-2 2-1.1 0-2-0.9-2-2 0-1.11 0.9-2 2-2 1.11 0 2 0.89 2 2z"/>
						<path id="fixing 00000018210005498998629880000006803425470029717647 " fill="currentColor" stroke="currentColor" stroke-linejoin="round" d="m999.1 2176.23c0 1.1-0.89 2-2 2-1.1 0-2-0.9-2-2 0-1.11 0.9-2 2-2 1.11 0 2 0.89 2 2z"/>
						<path id="fixing 00000103226666498592104220000014261384623976508055 " fill="currentColor" stroke="currentColor" stroke-linejoin="round" d="m990.5 2193.43c0 1.1-0.89 2-2 2-1.1 0-2-0.9-2-2 0-1.11 0.9-2 2-2 1.11 0 2 0.89 2 2z"/>
						<path id="fixing 00000056394087229233889750000010882709753291573683 " fill="currentColor" stroke="currentColor" stroke-linejoin="round" d="m968.71 2193.43c0 1.1-0.9 2-2 2-1.11 0-2-0.9-2-2 0-1.11 0.89-2 2-2 1.1 0 2 0.89 2 2z"/>
						<path id="fixing 00000125595901517672891090000007016196689772949646 " fill="currentColor" stroke="currentColor" stroke-linejoin="round" d="m946.71 2193.43c0 1.1-0.9 2-2 2-1.11 0-2-0.9-2-2 0-1.11 0.89-2 2-2 1.1 0 2 0.89 2 2z"/>
					</g>
				</g>
			</g>
			<g id="frontplate 00000151541136743407528460000002789270061285394590 ">
				<path id="inlet 00000008849357994171624770000010343305404416026006 " fill="currentColor" stroke="currentColor" stroke-miterlimit="10" d="m961.11 2030.4c0 2.21-1.79 4-4 4-2.21 0-4-1.79-4-4 0-2.2 1.79-4 4-4 2.21 0 4 1.8 4 4z"/>
				<path id="outlet 00000005968192867718416190000007564020247054177707 " fill="currentColor" stroke="currentColor" stroke-miterlimit="10" d="m980.61 2030.4c0 2.21-1.79 4-4 4-2.21 0-4-1.79-4-4 0-2.2 1.79-4 4-4 2.21 0 4 1.8 4 4z"/>
				<path id="block 00000159455374572044398940000010686697540616299708 " fill="currentColor" stroke="currentColor" stroke-miterlimit="10" d="m991.37 2037.84v-12.21l-2-3.4h-45.33l-2 3.9v11.71"/>
				<path id="profile-B 00000096781489247986678640000017659317321869985175 " fill="currentColor" stroke="currentColor" stroke-linecap="round" stroke-miterlimit="10" d="m951.06 2040.86h-20.91v6.34h-27.24v69.85l134.93 0.1v-76.29h-55.18m-12.1 0h-7.4"/>
				<path id="acrylic 00000031173789948247105080000002265639846629622708 " fill="currentColor" stroke="currentColor" stroke-linecap="round" stroke-miterlimit="10" d="m1041.18 2040.86h42.14v76.19h-42.14m-114.37-76.19h-41v76.29l13.76-0.1"/>
				<path id="profile 00000114781421088553322750000005439521913243090572 " fill="currentColor" stroke="currentColor" stroke-miterlimit="10" d=""/>
				<path id="end 00000181794375915264100510000006862844785069693370 " fill="currentColor" stroke="currentColor" stroke-linecap="round" stroke-miterlimit="10" d="m1086.11 2040.86h2.96l6.78 6.78v25.94l-6.78 6.79v33.72l-2.96 2.96m5.95-68.06v20.99"/>
				<g id="channels 00000132805379693237997190000007519398220980692623 ">
					<path id="channels 00000153705910192592222140000005869289122573806754 " fill="currentColor" stroke="currentColor" stroke-linejoin="round" d="m982.66 2026.4v19.63l3.47 3.47h27.17c1.18 0 2.31 0.47 3.15 1.3l8.2 8.2c0.83 0.83 1.3 1.97 1.3 3.15v36.28c0 1.18-0.47 2.31-1.3 3.14l-6.88 6.88c-0.83 0.83-1.97 1.3-3.15 1.3h-84.49c-1.18 0-2.31-0.47-3.14-1.3l-11.14-11.14c-0.83-0.83-1.3-1.96-1.3-3.15v-32.45c0-1.18 0.46-2.31 1.3-3.15l5.16-5.16c0.84-0.83 1.97-1.3 3.15-1.3h17.38c1.18 0 2.32 0.47 3.15 1.3l6.13 6.13c0.83 0.83 1.3 1.97 1.3 3.15v11.07h5.02v-15.51l-4.78-4.78c-0.83-0.83-1.3-1.96-1.3-3.14v-23.92m-23.94 38.08h-1.44c-1.23 0-2.23 0.99-2.23 2.22v22.47c0 1.23 1 2.23 2.23 2.23h1.44c1.23 0 2.23-1 2.23-2.23v-22.47c0-1.23-1-2.22-2.23-2.22zm43.44-38.08v23.47c0 1.18 0.47 2.31 1.3 3.15l6.08 6.08c0.83 0.83 1.97 1.3 3.15 1.3h7.69c0.59 0 1.16 0.24 1.57 0.65l6.74 6.74c0.42 0.42 0.65 0.99 0.65 1.58v11.55c0 2.32 1.7 4.4 4.02 4.62 2.65 0.25 4.89-1.83 4.89-4.43v-15.9c0-0.54-0.2-1.06-0.55-1.46l-1.31-1.5c-0.63-0.72-0.11-1.85 0.84-1.85h2.9c0.59 0 1.16 0.24 1.58 0.65l2.28 2.29c0.42 0.42 0.66 0.98 0.66 1.57v26.59c0 3.07-2.5 5.56-5.57 5.56h-1.99c-0.87 0-1.7-0.33-2.33-0.94l-9.87-9.56c-0.43-0.42-0.68-1-0.68-1.6v-11.9c0-1.18-0.46-2.31-1.3-3.14l-3.06-3.06c-0.84-0.84-1.97-1.31-3.15-1.31h-5.24c-1.18 0-2.31 0.47-3.14 1.31l-3.06 3.06c-0.84 0.83-1.31 1.96-1.31 3.14v0.69h-3.11v-17.36c0-1.18-0.47-2.31-1.3-3.14l-4.78-4.78v-22.07m18.8 66.22c0.52 0 1.02 0.2 1.39 0.56l2 1.97c0.71 0.7 0.22 1.91-0.78 1.91h-42.06c-0.59 0-1.16-0.23-1.58-0.65l-2.79-2.79c-0.42-0.42-0.65-0.99-0.65-1.58v-17.89c0-0.61 0.5-1.11 1.11-1.11h3.51c0.61 0 1.11 0.5 1.11 1.11v13.84c0 2.33 1.7 4.41 4.01 4.63z"/>
					<path id="flow-reducer 00000176044058543014162760000013590067686049505187 " fill="currentColor" stroke="currentColor" stroke-linecap="round" stroke-linejoin="round" d="m949.01 2081.09h26.46m-26.46-3.78h26.46m-26.46 7.57h26.46m-26.46 3.78h26.46"/>
				</g>
				<path id="&lt;Compound Path&gt;" fill="currentColor" stroke="currentColor" stroke-miterlimit="10" d="m946.84 2039.9v-17.67m20.02 17.67v-17.67m19.71 17.67v-17.67"/>
			</g>
		</g>
</g>
</svg>