<svg xmlns="http://www.w3.org/2000/svg" viewBox="0 0 247.26 126.16">
<g transform="translate(-591.87,-1571.81)">
<g id="Graphics-Block-reference-icon-v2 00000103981221081778540910000007709684191935000738 ">
			<g id="in-out-block 00000079466522258178158510000001393969743284043434 ">
				<path id="inlet 00000178169375397519759100000008985834857188680862 " fill="currentColor" stroke="currentColor" stroke-miterlimit="10" d="m699.52 1595.14c0 2.34-1.89 4.23-4.23 4.23-2.33 0-4.22-1.89-4.22-4.23 0-2.33 1.89-4.22 4.22-4.22 2.34 0 4.23 1.89 4.23 4.22z"/>
				<path id="profile 00000033368860494722065790000005720157571945408928 " fill="currentColor" stroke="currentColor" stroke-miterlimit="10" d="m715.16 1595.14c0 2.34-1.89 4.23-4.23 4.23-2.33 0-4.22-1.89-4.22-4.23 0-2.33 1.89-4.22 4.22-4.22 2.34 0 4.23 1.89 4.23 4.22z"/>
				<path id="in-out-block 00000156561247413441056910000009687560494574320790 " fill="currentColor" stroke="currentColor" stroke-miterlimit="10" d="m728.96 1604.16v-15.24l-10.57-2.11h-30.56l-10.56 2.11v15.24m10.56-2.12v-13.37m30.56 13.37v-13.37"/>
			</g>
			<path id="profile-B 00000072978974779129086560000007463994364552322709 " fill="currentColor" stroke="currentColor" stroke-linecap="round" stroke-miterlimit="10" d="m677.27 1606.33v11.3l-40.15 10.1v44.68h91.84l40.15-11.16v-43.62h-40.15v-11.3z"/>
			<path id="main-block 00000114780150618431464460000004910109611709811367 " fill="currentColor" stroke="currentColor" stroke-linecap="round" stroke-miterlimit="10" d="m674.1 1606.33h-67.23v76.64l208.63-0.09v-76.55h-83.37"/>
			<path id="profile 00000063598796351471586830000011453654060505946244 " fill="currentColor" stroke="currentColor" stroke-miterlimit="10" d=""/>
			<path id="end 00000001664255158082049830000007981574365653887656 " fill="currentColor" stroke="currentColor" stroke-linecap="round" stroke-miterlimit="10" d="m818.66 1606.33h2.66l2.81 2.81v70.93l-2.81 2.81h-2.66"/>
			<path id="block 00000028299364769768214550000007894597305808177338 " fill="currentColor" stroke="currentColor" stroke-miterlimit="10" d="m692.8 1634.1c-3.37 0.94-5.35 4.43-4.42 7.8l6.45 23.27c0.77 2.81 3.32 4.65 6.1 4.65h5.06c2.33 0 4.22-1.9 4.22-4.23v-24.47c0-1.12-0.44-2.2-1.23-2.99l-2.98-2.97c-0.82-0.82-1.94-1.27-3.1-1.24z"/>
			<path id="channels 00000127726575896735549530000015856927968224686781 " fill="currentColor" stroke="currentColor" stroke-linecap="round" stroke-miterlimit="10" d="m700.51 1606.33v18.7m5.2-18.7v18.7m9.45 5.5l7.46-3.17v-17.86l-7.46-3.17m-24.09 0l-7.46 3.17v17.86l7.46 3.17m-7.46-12.9h-6.34m51.69 0h-6.34m39.24 45.64q0.15-0.21 0.28-0.41c1.74-2.8 2.21-6.12 1.33-9.27l-2.53-9.04 2.43-8.69c0.81-2.91 0.64-6.06-0.74-8.76-1.5-2.93-4.09-5.05-7.24-5.93l-12.75-3.54m-98.35 8.3q-0.11 0.14-0.2 0.29c-1.74 2.81-2.21 6.13-1.33 9.28l2.53 9.05-2.43 8.67c-0.81 2.92-0.64 6.07 0.73 8.77 1.5 2.93 4.1 5.05 7.25 5.92l10.36 2.88q1.67 0.46 3.39 0.46 1.72 0 3.39-0.46l24-6.57-6.76-24.38h-10.07c-0.95 0-1.78 0.63-2.04 1.55l-3.63 13.1c-0.1 0.36-0.37 0.64-0.73 0.74l-3.88 1.07q-0.28 0.08-0.56 0l-5.43-1.5c-0.56-0.16-0.89-0.74-0.74-1.31l1.63-5.81c0.57-2.05 0.57-4.22 0-6.27l-1.63-5.81c-0.15-0.57 0.18-1.15 0.74-1.31l6.72-1.86h75.03l6.72 1.86c0.56 0.16 0.89 0.74 0.73 1.31l-1.63 5.81c-0.57 2.05-0.57 4.22 0 6.27l1.63 5.81c0.16 0.57-0.17 1.15-0.73 1.31l-5.43 1.5q-0.28 0.08-0.57 0l-3.87-1.07c-0.36-0.1-0.64-0.38-0.74-0.74l-3.63-13.1c-0.25-0.92-1.08-1.55-2.03-1.55h-10.08l-6.64 23.97 22.19 6.49"/>
		</g>
</g>
</svg>