<svg xmlns="http://www.w3.org/2000/svg" viewBox="0 0 229.38 124.05">
<g transform="translate(-330.81,-1573.92)" stroke-width="13.49">
<g id="Graphics-Block-reference-icon-v1">
			<g id="inlet-outlet">
				<path id="inlet 00000030458029496957037210000004092076243046890626 " fill="none" stroke="currentColor" stroke-miterlimit="10" d="m416.2 1601.06c0 2.33-1.89 4.23-4.23 4.23-2.33 0-4.22-1.9-4.22-4.23 0-2.33 1.89-4.23 4.22-4.23 2.34 0 4.23 1.9 4.23 4.23z"/>
				<path id="profile 00000037651914777476391340000012889907946778220445 " fill="none" stroke="currentColor" stroke-miterlimit="10" d="m433.95 1601.06c0 2.33-1.89 4.23-4.23 4.23-2.33 0-4.22-1.9-4.22-4.23 0-2.33 1.89-4.23 4.22-4.23 2.34 0 4.23 1.9 4.23 4.23z"/>
				<path id="inlet-outlet-block" fill="none" stroke="currentColor" stroke-miterlimit="10" d="m475.2 1608.38l-17.6-17.6c-1.19-1.19-2.81-1.86-4.49-1.86h-50c-1.17 0-2.11 0.95-2.11 2.12v17.34m39.42 0v-17.6"/>
			</g>
			<path id="profile-B 00000098941974481536617000000016697830461691536016 " fill="none" stroke="currentColor" stroke-linecap="round" stroke-miterlimit="10" d="m387.9 1610.56v6.02h-19.71v66.39h125.35v-72.41z"/>
			<path id="acrylic" fill="none" stroke="currentColor" stroke-linecap="round" stroke-miterlimit="10" d="m496.71 1610.56h36.59v72.32h-36.59m-111.98-72.32h-38.92v72.41h19.21"/>
			<path id="profile 00000062171183727157451580000011492707443393309591 " fill="none" stroke="currentColor" stroke-miterlimit="10" d=""/>
			<path id="end" fill="none" stroke="currentColor" stroke-linecap="round" stroke-miterlimit="10" d="m535.95 1610.56h2.81l6.43 6.43v24.63l-6.43 6.44v32.01l-2.81 2.81m5.65-64.61v19.93"/>
			<path id="channels" fill="none" stroke="currentColor" stroke-linejoin="round" d="m385.03 1632.97h-1.38c-1.16 0-2.11 0.95-2.11 2.12v21.33c0 1.16 0.95 2.11 2.11 2.11h1.38c1.16 0 2.11-0.95 2.11-2.11v-21.33c0-1.17-0.95-2.12-2.11-2.12z"/>
			<path id="&lt;Path&gt;" fill="none" stroke="currentColor" stroke-linejoin="round" d="m433.95 1610.56v6.8l3.3 3.29h39.07c1.12 0 2.2 0.45 2.99 1.24l5.89 5.89c0.79 0.79 1.23 1.86 1.23 2.98v34.44c0 1.12-0.44 2.2-1.23 2.99l-6.53 6.53c-0.79 0.79-1.87 1.23-2.99 1.23h-87.8c-1.12 0-2.19-0.44-2.98-1.24l-10.57-10.56c-0.8-0.8-1.24-1.87-1.24-2.99v-30.81c0-1.12 0.44-2.2 1.23-2.99l4.91-4.9c0.79-0.79 1.86-1.24 2.98-1.24h16.5c1.12 0 2.2 0.45 2.99 1.24l5.82 5.82c0.79 0.79 1.24 1.87 1.24 2.99v10.51h4.76v-14.73l-4.53-4.53c-0.8-0.79-1.24-1.87-1.24-2.99v-8.97"/>
			<path id="&lt;Path&gt;" fill="none" stroke="currentColor" stroke-linejoin="round" d="m416.2 1610.56v7.22l4.53 4.53c0.8 0.8 1.24 1.87 1.24 2.99v16.48h5.99v-0.65c0-1.12 0.45-2.2 1.24-2.99l2.9-2.91c0.8-0.79 1.87-1.24 2.99-1.24h14.47c1.12 0 2.19 0.45 2.98 1.24l2.91 2.91c0.79 0.79 1.24 1.87 1.24 2.99v11.29c0 0.57 0.23 1.12 0.64 1.51l9.37 9.08c0.59 0.58 1.38 0.9 2.21 0.9h3.79c2.92 0 5.28-2.37 5.28-5.29v-25.23c0-0.56-0.22-1.1-0.62-1.49l-2.17-2.17c-0.4-0.4-0.93-0.62-1.49-0.62h-4.66c-0.9 0-1.39 1.06-0.79 1.75l1.24 1.42c0.33 0.39 0.52 0.88 0.52 1.39v15.09c0 2.47-2.12 4.45-4.64 4.21-2.2-0.21-3.81-2.18-3.81-4.39v-10.96c0-0.56-0.23-1.1-0.62-1.5l-6.4-6.39c-0.39-0.4-0.93-0.62-1.49-0.62h-17.56c-1.12 0-2.19-0.45-2.99-1.24l-5.76-5.77c-0.8-0.79-1.24-1.87-1.24-2.99v-8.55"/>
			<path id="&lt;Path&gt;" fill="none" stroke="currentColor" stroke-linejoin="round" d="m427.96 1655.72h-5.99v0.71c0 2.33-1.89 4.21-4.23 4.21-2.33 0-4.22-1.88-4.22-4.21v-0.71h-4.76v0.71c0 2.47-2.12 4.45-4.64 4.21-2.2-0.21-3.81-2.19-3.81-4.39v-14.09c0-0.59-0.48-1.06-1.06-1.06h-3.33c-0.58 0-1.06 0.47-1.06 1.06v16.98c0 0.56 0.23 1.1 0.62 1.5l2.66 2.65c0.39 0.39 0.93 0.62 1.49 0.62h53.22c0.95 0 1.41-1.15 0.73-1.82l-4.06-3.95c-0.82-0.8-1.29-1.89-1.29-3.04v-10.95c0-0.28-0.11-0.55-0.3-0.74l-0.65-0.65c-0.2-0.2-0.47-0.31-0.75-0.31h-8.41c-0.28 0-0.55 0.11-0.75 0.31l-0.65 0.65c-0.2 0.19-0.31 0.46-0.31 0.74v12.28c0 2.47-2.12 4.45-4.64 4.21-2.2-0.21-3.81-2.19-3.81-4.39z"/>
			<path id="flow-reducer" fill="none" stroke="currentColor" stroke-linecap="round" stroke-linejoin="round" d="m405.8 1648.75h25.12m-25.12-3.59h25.12m-25.12 7.18h25.12"/>
		</g>
</g>
</svg>