<svg xmlns="http://www.w3.org/2000/svg" viewBox="0 0 223.46 106.54">
<g transform="translate(-603.77,-1825.98)" stroke-width="7.98">
<g id="Passive-Backplate-icon-v1">
			<g id="fixings 00000124870798271311898870000011889173241272382103 ">
				<path id="fixing 00000024699161610132524670000005221205399327355806 " fill="none" stroke="currentColor" stroke-linecap="round" stroke-miterlimit="10" d="m716.02 1912.25c0 0.83-0.68 1.5-1.5 1.5-0.83 0-1.5-0.67-1.5-1.5 0-0.83 0.67-1.5 1.5-1.5 0.82 0 1.5 0.67 1.5 1.5z"/>
				<path id="fixing 00000072280601584013909550000002360166726709727393 " fill="none" stroke="currentColor" stroke-linecap="round" stroke-miterlimit="10" d="m800.13 1912.25c0 0.83-0.67 1.5-1.5 1.5-0.83 0-1.5-0.67-1.5-1.5 0-0.83 0.67-1.5 1.5-1.5 0.83 0 1.5 0.67 1.5 1.5z"/>
				<path id="fixing 00000123415052680628281430000013467144612819703471 " fill="none" stroke="currentColor" stroke-linecap="round" stroke-miterlimit="10" d="m758.07 1912.25c0 0.83-0.67 1.5-1.5 1.5-0.82 0-1.5-0.67-1.5-1.5 0-0.83 0.68-1.5 1.5-1.5 0.83 0 1.5 0.67 1.5 1.5z"/>
				<path id="fixing 00000034788399890266204290000018086643764830243515 " fill="none" stroke="currentColor" stroke-linecap="round" stroke-miterlimit="10" d="m627.38 1912.25c0 0.83-0.68 1.5-1.5 1.5-0.83 0-1.5-0.67-1.5-1.5 0-0.83 0.67-1.5 1.5-1.5 0.82 0 1.5 0.67 1.5 1.5z"/>
				<path id="fixing 00000181795828422412740350000012337106126789407408 " fill="none" stroke="currentColor" stroke-linecap="round" stroke-miterlimit="10" d="m800.13 1844.49c0 0.83-0.67 1.5-1.5 1.5-0.83 0-1.5-0.67-1.5-1.5 0-0.83 0.67-1.5 1.5-1.5 0.83 0 1.5 0.67 1.5 1.5z"/>
				<path id="fixing 00000119077825846459418380000006018842826190117250 " fill="none" stroke="currentColor" stroke-linecap="round" stroke-miterlimit="10" d="m744.27 1844.49c0 0.83-0.67 1.5-1.5 1.5-0.83 0-1.5-0.67-1.5-1.5 0-0.83 0.67-1.5 1.5-1.5 0.83 0 1.5 0.67 1.5 1.5z"/>
				<path id="fixing 00000145057646313126173330000014451367397429192856 " fill="none" stroke="currentColor" stroke-linecap="round" stroke-miterlimit="10" d="m688.41 1844.49c0 0.83-0.67 1.5-1.5 1.5-0.83 0-1.5-0.67-1.5-1.5 0-0.83 0.67-1.5 1.5-1.5 0.83 0 1.5 0.67 1.5 1.5z"/>
				<path id="fixing 00000179625588708471590790000006091308208606650789 " fill="none" stroke="currentColor" stroke-linecap="round" stroke-miterlimit="10" d="m632.55 1846.99c0 0.83-0.68 1.5-1.5 1.5-0.83 0-1.5-0.67-1.5-1.5 0-0.83 0.67-1.5 1.5-1.5 0.82 0 1.5 0.67 1.5 1.5z"/>
			</g>
			<path id="profile-B 00000164481212798232849590000007296764287163030419 " fill="none" stroke="currentColor" stroke-miterlimit="10" d="m796.23 1901.28v2.24c0 1.1 0.89 2 2 2h6c1.1 0 2-0.9 2-2v-6c0-1.11-0.9-2-2-2h-6c-1.11 0-2 0.89-2 2v1c0 1.1 0.89 2 2 2h3.6c1.1 0 2 0.89 2 2v0.86"/>
			<path id="plate" fill="none" stroke="currentColor" stroke-linecap="round" stroke-miterlimit="10" d="m671.55 1915.52v-6c0-1.66-1.35-3-3-3h-34.93c-1.66 0-3 1.34-3 3v6c-0.78 0.78-1.22 1.22-2 2h-7.85c-1.1 0-2-0.9-2-2v-72.54c0-1.11 0.9-2 2-2l187.46 0.08c1.56 1.57 2.44 2.44 4 4v68.46c-1.57 1.56-2.44 2.44-4 4h-134.68c-0.79-0.78-1.22-1.22-2-2zm-28.39-9l65.5-65.5m11.31 0l-65.49 65.5m157.75-55.75l-66.75 66.75m-11.32 0l75.26-75.26"/>
		</g>
</g>
</svg>