<svg xmlns="http://www.w3.org/2000/svg" viewBox="0 0 253.34 125.00">
<g transform="translate(-318.83,-624.05)">
<g id="Graphics-Card-founders-edition-icon-v2 00000080904427565778282690000006335104738263662257 ">
			<path id="IO 00000146488320540483378720000011127633937281153934 " fill="currentColor" stroke="currentColor" stroke-miterlimit="10" d="m343.27 734.05v-80.03h-9.44"/>
			<path id="connector 00000104684238766675841640000001732926160372665010 " fill="currentColor" stroke="currentColor" stroke-linecap="round" stroke-linejoin="round" d="m368.88 713.97v10.92h13.34v-7.24c0-0.64 0.51-1.15 1.15-1.16h0.43c0.64-0.01 1.16 0.51 1.16 1.16v7.24h63.93v-7.24c0-0.64 0.52-1.15 1.16-1.16h0.42c0.65-0.01 1.17 0.51 1.17 1.16v3.77h6.84c0.64 0 1.16-0.52 1.16-1.16v-3.01h-3.41v-3.28"/>
			<g id="case 00000126282687328635295010000007675457826069191846 ">
				<path id="outer-main 00000110456181010542069490000013586179584346978232 " fill="currentColor" stroke="currentColor" stroke-miterlimit="10" d="m418.38 643.15l27.39 27.39c1.31 1.3 3.08 2.04 4.92 2.04h6.3c1.84 0 3.61-0.74 4.92-2.04l27.41-27.42c2.61-2.61 6.15-4.07 9.84-4.07h48.74c5.12 0 9.27 4.15 9.27 9.27v53.96c0 5.12-4.15 9.28-9.27 9.28h-48.58c-3.69 0-7.23-1.47-9.84-4.08l-27.57-27.59c-1.31-1.3-3.08-2.04-4.92-2.04h-6.3c-1.84 0-3.61 0.74-4.92 2.04l-27.59 27.59c-2.6 2.61-6.14 4.08-9.83 4.08h-53.21c-2.56 0-4.63-2.08-4.63-4.64v-63.23c0-2.56 2.07-4.64 4.64-4.64l53.4 0.03c3.69 0 7.23 1.46 9.83 4.07z"/>
				<path id="inner-left 00000000929534987415010080000006921319224170749840 " fill="currentColor" stroke="currentColor" stroke-miterlimit="10" d="m413.82 646.39l25.62 25.63c1.81 1.81 1.81 4.75 0 6.56l-25.78 25.78c-1.74 1.74-4.1 2.72-6.56 2.72h-49.64c-1.28 0-2.32-1.04-2.32-2.32v-58.92c0-1.28 1.05-2.32 2.33-2.32l49.82 0.15c2.45 0.01 4.8 0.99 6.53 2.72z"/>
				<path id="inner-right 00000142881412400142364660000006469834983761794694 " fill="currentColor" stroke="currentColor" stroke-miterlimit="10" d="m493.77 704.54l-25.96-25.96c-1.81-1.81-1.81-4.75 0-6.56l25.79-25.79c1.74-1.74 4.1-2.71 6.56-2.71h47.74c2.56 0 4.64 2.07 4.64 4.63v54.47c0 2.56-2.08 4.63-4.64 4.63h-47.57c-2.46 0-4.82-0.97-6.56-2.71z"/>
				<path id="markings 00000003799348105195657900000013875947790308899480 " fill="currentColor" stroke="currentColor" stroke-miterlimit="10" d="m538.9 681.53h-51.56m0-12.29h51.56"/>
				<path id="outer-bottom 00000047058819110213492900000002347875367672966028 " fill="currentColor" stroke="currentColor" stroke-miterlimit="10" d="m487 708.87v2.69h-66.3v-2.69"/>
				<path id="outer-top 00000023249284770277011080000001498316940566463388 " fill="currentColor" stroke="currentColor" stroke-miterlimit="10" d="m487 641.73v-2.68h-66.3v2.68"/>
			</g>
			<g id="fan 00000022549694977872759900000013021829420176728983 ">
				<path id="cutout 00000093877724245640994110000005592155321763471014 " fill="currentColor" stroke="currentColor" stroke-miterlimit="10" d="m369.47 693.75c-10.19-10.19-10.19-26.71 0-36.89 10.19-10.19 26.71-10.19 36.89 0 10.19 10.18 10.19 26.7 0 36.89-10.18 10.19-26.7 10.19-36.89 0z"/>
				<path id="center 00000176729287064847375930000013806583729811900339 " fill="currentColor" stroke="currentColor" stroke-miterlimit="10" d="m381.77 681.45c-3.4-3.4-3.4-8.9 0-12.3 3.4-3.39 8.9-3.39 12.3 0 3.39 3.4 3.39 8.9 0 12.3-3.4 3.4-8.9 3.4-12.3 0z"/>
				<g id="blades 00000099629112048132128780000016808216656921833388 ">
					<path id="blade 00000178901680033965356490000002168104605326665404 " fill="currentColor" stroke="currentColor" stroke-linecap="round" stroke-linejoin="round" d="m383.28 665.86c-0.32-0.35-5.25-5.99-2.52-11.14 0.41-0.77 1.15-1.82 2.52-2.84"/>
					<path id="blade 00000038374024264184410570000008745080354867255947 " fill="currentColor" stroke="currentColor" stroke-linecap="round" stroke-linejoin="round" d="m392.56 684.74c0.31 0.36 5.25 6 2.52 11.14-0.41 0.77-1.15 1.82-2.52 2.84"/>
					<path id="blade 00000071546218620627561010000001492947879693025695 " fill="currentColor" stroke="currentColor" stroke-linecap="round" stroke-linejoin="round" d="m378.48 679.94c-0.36 0.32-6 5.25-11.14 2.52-0.77-0.41-1.82-1.15-2.84-2.52"/>
					<path id="blade 00000052095219322265001460000001964641841366298265 " fill="currentColor" stroke="currentColor" stroke-linecap="round" stroke-linejoin="round" d="m397.36 670.66c0.35-0.31 5.99-5.25 11.14-2.52 0.77 0.41 1.82 1.15 2.84 2.52"/>
					<path id="blade 00000033342065877983721390000013412559681325152671 " fill="currentColor" stroke="currentColor" stroke-linecap="round" stroke-linejoin="round" d="m377.96 671.9c-0.47-0.02-7.95-0.52-9.66-6.08-0.25-0.84-0.47-2.11-0.22-3.8"/>
					<path id="blade 00000104668328793047840670000003106982516345253301 " fill="currentColor" stroke="currentColor" stroke-linecap="round" stroke-linejoin="round" d="m397.87 678.7c0.48 0.02 7.96 0.52 9.66 6.09 0.26 0.84 0.48 2.1 0.23 3.79"/>
					<path id="blade 00000108268109346747800560000002537535122494636987 " fill="currentColor" stroke="currentColor" stroke-linecap="round" stroke-linejoin="round" d="m384.52 685.26c-0.02 0.47-0.52 7.95-6.09 9.66-0.84 0.25-2.1 0.47-3.79 0.22"/>
					<path id="blade 00000101084479673526051540000010132622736834020780 " fill="currentColor" stroke="currentColor" stroke-linecap="round" stroke-linejoin="round" d="m391.32 665.35c0.02-0.48 0.52-7.96 6.08-9.66 0.84-0.26 2.11-0.48 3.8-0.23"/>
				</g>
			</g>
		</g>
</g>
</svg>