<svg xmlns="http://www.w3.org/2000/svg" viewBox="0 0 223.46 106.54">
<g transform="translate(-873.77,-1825.98)">
<g id="Passive-Backplate-icon-v2">
			<path id="plate 00000044149423039884722400000001114406466462826672 " fill="currentColor" stroke="currentColor" stroke-linecap="round" stroke-miterlimit="10" d="m931.55 1915.52v-2c0-0.55-0.45-1-1-1h-28.93c-0.55 0-1 0.45-1 1v2c0 1.1-0.9 2-2 2h-9.85v-76.54l193.46 0.09v66.45h-38.63c-2.21 0-4 1.79-4 4v4c0 1.1-0.89 2-2 2h-104.05c-1.11 0-2-0.9-2-2z"/>
			<g id="fixings 00000119077444787695217560000012570748629655688866 ">
				<path id="fixing 00000158711067830726565220000006862559680188111531 " fill="currentColor" stroke="currentColor" stroke-linecap="round" stroke-miterlimit="10" d="m950.02 1912.25c0 0.83-0.68 1.5-1.5 1.5-0.83 0-1.5-0.67-1.5-1.5 0-0.83 0.67-1.5 1.5-1.5 0.82 0 1.5 0.67 1.5 1.5z"/>
				<path id="fixing 00000104698208127267053590000006532243956416112059 " fill="currentColor" stroke="currentColor" stroke-linecap="round" stroke-miterlimit="10" d="m1078.13 1894.84c0 0.83-0.67 1.5-1.5 1.5-0.83 0-1.5-0.67-1.5-1.5 0-0.82 0.67-1.5 1.5-1.5 0.83 0 1.5 0.68 1.5 1.5z"/>
				<path id="fixing 00000111192054769536297630000018220375124258680998 " fill="currentColor" stroke="currentColor" stroke-linecap="round" stroke-miterlimit="10" d="m1078.13 1869.67c0 0.83-0.67 1.5-1.5 1.5-0.83 0-1.5-0.67-1.5-1.5 0-0.83 0.67-1.5 1.5-1.5 0.83 0 1.5 0.67 1.5 1.5z"/>
				<path id="fixing 00000094583037597193222700000012228015417125616775 " fill="currentColor" stroke="currentColor" stroke-linecap="round" stroke-miterlimit="10" d="m1034.91 1912.25c0 0.83-0.67 1.5-1.5 1.5-0.83 0-1.5-0.67-1.5-1.5 0-0.83 0.67-1.5 1.5-1.5 0.83 0 1.5 0.67 1.5 1.5z"/>
				<path id="fixing 00000083771098305719509800000007133916698771930294 " fill="currentColor" stroke="currentColor" stroke-linecap="round" stroke-miterlimit="10" d="m897.38 1912.25c0 0.83-0.68 1.5-1.5 1.5-0.83 0-1.5-0.67-1.5-1.5 0-0.83 0.67-1.5 1.5-1.5 0.82 0 1.5 0.67 1.5 1.5z"/>
				<path id="fixing 00000075144271947272663950000018321005468954620559 " fill="currentColor" stroke="currentColor" stroke-linecap="round" stroke-miterlimit="10" d="m1078.13 1844.49c0 0.83-0.67 1.5-1.5 1.5-0.83 0-1.5-0.67-1.5-1.5 0-0.83 0.67-1.5 1.5-1.5 0.83 0 1.5 0.67 1.5 1.5z"/>
				<path id="fixing 00000153684747655019029910000016340459280195052721 " fill="currentColor" stroke="currentColor" stroke-linecap="round" stroke-miterlimit="10" d="m1034.23 1844.49c0 0.83-0.67 1.5-1.5 1.5-0.82 0-1.5-0.67-1.5-1.5 0-0.83 0.68-1.5 1.5-1.5 0.83 0 1.5 0.67 1.5 1.5z"/>
				<path id="fixing 00000060020298412038343270000013376963750642468770 " fill="currentColor" stroke="currentColor" stroke-linecap="round" stroke-miterlimit="10" d="m990.34 1844.49c0 0.83-0.68 1.5-1.5 1.5-0.83 0-1.5-0.67-1.5-1.5 0-0.83 0.67-1.5 1.5-1.5 0.82 0 1.5 0.67 1.5 1.5z"/>
				<path id="fixing 00000015344831955672088400000010846082454971487126 " fill="currentColor" stroke="currentColor" stroke-linecap="round" stroke-miterlimit="10" d="m918.55 1846.99c0 0.83-0.68 1.5-1.5 1.5-0.83 0-1.5-0.67-1.5-1.5 0-0.83 0.67-1.5 1.5-1.5 0.82 0 1.5 0.67 1.5 1.5z"/>
			</g>
			<path id="branding 00000016772870140859421820000007583745276297858959 " fill="currentColor" stroke="currentColor" stroke-linecap="round" stroke-miterlimit="10" d="m1042.35 1900.82h32.78"/>
		</g>
</g>
</svg>