<svg xmlns="http://www.w3.org/2000/svg" viewBox="0 0 245.50 125.00">
<g transform="translate(-862.75,-862.59)" stroke-width="14.44">
<g id="Graphics-Card-quadro-icon-v1 00000084500171390005758120000007210477971515661729 ">
			<path id="IO 00000079467058367003450880000011231938520200412348 " fill="none" stroke="currentColor" stroke-miterlimit="10" d="m884.7 972.59v-82.67h-6.95"/>
			<path id="connector 00000158715879704875822560000003544011054987927470 " fill="none" stroke="currentColor" stroke-linecap="round" stroke-linejoin="round" d="m909.67 950.64v10.64h13v-7.06c0-0.62 0.5-1.12 1.13-1.13h0.41c0.63 0 1.14 0.5 1.14 1.13v7.06h62.33v-7.06c0-0.62 0.5-1.12 1.12-1.13h0.42c0.63 0 1.14 0.5 1.14 1.13v3.67h6.67c0.62 0 1.13-0.5 1.13-1.13v-2.93h-3.33v-3.19"/>
			<g id="fan 00000146460781794045751150000008466872015434064274 ">
				<path id="cutout 00000155112187315564898300000001895537842867961474 " fill="none" stroke="currentColor" stroke-miterlimit="10" d="m1059.02 891.93c-10.6-10.6-27.78-10.6-38.38 0-10.6 10.6-10.6 27.79 0 38.39 10.6 10.6 27.78 10.6 38.38 0 10.6-10.6 10.6-27.79 0-38.39z"/>
				<path id="centre 00000132770442614529152980000005468537636915866286 " fill="none" stroke="currentColor" stroke-miterlimit="10" d="m1026.26 911.13c0 7.49 6.07 13.57 13.57 13.57 7.49 0 13.57-6.08 13.57-13.57 0-7.5-6.08-13.58-13.57-13.58-7.5 0-13.57 6.08-13.57 13.58z"/>
				<path id="blades 00000085234119597660902780000006310558869287477121 " fill="none" stroke="currentColor" stroke-miterlimit="10" d="m1041.99 892.31l-2.04-6.44m-2.29 44.07l2.05 6.44m18.93-23.09l6.44-2.04m-44.07-2.29l-6.44 2.04m40.09-11.65l3.11-6m-32.78 29.55l-3.11 6m29.72-2.94l6 3.11m-29.54-32.78l-6-3.11m16.22-0.93l-3.26-5.92m6.36 43.67l3.26 5.92m14.06-26.34l5.92-3.26m-43.67 6.35l-5.92 3.26m37.05-19.25l1.88-6.49m-26.38 35.38l-1.88 6.49m28.57-8.68l6.49 1.88m-35.37-26.39l-6.49-1.88m15.73-4.08l-4.35-5.16m14.75 41.59l4.35 5.16m8.66-28.57l5.17-4.36m-41.59 14.75l-5.17 4.36m32.58-26.11l0.58-6.73m-18.98 39.84l-0.58 6.73m26.33-14.08l6.74 0.57m-39.84-18.98l-6.74-0.57m14.64-7.07l-5.28-4.22m22.58 37.91l5.28 4.22m2.92-29.72l4.22-5.28m-37.92 22.59l-4.22 5.28m26.86-31.96l-0.75-6.72m-10.84 42.78l0.75 6.71m23.08-18.95l6.72-0.75m-42.78-10.84l-6.72 0.75"/>
			</g>
			<path id="case 00000065054649482431472130000016692702145973225902 " fill="none" stroke="currentColor" stroke-linecap="round" stroke-linejoin="round" d="m1093.25 940.91v-61.06c0-1.25-1.02-2.26-2.27-2.26h-199.23v24h69.41l58.22 41.58h73.87v2.85c0 1.25-1.02 2.26-2.27 2.26h-199.23v-44.43"/>
			<path id="branding 00000118392931665854490970000010921457000646134439 " fill="none" stroke="currentColor" stroke-miterlimit="10" d="m901.93 907.93h50.08m0 6.39h-50.08"/>
		</g>
</g>
</svg>