<svg xmlns="http://www.w3.org/2000/svg" viewBox="866.2 1565.5 238.6 132.5">
<g id="Graphics-Block-reference-icon-v3">
			<g id="in-out">
				<g id="inlet-outlet 00000031915541849817122110000009954372053204394390 ">
					<g id="inlet 00000163030722202721622110000002112916673904646570 ">
						<path id="inlet 00000152240709256967520690000010643484796576175020 " fill="currentColor" stroke="currentColor" stroke-miterlimit="10" d="m970.67 1591.13c0 2.33-1.9 4.23-4.23 4.23-2.33 0-4.23-1.9-4.23-4.23 0-2.34 1.9-4.23 4.23-4.23 2.33 0 4.23 1.89 4.23 4.23z"/>
						<path id="inlet 00000109749498543171424440000003962249297435353474 " fill="currentColor" stroke="currentColor" stroke-miterlimit="10" d="m973.84 1591.13c0 4.08-3.31 7.39-7.4 7.39-4.08 0-7.4-3.31-7.4-7.39 0-4.09 3.32-7.4 7.4-7.4 4.09 0 7.4 3.31 7.4 7.4z"/>
					</g>
					<g id="outlet 00000013155430346825538390000015787986544167958963 ">
						<path id="outlet 00000131360053514622711260000000963027480232719032 " fill="currentColor" stroke="currentColor" stroke-miterlimit="10" d="m992.64 1591.13c0 2.33-1.89 4.23-4.22 4.23-2.34 0-4.23-1.9-4.23-4.23 0-2.34 1.89-4.23 4.23-4.23 2.33 0 4.22 1.89 4.22 4.23z"/>
						<path id="outlet 00000091721591419162741770000012854452953293308302 " fill="currentColor" stroke="currentColor" stroke-miterlimit="10" d="m995.81 1591.13c0 4.08-3.31 7.39-7.39 7.39-4.09 0-7.4-3.31-7.4-7.39 0-4.09 3.31-7.4 7.4-7.4 4.08 0 7.39 3.31 7.39 7.4z"/>
					</g>
				</g>
				<path id="in-out-block 00000034787770979557704620000006901139529606899372 " fill="currentColor" stroke="currentColor" stroke-miterlimit="10" d="m1002.22 1599.99v-13.18l-6.34-6.34h-36.9l-6.34 6.34v13.18"/>
			</g>
			<path id="window 00000008832778310639805550000002571693411384517256 " fill="currentColor" stroke="currentColor" stroke-linecap="round" stroke-miterlimit="10" d="m926.23 1602.1v8.82c0 1.12-0.45 2.19-1.24 2.99l-5.98 5.97c-0.79 0.8-1.24 1.87-1.24 2.99v32.99c0 1.12 0.45 2.2 1.24 2.99l5.98 5.98c0.79 0.79 1.87 1.24 2.99 1.24h77.77c1.12 0 2.19-0.45 2.99-1.24l5.97-5.98c0.8-0.79 1.24-1.87 1.24-2.99v-34.36c0-1.12-0.44-2.2-1.24-2.99l-5.97-5.98c-0.8-0.79-1.24-1.86-1.24-2.99v-7.44z"/>
			<path id="channels 00000129199356643551408910000015856598261438808250 " fill="currentColor" stroke="currentColor" stroke-linecap="round" stroke-miterlimit="10" d="m917.77 1644.28l13.46 13.45c0.79 0.8 1.86 1.24 2.98 1.24h0.63c1.12 0 2.19-0.44 2.99-1.24l1.75-1.75c0.79-0.79 1.87-1.24 2.99-1.24h13.05c0.84 0 1.65 0.34 2.24 0.93l2.37 2.37c0.59 0.6 0.93 1.4 0.93 2.24v2.92c0 1.1-0.43 2.11-1.13 2.87m-42.26-27.01l16.72-16.72c0.6-0.59 1.4-0.93 2.25-0.93h31.5c1.12 0 2.19-0.44 2.99-1.23l2.43-2.43c0.82-0.83 1.23-1.91 1.23-2.99v-2.99c0-2.33-1.89-4.23-4.22-4.23h-2.99c-1.08 0-2.16 0.42-2.99 1.24l-4.34 4.35c-0.4 0.39-0.94 0.61-1.5 0.61h-33.71m55.67 52.33l-11.31-11.31c-0.59-0.6-0.92-1.4-0.93-2.24l-0.02-15.12c0-1.17-0.94-2.12-2.11-2.12h-3.17c-1.17 0-2.11 0.95-2.11 2.12v22.88m26.64-25l5.2 5.2c0.59 0.59 1.4 0.93 2.24 0.93h1.07c0.84 0 1.65-0.34 2.24-0.93l7.05-7.05c1.33-1.33 3.61-0.39 3.61 1.5v16.66c0 1.88-2.28 2.82-3.61 1.49l-7.05-7.05c-0.59-0.59-1.4-0.92-2.24-0.92h-2.41c-1.4 0-2.75-0.56-3.74-1.55l-16.14-16.15c-0.79-0.79-1.87-1.23-2.99-1.23h-25.91c-0.84 0-1.65 0.33-2.24 0.93l-2.37 2.36c-0.6 0.6-0.93 1.41-0.93 2.25v24.26m21.58-4.26h-19.58l-2 2m22.98-18.31l-2.71-2.71h-20.27v3.43h22.01q0.38-0.5 0.97-0.72zm49.78-19.27h-16.53c-1.75 0-3.17-1.42-3.17-3.17v-1.2c0-2.33-1.89-4.23-4.22-4.23h-4.23c-2.33 0-4.23 1.9-4.23 4.23v13.92c0 1.13 0.45 2.2 1.24 2.99l6.6 6.6h0.62c2.33 0 4.22-1.89 4.22-4.22v-18.09m19.81 3.28c-1.86 0.44-3.24 2.11-3.24 4.11v44"/>
			<g id="fixings">
				<path id="fixing 00000059998020265249041600000008161563628086238892 " fill="currentColor" stroke="currentColor" stroke-miterlimit="10" d="m928.13 1621.98c0 1.35-1.1 2.44-2.45 2.44-1.35 0-2.44-1.09-2.44-2.44 0-1.35 1.09-2.45 2.44-2.45 1.35 0 2.45 1.1 2.45 2.45z"/>
				<path id="fixing 00000057842560880495340620000007514055593656037020 " fill="currentColor" stroke="currentColor" stroke-miterlimit="10" d="m952.64 1629.47c0 0.97-0.78 1.75-1.75 1.75-0.96 0-1.75-0.78-1.75-1.75 0-0.96 0.79-1.75 1.75-1.75 0.97 0 1.75 0.79 1.75 1.75z"/>
				<path id="fixing 00000174568457247063709040000009127488784641946006 " fill="currentColor" stroke="currentColor" stroke-miterlimit="10" d="m952.64 1659.06c0 0.96-0.78 1.75-1.75 1.75-0.96 0-1.75-0.79-1.75-1.75 0-0.97 0.79-1.75 1.75-1.75 0.97 0 1.75 0.78 1.75 1.75z"/>
				<path id="fixing 00000000196783204372232920000008581863360968747663 " fill="currentColor" stroke="currentColor" stroke-miterlimit="10" d="m967.43 1629.47c0 0.97-0.78 1.75-1.75 1.75-0.96 0-1.74-0.78-1.74-1.75 0-0.96 0.78-1.75 1.74-1.75 0.97 0 1.75 0.79 1.75 1.75z"/>
				<path id="fixing 00000172436635426852088370000014796745511404651184 " fill="currentColor" stroke="currentColor" stroke-miterlimit="10" d="m934.39 1607.54c0 0.97-0.78 1.75-1.75 1.75-0.97 0-1.75-0.78-1.75-1.75 0-0.96 0.78-1.74 1.75-1.74 0.97 0 1.75 0.78 1.75 1.74z"/>
				<path id="fixing 00000072966905172128950610000001740977502234082186 " fill="currentColor" stroke="currentColor" stroke-miterlimit="10" d="m957.63 1607.54c0 0.97-0.78 1.75-1.75 1.75-0.96 0-1.74-0.78-1.74-1.75 0-0.96 0.78-1.74 1.74-1.74 0.97 0 1.75 0.78 1.75 1.74z"/>
				<path id="fixing" fill="currentColor" stroke="currentColor" stroke-miterlimit="10" d="m1002.01 1607.54c0 0.97-0.78 1.75-1.75 1.75-0.97 0-1.75-0.78-1.75-1.75 0-0.96 0.78-1.74 1.75-1.74 0.97 0 1.75 0.78 1.75 1.74z"/>
			</g>
			<path id="profile 00000011727742496504142330000009448415138903376042 " fill="currentColor" stroke="currentColor" stroke-miterlimit="10" d="m926.23 1602.1l-2.12-2.11h-42.92v82.98l208.62-0.09v-82.89h-80.2l-2.11 2.11"/>
			<path id="ridges" fill="currentColor" stroke="currentColor" stroke-miterlimit="10" d="m885.42 1670.29h200.16m-72.32-5.76h72.32m-200.16 0h35.04m98.48-5.76h66.64m-200.16 0h29.37m105.39-5.76h65.4m-200.16 0h28.13m106.63-5.77h65.4m-200.16 0h28.13m106.63-5.76h65.4m-200.16 0h28.13m106.63-5.76h65.4m-200.16 0h28.13m106.63-5.76h65.4m-200.16 0h28.13m106.63-5.77h65.4m-200.16 0h28.13m105.39-5.76h66.64m-200.16 0h30.82m96.72-5.76h72.62m-200.16 0h36.2"/>
		</g>
</svg>