<svg xmlns="http://www.w3.org/2000/svg" viewBox="0 0 260.00 126.65">
<g transform="translate(-315.50,-1107.48)" stroke-width="15.29">
<g id="Graphics-Card-reference-icon-v2 00000077303646994644706080000013003664284054694803 ">
			<path id="IO 00000152967021158024780160000012326066317834621334 " fill="none" stroke="currentColor" stroke-miterlimit="10" d="m337.56 1219.13v-84.1h-7.06"/>
			<path id="connector 00000086682601441348315710000004085742291550226354 " fill="none" stroke="currentColor" stroke-linecap="round" stroke-linejoin="round" d="m364.12 1196.79v10.84h13.23v-7.19c0-0.63 0.51-1.14 1.14-1.15h0.42c0.64 0 1.16 0.51 1.16 1.15v7.19h63.41v-7.19c0-0.63 0.51-1.14 1.15-1.15h0.42c0.64 0 1.16 0.51 1.16 1.15v3.74h6.78c0.64 0 1.15-0.52 1.15-1.15v-2.98h-3.38v-3.26"/>
			<g id="fans 00000056394626936223336220000012778725765748902065 ">
				<g id="fan 00000096050378054498486430000000469278442784627847 ">
					<path id="cutout 00000090268619010430497400000008570312934479713456 " fill="none" stroke="currentColor" stroke-miterlimit="10" d="m401.89 1137.25c11.7 11.7 11.7 30.67 0 42.38-11.7 11.7-30.67 11.7-42.38 0-11.7-11.71-11.7-30.68 0-42.38 11.71-11.7 30.68-11.7 42.38 0z"/>
					<g id="centre 00000165939870941306352240000014084236096393832353 ">
						<g id="centre 00000035530148872892762130000014598159878951132839 ">
							<path id="&lt;Compound Path&gt;" fill="none" d="m380.7 1152.33c-3.37 0-6.11 2.73-6.11 6.11 0 3.37 2.74 6.11 6.11 6.11 3.38 0 6.11-2.74 6.11-6.11 0-3.38-2.73-6.11-6.11-6.11zm0 1c2.82 0 5.11 2.29 5.11 5.11 0 2.82-2.29 5.11-5.11 5.11-2.82 0-5.11-2.29-5.11-5.11 0-2.82 2.29-5.11 5.11-5.11z"/>
						</g>
					</g>
					<path id="fan-blades 00000178914155585006771120000000311983252898887077 " fill="none" stroke="currentColor" stroke-miterlimit="10" d="m405.61 1169.1c0.68-1.6 0.75-3.38 0.18-5.02l-2.15-5.52c-0.85-2.19-2.96-3.64-5.31-3.66l-9.4-0.08c-1.4-3.16-4.55-5.37-8.23-5.37l14.13-14.13"/>
					<path id="fan-blades 00000041291588218102756570000017935201806517237433 " fill="none" stroke="currentColor" stroke-miterlimit="10" d="m359.02 1174.68c1.04 1.38 2.55 2.34 4.25 2.66l5.86 0.9c2.32 0.36 4.63-0.74 5.82-2.77l4.77-8.1q0.48 0.05 0.98 0.05c3.33 0 6.23-1.81 7.78-4.5v0.01l5.18 19.3"/>
					<path id="fan-blades 00000133499956258718986340000018002000319124144259 " fill="none" stroke="currentColor" stroke-miterlimit="10" d="m377.48 1131.54c-1.72 0.21-3.3 1.04-4.43 2.35l-3.71 4.62c-1.47 1.84-1.67 4.39-0.51 6.43l4.63 8.19c-1.09 1.49-1.74 3.32-1.74 5.31 0 1.64 0.45 3.17 1.21 4.5l-0.01-0.01-19.3-5.17"/>
				</g>
				<g id="fan 00000009576527505103114100000009914767414401537463 ">
					<path id="cutout 00000065059488379013179180000006060697226983845804 " fill="none" stroke="currentColor" stroke-miterlimit="10" d="m473.81 1137.25c11.7 11.7 11.7 30.67 0 42.38-11.7 11.7-30.68 11.7-42.38 0-11.7-11.71-11.7-30.68 0-42.38 11.7-11.7 30.68-11.7 42.38 0z"/>
					<g id="centre 00000129927463352025701450000011320553803227119022 ">
						<g id="centre 00000166642042754851462360000018271425065754400679 ">
							<path id="&lt;Compound Path&gt;" fill="none" d="m452.62 1152.33c-3.37 0-6.11 2.73-6.11 6.11 0 3.37 2.74 6.11 6.11 6.11 3.38 0 6.11-2.74 6.11-6.11 0-3.38-2.73-6.11-6.11-6.11zm0 1c2.82 0 5.11 2.29 5.11 5.11 0 2.82-2.29 5.11-5.11 5.11-2.82 0-5.11-2.29-5.11-5.11 0-2.82 2.29-5.11 5.11-5.11z"/>
						</g>
					</g>
					<path id="fan-blades 00000089549702148150465000000013370846102669054105 " fill="none" stroke="currentColor" stroke-miterlimit="10" d="m449.4 1131.54c-1.72 0.21-3.3 1.04-4.43 2.35l-3.71 4.62c-1.47 1.84-1.68 4.39-0.52 6.43l4.64 8.19c-1.09 1.49-1.74 3.32-1.74 5.31 0 1.64 0.44 3.17 1.21 4.5l-0.01-0.01-19.3-5.17"/>
					<path id="fan-blades 00000061441382790154572180000016964371351013813665 " fill="none" stroke="currentColor" stroke-miterlimit="10" d="m477.53 1169.1c0.68-1.6 0.75-3.38 0.18-5.02l-2.15-5.52c-0.86-2.19-2.96-3.64-5.31-3.66l-9.41-0.08c-1.39-3.16-4.54-5.37-8.22-5.37l14.13-14.13"/>
					<path id="fan-blades 00000150796765493503768410000005523887997355506060 " fill="none" stroke="currentColor" stroke-miterlimit="10" d="m430.94 1174.68c1.04 1.38 2.55 2.34 4.25 2.66l5.85 0.9c2.33 0.36 4.64-0.74 5.83-2.77l4.77-8.1q0.48 0.05 0.98 0.05c3.33 0 6.23-1.81 7.78-4.5v0.01l5.18 19.3"/>
				</g>
				<g id="fan 00000183208946271533447920000001205601513991477920 ">
					<path id="cutout 00000010279199069858666280000002173349059028794046 " fill="none" stroke="currentColor" stroke-miterlimit="10" d="m545.73 1137.25c11.7 11.7 11.7 30.67 0 42.38-11.7 11.7-30.68 11.7-42.38 0-11.7-11.71-11.7-30.68 0-42.38 11.7-11.7 30.68-11.7 42.38 0z"/>
					<g id="centre 00000113322110697662187850000017330382282420160384 ">
						<g id="centre 00000173868234197037290730000015744037516720333745 ">
							<path id="&lt;Compound Path&gt;" fill="none" d="m524.54 1152.33c-3.37 0-6.11 2.73-6.11 6.11 0 3.37 2.74 6.11 6.11 6.11 3.38 0 6.11-2.74 6.11-6.11 0-3.38-2.74-6.11-6.11-6.11zm0 1c2.82 0 5.11 2.29 5.11 5.11 0 2.82-2.29 5.11-5.11 5.11-2.82 0-5.11-2.29-5.11-5.11 0-2.82 2.29-5.11 5.11-5.11z"/>
						</g>
					</g>
					<path id="fan-blades 00000073686367717790797560000002003408021284838042 " fill="none" stroke="currentColor" stroke-miterlimit="10" d="m549.45 1169.1c0.68-1.6 0.74-3.38 0.18-5.02l-2.15-5.52c-0.86-2.19-2.96-3.64-5.32-3.66l-9.4-0.08c-1.39-3.16-4.54-5.37-8.22-5.37l14.13-14.13"/>
					<path id="fan-blades 00000103251276076710606210000015803601530503157144 " fill="none" stroke="currentColor" stroke-miterlimit="10" d="m502.86 1174.68c1.04 1.38 2.55 2.34 4.25 2.66l5.85 0.9c2.33 0.36 4.64-0.74 5.83-2.77l4.77-8.1q0.48 0.05 0.98 0.05c3.33 0 6.23-1.81 7.78-4.5v0.01l5.17 19.3"/>
					<path id="fan-blades 00000128448028069534560630000014274119158586055574 " fill="none" stroke="currentColor" stroke-miterlimit="10" d="m521.32 1131.54c-1.72 0.21-3.3 1.04-4.43 2.35l-3.71 4.62c-1.47 1.84-1.68 4.39-0.52 6.43l4.64 8.19c-1.09 1.49-1.74 3.32-1.74 5.31 0 1.64 0.44 3.17 1.21 4.5l-0.01-0.01-19.3-5.17"/>
				</g>
			</g>
			<g id="case 00000082368269004021988980000007315491316561729686 ">
				<path id="right 00000176010706088763511230000005215705395731759280 " fill="none" stroke="currentColor" stroke-miterlimit="10" d="m485.07 1125.99l3.51-3.51h68.01l3.91 6.9v58.12l-3.91 6.9h-59.38l-17.26-71.92h-63.29l-3.51 3.51"/>
				<path id="left 00000005246823192347213310000001304154657936225167 " fill="none" stroke="currentColor" stroke-miterlimit="10" d="m492.09 1190.89l-3.51 3.51h-63.29l-17.26-71.92h-63.29v71.92h71.92l3.51-3.51"/>
			</g>
			<g id="RGB 00000178884832028560287620000012701833107585995151 ">
				<path id="&lt;Path&gt;" fill="none" stroke="currentColor" stroke-miterlimit="10" d="m415.94 1134.91l8.47-8.48"/>
				<path id="&lt;Path&gt;" fill="none" stroke="currentColor" stroke-miterlimit="10" d="m487.86 1134.91l8.47-8.48"/>
				<path id="&lt;Path&gt;" fill="none" stroke="currentColor" stroke-miterlimit="10" d="m489.31 1181.97l-8.48 8.47"/>
				<path id="&lt;Path&gt;" fill="none" stroke="currentColor" stroke-miterlimit="10" d="m417.39 1181.97l-8.48 8.47"/>
			</g>
		</g>
</g>
</svg>