<svg xmlns="http://www.w3.org/2000/svg" viewBox="0 0 245.50 125.00">
<g transform="translate(-592.75,-862.59)" stroke-width="14.44">
<g id="Graphics-Card-WX-series-icon-v1 00000181068318748590111750000003068591167061329561 ">
			<path id="IO 00000007393118528006326250000011470008528880332962 " fill="none" stroke="currentColor" stroke-miterlimit="10" d="m614.7 972.59v-82.67h-6.95"/>
			<path id="connector 00000003087744749048891010000001703367451460082338 " fill="none" stroke="currentColor" stroke-linecap="round" stroke-linejoin="round" d="m639.67 950.64v10.64h13v-7.06c0-0.62 0.5-1.12 1.13-1.13h0.41c0.63 0 1.14 0.5 1.14 1.13v7.06h62.33v-7.06c0-0.62 0.5-1.12 1.12-1.13h0.42c0.63 0 1.14 0.5 1.14 1.13v3.67h6.67c0.62 0 1.13-0.5 1.13-1.13v-2.93h-3.33v-3.19"/>
			<g id="case 00000098198091708894996490000011847946254878946690 ">
				<path id="profile 00000168815108837442587460000006206571371735778973 " fill="none" stroke="currentColor" stroke-miterlimit="10" d="m820.98 948.28c1.25 0 2.27-1.01 2.27-2.26v-66.17c0-1.25-1.02-2.26-2.27-2.26h-199.23v70.69z"/>
				<g id="markings 00000177465719386409454270000008263474150428987823 ">
					<path id="markings 00000155139999114859497190000000432359789944971912 " fill="none" stroke="currentColor" stroke-miterlimit="10" d="m633.06 909.74h93.03m0 6.39h-93.03"/>
				</g>
				<g id="fan 00000145749273398429161570000000257987303987055290 ">
					<path id="cutout 00000026861744796946021940000011444797750334635153 " fill="none" stroke="currentColor" stroke-miterlimit="10" d="m790.02 892.75c-11.15-11.15-29.23-11.15-40.38 0-11.15 11.15-11.15 29.22 0 40.37 11.15 11.15 29.23 11.15 40.38 0 11.14-11.15 11.14-29.22 0-40.37z"/>
					<path id="centre 00000109022532596540650170000012085954795471293619 " fill="none" stroke="currentColor" stroke-miterlimit="10" d="m755.55 912.93c0 7.89 6.4 14.28 14.28 14.28 7.88 0 14.27-6.39 14.27-14.28 0-7.88-6.39-14.27-14.27-14.27-7.88 0-14.28 6.39-14.28 14.27z"/>
					<path id="blades 00000162330571120603295900000007320203432354284161 " fill="none" stroke="currentColor" stroke-miterlimit="10" d="m772.11 893.15l-2.15-6.78m-2.41 46.35l2.15 6.78m19.92-24.29l6.77-2.15m-46.35-2.4l-6.77 2.15m42.16-12.26l3.27-6.31m-34.47 31.08l-3.27 6.31m31.25-3.09l6.31 3.27m-31.07-34.48l-6.31-3.27m17.06-0.98l-3.43-6.22m6.69 45.93l3.43 6.22m14.79-27.7l6.23-3.43m-45.93 6.68l-6.23 3.43m38.97-20.24l1.97-6.83m-27.75 37.2l-1.98 6.83m30.06-9.13l6.82 1.98m-37.2-27.75l-6.83-1.98m16.55-4.29l-4.58-5.44m15.52 43.75l4.58 5.43m9.1-30.05l5.44-4.58m-43.74 15.51l-5.44 4.58m34.27-27.46l0.6-7.08m-19.96 41.9l-0.6 7.09m27.69-14.82l7.08 0.61m-41.9-19.96l-7.08-0.61m15.39-7.44l-5.55-4.43m23.75 39.87l5.55 4.44m3.07-31.26l4.44-5.55m-39.88 23.75l-4.44 5.56m28.25-33.62l-0.78-7.06m-11.41 44.99l0.79 7.06m24.27-19.93l7.07-0.79m-44.99-11.4l-7.07 0.79"/>
					<path id="R 00000025411571499055067820000015218674895091775131 " fill="none" stroke="currentColor" stroke-linecap="round" stroke-linejoin="round" d="m764.83 918.82v-11.78h7.61l1.86 1.42v3.64l-1.86 1.42h-7.61m9.99 5.3l-3.06-5.3"/>
				</g>
			</g>
		</g>
</g>
</svg>