<svg xmlns="http://www.w3.org/2000/svg" viewBox="0 0 231.20 125.00">
<g transform="translate(-329.90,-862.59)" stroke-width="13.60">
<g id="Graphics-Card-AMD-icon-v2">
			<path id="IO 00000143610194213168502010000011574160536411681452 " fill="currentColor" stroke="currentColor" stroke-miterlimit="10" d="m351.84 972.59v-82.67h-6.94"/>
			<path id="connector 00000108307661427770558890000010711329250419981235 " fill="currentColor" stroke="currentColor" stroke-linecap="round" stroke-linejoin="round" d="m377.94 950.64v10.64h13.01v-7.06c0-0.62 0.5-1.12 1.12-1.13h0.42c0.62 0 1.13 0.5 1.13 1.13v7.06h62.33v-7.06c0-0.62 0.5-1.12 1.13-1.13h0.41c0.63 0 1.14 0.5 1.14 1.13v3.67h6.67c0.62 0 1.13-0.5 1.13-1.13v-2.93h-3.33v-6.45"/>
			<path id="marking 00000044162795188506341760000016363731847077046921 " fill="currentColor" stroke="currentColor" stroke-miterlimit="10" d="m373.99 933.9l-15.09-0.01m15.06-41.9h-15.06m181.82 56.29h-63.39l-15.55-4.23h-20.82l-15.55 4.23h-66.51v-70.69h66.51l15.55 4.22h20.82l15.55-4.22h63.39c1.04 0 1.94 0.7 2.19 1.71l3.19 12.69v41.9l-3.18 12.68c-0.26 1-1.16 1.71-2.2 1.71zm-50.37-60.58l-6.24-2-18.29 11.41h-26.64l-18.29-11.41-6.21 2.02m131.42 4.27h-15.07m-0.01 41.9h15.08m-131.45 4.28l6.24 1.99 18.29-11.4h26.64l18.29 11.4 6.22-2"/>
			<path id="markings 00000111161537156625064410000016677582492422486706 " fill="currentColor" stroke="currentColor" stroke-miterlimit="10" d="m420.89 890.22l13.77 14.8v15.82l-13.77 14.8m63.22-45.42l-13.77 14.8v15.82l13.77 14.8m-21.12-30.05h-20.98v14.69h20.98z"/>
			<g id="fan 00000134251063955893035970000000186601995718851238 ">
				<path id="cutout 00000154425558998623725200000012364965697641769653 " fill="currentColor" stroke="currentColor" stroke-linecap="round" stroke-linejoin="round" d="m532.52 898.8c7.8 13.52 3.17 30.8-10.35 38.61-13.51 7.8-30.8 3.17-38.6-10.35-7.8-13.51-3.17-30.8 10.34-38.6 13.52-7.8 30.8-3.17 38.61 10.34z"/>
				<path id="blades 00000117669776709072170370000004753698990565985206 " fill="currentColor" stroke="currentColor" stroke-linecap="round" stroke-linejoin="round" d="m493.46 892.62c8.08 2.42 12.22 5.72 15.49 11.8m6.32 3.96c2.71-6.34 2.71-11.64-0.43-19.47m1.27 26.88c6.66-1.83 10.79-5.14 14.96-12.47m-20.23 17.75c5.59 4.06 10.75 5.23 19.08 3.92m-26.49-4.75c0.31 6.9 2.61 11.67 8.83 17.36m-12.8-23.67c-5.2 4.54-7.5 9.32-8.07 17.73m10.52-24.77c-6.79-1.23-11.95-0.05-18.88 4.75"/>
				<path id="center 00000135689928622524283920000002426319108874371202 " fill="currentColor" stroke="currentColor" stroke-linecap="round" stroke-linejoin="round" d="m501.53 923.84c-1.74-1.04-3.2-2.48-4.27-4.19m-1.21-10.92c-0.46 1.32-0.72 2.73-0.72 4.2q0.01 0.9 0.13 1.76m8.36-13.74c-1.93 0.68-3.65 1.82-5.03 3.28m16-2.06c-1.69-1.06-3.65-1.74-5.75-1.9m11.64 11.27c-0.23-2.1-0.97-4.05-2.09-5.72m-1.61 16.16c1.44-1.43 2.55-3.2 3.18-5.18m-13.63 8.75q0.75 0.1 1.51 0.1c1.58 0 3.09-0.3 4.48-0.83"/>
			</g>
			<g id="fan 00000078006272637239852970000000764882444340423065 ">
				<path id="cutout 00000155126928771688973380000005091827271653672588 " fill="currentColor" stroke="currentColor" stroke-linecap="round" stroke-linejoin="round" d="m421.43 898.8c7.8 13.52 3.17 30.8-10.34 38.61-13.52 7.8-30.8 3.17-38.61-10.35-7.8-13.51-3.17-30.8 10.35-38.6 13.51-7.8 30.8-3.17 38.6 10.34z"/>
				<path id="blades 00000064347570084372001380000006138278006468929673 " fill="currentColor" stroke="currentColor" stroke-linecap="round" stroke-linejoin="round" d="m382.37 892.62c8.08 2.42 12.22 5.72 15.49 11.8m6.32 3.96c2.72-6.34 2.71-11.64-0.43-19.47m1.27 26.88c6.66-1.83 10.79-5.14 14.96-12.47m-20.22 17.75c5.58 4.06 10.74 5.23 19.07 3.92m-26.49-4.75c0.31 6.9 2.61 11.67 8.83 17.36m-12.8-23.67c-5.2 4.54-7.49 9.32-8.07 17.73m10.52-24.77c-6.79-1.23-11.95-0.05-18.88 4.75"/>
				<path id="center 00000047052730965044423230000004230318954140437933 " fill="currentColor" stroke="currentColor" stroke-linecap="round" stroke-linejoin="round" d="m390.44 923.84c-1.74-1.04-3.2-2.48-4.27-4.19m-1.21-10.92c-0.46 1.32-0.72 2.73-0.72 4.2q0.01 0.9 0.13 1.76m8.37-13.74c-1.94 0.68-3.66 1.82-5.04 3.28m16-2.06c-1.69-1.06-3.64-1.74-5.75-1.9m11.64 11.27c-0.23-2.1-0.96-4.05-2.09-5.72m-1.61 16.16c1.44-1.43 2.55-3.2 3.18-5.18m-13.63 8.75q0.75 0.1 1.52 0.1c1.57 0 3.08-0.3 4.47-0.83"/>
			</g>
		</g>
</g>
</svg>