<svg xmlns="http://www.w3.org/2000/svg" viewBox="0 0 223.46 124.21">
<g transform="translate(-333.77,-1817.14)" stroke-width="7.98">
<g id="Active-Backplate-icon-v2">
			<g id="inlet-outlet 00000015341201072009529740000017728103159005641891 ">
				<path id="inlet 00000047774839209588929630000002426952148503820191 " fill="none" stroke="currentColor" stroke-miterlimit="10" d="m423.74 1917.67c0-2.21-1.79-4-4-4-2.21 0-4 1.79-4 4 0 2.21 1.79 4 4 4 2.21 0 4-1.79 4-4z"/>
				<path id="outlet 00000155129734833669139970000012179640113804146821 " fill="none" stroke="currentColor" stroke-miterlimit="10" d="m443.6 1917.67c0-2.21-1.79-4-4-4-2.2 0-4 1.79-4 4 0 2.21 1.8 4 4 4 2.21 0 4-1.79 4-4z"/>
				<path id="profile 00000036231202037838671570000010447485537877606279 " fill="none" stroke="currentColor" stroke-miterlimit="10" d="m449.54 1926.35v-17.67"/>
				<path id="profile 00000168824849592165126150000015749002080335788459 " fill="none" stroke="currentColor" stroke-miterlimit="10" d="m409.81 1926.35v-17.67"/>
				<path id="profile 00000092444821540748304550000001584306063949013423 " fill="none" stroke="currentColor" stroke-miterlimit="10" d="m429.67 1926.35v-17.67"/>
				<path id="&lt;Path&gt;" fill="none" stroke="currentColor" stroke-miterlimit="10" d="m454.34 1910.74v12.21l-2 3.4h-45.33l-2-3.4v-12.21"/>
			</g>
			<path id="profile-B 00000133497456086027957130000010079863854906359964 " fill="none" stroke="currentColor" stroke-miterlimit="10" d=""/>
			<path id="backplate" fill="none" stroke="currentColor" stroke-linecap="round" stroke-miterlimit="10" d="m413.54 1908.68h-17.99v-4c0-1.1-0.9-2-2-2h-28.93c-1.11 0-2 0.9-2 2v4h-11.85c-1.1 0-2-0.9-2-2v-72.54c0-1.1 0.9-2 2-2l186.46 0.09 5 5v66.58l-7 4.87h-89.43m-12.4 0h-7.46"/>
			<path id="branding 00000087376915675859761990000010943780027504337286 " fill="none" stroke="currentColor" stroke-miterlimit="10" d="m526.23 1898.45v2.23c0 1.1 0.89 2 2 2h6c1.1 0 2-0.9 2-2v-6c0-1.1-0.9-2-2-2h-6c-1.11 0-2 0.9-2 2v1c0 1.1 0.89 2 2 2h3.6c1.1 0 2 0.9 2 2v0.87"/>
			<path id="channels 00000114777093836100116550000007311874924957910164 " fill="none" stroke="currentColor" stroke-miterlimit="10" d="m445.8 1921.67v-22.51c0-0.53 0.22-1.04 0.59-1.41l7.85-7.84c1.12-1.12 1.76-2.65 1.76-4.24v-25.84c0-1.59-0.64-3.11-1.76-4.24l-3.48-3.48c-1.12-1.12-2.65-1.75-4.24-1.75h-54.58c-1.6 0-3.12 0.63-4.25 1.75l-3.47 3.48c-1.13 1.13-1.76 2.65-1.76 4.24v25.24c0 1.59 0.63 3.12 1.76 4.24l3.47 3.48c1.13 1.13 2.65 1.76 4.25 1.76h17.6c2.21 0 4 1.79 4 4v23.12m19.86-23.22v-6.33c0-0.53 0.22-1.04 0.59-1.42l12.42-12.42c0.38-0.37 0.59-0.88 0.59-1.41v-10.71c0-0.56-0.45-1-1-1h-2c-0.56 0-1 0.44-1 1v4.38c0 0.53-0.21 1.04-0.59 1.41l-8.83 8.83c-0.37 0.38-0.88 0.59-1.41 0.59h-25.88c-0.53 0-1.04-0.21-1.42-0.59l-8.83-8.83c-0.37-0.37-0.58-0.88-0.58-1.41v-4.38c0-0.56-0.45-1-1-1h-2c-0.55 0-1 0.44-1 1v16.54c0 1.65 1.34 3 3 3h24.65c0.53 0 1.04 0.21 1.42 0.58l4.83 4.83c0.37 0.38 0.58 0.88 0.58 1.42v5.92m-17.63-35.25h21.84m-21.84-6h21.84m-21.84 16h21.84m3.25 48.47v-23.22c0-1.66-1.34-3-3-3h-1.46c-1.65 0-3 1.34-3 3v23.22m-17.63-53.47h21.84"/>
			<path id="cooling-plate" fill="none" stroke="currentColor" stroke-linejoin="round" d="m374.17 1902.68v-60.13h96.92v66.13m-96.92-66.13h-6.8v60.13"/>
			<g id="fixings 00000050623887251075863310000000929340178602819729 ">
				<g id="outer">
					<path id="fixing 00000105400716569480464800000014330732922275355532 " fill="none" stroke="currentColor" stroke-linecap="round" stroke-miterlimit="10" d="m494.91 1903.41c0 0.83-0.67 1.5-1.5 1.5-0.83 0-1.5-0.67-1.5-1.5 0-0.83 0.67-1.5 1.5-1.5 0.83 0 1.5 0.67 1.5 1.5z"/>
					<path id="fixing 00000125577889899659931990000008288733529686478756 " fill="none" stroke="currentColor" stroke-linecap="round" stroke-miterlimit="10" d="m357.38 1903.41c0 0.83-0.68 1.5-1.5 1.5-0.83 0-1.5-0.67-1.5-1.5 0-0.83 0.67-1.5 1.5-1.5 0.82 0 1.5 0.67 1.5 1.5z"/>
					<path id="fixing 00000098190674417569285890000008881636759468912316 " fill="none" stroke="currentColor" stroke-linecap="round" stroke-miterlimit="10" d="m532.13 1835.65c0 0.83-0.67 1.5-1.5 1.5-0.83 0-1.5-0.67-1.5-1.5 0-0.83 0.67-1.5 1.5-1.5 0.83 0 1.5 0.67 1.5 1.5z"/>
					<path id="fixing 00000080911533499717605020000000759456517825362609 " fill="none" stroke="currentColor" stroke-linecap="round" stroke-miterlimit="10" d="m460.23 1835.65c0 0.83-0.67 1.5-1.5 1.5-0.82 0-1.5-0.67-1.5-1.5 0-0.83 0.68-1.5 1.5-1.5 0.83 0 1.5 0.67 1.5 1.5z"/>
					<path id="fixing 00000034069158935399054480000007345114759263404710 " fill="none" stroke="currentColor" stroke-linecap="round" stroke-miterlimit="10" d="m433.28 1835.65c0 0.83-0.67 1.5-1.5 1.5-0.82 0-1.5-0.67-1.5-1.5 0-0.83 0.68-1.5 1.5-1.5 0.83 0 1.5 0.67 1.5 1.5z"/>
					<path id="fixing 00000183241748354809469310000012906494634922193307 " fill="none" stroke="currentColor" stroke-linecap="round" stroke-miterlimit="10" d="m406.34 1835.65c0 0.83-0.68 1.5-1.5 1.5-0.83 0-1.5-0.67-1.5-1.5 0-0.83 0.67-1.5 1.5-1.5 0.82 0 1.5 0.67 1.5 1.5z"/>
					<path id="fixing 00000009569870056062527380000012626243817905010061 " fill="none" stroke="currentColor" stroke-linecap="round" stroke-miterlimit="10" d="m362.55 1835.65c0 0.83-0.68 1.5-1.5 1.5-0.83 0-1.5-0.67-1.5-1.5 0-0.83 0.67-1.5 1.5-1.5 0.82 0 1.5 0.67 1.5 1.5z"/>
				</g>
				<g id="inner">
					<path id="fixing 00000054964450951996616710000017259226629605011601 " fill="none" stroke="currentColor" stroke-linejoin="round" d="m380.31 1862.09c0 1.1-0.89 2-2 2-1.1 0-2-0.9-2-2 0-1.11 0.9-2 2-2 1.11 0 2 0.89 2 2z"/>
					<path id="fixing 00000054951979090811169840000007643215812534085003 " fill="none" stroke="currentColor" stroke-linejoin="round" d="m398.87 1846.62c0 1.11-0.9 2-2 2-1.11 0-2-0.89-2-2 0-1.1 0.89-2 2-2 1.1 0 2 0.9 2 2z"/>
					<path id="fixing 00000162334734627486093530000000834552288429300117 " fill="none" stroke="currentColor" stroke-linejoin="round" d="m418.87 1846.62c0 1.11-0.9 2-2 2-1.11 0-2-0.89-2-2 0-1.1 0.89-2 2-2 1.1 0 2 0.9 2 2z"/>
					<path id="fixing 00000041267920049168345390000001378162340504933803 " fill="none" stroke="currentColor" stroke-linejoin="round" d="m438.87 1846.62c0 1.11-0.9 2-2 2-1.11 0-2-0.89-2-2 0-1.1 0.89-2 2-2 1.1 0 2 0.9 2 2z"/>
					<path id="fixing 00000098908658492451730870000016426107113499002784 " fill="none" stroke="currentColor" stroke-linejoin="round" d="m458.27 1852.02c0 1.11-0.9 2-2 2-1.11 0-2-0.89-2-2 0-1.1 0.89-2 2-2 1.1 0 2 0.9 2 2z"/>
					<path id="fixing 00000138536797339719764990000002349238926784849051 " fill="none" stroke="currentColor" stroke-linejoin="round" d="m462.07 1883.22c0 1.11-0.9 2-2 2-1.11 0-2-0.89-2-2 0-1.1 0.89-2 2-2 1.1 0 2 0.9 2 2z"/>
					<path id="fixing 00000104693475288781727180000009117953425225972659 " fill="none" stroke="currentColor" stroke-linejoin="round" d="m453.47 1900.42c0 1.11-0.9 2-2 2-1.11 0-2-0.89-2-2 0-1.1 0.89-2 2-2 1.1 0 2 0.9 2 2z"/>
					<path id="fixing 00000163057508464491278710000007943914145907964051 " fill="none" stroke="currentColor" stroke-linejoin="round" d="m431.67 1900.42c0 1.11-0.89 2-2 2-1.1 0-2-0.89-2-2 0-1.1 0.9-2 2-2 1.11 0 2 0.9 2 2z"/>
					<path id="fixing 00000096016976742465772050000003508213831219161259 " fill="none" stroke="currentColor" stroke-linejoin="round" d="m409.67 1900.42c0 1.11-0.89 2-2 2-1.1 0-2-0.89-2-2 0-1.1 0.9-2 2-2 1.11 0 2 0.9 2 2z"/>
				</g>
			</g>
		</g>
</g>
</svg>