<svg xmlns="http://www.w3.org/2000/svg" viewBox="0 0 214.98 230.39">
<g transform="translate(-608.01,-2002.59)" stroke-width="8.23">
<g id="GPU-Block-Active-Backplate-icon-v3">
			<g id="frontplate 00000023968244635062353040000007569658289534817950 ">
				<g id="fixings 00000054950532872948930280000012811469933567576197 ">
					<path id="fixing 00000095324198877104518570000016177320503472832446 " fill="none" stroke="currentColor" stroke-linejoin="round" d="m735.08 2047.74c0 0.69-0.56 1.26-1.25 1.26-0.7 0-1.26-0.57-1.26-1.26 0-0.7 0.56-1.26 1.26-1.26 0.69 0 1.25 0.56 1.25 1.26z"/>
					<path id="fixing 00000041980996178623897380000012347252682856484537 " fill="none" stroke="currentColor" stroke-linejoin="round" d="m754.44 2062.35c0 0.7-0.57 1.26-1.26 1.26-0.7 0-1.26-0.56-1.26-1.26 0-0.69 0.56-1.26 1.26-1.26 0.69 0 1.26 0.57 1.26 1.26z"/>
					<path id="fixing 00000047754356582111296050000007994221865426663828 " fill="none" stroke="currentColor" stroke-linejoin="round" d="m754.44 2089.21c0 0.7-0.57 1.26-1.26 1.26-0.7 0-1.26-0.56-1.26-1.26 0-0.69 0.56-1.25 1.26-1.25 0.69 0 1.26 0.56 1.26 1.25z"/>
					<path id="fixing 00000049913907030382628540000002366619577300370056 " fill="none" stroke="currentColor" stroke-linejoin="round" d="m651.06 2059.84c0 0.69-0.56 1.25-1.26 1.25-0.69 0-1.26-0.56-1.26-1.25 0-0.7 0.57-1.26 1.26-1.26 0.7 0 1.26 0.56 1.26 1.26z"/>
					<path id="fixing 00000036228923517126494460000018118428598756107428 " fill="none" stroke="currentColor" stroke-linejoin="round" d="m668.8 2041.85c0 0.7-0.57 1.26-1.26 1.26-0.7 0-1.26-0.56-1.26-1.26 0-0.69 0.56-1.26 1.26-1.26 0.69 0 1.26 0.57 1.26 1.26z"/>
					<path id="fixing 00000046320809359170108120000013298395205841785789 " fill="none" stroke="currentColor" stroke-linejoin="round" d="m702.09 2045.61c0 0.7-0.57 1.26-1.26 1.26-0.7 0-1.26-0.56-1.26-1.26 0-0.69 0.56-1.25 1.26-1.25 0.69 0 1.26 0.56 1.26 1.25z"/>
					<path id="fixing 00000110442795041636314060000017102929227057018498 " fill="none" stroke="currentColor" stroke-linejoin="round" d="m651.06 2089.21c0 0.7-0.56 1.26-1.26 1.26-0.69 0-1.26-0.56-1.26-1.26 0-0.69 0.57-1.25 1.26-1.25 0.7 0 1.26 0.56 1.26 1.25z"/>
					<path id="fixing 00000106119315870482074610000003909363133486987191 " fill="none" stroke="currentColor" stroke-linejoin="round" d="m673.92 2103.26c0 0.7-0.57 1.26-1.26 1.26-0.7 0-1.26-0.56-1.26-1.26 0-0.69 0.56-1.26 1.26-1.26 0.69 0 1.26 0.57 1.26 1.26z"/>
					<path id="fixing 00000014607205585542445350000000064315979300368283 " fill="none" stroke="currentColor" stroke-linejoin="round" d="m704.02 2103.26c0 0.7-0.56 1.26-1.26 1.26-0.69 0-1.26-0.56-1.26-1.26 0-0.69 0.57-1.26 1.26-1.26 0.7 0 1.26 0.57 1.26 1.26z"/>
					<path id="fixing 00000016052892128463530290000018119160669197032583 " fill="none" stroke="currentColor" stroke-linejoin="round" d="m734.13 2103.26c0 0.7-0.57 1.26-1.26 1.26-0.7 0-1.26-0.56-1.26-1.26 0-0.69 0.56-1.26 1.26-1.26 0.69 0 1.26 0.57 1.26 1.26z"/>
				</g>
				<path id="block 00000098912001613120155150000015272010806155866296 " fill="none" stroke="currentColor" stroke-linejoin="round" d="m757.81 2038.12v74.64h-19.3v-2c0-1.11-0.89-2-2-2h-90.41v-63.78h15c1.48 0 2.69-1.2 2.69-2.68v-4.18"/>
				<path id="profile 00000026125287620469693970000014491604961093991096 " fill="none" stroke="currentColor" stroke-linejoin="round" d="m675.34 2038.12v-9.6l8.73-10.93h29.41l18.13 13.13v7.4h76.38v79.03h-184.98v-79.03zm56.27 0h-13.1m-21.95 0h8.52m-29.74 0h7.8"/>
				<path id="channels 00000075162411096185722320000006388688832237068214 " fill="none" stroke="currentColor" stroke-linejoin="round" d="m718.5 2027.74v24.4c0 0.67 0.33 1.3 0.88 1.68l6.87 4.69v-1.12c0-1.04 1.11-1.69 2.02-1.18l14.09 7.9c1.07 0.6 1.73 1.73 1.73 2.95v24.73c0 0.9-0.35 1.76-0.99 2.39l-1.97 1.97c-0.63 0.64-1.5 1-2.39 1h-7.97c-0.84 0-1.65-0.31-2.27-0.87l-6.21-5.6c-0.63-0.56-1.43-0.87-2.27-0.87h-29.65c-1.5 0-2.72-1.21-2.72-2.71v-0.97c0-1.5 1.22-2.71 2.72-2.71h18.93c0.35 0 0.7-0.14 0.95-0.4l8.81-8.8c0.53-0.53 0.53-1.39 0-1.92l-9.13-9.13c-0.25-0.25-0.6-0.39-0.96-0.39h-18.6c-1.5 0-2.72-1.22-2.72-2.71v-0.91c0-1.5 1.22-2.71 2.72-2.71h16.73c1.21 0 1.82-1.46 0.96-2.32l-2.39-2.39c-0.38-0.38-0.59-0.9-0.59-1.44v-22.56m-8.52 0v23.17c0 0.54-0.21 1.06-0.59 1.44l-1.52 1.52c-0.39 0.38-0.9 0.6-1.44 0.6h-5.45c-1.12 0-2.03 0.91-2.03 2.03v12.28h23.22c1.87 0 3.39 1.52 3.39 3.39v1.21c0 1.88-1.52 3.39-3.39 3.39h-23.22v5.25c0 0.9-0.36 1.76-0.99 2.39l-8.36 8.36c-0.64 0.64-1.5 0.99-2.4 0.99h-6.51c-0.9 0-1.76-0.35-2.39-0.99l-8.69-8.69c-0.64-0.63-1-1.49-1-2.39v-13.61c0-1.06 0.5-2.06 1.34-2.7l15.59-11.88c0.59-0.45 1.31-0.69 2.05-0.69h5.92c1.12 0 2.03-0.91 2.03-2.04v-3.99c0-0.56 0.46-1.02 1.02-1.02v-18.02m27.33 35.97v5.54m0 7.06v6.5m17.63-2.53c0.43 0.43 1.16 0.12 1.16-0.48v-7.04c0 1.87-1.52 3.39-3.39 3.39v1.62q0 0.28 0.2 0.48zm-53.24 1.78l-2.68 2c-0.17 0.13-0.28 0.33-0.28 0.54v1.35c0 0.6-0.73 0.91-1.15 0.48l-3.86-3.86q-0.2-0.2-0.2-0.48v-14.61c0-0.24 0.13-0.47 0.34-0.59l4.41-2.55c0.21-0.12 0.34-0.34 0.34-0.58v-3.15c0-0.22 0.11-0.43 0.29-0.56l2-1.39c0.45-0.31 1.07 0.01 1.07 0.56v22.3c0 0.21-0.11 0.42-0.28 0.54zm16.32-19.29v6.01m0 7.99v6.65m21.62-37.94h-2.03v-8.37h2.03zm-21.94 0h-2.03v-8.37h2.03z"/>
				<path id="output 00000086672041692421481000000007492193868341223304 " fill="none" stroke="currentColor" stroke-linejoin="round" d="m716.22 2027.74c0 2.45-1.98 4.44-4.43 4.44-2.45 0-4.44-1.99-4.44-4.44 0-2.45 1.99-4.44 4.44-4.44 2.45 0 4.43 1.99 4.43 4.44z"/>
				<path id="input 00000085239753453826494750000014488594707988624514 " fill="none" stroke="currentColor" stroke-linejoin="round" d="m694.29 2027.74c0 2.45-1.99 4.44-4.44 4.44-2.45 0-4.44-1.99-4.44-4.44 0-2.45 1.99-4.44 4.44-4.44 2.45 0 4.44 1.99 4.44 4.44z"/>
			</g>
			<g id="backplate 00000054254010127177000000000004582645235808850329 ">
				<g id="fixings 00000055686230799007360880000014220181793924595840 ">
					<path id="fixing 00000121998955749918755540000012196805010817938072 " fill="none" stroke="currentColor" stroke-linejoin="round" d="m677.86 2194.37c0-0.7-0.57-1.26-1.26-1.26-0.7 0-1.26 0.56-1.26 1.26 0 0.69 0.56 1.26 1.26 1.26 0.69 0 1.26-0.57 1.26-1.26z"/>
					<path id="fixing 00000109717935795642810760000003037362010482443402 " fill="none" stroke="currentColor" stroke-linejoin="round" d="m654.03 2171.38c0-0.7-0.56-1.26-1.26-1.26-0.69 0-1.26 0.56-1.26 1.26 0 0.69 0.57 1.25 1.26 1.25 0.7 0 1.26-0.56 1.26-1.25z"/>
					<path id="fixing 00000059299984604788277140000008042774881945306766 " fill="none" stroke="currentColor" stroke-linejoin="round" d="m704.89 2138.44c0-0.7-0.56-1.26-1.26-1.26-0.69 0-1.25 0.56-1.25 1.26 0 0.69 0.56 1.25 1.25 1.25 0.7 0 1.26-0.56 1.26-1.25z"/>
					<path id="fixing 00000008148254403418799710000017062207204228259215 " fill="none" stroke="currentColor" stroke-linejoin="round" d="m674.94 2138.44c0-0.7-0.56-1.26-1.26-1.26-0.69 0-1.26 0.56-1.26 1.26 0 0.69 0.57 1.25 1.26 1.25 0.7 0 1.26-0.56 1.26-1.25z"/>
					<path id="fixing 00000173846357422088158000000004281408536398478756 " fill="none" stroke="currentColor" stroke-linejoin="round" d="m654.03 2145.15c0-0.69-0.56-1.26-1.26-1.26-0.69 0-1.26 0.57-1.26 1.26 0 0.7 0.57 1.26 1.26 1.26 0.7 0 1.26-0.56 1.26-1.26z"/>
					<path id="fixing 00000010304545032719064900000001447918962135124669 " fill="none" stroke="currentColor" stroke-linejoin="round" d="m743.07 2148.71c0-0.7-0.57-1.26-1.26-1.26-0.7 0-1.26 0.56-1.26 1.26 0 0.69 0.56 1.26 1.26 1.26 0.69 0 1.26-0.57 1.26-1.26z"/>
					<path id="fixing 00000047060238798771712850000002545893298662352057 " fill="none" stroke="currentColor" stroke-linejoin="round" d="m726.41 2148.71c0-0.7-0.57-1.26-1.26-1.26-0.7 0-1.26 0.56-1.26 1.26 0 0.69 0.56 1.26 1.26 1.26 0.69 0 1.26-0.57 1.26-1.26z"/>
					<path id="fixing 00000167397514672939195230000006850155065099365766 " fill="none" stroke="currentColor" stroke-linejoin="round" d="m721.67 2194.37c0-0.7-0.57-1.26-1.26-1.26-0.7 0-1.26 0.56-1.26 1.26 0 0.69 0.56 1.26 1.26 1.26 0.69 0 1.26-0.57 1.26-1.26z"/>
					<path id="fixing 00000108278622063554724620000016272369523203250056 " fill="none" stroke="currentColor" stroke-linejoin="round" d="m739.01 2186.46c0-0.7-0.57-1.26-1.26-1.26-0.7 0-1.26 0.56-1.26 1.26 0 0.69 0.56 1.26 1.26 1.26 0.69 0 1.26-0.57 1.26-1.26z"/>
					<path id="fixing 00000149362209073773355710000013361058622526135208 " fill="none" stroke="currentColor" stroke-linejoin="round" d="m750.01 2166.83c0-0.7-0.56-1.26-1.26-1.26-0.69 0-1.26 0.56-1.26 1.26 0 0.69 0.57 1.26 1.26 1.26 0.7 0 1.26-0.57 1.26-1.26z"/>
				</g>
				<g id="inlet-outlet 00000176737897721147347490000015451031760825120954 ">
					<path id="outlet 00000145772006273508259440000001896820864236516784 " fill="none" stroke="currentColor" stroke-linejoin="round" d="m714.37 2207.84c0-2.41-1.95-4.37-4.36-4.37-2.41 0-4.37 1.96-4.37 4.37 0 2.41 1.96 4.36 4.37 4.36 2.41 0 4.36-1.95 4.36-4.36z"/>
					<path id="inlet 00000152266097662601753590000013600228990980647325 " fill="none" stroke="currentColor" stroke-linejoin="round" d="m694.22 2207.84c0-2.41-1.96-4.37-4.37-4.37-2.41 0-4.36 1.96-4.36 4.37 0 2.41 1.95 4.36 4.36 4.36 2.41 0 4.37-1.95 4.37-4.36z"/>
				</g>
				<g id="channels 00000135653637173168993460000000503381730491823510 ">
					<path id="flow-reducer 00000111177414297939709430000016096596920734318212 " fill="none" stroke="currentColor" stroke-linejoin="round" d="m684.24 2163.97h9.21m-12.84 3.63h9.21m-12.85 3.63h12.85m-12.85 3.68h12.85m-1.95-14.58h9.22m-5.68-3.53h9.21m-9.21-3.53h12.74m-12.74-3.51h12.74"/>
					<path id="channels 00000181065762544378948700000010748512297156687278 " fill="none" stroke="currentColor" stroke-linejoin="round" d="m683.14 2207.84v-15.89c0-0.37-0.3-0.67-0.67-0.67h-6.97c-0.36 0-0.69-0.13-0.94-0.38l-17.7-17.31c-0.26-0.25-0.4-0.59-0.4-0.96v-29.17c0-0.74 0.6-1.34 1.34-1.34h53.29c0.36 0 0.7 0.14 0.95 0.39l9.49 9.49c0.25 0.25 0.59 0.4 0.95 0.4h19.9c1.48 0 2.69 1.2 2.69 2.68v22.03q-0.01 0.35-0.25 0.6l-5.21 5.21q-0.25 0.25-0.6 0.25h-13.82q-0.35 0.01-0.6 0.25l-7.62 7.61q-0.24 0.26-0.25 0.61v16.2m-13.43 0v-15.71c0-0.47-0.38-0.85-0.85-0.85-0.47 0-0.85-0.38-0.85-0.85v-13.73q0.01-0.35 0.25-0.61l5.55-5.54q0.25-0.24 0.6-0.25h25.42c0.47 0 0.86-0.38 0.86-0.85v-1.15q-0.01-0.35-0.25-0.6l-1.85-1.85q-0.26-0.24-0.61-0.25h-16.84c-0.36 0-0.7-0.14-0.95-0.39l-3.86-3.86c-0.25-0.25-0.59-0.4-0.95-0.4h-8.53c-0.36 0-0.7 0.15-0.95 0.4l-5.07 5.07c-0.26 0.25-0.4 0.6-0.4 0.95v8.3q0.01 0.35 0.25 0.6l3.76 3.76q0.25 0.25 0.25 0.6v9.8c0 0.47-0.38 0.85-0.85 0.85-0.47 0-0.85 0.38-0.85 0.85v15.71m-18.78-44.26h2.66c0.36 0 0.7-0.14 0.95-0.39l6.6-6.6c0.25-0.25 0.39-0.59 0.39-0.95v-2.48c0-0.37-0.3-0.67-0.67-0.67h-10.68c-0.36 0-0.7 0.14-0.95 0.39l-6.9 6.9c-0.25 0.25-0.39 0.59-0.39 0.95v8.18c0 0.37 0.3 0.67 0.67 0.67h6.32c0.56 0 1-0.44 1-1v-4c0-0.55 0.45-1 1-1z"/>
				</g>
				<path id="block 00000075875889605318801710000005348732265783174324 " fill="none" stroke="currentColor" stroke-linejoin="round" d="m670.69 2197.45l-19.59-19.22c-1.28-1.26-2.01-3-2.01-4.8v-31.97c0-3.7 3.01-6.71 6.71-6.71h56.29c1.8 0 3.48 0.7 4.75 1.97l8.31 8.3h19.23c4.44 0 8.06 3.62 8.06 8.06v24.83c0 1.66-0.65 3.23-1.82 4.4l-5.61 5.61c-1.18 1.18-2.74 1.82-4.4 1.82h-11.95l-4.57 4.57v3.14"/>
				<path id="backplate 00000008127259764993238470000010207356171409363135 " fill="none" stroke="currentColor" stroke-linejoin="round" d="m801.21 2195.77v-3l-1.68-1.68h-45.76l-1.68 1.68v3l-1.68 1.68h-18.8v7.41l-18.13 13.12h-29.41l-8.73-10.92v-9.61h-13.69l-1.68-1.68v-1.06l-1.68-1.68h-33.61l-1.67-1.68v-66.2h184.98v72.3h-5.1zm-84.49 1.68h14.89m-48.47 0h-7.8m27.95 0h-6.72"/>
			</g>
		</g>
</g>
</svg>