<svg xmlns="http://www.w3.org/2000/svg" viewBox="0 0 251.02 125.00">
<g transform="translate(-589.99,-624.05)" stroke-width="14.77">
<g id="Graphics-Card-founders-edition-icon-v3 00000057832348935037242570000000387180575090036377 ">
			<path id="IO 00000147216602371556459370000017954139493714159500 " fill="currentColor" stroke="currentColor" stroke-miterlimit="10" d="m612.11 734.05v-82.35h-7.12"/>
			<path id="connector 00000121973752445841174160000004222579966327078070 " fill="currentColor" stroke="currentColor" stroke-linecap="round" stroke-linejoin="round" d="m637.72 713.97v10.92h13.34v-7.24c0-0.64 0.51-1.15 1.15-1.16h0.43c0.64-0.01 1.16 0.51 1.16 1.16v7.24h63.94v-7.24c0-0.64 0.51-1.15 1.15-1.16h0.42c0.65-0.01 1.17 0.51 1.17 1.16v3.77h6.84c0.64 0 1.16-0.52 1.16-1.16v-3.01h-3.41v-3.28"/>
			<g id="case 00000111171729896490621580000010191077198487522945 ">
				<path id="outer-left 00000010291509814897035400000005285244275947829951 " fill="currentColor" stroke="currentColor" stroke-miterlimit="10" d="m670.17 639.05h-50.82v72.51h50.82c3.69 0 7.23-1.47 9.84-4.08l25.42-25.42c1.81-1.81 4.75-1.81 6.56 0l25.52 25.54c1.46 1.46 0.43 3.96-1.64 3.96h-54.14"/>
				<path id="outer-right 00000080206815549940882460000017196833581253617086 " fill="currentColor" stroke="currentColor" stroke-miterlimit="10" d="m733.37 639.05l-52.62 0.02c-2.06 0.01-3.1 2.5-1.64 3.96l25.34 25.34c1.81 1.81 4.75 1.81 6.56 0l25.24-25.25c2.61-2.61 6.15-4.07 9.84-4.07h70.65c5.12 0 9.27 4.15 9.27 9.27v53.96c0 5.12-4.15 9.28-9.27 9.28h-70.65"/>
				<path id="inner-left 00000132769065325670858340000009590077486142549430 " fill="currentColor" stroke="currentColor" stroke-miterlimit="10" d="m676.33 646.39l25.62 25.63c1.82 1.81 1.81 4.75 0 6.56l-25.78 25.78c-1.74 1.74-4.1 2.72-6.56 2.72h-45.63v-63.56l45.83 0.15c2.45 0.01 4.79 0.99 6.52 2.72z"/>
				<path id="inner-right 00000141421156509312451090000008557966177809384066 " fill="currentColor" stroke="currentColor" stroke-miterlimit="10" d="m740.62 704.54l-25.96-25.96c-1.81-1.81-1.81-4.75 0-6.56l25.79-25.79c1.74-1.74 4.1-2.71 6.56-2.71h69.73c2.56 0 4.64 2.07 4.64 4.63v54.47c0 2.56-2.08 4.63-4.64 4.63h-69.56c-2.46 0-4.82-0.97-6.56-2.71z"/>
				<path id="markings 00000043431542975987048390000009984433510652480676 " fill="currentColor" stroke="currentColor" stroke-miterlimit="10" d="m807.74 681.53h-51.56m0-12.29h51.56"/>
			</g>
			<g id="fan 00000027602967531341747360000007253389384392751534 ">
				<path id="cutout 00000087378015755920608240000004892179449715551885 " fill="currentColor" stroke="currentColor" stroke-miterlimit="10" d="m637.9 694.16c-10.41-10.42-10.41-27.3 0-37.71 10.42-10.42 27.3-10.42 37.71 0 10.42 10.41 10.42 27.29 0 37.71-10.41 10.41-27.29 10.41-37.71 0z"/>
				<path id="centre 00000174594082221977147090000014994950640026509223 " fill="currentColor" stroke="currentColor" stroke-miterlimit="10" d="m650.38 675.3c0-3.52 2.86-6.38 6.38-6.38 3.52 0 6.38 2.86 6.38 6.38 0 3.52-2.86 6.38-6.38 6.38-3.52 0-6.38-2.86-6.38-6.38z"/>
				<g id="blades 00000116218824932991455810000007812437475517586565 ">
					<path id="blade-T 00000118372002331162751360000008213403457917135268 " fill="currentColor" stroke="currentColor" stroke-miterlimit="10" d="m650.99 669.18c-1.05-2.2-3.65-7.81-3.65-10.03 0-2.77 1.16-4.22 3.7-5.62 2.55-1.4 6.83-1.96 11.65-0.65 2.51 0.68 3.94 0.99 5.22 2.27 1.94 1.94-3.34 1.23-5.96 6.05"/>
					<path id="blade-B 00000163049732108099769030000005313893007446534822 " fill="currentColor" stroke="currentColor" stroke-miterlimit="10" d="m662.52 681.43c1.06 2.19 3.66 7.81 3.66 10.02 0 2.78-1.16 4.22-3.71 5.62-2.54 1.4-6.82 1.97-11.64 0.66-2.51-0.69-3.95-1-5.22-2.28-1.95-1.94 3.34-1.22 5.96-6.05"/>
					<path id="blade-L 00000024000600752711891940000011272355453588653740 " fill="currentColor" stroke="currentColor" stroke-miterlimit="10" d="m650.63 681.07c-2.19 1.05-7.8 3.65-10.02 3.65-2.78 0-4.22-1.16-5.62-3.7-1.4-2.55-1.97-6.83-0.66-11.65 0.69-2.51 1-3.94 2.28-5.22 1.94-1.94 1.22 3.34 6.05 5.96"/>
					<path id="blade-R 00000098940951614882131580000003694488872668864921 " fill="currentColor" stroke="currentColor" stroke-miterlimit="10" d="m662.88 669.54c2.2-1.06 7.81-3.66 10.03-3.66 2.78 0 4.22 1.16 5.62 3.71 1.4 2.54 1.96 6.82 0.65 11.64-0.68 2.51-0.99 3.95-2.27 5.22-1.94 1.95-1.22-3.34-6.05-5.96"/>
				</g>
			</g>
		</g>
</g>
</svg>