<svg xmlns="http://www.w3.org/2000/svg" viewBox="0 0 238.26 196.33">
<g transform="translate(-4219.95,-2009.01)" stroke-width="8.51">
<g id="Graphics-Tablet-icon 00000031186282232852528960000017782793016670641080 ">
			<g id="tablet 00000101796862517747814510000007899983883393038520 ">
				<path id="tablet 00000172440172514828626740000009251125564299137423 " fill="none" stroke="currentColor" stroke-linecap="round" stroke-miterlimit="10" d="m4253.21 2116.23v-41.89c0-2.21 1.79-4 4-4h182c2.21 0 4 1.79 4 4v112c0 2.2-1.79 4-4 4h-182c-2.21 0-4-1.8-4-4v-41.9m24-70.1v112"/>
				<path id="corners 00000035500610169987574850000015905391743992948412 " fill="none" stroke="currentColor" stroke-linecap="round" stroke-miterlimit="10" d="m4282.02 2086.34v-12.01h12m-12 100v12h12m132.1 0h12v-12m0-88v-12h-12"/>
				<g id="buttons 00000002386038599852008020000007706218955307144069 ">
					<path id="buttons 00000070082858935074167060000012287968790202397312 " fill="none" stroke="currentColor" stroke-miterlimit="10" d="m4259.21 2075.14h12c0.55 0 1 0.44 1 1v5c0 0.55-0.45 1-1 1h-12c-0.55 0-1-0.45-1-1v-5c0-0.56 0.45-1 1-1zm-1 12v5c0 0.55 0.45 1 1 1h12c0.55 0 1-0.45 1-1v-5c0-0.56-0.45-1-1-1h-12c-0.55 0-1 0.44-1 1zm0 11v5c0 0.55 0.45 1 1 1h12c0.55 0 1-0.45 1-1v-5c0-0.56-0.45-1-1-1h-12c-0.55 0-1 0.44-1 1zm0 11v5c0 0.55 0.45 1 1 1h12c0.55 0 1-0.45 1-1v-5c0-0.56-0.45-1-1-1h-12c-0.55 0-1 0.44-1 1z"/>
					<path id="buttons 00000179631931756102878580000004762188452511458448 " fill="none" stroke="currentColor" stroke-miterlimit="10" d="m4259.21 2147.34l12-0.01c0.55 0 1 0.45 1 1v5c0 0.56-0.45 1-1 1h-12c-0.55 0-1-0.44-1-1v-5c0-0.55 0.45-1 1-1zm-1 12v5c0 0.56 0.45 1 1 1h12c0.55 0 1-0.44 1-1v-5c0-0.55-0.45-1-1-1h-12c-0.55 0-1 0.45-1 1zm0 11v5c0 0.56 0.45 1 1 1h12c0.55 0 1-0.44 1-1v-5c0-0.55-0.45-1-1-1h-12c-0.55 0-1 0.45-1 1zm0 11v5c0 0.56 0.45 1 1 1h12c0.55 0 1-0.44 1-1v-5c0-0.55-0.45-1-1-1h-12c-0.55 0-1 0.45-1 1z"/>
				</g>
				<path id="wheel 00000075129510886923625250000012023780304273326245 " fill="none" stroke="currentColor" stroke-miterlimit="10" d="m4270.21 2130.34c0 6.69-5.43 12.12-12.13 12.12-6.69 0-12.12-5.43-12.12-12.13 0-6.69 5.43-12.12 12.12-12.12 6.7 0 12.13 5.43 12.13 12.12zm-12.13-7.5c-4.14 0-7.5 3.36-7.5 7.5 0 4.15 3.36 7.5 7.5 7.5 4.15 0 7.5-3.35 7.5-7.5 0-4.14-3.35-7.5-7.5-7.5z"/>
			</g>
			<path id="pen 00000114070431319796395160000009455307145794345124 " fill="none" stroke="currentColor" stroke-linecap="round" stroke-linejoin="round" d="m4406.03 2052.66h-110.86m0-8.17h110.86m-122.44 6.04l9.58 2.13v-8.17l-9.58 2.14c-2.09 0.46-2.09 3.44 0 3.9zm124.44 2.13h7.89c1.11 0 2-0.89 2-2v-4.17c0-1.1-0.89-2-2-2h-7.89zm-129.54-4.09h3.53m24.32 0h15.26m4.74 0h15.26"/>
			<path id="cable 00000067939789417982022050000012796280645183250314 " fill="none" stroke="currentColor" stroke-miterlimit="10" d="m4253.21 2084.64h-8.26c-1.38 0-2.5-1.12-2.5-2.5 0-1.39 1.12-2.5 2.5-2.5h8.26m-14.93-55.63c0 32.15-21.19 58.13-3.33 58.13h7.5"/>
		</g>
</g>
</svg>