<svg xmlns="http://www.w3.org/2000/svg" viewBox="0 0 235.82 100.33">
<g transform="translate(-3947.59,-878.09)" stroke-width="8.42">
<g id="Hard-Line-Cutting-Tool-icon">
			<path id="body 00000065070769081525288310000005995616188031659444 " fill="none" stroke="currentColor" stroke-linecap="round" stroke-miterlimit="10" d="m4100.99 922.77c-25.77-6.87-49.66-16.83-71.79-29.68-21.05-12.24-48.14-4.42-59.16 17.29-4.71 9.3-7.45 19.56-7.45 28.91 0 7.24 1.65 14.1 4.59 20.23 0.22 0.45 0.64 0.78 1.12 0.91l11.95 2.99c0.62 0.16 1.28-0.05 1.7-0.54l2.65-3.09c0.51-0.59 0.56-1.47 0.09-2.09-4.23-5.69-6.56-12.89-6.02-20.64 1.07-15.2 13.37-27.5 28.57-28.56 18.05-1.26 33.09 13.01 33.09 30.79v14.18c0 2.44 2.04 4.37 4.47 4.24l56.19-2.98"/>
			<g id="cutting-tool 00000121262541024695548230000005371684159170109366 ">
				<path id="blade" fill="none" stroke="currentColor" stroke-linecap="round" stroke-miterlimit="10" d="m4018.8 929.95c-5.16-5.15-13.52-5.15-18.67 0-5.16 5.16-5.16 13.51 0 18.67 5.15 5.15 13.51 5.15 18.66 0"/>
				<path id="cutting-tool" fill="none" stroke="currentColor" stroke-miterlimit="10" d="m4040.33 947.77h-30.87c-4.69 0-8.49-3.8-8.49-8.48 0-4.69 3.8-8.49 8.49-8.49h29.68m-29.68 4.24c2.35 0 4.25 1.9 4.25 4.25 0 2.34-1.9 4.24-4.25 4.24-2.34 0-4.24-1.9-4.24-4.24 0-2.35 1.9-4.25 4.24-4.25z"/>
			</g>
			<g id="setting">
				<path id="handle 00000101076610680108196380000016670021291445360555 " fill="none" stroke="currentColor" stroke-miterlimit="10" d="m4112.86 957.76l-8.34-0.7c-1.04-0.09-1.84-0.95-1.84-1.99v-32.63c0-1.04 0.8-1.91 1.84-2l8.34-0.69m0-0.27c0-1.06 0.84-1.94 1.9-1.99l42.77-2.07c5.89-0.29 10.88 3.21 10.88 7.62v31.43c0 4.41-4.99 7.9-10.88 7.62l-42.77-2.07c-1.06-0.05-1.9-0.93-1.9-2z"/>
				<path id="grip 00000077326443339774534860000016190521557616028063 " fill="none" stroke="currentColor" stroke-miterlimit="10" d="m4116.86 960.12v-3.87c0-1.11 0.9-2 2-2h35.31c2.45 0 4.44-1.52 4.44-3.4 0-1.87-1.99-3.39-4.44-3.39h-35.31c-1.1 0-2-0.9-2-2v-1.1c0-1.1 0.9-2 2-2h35.31c2.45 0 4.44-1.52 4.44-3.39 0-1.88-1.99-3.4-4.44-3.4h-35.31c-1.1 0-2-0.89-2-2v-1.09c0-1.11 0.9-2 2-2h35.31c2.45 0 4.44-1.52 4.44-3.4 0-1.87-1.99-3.39-4.44-3.39h-35.31c-1.1 0-2-0.9-2-2v-4.31"/>
			</g>
			<path id="branding 00000063615458304806789290000002206591920559044236 " fill="none" stroke="currentColor" stroke-linecap="round" stroke-miterlimit="10" d="m4090.5 941.57h-32.05"/>
			<path id="rollers" fill="none" stroke="currentColor" stroke-miterlimit="10" d="m3982.79 923.79c1.48 1.56 2.39 3.67 2.39 6 0 4.07-2.79 7.49-6.56 8.46m0.03 2.68c3.75 0.98 6.53 4.39 6.53 8.46 0 2.21-0.83 4.23-2.18 5.77"/>
		</g>
</g>
</svg>