<svg xmlns="http://www.w3.org/2000/svg" viewBox="0 0 162.25 199.85">
<g transform="translate(-2037.55,-573.96)">
<g id="External-Hard-Drive-icon-v1">
			<path id="&lt;Path&gt;" fill="currentColor" stroke="currentColor" stroke-miterlimit="10" d="m2082.23 653.17z"/>
			<path id="&lt;Path&gt;" fill="currentColor" stroke="currentColor" stroke-miterlimit="10" d="m2133.35 637.61z"/>
			<path id="branding 00000164482901502940486250000010484949880244035726 " fill="currentColor" stroke="currentColor" stroke-linecap="round" stroke-miterlimit="10" d="m2146.82 756.55l-11.87 2.26c-1.72 0.33-3.51 0.12-5.11-0.61l-13.02-5.85c-1.1-0.49-2.3-0.75-3.51-0.75h-23.76c-1.21 0-2.41 0.26-3.52 0.75l-13.01 5.85c-1.6 0.73-3.39 0.94-5.11 0.61l-11.87-2.26c-2.03-0.39-3.49-2.16-3.49-4.22v-121.52c0-2.06 1.46-3.83 3.49-4.22l11.87-2.26c1.72-0.33 3.51-0.12 5.11 0.6l13.01 5.86c1.11 0.49 2.31 0.75 3.52 0.75h23.76c1.21 0 2.41-0.26 3.51-0.75l13.02-5.86c1.6-0.72 3.39-0.93 5.11-0.6l11.87 2.26c2.02 0.39 3.49 2.16 3.49 4.22v121.52c0 2.06-1.47 3.83-3.49 4.22zm-14.46-118.74l-15.85 7.45h-30.16l-15.23-7.16c-0.4-0.19-0.86-0.25-1.31-0.16l-1.8 0.34c-1.01 0.19-1.74 1.07-1.74 2.1v102.38c0 1.02 0.73 1.91 1.74 2.1l1.8 0.34c0.45 0.09 0.91 0.03 1.31-0.16l15.23-7.16h30.16l15.22 7.16c0.41 0.19 0.87 0.25 1.32 0.16l1.8-0.34c1.01-0.19 1.74-1.08 1.74-2.1v-102.38c0-1.03-0.73-1.91-1.74-2.1zm-54.85 118.38h47.83m0-129.23h-47.83"/>
			<path id="branding 00000130646898239658769310000016602865091618421383 " fill="currentColor" stroke="currentColor" stroke-miterlimit="10" d="m2115.33 683.97v-22.54c0-1.89-1.54-3.43-3.43-3.43h-20.94c-1.89 0-3.43 1.54-3.43 3.43v22.54c0 1.9 1.54 3.43 3.43 3.43h20.94c1.89 0 3.43-1.53 3.43-3.43zm-9.78-6.72v-1.38c0-1.75-1.42-3.17-3.17-3.17h-5.71c-1.75 0-3.17-1.41-3.17-3.17v-1.58c0-1.75 1.42-3.17 3.17-3.17h9.51c1.76 0 3.18 1.42 3.18 3.17v9.51c0 1.75-1.42 3.17-3.18 3.17h-9.51c-1.75 0-3.17-1.42-3.17-3.17v-3.54"/>
			<g id="usb-cable">
				<path id="cable 00000152248457155223069920000013867205819169439904 " fill="currentColor" stroke="currentColor" stroke-miterlimit="10" d="m2171.46 701.64v-96.62c0-8.87-7.19-16.06-16.06-16.06h-24.47c-8.87 0-16.06 7.19-16.06 16.06v4.14"/>
				<path id="usb-connector 00000002369462275207587920000000752972239010730662 " fill="currentColor" stroke="currentColor" stroke-linejoin="round" d="m2109.94 626.95v-9.86q0-0.38 0.13-0.73l1.06-2.95c0.3-0.85 1.11-1.41 2.01-1.41h3.47c0.9 0 1.71 0.56 2.01 1.41l1.06 2.95q0.13 0.35 0.13 0.73v9.86m-2.88-4.75v-3.27c0-0.6-0.48-1.08-1.07-1.08h-1.97c-0.59 0-1.07 0.48-1.07 1.08v3.27c0 0.59 0.48 1.07 1.07 1.07h1.97c0.59 0 1.07-0.48 1.07-1.07zm-0.32-10.2v-2.31c0-0.29-0.24-0.53-0.54-0.53h-2.39c-0.3 0-0.54 0.24-0.54 0.53v2.31"/>
				<path id="usb-connector" fill="currentColor" stroke="currentColor" stroke-linejoin="round" d="m2166.53 720.54v-10.98q0-0.37 0.12-0.72l1.06-2.95c0.31-0.85 1.12-1.41 2.02-1.41h3.46c0.91 0 1.71 0.56 2.02 1.41l1.06 2.95q0.13 0.35 0.13 0.72v10.98zm6.99-4.79v-3.7c0-0.6-0.48-1.07-1.07-1.07h-1.97c-0.6 0-1.08 0.47-1.08 1.07v3.7c0 0.59 0.48 1.07 1.08 1.07h1.97c0.59 0 1.07-0.48 1.07-1.07zm-0.33-11.27v-2.31c0-0.29-0.24-0.53-0.53-0.53h-2.4c-0.29 0-0.53 0.24-0.53 0.53v2.31m5.2 16.06v5.91h-6.93v-5.91m2.18 2.04v2.11m2.57-2.11v2.11"/>
			</g>
		</g>
</g>
</svg>