<svg xmlns="http://www.w3.org/2000/svg" viewBox="0 0 180.00 130.00">
<g transform="translate(-1742.17,-622.04)" stroke-width="10.59">
<g id="Hard-Drive-icon-v1 00000102523326775431270670000012785817120360993160 ">
			<g id="profiles 00000040568819458831914480000013411172863201342634 ">
				<path id="outer 00000121971741482597427570000012561550837416536193 " fill="currentColor" stroke="currentColor" stroke-miterlimit="10" d="m1902.17 737.04h-140c-2.76 0-5-2.24-5-5v-90c0-2.76 2.24-5 5-5h140c2.76 0 5 2.24 5 5v90c0 2.76-2.24 5-5 5z"/>
				<path id="inner 00000114057781628872833700000013004131944868987575 " fill="currentColor" stroke="currentColor" stroke-miterlimit="10" d="m1859.48 645.48c-8.9-0.62-17.26 1.57-24.28 5.77-1.96 1.16-4.46 0.84-6.07-0.77-0.9-0.91-2.47-2.48-3.63-3.64-0.94-0.94-2.21-1.46-3.54-1.46h-42.39c-1.33 0-2.6 0.52-3.53 1.46l-7.08 7.07c-0.93 0.94-1.46 2.21-1.46 3.54v59.19c0 1.32 0.53 2.6 1.46 3.53l7.08 7.07c0.93 0.94 2.2 1.47 3.53 1.47h42.39c1.33 0 2.6-0.53 3.54-1.46 1.16-1.16 2.73-2.74 3.63-3.64 1.62-1.62 4.12-1.93 6.08-0.76 6.24 3.72 13.52 5.86 21.31 5.86 23.99 0 43.25-20.28 41.56-44.63-1.42-20.55-18.05-37.18-38.6-38.6z"/>
				<path id="inner 00000142865718201667742890000004106907193468021929 " fill="currentColor" stroke="currentColor" stroke-miterlimit="10" d="m1864.03 687.04c0 4.14-3.36 7.5-7.5 7.5-4.15 0-7.5-3.36-7.5-7.5 0-4.14 3.35-7.5 7.5-7.5 4.14 0 7.5 3.36 7.5 7.5z"/>
			</g>
			<g id="screwholes 00000027588208348749203820000015697619153962474128 ">
				<path id="screwhole 00000146471608350629694280000007932362248305172634 " fill="currentColor" stroke="currentColor" stroke-miterlimit="10" d="m1767.17 644.54c0 1.38-1.12 2.5-2.5 2.5-1.38 0-2.5-1.12-2.5-2.5 0-1.38 1.12-2.5 2.5-2.5 1.38 0 2.5 1.12 2.5 2.5z"/>
				<path id="screwhole 00000158007348679139348270000006266934540676768656 " fill="currentColor" stroke="currentColor" stroke-miterlimit="10" d="m1902.17 644.54c0 1.38-1.12 2.5-2.5 2.5-1.38 0-2.5-1.12-2.5-2.5 0-1.38 1.12-2.5 2.5-2.5 1.38 0 2.5 1.12 2.5 2.5z"/>
				<path id="screwhole 00000146496784906857105560000012201946775031540644 " fill="currentColor" stroke="currentColor" stroke-miterlimit="10" d="m1902.17 729.54c0 1.38-1.12 2.5-2.5 2.5-1.38 0-2.5-1.12-2.5-2.5 0-1.38 1.12-2.5 2.5-2.5 1.38 0 2.5 1.12 2.5 2.5z"/>
				<path id="screwhole 00000151513078056781548740000016571864692369065889 " fill="currentColor" stroke="currentColor" stroke-miterlimit="10" d="m1767.17 729.54c0 1.38-1.12 2.5-2.5 2.5-1.38 0-2.5-1.12-2.5-2.5 0-1.38 1.12-2.5 2.5-2.5 1.38 0 2.5 1.12 2.5 2.5z"/>
			</g>
			<g id="label 00000010997773489034459960000006484873184229495199 ">
				<path id="label 00000029032626042266425990000012305606907387699338 " fill="currentColor" stroke="currentColor" stroke-linecap="round" stroke-linejoin="round" d="m1815.44 713.18h-30.31c-2.76 0-5-2.24-5-5v-48c0-2.77 2.24-5 5-5h30.31c2.77 0 5 2.23 5 5v48c0 2.76-2.23 5-5 5z"/>
				<path id="&lt;hr&gt; 00000080176751075081338100000017960421664861541306 " fill="currentColor" stroke="currentColor" stroke-linecap="round" stroke-linejoin="round" d="m1784.02 684.18h31.44"/>
				<path id="text 00000183964351614185634260000017905506452602324632 " fill="currentColor" stroke="currentColor" stroke-linecap="round" stroke-linejoin="round" d="m1784.02 694.54h17.97"/>
				<path id="text 00000034810982432859742600000017393838603700116393 " fill="currentColor" stroke="currentColor" stroke-linecap="round" stroke-linejoin="round" d="m1784.02 700.14h17.97"/>
				<g id="HD 00000120527909393109149520000009989234081159189889 ">
					<path id="D 00000056411697234580283170000002328514835556101286 " fill="currentColor" stroke="currentColor" stroke-linecap="round" stroke-linejoin="round" d="m1811.52 672.55v-3.02c0-2.48-2.01-4.49-4.5-4.49h-4.49v12h4.49c2.49 0 4.5-2.01 4.5-4.49z"/>
					<g id="H 00000182525085587743126310000014619671088142969019 ">
						<path id="&lt;Path&gt;" fill="currentColor" stroke="currentColor" stroke-linecap="round" stroke-linejoin="round" d="m1789.06 665.04v12"/>
						<path id="&lt;Path&gt;" fill="currentColor" stroke="currentColor" stroke-linecap="round" stroke-linejoin="round" d="m1798.04 665.04v12"/>
						<path id="&lt;Path&gt;" fill="currentColor" stroke="currentColor" stroke-linecap="round" stroke-linejoin="round" d="m1789.06 671.04h8.98"/>
					</g>
				</g>
			</g>
		</g>
</g>
</svg>