<svg xmlns="http://www.w3.org/2000/svg" viewBox="0 0 180.00 130.00">
<g transform="translate(-1742.17,-859.58)" stroke-width="10.59">
<g id="Hard-Drive-icon-v2 00000066513941232544837480000000476459101834468996 ">
			<g id="profile 00000126318249159957697110000012229078319526422158 ">
				<path id="outer 00000021116402614612353800000007118048539873136520 " fill="currentColor" stroke="currentColor" stroke-miterlimit="10" d="m1902.17 974.58h-140c-2.76 0-5-2.23-5-5v-90c0-2.76 2.24-5 5-5h140c2.76 0 5 2.24 5 5v90c0 2.77-2.24 5-5 5z"/>
				<path id="inner 00000014618987986334699990000011435940166538596257 " fill="currentColor" stroke="currentColor" stroke-miterlimit="10" d="m1888.83 966.25h-113.33c-3.91-3.9-6.09-6.09-10-10v-63.33c3.91-3.91 6.09-6.1 10-10h113.33c3.91 3.9 6.1 6.09 10 10v63.33c-3.9 3.91-6.09 6.1-10 10z"/>
			</g>
			<g id="disc 00000118361561327102899830000011371450501274392225 ">
				<path id="outer 00000101083746954147696760000007209441761544064421 " fill="currentColor" stroke="currentColor" stroke-miterlimit="10" d="m1819.13 921.72c1.47-19.37 17.65-34.64 37.4-34.64 20.71 0 37.5 16.79 37.5 37.5 0 20.72-16.79 37.5-37.5 37.5-14.84 0-27.66-8.61-33.75-21.11"/>
				<path id="inner 00000010295931088641665550000008072922840719286169 " fill="currentColor" stroke="currentColor" stroke-miterlimit="10" d="m1869.03 924.58c0 6.91-5.6 12.5-12.5 12.5-6.91 0-12.5-5.59-12.5-12.5 0-6.9 5.59-12.5 12.5-12.5 6.9 0 12.5 5.6 12.5 12.5z"/>
			</g>
			<path id="corner-plate 00000060019683465967285020000012321791373363205045 " fill="currentColor" stroke="currentColor" stroke-miterlimit="10" d="m1768.83 924.58h24.71c0-8.73 7.08-15.82 15.82-15.82v-22.4"/>
			<g id="laser 00000183232557795215899320000003398214076098993811 ">
				<path id="arm 00000001662820251293152210000001037655200664166795 " fill="currentColor" stroke="currentColor" stroke-linejoin="round" d="m1813.12 919.08l36.07 32.7-43.59-21.69c-3.33-1.66-4.68-5.7-3.03-9.02 1.66-3.33 5.7-4.69 9.02-3.03 0.56 0.28 1.09 0.64 1.53 1.04z"/>
				<path id="hole 00000062876173038926818970000015491408371295853740 " fill="currentColor" stroke="currentColor" stroke-linejoin="round" d="m1812.46 924.58c0 1.72-1.39 3.11-3.1 3.11-1.72 0-3.1-1.39-3.1-3.11 0-1.71 1.38-3.1 3.1-3.1 1.71 0 3.1 1.39 3.1 3.1z"/>
			</g>
			<g id="screwholes 00000016787941652560553750000013411203943021704340 ">
				<path id="screwhole 00000048501868339879360390000013658535608510542728 " fill="currentColor" stroke="currentColor" stroke-miterlimit="10" d="m1767.17 882.08c0 1.39-1.12 2.5-2.5 2.5-1.38 0-2.5-1.11-2.5-2.5 0-1.38 1.12-2.5 2.5-2.5 1.38 0 2.5 1.12 2.5 2.5z"/>
				<path id="screwhole 00000071543441739228123510000011681852503156620974 " fill="currentColor" stroke="currentColor" stroke-miterlimit="10" d="m1902.17 882.08c0 1.39-1.12 2.5-2.5 2.5-1.38 0-2.5-1.11-2.5-2.5 0-1.38 1.12-2.5 2.5-2.5 1.38 0 2.5 1.12 2.5 2.5z"/>
				<path id="screwhole 00000066473402136715480320000016637135099523537290 " fill="currentColor" stroke="currentColor" stroke-miterlimit="10" d="m1902.17 967.08c0 1.39-1.12 2.5-2.5 2.5-1.38 0-2.5-1.11-2.5-2.5 0-1.38 1.12-2.5 2.5-2.5 1.38 0 2.5 1.12 2.5 2.5z"/>
				<path id="screwhole 00000008109106360096392720000002713886904037452987 " fill="currentColor" stroke="currentColor" stroke-miterlimit="10" d="m1767.17 967.08c0 1.39-1.12 2.5-2.5 2.5-1.38 0-2.5-1.11-2.5-2.5 0-1.38 1.12-2.5 2.5-2.5 1.38 0 2.5 1.12 2.5 2.5z"/>
			</g>
		</g>
</g>
</svg>