<svg xmlns="http://www.w3.org/2000/svg" viewBox="0 0 242.00 201.41">
<g transform="translate(-1981.17,-831.20)" stroke-width="8.64">
<g id="External-Hard-Drive-icon-v2 00000023265259327432659770000007194192774413273774 ">
			<g id="back 00000039112695480026661540000001652244241370094251 ">
				<path id="case 00000096769503490758520510000003916543332879949447 " fill="none" stroke="currentColor" stroke-miterlimit="10" d="m2196.17 938.41h-188c-6.62 0-12 5.38-12 12v48c0 6.61 5.38 12 12 12h188c6.61 0 12-5.39 12-12v-48c0-6.62-5.39-12-12-12zm0 6c3.31 0 6 2.68 6 6v48c0 3.31-2.69 6-6 6h-188c-3.32 0-6-2.69-6-6v-48c0-3.32 2.68-6 6-6z"/>
				<path id="branding 00000084509885412278424140000018025959126452164511 " fill="none" stroke="currentColor" stroke-linecap="round" stroke-miterlimit="10" d="m2049.55 1013.41v3.2c0 0.55-0.45 1-1 1h-35.38c-0.56 0-1-0.45-1-1v-3.2m142.62 0v3.2c0 0.55 0.45 1 1 1h35.38c0.55 0 1-0.45 1-1v-3.2"/>
				<path id="branding 00000039819960957782503370000017120476237993767056 " fill="none" stroke="currentColor" stroke-miterlimit="10" d="m2193.94 994.63v-16.88c0-1.42-1.15-2.57-2.57-2.57h-15.68c-1.42 0-2.57 1.15-2.57 2.57v16.88c0 1.42 1.15 2.57 2.57 2.57h15.68c1.42 0 2.57-1.15 2.57-2.57zm-7.32-5.03v-1.03c0-1.32-1.07-2.38-2.38-2.38h-4.27c-1.31 0-2.38-1.06-2.38-2.37v-1.19c0-1.31 1.07-2.38 2.38-2.38h7.12c1.31 0 2.38 1.07 2.38 2.38v7.12c0 1.31-1.07 2.38-2.38 2.38h-7.12c-1.31 0-2.38-1.07-2.38-2.38v-2.65"/>
				<path id="power 00000096753856290417722560000005800880884006542495 " fill="none" stroke="currentColor" stroke-linecap="round" stroke-linejoin="round" d="m2150.42 966.4c-4.42 0-8 3.59-8 8.01 0 4.42 3.58 8 8 8 4.42 0 8.01-3.58 8.01-8 0-4.42-3.59-8.01-8.01-8.01zm3.67 8.01c0 2.02-1.64 3.66-3.67 3.66-2.02 0-3.66-1.64-3.66-3.66 0-2.03 1.64-3.67 3.66-3.67 2.03 0 3.67 1.64 3.67 3.67z"/>
				<path id="connect 00000136399339807375313040000003051446395845733508 " fill="none" stroke="currentColor" stroke-linecap="round" stroke-linejoin="round" d="m2119.42 964.61h-15.67v19.59h15.67zm-7.83 2.12c-2.79 0-5.05 2.26-5.05 5.04 0 2.79 2.26 5.04 5.05 5.04 2.78 0 5.04-2.25 5.04-5.04 0-2.78-2.26-5.04-5.04-5.04zm2.3 5.04c0 1.28-1.03 2.31-2.3 2.31-1.28 0-2.31-1.03-2.31-2.31 0-1.27 1.03-2.31 2.31-2.31 1.27 0 2.3 1.04 2.3 2.31z"/>
				<path id="lock" fill="none" stroke="currentColor" stroke-miterlimit="10" d="m2036.15 977.22h-9.98c-1.11 0-2-0.89-2-2v-1.63c0-1.11 0.89-2 2-2h9.98c1.11 0 2 0.89 2 2v1.63c0 1.11-0.89 2-2 2zm-8.96 5.19h7.93"/>
				<path id="usb 00000158710951472639879470000006941908299744852887 " fill="none" stroke="currentColor" stroke-linecap="round" stroke-linejoin="round" d="m2080.75 984.2h-19.6v-19.59h19.6zm-13.87-17.6v3.39l-2 3.1v7.86h12.15v-8.18l-2-2.78v-3.39m-6.08 1.45h4m1.39 6.75h-6.78v3.39h6.78zm-10.4 14.96h14.03m-5.62 2.97h3.77m-6.37-5.6h3.77"/>
				<path id="&lt;Compound Path&gt;" fill="none" stroke="currentColor" stroke-miterlimit="10" d="m2106.1 988.73h10.97m-10.97 3.2h2.97m5.03 0h2.97"/>
			</g>
			<g id="front 00000016795272453588258100000005765321746329473713 ">
				<path id="case 00000049219528216187396350000017190090472828505984 " fill="none" stroke="currentColor" stroke-miterlimit="10" d="m2196.17 846.2h-188c-6.62 0-12 5.39-12 12v48c0 6.62 5.38 12 12 12h188c6.61 0 12-5.38 12-12v-48c0-6.61-5.39-12-12-12zm0 6c3.31 0 6 2.69 6 6v48c0 3.32-2.69 6-6 6h-188c-3.32 0-6-2.68-6-6v-48c0-3.31 2.68-6 6-6z"/>
				<path id="vent" fill="none" stroke="currentColor" stroke-miterlimit="10" d="m2196.17 857.2c-0.56 0-1 0.45-1 1 0 0.55 0.44 1 1 1 0.55 0 1-0.45 1-1 0-0.55-0.45-1-1-1zm-6.49 0c-0.55 0-1 0.45-1 1 0 0.55 0.45 1 1 1 0.56 0 1-0.45 1-1 0-0.55-0.44-1-1-1zm-181.51 0c-0.56 0-1 0.45-1 1 0 0.55 0.44 1 1 1 0.55 0 1-0.45 1-1 0-0.55-0.45-1-1-1zm6.48 0c-0.55 0-1 0.45-1 1 0 0.55 0.45 1 1 1 0.55 0 1-0.45 1-1 0-0.55-0.45-1-1-1zm6.48 0c-0.55 0-1 0.45-1 1 0 0.55 0.45 1 1 1 0.55 0 1-0.45 1-1 0-0.55-0.45-1-1-1zm6.48 0c-0.55 0-1 0.45-1 1 0 0.55 0.45 1 1 1 0.56 0 1-0.45 1-1 0-0.55-0.44-1-1-1zm6.49 0c-0.55 0-1 0.45-1 1 0 0.55 0.45 1 1 1 0.55 0 1-0.45 1-1 0-0.55-0.45-1-1-1zm6.48 0c-0.55 0-1 0.45-1 1 0 0.55 0.45 1 1 1 0.55 0 1-0.45 1-1 0-0.55-0.45-1-1-1zm6.48 0c-0.55 0-1 0.45-1 1 0 0.55 0.45 1 1 1 0.56 0 1-0.45 1-1 0-0.55-0.44-1-1-1zm6.49 0c-0.56 0-1 0.45-1 1 0 0.55 0.44 1 1 1 0.55 0 1-0.45 1-1 0-0.55-0.45-1-1-1zm6.48 0c-0.55 0-1 0.45-1 1 0 0.55 0.45 1 1 1 0.55 0 1-0.45 1-1 0-0.55-0.45-1-1-1zm6.48 0c-0.55 0-1 0.45-1 1 0 0.55 0.45 1 1 1 0.55 0 1-0.45 1-1 0-0.55-0.45-1-1-1zm6.48 0c-0.55 0-1 0.45-1 1 0 0.55 0.45 1 1 1 0.56 0 1-0.45 1-1 0-0.55-0.44-1-1-1zm6.49 0c-0.56 0-1 0.45-1 1 0 0.55 0.44 1 1 1 0.55 0 1-0.45 1-1 0-0.55-0.45-1-1-1zm6.48 0c-0.55 0-1 0.45-1 1 0 0.55 0.45 1 1 1 0.55 0 1-0.45 1-1 0-0.55-0.45-1-1-1zm6.48 0c-0.55 0-1 0.45-1 1 0 0.55 0.45 1 1 1 0.55 0 1-0.45 1-1 0-0.55-0.45-1-1-1zm6.49 0c-0.56 0-1 0.45-1 1 0 0.55 0.44 1 1 1 0.55 0 1-0.45 1-1 0-0.55-0.45-1-1-1zm6.48 0c-0.55 0-1 0.45-1 1 0 0.55 0.45 1 1 1 0.55 0 1-0.45 1-1 0-0.55-0.45-1-1-1zm6.48 0c-0.55 0-1 0.45-1 1 0 0.55 0.45 1 1 1 0.55 0 1-0.45 1-1 0-0.55-0.45-1-1-1zm6.48 0c-0.55 0-1 0.45-1 1 0 0.55 0.45 1 1 1 0.56 0 1-0.45 1-1 0-0.55-0.44-1-1-1zm6.49 0c-0.56 0-1 0.45-1 1 0 0.55 0.44 1 1 1 0.55 0 1-0.45 1-1 0-0.55-0.45-1-1-1zm6.48 0c-0.55 0-1 0.45-1 1 0 0.55 0.45 1 1 1 0.55 0 1-0.45 1-1 0-0.55-0.45-1-1-1zm6.48 0c-0.55 0-1 0.45-1 1 0 0.55 0.45 1 1 1 0.55 0 1-0.45 1-1 0-0.55-0.45-1-1-1zm6.48 0c-0.55 0-1 0.45-1 1 0 0.55 0.45 1 1 1 0.56 0 1-0.45 1-1 0-0.55-0.44-1-1-1zm6.49 0c-0.56 0-1 0.45-1 1 0 0.55 0.44 1 1 1 0.55 0 1-0.45 1-1 0-0.55-0.45-1-1-1zm6.48 0c-0.55 0-1 0.45-1 1 0 0.55 0.45 1 1 1 0.55 0 1-0.45 1-1 0-0.55-0.45-1-1-1zm6.48 0c-0.55 0-1 0.45-1 1 0 0.55 0.45 1 1 1 0.56 0 1-0.45 1-1 0-0.55-0.44-1-1-1zm6.49 0c-0.56 0-1 0.45-1 1 0 0.55 0.44 1 1 1 0.55 0 1-0.45 1-1 0-0.55-0.45-1-1-1zm6.48 0c-0.55 0-1 0.45-1 1 0 0.55 0.45 1 1 1 0.55 0 1-0.45 1-1 0-0.55-0.45-1-1-1zm6.48 0c-0.55 0-1 0.45-1 1 0 0.55 0.45 1 1 1 0.55 0 1-0.45 1-1 0-0.55-0.45-1-1-1zm12.97 6.86c-0.56 0-1 0.45-1 1 0 0.55 0.44 1 1 1 0.55 0 1-0.45 1-1 0-0.55-0.45-1-1-1zm-6.49 0c-0.55 0-1 0.45-1 1 0 0.55 0.45 1 1 1 0.56 0 1-0.45 1-1 0-0.55-0.44-1-1-1zm-181.51 0c-0.56 0-1 0.45-1 1 0 0.55 0.44 1 1 1 0.55 0 1-0.45 1-1 0-0.55-0.45-1-1-1zm6.48 0c-0.55 0-1 0.45-1 1 0 0.55 0.45 1 1 1 0.55 0 1-0.45 1-1 0-0.55-0.45-1-1-1zm6.48 0c-0.55 0-1 0.45-1 1 0 0.55 0.45 1 1 1 0.55 0 1-0.45 1-1 0-0.55-0.45-1-1-1zm6.48 0c-0.55 0-1 0.45-1 1 0 0.55 0.45 1 1 1 0.56 0 1-0.45 1-1 0-0.55-0.44-1-1-1zm6.49 0c-0.55 0-1 0.45-1 1 0 0.55 0.45 1 1 1 0.55 0 1-0.45 1-1 0-0.55-0.45-1-1-1zm6.48 0c-0.55 0-1 0.45-1 1 0 0.55 0.45 1 1 1 0.55 0 1-0.45 1-1 0-0.55-0.45-1-1-1zm6.48 0c-0.55 0-1 0.45-1 1 0 0.55 0.45 1 1 1 0.56 0 1-0.45 1-1 0-0.55-0.44-1-1-1zm6.49 0c-0.56 0-1 0.45-1 1 0 0.55 0.44 1 1 1 0.55 0 1-0.45 1-1 0-0.55-0.45-1-1-1zm6.48 0c-0.55 0-1 0.45-1 1 0 0.55 0.45 1 1 1 0.55 0 1-0.45 1-1 0-0.55-0.45-1-1-1zm6.48 0c-0.55 0-1 0.45-1 1 0 0.55 0.45 1 1 1 0.55 0 1-0.45 1-1 0-0.55-0.45-1-1-1zm6.48 0c-0.55 0-1 0.45-1 1 0 0.55 0.45 1 1 1 0.56 0 1-0.45 1-1 0-0.55-0.44-1-1-1zm6.49 0c-0.56 0-1 0.45-1 1 0 0.55 0.44 1 1 1 0.55 0 1-0.45 1-1 0-0.55-0.45-1-1-1zm45.38 0c-0.56 0-1 0.45-1 1 0 0.55 0.44 1 1 1 0.55 0 1-0.45 1-1 0-0.55-0.45-1-1-1zm6.48 0c-0.55 0-1 0.45-1 1 0 0.55 0.45 1 1 1 0.55 0 1-0.45 1-1 0-0.55-0.45-1-1-1zm6.48 0c-0.55 0-1 0.45-1 1 0 0.55 0.45 1 1 1 0.55 0 1-0.45 1-1 0-0.55-0.45-1-1-1zm6.48 0c-0.55 0-1 0.45-1 1 0 0.55 0.45 1 1 1 0.56 0 1-0.45 1-1 0-0.55-0.44-1-1-1zm6.49 0c-0.56 0-1 0.45-1 1 0 0.55 0.44 1 1 1 0.55 0 1-0.45 1-1 0-0.55-0.45-1-1-1zm6.48 0c-0.55 0-1 0.45-1 1 0 0.55 0.45 1 1 1 0.55 0 1-0.45 1-1 0-0.55-0.45-1-1-1zm6.48 0c-0.55 0-1 0.45-1 1 0 0.55 0.45 1 1 1 0.56 0 1-0.45 1-1 0-0.55-0.44-1-1-1zm6.49 0c-0.56 0-1 0.45-1 1 0 0.55 0.44 1 1 1 0.55 0 1-0.45 1-1 0-0.55-0.45-1-1-1zm6.48 0c-0.55 0-1 0.45-1 1 0 0.55 0.45 1 1 1 0.55 0 1-0.45 1-1 0-0.55-0.45-1-1-1zm6.48 0c-0.55 0-1 0.45-1 1 0 0.55 0.45 1 1 1 0.55 0 1-0.45 1-1 0-0.55-0.45-1-1-1zm12.97 6.86c-0.56 0-1 0.44-1 1 0 0.55 0.44 1 1 1 0.55 0 1-0.45 1-1 0-0.56-0.45-1-1-1zm-6.49 0c-0.55 0-1 0.44-1 1 0 0.55 0.45 1 1 1 0.56 0 1-0.45 1-1 0-0.56-0.44-1-1-1zm-181.51 0c-0.56 0-1 0.44-1 1 0 0.55 0.44 1 1 1 0.55 0 1-0.45 1-1 0-0.56-0.45-1-1-1zm6.48 0c-0.55 0-1 0.44-1 1 0 0.55 0.45 1 1 1 0.55 0 1-0.45 1-1 0-0.56-0.45-1-1-1zm6.48 0c-0.55 0-1 0.44-1 1 0 0.55 0.45 1 1 1 0.55 0 1-0.45 1-1 0-0.56-0.45-1-1-1zm6.48 0c-0.55 0-1 0.44-1 1 0 0.55 0.45 1 1 1 0.56 0 1-0.45 1-1 0-0.56-0.44-1-1-1zm6.49 0c-0.55 0-1 0.44-1 1 0 0.55 0.45 1 1 1 0.55 0 1-0.45 1-1 0-0.56-0.45-1-1-1zm6.48 0c-0.55 0-1 0.44-1 1 0 0.55 0.45 1 1 1 0.55 0 1-0.45 1-1 0-0.56-0.45-1-1-1zm6.48 0c-0.55 0-1 0.44-1 1 0 0.55 0.45 1 1 1 0.56 0 1-0.45 1-1 0-0.56-0.44-1-1-1zm6.49 0c-0.56 0-1 0.44-1 1 0 0.55 0.44 1 1 1 0.55 0 1-0.45 1-1 0-0.56-0.45-1-1-1zm6.48 0c-0.55 0-1 0.44-1 1 0 0.55 0.45 1 1 1 0.55 0 1-0.45 1-1 0-0.56-0.45-1-1-1zm6.48 0c-0.55 0-1 0.44-1 1 0 0.55 0.45 1 1 1 0.55 0 1-0.45 1-1 0-0.56-0.45-1-1-1zm6.48 0c-0.55 0-1 0.44-1 1 0 0.55 0.45 1 1 1 0.56 0 1-0.45 1-1 0-0.56-0.44-1-1-1zm6.49 0c-0.56 0-1 0.44-1 1 0 0.55 0.44 1 1 1 0.55 0 1-0.45 1-1 0-0.56-0.45-1-1-1zm45.38 0c-0.56 0-1 0.44-1 1 0 0.55 0.44 1 1 1 0.55 0 1-0.45 1-1 0-0.56-0.45-1-1-1zm6.48 0c-0.55 0-1 0.44-1 1 0 0.55 0.45 1 1 1 0.55 0 1-0.45 1-1 0-0.56-0.45-1-1-1zm6.48 0c-0.55 0-1 0.44-1 1 0 0.55 0.45 1 1 1 0.55 0 1-0.45 1-1 0-0.56-0.45-1-1-1zm6.48 0c-0.55 0-1 0.44-1 1 0 0.55 0.45 1 1 1 0.56 0 1-0.45 1-1 0-0.56-0.44-1-1-1zm6.49 0c-0.56 0-1 0.44-1 1 0 0.55 0.44 1 1 1 0.55 0 1-0.45 1-1 0-0.56-0.45-1-1-1zm6.48 0c-0.55 0-1 0.44-1 1 0 0.55 0.45 1 1 1 0.55 0 1-0.45 1-1 0-0.56-0.45-1-1-1zm6.48 0c-0.55 0-1 0.44-1 1 0 0.55 0.45 1 1 1 0.56 0 1-0.45 1-1 0-0.56-0.44-1-1-1zm6.49 0c-0.56 0-1 0.44-1 1 0 0.55 0.44 1 1 1 0.55 0 1-0.45 1-1 0-0.56-0.45-1-1-1zm6.48 0c-0.55 0-1 0.44-1 1 0 0.55 0.45 1 1 1 0.55 0 1-0.45 1-1 0-0.56-0.45-1-1-1zm6.48 0c-0.55 0-1 0.44-1 1 0 0.55 0.45 1 1 1 0.55 0 1-0.45 1-1 0-0.56-0.45-1-1-1zm12.97 6.85c-0.56 0-1 0.45-1 1 0 0.56 0.44 1 1 1 0.55 0 1-0.44 1-1 0-0.55-0.45-1-1-1zm-6.49 0c-0.55 0-1 0.45-1 1 0 0.56 0.45 1 1 1 0.56 0 1-0.44 1-1 0-0.55-0.44-1-1-1zm-181.51 0c-0.56 0-1 0.45-1 1 0 0.56 0.44 1 1 1 0.55 0 1-0.44 1-1 0-0.55-0.45-1-1-1zm6.48 0c-0.55 0-1 0.45-1 1 0 0.56 0.45 1 1 1 0.55 0 1-0.44 1-1 0-0.55-0.45-1-1-1zm6.48 0c-0.55 0-1 0.45-1 1 0 0.56 0.45 1 1 1 0.55 0 1-0.44 1-1 0-0.55-0.45-1-1-1zm6.48 0c-0.55 0-1 0.45-1 1 0 0.56 0.45 1 1 1 0.56 0 1-0.44 1-1 0-0.55-0.44-1-1-1zm6.49 0c-0.55 0-1 0.45-1 1 0 0.56 0.45 1 1 1 0.55 0 1-0.44 1-1 0-0.55-0.45-1-1-1zm6.48 0c-0.55 0-1 0.45-1 1 0 0.56 0.45 1 1 1 0.55 0 1-0.44 1-1 0-0.55-0.45-1-1-1zm6.48 0c-0.55 0-1 0.45-1 1 0 0.56 0.45 1 1 1 0.56 0 1-0.44 1-1 0-0.55-0.44-1-1-1zm6.49 0c-0.56 0-1 0.45-1 1 0 0.56 0.44 1 1 1 0.55 0 1-0.44 1-1 0-0.55-0.45-1-1-1zm6.48 0c-0.55 0-1 0.45-1 1 0 0.56 0.45 1 1 1 0.55 0 1-0.44 1-1 0-0.55-0.45-1-1-1zm6.48 0c-0.55 0-1 0.45-1 1 0 0.56 0.45 1 1 1 0.55 0 1-0.44 1-1 0-0.55-0.45-1-1-1zm6.48 0c-0.55 0-1 0.45-1 1 0 0.56 0.45 1 1 1 0.56 0 1-0.44 1-1 0-0.55-0.44-1-1-1zm6.49 0c-0.56 0-1 0.45-1 1 0 0.56 0.44 1 1 1 0.55 0 1-0.44 1-1 0-0.55-0.45-1-1-1zm45.38 0c-0.56 0-1 0.45-1 1 0 0.56 0.44 1 1 1 0.55 0 1-0.44 1-1 0-0.55-0.45-1-1-1zm6.48 0c-0.55 0-1 0.45-1 1 0 0.56 0.45 1 1 1 0.55 0 1-0.44 1-1 0-0.55-0.45-1-1-1zm6.48 0c-0.55 0-1 0.45-1 1 0 0.56 0.45 1 1 1 0.55 0 1-0.44 1-1 0-0.55-0.45-1-1-1zm6.48 0c-0.55 0-1 0.45-1 1 0 0.56 0.45 1 1 1 0.56 0 1-0.44 1-1 0-0.55-0.44-1-1-1zm6.49 0c-0.56 0-1 0.45-1 1 0 0.56 0.44 1 1 1 0.55 0 1-0.44 1-1 0-0.55-0.45-1-1-1zm6.48 0c-0.55 0-1 0.45-1 1 0 0.56 0.45 1 1 1 0.55 0 1-0.44 1-1 0-0.55-0.45-1-1-1zm6.48 0c-0.55 0-1 0.45-1 1 0 0.56 0.45 1 1 1 0.56 0 1-0.44 1-1 0-0.55-0.44-1-1-1zm6.49 0c-0.56 0-1 0.45-1 1 0 0.56 0.44 1 1 1 0.55 0 1-0.44 1-1 0-0.55-0.45-1-1-1zm6.48 0c-0.55 0-1 0.45-1 1 0 0.56 0.45 1 1 1 0.55 0 1-0.44 1-1 0-0.55-0.45-1-1-1zm6.48 0c-0.55 0-1 0.45-1 1 0 0.56 0.45 1 1 1 0.55 0 1-0.44 1-1 0-0.55-0.45-1-1-1zm12.97 6.86c-0.56 0-1 0.45-1 1 0 0.55 0.44 1 1 1 0.55 0 1-0.45 1-1 0-0.55-0.45-1-1-1zm-6.49 0c-0.55 0-1 0.45-1 1 0 0.55 0.45 1 1 1 0.56 0 1-0.45 1-1 0-0.55-0.44-1-1-1zm-181.51 0c-0.56 0-1 0.45-1 1 0 0.55 0.44 1 1 1 0.55 0 1-0.45 1-1 0-0.55-0.45-1-1-1zm6.48 0c-0.55 0-1 0.45-1 1 0 0.55 0.45 1 1 1 0.55 0 1-0.45 1-1 0-0.55-0.45-1-1-1zm6.48 0c-0.55 0-1 0.45-1 1 0 0.55 0.45 1 1 1 0.55 0 1-0.45 1-1 0-0.55-0.45-1-1-1zm6.48 0c-0.55 0-1 0.45-1 1 0 0.55 0.45 1 1 1 0.56 0 1-0.45 1-1 0-0.55-0.44-1-1-1zm6.49 0c-0.55 0-1 0.45-1 1 0 0.55 0.45 1 1 1 0.55 0 1-0.45 1-1 0-0.55-0.45-1-1-1zm6.48 0c-0.55 0-1 0.45-1 1 0 0.55 0.45 1 1 1 0.55 0 1-0.45 1-1 0-0.55-0.45-1-1-1zm6.48 0c-0.55 0-1 0.45-1 1 0 0.55 0.45 1 1 1 0.56 0 1-0.45 1-1 0-0.55-0.44-1-1-1zm6.49 0c-0.56 0-1 0.45-1 1 0 0.55 0.44 1 1 1 0.55 0 1-0.45 1-1 0-0.55-0.45-1-1-1zm6.48 0c-0.55 0-1 0.45-1 1 0 0.55 0.45 1 1 1 0.55 0 1-0.45 1-1 0-0.55-0.45-1-1-1zm6.48 0c-0.55 0-1 0.45-1 1 0 0.55 0.45 1 1 1 0.55 0 1-0.45 1-1 0-0.55-0.45-1-1-1zm6.48 0c-0.55 0-1 0.45-1 1 0 0.55 0.45 1 1 1 0.56 0 1-0.45 1-1 0-0.55-0.44-1-1-1zm6.49 0c-0.56 0-1 0.45-1 1 0 0.55 0.44 1 1 1 0.55 0 1-0.45 1-1 0-0.55-0.45-1-1-1zm45.38 0c-0.56 0-1 0.45-1 1 0 0.55 0.44 1 1 1 0.55 0 1-0.45 1-1 0-0.55-0.45-1-1-1zm6.48 0c-0.55 0-1 0.45-1 1 0 0.55 0.45 1 1 1 0.55 0 1-0.45 1-1 0-0.55-0.45-1-1-1zm6.48 0c-0.55 0-1 0.45-1 1 0 0.55 0.45 1 1 1 0.55 0 1-0.45 1-1 0-0.55-0.45-1-1-1zm6.48 0c-0.55 0-1 0.45-1 1 0 0.55 0.45 1 1 1 0.56 0 1-0.45 1-1 0-0.55-0.44-1-1-1zm6.49 0c-0.56 0-1 0.45-1 1 0 0.55 0.44 1 1 1 0.55 0 1-0.45 1-1 0-0.55-0.45-1-1-1zm6.48 0c-0.55 0-1 0.45-1 1 0 0.55 0.45 1 1 1 0.55 0 1-0.45 1-1 0-0.55-0.45-1-1-1zm6.48 0c-0.55 0-1 0.45-1 1 0 0.55 0.45 1 1 1 0.56 0 1-0.45 1-1 0-0.55-0.44-1-1-1zm6.49 0c-0.56 0-1 0.45-1 1 0 0.55 0.44 1 1 1 0.55 0 1-0.45 1-1 0-0.55-0.45-1-1-1zm6.48 0c-0.55 0-1 0.45-1 1 0 0.55 0.45 1 1 1 0.55 0 1-0.45 1-1 0-0.55-0.45-1-1-1zm6.48 0c-0.55 0-1 0.45-1 1 0 0.55 0.45 1 1 1 0.55 0 1-0.45 1-1 0-0.55-0.45-1-1-1zm12.97 6.86c-0.56 0-1 0.45-1 1 0 0.55 0.44 1 1 1 0.55 0 1-0.45 1-1 0-0.55-0.45-1-1-1zm-6.49 0c-0.55 0-1 0.45-1 1 0 0.55 0.45 1 1 1 0.56 0 1-0.45 1-1 0-0.55-0.44-1-1-1zm-181.51 0c-0.56 0-1 0.45-1 1 0 0.55 0.44 1 1 1 0.55 0 1-0.45 1-1 0-0.55-0.45-1-1-1zm6.48 0c-0.55 0-1 0.45-1 1 0 0.55 0.45 1 1 1 0.55 0 1-0.45 1-1 0-0.55-0.45-1-1-1zm6.48 0c-0.55 0-1 0.45-1 1 0 0.55 0.45 1 1 1 0.55 0 1-0.45 1-1 0-0.55-0.45-1-1-1zm6.48 0c-0.55 0-1 0.45-1 1 0 0.55 0.45 1 1 1 0.56 0 1-0.45 1-1 0-0.55-0.44-1-1-1zm6.49 0c-0.55 0-1 0.45-1 1 0 0.55 0.45 1 1 1 0.55 0 1-0.45 1-1 0-0.55-0.45-1-1-1zm6.48 0c-0.55 0-1 0.45-1 1 0 0.55 0.45 1 1 1 0.55 0 1-0.45 1-1 0-0.55-0.45-1-1-1zm6.48 0c-0.55 0-1 0.45-1 1 0 0.55 0.45 1 1 1 0.56 0 1-0.45 1-1 0-0.55-0.44-1-1-1zm6.49 0c-0.56 0-1 0.45-1 1 0 0.55 0.44 1 1 1 0.55 0 1-0.45 1-1 0-0.55-0.45-1-1-1zm6.48 0c-0.55 0-1 0.45-1 1 0 0.55 0.45 1 1 1 0.55 0 1-0.45 1-1 0-0.55-0.45-1-1-1zm6.48 0c-0.55 0-1 0.45-1 1 0 0.55 0.45 1 1 1 0.55 0 1-0.45 1-1 0-0.55-0.45-1-1-1zm6.48 0c-0.55 0-1 0.45-1 1 0 0.55 0.45 1 1 1 0.56 0 1-0.45 1-1 0-0.55-0.44-1-1-1zm6.49 0c-0.56 0-1 0.45-1 1 0 0.55 0.44 1 1 1 0.55 0 1-0.45 1-1 0-0.55-0.45-1-1-1zm45.38 0c-0.56 0-1 0.45-1 1 0 0.55 0.44 1 1 1 0.55 0 1-0.45 1-1 0-0.55-0.45-1-1-1zm6.48 0c-0.55 0-1 0.45-1 1 0 0.55 0.45 1 1 1 0.55 0 1-0.45 1-1 0-0.55-0.45-1-1-1zm6.48 0c-0.55 0-1 0.45-1 1 0 0.55 0.45 1 1 1 0.55 0 1-0.45 1-1 0-0.55-0.45-1-1-1zm6.48 0c-0.55 0-1 0.45-1 1 0 0.55 0.45 1 1 1 0.56 0 1-0.45 1-1 0-0.55-0.44-1-1-1zm6.49 0c-0.56 0-1 0.45-1 1 0 0.55 0.44 1 1 1 0.55 0 1-0.45 1-1 0-0.55-0.45-1-1-1zm6.48 0c-0.55 0-1 0.45-1 1 0 0.55 0.45 1 1 1 0.55 0 1-0.45 1-1 0-0.55-0.45-1-1-1zm6.48 0c-0.55 0-1 0.45-1 1 0 0.55 0.45 1 1 1 0.56 0 1-0.45 1-1 0-0.55-0.44-1-1-1zm6.49 0c-0.56 0-1 0.45-1 1 0 0.55 0.44 1 1 1 0.55 0 1-0.45 1-1 0-0.55-0.45-1-1-1zm6.48 0c-0.55 0-1 0.45-1 1 0 0.55 0.45 1 1 1 0.55 0 1-0.45 1-1 0-0.55-0.45-1-1-1zm6.48 0c-0.55 0-1 0.45-1 1 0 0.55 0.45 1 1 1 0.55 0 1-0.45 1-1 0-0.55-0.45-1-1-1zm12.97 6.86c-0.56 0-1 0.44-1 1 0 0.55 0.44 1 1 1 0.55 0 1-0.45 1-1 0-0.56-0.45-1-1-1zm-6.49 0c-0.55 0-1 0.44-1 1 0 0.55 0.45 1 1 1 0.56 0 1-0.45 1-1 0-0.56-0.44-1-1-1zm-181.51 0c-0.56 0-1 0.44-1 1 0 0.55 0.44 1 1 1 0.55 0 1-0.45 1-1 0-0.56-0.45-1-1-1zm6.48 0c-0.55 0-1 0.44-1 1 0 0.55 0.45 1 1 1 0.55 0 1-0.45 1-1 0-0.56-0.45-1-1-1zm6.48 0c-0.55 0-1 0.44-1 1 0 0.55 0.45 1 1 1 0.55 0 1-0.45 1-1 0-0.56-0.45-1-1-1zm6.48 0c-0.55 0-1 0.44-1 1 0 0.55 0.45 1 1 1 0.56 0 1-0.45 1-1 0-0.56-0.44-1-1-1zm6.49 0c-0.55 0-1 0.44-1 1 0 0.55 0.45 1 1 1 0.55 0 1-0.45 1-1 0-0.56-0.45-1-1-1zm6.48 0c-0.55 0-1 0.44-1 1 0 0.55 0.45 1 1 1 0.55 0 1-0.45 1-1 0-0.56-0.45-1-1-1zm6.48 0c-0.55 0-1 0.44-1 1 0 0.55 0.45 1 1 1 0.56 0 1-0.45 1-1 0-0.56-0.44-1-1-1zm6.49 0c-0.56 0-1 0.44-1 1 0 0.55 0.44 1 1 1 0.55 0 1-0.45 1-1 0-0.56-0.45-1-1-1zm6.48 0c-0.55 0-1 0.44-1 1 0 0.55 0.45 1 1 1 0.55 0 1-0.45 1-1 0-0.56-0.45-1-1-1zm6.48 0c-0.55 0-1 0.44-1 1 0 0.55 0.45 1 1 1 0.55 0 1-0.45 1-1 0-0.56-0.45-1-1-1zm6.48 0c-0.55 0-1 0.44-1 1 0 0.55 0.45 1 1 1 0.56 0 1-0.45 1-1 0-0.56-0.44-1-1-1zm6.49 0c-0.56 0-1 0.44-1 1 0 0.55 0.44 1 1 1 0.55 0 1-0.45 1-1 0-0.56-0.45-1-1-1zm45.38 0c-0.56 0-1 0.44-1 1 0 0.55 0.44 1 1 1 0.55 0 1-0.45 1-1 0-0.56-0.45-1-1-1zm6.48 0c-0.55 0-1 0.44-1 1 0 0.55 0.45 1 1 1 0.55 0 1-0.45 1-1 0-0.56-0.45-1-1-1zm6.48 0c-0.55 0-1 0.44-1 1 0 0.55 0.45 1 1 1 0.55 0 1-0.45 1-1 0-0.56-0.45-1-1-1zm6.48 0c-0.55 0-1 0.44-1 1 0 0.55 0.45 1 1 1 0.56 0 1-0.45 1-1 0-0.56-0.44-1-1-1zm6.49 0c-0.56 0-1 0.44-1 1 0 0.55 0.44 1 1 1 0.55 0 1-0.45 1-1 0-0.56-0.45-1-1-1zm6.48 0c-0.55 0-1 0.44-1 1 0 0.55 0.45 1 1 1 0.55 0 1-0.45 1-1 0-0.56-0.45-1-1-1zm6.48 0c-0.55 0-1 0.44-1 1 0 0.55 0.45 1 1 1 0.56 0 1-0.45 1-1 0-0.56-0.44-1-1-1zm6.49 0c-0.56 0-1 0.44-1 1 0 0.55 0.44 1 1 1 0.55 0 1-0.45 1-1 0-0.56-0.45-1-1-1zm6.48 0c-0.55 0-1 0.44-1 1 0 0.55 0.45 1 1 1 0.55 0 1-0.45 1-1 0-0.56-0.45-1-1-1zm6.48 0c-0.55 0-1 0.44-1 1 0 0.55 0.45 1 1 1 0.55 0 1-0.45 1-1 0-0.56-0.45-1-1-1zm12.97 6.85c-0.56 0-1 0.45-1 1 0 0.55 0.44 1 1 1 0.55 0 1-0.45 1-1 0-0.55-0.45-1-1-1zm-6.49 0c-0.55 0-1 0.45-1 1 0 0.55 0.45 1 1 1 0.56 0 1-0.45 1-1 0-0.55-0.44-1-1-1zm-181.51 0c-0.56 0-1 0.45-1 1 0 0.55 0.44 1 1 1 0.55 0 1-0.45 1-1 0-0.55-0.45-1-1-1zm6.48 0c-0.55 0-1 0.45-1 1 0 0.55 0.45 1 1 1 0.55 0 1-0.45 1-1 0-0.55-0.45-1-1-1zm6.48 0c-0.55 0-1 0.45-1 1 0 0.55 0.45 1 1 1 0.55 0 1-0.45 1-1 0-0.55-0.45-1-1-1zm6.48 0c-0.55 0-1 0.45-1 1 0 0.55 0.45 1 1 1 0.56 0 1-0.45 1-1 0-0.55-0.44-1-1-1zm6.49 0c-0.55 0-1 0.45-1 1 0 0.55 0.45 1 1 1 0.55 0 1-0.45 1-1 0-0.55-0.45-1-1-1zm6.48 0c-0.55 0-1 0.45-1 1 0 0.55 0.45 1 1 1 0.55 0 1-0.45 1-1 0-0.55-0.45-1-1-1zm6.48 0c-0.55 0-1 0.45-1 1 0 0.55 0.45 1 1 1 0.56 0 1-0.45 1-1 0-0.55-0.44-1-1-1zm6.49 0c-0.56 0-1 0.45-1 1 0 0.55 0.44 1 1 1 0.55 0 1-0.45 1-1 0-0.55-0.45-1-1-1zm6.48 0c-0.55 0-1 0.45-1 1 0 0.55 0.45 1 1 1 0.55 0 1-0.45 1-1 0-0.55-0.45-1-1-1zm6.48 0c-0.55 0-1 0.45-1 1 0 0.55 0.45 1 1 1 0.55 0 1-0.45 1-1 0-0.55-0.45-1-1-1zm6.48 0c-0.55 0-1 0.45-1 1 0 0.55 0.45 1 1 1 0.56 0 1-0.45 1-1 0-0.55-0.44-1-1-1zm6.49 0c-0.56 0-1 0.45-1 1 0 0.55 0.44 1 1 1 0.55 0 1-0.45 1-1 0-0.55-0.45-1-1-1zm6.48 0c-0.55 0-1 0.45-1 1 0 0.55 0.45 1 1 1 0.55 0 1-0.45 1-1 0-0.55-0.45-1-1-1zm6.48 0c-0.55 0-1 0.45-1 1 0 0.55 0.45 1 1 1 0.55 0 1-0.45 1-1 0-0.55-0.45-1-1-1zm6.49 0c-0.56 0-1 0.45-1 1 0 0.55 0.44 1 1 1 0.55 0 1-0.45 1-1 0-0.55-0.45-1-1-1zm6.48 0c-0.55 0-1 0.45-1 1 0 0.55 0.45 1 1 1 0.55 0 1-0.45 1-1 0-0.55-0.45-1-1-1zm6.48 0c-0.55 0-1 0.45-1 1 0 0.55 0.45 1 1 1 0.55 0 1-0.45 1-1 0-0.55-0.45-1-1-1zm6.48 0c-0.55 0-1 0.45-1 1 0 0.55 0.45 1 1 1 0.56 0 1-0.45 1-1 0-0.55-0.44-1-1-1zm6.49 0c-0.56 0-1 0.45-1 1 0 0.55 0.44 1 1 1 0.55 0 1-0.45 1-1 0-0.55-0.45-1-1-1zm6.48 0c-0.55 0-1 0.45-1 1 0 0.55 0.45 1 1 1 0.55 0 1-0.45 1-1 0-0.55-0.45-1-1-1zm6.48 0c-0.55 0-1 0.45-1 1 0 0.55 0.45 1 1 1 0.55 0 1-0.45 1-1 0-0.55-0.45-1-1-1zm6.48 0c-0.55 0-1 0.45-1 1 0 0.55 0.45 1 1 1 0.56 0 1-0.45 1-1 0-0.55-0.44-1-1-1zm6.49 0c-0.56 0-1 0.45-1 1 0 0.55 0.44 1 1 1 0.55 0 1-0.45 1-1 0-0.55-0.45-1-1-1zm6.48 0c-0.55 0-1 0.45-1 1 0 0.55 0.45 1 1 1 0.55 0 1-0.45 1-1 0-0.55-0.45-1-1-1zm6.48 0c-0.55 0-1 0.45-1 1 0 0.55 0.45 1 1 1 0.56 0 1-0.45 1-1 0-0.55-0.44-1-1-1zm6.49 0c-0.56 0-1 0.45-1 1 0 0.55 0.44 1 1 1 0.55 0 1-0.45 1-1 0-0.55-0.45-1-1-1zm6.48 0c-0.55 0-1 0.45-1 1 0 0.55 0.45 1 1 1 0.55 0 1-0.45 1-1 0-0.55-0.45-1-1-1zm6.48 0c-0.55 0-1 0.45-1 1 0 0.55 0.45 1 1 1 0.55 0 1-0.45 1-1 0-0.55-0.45-1-1-1z"/>
				<path id="branding 00000034780246589048791730000006925863793430708393 " fill="none" stroke="currentColor" stroke-linecap="round" stroke-miterlimit="10" d="m2049.55 921.2v3.21c0 0.55-0.45 1-1 1h-35.38c-0.56 0-1-0.45-1-1v-3.21m142.62 0v3.21c0 0.55 0.45 1 1 1h35.38c0.55 0 1-0.45 1-1v-3.21"/>
				<path id="branding 00000162321881383168094120000005676556100089831335 " fill="none" stroke="currentColor" stroke-miterlimit="10" d="m2118.37 895.35v-26.29c0-2.21-1.79-4-4-4h-24.41c-2.21 0-4 1.79-4 4v26.29c0 2.2 1.79 4 4 4h24.41c2.21 0 4-1.8 4-4zm-11.4-7.85v-1.6c0-2.04-1.65-3.7-3.69-3.7h-6.66c-2.04 0-3.7-1.65-3.7-3.7v-1.84c0-2.05 1.66-3.7 3.7-3.7h11.09c2.04 0 3.7 1.65 3.7 3.7v11.09c0 2.04-1.66 3.7-3.7 3.7h-11.09c-2.04 0-3.7-1.66-3.7-3.7v-4.13"/>
			</g>
		</g>
</g>
</svg>