<svg xmlns="http://www.w3.org/2000/svg" viewBox="3970.5 1294.0 190.0 215.0">
<g id="Gaming-Headset-icon-v1">
			<g id="adjusters">
				<path id="adjuster 00000065785078390991342060000011408322738755968428 " fill="none" stroke="currentColor" stroke-miterlimit="10" d="m4115.71 1361.52c0 1.13-2.22 1.73-2.22 1.73 0 0-5.9-1.12-9.15-2.24-10.9-3.76-24.47-8.44-38.78-8.44-14.32 0-27.89 4.68-38.79 8.44-3.29 1.14-9.26 2.27-9.26 2.27 0 0-2.22-0.6-2.22-1.73v-2.42c0-0.71 1.12-1.63 1.12-1.63 0 0 4.49-2.33 6.69-3.09 11.69-4.03 26.23-9.05 42.46-9.05 16.22 0 30.76 5.02 42.45 9.05 2.17 0.75 6.58 3.06 6.58 3.06 0 0 1.12 0.91 1.12 1.62zm8.34-2.13c-3.37-0.14-6.38-0.42-8.56-0.92m9.74 5.21c-3.63-0.11-7.27-0.37-10.67-0.85m-99.05-4.36c-2.18 0.5-5.19 0.78-8.56 0.92m9.49 3.44c-3.4 0.48-7.04 0.74-10.67 0.85"/>
				<path id="adjuster-buttons 00000018215168717313462740000012089048669717290685 " fill="none" stroke="currentColor" stroke-miterlimit="10" d="m4127.46 1338.7l1.14-0.57c1.35-0.67 3-0.15 3.69 1.16l5.86 11.15c0.69 1.31 0.15 2.91-1.2 3.58l-1.07 0.53m-132.34-15.85l-1.14-0.57c-1.35-0.67-3-0.15-3.69 1.16l-5.86 11.15c-0.69 1.31-0.15 2.91 1.2 3.58l1.07 0.53"/>
			</g>
			<path id="band" fill="none" stroke="currentColor" stroke-miterlimit="10" d="m4065.56 1321.4c33.49 0 60.75 23.33 60.75 52h12.79c0-35.51-32.99-64.4-73.54-64.4-40.56 0-73.55 28.89-73.55 64.4h12.79c0-28.67 27.26-52 60.76-52z"/>
			<g id="earpiece 00000102517325064643305260000009056502733323591313 ">
				<path id="sponge 00000091007000905978096560000012287891680256999609 " fill="none" stroke="currentColor" stroke-miterlimit="10" d="m4036.31 1447.07l-9.47 2.59c-2.1 0.57-4.3-0.63-4.9-2.66l-15.45-53.11c-0.59-2.04 0.65-4.17 2.74-4.74l9.47-2.59c2.43-0.67 4.96 0.7 5.64 3.06l15.12 51.98c0.69 2.35-0.74 4.81-3.15 5.47z"/>
				<path id="&lt;Compound Path&gt;" fill="none" stroke="currentColor" stroke-miterlimit="10" d="m4021.94 1447l-5.27 1.44c-1.46 0.4-5.45-8.95-5.86-10.36l-9.01-30.94c-0.41-1.42-2.04-11.41-0.58-11.81l5.27-1.44m-5.83 2.94l-2.26 6.04c-0.64 1.71-0.72 3.57-0.23 5.32l3.59 12.93q0.96 3.45 2.7 6.59l8.2 14.81"/>
			</g>
			<g id="ends 00000034797346592815719800000001905834813557840291 ">
				<path id="end 00000093143122124329475900000009455264265508040121 " fill="none" stroke="currentColor" stroke-miterlimit="10" d="m4126.31 1373.4c0 9.62 4.68 18.73 13.23 25.84l5.96-7.7c-4.17-5.43-6.4-11.65-6.4-18.14"/>
				<path id="connecting-arm 00000026857388001634899000000014323435503027256232 " fill="none" stroke="currentColor" stroke-miterlimit="10" d="m4134.21 1393.95l-3.34 4.31m2.17 6.3c1.43 0.03 2.83-0.6 3.74-1.76l2.76-3.56"/>
				<path id="end 00000139295325427695333640000012972959771198697632 " fill="none" stroke="currentColor" stroke-miterlimit="10" d="m4004.69 1373.4c0 9.62-4.68 18.73-13.23 25.84l-5.96-7.7c4.17-5.43 6.4-11.65 6.4-18.14"/>
				<path id="connecting-arm 00000134934596352741063210000007304186135409767867 " fill="none" stroke="currentColor" stroke-miterlimit="10" d="m4000.13 1398.26l-3.34-4.31m-5.33 5.29l2.76 3.56c0.9 1.16 2.31 1.79 3.74 1.76"/>
			</g>
			<g id="mic-earpiece">
				<g id="earpiece 00000124869955725769198950000015460221614611917206 ">
					<path id="sponge 00000167364554525906669230000003130513120998370992 " fill="none" stroke="currentColor" stroke-linecap="round" stroke-miterlimit="10" d="m4094.8 1447.07l9.47 2.59c2.1 0.57 4.3-0.63 4.9-2.66l15.45-53.11c0.59-2.04-0.64-4.17-2.74-4.74l-9.47-2.59c-2.43-0.67-4.95 0.7-5.64 3.06l-15.12 51.98c-0.68 2.35 0.74 4.81 3.15 5.47z"/>
					<path id="&lt;Compound Path&gt;" fill="none" stroke="currentColor" stroke-linecap="round" stroke-miterlimit="10" d="m4124.62 1393.89l5.27 1.44c1.46 0.4-0.17 10.39-0.58 11.81l-9.01 30.94c-0.38 1.32-3.88 9.54-5.53 10.32m3.68-5.88l8.2-14.81q1.74-3.14 2.7-6.59l3.59-12.93c0.49-1.75 0.41-3.61-0.23-5.32l-2.26-6.04"/>
				</g>
				<g id="mic-arm 00000056392717986268804060000014651097162199530929 ">
					<path id="arm" fill="none" stroke="currentColor" stroke-miterlimit="10" d="m4059.95 1485.52h15.46c1.79 0 3.55-0.6 4.95-1.69l21.5-16.67c1.31-1.01 2.23-2.37 2.68-3.92l8.39-28.92c0.24-0.82 1.12-1.29 1.96-1.06l2.04 0.55c0.84 0.23 1.33 1.08 1.09 1.9l-8.38 28.91c-0.76 2.6-2.3 4.86-4.47 6.54l-21.5 16.68c-2.34 1.81-5.27 2.81-8.26 2.81h-15.46"/>
					<path id="sponge 00000049909556269280074710000010034494179921726852 " fill="none" stroke="currentColor" stroke-miterlimit="10" d="m4058.99 1483.76l-18.55-1.58c-2.48-0.21-4.6 1.68-4.6 4.08v3.64c0 2.4 2.12 4.29 4.6 4.08l18.55-1.57c0.54-0.05 0.96-0.49 0.96-1.02v-6.61c0-0.53-0.42-0.98-0.96-1.02z"/>
				</g>
			</g>
		</g>
</svg>