<svg xmlns="http://www.w3.org/2000/svg" viewBox="4262.0 1294.0 143.6 225.0">
<g id="Gaming-Headset-icon-v2">
			<path id="markings 00000158021746462708026710000003759451203341585075 " fill="currentColor" stroke="currentColor" stroke-linecap="round" stroke-miterlimit="10" d="m4369.23 1420.67l-10.56-10.56v-21.47m-10.56 32.03l10.56-10.56"/>
			<path id="cable 00000155838768981117810880000005225770044204209312 " fill="currentColor" stroke="currentColor" stroke-linecap="round" stroke-miterlimit="10" d="m4380.91 1504c-2.03-11.48-42.62 2.93-36.67-16.47 2.8-9.12 14.43-5.95 14.43-17.98v-10.38m-3.78-13.96l0.56 7.39h6.44l0.56-7.39c0.09-1.16-0.69-2.16-1.67-2.16h-4.22c-0.98 0-1.76 1-1.67 2.16zm0.7 9.16l0.14 1.79h5.89l0.13-1.79m-5.91 3.28l0.04 0.6c0.04 0.52 0.47 0.92 0.99 0.92h3.6c0.52 0 0.95-0.4 0.99-0.92l0.04-0.6"/>
			<path id="sponge" fill="currentColor" stroke="currentColor" stroke-linecap="round" stroke-miterlimit="10" d="m4353.21 1449.16c-2.85-0.98-5.48-2.73-7.54-5.29m18.46 5.29c3.02-1.03 5.79-2.95 7.91-5.75l18.57-24.66c4.72-6.26 4.46-14.95-0.63-20.92l-18.57-21.8c-6.68-7.85-18.8-7.85-25.48 0l-18.57 21.8c-5.08 5.97-5.34 14.66-0.63 20.92l12.33 16.36"/>
			<path id="headband" fill="currentColor" stroke="currentColor" stroke-linecap="round" stroke-miterlimit="10" d="m4346.12 1373.01l-7.37-58.99c-0.14-1.09 0.63-2.07 1.72-2.21l22.36-2.79c1.09-0.14 2.08 0.63 2.21 1.71l8.02 64.18m-33.21-52.05l-1.23 0.15c-1.09 0.14-1.86 1.12-1.72 2.21l6.36 50.89m33.61 3.27l-7.28-58.25c-0.14-1.08-1.12-1.85-2.21-1.71l-1.23 0.15"/>
			<path id="mic-arm" fill="currentColor" stroke="currentColor" stroke-linecap="round" stroke-miterlimit="10" d="m4346.38 1440.41l-21.08 20.67-26.39 9.2m-2.28-6.55l24.92-8.68 19.97-19.59m-0.28-0.29l5.43 5.54c0.33 0.34 0.88 0.34 1.22 0.01l11.84-11.61c1.36-1.34 1.39-3.53 0.05-4.9l-1.8-1.82c-1.34-1.37-3.53-1.39-4.89-0.05l-11.84 11.6c-0.34 0.34-0.35 0.89-0.01 1.23zm-42.19 35.52l-2.57-7.37c-0.31-0.9-1.3-1.38-2.2-1.06l-15.01 5.23c-0.72 0.25-1.24 0.9-1.31 1.67l-0.93 9.55c-0.07 0.72 0.62 1.27 1.31 1.03l19.64-6.85c0.91-0.31 1.38-1.3 1.07-2.2zm-21.34 0.97l5.41-1.88m-5.68 4.73l5.23-1.82"/>
			<path id="can" fill="currentColor" stroke="currentColor" stroke-linecap="round" stroke-miterlimit="10" d="m4344.31 1428.17l-8.28-10.98c-3.77-5.01-3.57-11.85 0.5-16.63l12.02-14.1c2.53-2.97 6.22-4.68 10.12-4.68 3.9 0 7.59 1.71 10.12 4.68l12.02 14.1c4.07 4.78 4.27 11.62 0.5 16.63l-12.02 15.95c-2.53 3.37-6.41 5.3-10.62 5.3-1.65 0-3.25-0.31-4.74-0.88m4.19-4.1q0.27 0.02 0.55 0.03c2.65 0 5.08-1.21 6.67-3.33l12.02-15.95c2.37-3.15 2.24-7.44-0.31-10.44l-12.02-14.11c-1.59-1.86-3.91-2.93-6.36-2.93-2.45 0-4.77 1.07-6.36 2.93l-12.01 14.11c-2.56 3-2.69 7.29-0.32 10.44l7.89 10.47"/>
		</g>
</svg>