<svg xmlns="http://www.w3.org/2000/svg" viewBox="3986.5 162.6 158.0 95.8">
<g id="Hub-icon-v3 00000021118638482889022520000003215153500479900847 ">
			<g id="jconnection-right 00000046329351164118305640000018430947999942728843 ">
				<g id="&lt;Group&gt;">
					<path id="&lt;Path&gt;" fill="currentColor" stroke="currentColor" stroke-linecap="round" stroke-miterlimit="10" d="m4121.48 211.97h-3.22"/>
					<path id="&lt;Path&gt;" fill="currentColor" stroke="currentColor" stroke-linecap="round" stroke-miterlimit="10" d="m4121.48 208.97h-3.22"/>
				</g>
				<path id="profile 00000093856732928068221540000007464655549236039054 " fill="currentColor" stroke="currentColor" stroke-miterlimit="10" d="m4119.48 206.97h7v7h-7"/>
			</g>
			<g id="connections-top 00000069396879353749851670000011898817118741591425 ">
				<g id="&lt;Group&gt;">
					<path id="&lt;Path&gt;" fill="currentColor" stroke="currentColor" stroke-linecap="round" stroke-miterlimit="10" d="m4032 185.57v3.21"/>
					<path id="&lt;Path&gt;" fill="currentColor" stroke="currentColor" stroke-linecap="round" stroke-miterlimit="10" d="m4027 185.57v3.21"/>
				</g>
				<path id="profile 00000167378614886940902630000016194220566198290569 " fill="currentColor" stroke="currentColor" stroke-miterlimit="10" d="m4024.2 187.57v-7h10.6v7"/>
				<g id="&lt;Group&gt;">
					<path id="&lt;Path&gt;" fill="currentColor" stroke="currentColor" stroke-linecap="round" stroke-miterlimit="10" d="m4086 185.57v3.21"/>
					<path id="&lt;Path&gt;" fill="currentColor" stroke="currentColor" stroke-linecap="round" stroke-miterlimit="10" d="m4081 185.57v3.21"/>
				</g>
				<path id="profile 00000006704737604088767830000006613001878485022098 " fill="currentColor" stroke="currentColor" stroke-miterlimit="10" d="m4078.2 187.57v-7h10.6v7"/>
				<g id="&lt;Group&gt;">
					<path id="&lt;Path&gt;" fill="currentColor" stroke="currentColor" stroke-linecap="round" stroke-miterlimit="10" d="m4059 185.57v3.21"/>
					<path id="&lt;Path&gt;" fill="currentColor" stroke="currentColor" stroke-linecap="round" stroke-miterlimit="10" d="m4054 185.57v3.21"/>
				</g>
				<path id="profile 00000110447159532267692740000016451087565397239477 " fill="currentColor" stroke="currentColor" stroke-miterlimit="10" d="m4051.2 187.57v-7h10.6v7"/>
			</g>
			<path id="profile 00000172433215501173036130000013864145221289392010 " fill="currentColor" stroke="currentColor" stroke-linecap="round" stroke-miterlimit="10" d="m4018 177.57v2h4v9.21h15v-9.21h12v9.21h15v-9.21h12v9.21h15v-9.21h4v-2h31.48c1.65 0 3 1.34 3 3v20.4h-2v4h-9.22v11h9.22v4h2v20.4c0 1.66-1.35 3-3 3h-31.48v-2h-4v-9.21h-15v9.21h-12v-9.21h-15v9.21h-12v-9.21h-15v9.21h-4v2h-13.48c-1.65 0-3-1.34-3-3v-59.8c0-1.66 1.35-3 3-3z"/>
			<g id="connections-bottom 00000145776828175904662840000005870966030373083827 ">
				<g id="&lt;Group&gt;">
					<g id="&lt;Group&gt;">
						<path id="&lt;Path&gt;" fill="currentColor" stroke="currentColor" stroke-linecap="round" stroke-miterlimit="10" d="m4081 235.37v-3.21"/>
						<path id="&lt;Path&gt;" fill="currentColor" stroke="currentColor" stroke-linecap="round" stroke-miterlimit="10" d="m4086 235.37v-3.21"/>
					</g>
					<path id="profile 00000039813970551955795220000001675955740377833919 " fill="currentColor" stroke="currentColor" stroke-miterlimit="10" d="m4088.8 233.37v7h-10.6v-7"/>
				</g>
				<g id="&lt;Group&gt;">
					<g id="&lt;Group&gt;">
						<path id="&lt;Path&gt;" fill="currentColor" stroke="currentColor" stroke-linecap="round" stroke-miterlimit="10" d="m4027 235.37v-3.21"/>
						<path id="&lt;Path&gt;" fill="currentColor" stroke="currentColor" stroke-linecap="round" stroke-miterlimit="10" d="m4032 235.37v-3.21"/>
					</g>
					<path id="profile 00000036945340205902826510000017358868325931796619 " fill="currentColor" stroke="currentColor" stroke-miterlimit="10" d="m4034.8 233.37v7h-10.6v-7"/>
				</g>
				<g id="&lt;Group&gt;">
					<g id="&lt;Group&gt;">
						<path id="&lt;Path&gt;" fill="currentColor" stroke="currentColor" stroke-linecap="round" stroke-miterlimit="10" d="m4054 235.37v-3.21"/>
						<path id="&lt;Path&gt;" fill="currentColor" stroke="currentColor" stroke-linecap="round" stroke-miterlimit="10" d="m4059 235.37v-3.21"/>
					</g>
					<path id="profile 00000140730118261572617910000012142015298767939728 " fill="currentColor" stroke="currentColor" stroke-miterlimit="10" d="m4061.8 233.37v7h-10.6v-7"/>
				</g>
			</g>
			<g id="comp-ref 00000119106624876854467100000010136029756793006005 ">
				<path id="&lt;Path&gt;" fill="currentColor" stroke="currentColor" stroke-linecap="round" stroke-miterlimit="10" d="m4029.5 191.44v2.73"/>
				<path id="&lt;Path&gt;" fill="currentColor" stroke="currentColor" stroke-linecap="round" stroke-miterlimit="10" d="m4056.5 191.44v2.73"/>
				<path id="&lt;Path&gt;" fill="currentColor" stroke="currentColor" stroke-linecap="round" stroke-miterlimit="10" d="m4083.5 191.44v2.73"/>
				<path id="&lt;Path&gt;" fill="currentColor" stroke="currentColor" stroke-linecap="round" stroke-miterlimit="10" d="m4029.5 229.5v-2.73"/>
				<path id="&lt;Path&gt;" fill="currentColor" stroke="currentColor" stroke-linecap="round" stroke-miterlimit="10" d="m4056.5 229.5v-2.73"/>
				<path id="&lt;Path&gt;" fill="currentColor" stroke="currentColor" stroke-linecap="round" stroke-miterlimit="10" d="m4083.5 229.5v-2.73"/>
			</g>
		</g>
</svg>