<svg xmlns="http://www.w3.org/2000/svg" viewBox="0 0 205.00 120.00">
<g transform="translate(-3693.00,-150.47)" stroke-width="12.06">
<g id="Hub-icon-v2 00000124128657813305248540000016890981534823766665 ">
			<g id="rgb-hub 00000111167487931174825990000013697358753136000388 ">
				<g id="rgb 00000062185035807769138550000013420963403139077788 ">
					<g id="&lt;Group&gt;">
						<path id="&lt;Path&gt;" fill="currentColor" stroke="currentColor" stroke-linecap="round" stroke-miterlimit="10" d="m3728.78 180.07v-3.21"/>
						<path id="&lt;Path&gt;" fill="currentColor" stroke="currentColor" stroke-linecap="round" stroke-miterlimit="10" d="m3731.78 180.07v-3.21"/>
						<path id="&lt;Path&gt;" fill="currentColor" stroke="currentColor" stroke-linecap="round" stroke-miterlimit="10" d="m3735.78 180.07v-9.21h-11v9.21"/>
					</g>
					<g id="&lt;Group&gt;">
						<path id="&lt;Path&gt;" fill="currentColor" stroke="currentColor" stroke-linecap="round" stroke-miterlimit="10" d="m3745.55 180.07v-3.21"/>
						<path id="&lt;Path&gt;" fill="currentColor" stroke="currentColor" stroke-linecap="round" stroke-miterlimit="10" d="m3748.55 180.07v-3.21"/>
						<path id="&lt;Path&gt;" fill="currentColor" stroke="currentColor" stroke-linecap="round" stroke-miterlimit="10" d="m3752.55 180.07v-9.21h-11v9.21"/>
					</g>
					<g id="&lt;Group&gt;">
						<path id="&lt;Path&gt;" fill="currentColor" stroke="currentColor" stroke-linecap="round" stroke-miterlimit="10" d="m3762.32 180.07v-3.21"/>
						<path id="&lt;Path&gt;" fill="currentColor" stroke="currentColor" stroke-linecap="round" stroke-miterlimit="10" d="m3765.32 180.07v-3.21"/>
						<path id="&lt;Path&gt;" fill="currentColor" stroke="currentColor" stroke-linecap="round" stroke-miterlimit="10" d="m3769.32 180.07v-9.21h-11v9.21"/>
					</g>
					<g id="&lt;Group&gt;">
						<path id="&lt;Path&gt;" fill="currentColor" stroke="currentColor" stroke-linecap="round" stroke-miterlimit="10" d="m3779.1 180.07v-3.21"/>
						<path id="&lt;Path&gt;" fill="currentColor" stroke="currentColor" stroke-linecap="round" stroke-miterlimit="10" d="m3782.1 180.07v-3.21"/>
						<path id="&lt;Path&gt;" fill="currentColor" stroke="currentColor" stroke-linecap="round" stroke-miterlimit="10" d="m3786.1 180.07v-9.21h-11v9.21"/>
					</g>
					<g id="&lt;Group&gt;">
						<path id="&lt;Path&gt;" fill="currentColor" stroke="currentColor" stroke-linecap="round" stroke-miterlimit="10" d="m3795.87 180.07v-3.21"/>
						<path id="&lt;Path&gt;" fill="currentColor" stroke="currentColor" stroke-linecap="round" stroke-miterlimit="10" d="m3798.87 180.07v-3.21"/>
						<path id="&lt;Path&gt;" fill="currentColor" stroke="currentColor" stroke-linecap="round" stroke-miterlimit="10" d="m3802.87 180.07v-9.21h-11v9.21"/>
					</g>
					<g id="&lt;Group&gt;">
						<path id="&lt;Path&gt;" fill="currentColor" stroke="currentColor" stroke-linecap="round" stroke-miterlimit="10" d="m3812.64 180.07v-3.21"/>
						<path id="&lt;Path&gt;" fill="currentColor" stroke="currentColor" stroke-linecap="round" stroke-miterlimit="10" d="m3815.64 180.07v-3.21"/>
						<path id="&lt;Path&gt;" fill="currentColor" stroke="currentColor" stroke-linecap="round" stroke-miterlimit="10" d="m3819.64 180.07v-9.21h-11v9.21"/>
					</g>
					<g id="comp-ref 00000054974082847177927960000012050140112814604934 ">
						<path id="&lt;Path&gt;" fill="currentColor" stroke="currentColor" stroke-linecap="square" stroke-miterlimit="10" d="m3818.64 184.1v2.55c0 0.56-0.45 1-1 1h-90.86c-0.55 0-1-0.44-1-1v-2.55"/>
						<path id="&lt;Path&gt;" fill="currentColor" stroke="currentColor" stroke-linecap="square" stroke-miterlimit="10" d="m3730.28 184.1v1.52"/>
						<path id="&lt;Path&gt;" fill="currentColor" stroke="currentColor" stroke-linecap="square" stroke-miterlimit="10" d="m3747.05 184.1v1.52"/>
						<path id="&lt;Path&gt;" fill="currentColor" stroke="currentColor" stroke-linecap="square" stroke-miterlimit="10" d="m3763.82 184.1v1.52"/>
						<path id="&lt;Path&gt;" fill="currentColor" stroke="currentColor" stroke-linecap="square" stroke-miterlimit="10" d="m3780.6 184.1v1.52"/>
						<path id="&lt;Path&gt;" fill="currentColor" stroke="currentColor" stroke-linecap="square" stroke-miterlimit="10" d="m3797.37 184.1v1.52"/>
						<path id="&lt;Path&gt;" fill="currentColor" stroke="currentColor" stroke-linecap="square" stroke-miterlimit="10" d="m3814.14 184.1v1.52"/>
						<g id="&lt;Group&gt;">
							<path id="&lt;Path&gt;" fill="currentColor" stroke="currentColor" stroke-linecap="square" stroke-miterlimit="10" d="m3761.45 192.97h8.52"/>
							<path id="&lt;Path&gt;" fill="currentColor" stroke="currentColor" stroke-linecap="square" stroke-miterlimit="10" d="m3774.45 192.97h8.52"/>
						</g>
					</g>
				</g>
				<path id="cutout 00000097459468216909571170000017707529153069899432 " fill="currentColor" stroke="currentColor" stroke-miterlimit="10" d="m3826.64 165.47v13c0 1.1-0.9 2-2 2h-104.86c-1.1 0-2-0.9-2-2v-13"/>
			</g>
			<path id="profile 00000152968054347057842230000014699579164536458401 " fill="currentColor" stroke="currentColor" stroke-miterlimit="10" d="m3877 255.47h-163c-3.31 0-6-2.69-6-6v-78c0-3.31 2.69-6 6-6h163c3.31 0 6 2.69 6 6v78c0 3.31-2.69 6-6 6z"/>
			<g id="fans 00000141433724954055876810000005017682885699760277 ">
				<g id="&lt;Group&gt;">
					<path id="&lt;Path&gt;" fill="currentColor" stroke="currentColor" stroke-linecap="round" stroke-miterlimit="10" d="m3764.74 240.87v6.73"/>
					<path id="&lt;Path&gt;" fill="currentColor" stroke="currentColor" stroke-linecap="round" stroke-miterlimit="10" d="m3767.71 240.87v6.73"/>
					<path id="&lt;Path&gt;" fill="currentColor" stroke="currentColor" stroke-linecap="round" stroke-miterlimit="10" d="m3770.68 240.87v6.73"/>
					<path id="&lt;Path&gt;" fill="currentColor" stroke="currentColor" stroke-linecap="round" stroke-miterlimit="10" d="m3773.65 240.87v6.73"/>
				</g>
				<g id="&lt;Group&gt;">
					<path id="&lt;Path&gt;" fill="currentColor" stroke="currentColor" stroke-linecap="round" stroke-miterlimit="10" d="m3780.29 240.87v6.73"/>
					<path id="&lt;Path&gt;" fill="currentColor" stroke="currentColor" stroke-linecap="round" stroke-miterlimit="10" d="m3783.26 240.87v6.73"/>
					<path id="&lt;Path&gt;" fill="currentColor" stroke="currentColor" stroke-linecap="round" stroke-miterlimit="10" d="m3786.23 240.87v6.73"/>
					<path id="&lt;Path&gt;" fill="currentColor" stroke="currentColor" stroke-linecap="round" stroke-miterlimit="10" d="m3789.2 240.87v6.73"/>
				</g>
				<g id="&lt;Group&gt;">
					<path id="&lt;Path&gt;" fill="currentColor" stroke="currentColor" stroke-linecap="round" stroke-miterlimit="10" d="m3795.84 240.87v6.73"/>
					<path id="&lt;Path&gt;" fill="currentColor" stroke="currentColor" stroke-linecap="round" stroke-miterlimit="10" d="m3798.81 240.87v6.73"/>
					<path id="&lt;Path&gt;" fill="currentColor" stroke="currentColor" stroke-linecap="round" stroke-miterlimit="10" d="m3801.78 240.87v6.73"/>
					<path id="&lt;Path&gt;" fill="currentColor" stroke="currentColor" stroke-linecap="round" stroke-miterlimit="10" d="m3804.75 240.87v6.73"/>
				</g>
				<g id="&lt;Group&gt;">
					<path id="&lt;Path&gt;" fill="currentColor" stroke="currentColor" stroke-linecap="round" stroke-miterlimit="10" d="m3811.39 240.87v6.73"/>
					<path id="&lt;Path&gt;" fill="currentColor" stroke="currentColor" stroke-linecap="round" stroke-miterlimit="10" d="m3814.36 240.87v6.73"/>
					<path id="&lt;Path&gt;" fill="currentColor" stroke="currentColor" stroke-linecap="round" stroke-miterlimit="10" d="m3817.33 240.87v6.73"/>
					<path id="&lt;Path&gt;" fill="currentColor" stroke="currentColor" stroke-linecap="round" stroke-miterlimit="10" d="m3820.3 240.87v6.73"/>
				</g>
				<path id="&lt;Path&gt;" fill="currentColor" stroke="currentColor" stroke-linecap="square" stroke-miterlimit="10" d="m3733.64 236.84l0.01-2.55c0-0.56 0.44-1 1-1h84.65c0.56 0 1 0.44 1 1v2.55"/>
				<path id="&lt;Path&gt;" fill="currentColor" stroke="currentColor" stroke-linecap="square" stroke-miterlimit="10" d="m3784.75 236.84v-1.52"/>
				<path id="&lt;Path&gt;" fill="currentColor" stroke="currentColor" stroke-linecap="square" stroke-miterlimit="10" d="m3800.3 236.84v-1.52"/>
				<path id="&lt;Path&gt;" fill="currentColor" stroke="currentColor" stroke-linecap="square" stroke-miterlimit="10" d="m3815.85 236.84v-1.52"/>
				<path id="&lt;Path&gt;" fill="currentColor" stroke="currentColor" stroke-linecap="square" stroke-miterlimit="10" d="m3769.2 236.84v-1.52"/>
				<path id="&lt;Path&gt;" fill="currentColor" stroke="currentColor" stroke-linecap="square" stroke-miterlimit="10" d="m3753.65 236.84v-1.52"/>
				<path id="&lt;Path&gt;" fill="currentColor" stroke="currentColor" stroke-linecap="square" stroke-miterlimit="10" d="m3738.1 236.84v-1.52"/>
				<path id="&lt;Path&gt;" fill="currentColor" stroke="currentColor" stroke-linecap="square" stroke-miterlimit="10" d="m3783.73 227.97h-13.52"/>
				<path id="cutout 00000052794454318732995370000012886211101418436268 " fill="currentColor" stroke="currentColor" stroke-miterlimit="10" d="m3728 255.47v-13c0-1.1 0.9-2 2-2h93.99c1.1 0 2 0.9 2 2v13"/>
				<path id="&lt;Path&gt;" fill="currentColor" stroke="currentColor" stroke-linecap="round" stroke-miterlimit="10" d="m3728 250.5h97.99"/>
				<g id="&lt;Group&gt;">
					<path id="&lt;Path&gt;" fill="currentColor" stroke="currentColor" stroke-linecap="round" stroke-miterlimit="10" d="m3733.64 240.87l0.01 6.73"/>
					<path id="&lt;Path&gt;" fill="currentColor" stroke="currentColor" stroke-linecap="round" stroke-miterlimit="10" d="m3736.61 240.87v6.73"/>
					<path id="&lt;Path&gt;" fill="currentColor" stroke="currentColor" stroke-linecap="round" stroke-miterlimit="10" d="m3739.58 240.87v6.73"/>
					<path id="&lt;Path&gt;" fill="currentColor" stroke="currentColor" stroke-linecap="round" stroke-miterlimit="10" d="m3742.55 240.87v6.73"/>
				</g>
				<g id="&lt;Group&gt;">
					<path id="&lt;Path&gt;" fill="currentColor" stroke="currentColor" stroke-linecap="round" stroke-miterlimit="10" d="m3749.19 240.87v6.73"/>
					<path id="&lt;Path&gt;" fill="currentColor" stroke="currentColor" stroke-linecap="round" stroke-miterlimit="10" d="m3752.16 240.87v6.73"/>
					<path id="&lt;Path&gt;" fill="currentColor" stroke="currentColor" stroke-linecap="round" stroke-miterlimit="10" d="m3755.13 240.87v6.73"/>
					<path id="&lt;Path&gt;" fill="currentColor" stroke="currentColor" stroke-linecap="round" stroke-miterlimit="10" d="m3758.1 240.87v6.73"/>
				</g>
			</g>
			<g id="temp 00000132089624401414301190000011092977280143827871 ">
				<g id="&lt;Group&gt;">
					<g id="&lt;Group&gt;">
						<path id="&lt;Path&gt;" fill="currentColor" stroke="currentColor" stroke-linecap="round" stroke-miterlimit="10" d="m3714 200.97h3.21"/>
						<path id="&lt;Path&gt;" fill="currentColor" stroke="currentColor" stroke-linecap="round" stroke-miterlimit="10" d="m3714 203.97h3.21"/>
						<path id="&lt;Path&gt;" fill="currentColor" stroke="currentColor" stroke-linecap="round" stroke-miterlimit="10" d="m3708 207.97h9.21v-11h-9.21"/>
					</g>
					<path id="&lt;Path&gt;" fill="currentColor" stroke="currentColor" stroke-linecap="round" stroke-miterlimit="10" d="m3721.21 194.46v16.02"/>
				</g>
				<g id="&lt;Group&gt;">
					<g id="&lt;Group&gt;">
						<path id="&lt;Path&gt;" fill="currentColor" stroke="currentColor" stroke-linecap="round" stroke-miterlimit="10" d="m3877 211.97h-3.21"/>
						<path id="&lt;Path&gt;" fill="currentColor" stroke="currentColor" stroke-linecap="round" stroke-miterlimit="10" d="m3877 208.97h-3.21"/>
						<path id="&lt;Path&gt;" fill="currentColor" stroke="currentColor" stroke-linecap="round" stroke-miterlimit="10" d="m3883 204.97h-9.21v11h9.21"/>
					</g>
					<path id="&lt;Path&gt;" fill="currentColor" stroke="currentColor" stroke-linecap="round" stroke-miterlimit="10" d="m3869.79 202.46v16.02"/>
				</g>
			</g>
			<g id="rgb 00000166664573008859170180000000106016016790871447 ">
				<g id="&lt;Group&gt;">
					<g id="&lt;Group&gt;">
						<path id="&lt;Path&gt;" fill="currentColor" stroke="currentColor" stroke-linecap="round" stroke-miterlimit="10" d="m3875 238.47h-3.21"/>
						<path id="&lt;Path&gt;" fill="currentColor" stroke="currentColor" stroke-linecap="round" stroke-miterlimit="10" d="m3875 241.87h-3.21"/>
						<path id="&lt;Path&gt;" fill="currentColor" stroke="currentColor" stroke-linecap="round" stroke-miterlimit="10" d="m3875 235.07h-3.21"/>
					</g>
					<path id="&lt;Path&gt;" fill="currentColor" stroke="currentColor" stroke-linecap="round" stroke-miterlimit="10" d="m3883 230.97h-11.21v15h11.21"/>
				</g>
				<path id="&lt;Path&gt;" fill="currentColor" stroke="currentColor" stroke-linecap="round" stroke-miterlimit="10" d="m3867.79 234.46v8.02"/>
			</g>
		</g>
</g>
</svg>