<svg xmlns="http://www.w3.org/2000/svg" viewBox="0 0 263.59 162.77">
<g transform="translate(-3391.61,-2249.68)" stroke-width="9.41">
<g id="Keyboard-icon-v1">
			<path id="keys" fill="none" stroke="currentColor" stroke-linecap="round" stroke-linejoin="round" d="m3423.22 2328.98h2.73c0.58 0 1.05 0.47 1.05 1.05v4.2c0 0.58-0.47 1.05-1.05 1.05h-2.73c-0.58 0-1.05-0.47-1.05-1.05v-4.2c0-0.58 0.47-1.05 1.05-1.05zm6.34 1.05v4.2c0 0.58 0.47 1.05 1.04 1.05h4.2c0.58 0 1.05-0.47 1.05-1.05v-4.2c0-0.58-0.47-1.05-1.05-1.05h-4.2c-0.57 0-1.04 0.47-1.04 1.05zm8.85 0v4.2c0 0.58 0.47 1.05 1.05 1.05h4.19c0.58 0 1.05-0.47 1.05-1.05v-4.2c0-0.58-0.47-1.05-1.05-1.05h-4.19c-0.58 0-1.05 0.47-1.05 1.05zm8.85 0v4.2c0 0.58 0.47 1.05 1.05 1.05h4.2c0.58 0 1.05-0.47 1.05-1.05v-4.2c0-0.58-0.47-1.05-1.05-1.05h-4.2c-0.58 0-1.05 0.47-1.05 1.05zm8.85 0v4.2c0 0.58 0.47 1.05 1.05 1.05h4.2c0.58 0 1.05-0.47 1.05-1.05v-4.2c0-0.58-0.47-1.05-1.05-1.05h-4.2c-0.58 0-1.05 0.47-1.05 1.05zm8.85 0v4.2c0 0.58 0.47 1.05 1.05 1.05h4.2c0.58 0 1.05-0.47 1.05-1.05v-4.2c0-0.58-0.47-1.05-1.05-1.05h-4.2c-0.58 0-1.05 0.47-1.05 1.05zm8.86 0v4.2c0 0.58 0.47 1.05 1.04 1.05h4.2c0.58 0 1.05-0.47 1.05-1.05v-4.2c0-0.58-0.47-1.05-1.05-1.05h-4.2c-0.57 0-1.04 0.47-1.04 1.05zm8.85 0v4.2c0 0.58 0.47 1.05 1.05 1.05h4.19c0.58 0 1.05-0.47 1.05-1.05v-4.2c0-0.58-0.47-1.05-1.05-1.05h-4.19c-0.58 0-1.05 0.47-1.05 1.05zm8.85 0v4.2c0 0.58 0.47 1.05 1.05 1.05h4.2c0.58 0 1.05-0.47 1.05-1.05v-4.2c0-0.58-0.47-1.05-1.05-1.05h-4.2c-0.58 0-1.05 0.47-1.05 1.05zm8.85 0v4.2c0 0.58 0.47 1.05 1.05 1.05h4.2c0.58 0 1.05-0.47 1.05-1.05v-4.2c0-0.58-0.47-1.05-1.05-1.05h-4.2c-0.58 0-1.05 0.47-1.05 1.05zm8.85 0v4.2c0 0.58 0.47 1.05 1.05 1.05h4.2c0.58 0 1.05-0.47 1.05-1.05v-4.2c0-0.58-0.47-1.05-1.05-1.05h-4.2c-0.58 0-1.05 0.47-1.05 1.05zm8.86 0v4.2c0 0.58 0.47 1.05 1.04 1.05h4.2c0.58 0 1.05-0.47 1.05-1.05v-4.2c0-0.58-0.47-1.05-1.05-1.05h-4.2c-0.57 0-1.04 0.47-1.04 1.05zm8.85 0v4.2c0 0.58 0.47 1.05 1.05 1.05h4.19c0.58 0 1.05-0.47 1.05-1.05v-4.2c0-0.58-0.47-1.05-1.05-1.05h-4.19c-0.58 0-1.05 0.47-1.05 1.05zm9.9 5.25h13.05c0.58 0 1.05-0.47 1.05-1.05v-4.2c0-0.58-0.47-1.05-1.05-1.05h-13.05c-0.58 0-1.05 0.47-1.05 1.05v4.2c0 0.58 0.47 1.05 1.05 1.05zm-114.66-15.74v4.2c0 0.57 0.47 1.04 1.05 1.04h4.2c0.58 0 1.05-0.47 1.05-1.04v-4.2c0-0.58-0.47-1.05-1.05-1.05h-4.2c-0.58 0-1.05 0.47-1.05 1.05zm13.68 0v4.2c0 0.57 0.47 1.04 1.05 1.04h4.2c0.58 0 1.05-0.47 1.05-1.04v-4.2c0-0.58-0.47-1.05-1.05-1.05h-4.2c-0.58 0-1.05 0.47-1.05 1.05zm8.85 0v4.2c0 0.57 0.47 1.04 1.05 1.04h4.2c0.58 0 1.05-0.47 1.05-1.04v-4.2c0-0.58-0.47-1.05-1.05-1.05h-4.2c-0.58 0-1.05 0.47-1.05 1.05zm8.86 0v4.2c0 0.57 0.47 1.04 1.05 1.04h4.19c0.58 0 1.05-0.47 1.05-1.04v-4.2c0-0.58-0.47-1.05-1.05-1.05h-4.19c-0.58 0-1.05 0.47-1.05 1.05zm8.85 0v4.2c0 0.57 0.47 1.04 1.05 1.04h4.2c0.58 0 1.04-0.47 1.04-1.04v-4.2c0-0.58-0.46-1.05-1.04-1.05h-4.2c-0.58 0-1.05 0.47-1.05 1.05zm14.55 0v4.2c0 0.57 0.47 1.04 1.05 1.04h4.2c0.58 0 1.05-0.47 1.05-1.04v-4.2c0-0.58-0.47-1.05-1.05-1.05h-4.2c-0.58 0-1.05 0.47-1.05 1.05zm8.86 0v4.2c0 0.57 0.47 1.04 1.05 1.04h4.19c0.58 0 1.05-0.47 1.05-1.04v-4.2c0-0.58-0.47-1.05-1.05-1.05h-4.19c-0.58 0-1.05 0.47-1.05 1.05zm8.85 0v4.2c0 0.57 0.47 1.04 1.05 1.04h4.2c0.57 0 1.04-0.47 1.04-1.04v-4.2c0-0.58-0.47-1.05-1.04-1.05h-4.2c-0.58 0-1.05 0.47-1.05 1.05zm8.85 0v4.2c0 0.57 0.47 1.04 1.05 1.04h4.2c0.58 0 1.05-0.47 1.05-1.04v-4.2c0-0.58-0.47-1.05-1.05-1.05h-4.2c-0.58 0-1.05 0.47-1.05 1.05zm14.56 0v4.2c0 0.57 0.47 1.04 1.04 1.04h4.2c0.58 0 1.05-0.47 1.05-1.04v-4.2c0-0.58-0.47-1.05-1.05-1.05h-4.2c-0.57 0-1.04 0.47-1.04 1.05zm8.85 0v4.2c0 0.57 0.47 1.04 1.05 1.04h4.19c0.58 0 1.05-0.47 1.05-1.04v-4.2c0-0.58-0.47-1.05-1.05-1.05h-4.19c-0.58 0-1.05 0.47-1.05 1.05zm8.85 0v4.2c0 0.57 0.47 1.04 1.05 1.04h4.2c0.58 0 1.05-0.47 1.05-1.04v-4.2c0-0.58-0.47-1.05-1.05-1.05h-4.2c-0.58 0-1.05 0.47-1.05 1.05zm8.85 0v4.2c0 0.57 0.47 1.04 1.05 1.04h4.2c0.58 0 1.05-0.47 1.05-1.04v-4.2c0-0.58-0.47-1.05-1.05-1.05h-4.2c-0.58 0-1.05 0.47-1.05 1.05zm-122.46 18.89v4.2c0 0.57 0.47 1.04 1.05 1.04h5.88c0.58 0 1.05-0.47 1.05-1.04v-4.2c0-0.58-0.47-1.05-1.05-1.05h-5.88c-0.58 0-1.05 0.47-1.05 1.05zm10.53 0v4.2c0 0.57 0.47 1.04 1.05 1.04h4.2c0.58 0 1.05-0.47 1.05-1.04v-4.2c0-0.58-0.47-1.05-1.05-1.05h-4.2c-0.58 0-1.05 0.47-1.05 1.05zm8.86 0v4.2c0 0.57 0.47 1.04 1.05 1.04h4.19c0.58 0 1.05-0.47 1.05-1.04v-4.2c0-0.58-0.47-1.05-1.05-1.05h-4.19c-0.58 0-1.05 0.47-1.05 1.05zm8.85 0v4.2c0 0.57 0.47 1.04 1.05 1.04h4.2c0.57 0 1.04-0.47 1.04-1.04v-4.2c0-0.58-0.47-1.05-1.04-1.05h-4.2c-0.58 0-1.05 0.47-1.05 1.05zm8.85 0v4.2c0 0.57 0.47 1.04 1.05 1.04h4.2c0.58 0 1.05-0.47 1.05-1.04v-4.2c0-0.58-0.47-1.05-1.05-1.05h-4.2c-0.58 0-1.05 0.47-1.05 1.05zm8.85 0v4.2c0 0.57 0.47 1.04 1.05 1.04h4.2c0.58 0 1.05-0.47 1.05-1.04v-4.2c0-0.58-0.47-1.05-1.05-1.05h-4.2c-0.58 0-1.05 0.47-1.05 1.05zm8.85 0v4.2c0 0.57 0.47 1.04 1.05 1.04h4.2c0.58 0 1.05-0.47 1.05-1.04v-4.2c0-0.58-0.47-1.05-1.05-1.05h-4.2c-0.58 0-1.05 0.47-1.05 1.05zm8.86 0v4.2c0 0.57 0.47 1.04 1.05 1.04h4.19c0.58 0 1.05-0.47 1.05-1.04v-4.2c0-0.58-0.47-1.05-1.05-1.05h-4.19c-0.58 0-1.05 0.47-1.05 1.05zm8.85 0v4.2c0 0.57 0.47 1.04 1.05 1.04h4.2c0.57 0 1.04-0.47 1.04-1.04v-4.2c0-0.58-0.47-1.05-1.04-1.05h-4.2c-0.58 0-1.05 0.47-1.05 1.05zm8.85 0v4.2c0 0.57 0.47 1.04 1.05 1.04h4.2c0.58 0 1.05-0.47 1.05-1.04v-4.2c0-0.58-0.47-1.05-1.05-1.05h-4.2c-0.58 0-1.05 0.47-1.05 1.05zm8.85 0v4.2c0 0.57 0.47 1.04 1.05 1.04h4.2c0.58 0 1.05-0.47 1.05-1.04v-4.2c0-0.58-0.47-1.05-1.05-1.05h-4.2c-0.58 0-1.05 0.47-1.05 1.05zm8.85 0v4.2c0 0.57 0.47 1.04 1.05 1.04h4.2c0.58 0 1.05-0.47 1.05-1.04v-4.2c0-0.58-0.47-1.05-1.05-1.05h-4.2c-0.58 0-1.05 0.47-1.05 1.05zm8.86 0v4.2c0 0.57 0.47 1.04 1.05 1.04h4.19c0.58 0 1.05-0.47 1.05-1.04v-4.2c0-0.58-0.47-1.05-1.05-1.05h-4.19c-0.58 0-1.05 0.47-1.05 1.05zm9.9 5.24h9.9c0.58 0 1.05-0.47 1.05-1.04v-4.2c0-0.58-0.47-1.05-1.05-1.05h-9.9c-0.58 0-1.05 0.47-1.05 1.05v4.2c0 0.57 0.47 1.04 1.05 1.04zm-117.81 3.15v4.2c0 0.58 0.47 1.05 1.05 1.05h9.03c0.58 0 1.05-0.47 1.05-1.05v-4.2c0-0.58-0.47-1.05-1.05-1.05h-9.03c-0.58 0-1.05 0.47-1.05 1.05zm13.68 0v4.2c0 0.58 0.47 1.05 1.05 1.05h4.2c0.58 0 1.05-0.47 1.05-1.05v-4.2c0-0.58-0.47-1.05-1.05-1.05h-4.2c-0.58 0-1.05 0.47-1.05 1.05zm8.85 0v4.2c0 0.58 0.47 1.05 1.05 1.05h4.2c0.58 0 1.05-0.47 1.05-1.05v-4.2c0-0.58-0.47-1.05-1.05-1.05h-4.2c-0.58 0-1.05 0.47-1.05 1.05zm8.86 0v4.2c0 0.58 0.47 1.05 1.05 1.05h4.19c0.58 0 1.05-0.47 1.05-1.05v-4.2c0-0.58-0.47-1.05-1.05-1.05h-4.19c-0.58 0-1.05 0.47-1.05 1.05zm8.85 0v4.2c0 0.58 0.47 1.05 1.05 1.05h4.2c0.58 0 1.04-0.47 1.04-1.05v-4.2c0-0.58-0.46-1.05-1.04-1.05h-4.2c-0.58 0-1.05 0.47-1.05 1.05zm8.85 0v4.2c0 0.58 0.47 1.05 1.05 1.05h4.2c0.58 0 1.05-0.47 1.05-1.05v-4.2c0-0.58-0.47-1.05-1.05-1.05h-4.2c-0.58 0-1.05 0.47-1.05 1.05zm8.85 0v4.2c0 0.58 0.47 1.05 1.05 1.05h4.2c0.58 0 1.05-0.47 1.05-1.05v-4.2c0-0.58-0.47-1.05-1.05-1.05h-4.2c-0.58 0-1.05 0.47-1.05 1.05zm8.85 0v4.2c0 0.58 0.47 1.05 1.05 1.05h4.2c0.58 0 1.05-0.47 1.05-1.05v-4.2c0-0.58-0.47-1.05-1.05-1.05h-4.2c-0.58 0-1.05 0.47-1.05 1.05zm8.86 0v4.2c0 0.58 0.47 1.05 1.05 1.05h4.19c0.58 0 1.05-0.47 1.05-1.05v-4.2c0-0.58-0.47-1.05-1.05-1.05h-4.19c-0.58 0-1.05 0.47-1.05 1.05zm8.85 0v4.2c0 0.58 0.47 1.05 1.05 1.05h4.2c0.58 0 1.04-0.47 1.04-1.05v-4.2c0-0.58-0.46-1.05-1.04-1.05h-4.2c-0.58 0-1.05 0.47-1.05 1.05zm8.85 0v4.2c0 0.58 0.47 1.05 1.05 1.05h4.2c0.58 0 1.05-0.47 1.05-1.05v-4.2c0-0.58-0.47-1.05-1.05-1.05h-4.2c-0.58 0-1.05 0.47-1.05 1.05zm8.85 0v4.2c0 0.58 0.47 1.05 1.05 1.05h4.2c0.58 0 1.05-0.47 1.05-1.05v-4.2c0-0.58-0.47-1.05-1.05-1.05h-4.2c-0.58 0-1.05 0.47-1.05 1.05zm9.9 5.25h15.61c0.58 0 1.05-0.47 1.05-1.05v-4.2c0-0.58-0.47-1.05-1.05-1.05h-15.61c-0.58 0-1.05 0.47-1.05 1.05v4.2c0 0.58 0.47 1.05 1.05 1.05zm-112.1 3.15v4.2c0 0.58 0.47 1.05 1.05 1.05h12.18c0.58 0 1.05-0.47 1.05-1.05v-4.2c0-0.58-0.47-1.05-1.05-1.05h-12.18c-0.58 0-1.05 0.47-1.05 1.05zm16.83 0v4.2c0 0.58 0.47 1.05 1.05 1.05h4.2c0.58 0 1.05-0.47 1.05-1.05v-4.2c0-0.58-0.47-1.05-1.05-1.05h-4.2c-0.58 0-1.05 0.47-1.05 1.05zm8.85 0v4.2c0 0.58 0.47 1.05 1.05 1.05h4.2c0.58 0 1.05-0.47 1.05-1.05v-4.2c0-0.58-0.47-1.05-1.05-1.05h-4.2c-0.58 0-1.05 0.47-1.05 1.05zm8.85 0v4.2c0 0.58 0.47 1.05 1.05 1.05h4.2c0.58 0 1.05-0.47 1.05-1.05v-4.2c0-0.58-0.47-1.05-1.05-1.05h-4.2c-0.58 0-1.05 0.47-1.05 1.05zm8.86 0v4.2c0 0.58 0.47 1.05 1.05 1.05h4.19c0.58 0 1.05-0.47 1.05-1.05v-4.2c0-0.58-0.47-1.05-1.05-1.05h-4.19c-0.58 0-1.05 0.47-1.05 1.05zm8.85 0v4.2c0 0.58 0.47 1.05 1.05 1.05h4.2c0.58 0 1.05-0.47 1.05-1.05v-4.2c0-0.58-0.47-1.05-1.05-1.05h-4.2c-0.58 0-1.05 0.47-1.05 1.05zm8.85 0v4.2c0 0.58 0.47 1.05 1.05 1.05h4.2c0.58 0 1.05-0.47 1.05-1.05v-4.2c0-0.58-0.47-1.05-1.05-1.05h-4.2c-0.58 0-1.05 0.47-1.05 1.05zm8.85 0v4.2c0 0.58 0.47 1.05 1.05 1.05h4.2c0.58 0 1.05-0.47 1.05-1.05v-4.2c0-0.58-0.47-1.05-1.05-1.05h-4.2c-0.58 0-1.05 0.47-1.05 1.05zm8.85 0v4.2c0 0.58 0.47 1.05 1.05 1.05h4.2c0.58 0 1.05-0.47 1.05-1.05v-4.2c0-0.58-0.47-1.05-1.05-1.05h-4.2c-0.58 0-1.05 0.47-1.05 1.05zm8.86 0v4.2c0 0.58 0.47 1.05 1.05 1.05h4.19c0.58 0 1.05-0.47 1.05-1.05v-4.2c0-0.58-0.47-1.05-1.05-1.05h-4.19c-0.58 0-1.05 0.47-1.05 1.05zm8.85 0v4.2c0 0.58 0.47 1.05 1.05 1.05h4.2c0.58 0 1.05-0.47 1.05-1.05v-4.2c0-0.58-0.47-1.05-1.05-1.05h-4.2c-0.58 0-1.05 0.47-1.05 1.05zm9.9 5.25h21.31c0.58 0 1.05-0.47 1.05-1.05v-4.2c0-0.58-0.47-1.05-1.05-1.05h-21.31c-0.58 0-1.05 0.47-1.05 1.05v4.2c0 0.58 0.47 1.05 1.05 1.05zm-26.1 2.1h-42.16c-0.58 0-1.05 0.47-1.05 1.04v4.2c0 0.58 0.47 1.05 1.05 1.05h42.16c0.58 0 1.05-0.47 1.05-1.05v-4.2c0-0.57-0.47-1.04-1.05-1.04zm56.26-32.54v4.2c0 0.58 0.47 1.05 1.05 1.05h4.2c0.58 0 1.05-0.47 1.05-1.05v-4.2c0-0.58-0.47-1.05-1.05-1.05h-4.2c-0.58 0-1.05 0.47-1.05 1.05zm8.85 0v4.2c0 0.58 0.47 1.05 1.05 1.05h4.2c0.58 0 1.05-0.47 1.05-1.05v-4.2c0-0.58-0.47-1.05-1.05-1.05h-4.2c-0.58 0-1.05 0.47-1.05 1.05zm8.85 0v4.2c0 0.58 0.47 1.05 1.05 1.05h4.2c0.58 0 1.05-0.47 1.05-1.05v-4.2c0-0.58-0.47-1.05-1.05-1.05h-4.2c-0.58 0-1.05 0.47-1.05 1.05zm-17.7-10.49v4.2c0 0.57 0.47 1.04 1.05 1.04h4.2c0.58 0 1.05-0.47 1.05-1.04v-4.2c0-0.58-0.47-1.05-1.05-1.05h-4.2c-0.58 0-1.05 0.47-1.05 1.05zm8.85 0v4.2c0 0.57 0.47 1.04 1.05 1.04h4.2c0.58 0 1.05-0.47 1.05-1.04v-4.2c0-0.58-0.47-1.05-1.05-1.05h-4.2c-0.58 0-1.05 0.47-1.05 1.05zm8.85 0v4.2c0 0.57 0.47 1.04 1.05 1.04h4.2c0.58 0 1.05-0.47 1.05-1.04v-4.2c0-0.58-0.47-1.05-1.05-1.05h-4.2c-0.58 0-1.05 0.47-1.05 1.05zm-17.7 18.89v4.2c0 0.57 0.47 1.04 1.05 1.04h4.2c0.58 0 1.05-0.47 1.05-1.04v-4.2c0-0.58-0.47-1.05-1.05-1.05h-4.2c-0.58 0-1.05 0.47-1.05 1.05zm8.85 0v4.2c0 0.57 0.47 1.04 1.05 1.04h4.2c0.58 0 1.05-0.47 1.05-1.04v-4.2c0-0.58-0.47-1.05-1.05-1.05h-4.2c-0.58 0-1.05 0.47-1.05 1.05zm8.85 0v4.2c0 0.57 0.47 1.04 1.05 1.04h4.2c0.58 0 1.05-0.47 1.05-1.04v-4.2c0-0.58-0.47-1.05-1.05-1.05h-4.2c-0.58 0-1.05 0.47-1.05 1.05zm-8.85 16.79v4.2c0 0.58 0.47 1.05 1.05 1.05h4.2c0.58 0 1.05-0.47 1.05-1.05v-4.2c0-0.58-0.47-1.05-1.05-1.05h-4.2c-0.58 0-1.05 0.47-1.05 1.05zm-8.85 8.39v4.2c0 0.58 0.47 1.05 1.05 1.05h4.2c0.58 0 1.05-0.47 1.05-1.05v-4.2c0-0.57-0.47-1.04-1.05-1.04h-4.2c-0.58 0-1.05 0.47-1.05 1.04zm8.85 0v4.2c0 0.58 0.47 1.05 1.05 1.05h4.2c0.58 0 1.05-0.47 1.05-1.05v-4.2c0-0.57-0.47-1.04-1.05-1.04h-4.2c-0.58 0-1.05 0.47-1.05 1.04zm8.85 0v4.2c0 0.58 0.47 1.05 1.05 1.05h4.2c0.58 0 1.05-0.47 1.05-1.05v-4.2c0-0.57-0.47-1.04-1.05-1.04h-4.2c-0.58 0-1.05 0.47-1.05 1.04zm15.15-33.58v4.2c0 0.58 0.47 1.05 1.05 1.05h4.2c0.58 0 1.05-0.47 1.05-1.05v-4.2c0-0.58-0.47-1.05-1.05-1.05h-4.2c-0.58 0-1.05 0.47-1.05 1.05zm8.86 0v4.2c0 0.58 0.47 1.05 1.04 1.05h4.2c0.58 0 1.05-0.47 1.05-1.05v-4.2c0-0.58-0.47-1.05-1.05-1.05h-4.2c-0.57 0-1.04 0.47-1.04 1.05zm8.85 0v4.2c0 0.58 0.47 1.05 1.05 1.05h4.19c0.58 0 1.05-0.47 1.05-1.05v-4.2c0-0.58-0.47-1.05-1.05-1.05h-4.19c-0.58 0-1.05 0.47-1.05 1.05zm8.85 0v4.2c0 0.58 0.47 1.05 1.05 1.05h4.2c0.58 0 1.05-0.47 1.05-1.05v-4.2c0-0.58-0.47-1.05-1.05-1.05h-4.2c-0.58 0-1.05 0.47-1.05 1.05zm-26.56 8.4v4.2c0 0.57 0.47 1.04 1.05 1.04h4.2c0.58 0 1.05-0.47 1.05-1.04v-4.2c0-0.58-0.47-1.05-1.05-1.05h-4.2c-0.58 0-1.05 0.47-1.05 1.05zm8.86 0v4.2c0 0.57 0.47 1.04 1.04 1.04h4.2c0.58 0 1.05-0.47 1.05-1.04v-4.2c0-0.58-0.47-1.05-1.05-1.05h-4.2c-0.57 0-1.04 0.47-1.04 1.05zm8.85 0v4.2c0 0.57 0.47 1.04 1.05 1.04h4.19c0.58 0 1.05-0.47 1.05-1.04v-4.2c0-0.58-0.47-1.05-1.05-1.05h-4.19c-0.58 0-1.05 0.47-1.05 1.05zm-17.71 8.39v4.2c0 0.58 0.47 1.05 1.05 1.05h4.2c0.58 0 1.05-0.47 1.05-1.05v-4.2c0-0.58-0.47-1.05-1.05-1.05h-4.2c-0.58 0-1.05 0.47-1.05 1.05zm8.86 0v4.2c0 0.58 0.47 1.05 1.04 1.05h4.2c0.58 0 1.05-0.47 1.05-1.05v-4.2c0-0.58-0.47-1.05-1.05-1.05h-4.2c-0.57 0-1.04 0.47-1.04 1.05zm8.85 0v4.2c0 0.58 0.47 1.05 1.05 1.05h4.19c0.58 0 1.05-0.47 1.05-1.05v-4.2c0-0.58-0.47-1.05-1.05-1.05h-4.19c-0.58 0-1.05 0.47-1.05 1.05zm8.85-8.39v12.59c0 0.58 0.47 1.05 1.05 1.05h4.2c0.58 0 1.05-0.47 1.05-1.05v-12.59c0-0.58-0.47-1.05-1.05-1.05h-4.2c-0.58 0-1.05 0.47-1.05 1.05zm-26.56 16.79v4.2c0 0.58 0.47 1.05 1.05 1.05h4.2c0.58 0 1.05-0.47 1.05-1.05v-4.2c0-0.58-0.47-1.05-1.05-1.05h-4.2c-0.58 0-1.05 0.47-1.05 1.05zm8.86 0v4.2c0 0.58 0.47 1.05 1.04 1.05h4.2c0.58 0 1.05-0.47 1.05-1.05v-4.2c0-0.58-0.47-1.05-1.05-1.05h-4.2c-0.57 0-1.04 0.47-1.04 1.05zm8.85 0v4.2c0 0.58 0.47 1.05 1.05 1.05h4.19c0.58 0 1.05-0.47 1.05-1.05v-4.2c0-0.58-0.47-1.05-1.05-1.05h-4.19c-0.58 0-1.05 0.47-1.05 1.05zm-17.71 8.39v4.2c0 0.58 0.47 1.05 1.05 1.05h13.05c0.58 0 1.05-0.47 1.05-1.05v-4.2c0-0.57-0.47-1.04-1.05-1.04h-13.05c-0.58 0-1.05 0.47-1.05 1.04zm17.71 0v4.2c0 0.58 0.47 1.05 1.05 1.05h4.19c0.58 0 1.05-0.47 1.05-1.05v-4.2c0-0.57-0.47-1.04-1.05-1.04h-4.19c-0.58 0-1.05 0.47-1.05 1.04zm8.85-8.39v12.59c0 0.58 0.47 1.05 1.05 1.05h4.2c0.58 0 1.05-0.47 1.05-1.05v-12.59c0-0.58-0.47-1.05-1.05-1.05h-4.2c-0.58 0-1.05 0.47-1.05 1.05zm-112.07 8.39v4.2c0 0.58 0.47 1.05 1.05 1.05h7.2c0.58 0 1.05-0.47 1.05-1.05v-4.2c0-0.57-0.47-1.04-1.05-1.04h-7.2c-0.58 0-1.05 0.47-1.05 1.04zm11.86 0v4.2c0 0.58 0.47 1.05 1.05 1.05h7.19c0.58 0 1.05-0.47 1.05-1.05v-4.2c0-0.57-0.47-1.04-1.05-1.04h-7.19c-0.58 0-1.05 0.47-1.05 1.04zm11.85 0v4.2c0 0.58 0.47 1.05 1.05 1.05h7.2c0.58 0 1.05-0.47 1.05-1.05v-4.2c0-0.57-0.47-1.04-1.05-1.04h-7.2c-0.58 0-1.05 0.47-1.05 1.04zm11.85 0v4.2c0 0.58 0.47 1.05 1.05 1.05h7.2c0.58 0 1.05-0.47 1.05-1.05v-4.2c0-0.57-0.47-1.04-1.05-1.04h-7.2c-0.58 0-1.05 0.47-1.05 1.04zm-119.46 0v4.2c0 0.58 0.47 1.05 1.05 1.05h7.71c0.58 0 1.05-0.47 1.05-1.05v-4.2c0-0.57-0.47-1.04-1.05-1.04h-7.71c-0.58 0-1.05 0.47-1.05 1.04zm12.36 0v4.2c0 0.58 0.47 1.05 1.05 1.05h7.71c0.58 0 1.05-0.47 1.05-1.05v-4.2c0-0.57-0.47-1.04-1.05-1.04h-7.71c-0.58 0-1.05 0.47-1.05 1.04zm12.37 0v4.2c0 0.58 0.47 1.05 1.05 1.05h7.7c0.58 0 1.05-0.47 1.05-1.05v-4.2c0-0.57-0.47-1.04-1.05-1.04h-7.7c-0.58 0-1.05 0.47-1.05 1.04z"/>
			<path id="leds" fill="none" stroke="currentColor" stroke-linecap="round" stroke-linejoin="round" d="m3599.61 2324.08c0 0.58-0.47 1.05-1.05 1.05-0.58 0-1.04-0.47-1.04-1.05 0-0.58 0.46-1.05 1.04-1.05 0.58 0 1.05 0.47 1.05 1.05zm5.25-1.05c-0.58 0-1.05 0.47-1.05 1.05 0 0.58 0.47 1.05 1.05 1.05 0.58 0 1.05-0.47 1.05-1.05 0-0.58-0.47-1.05-1.05-1.05zm6.3 0c-0.58 0-1.05 0.47-1.05 1.05 0 0.58 0.47 1.05 1.05 1.05 0.58 0 1.05-0.47 1.05-1.05 0-0.58-0.47-1.05-1.05-1.05zm6.29 0c-0.57 0-1.04 0.47-1.04 1.05 0 0.58 0.47 1.05 1.04 1.05 0.58 0 1.05-0.47 1.05-1.05 0-0.58-0.47-1.05-1.05-1.05z"/>
			<path id="outers" fill="none" stroke="currentColor" stroke-linecap="round" stroke-linejoin="round" d="m3627.58 2314.29h-208.56l4.2-9.63h200.17zm-71.37 58.77l8.4 34.02h54.57l8.4-34.02h-208.56l8.39 34.02h54.57l8.4-34.02m-7.13 28.88h80.09m-147.26-28.88h2.94v-58.77l-8.22 2.19 5.28 56.58-2.26 5.83 13.59 28.19m-4.2-102.43l-8.3 3.53-4.11 8.3m208.38 90.6l13.6-28.19-2.27-5.83 5.29-56.58-8.22-2.19v58.77h2.93m5.29-56.58l-4.11-8.3-8.31-3.53"/>
			<path id="branding 00000033369418165869909700000013410920905828960694 " fill="none" stroke="currentColor" stroke-linecap="round" stroke-linejoin="round" d="m3504.84 2309.47h36.93"/>
			<path id="cable" fill="none" stroke="currentColor" stroke-miterlimit="10" d="m3468.11 2292.65c0 0 0-1.26 0-13.44 0-12.19 25.74-25.45 62.56 0 36.82 25.45 52.01-19.05 109.53-14.53m-169.09 39.98v-11.01c0-0.56-0.45-1-1-1h-4c-0.55 0-1 0.44-1 1v11.01m1-14.01h4m-4-2h4m-4-2h4"/>
		</g>
</g>
</svg>