<svg xmlns="http://www.w3.org/2000/svg" viewBox="4200.5 2256.3 270.0 167.2">
<g id="Keyboard-icon-v4 00000106129206924142899090000017848376705280693183 ">
			<path id="keys-numpad 00000057863308834287339470000009562140029549760135 " fill="currentColor" stroke="currentColor" stroke-linecap="round" stroke-linejoin="round" d="m4443.5 2316.28h1.96c0.54 0 0.98 0.44 0.98 0.98v1.96c0 0.55-0.44 0.99-0.98 0.99h-1.96c-0.55 0-0.98-0.44-0.98-0.99v-1.96c0-0.54 0.43-0.98 0.98-0.98zm-27.8 3.93h1.97v-1.97h-1.97zm0 4.91v3.93c0 0.54 0.44 0.98 0.98 0.98h3.93c0.54 0 0.98-0.44 0.98-0.98v-3.93c0-0.54-0.44-0.98-0.98-0.98h-3.93c-0.54 0-0.98 0.44-0.98 0.98zm8.28 0v3.93c0 0.54 0.44 0.98 0.99 0.98h3.92c0.55 0 0.99-0.44 0.99-0.98v-3.93c0-0.54-0.44-0.98-0.99-0.98h-3.92c-0.55 0-0.99 0.44-0.99 0.98zm8.29 0v3.93c0 0.54 0.44 0.98 0.98 0.98h3.93c0.54 0 0.98-0.44 0.98-0.98v-3.93c0-0.54-0.44-0.98-0.98-0.98h-3.93c-0.54 0-0.98 0.44-0.98 0.98zm8.28 0v3.93c0 0.54 0.44 0.98 0.98 0.98h3.93c0.54 0 0.98-0.44 0.98-0.98v-3.93c0-0.54-0.44-0.98-0.98-0.98h-3.93c-0.54 0-0.98 0.44-0.98 0.98zm-24.85 7.86v3.93c0 0.54 0.44 0.98 0.98 0.98h3.93c0.54 0 0.98-0.44 0.98-0.98v-3.93c0-0.54-0.44-0.98-0.98-0.98h-3.93c-0.54 0-0.98 0.44-0.98 0.98zm8.28 0v3.93c0 0.54 0.44 0.98 0.99 0.98h3.92c0.55 0 0.99-0.44 0.99-0.98v-3.93c0-0.54-0.44-0.98-0.99-0.98h-3.92c-0.55 0-0.99 0.44-0.99 0.98zm8.29 0v3.93c0 0.54 0.44 0.98 0.98 0.98h3.93c0.54 0 0.98-0.44 0.98-0.98v-3.93c0-0.54-0.44-0.98-0.98-0.98h-3.93c-0.54 0-0.98 0.44-0.98 0.98zm-16.57 7.85v3.93c0 0.54 0.44 0.98 0.98 0.98h3.93c0.54 0 0.98-0.44 0.98-0.98v-3.93c0-0.54-0.44-0.98-0.98-0.98h-3.93c-0.54 0-0.98 0.44-0.98 0.98zm8.28 0v3.93c0 0.54 0.44 0.98 0.99 0.98h3.92c0.55 0 0.99-0.44 0.99-0.98v-3.93c0-0.54-0.44-0.98-0.99-0.98h-3.92c-0.55 0-0.99 0.44-0.99 0.98zm8.29 0v3.93c0 0.54 0.44 0.98 0.98 0.98h3.93c0.54 0 0.98-0.44 0.98-0.98v-3.93c0-0.54-0.44-0.98-0.98-0.98h-3.93c-0.54 0-0.98 0.44-0.98 0.98zm8.28-7.85v11.78c0 0.54 0.44 0.98 0.98 0.98h3.93c0.54 0 0.98-0.44 0.98-0.98v-11.78c0-0.54-0.44-0.98-0.98-0.98h-3.93c-0.54 0-0.98 0.44-0.98 0.98zm-24.85 15.71v3.93c0 0.54 0.44 0.98 0.98 0.98h3.93c0.54 0 0.98-0.44 0.98-0.98v-3.93c0-0.54-0.44-0.98-0.98-0.98h-3.93c-0.54 0-0.98 0.44-0.98 0.98zm8.28 0v3.93c0 0.54 0.44 0.98 0.99 0.98h3.92c0.55 0 0.99-0.44 0.99-0.98v-3.93c0-0.54-0.44-0.98-0.99-0.98h-3.92c-0.55 0-0.99 0.44-0.99 0.98zm8.29 0v3.93c0 0.54 0.44 0.98 0.98 0.98h3.93c0.54 0 0.98-0.44 0.98-0.98v-3.93c0-0.54-0.44-0.98-0.98-0.98h-3.93c-0.54 0-0.98 0.44-0.98 0.98zm-16.57 7.86v3.92c0 0.55 0.44 0.99 0.98 0.99h12.21c0.55 0 0.99-0.44 0.99-0.99v-3.92c0-0.55-0.44-0.99-0.99-0.99h-12.21c-0.54 0-0.98 0.44-0.98 0.99zm16.57 0v3.92c0 0.55 0.44 0.99 0.98 0.99h3.93c0.54 0 0.98-0.44 0.98-0.99v-3.92c0-0.55-0.44-0.99-0.98-0.99h-3.93c-0.54 0-0.98 0.44-0.98 0.99zm8.28-7.86v11.78c0 0.55 0.44 0.99 0.98 0.99h3.93c0.54 0 0.98-0.44 0.98-0.99v-11.78c0-0.54-0.44-0.98-0.98-0.98h-3.93c-0.54 0-0.98 0.44-0.98 0.98zm-18.92-28.48h1.96v-1.96h-1.96zm5.93 0h1.96v-1.97h-1.96z"/>
			<path id="keys-cursors" fill="currentColor" stroke="currentColor" stroke-linecap="round" stroke-linejoin="round" d="m4382.29 2326.1h3.93c0.54 0 0.98 0.44 0.98 0.98v3.93c0 0.54-0.44 0.98-0.98 0.98h-3.93c-0.54 0-0.98-0.44-0.98-0.98v-3.93c0-0.54 0.44-0.98 0.98-0.98zm7.3 0.98v3.93c0 0.54 0.44 0.98 0.99 0.98h3.92c0.55 0 0.99-0.44 0.99-0.98v-3.93c0-0.54-0.44-0.98-0.99-0.98h-3.92c-0.55 0-0.99 0.44-0.99 0.98zm8.29 0v3.93c0 0.54 0.44 0.98 0.98 0.98h3.93c0.54 0 0.98-0.44 0.98-0.98v-3.93c0-0.54-0.44-0.98-0.98-0.98h-3.93c-0.54 0-0.98 0.44-0.98 0.98zm-16.57-9.82v3.93c0 0.54 0.44 0.98 0.98 0.98h3.93c0.54 0 0.98-0.44 0.98-0.98v-3.93c0-0.54-0.44-0.98-0.98-0.98h-3.93c-0.54 0-0.98 0.44-0.98 0.98zm8.28 0v3.93c0 0.54 0.44 0.98 0.99 0.98h3.92c0.55 0 0.99-0.44 0.99-0.98v-3.93c0-0.54-0.44-0.98-0.99-0.98h-3.92c-0.55 0-0.99 0.44-0.99 0.98zm8.29 0v3.93c0 0.54 0.44 0.98 0.98 0.98h3.93c0.54 0 0.98-0.44 0.98-0.98v-3.93c0-0.54-0.44-0.98-0.98-0.98h-3.93c-0.54 0-0.98 0.44-0.98 0.98zm-16.57 17.68v3.92c0 0.55 0.44 0.99 0.98 0.99h3.93c0.54 0 0.98-0.44 0.98-0.99v-3.92c0-0.55-0.44-0.99-0.98-0.99h-3.93c-0.54 0-0.98 0.44-0.98 0.99zm8.28 0v3.92c0 0.55 0.44 0.99 0.99 0.99h3.92c0.55 0 0.99-0.44 0.99-0.99v-3.92c0-0.55-0.44-0.99-0.99-0.99h-3.92c-0.55 0-0.99 0.44-0.99 0.99zm8.29 0v3.92c0 0.55 0.44 0.99 0.98 0.99h3.93c0.54 0 0.98-0.44 0.98-0.99v-3.92c0-0.55-0.44-0.99-0.98-0.99h-3.93c-0.54 0-0.98 0.44-0.98 0.99zm-8.29 15.71v3.93c0 0.54 0.44 0.98 0.99 0.98h3.92c0.55 0 0.99-0.44 0.99-0.98v-3.93c0-0.54-0.44-0.98-0.99-0.98h-3.92c-0.55 0-0.99 0.44-0.99 0.98zm-8.28 7.85v3.93c0 0.54 0.44 0.98 0.98 0.98h3.93c0.54 0 0.98-0.44 0.98-0.98v-3.93c0-0.54-0.44-0.98-0.98-0.98h-3.93c-0.54 0-0.98 0.44-0.98 0.98zm8.28 0v3.93c0 0.54 0.44 0.98 0.99 0.98h3.92c0.55 0 0.99-0.44 0.99-0.98v-3.93c0-0.54-0.44-0.98-0.99-0.98h-3.92c-0.55 0-0.99 0.44-0.99 0.98zm8.29 0v3.93c0 0.54 0.44 0.98 0.98 0.98h3.93c0.54 0 0.98-0.44 0.98-0.98v-3.93c0-0.54-0.44-0.98-0.98-0.98h-3.93c-0.54 0-0.98 0.44-0.98 0.98z"/>
			<path id="keys-R" fill="currentColor" stroke="currentColor" stroke-linecap="round" stroke-linejoin="round" d="m4312.08 2337.08l3.87-0.69c0.54-0.09 1.05 0.27 1.14 0.8l0.68 3.87c0.1 0.53-0.26 1.04-0.79 1.14l-3.87 0.68c-0.54 0.09-1.05-0.26-1.14-0.8l-0.68-3.87c-0.1-0.53 0.26-1.04 0.79-1.13zm7.36-0.31l0.69 3.87c0.09 0.54 0.6 0.89 1.13 0.8l3.87-0.68c0.54-0.1 0.89-0.61 0.8-1.14l-0.68-3.87c-0.1-0.53-0.61-0.89-1.14-0.8l-3.87 0.69c-0.53 0.09-0.89 0.6-0.8 1.13zm8.16-1.43l0.68 3.86c0.1 0.54 0.61 0.9 1.14 0.8l3.87-0.68c0.53-0.1 0.89-0.6 0.8-1.14l-0.69-3.87c-0.09-0.53-0.6-0.89-1.13-0.79l-3.87 0.68c-0.54 0.09-0.89 0.6-0.8 1.14zm8.16-1.44l0.68 3.87c0.1 0.53 0.61 0.89 1.14 0.79l3.87-0.68c0.53-0.09 0.89-0.6 0.79-1.14l-0.68-3.87c-0.09-0.53-0.6-0.89-1.14-0.79l-3.86 0.68c-0.54 0.09-0.89 0.6-0.8 1.14zm8.16-1.44l0.68 3.87c0.09 0.53 0.6 0.89 1.14 0.79l3.86-0.68c0.54-0.09 0.9-0.6 0.8-1.14l-0.68-3.86c-0.09-0.54-0.6-0.89-1.14-0.8l-3.87 0.68c-0.53 0.1-0.89 0.61-0.79 1.14zm9.97 3.23l12.03-2.12c0.53-0.1 0.89-0.61 0.8-1.14l-0.69-3.87c-0.09-0.53-0.6-0.89-1.13-0.8l-12.03 2.12c-0.53 0.1-0.89 0.61-0.8 1.14l0.69 3.87c0.09 0.53 0.6 0.89 1.13 0.8zm-49.56-6.22l0.68 3.87c0.09 0.53 0.6 0.89 1.14 0.79l3.86-0.68c0.54-0.09 0.9-0.6 0.8-1.14l-0.68-3.86c-0.1-0.54-0.6-0.9-1.14-0.8l-3.87 0.68c-0.53 0.1-0.89 0.6-0.79 1.14zm8.15-1.44l0.69 3.87c0.09 0.53 0.6 0.89 1.13 0.8l3.87-0.69c0.54-0.09 0.89-0.6 0.8-1.13l-0.68-3.87c-0.1-0.54-0.61-0.89-1.14-0.8l-3.87 0.68c-0.53 0.1-0.89 0.61-0.8 1.14zm8.16-1.44l0.68 3.87c0.1 0.53 0.61 0.89 1.14 0.8l3.87-0.69c0.53-0.09 0.89-0.6 0.8-1.13l-0.69-3.87c-0.09-0.54-0.6-0.89-1.13-0.8l-3.87 0.68c-0.54 0.1-0.89 0.61-0.8 1.14zm13.41-2.36l0.69 3.87c0.09 0.53 0.6 0.89 1.13 0.79l3.87-0.68c0.54-0.09 0.89-0.6 0.8-1.14l-0.68-3.87c-0.1-0.53-0.61-0.89-1.14-0.79l-3.87 0.68c-0.53 0.09-0.89 0.6-0.8 1.14zm8.16-1.44l0.68 3.87c0.1 0.53 0.61 0.89 1.14 0.79l3.87-0.68c0.53-0.09 0.89-0.6 0.8-1.14l-0.69-3.86c-0.09-0.54-0.6-0.9-1.13-0.8l-3.87 0.68c-0.54 0.09-0.89 0.6-0.8 1.14zm8.16-1.44l0.68 3.87c0.1 0.53 0.6 0.89 1.14 0.8l3.87-0.69c0.53-0.09 0.89-0.6 0.79-1.13l-0.68-3.87c-0.09-0.54-0.6-0.89-1.14-0.8l-3.86 0.68c-0.54 0.1-0.9 0.61-0.8 1.14zm8.16-1.44l0.68 3.87c0.09 0.53 0.6 0.89 1.14 0.8l3.86-0.69c0.54-0.09 0.9-0.6 0.8-1.13l-0.68-3.87c-0.1-0.54-0.6-0.89-1.14-0.8l-3.87 0.68c-0.53 0.1-0.89 0.61-0.79 1.14zm-42.98 25.53l0.69 3.87c0.09 0.53 0.6 0.89 1.13 0.79l3.87-0.68c0.54-0.09 0.89-0.6 0.8-1.14l-0.68-3.86c-0.1-0.54-0.61-0.9-1.14-0.8l-3.87 0.68c-0.53 0.09-0.89 0.6-0.8 1.14zm8.16-1.44l0.68 3.87c0.1 0.53 0.61 0.89 1.14 0.79l3.87-0.68c0.53-0.09 0.89-0.6 0.8-1.13l-0.69-3.87c-0.09-0.54-0.6-0.89-1.13-0.8l-3.87 0.68c-0.54 0.1-0.89 0.61-0.8 1.14zm8.16-1.44l0.68 3.87c0.09 0.53 0.6 0.89 1.14 0.8l3.87-0.69c0.53-0.09 0.89-0.6 0.79-1.13l-0.68-3.87c-0.09-0.54-0.6-0.89-1.14-0.8l-3.87 0.68c-0.53 0.1-0.89 0.61-0.79 1.14zm8.16-1.44l0.68 3.87c0.09 0.54 0.6 0.89 1.13 0.8l3.87-0.68c0.54-0.1 0.89-0.61 0.8-1.14l-0.68-3.87c-0.1-0.53-0.61-0.89-1.14-0.8l-3.87 0.69c-0.53 0.09-0.89 0.6-0.79 1.13zm8.15-1.44l0.68 3.87c0.1 0.54 0.61 0.89 1.14 0.8l3.87-0.68c0.53-0.1 0.89-0.61 0.8-1.14l-0.68-3.87c-0.1-0.53-0.61-0.89-1.14-0.8l-3.87 0.69c-0.54 0.09-0.89 0.6-0.8 1.13zm9.98 3.23l9.12-1.61c0.54-0.09 0.89-0.6 0.8-1.14l-0.68-3.86c-0.1-0.54-0.61-0.89-1.14-0.8l-9.12 1.61c-0.54 0.09-0.89 0.6-0.8 1.14l0.68 3.86c0.1 0.54 0.61 0.9 1.14 0.8zm-46.5 11.19l0.68 3.87c0.1 0.53 0.61 0.89 1.14 0.8l3.87-0.69c0.53-0.09 0.89-0.6 0.8-1.13l-0.69-3.87c-0.09-0.54-0.6-0.89-1.13-0.8l-3.87 0.68c-0.54 0.1-0.89 0.61-0.8 1.14zm8.16-1.44l0.68 3.87c0.09 0.54 0.6 0.89 1.14 0.8l3.87-0.68c0.53-0.1 0.89-0.61 0.79-1.14l-0.68-3.87c-0.09-0.53-0.6-0.89-1.14-0.8l-3.86 0.69c-0.54 0.09-0.9 0.6-0.8 1.13zm8.16-1.43l0.68 3.86c0.09 0.54 0.6 0.89 1.14 0.8l3.86-0.68c0.54-0.1 0.89-0.61 0.8-1.14l-0.68-3.87c-0.1-0.53-0.6-0.89-1.14-0.79l-3.87 0.68c-0.53 0.09-0.89 0.6-0.79 1.14zm8.15-1.44l0.69 3.87c0.09 0.53 0.6 0.89 1.13 0.79l3.87-0.68c0.54-0.09 0.89-0.6 0.8-1.14l-0.68-3.87c-0.1-0.53-0.61-0.89-1.14-0.79l-3.87 0.68c-0.53 0.09-0.89 0.6-0.8 1.14zm8.16-1.44l0.68 3.87c0.1 0.53 0.61 0.89 1.14 0.79l3.87-0.68c0.53-0.09 0.89-0.6 0.8-1.14l-0.69-3.86c-0.09-0.54-0.6-0.9-1.13-0.8l-3.87 0.68c-0.54 0.09-0.89 0.6-0.8 1.14zm9.98 3.22l14.38-2.53c0.53-0.09 0.89-0.6 0.79-1.14l-0.68-3.87c-0.09-0.53-0.6-0.89-1.14-0.79l-14.38 2.53c-0.53 0.1-0.89 0.61-0.79 1.14l0.68 3.87c0.09 0.53 0.6 0.89 1.14 0.79zm-38.34 9.76l0.68 3.87c0.09 0.53 0.6 0.89 1.14 0.79l3.86-0.68c0.54-0.09 0.9-0.6 0.8-1.14l-0.68-3.87c-0.09-0.53-0.6-0.89-1.14-0.79l-3.87 0.68c-0.53 0.09-0.89 0.6-0.79 1.14zm8.15-1.44l0.69 3.87c0.09 0.53 0.6 0.89 1.13 0.79l3.87-0.68c0.54-0.09 0.89-0.6 0.8-1.14l-0.68-3.86c-0.1-0.54-0.61-0.9-1.14-0.8l-3.87 0.68c-0.53 0.1-0.89 0.6-0.8 1.14zm8.16-1.44l0.68 3.87c0.1 0.53 0.61 0.89 1.14 0.8l3.87-0.69c0.53-0.09 0.89-0.6 0.8-1.13l-0.69-3.87c-0.09-0.54-0.6-0.89-1.13-0.8l-3.87 0.68c-0.54 0.1-0.89 0.61-0.8 1.14zm8.16-1.44l0.68 3.87c0.1 0.53 0.6 0.89 1.14 0.8l3.87-0.69c0.53-0.09 0.89-0.6 0.79-1.13l-0.68-3.87c-0.09-0.54-0.6-0.89-1.14-0.8l-3.86 0.68c-0.54 0.1-0.9 0.61-0.8 1.14zm9.98 3.23l19.63-3.46c0.54-0.1 0.89-0.61 0.8-1.14l-0.68-3.87c-0.1-0.53-0.61-0.89-1.14-0.8l-19.64 3.47c-0.53 0.09-0.89 0.6-0.79 1.13l0.68 3.87c0.09 0.54 0.6 0.89 1.14 0.8zm-47.25-20.59l0.68 3.87c0.1 0.53 0.61 0.89 1.14 0.8l3.87-0.69c0.53-0.09 0.89-0.6 0.79-1.13l-0.68-3.87c-0.09-0.54-0.6-0.89-1.13-0.8l-3.87 0.68c-0.54 0.1-0.89 0.61-0.8 1.14zm4.27 7.23l0.68 3.86c0.09 0.54 0.6 0.9 1.14 0.8l3.86-0.68c0.54-0.09 0.89-0.6 0.8-1.14l-0.68-3.87c-0.1-0.53-0.61-0.89-1.14-0.79l-3.87 0.68c-0.53 0.09-0.89 0.6-0.79 1.14zm-3.9 8.66l0.69 3.87c0.09 0.53 0.6 0.89 1.13 0.8l3.87-0.69c0.54-0.09 0.89-0.6 0.8-1.13l-0.68-3.87c-0.1-0.54-0.61-0.89-1.14-0.8l-3.87 0.68c-0.53 0.1-0.89 0.61-0.8 1.14zm4.27 7.23l0.68 3.86c0.1 0.54 0.61 0.89 1.14 0.8l3.87-0.68c0.53-0.1 0.89-0.61 0.79-1.14l-0.68-3.87c-0.09-0.53-0.6-0.89-1.14-0.79l-3.86 0.68c-0.54 0.09-0.89 0.6-0.8 1.14zm-7.54 14.29l27.46-4.84c0.53-0.1 0.89-0.61 0.79-1.14l-0.68-3.87c-0.09-0.53-0.6-0.89-1.13-0.8l-27.47 4.85c-0.53 0.09-0.89 0.6-0.79 1.13l0.68 3.87c0.09 0.54 0.6 0.89 1.14 0.8zm29.93-10.26l0.68 3.86c0.09 0.54 0.6 0.89 1.14 0.8l6.63-1.17c0.53-0.09 0.89-0.6 0.8-1.14l-0.69-3.87c-0.09-0.53-0.6-0.89-1.13-0.79l-6.64 1.17c-0.53 0.09-0.89 0.6-0.79 1.14zm10.92-1.93l0.68 3.87c0.1 0.53 0.61 0.89 1.14 0.79l6.63-1.17c0.54-0.09 0.89-0.6 0.8-1.13l-0.68-3.87c-0.1-0.54-0.61-0.89-1.14-0.8l-6.63 1.17c-0.54 0.1-0.89 0.61-0.8 1.14zm10.92-1.93l0.68 3.87c0.1 0.54 0.61 0.89 1.14 0.8l6.63-1.17c0.54-0.1 0.9-0.6 0.8-1.14l-0.68-3.87c-0.1-0.53-0.6-0.89-1.14-0.79l-6.63 1.17c-0.54 0.09-0.89 0.6-0.8 1.13zm10.92-1.92l0.69 3.87c0.09 0.53 0.6 0.89 1.13 0.79l6.64-1.17c0.53-0.09 0.89-0.6 0.79-1.13l-0.68-3.87c-0.09-0.54-0.6-0.89-1.14-0.8l-6.63 1.17c-0.53 0.09-0.89 0.6-0.8 1.14z"/>
			<path id="keys-L 00000067223028065532582460000018066609083294470024 " fill="currentColor" stroke="currentColor" stroke-linecap="round" stroke-linejoin="round" d="m4234.08 2329.34l2.52 0.45c0.53 0.09 0.89 0.6 0.8 1.13l-0.69 3.87c-0.09 0.54-0.6 0.89-1.13 0.8l-2.52-0.44c-0.53-0.1-0.89-0.61-0.8-1.14l0.69-3.87c0.09-0.53 0.6-0.89 1.13-0.8zm5.67 2l-0.68 3.87c-0.1 0.53 0.26 1.04 0.79 1.14l3.87 0.68c0.54 0.09 1.05-0.26 1.14-0.8l0.68-3.87c0.1-0.53-0.26-1.04-0.79-1.13l-3.87-0.69c-0.54-0.09-1.05 0.27-1.14 0.8zm8.16 1.44l-0.68 3.87c-0.1 0.53 0.26 1.04 0.79 1.13l3.87 0.69c0.53 0.09 1.04-0.27 1.14-0.8l0.68-3.87c0.09-0.53-0.26-1.04-0.8-1.14l-3.86-0.68c-0.54-0.09-1.05 0.26-1.14 0.8zm8.16 1.44l-0.69 3.87c-0.09 0.53 0.27 1.04 0.8 1.13l3.87 0.68c0.53 0.1 1.04-0.26 1.14-0.79l0.68-3.87c0.09-0.53-0.26-1.04-0.8-1.14l-3.87-0.68c-0.53-0.09-1.04 0.26-1.13 0.8zm8.15 1.43l-0.68 3.87c-0.09 0.54 0.26 1.05 0.8 1.14l3.87 0.68c0.53 0.1 1.04-0.26 1.13-0.79l0.68-3.87c0.1-0.54-0.26-1.05-0.79-1.14l-3.87-0.68c-0.53-0.1-1.04 0.26-1.14 0.79zm8.16 1.44l-0.68 3.87c-0.1 0.54 0.26 1.05 0.79 1.14l3.87 0.68c0.54 0.1 1.05-0.26 1.14-0.8l0.68-3.86c0.1-0.54-0.26-1.05-0.79-1.14l-3.87-0.68c-0.54-0.1-1.05 0.26-1.14 0.79zm8.16 1.44l-0.69 3.87c-0.09 0.53 0.27 1.04 0.8 1.14l3.87 0.68c0.53 0.09 1.04-0.26 1.14-0.8l0.68-3.87c0.09-0.53-0.26-1.04-0.8-1.13l-3.87-0.68c-0.53-0.1-1.04 0.26-1.13 0.79zm-45.89-18.06l-0.68 3.87c-0.09 0.53 0.26 1.04 0.8 1.14l3.87 0.68c0.53 0.09 1.04-0.27 1.13-0.8l0.68-3.87c0.1-0.53-0.26-1.04-0.79-1.14l-3.87-0.68c-0.53-0.09-1.04 0.27-1.14 0.8zm12.61 2.22l-0.68 3.87c-0.1 0.53 0.26 1.04 0.79 1.14l3.87 0.68c0.54 0.09 1.04-0.26 1.14-0.8l0.68-3.86c0.1-0.54-0.26-1.05-0.8-1.14l-3.86-0.68c-0.54-0.1-1.05 0.26-1.14 0.79zm8.16 1.44l-0.69 3.87c-0.09 0.53 0.27 1.04 0.8 1.14l3.87 0.68c0.53 0.09 1.04-0.26 1.14-0.8l0.68-3.87c0.09-0.53-0.26-1.04-0.8-1.13l-3.87-0.69c-0.53-0.09-1.04 0.27-1.13 0.8zm8.15 1.44l-0.68 3.87c-0.09 0.53 0.26 1.04 0.8 1.13l3.87 0.69c0.53 0.09 1.04-0.27 1.13-0.8l0.69-3.87c0.09-0.53-0.27-1.04-0.8-1.14l-3.87-0.68c-0.53-0.09-1.04 0.26-1.14 0.8zm8.16 1.44l-0.68 3.87c-0.1 0.53 0.26 1.04 0.79 1.13l3.87 0.69c0.54 0.09 1.05-0.27 1.14-0.8l0.68-3.87c0.1-0.53-0.26-1.04-0.79-1.14l-3.87-0.68c-0.54-0.09-1.05 0.26-1.14 0.8zm13.41 2.36l-0.68 3.87c-0.09 0.53 0.26 1.04 0.8 1.14l3.87 0.68c0.53 0.09 1.04-0.26 1.13-0.8l0.69-3.86c0.09-0.54-0.27-1.05-0.8-1.14l-3.87-0.68c-0.53-0.1-1.04 0.26-1.14 0.79zm-53.56 8.51l-0.68 3.87c-0.09 0.53 0.26 1.04 0.8 1.13l5.41 0.96c0.54 0.09 1.05-0.26 1.14-0.8l0.68-3.87c0.1-0.53-0.26-1.04-0.79-1.13l-5.42-0.96c-0.53-0.09-1.04 0.26-1.14 0.8zm9.71 1.71l-0.68 3.87c-0.1 0.53 0.26 1.04 0.79 1.13l3.87 0.69c0.53 0.09 1.04-0.27 1.14-0.8l0.68-3.87c0.09-0.53-0.26-1.04-0.8-1.14l-3.86-0.68c-0.54-0.09-1.05 0.26-1.14 0.8zm8.15 1.44l-0.68 3.87c-0.09 0.53 0.27 1.04 0.8 1.13l3.87 0.68c0.53 0.1 1.04-0.26 1.14-0.79l0.68-3.87c0.09-0.53-0.27-1.04-0.8-1.14l-3.87-0.68c-0.53-0.09-1.04 0.26-1.14 0.8zm8.16 1.44l-0.68 3.86c-0.09 0.54 0.26 1.05 0.8 1.14l3.86 0.68c0.54 0.1 1.05-0.26 1.14-0.79l0.68-3.87c0.1-0.54-0.26-1.05-0.79-1.14l-3.87-0.68c-0.53-0.1-1.04 0.26-1.14 0.8zm8.16 1.43l-0.68 3.87c-0.1 0.54 0.26 1.05 0.79 1.14l3.87 0.68c0.54 0.1 1.05-0.26 1.14-0.8l0.68-3.86c0.1-0.54-0.26-1.05-0.79-1.14l-3.87-0.68c-0.54-0.1-1.05 0.26-1.14 0.79zm8.16 1.44l-0.69 3.87c-0.09 0.53 0.27 1.04 0.8 1.14l3.87 0.68c0.53 0.09 1.04-0.26 1.14-0.8l0.68-3.87c0.09-0.53-0.26-1.04-0.8-1.13l-3.87-0.68c-0.53-0.1-1.04 0.26-1.13 0.79zm8.15 1.44l-0.68 3.87c-0.09 0.53 0.26 1.04 0.8 1.14l3.87 0.68c0.53 0.09 1.04-0.26 1.13-0.8l0.69-3.87c0.09-0.53-0.27-1.04-0.8-1.13l-3.87-0.69c-0.53-0.09-1.04 0.27-1.14 0.8zm-51.85-1.17l-0.68 3.87c-0.1 0.54 0.26 1.05 0.79 1.14l8.32 1.47c0.53 0.09 1.04-0.27 1.14-0.8l0.68-3.87c0.09-0.53-0.26-1.04-0.8-1.14l-8.31-1.46c-0.54-0.1-1.05 0.26-1.14 0.79zm12.6 2.23l-0.68 3.87c-0.09 0.53 0.26 1.04 0.8 1.13l3.87 0.68c0.53 0.1 1.04-0.26 1.13-0.79l0.69-3.87c0.09-0.53-0.27-1.04-0.8-1.14l-3.87-0.68c-0.53-0.09-1.04 0.26-1.14 0.8zm8.16 1.44l-0.68 3.86c-0.09 0.54 0.26 1.05 0.8 1.14l3.86 0.68c0.54 0.1 1.05-0.26 1.14-0.79l0.68-3.87c0.1-0.54-0.26-1.05-0.79-1.14l-3.87-0.68c-0.53-0.1-1.04 0.26-1.14 0.8zm8.16 1.43l-0.68 3.87c-0.1 0.54 0.26 1.05 0.79 1.14l3.87 0.68c0.54 0.1 1.05-0.26 1.14-0.79l0.68-3.87c0.1-0.54-0.26-1.05-0.79-1.14l-3.87-0.68c-0.54-0.1-1.05 0.26-1.14 0.79zm8.16 1.44l-0.69 3.87c-0.09 0.53 0.27 1.04 0.8 1.14l3.87 0.68c0.53 0.09 1.04-0.26 1.14-0.8l0.68-3.86c0.09-0.54-0.26-1.05-0.8-1.14l-3.87-0.68c-0.53-0.1-1.04 0.26-1.13 0.79zm8.15 1.44l-0.68 3.87c-0.09 0.53 0.26 1.04 0.8 1.14l3.87 0.68c0.53 0.09 1.04-0.26 1.13-0.8l0.69-3.87c0.09-0.53-0.27-1.04-0.8-1.13l-3.87-0.69c-0.53-0.09-1.04 0.27-1.14 0.8zm-46.6-0.24l-0.68 3.87c-0.09 0.53 0.26 1.04 0.8 1.14l11.22 1.97c0.53 0.1 1.04-0.26 1.13-0.79l0.69-3.87c0.09-0.53-0.27-1.04-0.8-1.14l-11.22-1.98c-0.53-0.09-1.04 0.27-1.14 0.8zm15.51 2.74l-0.68 3.86c-0.09 0.54 0.26 1.05 0.8 1.14l3.86 0.68c0.54 0.1 1.05-0.26 1.14-0.79l0.68-3.87c0.1-0.54-0.26-1.05-0.79-1.14l-3.87-0.68c-0.53-0.1-1.04 0.26-1.14 0.8zm8.16 1.43l-0.68 3.87c-0.1 0.54 0.26 1.05 0.79 1.14l3.87 0.68c0.54 0.1 1.05-0.26 1.14-0.79l0.68-3.87c0.1-0.54-0.26-1.05-0.8-1.14l-3.86-0.68c-0.54-0.1-1.05 0.26-1.14 0.79zm8.16 1.44l-0.69 3.87c-0.09 0.53 0.27 1.04 0.8 1.14l3.87 0.68c0.53 0.09 1.04-0.26 1.14-0.8l0.68-3.86c0.09-0.54-0.26-1.05-0.8-1.14l-3.87-0.68c-0.53-0.1-1.04 0.26-1.13 0.79zm8.15 1.44l-0.68 3.87c-0.09 0.53 0.26 1.04 0.8 1.14l3.87 0.68c0.53 0.09 1.04-0.26 1.13-0.8l0.69-3.87c0.09-0.53-0.27-1.04-0.8-1.13l-3.87-0.69c-0.53-0.09-1.04 0.27-1.14 0.8zm8.16 1.44l-0.68 3.87c-0.1 0.53 0.26 1.04 0.8 1.13l3.86 0.69c0.54 0.09 1.05-0.27 1.14-0.8l0.68-3.87c0.1-0.53-0.26-1.04-0.79-1.14l-3.87-0.68c-0.54-0.09-1.04 0.26-1.14 0.8zm13.94 14.41l0.68-3.87c0.1-0.53-0.26-1.04-0.79-1.13l-28.02-4.93c-0.53-0.1-1.04 0.26-1.13 0.79l-0.69 3.87c-0.09 0.54 0.27 1.05 0.8 1.14l28.01 4.93c0.54 0.09 1.05-0.27 1.14-0.8zm-63.44-15.16l-0.68 3.87c-0.1 0.53 0.26 1.04 0.79 1.13l7.11 1.26c0.53 0.09 1.04-0.27 1.14-0.8l0.68-3.87c0.09-0.53-0.27-1.04-0.8-1.14l-7.1-1.25c-0.54-0.09-1.05 0.26-1.14 0.8zm11.39 2.01l-0.68 3.86c-0.09 0.54 0.26 1.05 0.8 1.14l7.1 1.25c0.53 0.1 1.04-0.26 1.14-0.79l0.68-3.87c0.09-0.53-0.26-1.04-0.8-1.14l-7.1-1.25c-0.53-0.09-1.04 0.26-1.14 0.8zm11.39 2.01l-0.68 3.86c-0.09 0.54 0.26 1.05 0.8 1.14l7.1 1.25c0.54 0.1 1.05-0.26 1.14-0.79l0.68-3.87c0.1-0.54-0.26-1.04-0.79-1.14l-7.11-1.25c-0.53-0.1-1.04 0.26-1.14 0.8z"/>
			<path id="palmrest-R" fill="currentColor" stroke="currentColor" stroke-linecap="round" stroke-linejoin="round" d="m4385.17 2376.6h64.88c3.01 0 5.45-2.44 5.45-5.44v-62.53c0-3.01-2.44-5.45-5.45-5.45h-75.93q-4.76 0-9.45 0.83l-64.93 11.45c-3.13 0.55-6.33 0.55-9.46 0l-56.67-9.99c-2.96-0.52-5.78 1.45-6.3 4.41l-11.03 62.51 1.66 3.77c0.61 1.39 1.87 2.38 3.36 2.64l64.97 11.46h17.48l73.54-12.97q3.91-0.69 7.88-0.69zm-0.96-4.11q-5.54 0-10.99 0.96l-66.74 11.72q-3.52 0.62-7.09 0.62h-8.76q-3.58 0-7.09-0.62l-61.16-10.78c-0.99-0.18-1.64-1.12-1.47-2.11l10.71-60.71c0.17-0.99 1.11-1.65 2.1-1.48l53.41 9.42c5.21 0.92 10.54 0.92 15.76 0l67.43-11.89q2.35-0.42 4.73-0.42h74.1c1 0 1.81 0.82 1.81 1.82v61.65c0 1.01-0.81 1.82-1.81 1.82z"/>
			<path id="palmrests" fill="currentColor" stroke="currentColor" stroke-linecap="round" stroke-linejoin="round" d="m4286.27 2390.26l-2.65 14.99c-0.38 2.18-2.46 3.63-4.64 3.25l-53.78-9.54c-1.54-0.27-2.83-1.31-3.41-2.76l-5.29-13.04c-0.69-1.69-1.02-3.49-1-5.3q0.02-1.09 0.2-2.18l0.58-3.29m87.47 17.87l2.63 14.92c0.39 2.18 2.46 3.63 4.63 3.25l66.29-11.67c1.54-0.27 2.83-1.31 3.42-2.76l2.35-5.77 4.74-11.63"/>
			<path id="cable 00000163768396624499715610000009068806228595419776 " fill="currentColor" stroke="currentColor" stroke-miterlimit="10" d="m4255.84 2299.31c0 0 0-1.25 0-13.44 0-12.18 25.74-25.45 62.56 0 36.82 25.45 52.01-19.05 109.53-14.52m-169.09 38.57v-9.61c0-0.55-0.45-1-1-1h-4c-0.55 0-1 0.45-1 1v8.55m1-11.55h4m-4-2h4m-4-2h4"/>
		</g>
</svg>