<svg xmlns="http://www.w3.org/2000/svg" viewBox="3932.0 2253.3 267.0 149.2">
<g id="Keyboard-icon-v3">
			<g id="keyboard">
				<path id="keys 00000048484380436782164280000005861589815272515712 " fill="currentColor" stroke="currentColor" stroke-linecap="round" stroke-linejoin="round" d="m3951.44 2340.06h2.94c0.63 0 1.13 0.51 1.13 1.13v4.53c0 0.63-0.5 1.14-1.13 1.14h-2.94c-0.63 0-1.14-0.51-1.14-1.14v-4.53c0-0.62 0.51-1.13 1.14-1.13zm6.83 1.13v4.53c0 0.63 0.51 1.14 1.13 1.14h4.53c0.63 0 1.14-0.51 1.14-1.14v-4.53c0-0.62-0.51-1.13-1.14-1.13h-4.53c-0.62 0-1.13 0.51-1.13 1.13zm9.55 0v4.53c0 0.63 0.51 1.14 1.14 1.14h4.53c0.62 0 1.13-0.51 1.13-1.14v-4.53c0-0.62-0.51-1.13-1.13-1.13h-4.53c-0.63 0-1.14 0.51-1.14 1.13zm9.56 0v4.53c0 0.63 0.51 1.14 1.13 1.14h4.53c0.63 0 1.13-0.51 1.13-1.14v-4.53c0-0.62-0.5-1.13-1.13-1.13h-4.53c-0.62 0-1.13 0.51-1.13 1.13zm9.55 0v4.53c0 0.63 0.51 1.14 1.14 1.14h4.53c0.62 0 1.13-0.51 1.13-1.14v-4.53c0-0.62-0.51-1.13-1.13-1.13h-4.53c-0.63 0-1.14 0.51-1.14 1.13zm9.56 0v4.53c0 0.63 0.5 1.14 1.13 1.14h4.53c0.63 0 1.13-0.51 1.13-1.14v-4.53c0-0.62-0.5-1.13-1.13-1.13h-4.53c-0.63 0-1.13 0.51-1.13 1.13zm9.55 0v4.53c0 0.63 0.51 1.14 1.13 1.14h4.53c0.63 0 1.14-0.51 1.14-1.14v-4.53c0-0.62-0.51-1.13-1.14-1.13h-4.53c-0.62 0-1.13 0.51-1.13 1.13zm9.55 0v4.53c0 0.63 0.51 1.14 1.14 1.14h4.53c0.62 0 1.13-0.51 1.13-1.14v-4.53c0-0.62-0.51-1.13-1.13-1.13h-4.53c-0.63 0-1.14 0.51-1.14 1.13zm9.56 0v4.53c0 0.63 0.5 1.14 1.13 1.14h4.53c0.63 0 1.13-0.51 1.13-1.14v-4.53c0-0.62-0.5-1.13-1.13-1.13h-4.53c-0.63 0-1.13 0.51-1.13 1.13zm9.55 0v4.53c0 0.63 0.51 1.14 1.13 1.14h4.53c0.63 0 1.14-0.51 1.14-1.14v-4.53c0-0.62-0.51-1.13-1.14-1.13h-4.53c-0.62 0-1.13 0.51-1.13 1.13zm9.56 0v4.53c0 0.63 0.5 1.14 1.13 1.14h4.53c0.62 0 1.13-0.51 1.13-1.14v-4.53c0-0.62-0.51-1.13-1.13-1.13h-4.53c-0.63 0-1.13 0.51-1.13 1.13zm9.55 0v4.53c0 0.63 0.51 1.14 1.13 1.14h4.53c0.63 0 1.13-0.51 1.13-1.14v-4.53c0-0.62-0.5-1.13-1.13-1.13h-4.53c-0.62 0-1.13 0.51-1.13 1.13zm9.55 0v4.53c0 0.63 0.51 1.14 1.14 1.14h4.53c0.62 0 1.13-0.51 1.13-1.14v-4.53c0-0.62-0.51-1.13-1.13-1.13h-4.53c-0.63 0-1.14 0.51-1.14 1.13zm10.69 5.67h14.08c0.63 0 1.14-0.51 1.14-1.14v-4.53c0-0.62-0.51-1.13-1.14-1.13h-14.08c-0.63 0-1.13 0.51-1.13 1.13v4.53c0 0.63 0.5 1.14 1.13 1.14zm-123.75-16.99v4.53c0 0.62 0.51 1.13 1.14 1.13h9.51c0.62 0 1.13-0.51 1.13-1.13v-4.53c0-0.63-0.51-1.14-1.13-1.14h-9.51c-0.63 0-1.14 0.51-1.14 1.14zm14.77 0v4.53c0 0.62 0.5 1.13 1.13 1.13h4.53c0.63 0 1.13-0.51 1.13-1.13v-4.53c0-0.63-0.5-1.14-1.13-1.14h-4.53c-0.63 0-1.13 0.51-1.13 1.14zm9.78 0v4.53c0 0.62 0.51 1.13 1.13 1.13h4.53c0.63 0 1.14-0.51 1.14-1.13v-4.53c0-0.63-0.51-1.14-1.14-1.14h-4.53c-0.62 0-1.13 0.51-1.13 1.14zm9.78 0v4.53c0 0.62 0.51 1.13 1.14 1.13h4.53c0.62 0 1.13-0.51 1.13-1.13v-4.53c0-0.63-0.51-1.14-1.13-1.14h-4.53c-0.63 0-1.14 0.51-1.14 1.14zm9.79 0v4.53c0 0.62 0.51 1.13 1.13 1.13h4.53c0.63 0 1.13-0.51 1.13-1.13v-4.53c0-0.63-0.5-1.14-1.13-1.14h-4.53c-0.62 0-1.13 0.51-1.13 1.14zm9.78 0v4.53c0 0.62 0.51 1.13 1.13 1.13h4.53c0.63 0 1.14-0.51 1.14-1.13v-4.53c0-0.63-0.51-1.14-1.14-1.14h-4.53c-0.62 0-1.13 0.51-1.13 1.14zm9.79 0v4.53c0 0.62 0.5 1.13 1.13 1.13h4.53c0.62 0 1.13-0.51 1.13-1.13v-4.53c0-0.63-0.51-1.14-1.13-1.14h-4.53c-0.63 0-1.13 0.51-1.13 1.14zm9.78 0v4.53c0 0.62 0.51 1.13 1.13 1.13h4.53c0.63 0 1.13-0.51 1.13-1.13v-4.53c0-0.63-0.5-1.14-1.13-1.14h-4.53c-0.62 0-1.13 0.51-1.13 1.14zm9.78 0v4.53c0 0.62 0.51 1.13 1.13 1.13h4.54c0.62 0 1.13-0.51 1.13-1.13v-4.53c0-0.63-0.51-1.14-1.13-1.14h-4.54c-0.62 0-1.13 0.51-1.13 1.14zm9.79 0v4.53c0 0.62 0.5 1.13 1.13 1.13h4.53c0.62 0 1.13-0.51 1.13-1.13v-4.53c0-0.63-0.51-1.14-1.13-1.14h-4.53c-0.63 0-1.13 0.51-1.13 1.14zm9.78 0v4.53c0 0.62 0.51 1.13 1.13 1.13h4.53c0.63 0 1.14-0.51 1.14-1.13v-4.53c0-0.63-0.51-1.14-1.14-1.14h-4.53c-0.62 0-1.13 0.51-1.13 1.14zm9.78 0v4.53c0 0.62 0.51 1.13 1.14 1.13h4.53c0.62 0 1.13-0.51 1.13-1.13v-4.53c0-0.63-0.51-1.14-1.13-1.14h-4.53c-0.63 0-1.14 0.51-1.14 1.14zm9.79 0v4.53c0 0.62 0.5 1.13 1.13 1.13h4.53c0.63 0 1.13-0.51 1.13-1.13v-4.53c0-0.63-0.5-1.14-1.13-1.14h-4.53c-0.63 0-1.13 0.51-1.13 1.14zm9.78 0v4.53c0 0.62 0.51 1.13 1.13 1.13h4.53c0.63 0 1.14-0.51 1.14-1.13v-4.53c0-0.63-0.51-1.14-1.14-1.14h-4.53c-0.62 0-1.13 0.51-1.13 1.14zm-132.17 20.39v4.53c0 0.62 0.51 1.13 1.14 1.13h6.34c0.62 0 1.13-0.51 1.13-1.13v-4.53c0-0.63-0.51-1.14-1.13-1.14h-6.34c-0.63 0-1.14 0.51-1.14 1.14zm11.37 0v4.53c0 0.62 0.51 1.13 1.13 1.13h4.53c0.63 0 1.14-0.51 1.14-1.13v-4.53c0-0.63-0.51-1.14-1.14-1.14h-4.53c-0.62 0-1.13 0.51-1.13 1.14zm9.55 0v4.53c0 0.62 0.51 1.13 1.14 1.13h4.53c0.62 0 1.13-0.51 1.13-1.13v-4.53c0-0.63-0.51-1.14-1.13-1.14h-4.53c-0.63 0-1.14 0.51-1.14 1.14zm9.56 0v4.53c0 0.62 0.5 1.13 1.13 1.13h4.53c0.63 0 1.13-0.51 1.13-1.13v-4.53c0-0.63-0.5-1.14-1.13-1.14h-4.53c-0.63 0-1.13 0.51-1.13 1.14zm9.55 0v4.53c0 0.62 0.51 1.13 1.13 1.13h4.53c0.63 0 1.14-0.51 1.14-1.13v-4.53c0-0.63-0.51-1.14-1.14-1.14h-4.53c-0.62 0-1.13 0.51-1.13 1.14zm9.55 0v4.53c0 0.62 0.51 1.13 1.14 1.13h4.53c0.62 0 1.13-0.51 1.13-1.13v-4.53c0-0.63-0.51-1.14-1.13-1.14h-4.53c-0.63 0-1.14 0.51-1.14 1.14zm9.56 0v4.53c0 0.62 0.51 1.13 1.13 1.13h4.53c0.63 0 1.13-0.51 1.13-1.13v-4.53c0-0.63-0.5-1.14-1.13-1.14h-4.53c-0.62 0-1.13 0.51-1.13 1.14zm9.55 0v4.53c0 0.62 0.51 1.13 1.13 1.13h4.54c0.62 0 1.13-0.51 1.13-1.13v-4.53c0-0.63-0.51-1.14-1.13-1.14h-4.54c-0.62 0-1.13 0.51-1.13 1.14zm9.56 0v4.53c0 0.62 0.5 1.13 1.13 1.13h4.53c0.62 0 1.13-0.51 1.13-1.13v-4.53c0-0.63-0.51-1.14-1.13-1.14h-4.53c-0.63 0-1.13 0.51-1.13 1.14zm9.55 0v4.53c0 0.62 0.51 1.13 1.13 1.13h4.53c0.63 0 1.14-0.51 1.14-1.13v-4.53c0-0.63-0.51-1.14-1.14-1.14h-4.53c-0.62 0-1.13 0.51-1.13 1.14zm9.55 0v4.53c0 0.62 0.51 1.13 1.14 1.13h4.53c0.62 0 1.13-0.51 1.13-1.13v-4.53c0-0.63-0.51-1.14-1.13-1.14h-4.53c-0.63 0-1.14 0.51-1.14 1.14zm9.56 0v4.53c0 0.62 0.5 1.13 1.13 1.13h4.53c0.63 0 1.13-0.51 1.13-1.13v-4.53c0-0.63-0.5-1.14-1.13-1.14h-4.53c-0.63 0-1.13 0.51-1.13 1.14zm9.55 0v4.53c0 0.62 0.51 1.13 1.13 1.13h4.53c0.63 0 1.14-0.51 1.14-1.13v-4.53c0-0.63-0.51-1.14-1.14-1.14h-4.53c-0.62 0-1.13 0.51-1.13 1.14zm10.69 5.66h10.68c0.63 0 1.14-0.51 1.14-1.13v-4.53c0-0.63-0.51-1.14-1.14-1.14h-10.68c-0.63 0-1.14 0.51-1.14 1.14v4.53c0 0.62 0.51 1.13 1.14 1.13zm-127.15 3.4v4.53c0 0.62 0.51 1.13 1.14 1.13h9.74c0.62 0 1.13-0.51 1.13-1.13v-4.53c0-0.63-0.51-1.14-1.13-1.14h-9.74c-0.63 0-1.14 0.51-1.14 1.14zm14.77 0v4.53c0 0.62 0.5 1.13 1.13 1.13h4.53c0.63 0 1.13-0.51 1.13-1.13v-4.53c0-0.63-0.5-1.14-1.13-1.14h-4.53c-0.63 0-1.13 0.51-1.13 1.14zm9.55 0v4.53c0 0.62 0.51 1.13 1.13 1.13h4.53c0.63 0 1.14-0.51 1.14-1.13v-4.53c0-0.63-0.51-1.14-1.14-1.14h-4.53c-0.62 0-1.13 0.51-1.13 1.14zm9.55 0v4.53c0 0.62 0.51 1.13 1.14 1.13h4.53c0.62 0 1.13-0.51 1.13-1.13v-4.53c0-0.63-0.51-1.14-1.13-1.14h-4.53c-0.63 0-1.14 0.51-1.14 1.14zm9.56 0v4.53c0 0.62 0.51 1.13 1.13 1.13h4.53c0.63 0 1.13-0.51 1.13-1.13v-4.53c0-0.63-0.5-1.14-1.13-1.14h-4.53c-0.62 0-1.13 0.51-1.13 1.14zm9.55 0v4.53c0 0.62 0.51 1.13 1.13 1.13h4.54c0.62 0 1.13-0.51 1.13-1.13v-4.53c0-0.63-0.51-1.14-1.13-1.14h-4.54c-0.62 0-1.13 0.51-1.13 1.14zm9.56 0v4.53c0 0.62 0.5 1.13 1.13 1.13h4.53c0.62 0 1.13-0.51 1.13-1.13v-4.53c0-0.63-0.51-1.14-1.13-1.14h-4.53c-0.63 0-1.13 0.51-1.13 1.14zm9.55 0v4.53c0 0.62 0.51 1.13 1.13 1.13h4.53c0.63 0 1.14-0.51 1.14-1.13v-4.53c0-0.63-0.51-1.14-1.14-1.14h-4.53c-0.62 0-1.13 0.51-1.13 1.14zm9.55 0v4.53c0 0.62 0.51 1.13 1.14 1.13h4.53c0.62 0 1.13-0.51 1.13-1.13v-4.53c0-0.63-0.51-1.14-1.13-1.14h-4.53c-0.63 0-1.14 0.51-1.14 1.14zm9.56 0v4.53c0 0.62 0.5 1.13 1.13 1.13h4.53c0.63 0 1.13-0.51 1.13-1.13v-4.53c0-0.63-0.5-1.14-1.13-1.14h-4.53c-0.63 0-1.13 0.51-1.13 1.14zm9.55 0v4.53c0 0.62 0.51 1.13 1.13 1.13h4.53c0.63 0 1.14-0.51 1.14-1.13v-4.53c0-0.63-0.51-1.14-1.14-1.14h-4.53c-0.62 0-1.13 0.51-1.13 1.14zm9.55 0v4.53c0 0.62 0.51 1.13 1.14 1.13h4.53c0.62 0 1.13-0.51 1.13-1.13v-4.53c0-0.63-0.51-1.14-1.13-1.14h-4.53c-0.63 0-1.14 0.51-1.14 1.14zm10.69 5.66h16.84c0.63 0 1.14-0.51 1.14-1.13v-4.53c0-0.63-0.51-1.14-1.14-1.14h-16.84c-0.62 0-1.13 0.51-1.13 1.14v4.53c0 0.62 0.51 1.13 1.13 1.13zm-120.99 3.4v4.53c0 0.62 0.51 1.13 1.14 1.13h13.13c0.63 0 1.14-0.51 1.14-1.13v-4.53c0-0.63-0.51-1.14-1.14-1.14h-13.13c-0.63 0-1.14 0.51-1.14 1.14zm18.17 0v4.53c0 0.62 0.5 1.13 1.13 1.13h4.53c0.62 0 1.13-0.51 1.13-1.13v-4.53c0-0.63-0.51-1.14-1.13-1.14h-4.53c-0.63 0-1.13 0.51-1.13 1.14zm9.55 0v4.53c0 0.62 0.51 1.13 1.13 1.13h4.53c0.63 0 1.13-0.51 1.13-1.13v-4.53c0-0.63-0.5-1.14-1.13-1.14h-4.53c-0.62 0-1.13 0.51-1.13 1.14zm9.55 0v4.53c0 0.62 0.51 1.13 1.14 1.13h4.53c0.62 0 1.13-0.51 1.13-1.13v-4.53c0-0.63-0.51-1.14-1.13-1.14h-4.53c-0.63 0-1.14 0.51-1.14 1.14zm9.56 0v4.53c0 0.62 0.5 1.13 1.13 1.13h4.53c0.63 0 1.13-0.51 1.13-1.13v-4.53c0-0.63-0.5-1.14-1.13-1.14h-4.53c-0.63 0-1.13 0.51-1.13 1.14zm9.55 0v4.53c0 0.62 0.51 1.13 1.13 1.13h4.53c0.63 0 1.14-0.51 1.14-1.13v-4.53c0-0.63-0.51-1.14-1.14-1.14h-4.53c-0.62 0-1.13 0.51-1.13 1.14zm9.55 0v4.53c0 0.62 0.51 1.13 1.14 1.13h4.53c0.62 0 1.13-0.51 1.13-1.13v-4.53c0-0.63-0.51-1.14-1.13-1.14h-4.53c-0.63 0-1.14 0.51-1.14 1.14zm9.56 0v4.53c0 0.62 0.5 1.13 1.13 1.13h4.53c0.63 0 1.13-0.51 1.13-1.13v-4.53c0-0.63-0.5-1.14-1.13-1.14h-4.53c-0.63 0-1.13 0.51-1.13 1.14zm9.55 0v4.53c0 0.62 0.51 1.13 1.13 1.13h4.53c0.63 0 1.14-0.51 1.14-1.13v-4.53c0-0.63-0.51-1.14-1.14-1.14h-4.53c-0.62 0-1.13 0.51-1.13 1.14zm9.56 0v4.53c0 0.62 0.5 1.13 1.13 1.13h4.53c0.62 0 1.13-0.51 1.13-1.13v-4.53c0-0.63-0.51-1.14-1.13-1.14h-4.53c-0.63 0-1.13 0.51-1.13 1.14zm9.55 0v4.53c0 0.62 0.51 1.13 1.13 1.13h4.53c0.63 0 1.14-0.51 1.14-1.13v-4.53c0-0.63-0.51-1.14-1.14-1.14h-4.53c-0.62 0-1.13 0.51-1.13 1.14zm10.69 5.66h22.99c0.63 0 1.14-0.51 1.14-1.13v-4.53c0-0.63-0.51-1.14-1.14-1.14h-22.99c-0.63 0-1.14 0.51-1.14 1.14v4.53c0 0.62 0.51 1.13 1.14 1.13zm-28.17 2.27h-45.51c-0.62 0-1.13 0.5-1.13 1.13v4.53c0 0.63 0.51 1.13 1.13 1.13h45.51c0.62 0 1.13-0.5 1.13-1.13v-4.53c0-0.63-0.51-1.13-1.13-1.13zm3.89 1.13v4.53c0 0.63 0.5 1.13 1.13 1.13h7.77c0.62 0 1.13-0.5 1.13-1.13v-4.53c0-0.63-0.51-1.13-1.13-1.13h-7.77c-0.63 0-1.13 0.5-1.13 1.13zm12.79 0v4.53c0 0.63 0.51 1.13 1.13 1.13h7.77c0.63 0 1.13-0.5 1.13-1.13v-4.53c0-0.63-0.5-1.13-1.13-1.13h-7.77c-0.62 0-1.13 0.5-1.13 1.13zm12.79 0v4.53c0 0.63 0.51 1.13 1.13 1.13h7.77c0.63 0 1.13-0.5 1.13-1.13v-4.53c0-0.63-0.5-1.13-1.13-1.13h-7.77c-0.62 0-1.13 0.5-1.13 1.13zm12.79 0v4.53c0 0.63 0.51 1.13 1.13 1.13h7.77c0.63 0 1.14-0.5 1.14-1.13v-4.53c0-0.63-0.51-1.13-1.14-1.13h-7.77c-0.62 0-1.13 0.5-1.13 1.13zm-128.93 0v4.53c0 0.63 0.51 1.13 1.14 1.13h8.32c0.62 0 1.13-0.5 1.13-1.13v-4.53c0-0.63-0.51-1.13-1.13-1.13h-8.32c-0.63 0-1.14 0.5-1.14 1.13zm13.35 0v4.53c0 0.63 0.5 1.13 1.13 1.13h8.32c0.62 0 1.13-0.5 1.13-1.13v-4.53c0-0.63-0.51-1.13-1.13-1.13h-8.32c-0.63 0-1.13 0.5-1.13 1.13zm13.34 0v4.53c0 0.63 0.5 1.13 1.13 1.13h8.32c0.63 0 1.13-0.5 1.13-1.13v-4.53c0-0.63-0.5-1.13-1.13-1.13h-8.32c-0.63 0-1.13 0.5-1.13 1.13z"/>
				<path id="board 00000178206873692697741210000017679241304690047930 " fill="currentColor" stroke="currentColor" stroke-linecap="round" stroke-linejoin="round" d="m3948 2324.2h143.67c0.55 0 1 0.45 1 1v61.34c0 0.55-0.45 1-1 1h-143.67c-0.55 0-1-0.45-1-1v-61.34c0-0.55 0.45-1 1-1z"/>
			</g>
			<g id="numpad">
				<path id="keys 00000168108190880509453580000000148671043344151192 " fill="currentColor" stroke="currentColor" stroke-linecap="round" stroke-linejoin="round" d="m4110.82 2340.06h4.53c0.63 0 1.13 0.51 1.13 1.13v4.53c0 0.63-0.5 1.14-1.13 1.14h-4.53c-0.63 0-1.13-0.51-1.13-1.14v-4.53c0-0.62 0.5-1.13 1.13-1.13zm8.42 1.13v4.53c0 0.63 0.51 1.14 1.13 1.14h4.53c0.63 0 1.14-0.51 1.14-1.14v-4.53c0-0.62-0.51-1.13-1.14-1.13h-4.53c-0.62 0-1.13 0.51-1.13 1.13zm9.55 0v4.53c0 0.63 0.51 1.14 1.14 1.14h4.53c0.62 0 1.13-0.51 1.13-1.14v-4.53c0-0.62-0.51-1.13-1.13-1.13h-4.53c-0.63 0-1.14 0.51-1.14 1.13zm-19.1-11.32v4.53c0 0.62 0.5 1.13 1.13 1.13h4.53c0.63 0 1.13-0.51 1.13-1.13v-4.53c0-0.63-0.5-1.14-1.13-1.14h-4.53c-0.63 0-1.13 0.51-1.13 1.14zm9.55 0v4.53c0 0.62 0.51 1.13 1.13 1.13h4.53c0.63 0 1.14-0.51 1.14-1.13v-4.53c0-0.63-0.51-1.14-1.14-1.14h-4.53c-0.62 0-1.13 0.51-1.13 1.14zm9.55 0v4.53c0 0.62 0.51 1.13 1.14 1.13h4.53c0.62 0 1.13-0.51 1.13-1.13v-4.53c0-0.63-0.51-1.14-1.13-1.14h-4.53c-0.63 0-1.14 0.51-1.14 1.14zm47.28 2.26v2.27c0 0.62 0.51 1.13 1.13 1.13h2.27c0.62 0 1.13-0.51 1.13-1.13v-2.27c0-0.62-0.51-1.13-1.13-1.13h-2.27c-0.62 0-1.13 0.51-1.13 1.13zm-8 0v2.27c0 0.62 0.51 1.13 1.13 1.13h2.27c0.62 0 1.13-0.51 1.13-1.13v-2.27c0-0.62-0.51-1.13-1.13-1.13h-2.27c-0.62 0-1.13 0.51-1.13 1.13zm-8 0v2.27c0 0.62 0.51 1.13 1.13 1.13h2.27c0.62 0 1.13-0.51 1.13-1.13v-2.27c0-0.62-0.51-1.13-1.13-1.13h-2.27c-0.62 0-1.13 0.51-1.13 1.13zm-8 0v2.27c0 0.62 0.51 1.13 1.13 1.13h2.27c0.62 0 1.13-0.51 1.13-1.13v-2.27c0-0.62-0.51-1.13-1.13-1.13h-2.27c-0.62 0-1.13 0.51-1.13 1.13zm-42.38 18.13v4.53c0 0.62 0.5 1.13 1.13 1.13h4.53c0.63 0 1.13-0.51 1.13-1.13v-4.53c0-0.63-0.5-1.14-1.13-1.14h-4.53c-0.63 0-1.13 0.51-1.13 1.14zm9.55 0v4.53c0 0.62 0.51 1.13 1.13 1.13h4.53c0.63 0 1.14-0.51 1.14-1.13v-4.53c0-0.63-0.51-1.14-1.14-1.14h-4.53c-0.62 0-1.13 0.51-1.13 1.14zm9.55 0v4.53c0 0.62 0.51 1.13 1.14 1.13h4.53c0.62 0 1.13-0.51 1.13-1.13v-4.53c0-0.63-0.51-1.14-1.13-1.14h-4.53c-0.63 0-1.14 0.51-1.14 1.14zm-9.55 18.12v4.53c0 0.62 0.51 1.13 1.13 1.13h4.53c0.63 0 1.14-0.51 1.14-1.13v-4.53c0-0.63-0.51-1.14-1.14-1.14h-4.53c-0.62 0-1.13 0.51-1.13 1.14zm-9.55 9.06v4.53c0 0.63 0.5 1.13 1.13 1.13h4.53c0.63 0 1.13-0.5 1.13-1.13v-4.53c0-0.63-0.5-1.13-1.13-1.13h-4.53c-0.63 0-1.13 0.5-1.13 1.13zm9.55 0v4.53c0 0.63 0.51 1.13 1.13 1.13h4.53c0.63 0 1.14-0.5 1.14-1.13v-4.53c0-0.63-0.51-1.13-1.14-1.13h-4.53c-0.62 0-1.13 0.5-1.13 1.13zm9.55 0v4.53c0 0.63 0.51 1.13 1.14 1.13h4.53c0.62 0 1.13-0.5 1.13-1.13v-4.53c0-0.63-0.51-1.13-1.13-1.13h-4.53c-0.63 0-1.14 0.5-1.14 1.13zm16.35-36.25v4.53c0 0.63 0.51 1.14 1.14 1.14h4.53c0.62 0 1.13-0.51 1.13-1.14v-4.53c0-0.62-0.51-1.13-1.13-1.13h-4.53c-0.63 0-1.14 0.51-1.14 1.13zm9.56 0v4.53c0 0.63 0.51 1.14 1.13 1.14h4.53c0.63 0 1.13-0.51 1.13-1.14v-4.53c0-0.62-0.5-1.13-1.13-1.13h-4.53c-0.62 0-1.13 0.51-1.13 1.13zm9.55 0v4.53c0 0.63 0.51 1.14 1.13 1.14h4.54c0.62 0 1.13-0.51 1.13-1.14v-4.53c0-0.62-0.51-1.13-1.13-1.13h-4.54c-0.62 0-1.13 0.51-1.13 1.13zm9.56 0v4.53c0 0.63 0.5 1.14 1.13 1.14h4.53c0.62 0 1.13-0.51 1.13-1.14v-4.53c0-0.62-0.51-1.13-1.13-1.13h-4.53c-0.63 0-1.13 0.51-1.13 1.13zm-28.67 9.07v4.53c0 0.62 0.51 1.13 1.14 1.13h4.53c0.62 0 1.13-0.51 1.13-1.13v-4.53c0-0.63-0.51-1.14-1.13-1.14h-4.53c-0.63 0-1.14 0.51-1.14 1.14zm9.56 0v4.53c0 0.62 0.51 1.13 1.13 1.13h4.53c0.63 0 1.13-0.51 1.13-1.13v-4.53c0-0.63-0.5-1.14-1.13-1.14h-4.53c-0.62 0-1.13 0.51-1.13 1.14zm9.55 0v4.53c0 0.62 0.51 1.13 1.13 1.13h4.54c0.62 0 1.13-0.51 1.13-1.13v-4.53c0-0.63-0.51-1.14-1.13-1.14h-4.54c-0.62 0-1.13 0.51-1.13 1.14zm-19.11 9.06v4.53c0 0.62 0.51 1.13 1.14 1.13h4.53c0.62 0 1.13-0.51 1.13-1.13v-4.53c0-0.63-0.51-1.14-1.13-1.14h-4.53c-0.63 0-1.14 0.51-1.14 1.14zm9.56 0v4.53c0 0.62 0.51 1.13 1.13 1.13h4.53c0.63 0 1.13-0.51 1.13-1.13v-4.53c0-0.63-0.5-1.14-1.13-1.14h-4.53c-0.62 0-1.13 0.51-1.13 1.14zm9.55 0v4.53c0 0.62 0.51 1.13 1.13 1.13h4.54c0.62 0 1.13-0.51 1.13-1.13v-4.53c0-0.63-0.51-1.14-1.13-1.14h-4.54c-0.62 0-1.13 0.51-1.13 1.14zm9.56-9.06v13.59c0 0.62 0.5 1.13 1.13 1.13h4.53c0.62 0 1.13-0.51 1.13-1.13v-13.59c0-0.63-0.51-1.14-1.13-1.14h-4.53c-0.63 0-1.13 0.51-1.13 1.14zm-28.67 18.12v4.53c0 0.62 0.51 1.13 1.14 1.13h4.53c0.62 0 1.13-0.51 1.13-1.13v-4.53c0-0.63-0.51-1.14-1.13-1.14h-4.53c-0.63 0-1.14 0.51-1.14 1.14zm9.56 0v4.53c0 0.62 0.51 1.13 1.13 1.13h4.53c0.63 0 1.13-0.51 1.13-1.13v-4.53c0-0.63-0.5-1.14-1.13-1.14h-4.53c-0.62 0-1.13 0.51-1.13 1.14zm9.55 0v4.53c0 0.62 0.51 1.13 1.13 1.13h4.54c0.62 0 1.13-0.51 1.13-1.13v-4.53c0-0.63-0.51-1.14-1.13-1.14h-4.54c-0.62 0-1.13 0.51-1.13 1.14zm-19.11 9.06v4.53c0 0.63 0.51 1.13 1.14 1.13h14.08c0.63 0 1.13-0.5 1.13-1.13v-4.53c0-0.63-0.5-1.13-1.13-1.13h-14.08c-0.63 0-1.14 0.5-1.14 1.13zm19.11 0v4.53c0 0.63 0.51 1.13 1.13 1.13h4.54c0.62 0 1.13-0.5 1.13-1.13v-4.53c0-0.63-0.51-1.13-1.13-1.13h-4.54c-0.62 0-1.13 0.5-1.13 1.13zm9.56-9.06v13.59c0 0.63 0.5 1.13 1.13 1.13h4.53c0.62 0 1.13-0.5 1.13-1.13v-13.59c0-0.63-0.51-1.14-1.13-1.14h-4.53c-0.63 0-1.13 0.51-1.13 1.14z"/>
				<path id="board 00000142167555039732602060000010244770057270367644 " fill="currentColor" stroke="currentColor" stroke-linecap="round" stroke-linejoin="round" d="m4107.49 2324.2h75.51c0.55 0 1 0.45 1 1v61.34c0 0.55-0.45 1-1 1h-75.51c-0.55 0-1-0.45-1-1v-61.34c0-0.55 0.45-1 1-1z"/>
			</g>
			<path id="bluetooth 00000064314971419503072080000014327733237480324751 " fill="currentColor" stroke="currentColor" stroke-linecap="round" stroke-linejoin="round" d="m4055.5 2278.31l20 20-10 10v-40l10 10-20 20"/>
		</g>
</svg>