<svg xmlns="http://www.w3.org/2000/svg" viewBox="0 0 255.00 151.73">
<g transform="translate(-3668.00,-2250.81)" stroke-width="15.00">
<g id="Keyboard-icon-v2">
			<path id="keys 00000079482842889061127420000017530381674353844656 " fill="currentColor" stroke="currentColor" stroke-linecap="round" stroke-linejoin="round" d="m3687.44 2340.06h2.94c0.63 0 1.13 0.51 1.13 1.13v4.53c0 0.63-0.5 1.14-1.13 1.14h-2.94c-0.63 0-1.14-0.51-1.14-1.14v-4.53c0-0.62 0.51-1.13 1.14-1.13zm6.83 1.13v4.53c0 0.63 0.51 1.14 1.13 1.14h4.53c0.63 0 1.14-0.51 1.14-1.14v-4.53c0-0.62-0.51-1.13-1.14-1.13h-4.53c-0.62 0-1.13 0.51-1.13 1.13zm9.55 0v4.53c0 0.63 0.51 1.14 1.14 1.14h4.53c0.62 0 1.13-0.51 1.13-1.14v-4.53c0-0.62-0.51-1.13-1.13-1.13h-4.53c-0.63 0-1.14 0.51-1.14 1.13zm9.56 0v4.53c0 0.63 0.51 1.14 1.13 1.14h4.53c0.63 0 1.13-0.51 1.13-1.14v-4.53c0-0.62-0.5-1.13-1.13-1.13h-4.53c-0.62 0-1.13 0.51-1.13 1.13zm9.55 0v4.53c0 0.63 0.51 1.14 1.14 1.14h4.53c0.62 0 1.13-0.51 1.13-1.14v-4.53c0-0.62-0.51-1.13-1.13-1.13h-4.53c-0.63 0-1.14 0.51-1.14 1.13zm9.56 0v4.53c0 0.63 0.5 1.14 1.13 1.14h4.53c0.63 0 1.13-0.51 1.13-1.14v-4.53c0-0.62-0.5-1.13-1.13-1.13h-4.53c-0.63 0-1.13 0.51-1.13 1.13zm9.55 0v4.53c0 0.63 0.51 1.14 1.13 1.14h4.53c0.63 0 1.14-0.51 1.14-1.14v-4.53c0-0.62-0.51-1.13-1.14-1.13h-4.53c-0.62 0-1.13 0.51-1.13 1.13zm9.55 0v4.53c0 0.63 0.51 1.14 1.14 1.14h4.53c0.62 0 1.13-0.51 1.13-1.14v-4.53c0-0.62-0.51-1.13-1.13-1.13h-4.53c-0.63 0-1.14 0.51-1.14 1.13zm9.56 0v4.53c0 0.63 0.5 1.14 1.13 1.14h4.53c0.63 0 1.13-0.51 1.13-1.14v-4.53c0-0.62-0.5-1.13-1.13-1.13h-4.53c-0.63 0-1.13 0.51-1.13 1.13zm9.55 0v4.53c0 0.63 0.51 1.14 1.13 1.14h4.53c0.63 0 1.14-0.51 1.14-1.14v-4.53c0-0.62-0.51-1.13-1.14-1.13h-4.53c-0.62 0-1.13 0.51-1.13 1.13zm9.56 0v4.53c0 0.63 0.5 1.14 1.13 1.14h4.53c0.62 0 1.13-0.51 1.13-1.14v-4.53c0-0.62-0.51-1.13-1.13-1.13h-4.53c-0.63 0-1.13 0.51-1.13 1.13zm9.55 0v4.53c0 0.63 0.51 1.14 1.13 1.14h4.53c0.63 0 1.13-0.51 1.13-1.14v-4.53c0-0.62-0.5-1.13-1.13-1.13h-4.53c-0.62 0-1.13 0.51-1.13 1.13zm9.55 0v4.53c0 0.63 0.51 1.14 1.14 1.14h4.53c0.62 0 1.13-0.51 1.13-1.14v-4.53c0-0.62-0.51-1.13-1.13-1.13h-4.53c-0.63 0-1.14 0.51-1.14 1.13zm10.69 5.67h14.08c0.63 0 1.14-0.51 1.14-1.14v-4.53c0-0.62-0.51-1.13-1.14-1.13h-14.08c-0.63 0-1.13 0.51-1.13 1.13v4.53c0 0.63 0.5 1.14 1.13 1.14zm-123.75-16.99v4.53c0 0.62 0.51 1.13 1.14 1.13h4.53c0.62 0 1.13-0.51 1.13-1.13v-4.53c0-0.63-0.51-1.14-1.13-1.14h-4.53c-0.63 0-1.14 0.51-1.14 1.14zm14.77 0v4.53c0 0.62 0.5 1.13 1.13 1.13h4.53c0.63 0 1.13-0.51 1.13-1.13v-4.53c0-0.63-0.5-1.14-1.13-1.14h-4.53c-0.63 0-1.13 0.51-1.13 1.14zm9.55 0v4.53c0 0.62 0.51 1.13 1.13 1.13h4.53c0.63 0 1.14-0.51 1.14-1.13v-4.53c0-0.63-0.51-1.14-1.14-1.14h-4.53c-0.62 0-1.13 0.51-1.13 1.14zm9.55 0v4.53c0 0.62 0.51 1.13 1.14 1.13h4.53c0.62 0 1.13-0.51 1.13-1.13v-4.53c0-0.63-0.51-1.14-1.13-1.14h-4.53c-0.63 0-1.14 0.51-1.14 1.14zm9.56 0v4.53c0 0.62 0.51 1.13 1.13 1.13h4.53c0.63 0 1.13-0.51 1.13-1.13v-4.53c0-0.63-0.5-1.14-1.13-1.14h-4.53c-0.62 0-1.13 0.51-1.13 1.14zm15.71 0v4.53c0 0.62 0.51 1.13 1.13 1.13h4.53c0.63 0 1.13-0.51 1.13-1.13v-4.53c0-0.63-0.5-1.14-1.13-1.14h-4.53c-0.62 0-1.13 0.51-1.13 1.14zm9.55 0v4.53c0 0.62 0.51 1.13 1.13 1.13h4.54c0.62 0 1.13-0.51 1.13-1.13v-4.53c0-0.63-0.51-1.14-1.13-1.14h-4.54c-0.62 0-1.13 0.51-1.13 1.14zm9.56 0v4.53c0 0.62 0.5 1.13 1.13 1.13h4.53c0.62 0 1.13-0.51 1.13-1.13v-4.53c0-0.63-0.51-1.14-1.13-1.14h-4.53c-0.63 0-1.13 0.51-1.13 1.14zm9.55 0v4.53c0 0.62 0.51 1.13 1.13 1.13h4.53c0.63 0 1.14-0.51 1.14-1.13v-4.53c0-0.63-0.51-1.14-1.14-1.14h-4.53c-0.62 0-1.13 0.51-1.13 1.14zm15.71 0v4.53c0 0.62 0.51 1.13 1.13 1.13h4.53c0.63 0 1.13-0.51 1.13-1.13v-4.53c0-0.63-0.5-1.14-1.13-1.14h-4.53c-0.62 0-1.13 0.51-1.13 1.14zm9.55 0v4.53c0 0.62 0.51 1.13 1.14 1.13h4.53c0.62 0 1.13-0.51 1.13-1.13v-4.53c0-0.63-0.51-1.14-1.13-1.14h-4.53c-0.63 0-1.14 0.51-1.14 1.14zm9.56 0v4.53c0 0.62 0.5 1.13 1.13 1.13h4.53c0.63 0 1.13-0.51 1.13-1.13v-4.53c0-0.63-0.5-1.14-1.13-1.14h-4.53c-0.63 0-1.13 0.51-1.13 1.14zm9.55 0v4.53c0 0.62 0.51 1.13 1.13 1.13h4.53c0.63 0 1.14-0.51 1.14-1.13v-4.53c0-0.63-0.51-1.14-1.14-1.14h-4.53c-0.62 0-1.13 0.51-1.13 1.14zm-132.17 20.39v4.53c0 0.62 0.51 1.13 1.14 1.13h6.34c0.62 0 1.13-0.51 1.13-1.13v-4.53c0-0.63-0.51-1.14-1.13-1.14h-6.34c-0.63 0-1.14 0.51-1.14 1.14zm11.37 0v4.53c0 0.62 0.51 1.13 1.13 1.13h4.53c0.63 0 1.14-0.51 1.14-1.13v-4.53c0-0.63-0.51-1.14-1.14-1.14h-4.53c-0.62 0-1.13 0.51-1.13 1.14zm9.55 0v4.53c0 0.62 0.51 1.13 1.14 1.13h4.53c0.62 0 1.13-0.51 1.13-1.13v-4.53c0-0.63-0.51-1.14-1.13-1.14h-4.53c-0.63 0-1.14 0.51-1.14 1.14zm9.56 0v4.53c0 0.62 0.5 1.13 1.13 1.13h4.53c0.63 0 1.13-0.51 1.13-1.13v-4.53c0-0.63-0.5-1.14-1.13-1.14h-4.53c-0.63 0-1.13 0.51-1.13 1.14zm9.55 0v4.53c0 0.62 0.51 1.13 1.13 1.13h4.53c0.63 0 1.14-0.51 1.14-1.13v-4.53c0-0.63-0.51-1.14-1.14-1.14h-4.53c-0.62 0-1.13 0.51-1.13 1.14zm9.55 0v4.53c0 0.62 0.51 1.13 1.14 1.13h4.53c0.62 0 1.13-0.51 1.13-1.13v-4.53c0-0.63-0.51-1.14-1.13-1.14h-4.53c-0.63 0-1.14 0.51-1.14 1.14zm9.56 0v4.53c0 0.62 0.51 1.13 1.13 1.13h4.53c0.63 0 1.13-0.51 1.13-1.13v-4.53c0-0.63-0.5-1.14-1.13-1.14h-4.53c-0.62 0-1.13 0.51-1.13 1.14zm9.55 0v4.53c0 0.62 0.51 1.13 1.13 1.13h4.54c0.62 0 1.13-0.51 1.13-1.13v-4.53c0-0.63-0.51-1.14-1.13-1.14h-4.54c-0.62 0-1.13 0.51-1.13 1.14zm9.56 0v4.53c0 0.62 0.5 1.13 1.13 1.13h4.53c0.62 0 1.13-0.51 1.13-1.13v-4.53c0-0.63-0.51-1.14-1.13-1.14h-4.53c-0.63 0-1.13 0.51-1.13 1.14zm9.55 0v4.53c0 0.62 0.51 1.13 1.13 1.13h4.53c0.63 0 1.14-0.51 1.14-1.13v-4.53c0-0.63-0.51-1.14-1.14-1.14h-4.53c-0.62 0-1.13 0.51-1.13 1.14zm9.55 0v4.53c0 0.62 0.51 1.13 1.14 1.13h4.53c0.62 0 1.13-0.51 1.13-1.13v-4.53c0-0.63-0.51-1.14-1.13-1.14h-4.53c-0.63 0-1.14 0.51-1.14 1.14zm9.56 0v4.53c0 0.62 0.5 1.13 1.13 1.13h4.53c0.63 0 1.13-0.51 1.13-1.13v-4.53c0-0.63-0.5-1.14-1.13-1.14h-4.53c-0.63 0-1.13 0.51-1.13 1.14zm9.55 0v4.53c0 0.62 0.51 1.13 1.13 1.13h4.53c0.63 0 1.14-0.51 1.14-1.13v-4.53c0-0.63-0.51-1.14-1.14-1.14h-4.53c-0.62 0-1.13 0.51-1.13 1.14zm10.69 5.66h10.68c0.63 0 1.14-0.51 1.14-1.13v-4.53c0-0.63-0.51-1.14-1.14-1.14h-10.68c-0.63 0-1.14 0.51-1.14 1.14v4.53c0 0.62 0.51 1.13 1.14 1.13zm-127.15 3.4v4.53c0 0.62 0.51 1.13 1.14 1.13h9.74c0.62 0 1.13-0.51 1.13-1.13v-4.53c0-0.63-0.51-1.14-1.13-1.14h-9.74c-0.63 0-1.14 0.51-1.14 1.14zm14.77 0v4.53c0 0.62 0.5 1.13 1.13 1.13h4.53c0.63 0 1.13-0.51 1.13-1.13v-4.53c0-0.63-0.5-1.14-1.13-1.14h-4.53c-0.63 0-1.13 0.51-1.13 1.14zm9.55 0v4.53c0 0.62 0.51 1.13 1.13 1.13h4.53c0.63 0 1.14-0.51 1.14-1.13v-4.53c0-0.63-0.51-1.14-1.14-1.14h-4.53c-0.62 0-1.13 0.51-1.13 1.14zm9.55 0v4.53c0 0.62 0.51 1.13 1.14 1.13h4.53c0.62 0 1.13-0.51 1.13-1.13v-4.53c0-0.63-0.51-1.14-1.13-1.14h-4.53c-0.63 0-1.14 0.51-1.14 1.14zm9.56 0v4.53c0 0.62 0.51 1.13 1.13 1.13h4.53c0.63 0 1.13-0.51 1.13-1.13v-4.53c0-0.63-0.5-1.14-1.13-1.14h-4.53c-0.62 0-1.13 0.51-1.13 1.14zm9.55 0v4.53c0 0.62 0.51 1.13 1.13 1.13h4.54c0.62 0 1.13-0.51 1.13-1.13v-4.53c0-0.63-0.51-1.14-1.13-1.14h-4.54c-0.62 0-1.13 0.51-1.13 1.14zm9.56 0v4.53c0 0.62 0.5 1.13 1.13 1.13h4.53c0.62 0 1.13-0.51 1.13-1.13v-4.53c0-0.63-0.51-1.14-1.13-1.14h-4.53c-0.63 0-1.13 0.51-1.13 1.14zm9.55 0v4.53c0 0.62 0.51 1.13 1.13 1.13h4.53c0.63 0 1.14-0.51 1.14-1.13v-4.53c0-0.63-0.51-1.14-1.14-1.14h-4.53c-0.62 0-1.13 0.51-1.13 1.14zm9.55 0v4.53c0 0.62 0.51 1.13 1.14 1.13h4.53c0.62 0 1.13-0.51 1.13-1.13v-4.53c0-0.63-0.51-1.14-1.13-1.14h-4.53c-0.63 0-1.14 0.51-1.14 1.14zm9.56 0v4.53c0 0.62 0.5 1.13 1.13 1.13h4.53c0.63 0 1.13-0.51 1.13-1.13v-4.53c0-0.63-0.5-1.14-1.13-1.14h-4.53c-0.63 0-1.13 0.51-1.13 1.14zm9.55 0v4.53c0 0.62 0.51 1.13 1.13 1.13h4.53c0.63 0 1.14-0.51 1.14-1.13v-4.53c0-0.63-0.51-1.14-1.14-1.14h-4.53c-0.62 0-1.13 0.51-1.13 1.14zm9.55 0v4.53c0 0.62 0.51 1.13 1.14 1.13h4.53c0.62 0 1.13-0.51 1.13-1.13v-4.53c0-0.63-0.51-1.14-1.13-1.14h-4.53c-0.63 0-1.14 0.51-1.14 1.14zm10.69 5.66h16.84c0.63 0 1.14-0.51 1.14-1.13v-4.53c0-0.63-0.51-1.14-1.14-1.14h-16.84c-0.62 0-1.13 0.51-1.13 1.14v4.53c0 0.62 0.51 1.13 1.13 1.13zm-120.99 3.4v4.53c0 0.62 0.51 1.13 1.14 1.13h13.13c0.63 0 1.14-0.51 1.14-1.13v-4.53c0-0.63-0.51-1.14-1.14-1.14h-13.13c-0.63 0-1.14 0.51-1.14 1.14zm18.17 0v4.53c0 0.62 0.5 1.13 1.13 1.13h4.53c0.62 0 1.13-0.51 1.13-1.13v-4.53c0-0.63-0.51-1.14-1.13-1.14h-4.53c-0.63 0-1.13 0.51-1.13 1.14zm9.55 0v4.53c0 0.62 0.51 1.13 1.13 1.13h4.53c0.63 0 1.13-0.51 1.13-1.13v-4.53c0-0.63-0.5-1.14-1.13-1.14h-4.53c-0.62 0-1.13 0.51-1.13 1.14zm9.55 0v4.53c0 0.62 0.51 1.13 1.14 1.13h4.53c0.62 0 1.13-0.51 1.13-1.13v-4.53c0-0.63-0.51-1.14-1.13-1.14h-4.53c-0.63 0-1.14 0.51-1.14 1.14zm9.56 0v4.53c0 0.62 0.5 1.13 1.13 1.13h4.53c0.63 0 1.13-0.51 1.13-1.13v-4.53c0-0.63-0.5-1.14-1.13-1.14h-4.53c-0.63 0-1.13 0.51-1.13 1.14zm9.55 0v4.53c0 0.62 0.51 1.13 1.13 1.13h4.53c0.63 0 1.14-0.51 1.14-1.13v-4.53c0-0.63-0.51-1.14-1.14-1.14h-4.53c-0.62 0-1.13 0.51-1.13 1.14zm9.55 0v4.53c0 0.62 0.51 1.13 1.14 1.13h4.53c0.62 0 1.13-0.51 1.13-1.13v-4.53c0-0.63-0.51-1.14-1.13-1.14h-4.53c-0.63 0-1.14 0.51-1.14 1.14zm9.56 0v4.53c0 0.62 0.5 1.13 1.13 1.13h4.53c0.63 0 1.13-0.51 1.13-1.13v-4.53c0-0.63-0.5-1.14-1.13-1.14h-4.53c-0.63 0-1.13 0.51-1.13 1.14zm9.55 0v4.53c0 0.62 0.51 1.13 1.13 1.13h4.53c0.63 0 1.14-0.51 1.14-1.13v-4.53c0-0.63-0.51-1.14-1.14-1.14h-4.53c-0.62 0-1.13 0.51-1.13 1.14zm9.56 0v4.53c0 0.62 0.5 1.13 1.13 1.13h4.53c0.62 0 1.13-0.51 1.13-1.13v-4.53c0-0.63-0.51-1.14-1.13-1.14h-4.53c-0.63 0-1.13 0.51-1.13 1.14zm9.55 0v4.53c0 0.62 0.51 1.13 1.13 1.13h4.53c0.63 0 1.14-0.51 1.14-1.13v-4.53c0-0.63-0.51-1.14-1.14-1.14h-4.53c-0.62 0-1.13 0.51-1.13 1.14zm10.69 5.66h22.99c0.63 0 1.14-0.51 1.14-1.13v-4.53c0-0.63-0.51-1.14-1.14-1.14h-22.99c-0.63 0-1.14 0.51-1.14 1.14v4.53c0 0.62 0.51 1.13 1.14 1.13zm-28.17 2.27h-45.51c-0.62 0-1.13 0.5-1.13 1.13v4.53c0 0.63 0.51 1.13 1.13 1.13h45.51c0.62 0 1.13-0.5 1.13-1.13v-4.53c0-0.63-0.51-1.13-1.13-1.13zm60.72-35.12v4.53c0 0.63 0.5 1.14 1.13 1.14h4.53c0.63 0 1.13-0.51 1.13-1.14v-4.53c0-0.62-0.5-1.13-1.13-1.13h-4.53c-0.63 0-1.13 0.51-1.13 1.13zm9.55 0v4.53c0 0.63 0.51 1.14 1.13 1.14h4.53c0.63 0 1.14-0.51 1.14-1.14v-4.53c0-0.62-0.51-1.13-1.14-1.13h-4.53c-0.62 0-1.13 0.51-1.13 1.13zm9.55 0v4.53c0 0.63 0.51 1.14 1.14 1.14h4.53c0.62 0 1.13-0.51 1.13-1.14v-4.53c0-0.62-0.51-1.13-1.13-1.13h-4.53c-0.63 0-1.14 0.51-1.14 1.13zm-19.1-11.32v4.53c0 0.62 0.5 1.13 1.13 1.13h4.53c0.63 0 1.13-0.51 1.13-1.13v-4.53c0-0.63-0.5-1.14-1.13-1.14h-4.53c-0.63 0-1.13 0.51-1.13 1.14zm9.55 0v4.53c0 0.62 0.51 1.13 1.13 1.13h4.53c0.63 0 1.14-0.51 1.14-1.13v-4.53c0-0.63-0.51-1.14-1.14-1.14h-4.53c-0.62 0-1.13 0.51-1.13 1.14zm9.55 0v4.53c0 0.62 0.51 1.13 1.14 1.13h4.53c0.62 0 1.13-0.51 1.13-1.13v-4.53c0-0.63-0.51-1.14-1.13-1.14h-4.53c-0.63 0-1.14 0.51-1.14 1.14zm47.28 2.26v2.27c0 0.62 0.51 1.13 1.13 1.13h2.27c0.62 0 1.13-0.51 1.13-1.13v-2.27c0-0.62-0.51-1.13-1.13-1.13h-2.27c-0.62 0-1.13 0.51-1.13 1.13zm-30.93 3.4h2.27v-2.26h-2.27zm0-4.54h2.27v-2.26h-2.27zm-35.45 19.25v4.54c0 0.62 0.5 1.13 1.13 1.13h4.53c0.63 0 1.13-0.51 1.13-1.13v-4.54c0-0.62-0.5-1.13-1.13-1.13h-4.53c-0.63 0-1.13 0.51-1.13 1.13zm9.55 0v4.54c0 0.62 0.51 1.13 1.13 1.13h4.53c0.63 0 1.14-0.51 1.14-1.13v-4.54c0-0.62-0.51-1.13-1.14-1.13h-4.53c-0.62 0-1.13 0.51-1.13 1.13zm9.55 0v4.54c0 0.62 0.51 1.13 1.14 1.13h4.53c0.62 0 1.13-0.51 1.13-1.13v-4.54c0-0.62-0.51-1.13-1.13-1.13h-4.53c-0.63 0-1.14 0.51-1.14 1.13zm-9.55 18.13v4.53c0 0.62 0.51 1.13 1.13 1.13h4.53c0.63 0 1.14-0.51 1.14-1.13v-4.53c0-0.63-0.51-1.14-1.14-1.14h-4.53c-0.62 0-1.13 0.51-1.13 1.14zm-9.55 9.06v4.53c0 0.62 0.5 1.13 1.13 1.13h4.53c0.63 0 1.13-0.51 1.13-1.13v-4.53c0-0.63-0.5-1.13-1.13-1.13h-4.53c-0.63 0-1.13 0.5-1.13 1.13zm9.55 0v4.53c0 0.62 0.51 1.13 1.13 1.13h4.53c0.63 0 1.14-0.51 1.14-1.13v-4.53c0-0.63-0.51-1.13-1.14-1.13h-4.53c-0.62 0-1.13 0.5-1.13 1.13zm9.55 0v4.53c0 0.62 0.51 1.13 1.14 1.13h4.53c0.62 0 1.13-0.51 1.13-1.13v-4.53c0-0.63-0.51-1.13-1.13-1.13h-4.53c-0.63 0-1.14 0.5-1.14 1.13zm16.35-36.25v4.53c0 0.63 0.51 1.14 1.14 1.14h4.53c0.62 0 1.13-0.51 1.13-1.14v-4.53c0-0.62-0.51-1.13-1.13-1.13h-4.53c-0.63 0-1.14 0.51-1.14 1.13zm9.56 0v4.53c0 0.63 0.51 1.14 1.13 1.14h4.53c0.63 0 1.13-0.51 1.13-1.14v-4.53c0-0.62-0.5-1.13-1.13-1.13h-4.53c-0.62 0-1.13 0.51-1.13 1.13zm9.55 0v4.53c0 0.63 0.51 1.14 1.13 1.14h4.54c0.62 0 1.13-0.51 1.13-1.14v-4.53c0-0.62-0.51-1.13-1.13-1.13h-4.54c-0.62 0-1.13 0.51-1.13 1.13zm9.56 0v4.53c0 0.63 0.5 1.14 1.13 1.14h4.53c0.62 0 1.13-0.51 1.13-1.14v-4.53c0-0.62-0.51-1.13-1.13-1.13h-4.53c-0.63 0-1.13 0.51-1.13 1.13zm-28.67 9.06v4.54c0 0.62 0.51 1.13 1.14 1.13h4.53c0.62 0 1.13-0.51 1.13-1.13v-4.54c0-0.62-0.51-1.13-1.13-1.13h-4.53c-0.63 0-1.14 0.51-1.14 1.13zm9.56 0v4.54c0 0.62 0.51 1.13 1.13 1.13h4.53c0.63 0 1.13-0.51 1.13-1.13v-4.54c0-0.62-0.5-1.13-1.13-1.13h-4.53c-0.62 0-1.13 0.51-1.13 1.13zm9.55 0v4.54c0 0.62 0.51 1.13 1.13 1.13h4.54c0.62 0 1.13-0.51 1.13-1.13v-4.54c0-0.62-0.51-1.13-1.13-1.13h-4.54c-0.62 0-1.13 0.51-1.13 1.13zm-19.11 9.07v4.53c0 0.62 0.51 1.13 1.14 1.13h4.53c0.62 0 1.13-0.51 1.13-1.13v-4.53c0-0.63-0.51-1.14-1.13-1.14h-4.53c-0.63 0-1.14 0.51-1.14 1.14zm9.56 0v4.53c0 0.62 0.51 1.13 1.13 1.13h4.53c0.63 0 1.13-0.51 1.13-1.13v-4.53c0-0.63-0.5-1.14-1.13-1.14h-4.53c-0.62 0-1.13 0.51-1.13 1.14zm9.55 0v4.53c0 0.62 0.51 1.13 1.13 1.13h4.54c0.62 0 1.13-0.51 1.13-1.13v-4.53c0-0.63-0.51-1.14-1.13-1.14h-4.54c-0.62 0-1.13 0.51-1.13 1.14zm9.56-9.07v13.6c0 0.62 0.5 1.13 1.13 1.13h4.53c0.62 0 1.13-0.51 1.13-1.13v-13.6c0-0.62-0.51-1.13-1.13-1.13h-4.53c-0.63 0-1.13 0.51-1.13 1.13zm-28.67 18.13v4.53c0 0.62 0.51 1.13 1.14 1.13h4.53c0.62 0 1.13-0.51 1.13-1.13v-4.53c0-0.63-0.51-1.14-1.13-1.14h-4.53c-0.63 0-1.14 0.51-1.14 1.14zm9.56 0v4.53c0 0.62 0.51 1.13 1.13 1.13h4.53c0.63 0 1.13-0.51 1.13-1.13v-4.53c0-0.63-0.5-1.14-1.13-1.14h-4.53c-0.62 0-1.13 0.51-1.13 1.14zm9.55 0v4.53c0 0.62 0.51 1.13 1.13 1.13h4.54c0.62 0 1.13-0.51 1.13-1.13v-4.53c0-0.63-0.51-1.14-1.13-1.14h-4.54c-0.62 0-1.13 0.51-1.13 1.14zm-19.11 9.06v4.53c0 0.62 0.51 1.13 1.14 1.13h14.08c0.63 0 1.13-0.51 1.13-1.13v-4.53c0-0.63-0.5-1.13-1.13-1.13h-14.08c-0.63 0-1.14 0.5-1.14 1.13zm19.11 0v4.53c0 0.62 0.51 1.13 1.13 1.13h4.54c0.62 0 1.13-0.51 1.13-1.13v-4.53c0-0.63-0.51-1.13-1.13-1.13h-4.54c-0.62 0-1.13 0.5-1.13 1.13zm9.56-9.06v13.59c0 0.62 0.5 1.13 1.13 1.13h4.53c0.62 0 1.13-0.51 1.13-1.13v-13.59c0-0.63-0.51-1.14-1.13-1.14h-4.53c-0.63 0-1.13 0.51-1.13 1.14zm-120.95 9.06v4.53c0 0.62 0.5 1.13 1.13 1.13h7.77c0.62 0 1.13-0.51 1.13-1.13v-4.53c0-0.63-0.51-1.13-1.13-1.13h-7.77c-0.63 0-1.13 0.5-1.13 1.13zm12.79 0v4.53c0 0.62 0.51 1.13 1.13 1.13h7.77c0.63 0 1.13-0.51 1.13-1.13v-4.53c0-0.63-0.5-1.13-1.13-1.13h-7.77c-0.62 0-1.13 0.5-1.13 1.13zm12.79 0v4.53c0 0.62 0.51 1.13 1.13 1.13h7.77c0.63 0 1.13-0.51 1.13-1.13v-4.53c0-0.63-0.5-1.13-1.13-1.13h-7.77c-0.62 0-1.13 0.5-1.13 1.13zm12.79 0v4.53c0 0.62 0.51 1.13 1.13 1.13h7.77c0.63 0 1.14-0.51 1.14-1.13v-4.53c0-0.63-0.51-1.13-1.14-1.13h-7.77c-0.62 0-1.13 0.5-1.13 1.13zm-128.93 0v4.53c0 0.62 0.51 1.13 1.14 1.13h8.32c0.62 0 1.13-0.51 1.13-1.13v-4.53c0-0.63-0.51-1.13-1.13-1.13h-8.32c-0.63 0-1.14 0.5-1.14 1.13zm13.35 0v4.53c0 0.62 0.5 1.13 1.13 1.13h8.32c0.62 0 1.13-0.51 1.13-1.13v-4.53c0-0.63-0.51-1.13-1.13-1.13h-8.32c-0.63 0-1.13 0.5-1.13 1.13zm13.34 0v4.53c0 0.62 0.5 1.13 1.13 1.13h8.32c0.63 0 1.13-0.51 1.13-1.13v-4.53c0-0.63-0.5-1.13-1.13-1.13h-8.32c-0.63 0-1.13 0.5-1.13 1.13zm160.69-41.91h2.26v-2.27h-2.26zm0-4.53h2.26v-2.26h-2.26zm4.53 4.53h2.26v-2.27h-2.26zm0-4.53h2.26v-2.26h-2.26z"/>
			<path id="profile 00000163074304028666749970000002248212882119904689 " fill="currentColor" stroke="currentColor" stroke-linecap="round" stroke-linejoin="round" d="m3685.27 2387.54h220.46c1.26 0 2.27-1.02 2.27-2.27v-58.8c0-1.25-1.01-2.27-2.27-2.27h-220.46c-1.26 0-2.27 1.02-2.27 2.27v58.8c0 1.25 1.01 2.27 2.27 2.27z"/>
			<path id="bluetooth" fill="currentColor" stroke="currentColor" stroke-linecap="round" stroke-linejoin="round" d="m3785.5 2275.81l20 20-10 10v-40l10 10-20 20"/>
		</g>
</g>
</svg>