<svg xmlns="http://www.w3.org/2000/svg" viewBox="0 0 217.90 229.05">
<g transform="translate(-3686.55,-1029.45)" stroke-width="13.47">
<g id="Leak-Tester-icon">
			<g id="air-pump">
				<path id="pump" fill="currentColor" stroke="currentColor" stroke-linecap="round" stroke-linejoin="round" d="m3844.36 1085.24c0-0.96 0.78-1.74 1.74-1.74h22.91c0.95 0 1.73 0.78 1.73 1.74v16.29h-26.38zm0 96.92c0 0.96 0.78 1.74 1.74 1.74h22.91c0.95 0 1.73-0.78 1.73-1.74v-73.37h-26.38zm1.74-80.63v7.26m22.91-7.26v7.26"/>
				<g id="air-tube">
					<path id="&lt;Compound Path&gt;" fill="currentColor" stroke="currentColor" stroke-linecap="round" stroke-linejoin="round" d="m3839.87 1096.52h4.49m0-8.01h-4.49"/>
					<path id="&lt;Compound Path&gt;" fill="currentColor" stroke="currentColor" stroke-linecap="round" stroke-linejoin="round" d="m3736.18 1095.69h84.76m0-6.35h-84.76"/>
					<path id="&lt;Path&gt;" fill="currentColor" stroke="currentColor" stroke-linecap="round" stroke-linejoin="round" d="m3724.47 1088.47h11.71v8.09h-11.71"/>
					<path id="&lt;Path&gt;" fill="currentColor" stroke="currentColor" stroke-linecap="round" stroke-linejoin="round" d="m3711.43 1100.04h6.95v-1.39h2.62v1.39h3.47v-15.05h-3.47v1.39h-2.62v-1.39h-6.95z"/>
					<path id="&lt;Path&gt;" fill="currentColor" stroke="currentColor" stroke-linecap="round" stroke-linejoin="round" d="m3718.38 1088.11v8.81"/>
					<path id="&lt;Path&gt;" fill="currentColor" stroke="currentColor" stroke-linecap="round" stroke-linejoin="round" d="m3721 1088.11v8.81"/>
					<g id="&lt;Group&gt;">
						<path id="&lt;Path&gt;" fill="currentColor" stroke="currentColor" stroke-linecap="round" stroke-linejoin="round" d="m3826.15 1099.52h6.95v-0.87h2.62v0.87h4.17v-14.01h-4.17v0.87h-2.62v-0.87h-6.95v0.87h-5.21v12.27h5.21z"/>
						<path id="&lt;Path&gt;" fill="currentColor" stroke="currentColor" stroke-linecap="round" stroke-linejoin="round" d="m3833.1 1088.11v8.81"/>
						<path id="&lt;Path&gt;" fill="currentColor" stroke="currentColor" stroke-linecap="round" stroke-linejoin="round" d="m3826.15 1088.11v8.81"/>
						<path id="&lt;Path&gt;" fill="currentColor" stroke="currentColor" stroke-linecap="round" stroke-linejoin="round" d="m3835.72 1088.11v8.81"/>
					</g>
				</g>
			</g>
			<g id="pressure-gauge">
				<path id="gauge" fill="currentColor" stroke="currentColor" stroke-linecap="round" stroke-miterlimit="10" d="m3779.36 1192.76c-23.95 0-43.42-19.48-43.42-43.42 0-23.95 19.47-43.42 43.42-43.42 23.94 0 43.42 19.47 43.42 43.42 0 23.94-19.48 43.42-43.42 43.42zm0-82.5c-21.55 0-39.08 17.53-39.08 39.08 0 21.54 17.53 39.07 39.08 39.07 21.55 0 39.08-17.53 39.08-39.07 0-21.55-17.53-39.08-39.08-39.08zm20.39 59.46c11.24-11.24 11.24-29.53-0.01-40.77-11.24-11.24-29.53-11.24-40.77 0-11.24 11.24-11.24 29.53 0 40.77m19.08-38.79c-4.28 0.3-8.48 2.08-11.75 5.35-6.97 6.97-7.19 18.17-0.67 25.41m24.56-27.31c-2.85-2.06-6.17-3.22-9.53-3.45m12.94 0.9l-3.47 2.6q-0.54 0.4-0.93 0.94l-4.19 5.86c-1.01 1.4-2.74 2.04-4.43 1.71-2.07-0.39-4.28 0.22-5.87 1.83-1.69 1.72-2.22 4.13-1.63 6.3 0.42 1.51-0.1 3.14-1.2 4.26l-7.68 7.81-0.39 2.02 2.01-0.43 7.67-7.81c1.11-1.12 2.72-1.67 4.25-1.28 2.17 0.56 4.57-0.02 6.26-1.74 1.59-1.61 2.16-3.84 1.73-5.9-0.36-1.68 0.25-3.43 1.63-4.45l5.79-4.3q0.53-0.4 0.93-0.95l2.53-3.51c0.25-0.34 0.21-0.82-0.1-1.12l-1.78-1.76c-0.31-0.3-0.79-0.33-1.13-0.08zm-1.19 30.56c5.09-5.09 6.58-12.45 4.47-18.86m-17.52-25.63v8.68m2.6-12.16v3.48m-5.21-3.48v3.48m23.65 22.77l8.03-3.3m-0.99-2.41l3.21-1.33m-1.23 6.14l3.21-1.32m-17.22 27.01l6.13 6.15m1.85-1.83l2.45 2.46m-6.14 1.21l2.45 2.46m1.79-11.51l-3.01-1.84m5.85-4.31l-3.36-1.1m1.16-5.83l3.52 0.28m-3.75-6.22l3.49-0.55m-5.16-12.44l-2.86 2.08m-1.74-7.06l-2.29 2.69m-3.34-6.45l-1.61 3.14m-4.75-5.49l-0.83 3.44m-26.95 15.93l-8.02-3.3m-2.22-3.74l3.21 1.33m-5.2 3.49l3.21 1.32m7.88 31.84l6.13-6.15m-10.42 6.78l2.45-2.46m1.24 6.13l2.45-2.46m-1.24-10.89l-3.01 1.84m0.52-7.25l-3.36 1.1m2.2-6.93l-3.52 0.28m0.27-6.77l3.49 0.55m4.52-10.91l-2.86-2.08m4.6-4.98l2.3 2.69m3.34-6.45l1.6 3.14m5.58-2.05l-0.82-3.44m6.73 24.78c-1.8 0-3.26 1.46-3.26 3.26 0 1.79 1.46 3.25 3.26 3.25 1.8 0 3.25-1.46 3.25-3.25 0-1.8-1.45-3.26-3.25-3.26zm16.53-4.96q-0.74-1.5-1.77-2.87"/>
				<path id="mounting" fill="currentColor" stroke="currentColor" stroke-linecap="round" stroke-miterlimit="10" d="m3794.13 1190.17v11.75m-29.54 0v-11.75"/>
				<path id="body 00000094620594622492508760000001152276804291696031 " fill="currentColor" stroke="currentColor" stroke-linecap="round" stroke-miterlimit="10" d="m3819.76 1243.5h-80.8l-10.42-10.42v-20.74l10.42-10.42h80.8l10.42 10.42v20.74zm10.42-10.42h36.08v-20.74h-36.08m36.08 17.96h7.81v-15.18h-7.81m-127.3-11.46v38.1m80.8-38.1v38.1m8.68-29.42l-8.68-3.47h-80.8l-8.69 3.47m0 20.74l8.69 3.47h80.8l8.68-3.47"/>
				<g id="fittings">
					<path id="nut 00000034052489505015055900000015222167438719594677 " fill="currentColor" stroke="currentColor" stroke-linecap="round" stroke-miterlimit="10" d="m3726.8 1231.77h-8.22c-0.96 0-1.74-0.78-1.74-1.74v-14.64c0-0.96 0.78-1.74 1.74-1.74h8.22m-8.21 2.97h6.47m-6.47 3.05h6.47m0 9.13h-6.47v-6.09h6.47"/>
					<path id="nut" fill="currentColor" stroke="currentColor" stroke-linecap="round" stroke-miterlimit="10" d="m3716.15 1231.77h-8.22c-0.96 0-1.74-0.78-1.74-1.74v-14.64c0-0.96 0.78-1.74 1.74-1.74h8.22m-8.21 2.97h6.47m-6.47 3.05h6.47m-6.47 3.04h6.47m-6.47 3.04h6.47m-6.47 3.05h6.47"/>
					<path id="thread 00000023282796134617882850000004178204636881222075 " fill="currentColor" stroke="currentColor" stroke-linecap="round" stroke-linejoin="round" d="m3706.05 1227.96h-4.5v-10.5h4.5m-2.25 0l1.6 6.39m-3.85-4.89l2.25 9"/>
					<path id="thread 00000047741752735715702120000016520878839264584633 " fill="currentColor" stroke="currentColor" stroke-linecap="round" stroke-miterlimit="10" d="m3874.07 1218.59h15.38v8.24h-15.38m11.83-8.24l2.19 8.24m-5.66-8.24l2.19 8.24m-5.67-8.24l2.19 8.24m-5.66-8.24l2.19 8.24"/>
				</g>
				<path id="turn-dial" fill="currentColor" stroke="currentColor" stroke-linecap="round" stroke-miterlimit="10" d="m3839.56 1208.87v3.47m7.79-3.47v3.47m15.43-15.64h-25.77l-3.48 12.17h32.73zm-25.77 10.5c0-0.66 2.88-1.2 6.44-1.2 3.56 0 6.44 0.54 6.44 1.2"/>
			</g>
		</g>
</g>
</svg>