<svg xmlns="http://www.w3.org/2000/svg" viewBox="0 0 179.84 228.56">
<g transform="translate(-4295.66,-1526.55)" stroke-width="8.16">
<g id="Mic-icon-v4">
			<path id="top 00000012452735901113412950000008021527965327617195 " fill="none" stroke="currentColor" stroke-linecap="round" stroke-linejoin="round" d="m4310.66 1734.34v2.77c0 1.66 1.35 3 3 3h38c1.66 0 3-1.34 3-3v-2.77z"/>
			<path id="bottom 00000098914729804475015900000011310007089810952846 " fill="none" stroke="currentColor" stroke-linecap="round" stroke-linejoin="round" d="m4310.66 1689.84v-66.05l5-4h34l5 4v66.05zm3-66.05h38"/>
			<path id="mesh 00000108993200462875856900000017869783978826568328 " fill="none" stroke="currentColor" stroke-linejoin="round" d="m4323.18 1692.68h4.14m-11.17 0h3.76m25.51 0h3.76m-11.18 0h4.15m-11.56 0h4.14m16.93 38.73h2.4v-38.73h-2.4m-38 38.73h-2.4v-38.73h2.4m13.23 3.2h4.14m-11.55 0h4.14m25.12 0h4.92m-11.95 0h4.14m-11.55 0h4.14m-26.78 0h4.93m6.59 3.2h4.14m-11.17 0h3.76m25.51 0h3.76m-11.18 0h4.15m-11.56 0h4.14m16.93 0h2m-42 0h2m13.23 3.2h4.14m-11.55 0h4.14m25.12 0h4.92m-11.95 0h4.14m-11.55 0h4.14m-26.78 0h4.93m6.59 3.2h4.14m-11.17 0h3.76m25.51 0h3.76m-11.18 0h4.15m-11.56 0h4.14m16.93 0h2m-42 0h2m13.23 3.2h4.14m-11.55 0h4.14m25.12 0h4.92m-11.95 0h4.14m-11.55 0h4.14m-26.78 0h4.93m6.59 3.52h4.14m-11.17 0h3.76m25.51 0h3.76m-11.18 0h4.15m-11.56 0h4.14m16.93 0h2m-42 0h2m13.23 3.21h4.14m-11.55 0h4.14m25.12 0h4.92m-11.95 0h4.14m-11.55 0h4.14m-26.78 0h4.93m6.59 3.2h4.14m-11.17 0h3.76m25.51 0h3.76m-11.18 0h4.15m-11.56 0h4.14m16.93 0h2m-42 0h2m13.23 3.2h4.14m-11.55 0h4.14m25.12 0h4.92m-11.95 0h4.14m-11.55 0h4.14m-26.78 0h4.93m6.59 3.2h4.14m-11.17 0h3.76m25.51 0h3.76m-11.18 0h4.15m-11.56 0h4.14m16.93 0h2m-42 0h2m13.23 3.2h4.14m-11.55 0h4.14m25.12 0h4.92m-11.95 0h4.14m-11.55 0h4.14m-26.78 0h4.93m6.59 3.2h4.14m-11.17 0h3.76m25.51 0h3.76m-11.18 0h4.15m-11.56 0h4.14"/>
			<path id="controls" fill="none" stroke="currentColor" stroke-linecap="round" stroke-linejoin="round" d="m4340.6 1673.79v-33.88c0-3.86-3.14-7-7-7h-1.87c-3.87 0-7 3.14-7 7v33.88c0 3.86 3.13 7 7 7h1.87c3.86 0 7-3.14 7-7zm-7.94-12.57c-1.65 0-3 1.35-3 3 0 1.66 1.35 3 3 3 1.66 0 3-1.34 3-3 0-1.65-1.34-3-3-3zm0-9.47v9.47m0 6v8.03m0-32.5v-3.68m4.5 8.18c0 2.48-2.01 4.5-4.5 4.5-2.48 0-4.5-2.02-4.5-4.5 0-2.49 2.02-4.5 4.5-4.5 2.49 0 4.5 2.01 4.5 4.5z"/>
			<path id="stand 00000134228201550507469820000014395640063959180704 " fill="none" stroke="currentColor" stroke-linecap="round" stroke-linejoin="round" d="m4354.66 1654.02h2.95c0.85 0 1.61 0.54 1.89 1.35 0.22 0.64 0.41 1.44 0.42 2.37 0.01 1.01-0.19 1.87-0.43 2.54-0.29 0.79-1.04 1.31-1.88 1.31h-2.95m2.63 0v4.04c0 0.56 0.45 1 1 1h13.1c0.56 0 1-0.44 1-1v-73c0-0.56-0.44-1-1-1h-13.1c-0.55 0-1 0.44-1 1v61.39m3.95-62.39v-15.81m7.2 15.81v-15.81m-11.15-3.6v3.6h15.1v-0.8"/>
			<path id="end-angle" fill="none" stroke="currentColor" stroke-linecap="round" stroke-linejoin="round" d="m4387.74 1575.98c9.51 1.6 18.51-4.82 20.11-14.33 1.59-9.51-4.82-18.51-14.33-20.1-3.78-0.64-7.48 0.01-10.66 1.6m4.88 32.83c-9.51-1.59-15.92-10.6-14.33-20.11 0.96-5.72 4.62-10.31 9.45-12.72v-0.02l-28.86 14.35c-6.07 3.02-4.73 12.05 1.96 13.17l25.01 4.2m5.9-4.69c2.9 0.95 6.16 0.81 9.1-0.65 5.93-2.95 8.35-10.16 5.4-16.09-2.95-5.93-10.15-8.35-16.08-5.4q-0.83 0.42-1.57 0.95m3.33 11.57c-0.99-1.97-0.18-4.37 1.8-5.36 1.98-0.98 4.38-0.18 5.36 1.8 0.98 1.98 0.18 4.38-1.8 5.36-1.98 0.99-4.38 0.18-5.36-1.8zm-3.33-11.57c-4.76 3.35-6.51 9.76-3.84 15.14 1.49 2.98 4.06 5.08 6.99 6.05"/>
			<path id="arm 00000091737269582321114040000000475001245337253295 " fill="none" stroke="currentColor" stroke-linecap="round" stroke-linejoin="round" d="m4460.5 1678.32l-83.67-108.86m28.59-1.41l55.08 70.98m0 19.7l-64.57-83.33m8.5-27.33l56.07 71.77"/>
			<path id="jack-cable" fill="none" stroke="currentColor" stroke-linecap="round" stroke-linejoin="round" d="m4334.47 1617.99v-4.81c0-1.66 1.34-3 3-3h8.86c1.66 0 1.66 6 0 6h-5.86v1.81m14.82-3.31h-7.87m72.69 11.08c-11.61-11.13-17.03-11.12-27.14-11.09l-1.97 0.01h-16.61m-19.1-3h-7.87m64.98 4.05c-6.36-3.79-11.68-4.08-19.44-4.06h-18.57"/>
			<path id="usb-cable 00000170999412227091341200000010964402347062681772 " fill="none" stroke="currentColor" stroke-linecap="round" stroke-linejoin="round" d="m4359.21 1583.05l-1.92-0.01c-20.68 0-32.65-0.85-32.65 15.21v5.76h3v-5.76c0-12.27 7.21-12.21 29.65-12.21l1.91 0.01m-37.94 31.94v-11.32c0-0.66 0.34-1.29 0.89-1.66l1.49-1h5l1.5 1c0.55 0.37 0.88 1 0.88 1.66v11.32m-6.64-7.19h3.53m-3.53 2.8h3.53m73.21-12.46c-10.4-9.97-22.43-15.01-30.7-15.09m23.39 5.46c-6.38-4.81-17.02-8.37-23.39-8.45"/>
		</g>
</g>
</svg>