<svg xmlns="http://www.w3.org/2000/svg" viewBox="0 0 211.95 218.38">
<g transform="translate(-3993.55,-1531.64)" stroke-width="12.85">
<g id="Mic-icon-v3">
			<path id="cable 00000153672386592500220200000012626795005447540667 " fill="currentColor" stroke="currentColor" stroke-miterlimit="10" d="m4093.01 1671.73c-5.89 43.57-17.39 57.1-25.65 61.27-2.67 1.35-5.44 2.02-8.13 2.02-3.15 0-6.2-0.92-8.9-2.73-5.32-3.56-8.43-10.11-7.93-16.7m3.98 0.31c-0.39 5.17 2.03 10.3 6.17 13.07 3.86 2.58 8.48 2.74 13.01 0.45 6.12-3.08 18.47-14.66 24.4-57.69m-49.25 32.7l1 11.32h5.36l1-11.32m-2.52 7.19h-2.32m2.92-2.8h-3.52"/>
			<g id="mic">
				<path id="branding 00000101807374801025767650000009571058732486175652 " fill="currentColor" stroke="currentColor" stroke-linecap="round" stroke-miterlimit="10" d="m4032.05 1686.79h22.97m-2.59 3.28h-6.23"/>
				<g id="sections 00000093882001213716825520000014888047974412419236 ">
					<path id="section 00000168096918597724459560000008983559154147617462 " fill="currentColor" stroke="currentColor" stroke-linecap="round" stroke-miterlimit="10" d="m4025.01 1563.34v-9.18c0-2.21 1.79-4 4-4h29.05c2.21 0 4 1.79 4 4v9.18"/>
					<path id="section 00000106122757464963334260000004675937384475110283 " fill="currentColor" stroke="currentColor" stroke-linecap="round" stroke-miterlimit="10" d="m4025.01 1641.97v-26.01m0 40.15v-5.24m0 15.82v-8.35m0 24.88v11.57c0 0.82 0.66 1.49 1.48 1.49h34.09c0.82 0 1.48-0.67 1.48-1.49v-11.57m-37.05-9.23v-5.08m37.05-52.95v26.01"/>
					<path id="bottom-section 00000172430877763861103220000017154502149363543470 " fill="currentColor" stroke="currentColor" stroke-linecap="round" stroke-miterlimit="10" d="m4059.09 1698.5v3.7c0 1.23-0.99 2.23-2.22 2.23h-26.68c-1.22 0-2.22-1-2.22-2.23v-3.7"/>
					<g id="mesh-section 00000015339045338898521010000001326630724902301883 ">
						<path id="&lt;Path&gt;" fill="currentColor" stroke="currentColor" stroke-linecap="round" stroke-miterlimit="10" d="m4025.01 1565.57h37.05v48.16h-37.05z"/>
						<path id="mesh 00000031181274968429297530000011138001859300119740 " fill="currentColor" stroke="currentColor" stroke-linecap="round" stroke-miterlimit="10" d="m4028.38 1568.53c0 0.23-0.18 0.41-0.41 0.41-0.23 0-0.41-0.18-0.41-0.41 0-0.23 0.18-0.41 0.41-0.41 0.23 0 0.41 0.18 0.41 0.41zm4.78-0.41c-0.23 0-0.41 0.18-0.41 0.41 0 0.23 0.18 0.41 0.41 0.41 0.22 0 0.41-0.18 0.41-0.41 0-0.23-0.19-0.41-0.41-0.41zm5.19 0c-0.23 0-0.41 0.18-0.41 0.41 0 0.23 0.18 0.41 0.41 0.41 0.22 0 0.41-0.18 0.41-0.41 0-0.23-0.19-0.41-0.41-0.41zm5.18 0c-0.22 0-0.41 0.18-0.41 0.41 0 0.23 0.19 0.41 0.41 0.41 0.23 0 0.41-0.18 0.41-0.41 0-0.23-0.18-0.41-0.41-0.41zm5.19 0c-0.23 0-0.41 0.18-0.41 0.41 0 0.23 0.18 0.41 0.41 0.41 0.23 0 0.41-0.18 0.41-0.41 0-0.23-0.18-0.41-0.41-0.41zm5.19 0c-0.23 0-0.41 0.18-0.41 0.41 0 0.23 0.18 0.41 0.41 0.41 0.22 0 0.41-0.18 0.41-0.41 0-0.23-0.19-0.41-0.41-0.41zm5.18 0c-0.22 0-0.41 0.18-0.41 0.41 0 0.23 0.19 0.41 0.41 0.41 0.23 0 0.41-0.18 0.41-0.41 0-0.23-0.18-0.41-0.41-0.41zm-31.12 8.45c-0.23 0-0.41 0.18-0.41 0.41 0 0.23 0.18 0.41 0.41 0.41 0.23 0 0.41-0.18 0.41-0.41 0-0.23-0.18-0.41-0.41-0.41zm5.19 0c-0.23 0-0.41 0.18-0.41 0.41 0 0.23 0.18 0.41 0.41 0.41 0.22 0 0.41-0.18 0.41-0.41 0-0.23-0.19-0.41-0.41-0.41zm5.19 0c-0.23 0-0.41 0.18-0.41 0.41 0 0.23 0.18 0.41 0.41 0.41 0.22 0 0.41-0.18 0.41-0.41 0-0.23-0.19-0.41-0.41-0.41zm5.18 0c-0.22 0-0.41 0.18-0.41 0.41 0 0.23 0.19 0.41 0.41 0.41 0.23 0 0.41-0.18 0.41-0.41 0-0.23-0.18-0.41-0.41-0.41zm5.19 0c-0.23 0-0.41 0.18-0.41 0.41 0 0.23 0.18 0.41 0.41 0.41 0.23 0 0.41-0.18 0.41-0.41 0-0.23-0.18-0.41-0.41-0.41zm5.19 0c-0.23 0-0.41 0.18-0.41 0.41 0 0.23 0.18 0.41 0.41 0.41 0.22 0 0.41-0.18 0.41-0.41 0-0.23-0.19-0.41-0.41-0.41zm5.18 0c-0.22 0-0.41 0.18-0.41 0.41 0 0.23 0.19 0.41 0.41 0.41 0.23 0 0.41-0.18 0.41-0.41 0-0.23-0.18-0.41-0.41-0.41zm-31.12 8.45c-0.23 0-0.41 0.18-0.41 0.41 0 0.22 0.18 0.41 0.41 0.41 0.23 0 0.41-0.19 0.41-0.41 0-0.23-0.18-0.41-0.41-0.41zm5.19 0c-0.23 0-0.41 0.18-0.41 0.41 0 0.22 0.18 0.41 0.41 0.41 0.22 0 0.41-0.19 0.41-0.41 0-0.23-0.19-0.41-0.41-0.41zm5.19 0c-0.23 0-0.41 0.18-0.41 0.41 0 0.22 0.18 0.41 0.41 0.41 0.22 0 0.41-0.19 0.41-0.41 0-0.23-0.19-0.41-0.41-0.41zm5.18 0c-0.22 0-0.41 0.18-0.41 0.41 0 0.22 0.19 0.41 0.41 0.41 0.23 0 0.41-0.19 0.41-0.41 0-0.23-0.18-0.41-0.41-0.41zm5.19 0c-0.23 0-0.41 0.18-0.41 0.41 0 0.22 0.18 0.41 0.41 0.41 0.23 0 0.41-0.19 0.41-0.41 0-0.23-0.18-0.41-0.41-0.41zm5.19 0c-0.23 0-0.41 0.18-0.41 0.41 0 0.22 0.18 0.41 0.41 0.41 0.22 0 0.41-0.19 0.41-0.41 0-0.23-0.19-0.41-0.41-0.41zm5.18 0c-0.22 0-0.41 0.18-0.41 0.41 0 0.22 0.19 0.41 0.41 0.41 0.23 0 0.41-0.19 0.41-0.41 0-0.23-0.18-0.41-0.41-0.41zm-31.12 8.44c-0.23 0-0.41 0.19-0.41 0.41 0 0.23 0.18 0.41 0.41 0.41 0.23 0 0.41-0.18 0.41-0.41 0-0.22-0.18-0.41-0.41-0.41zm5.19 0c-0.23 0-0.41 0.19-0.41 0.41 0 0.23 0.18 0.41 0.41 0.41 0.22 0 0.41-0.18 0.41-0.41 0-0.22-0.19-0.41-0.41-0.41zm5.19 0c-0.23 0-0.41 0.19-0.41 0.41 0 0.23 0.18 0.41 0.41 0.41 0.22 0 0.41-0.18 0.41-0.41 0-0.22-0.19-0.41-0.41-0.41zm5.18 0c-0.22 0-0.41 0.19-0.41 0.41 0 0.23 0.19 0.41 0.41 0.41 0.23 0 0.41-0.18 0.41-0.41 0-0.22-0.18-0.41-0.41-0.41zm5.19 0c-0.23 0-0.41 0.19-0.41 0.41 0 0.23 0.18 0.41 0.41 0.41 0.23 0 0.41-0.18 0.41-0.41 0-0.22-0.18-0.41-0.41-0.41zm5.19 0c-0.23 0-0.41 0.19-0.41 0.41 0 0.23 0.18 0.41 0.41 0.41 0.22 0 0.41-0.18 0.41-0.41 0-0.22-0.19-0.41-0.41-0.41zm5.18 0c-0.22 0-0.41 0.19-0.41 0.41 0 0.23 0.19 0.41 0.41 0.41 0.23 0 0.41-0.18 0.41-0.41 0-0.22-0.18-0.41-0.41-0.41zm-31.12 8.45c-0.23 0-0.41 0.19-0.41 0.41 0 0.23 0.18 0.41 0.41 0.41 0.23 0 0.41-0.18 0.41-0.41 0-0.22-0.18-0.41-0.41-0.41zm5.19 0c-0.23 0-0.41 0.19-0.41 0.41 0 0.23 0.18 0.41 0.41 0.41 0.22 0 0.41-0.18 0.41-0.41 0-0.22-0.19-0.41-0.41-0.41zm5.19 0c-0.23 0-0.41 0.19-0.41 0.41 0 0.23 0.18 0.41 0.41 0.41 0.22 0 0.41-0.18 0.41-0.41 0-0.22-0.19-0.41-0.41-0.41zm5.18 0c-0.22 0-0.41 0.19-0.41 0.41 0 0.23 0.19 0.41 0.41 0.41 0.23 0 0.41-0.18 0.41-0.41 0-0.22-0.18-0.41-0.41-0.41zm5.19 0c-0.23 0-0.41 0.19-0.41 0.41 0 0.23 0.18 0.41 0.41 0.41 0.23 0 0.41-0.18 0.41-0.41 0-0.22-0.18-0.41-0.41-0.41zm5.19 0c-0.23 0-0.41 0.19-0.41 0.41 0 0.23 0.18 0.41 0.41 0.41 0.22 0 0.41-0.18 0.41-0.41 0-0.22-0.19-0.41-0.41-0.41zm5.18 0c-0.22 0-0.41 0.19-0.41 0.41 0 0.23 0.19 0.41 0.41 0.41 0.23 0 0.41-0.18 0.41-0.41 0-0.22-0.18-0.41-0.41-0.41zm-28.45 4.23c-0.23 0-0.41 0.18-0.41 0.41 0 0.22 0.18 0.41 0.41 0.41 0.23 0 0.41-0.19 0.41-0.41 0-0.23-0.18-0.41-0.41-0.41zm5.19 0c-0.23 0-0.41 0.18-0.41 0.41 0 0.22 0.18 0.41 0.41 0.41 0.22 0 0.41-0.19 0.41-0.41 0-0.23-0.19-0.41-0.41-0.41zm-10.82 0.8q0.09 0.02 0.19 0.02c0.34 0 0.63-0.19 0.63-0.41 0-0.23-0.29-0.41-0.63-0.41q-0.1 0-0.19 0.01m16-0.01c-0.22 0-0.41 0.18-0.41 0.41 0 0.22 0.19 0.41 0.41 0.41 0.23 0 0.41-0.19 0.41-0.41 0-0.23-0.18-0.41-0.41-0.41zm5.19 0c-0.23 0-0.41 0.18-0.41 0.41 0 0.22 0.18 0.41 0.41 0.41 0.23 0 0.41-0.19 0.41-0.41 0-0.23-0.18-0.41-0.41-0.41zm5.19 0c-0.23 0-0.41 0.18-0.41 0.41 0 0.22 0.18 0.41 0.41 0.41 0.22 0 0.41-0.19 0.41-0.41 0-0.23-0.19-0.41-0.41-0.41zm5.18 0c-0.22 0-0.41 0.18-0.41 0.41 0 0.22 0.19 0.41 0.41 0.41 0.23 0 0.42-0.19 0.42-0.41 0-0.23-0.19-0.41-0.42-0.41zm5.49 0q-0.07 0-0.14 0c-0.37 0-0.68 0.18-0.68 0.41 0 0.22 0.31 0.41 0.68 0.41q0.07 0 0.14-0.01m-31.42-9.26c-0.23 0-0.41 0.18-0.41 0.41 0 0.23 0.18 0.41 0.41 0.41 0.23 0 0.41-0.18 0.41-0.41 0-0.23-0.18-0.41-0.41-0.41zm5.19 0c-0.23 0-0.41 0.18-0.41 0.41 0 0.23 0.18 0.41 0.41 0.41 0.22 0 0.41-0.18 0.41-0.41 0-0.23-0.19-0.41-0.41-0.41zm-10.82 0.8q0.09 0.02 0.19 0.02c0.34 0 0.63-0.18 0.63-0.41 0-0.23-0.29-0.41-0.63-0.41q-0.1 0-0.19 0.02m16-0.02c-0.22 0-0.41 0.18-0.41 0.41 0 0.23 0.19 0.41 0.41 0.41 0.23 0 0.41-0.18 0.41-0.41 0-0.23-0.18-0.41-0.41-0.41zm5.19 0c-0.23 0-0.41 0.18-0.41 0.41 0 0.23 0.18 0.41 0.41 0.41 0.23 0 0.41-0.18 0.41-0.41 0-0.23-0.18-0.41-0.41-0.41zm5.19 0c-0.23 0-0.41 0.18-0.41 0.41 0 0.23 0.18 0.41 0.41 0.41 0.22 0 0.41-0.18 0.41-0.41 0-0.23-0.19-0.41-0.41-0.41zm5.18 0c-0.22 0-0.41 0.18-0.41 0.41 0 0.23 0.19 0.41 0.41 0.41 0.23 0 0.42-0.18 0.42-0.41 0-0.23-0.19-0.41-0.42-0.41zm5.49 0.01q-0.07-0.01-0.14-0.01c-0.37 0-0.68 0.18-0.68 0.41 0 0.23 0.31 0.41 0.68 0.41q0.07 0 0.14-0.01m-31.42-9.26c-0.23 0-0.41 0.18-0.41 0.41 0 0.23 0.18 0.41 0.41 0.41 0.23 0 0.41-0.18 0.41-0.41 0-0.23-0.18-0.41-0.41-0.41zm5.19 0c-0.23 0-0.41 0.18-0.41 0.41 0 0.23 0.18 0.41 0.41 0.41 0.22 0 0.41-0.18 0.41-0.41 0-0.23-0.19-0.41-0.41-0.41zm-10.82 0.8q0.09 0.02 0.19 0.02c0.34 0 0.63-0.18 0.63-0.41 0-0.23-0.29-0.41-0.63-0.41q-0.1 0-0.19 0.02m16-0.02c-0.22 0-0.41 0.18-0.41 0.41 0 0.23 0.19 0.41 0.41 0.41 0.23 0 0.41-0.18 0.41-0.41 0-0.23-0.18-0.41-0.41-0.41zm5.19 0c-0.23 0-0.41 0.18-0.41 0.41 0 0.23 0.18 0.41 0.41 0.41 0.23 0 0.41-0.18 0.41-0.41 0-0.23-0.18-0.41-0.41-0.41zm5.19 0c-0.23 0-0.41 0.18-0.41 0.41 0 0.23 0.18 0.41 0.41 0.41 0.22 0 0.41-0.18 0.41-0.41 0-0.23-0.19-0.41-0.41-0.41zm5.18 0c-0.22 0-0.41 0.18-0.41 0.41 0 0.23 0.19 0.41 0.41 0.41 0.23 0 0.42-0.18 0.42-0.41 0-0.23-0.19-0.41-0.42-0.41zm5.49 0.01q-0.07-0.01-0.14-0.01c-0.37 0-0.68 0.18-0.68 0.41 0 0.23 0.31 0.41 0.68 0.41q0.07 0 0.14-0.01m-31.42-9.26c-0.23 0-0.41 0.19-0.41 0.41 0 0.23 0.18 0.41 0.41 0.41 0.23 0 0.41-0.18 0.41-0.41 0-0.22-0.18-0.41-0.41-0.41zm5.19 0c-0.23 0-0.41 0.19-0.41 0.41 0 0.23 0.18 0.41 0.41 0.41 0.22 0 0.41-0.18 0.41-0.41 0-0.22-0.19-0.41-0.41-0.41zm-10.82 0.81q0.09 0.01 0.19 0.01c0.34 0 0.63-0.18 0.63-0.41 0-0.22-0.29-0.41-0.63-0.41q-0.1 0-0.19 0.02m16-0.02c-0.22 0-0.41 0.19-0.41 0.41 0 0.23 0.19 0.41 0.41 0.41 0.23 0 0.41-0.18 0.41-0.41 0-0.22-0.18-0.41-0.41-0.41zm5.19 0c-0.23 0-0.41 0.19-0.41 0.41 0 0.23 0.18 0.41 0.41 0.41 0.23 0 0.41-0.18 0.41-0.41 0-0.22-0.18-0.41-0.41-0.41zm5.19 0c-0.23 0-0.41 0.19-0.41 0.41 0 0.23 0.18 0.41 0.41 0.41 0.22 0 0.41-0.18 0.41-0.41 0-0.22-0.19-0.41-0.41-0.41zm5.18 0c-0.22 0-0.41 0.19-0.41 0.41 0 0.23 0.19 0.41 0.41 0.41 0.23 0 0.42-0.18 0.42-0.41 0-0.22-0.19-0.41-0.42-0.41zm5.49 0.01q-0.07-0.01-0.14-0.01c-0.37 0-0.68 0.19-0.68 0.41 0 0.23 0.31 0.41 0.68 0.41q0.07 0 0.14-0.01m-31.42-9.26c-0.23 0-0.41 0.19-0.41 0.42 0 0.22 0.18 0.41 0.41 0.41 0.23 0 0.41-0.19 0.41-0.41 0-0.23-0.18-0.42-0.41-0.42zm5.19 0c-0.23 0-0.41 0.19-0.41 0.42 0 0.22 0.18 0.41 0.41 0.41 0.22 0 0.41-0.19 0.41-0.41 0-0.23-0.19-0.42-0.41-0.42zm-10.82 0.81q0.09 0.02 0.19 0.02c0.34 0 0.63-0.19 0.63-0.41 0-0.23-0.29-0.42-0.63-0.42q-0.1 0.01-0.19 0.02m16-0.02c-0.22 0-0.41 0.19-0.41 0.42 0 0.22 0.19 0.41 0.41 0.41 0.23 0 0.41-0.19 0.41-0.41 0-0.23-0.18-0.42-0.41-0.42zm5.19 0c-0.23 0-0.41 0.19-0.41 0.42 0 0.22 0.18 0.41 0.41 0.41 0.23 0 0.41-0.19 0.41-0.41 0-0.23-0.18-0.42-0.41-0.42zm5.19 0c-0.23 0-0.41 0.19-0.41 0.42 0 0.22 0.18 0.41 0.41 0.41 0.22 0 0.41-0.19 0.41-0.41 0-0.23-0.19-0.42-0.41-0.42zm5.18 0c-0.22 0-0.41 0.19-0.41 0.42 0 0.22 0.19 0.41 0.41 0.41 0.23 0 0.42-0.19 0.42-0.41 0-0.23-0.19-0.42-0.42-0.42zm5.49 0.01q-0.07-0.01-0.14-0.01c-0.37 0-0.68 0.19-0.68 0.42 0 0.22 0.31 0.41 0.68 0.41q0.07 0 0.14-0.01m-34.09 37.2c-0.23 0-0.41 0.18-0.41 0.41 0 0.23 0.18 0.41 0.41 0.41 0.23 0 0.41-0.18 0.41-0.41 0-0.23-0.18-0.41-0.41-0.41zm5.19 0c-0.23 0-0.41 0.18-0.41 0.41 0 0.23 0.18 0.41 0.41 0.41 0.22 0 0.41-0.18 0.41-0.41 0-0.23-0.19-0.41-0.41-0.41zm5.19 0c-0.23 0-0.41 0.18-0.41 0.41 0 0.23 0.18 0.41 0.41 0.41 0.22 0 0.41-0.18 0.41-0.41 0-0.23-0.19-0.41-0.41-0.41zm5.18 0c-0.22 0-0.41 0.18-0.41 0.41 0 0.23 0.19 0.41 0.41 0.41 0.23 0 0.41-0.18 0.41-0.41 0-0.23-0.18-0.41-0.41-0.41zm5.19 0c-0.23 0-0.41 0.18-0.41 0.41 0 0.23 0.18 0.41 0.41 0.41 0.23 0 0.41-0.18 0.41-0.41 0-0.23-0.18-0.41-0.41-0.41zm5.19 0c-0.23 0-0.41 0.18-0.41 0.41 0 0.23 0.18 0.41 0.41 0.41 0.22 0 0.41-0.18 0.41-0.41 0-0.23-0.19-0.41-0.41-0.41zm5.18 0c-0.22 0-0.41 0.18-0.41 0.41 0 0.23 0.19 0.41 0.41 0.41 0.23 0 0.41-0.18 0.41-0.41 0-0.23-0.18-0.41-0.41-0.41z"/>
					</g>
				</g>
				<g id="fitting 00000080899388680619396910000005076421188068221831 ">
					<g id="rings 00000070801633287309163690000007912300071405351326 ">
						<path id="ring 00000165203979822017604410000009699306297562727353 " fill="currentColor" stroke="currentColor" stroke-linecap="round" stroke-miterlimit="10" d="m4035.3 1644.96v0.63c0 0.46 0.36 0.82 0.82 0.82h14.83c0.45 0 0.82-0.36 0.82-0.82v-0.63"/>
						<path id="ring 00000062167428302497943550000002383507236618741679 " fill="currentColor" stroke="currentColor" stroke-linecap="round" stroke-miterlimit="10" d="m4057.61 1644.96v0.63c0 0.46 0.37 0.82 0.82 0.82h7.17c0.41 0 0.74-0.33 0.74-0.74v-2.96c0-0.41-0.33-0.74-0.74-0.74h-44.13c-0.41 0-0.75 0.33-0.75 0.74v2.96c0 0.41 0.34 0.74 0.75 0.74h7.16c0.46 0 0.82-0.36 0.82-0.82v-0.63"/>
						<path id="ring 00000168802161908083608800000003481414745962401706 " fill="currentColor" stroke="currentColor" stroke-linecap="round" stroke-miterlimit="10" d="m4051.77 1656.11h-42.48c-0.41 0-0.74 0.34-0.74 0.75v0.74c0 0.41 0.33 0.74 0.74 0.74h42.48"/>
						<path id="ring 00000017481149409611533720000017576171040326979742 " fill="currentColor" stroke="currentColor" stroke-linecap="round" stroke-miterlimit="10" d="m4029.45 1680.23v-0.63c0-0.46-0.36-0.82-0.82-0.82h-7.16c-0.41 0-0.75 0.33-0.75 0.74v2.96c0 0.41 0.34 0.74 0.75 0.74h44.13c0.41 0 0.74-0.33 0.74-0.74v-2.96c0-0.41-0.33-0.74-0.74-0.74h-7.17c-0.45 0-0.82 0.36-0.82 0.82v0.63"/>
						<path id="ring 00000165919837913293963140000017507694343572617871 " fill="currentColor" stroke="currentColor" stroke-linecap="round" stroke-miterlimit="10" d="m4051.77 1680.23v-0.63c0-0.46-0.37-0.82-0.82-0.82h-14.83c-0.46 0-0.82 0.36-0.82 0.82v0.63"/>
						<path id="ring 00000177473626730040397320000007972583887362691775 " fill="currentColor" stroke="currentColor" stroke-linecap="round" stroke-miterlimit="10" d="m4051.77 1666.69h-42.48c-0.41 0-0.74 0.33-0.74 0.74v0.74c0 0.41 0.33 0.74 0.74 0.74h42.48"/>
					</g>
					<g id="strings 00000008149644295478670980000002824934529805382566 ">
						<path id="string 00000088828422997976005230000016221838094087589802 " fill="currentColor" stroke="currentColor" stroke-linecap="round" stroke-miterlimit="10" d="m4024.51 1646.41l-11.71 9.7m15.82-9.7l-11.72 9.7"/>
						<path id="string 00000178202005137619032430000008505170791388364694 " fill="currentColor" stroke="currentColor" stroke-linecap="round" stroke-miterlimit="10" d="m4066.34 1649.4l-3.79-2.99m-0.33 2.99l-3.77-2.99"/>
						<path id="string 00000113352613080915774350000013486043529577131909 " fill="currentColor" stroke="currentColor" stroke-linecap="round" stroke-miterlimit="10" d="m4012.8 1668.91l11.71 9.87m-7.61-9.87l11.72 9.87"/>
						<path id="string 00000181063458977627006990000006707114954863816852 " fill="currentColor" stroke="currentColor" stroke-linecap="round" stroke-miterlimit="10" d="m4062.55 1678.78l3.79-3.04m-7.89 3.04l3.77-3.06"/>
						<path id="string 00000101785583650038067930000012980428607886658192 " fill="currentColor" stroke="currentColor" stroke-linecap="round" stroke-miterlimit="10" d="m4053.25 1677.34v2.35c0 0.45 0.37 0.82 0.82 0.82h1.24c0.45 0 0.82-0.37 0.82-0.82v-2.35"/>
						<path id="string 00000028303004974317427270000014115268763000233353 " fill="currentColor" stroke="currentColor" stroke-linecap="round" stroke-miterlimit="10" d="m4030.94 1668.91v10.78c0 0.45 0.36 0.82 0.82 0.82h1.23c0.46 0 0.82-0.37 0.82-0.82v-10.78"/>
						<path id="string 00000160877044054886778030000006182160491114871975 " fill="currentColor" stroke="currentColor" stroke-linecap="round" stroke-miterlimit="10" d="m4056.13 1647.8v-2.3c0-0.45-0.37-0.82-0.82-0.82h-1.24c-0.45 0-0.82 0.37-0.82 0.82v2.3"/>
						<path id="string 00000050640679397162921880000011233464899479327397 " fill="currentColor" stroke="currentColor" stroke-linecap="round" stroke-miterlimit="10" d="m4033.81 1656.11v-10.61c0-0.45-0.36-0.82-0.82-0.82h-1.23c-0.46 0-0.82 0.37-0.82 0.82v10.61"/>
					</g>
					<g id="bars 00000133488416775940883960000000013975896790275253 ">
						<path id="bar 00000062914138840906665950000016590600162606376072 " fill="currentColor" stroke="currentColor" stroke-linecap="round" stroke-miterlimit="10" d="m4016.4 1658.34v8.35m5.09-8.35v8.35"/>
					</g>
				</g>
			</g>
			<g id="boom-arm">
				<path id="angle-set" fill="currentColor" stroke="currentColor" stroke-linecap="round" stroke-linejoin="round" d="m4117.74 1581.08c9.51 1.59 18.51-4.82 20.11-14.33 1.59-9.51-4.82-18.51-14.33-20.11-3.78-0.63-7.48 0.02-10.66 1.6m4.88 32.84c-9.51-1.6-15.92-10.6-14.33-20.11 0.96-5.73 4.62-10.32 9.45-12.73v-0.01l-28.86 14.34c-6.07 3.02-4.73 12.05 1.96 13.18l25.01 4.19m5.9-4.69c2.9 0.96 6.16 0.82 9.1-0.65 5.93-2.95 8.35-10.15 5.4-16.08-2.95-5.94-10.15-8.36-16.08-5.41q-0.83 0.43-1.57 0.95m3.33 11.58c-0.99-1.98-0.18-4.38 1.8-5.36 1.98-0.99 4.38-0.18 5.36 1.8 0.98 1.98 0.18 4.38-1.8 5.36-1.98 0.98-4.38 0.18-5.36-1.8zm-3.33-11.58c-4.76 3.35-6.51 9.76-3.84 15.14 1.49 2.99 4.06 5.08 6.99 6.05"/>
				<path id="arm 00000111170054457797829470000013980939031496131755 " fill="currentColor" stroke="currentColor" stroke-linecap="round" stroke-linejoin="round" d="m4190.5 1683.41l-83.67-108.86m28.59-1.4l55.08 70.97m0 19.7l-64.57-83.32m8.5-27.33l56.07 71.77"/>
				<path id="end 00000145057620949020981460000002916629329712028573 " fill="currentColor" stroke="currentColor" stroke-linecap="round" stroke-linejoin="round" d="m4087.29 1666.69v4.04c0 0.55 0.45 1 1 1h13.1c0.56 0 1-0.45 1-1v-73.01c0-0.55-0.44-1-1-1h-13.1c-0.55 0-1 0.45-1 1l-0.01 60.62m3.96-61.62v-15.81m7.2 15.81v-15.81m-11.15-3.6v3.6h15.1v-0.8m-24.69 78.23h9.08c1.16 0 2.19 0.59 2.57 1.48 0.3 0.71 0.55 1.59 0.57 2.62 0.01 1.11-0.26 2.06-0.59 2.81-0.38 0.87-1.41 1.44-2.55 1.44h-9.08m0-12.52h-5.6l-5.76-4.77h-12.09c-0.55 0-1 0.45-1 1v24.34c0 0.55 0.45 1 1 1h12.09l5.8-4.89h5.56z"/>
			</g>
		</g>
</g>
</svg>