<svg xmlns="http://www.w3.org/2000/svg" viewBox="0 0 136.40 225.00">
<g transform="translate(-3457.30,-1527.92)" stroke-width="13.24">
<g id="Mic-icon-v1">
			<path id="branding 00000163036389665393672740000015099948279684671639 " fill="none" stroke="currentColor" stroke-linecap="round" stroke-miterlimit="10" d="m3511.5 1682.18h28m-3.16 4h-7.59"/>
			<g id="sections">
				<path id="top-section" fill="none" stroke="currentColor" stroke-linecap="round" stroke-miterlimit="10" d="m3502.92 1551.95v-1.81c0-3.99 3.24-7.22 7.23-7.22h30.7c3.99 0 7.23 3.23 7.23 7.22v1.81"/>
				<path id="section 00000074419702665794648500000000142466778808190608 " fill="none" stroke="currentColor" stroke-linecap="round" stroke-miterlimit="10" d="m3502.92 1560.98v-6.32h45.16v6.32"/>
				<path id="section" fill="none" stroke="currentColor" stroke-linecap="round" stroke-miterlimit="10" d="m3502.92 1627.55v-2.45m0 19.69v-6.39m0 19.28v-10.18m0 30.33v14.1c0 1 0.81 1.81 1.81 1.81h41.54c1 0 1.81-0.81 1.81-1.81v-14.1m0-30.33v10.18m0-19.28v6.39m-45.16 21.79v-6.19m45.16 0v6.19m0-41.48v2.45"/>
				<path id="bottom-section" fill="none" stroke="currentColor" stroke-linecap="round" stroke-miterlimit="10" d="m3544.47 1696.45v4.51c0 1.5-1.22 2.71-2.71 2.71h-32.52c-1.49 0-2.71-1.21-2.71-2.71v-4.51"/>
				<g id="mesh-section 00000026869025171458962850000013867615425039648409 ">
					<path id="&lt;Path&gt;" fill="none" stroke="currentColor" stroke-linecap="round" stroke-miterlimit="10" d="m3502.92 1563.69h45.16v58.7h-45.16z"/>
					<path id="mesh" fill="none" stroke="currentColor" stroke-linecap="round" stroke-miterlimit="10" d="m3507.03 1567.3c0 0.28-0.22 0.5-0.5 0.5-0.27 0-0.5-0.22-0.5-0.5 0-0.28 0.23-0.5 0.5-0.5 0.28 0 0.5 0.22 0.5 0.5zm5.83-0.5c-0.28 0-0.5 0.22-0.5 0.5 0 0.28 0.22 0.5 0.5 0.5 0.27 0 0.5-0.22 0.5-0.5 0-0.28-0.23-0.5-0.5-0.5zm6.32 0c-0.28 0-0.5 0.22-0.5 0.5 0 0.28 0.22 0.5 0.5 0.5 0.27 0 0.5-0.22 0.5-0.5 0-0.28-0.23-0.5-0.5-0.5zm6.32 0c-0.28 0-0.5 0.22-0.5 0.5 0 0.28 0.22 0.5 0.5 0.5 0.28 0 0.5-0.22 0.5-0.5 0-0.28-0.22-0.5-0.5-0.5zm6.32 0c-0.27 0-0.5 0.22-0.5 0.5 0 0.28 0.23 0.5 0.5 0.5 0.28 0 0.5-0.22 0.5-0.5 0-0.28-0.22-0.5-0.5-0.5zm6.32 0c-0.27 0-0.5 0.22-0.5 0.5 0 0.28 0.23 0.5 0.5 0.5 0.28 0 0.5-0.22 0.5-0.5 0-0.28-0.22-0.5-0.5-0.5zm6.33 0c-0.28 0-0.5 0.22-0.5 0.5 0 0.28 0.22 0.5 0.5 0.5 0.27 0 0.5-0.22 0.5-0.5 0-0.28-0.23-0.5-0.5-0.5zm-37.94 10.3c-0.27 0-0.5 0.22-0.5 0.5 0 0.27 0.23 0.5 0.5 0.5 0.28 0 0.5-0.23 0.5-0.5 0-0.28-0.22-0.5-0.5-0.5zm6.33 0c-0.28 0-0.5 0.22-0.5 0.5 0 0.27 0.22 0.5 0.5 0.5 0.27 0 0.5-0.23 0.5-0.5 0-0.28-0.23-0.5-0.5-0.5zm6.32 0c-0.28 0-0.5 0.22-0.5 0.5 0 0.27 0.22 0.5 0.5 0.5 0.27 0 0.5-0.23 0.5-0.5 0-0.28-0.23-0.5-0.5-0.5zm6.32 0c-0.28 0-0.5 0.22-0.5 0.5 0 0.27 0.22 0.5 0.5 0.5 0.28 0 0.5-0.23 0.5-0.5 0-0.28-0.22-0.5-0.5-0.5zm6.32 0c-0.27 0-0.5 0.22-0.5 0.5 0 0.27 0.23 0.5 0.5 0.5 0.28 0 0.5-0.23 0.5-0.5 0-0.28-0.22-0.5-0.5-0.5zm6.32 0c-0.27 0-0.5 0.22-0.5 0.5 0 0.27 0.23 0.5 0.5 0.5 0.28 0 0.5-0.23 0.5-0.5 0-0.28-0.22-0.5-0.5-0.5zm6.33 0c-0.28 0-0.5 0.22-0.5 0.5 0 0.27 0.22 0.5 0.5 0.5 0.27 0 0.5-0.23 0.5-0.5 0-0.28-0.23-0.5-0.5-0.5zm-37.94 10.29c-0.27 0-0.5 0.23-0.5 0.5 0 0.28 0.23 0.5 0.5 0.5 0.28 0 0.5-0.22 0.5-0.5 0-0.27-0.22-0.5-0.5-0.5zm6.33 0c-0.28 0-0.5 0.23-0.5 0.5 0 0.28 0.22 0.5 0.5 0.5 0.27 0 0.5-0.22 0.5-0.5 0-0.27-0.23-0.5-0.5-0.5zm6.32 0c-0.28 0-0.5 0.23-0.5 0.5 0 0.28 0.22 0.5 0.5 0.5 0.27 0 0.5-0.22 0.5-0.5 0-0.27-0.23-0.5-0.5-0.5zm6.32 0c-0.28 0-0.5 0.23-0.5 0.5 0 0.28 0.22 0.5 0.5 0.5 0.28 0 0.5-0.22 0.5-0.5 0-0.27-0.22-0.5-0.5-0.5zm6.32 0c-0.27 0-0.5 0.23-0.5 0.5 0 0.28 0.23 0.5 0.5 0.5 0.28 0 0.5-0.22 0.5-0.5 0-0.27-0.22-0.5-0.5-0.5zm6.32 0c-0.27 0-0.5 0.23-0.5 0.5 0 0.28 0.23 0.5 0.5 0.5 0.28 0 0.5-0.22 0.5-0.5 0-0.27-0.22-0.5-0.5-0.5zm6.33 0c-0.28 0-0.5 0.23-0.5 0.5 0 0.28 0.22 0.5 0.5 0.5 0.27 0 0.5-0.22 0.5-0.5 0-0.27-0.23-0.5-0.5-0.5zm-37.94 10.3c-0.27 0-0.5 0.22-0.5 0.5 0 0.27 0.23 0.5 0.5 0.5 0.28 0 0.5-0.23 0.5-0.5 0-0.28-0.22-0.5-0.5-0.5zm6.33 0c-0.28 0-0.5 0.22-0.5 0.5 0 0.27 0.22 0.5 0.5 0.5 0.27 0 0.5-0.23 0.5-0.5 0-0.28-0.23-0.5-0.5-0.5zm6.32 0c-0.28 0-0.5 0.22-0.5 0.5 0 0.27 0.22 0.5 0.5 0.5 0.27 0 0.5-0.23 0.5-0.5 0-0.28-0.23-0.5-0.5-0.5zm6.32 0c-0.28 0-0.5 0.22-0.5 0.5 0 0.27 0.22 0.5 0.5 0.5 0.28 0 0.5-0.23 0.5-0.5 0-0.28-0.22-0.5-0.5-0.5zm6.32 0c-0.27 0-0.5 0.22-0.5 0.5 0 0.27 0.23 0.5 0.5 0.5 0.28 0 0.5-0.23 0.5-0.5 0-0.28-0.22-0.5-0.5-0.5zm6.32 0c-0.27 0-0.5 0.22-0.5 0.5 0 0.27 0.23 0.5 0.5 0.5 0.28 0 0.5-0.23 0.5-0.5 0-0.28-0.22-0.5-0.5-0.5zm6.33 0c-0.28 0-0.5 0.22-0.5 0.5 0 0.27 0.22 0.5 0.5 0.5 0.27 0 0.5-0.23 0.5-0.5 0-0.28-0.23-0.5-0.5-0.5zm-37.94 10.29c-0.27 0-0.5 0.23-0.5 0.5 0 0.28 0.23 0.5 0.5 0.5 0.28 0 0.5-0.22 0.5-0.5 0-0.27-0.22-0.5-0.5-0.5zm6.33 0c-0.28 0-0.5 0.23-0.5 0.5 0 0.28 0.22 0.5 0.5 0.5 0.27 0 0.5-0.22 0.5-0.5 0-0.27-0.23-0.5-0.5-0.5zm6.32 0c-0.28 0-0.5 0.23-0.5 0.5 0 0.28 0.22 0.5 0.5 0.5 0.27 0 0.5-0.22 0.5-0.5 0-0.27-0.23-0.5-0.5-0.5zm6.32 0c-0.28 0-0.5 0.23-0.5 0.5 0 0.28 0.22 0.5 0.5 0.5 0.28 0 0.5-0.22 0.5-0.5 0-0.27-0.22-0.5-0.5-0.5zm6.32 0c-0.27 0-0.5 0.23-0.5 0.5 0 0.28 0.23 0.5 0.5 0.5 0.28 0 0.5-0.22 0.5-0.5 0-0.27-0.22-0.5-0.5-0.5zm6.32 0c-0.27 0-0.5 0.23-0.5 0.5 0 0.28 0.23 0.5 0.5 0.5 0.28 0 0.5-0.22 0.5-0.5 0-0.27-0.22-0.5-0.5-0.5zm6.33 0c-0.28 0-0.5 0.23-0.5 0.5 0 0.28 0.22 0.5 0.5 0.5 0.27 0 0.5-0.22 0.5-0.5 0-0.27-0.23-0.5-0.5-0.5zm-34.68 5.15c-0.28 0-0.5 0.22-0.5 0.5 0 0.28 0.22 0.5 0.5 0.5 0.27 0 0.5-0.22 0.5-0.5 0-0.28-0.23-0.5-0.5-0.5zm6.32 0c-0.28 0-0.5 0.22-0.5 0.5 0 0.28 0.22 0.5 0.5 0.5 0.27 0 0.5-0.22 0.5-0.5 0-0.28-0.23-0.5-0.5-0.5zm-13.18 0.98q0.11 0.02 0.22 0.02c0.43 0 0.77-0.22 0.77-0.5 0-0.28-0.34-0.5-0.77-0.5q-0.12 0-0.23 0.02m19.51-0.02c-0.28 0-0.5 0.22-0.5 0.5 0 0.28 0.22 0.5 0.5 0.5 0.28 0 0.5-0.22 0.5-0.5 0-0.28-0.22-0.5-0.5-0.5zm6.32 0c-0.27 0-0.5 0.22-0.5 0.5 0 0.28 0.23 0.5 0.5 0.5 0.28 0 0.5-0.22 0.5-0.5 0-0.28-0.22-0.5-0.5-0.5zm6.32 0c-0.27 0-0.5 0.22-0.5 0.5 0 0.28 0.23 0.5 0.5 0.5 0.28 0 0.5-0.22 0.5-0.5 0-0.28-0.22-0.5-0.5-0.5zm6.33 0c-0.28 0-0.5 0.22-0.5 0.5 0 0.28 0.22 0.5 0.5 0.5 0.27 0 0.5-0.22 0.5-0.5 0-0.28-0.23-0.5-0.5-0.5zm6.68 0.01q-0.08-0.01-0.17-0.01c-0.46 0-0.83 0.22-0.83 0.5 0 0.28 0.37 0.5 0.83 0.5q0.09 0 0.17-0.01m-38.29-11.28c-0.28 0-0.5 0.22-0.5 0.5 0 0.27 0.22 0.5 0.5 0.5 0.27 0 0.5-0.23 0.5-0.5 0-0.28-0.23-0.5-0.5-0.5zm6.32 0c-0.28 0-0.5 0.22-0.5 0.5 0 0.27 0.22 0.5 0.5 0.5 0.27 0 0.5-0.23 0.5-0.5 0-0.28-0.23-0.5-0.5-0.5zm-13.18 0.97q0.11 0.03 0.22 0.03c0.43 0 0.77-0.23 0.77-0.5 0-0.28-0.34-0.5-0.77-0.5q-0.12 0-0.23 0.02m19.51-0.02c-0.28 0-0.5 0.22-0.5 0.5 0 0.27 0.22 0.5 0.5 0.5 0.28 0 0.5-0.23 0.5-0.5 0-0.28-0.22-0.5-0.5-0.5zm6.32 0c-0.27 0-0.5 0.22-0.5 0.5 0 0.27 0.23 0.5 0.5 0.5 0.28 0 0.5-0.23 0.5-0.5 0-0.28-0.22-0.5-0.5-0.5zm6.32 0c-0.27 0-0.5 0.22-0.5 0.5 0 0.27 0.23 0.5 0.5 0.5 0.28 0 0.5-0.23 0.5-0.5 0-0.28-0.22-0.5-0.5-0.5zm6.33 0c-0.28 0-0.5 0.22-0.5 0.5 0 0.27 0.22 0.5 0.5 0.5 0.27 0 0.5-0.23 0.5-0.5 0-0.28-0.23-0.5-0.5-0.5zm6.68 0.01q-0.08-0.01-0.17-0.01c-0.46 0-0.83 0.22-0.83 0.5 0 0.27 0.37 0.5 0.83 0.5q0.09 0 0.17-0.01m-38.29-11.29c-0.28 0-0.5 0.22-0.5 0.5 0 0.28 0.22 0.5 0.5 0.5 0.27 0 0.5-0.22 0.5-0.5 0-0.28-0.23-0.5-0.5-0.5zm6.32 0c-0.28 0-0.5 0.22-0.5 0.5 0 0.28 0.22 0.5 0.5 0.5 0.27 0 0.5-0.22 0.5-0.5 0-0.28-0.23-0.5-0.5-0.5zm-13.18 0.98q0.11 0.02 0.22 0.02c0.43 0 0.77-0.22 0.77-0.5 0-0.28-0.34-0.5-0.77-0.5q-0.12 0-0.23 0.02m19.51-0.02c-0.28 0-0.5 0.22-0.5 0.5 0 0.28 0.22 0.5 0.5 0.5 0.28 0 0.5-0.22 0.5-0.5 0-0.28-0.22-0.5-0.5-0.5zm6.32 0c-0.27 0-0.5 0.22-0.5 0.5 0 0.28 0.23 0.5 0.5 0.5 0.28 0 0.5-0.22 0.5-0.5 0-0.28-0.22-0.5-0.5-0.5zm6.32 0c-0.27 0-0.5 0.22-0.5 0.5 0 0.28 0.23 0.5 0.5 0.5 0.28 0 0.5-0.22 0.5-0.5 0-0.28-0.22-0.5-0.5-0.5zm6.33 0c-0.28 0-0.5 0.22-0.5 0.5 0 0.28 0.22 0.5 0.5 0.5 0.27 0 0.5-0.22 0.5-0.5 0-0.28-0.23-0.5-0.5-0.5zm6.68 0.01q-0.08-0.01-0.17-0.01c-0.46 0-0.83 0.22-0.83 0.5 0 0.28 0.37 0.5 0.83 0.5q0.09 0 0.17-0.01m-38.29-11.29c-0.28 0-0.5 0.23-0.5 0.5 0 0.28 0.22 0.5 0.5 0.5 0.27 0 0.5-0.22 0.5-0.5 0-0.27-0.23-0.5-0.5-0.5zm6.32 0c-0.28 0-0.5 0.23-0.5 0.5 0 0.28 0.22 0.5 0.5 0.5 0.27 0 0.5-0.22 0.5-0.5 0-0.27-0.23-0.5-0.5-0.5zm-13.18 0.98q0.11 0.02 0.22 0.02c0.43 0 0.77-0.22 0.77-0.5 0-0.27-0.34-0.5-0.77-0.5q-0.12 0-0.23 0.03m19.51-0.03c-0.28 0-0.5 0.23-0.5 0.5 0 0.28 0.22 0.5 0.5 0.5 0.28 0 0.5-0.22 0.5-0.5 0-0.27-0.22-0.5-0.5-0.5zm6.32 0c-0.27 0-0.5 0.23-0.5 0.5 0 0.28 0.23 0.5 0.5 0.5 0.28 0 0.5-0.22 0.5-0.5 0-0.27-0.22-0.5-0.5-0.5zm6.32 0c-0.27 0-0.5 0.23-0.5 0.5 0 0.28 0.23 0.5 0.5 0.5 0.28 0 0.5-0.22 0.5-0.5 0-0.27-0.22-0.5-0.5-0.5zm6.33 0c-0.28 0-0.5 0.23-0.5 0.5 0 0.28 0.22 0.5 0.5 0.5 0.27 0 0.5-0.22 0.5-0.5 0-0.27-0.23-0.5-0.5-0.5zm6.68 0.01q-0.08-0.01-0.17-0.01c-0.46 0-0.83 0.23-0.83 0.5 0 0.28 0.37 0.5 0.83 0.5q0.09 0 0.17-0.01m-38.29-11.28c-0.28 0-0.5 0.22-0.5 0.5 0 0.27 0.22 0.5 0.5 0.5 0.27 0 0.5-0.23 0.5-0.5 0-0.28-0.23-0.5-0.5-0.5zm6.32 0c-0.28 0-0.5 0.22-0.5 0.5 0 0.27 0.22 0.5 0.5 0.5 0.27 0 0.5-0.23 0.5-0.5 0-0.28-0.23-0.5-0.5-0.5zm-13.18 0.98q0.11 0.02 0.22 0.02c0.43 0 0.77-0.23 0.77-0.5 0-0.28-0.34-0.5-0.77-0.5q-0.12 0-0.23 0.02m19.51-0.02c-0.28 0-0.5 0.22-0.5 0.5 0 0.27 0.22 0.5 0.5 0.5 0.28 0 0.5-0.23 0.5-0.5 0-0.28-0.22-0.5-0.5-0.5zm6.32 0c-0.27 0-0.5 0.22-0.5 0.5 0 0.27 0.23 0.5 0.5 0.5 0.28 0 0.5-0.23 0.5-0.5 0-0.28-0.22-0.5-0.5-0.5zm6.32 0c-0.27 0-0.5 0.22-0.5 0.5 0 0.27 0.23 0.5 0.5 0.5 0.28 0 0.5-0.23 0.5-0.5 0-0.28-0.22-0.5-0.5-0.5zm6.33 0c-0.28 0-0.5 0.22-0.5 0.5 0 0.27 0.22 0.5 0.5 0.5 0.27 0 0.5-0.23 0.5-0.5 0-0.28-0.23-0.5-0.5-0.5zm6.68 0.01q-0.08-0.01-0.17-0.01c-0.46 0-0.83 0.22-0.83 0.5 0 0.27 0.37 0.5 0.83 0.5q0.09 0 0.17-0.01m-41.55 45.34c-0.27 0-0.5 0.22-0.5 0.5 0 0.28 0.23 0.5 0.5 0.5 0.28 0 0.5-0.22 0.5-0.5 0-0.28-0.22-0.5-0.5-0.5zm6.33 0c-0.28 0-0.5 0.22-0.5 0.5 0 0.28 0.22 0.5 0.5 0.5 0.27 0 0.5-0.22 0.5-0.5 0-0.28-0.23-0.5-0.5-0.5zm6.32 0c-0.28 0-0.5 0.22-0.5 0.5 0 0.28 0.22 0.5 0.5 0.5 0.27 0 0.5-0.22 0.5-0.5 0-0.28-0.23-0.5-0.5-0.5zm6.32 0c-0.28 0-0.5 0.22-0.5 0.5 0 0.28 0.22 0.5 0.5 0.5 0.28 0 0.5-0.22 0.5-0.5 0-0.28-0.22-0.5-0.5-0.5zm6.32 0c-0.27 0-0.5 0.22-0.5 0.5 0 0.28 0.23 0.5 0.5 0.5 0.28 0 0.5-0.22 0.5-0.5 0-0.28-0.22-0.5-0.5-0.5zm6.32 0c-0.27 0-0.5 0.22-0.5 0.5 0 0.28 0.23 0.5 0.5 0.5 0.28 0 0.5-0.22 0.5-0.5 0-0.28-0.22-0.5-0.5-0.5zm6.33 0c-0.28 0-0.5 0.22-0.5 0.5 0 0.28 0.22 0.5 0.5 0.5 0.27 0 0.5-0.22 0.5-0.5 0-0.28-0.23-0.5-0.5-0.5z"/>
				</g>
			</g>
			<path id="base" fill="none" stroke="currentColor" stroke-linecap="round" stroke-miterlimit="10" d="m3531.64 1706.38v14.1c0 1.48 1.19 2.69 2.67 2.71 25.19 0.36 44.39 2.24 44.39 4.51 0 2.52-23.82 4.57-53.2 4.57-29.38 0-53.2-2.05-53.2-4.57 0-2.27 19.2-4.15 44.39-4.51 1.48-0.02 2.67-1.23 2.67-2.71v-14.1m-47.06 21.32v5.64c0 2.53 23.82 4.58 53.2 4.58 29.38 0 53.2-2.05 53.2-4.58v-5.64"/>
			<g id="fitting">
				<g id="rings">
					<path id="ring 00000046304004576915419200000018087012375486216892 " fill="none" stroke="currentColor" stroke-linecap="round" stroke-miterlimit="10" d="m3515.46 1631.2v0.77c0 0.55 0.45 1 1 1h18.08c0.55 0 1-0.45 1-1v-0.77"/>
					<path id="ring 00000152969081457849837190000010196285809019811723 " fill="none" stroke="currentColor" stroke-linecap="round" stroke-miterlimit="10" d="m3542.66 1631.2v0.77c0 0.55 0.45 1 1 1h8.73c0.5 0 0.91-0.4 0.91-0.9v-3.62c0-0.49-0.41-0.9-0.91-0.9h-53.78c-0.5 0-0.91 0.41-0.91 0.9v3.62c0 0.5 0.41 0.9 0.91 0.9h8.73c0.55 0 1-0.45 1-1v-0.77"/>
					<path id="ring 00000065070439983248977640000005247075013094756744 " fill="none" stroke="currentColor" stroke-linecap="round" stroke-miterlimit="10" d="m3567.23 1647.5c0.5 0 0.91-0.4 0.91-0.9v-0.9c0-0.5-0.41-0.91-0.91-0.91h-83.46c-0.5 0-0.91 0.41-0.91 0.91v0.9c0 0.5 0.41 0.9 0.91 0.9z"/>
					<path id="ring 00000143615628493012879820000004755268307224938370 " fill="none" stroke="currentColor" stroke-linecap="round" stroke-miterlimit="10" d="m3508.34 1674.18v-0.77c0-0.55-0.45-1-1-1h-8.73c-0.5 0-0.91 0.4-0.91 0.9v3.62c0 0.49 0.41 0.9 0.91 0.9h53.78c0.5 0 0.91-0.41 0.91-0.9v-3.62c0-0.5-0.41-0.9-0.91-0.9h-8.73c-0.55 0-1 0.45-1 1v0.77"/>
					<path id="ring 00000101816617432436412540000018083016262642150032 " fill="none" stroke="currentColor" stroke-linecap="round" stroke-miterlimit="10" d="m3535.54 1674.18v-0.77c0-0.55-0.45-1-1-1h-18.08c-0.55 0-1 0.45-1 1v0.77"/>
					<path id="ring 00000170965648782438657180000017591202708978874008 " fill="none" stroke="currentColor" stroke-linecap="round" stroke-miterlimit="10" d="m3567.23 1660.39c0.5 0 0.91-0.41 0.91-0.91v-0.9c0-0.5-0.41-0.9-0.91-0.9h-83.46c-0.5 0-0.91 0.4-0.91 0.9v0.9c0 0.5 0.41 0.91 0.91 0.91z"/>
				</g>
				<g id="strings">
					<path id="string" fill="none" stroke="currentColor" stroke-linecap="round" stroke-miterlimit="10" d="m3502.32 1632.97l-14.28 11.82m19.28-11.82l-14.28 11.82"/>
					<path id="string 00000147914822810567712920000013270589951534867128 " fill="none" stroke="currentColor" stroke-linecap="round" stroke-miterlimit="10" d="m3562.96 1644.79l-14.28-11.82m9.28 11.82l-14.28-11.82"/>
					<path id="string 00000070110236465425154860000014262429492972974743 " fill="none" stroke="currentColor" stroke-linecap="round" stroke-miterlimit="10" d="m3488.04 1660.39l14.28 12.02m-9.28-12.02l14.28 12.02"/>
					<path id="string 00000063597561707163898130000014070251323313434258 " fill="none" stroke="currentColor" stroke-linecap="round" stroke-miterlimit="10" d="m3548.68 1672.41l14.28-12.02m-19.28 12.02l14.28-12.02"/>
					<path id="string 00000103960526765836933620000017344726986556788882 " fill="none" stroke="currentColor" stroke-linecap="round" stroke-miterlimit="10" d="m3537.34 1660.39v13.13c0 0.55 0.45 1 1 1h1.51c0.56 0 1-0.45 1-1v-13.13"/>
					<path id="string 00000152225197138299598760000012585231436295513531 " fill="none" stroke="currentColor" stroke-linecap="round" stroke-miterlimit="10" d="m3510.15 1660.39v13.13c0 0.55 0.44 1 1 1h1.51c0.55 0 1-0.45 1-1v-13.13"/>
					<path id="string 00000003798607139403833580000012999949755802695091 " fill="none" stroke="currentColor" stroke-linecap="round" stroke-miterlimit="10" d="m3540.85 1644.79v-12.93c0-0.55-0.44-1-1-1h-1.51c-0.55 0-1 0.45-1 1v12.93"/>
					<path id="string 00000078016967331877651140000005173216947939640971 " fill="none" stroke="currentColor" stroke-linecap="round" stroke-miterlimit="10" d="m3513.66 1644.79v-12.93c0-0.55-0.45-1-1-1h-1.51c-0.56 0-1 0.45-1 1v12.93"/>
				</g>
				<g id="bars 00000029744946629590241550000013138124206547105173 ">
					<path id="bar 00000078023310232959542590000010008890350245087917 " fill="none" stroke="currentColor" stroke-linecap="round" stroke-miterlimit="10" d="m3492.43 1647.5v10.18m6.2-10.18v10.18"/>
					<path id="bar 00000166641742114621750310000011951905591669332638 " fill="none" stroke="currentColor" stroke-linecap="round" stroke-miterlimit="10" d="m3558.57 1657.68v-10.18m-6.2 10.18v-10.18"/>
				</g>
			</g>
		</g>
</g>
</svg>