<svg xmlns="http://www.w3.org/2000/svg" viewBox="0 0 213.06 221.94">
<g transform="translate(-3725.69,-1529.74)" stroke-width="13.06">
<g id="Mic-icon-v2 00000005945414079900381870000016517469265455887794 ">
			<g id="sections 00000088814657272470146670000008540559918514280872 ">
				<path id="section 00000054981940605669128840000004905715360142008754 " fill="currentColor" stroke="currentColor" stroke-linecap="round" stroke-linejoin="round" d="m3770.03 1549.06v-2.32c0-1.11 0.89-2 2-2h45.16c1.1 0 2 0.89 2 2v2.32z"/>
				<path id="section 00000018925891165466957850000001257934945912926649 " fill="currentColor" stroke="currentColor" stroke-linecap="round" stroke-linejoin="round" d="m3819.19 1691.82l-8 7.77h-33.16l-8-7.77m49.16-78.64v78.64h-49.16v-78.64z"/>
				<g id="mesh-section 00000039841067745436671160000008753204522077783936 ">
					<path id="&lt;Path&gt;" fill="currentColor" stroke="currentColor" stroke-linecap="round" stroke-linejoin="round" d="m3772.03 1610.47v-58.7"/>
					<path id="&lt;Path&gt;" fill="currentColor" stroke="currentColor" stroke-linecap="round" stroke-linejoin="round" d="m3817.19 1551.77v58.7"/>
					<path id="mesh 00000065051378518837976600000000571985625472633766 " fill="currentColor" stroke="currentColor" stroke-linecap="round" stroke-linejoin="round" d="m3776.14 1555.38c0 0.28-0.22 0.5-0.5 0.5-0.27 0-0.5-0.22-0.5-0.5 0-0.28 0.23-0.5 0.5-0.5 0.28 0 0.5 0.22 0.5 0.5zm5.82-0.5c-0.27 0-0.5 0.22-0.5 0.5 0 0.28 0.23 0.5 0.5 0.5 0.28 0 0.5-0.22 0.5-0.5 0-0.28-0.22-0.5-0.5-0.5zm6.33 0c-0.28 0-0.5 0.22-0.5 0.5 0 0.28 0.22 0.5 0.5 0.5 0.27 0 0.5-0.22 0.5-0.5 0-0.28-0.23-0.5-0.5-0.5zm6.32 0c-0.28 0-0.5 0.22-0.5 0.5 0 0.28 0.22 0.5 0.5 0.5 0.27 0 0.5-0.22 0.5-0.5 0-0.28-0.23-0.5-0.5-0.5zm6.32 0c-0.28 0-0.5 0.22-0.5 0.5 0 0.28 0.22 0.5 0.5 0.5 0.28 0 0.5-0.22 0.5-0.5 0-0.28-0.22-0.5-0.5-0.5zm6.32 0c-0.27 0-0.5 0.22-0.5 0.5 0 0.28 0.23 0.5 0.5 0.5 0.28 0 0.5-0.22 0.5-0.5 0-0.28-0.22-0.5-0.5-0.5zm6.32 0c-0.27 0-0.5 0.22-0.5 0.5 0 0.28 0.23 0.5 0.5 0.5 0.28 0 0.5-0.22 0.5-0.5 0-0.28-0.22-0.5-0.5-0.5zm-37.93 10.29c-0.27 0-0.5 0.23-0.5 0.5 0 0.28 0.23 0.5 0.5 0.5 0.28 0 0.5-0.22 0.5-0.5 0-0.27-0.22-0.5-0.5-0.5zm6.32 0c-0.27 0-0.5 0.23-0.5 0.5 0 0.28 0.23 0.5 0.5 0.5 0.28 0 0.5-0.22 0.5-0.5 0-0.27-0.22-0.5-0.5-0.5zm6.33 0c-0.28 0-0.5 0.23-0.5 0.5 0 0.28 0.22 0.5 0.5 0.5 0.27 0 0.5-0.22 0.5-0.5 0-0.27-0.23-0.5-0.5-0.5zm6.32 0c-0.28 0-0.5 0.23-0.5 0.5 0 0.28 0.22 0.5 0.5 0.5 0.27 0 0.5-0.22 0.5-0.5 0-0.27-0.23-0.5-0.5-0.5zm6.32 0c-0.28 0-0.5 0.23-0.5 0.5 0 0.28 0.22 0.5 0.5 0.5 0.28 0 0.5-0.22 0.5-0.5 0-0.27-0.22-0.5-0.5-0.5zm6.32 0c-0.27 0-0.5 0.23-0.5 0.5 0 0.28 0.23 0.5 0.5 0.5 0.28 0 0.5-0.22 0.5-0.5 0-0.27-0.22-0.5-0.5-0.5zm6.32 0c-0.27 0-0.5 0.23-0.5 0.5 0 0.28 0.23 0.5 0.5 0.5 0.28 0 0.5-0.22 0.5-0.5 0-0.27-0.22-0.5-0.5-0.5zm-37.93 10.3c-0.27 0-0.5 0.22-0.5 0.5 0 0.28 0.23 0.5 0.5 0.5 0.28 0 0.5-0.22 0.5-0.5 0-0.28-0.22-0.5-0.5-0.5zm6.32 0c-0.27 0-0.5 0.22-0.5 0.5 0 0.28 0.23 0.5 0.5 0.5 0.28 0 0.5-0.22 0.5-0.5 0-0.28-0.22-0.5-0.5-0.5zm6.33 0c-0.28 0-0.5 0.22-0.5 0.5 0 0.28 0.22 0.5 0.5 0.5 0.27 0 0.5-0.22 0.5-0.5 0-0.28-0.23-0.5-0.5-0.5zm6.32 0c-0.28 0-0.5 0.22-0.5 0.5 0 0.28 0.22 0.5 0.5 0.5 0.27 0 0.5-0.22 0.5-0.5 0-0.28-0.23-0.5-0.5-0.5zm6.32 0c-0.28 0-0.5 0.22-0.5 0.5 0 0.28 0.22 0.5 0.5 0.5 0.28 0 0.5-0.22 0.5-0.5 0-0.28-0.22-0.5-0.5-0.5zm6.32 0c-0.27 0-0.5 0.22-0.5 0.5 0 0.28 0.23 0.5 0.5 0.5 0.28 0 0.5-0.22 0.5-0.5 0-0.28-0.22-0.5-0.5-0.5zm6.32 0c-0.27 0-0.5 0.22-0.5 0.5 0 0.28 0.23 0.5 0.5 0.5 0.28 0 0.5-0.22 0.5-0.5 0-0.28-0.22-0.5-0.5-0.5zm-37.93 10.3c-0.27 0-0.5 0.22-0.5 0.5 0 0.27 0.23 0.5 0.5 0.5 0.28 0 0.5-0.23 0.5-0.5 0-0.28-0.22-0.5-0.5-0.5zm6.32 0c-0.27 0-0.5 0.22-0.5 0.5 0 0.27 0.23 0.5 0.5 0.5 0.28 0 0.5-0.23 0.5-0.5 0-0.28-0.22-0.5-0.5-0.5zm6.33 0c-0.28 0-0.5 0.22-0.5 0.5 0 0.27 0.22 0.5 0.5 0.5 0.27 0 0.5-0.23 0.5-0.5 0-0.28-0.23-0.5-0.5-0.5zm6.32 0c-0.28 0-0.5 0.22-0.5 0.5 0 0.27 0.22 0.5 0.5 0.5 0.27 0 0.5-0.23 0.5-0.5 0-0.28-0.23-0.5-0.5-0.5zm6.32 0c-0.28 0-0.5 0.22-0.5 0.5 0 0.27 0.22 0.5 0.5 0.5 0.28 0 0.5-0.23 0.5-0.5 0-0.28-0.22-0.5-0.5-0.5zm6.32 0c-0.27 0-0.5 0.22-0.5 0.5 0 0.27 0.23 0.5 0.5 0.5 0.28 0 0.5-0.23 0.5-0.5 0-0.28-0.22-0.5-0.5-0.5zm6.32 0c-0.27 0-0.5 0.22-0.5 0.5 0 0.27 0.23 0.5 0.5 0.5 0.28 0 0.5-0.23 0.5-0.5 0-0.28-0.22-0.5-0.5-0.5zm-37.93 10.29c-0.27 0-0.5 0.23-0.5 0.5 0 0.28 0.23 0.5 0.5 0.5 0.28 0 0.5-0.22 0.5-0.5 0-0.27-0.22-0.5-0.5-0.5zm6.32 0c-0.27 0-0.5 0.23-0.5 0.5 0 0.28 0.23 0.5 0.5 0.5 0.28 0 0.5-0.22 0.5-0.5 0-0.27-0.22-0.5-0.5-0.5zm6.33 0c-0.28 0-0.5 0.23-0.5 0.5 0 0.28 0.22 0.5 0.5 0.5 0.27 0 0.5-0.22 0.5-0.5 0-0.27-0.23-0.5-0.5-0.5zm6.32 0c-0.28 0-0.5 0.23-0.5 0.5 0 0.28 0.22 0.5 0.5 0.5 0.27 0 0.5-0.22 0.5-0.5 0-0.27-0.23-0.5-0.5-0.5zm6.32 0c-0.28 0-0.5 0.23-0.5 0.5 0 0.28 0.22 0.5 0.5 0.5 0.28 0 0.5-0.22 0.5-0.5 0-0.27-0.22-0.5-0.5-0.5zm6.32 0c-0.27 0-0.5 0.23-0.5 0.5 0 0.28 0.23 0.5 0.5 0.5 0.28 0 0.5-0.22 0.5-0.5 0-0.27-0.22-0.5-0.5-0.5zm6.32 0c-0.27 0-0.5 0.23-0.5 0.5 0 0.28 0.23 0.5 0.5 0.5 0.28 0 0.5-0.22 0.5-0.5 0-0.27-0.22-0.5-0.5-0.5zm-34.68 5.15c-0.27 0-0.5 0.22-0.5 0.5 0 0.28 0.23 0.5 0.5 0.5 0.28 0 0.5-0.22 0.5-0.5 0-0.28-0.22-0.5-0.5-0.5zm6.32 0c-0.27 0-0.5 0.22-0.5 0.5 0 0.28 0.23 0.5 0.5 0.5 0.28 0 0.5-0.22 0.5-0.5 0-0.28-0.22-0.5-0.5-0.5zm-13.17 0.98q0.1 0.02 0.22 0.02c0.42 0 0.77-0.22 0.77-0.5 0-0.28-0.35-0.5-0.77-0.5q-0.12 0-0.23 0.02m19.51-0.02c-0.28 0-0.5 0.22-0.5 0.5 0 0.28 0.22 0.5 0.5 0.5 0.27 0 0.5-0.22 0.5-0.5 0-0.28-0.23-0.5-0.5-0.5zm6.32 0c-0.28 0-0.5 0.22-0.5 0.5 0 0.28 0.22 0.5 0.5 0.5 0.27 0 0.5-0.22 0.5-0.5 0-0.28-0.23-0.5-0.5-0.5zm6.32 0c-0.28 0-0.5 0.22-0.5 0.5 0 0.28 0.22 0.5 0.5 0.5 0.28 0 0.5-0.22 0.5-0.5 0-0.28-0.22-0.5-0.5-0.5zm6.32 0c-0.27 0-0.5 0.22-0.5 0.5 0 0.28 0.23 0.5 0.5 0.5 0.28 0 0.5-0.22 0.5-0.5 0-0.28-0.22-0.5-0.5-0.5zm6.69 0.01q-0.08-0.01-0.17-0.01c-0.46 0-0.83 0.22-0.83 0.5 0 0.28 0.37 0.5 0.83 0.5q0.09 0 0.17-0.01m-38.3-11.29c-0.27 0-0.5 0.23-0.5 0.5 0 0.28 0.23 0.5 0.5 0.5 0.28 0 0.5-0.22 0.5-0.5 0-0.27-0.22-0.5-0.5-0.5zm6.32 0c-0.27 0-0.5 0.23-0.5 0.5 0 0.28 0.23 0.5 0.5 0.5 0.28 0 0.5-0.22 0.5-0.5 0-0.27-0.22-0.5-0.5-0.5zm-13.17 0.98q0.1 0.02 0.22 0.02c0.42 0 0.77-0.22 0.77-0.5 0-0.27-0.35-0.5-0.77-0.5q-0.12 0-0.23 0.03m19.51-0.03c-0.28 0-0.5 0.23-0.5 0.5 0 0.28 0.22 0.5 0.5 0.5 0.27 0 0.5-0.22 0.5-0.5 0-0.27-0.23-0.5-0.5-0.5zm6.32 0c-0.28 0-0.5 0.23-0.5 0.5 0 0.28 0.22 0.5 0.5 0.5 0.27 0 0.5-0.22 0.5-0.5 0-0.27-0.23-0.5-0.5-0.5zm6.32 0c-0.28 0-0.5 0.23-0.5 0.5 0 0.28 0.22 0.5 0.5 0.5 0.28 0 0.5-0.22 0.5-0.5 0-0.27-0.22-0.5-0.5-0.5zm6.32 0c-0.27 0-0.5 0.23-0.5 0.5 0 0.28 0.23 0.5 0.5 0.5 0.28 0 0.5-0.22 0.5-0.5 0-0.27-0.22-0.5-0.5-0.5zm6.69 0.01q-0.08-0.01-0.17-0.01c-0.46 0-0.83 0.23-0.83 0.5 0 0.28 0.37 0.5 0.83 0.5q0.09 0 0.17-0.01m-38.3-11.28c-0.27 0-0.5 0.22-0.5 0.5 0 0.27 0.23 0.5 0.5 0.5 0.28 0 0.5-0.23 0.5-0.5 0-0.28-0.22-0.5-0.5-0.5zm6.32 0c-0.27 0-0.5 0.22-0.5 0.5 0 0.27 0.23 0.5 0.5 0.5 0.28 0 0.5-0.23 0.5-0.5 0-0.28-0.22-0.5-0.5-0.5zm-13.17 0.98q0.1 0.02 0.22 0.02c0.42 0 0.77-0.23 0.77-0.5 0-0.28-0.35-0.5-0.77-0.5q-0.12 0-0.23 0.02m19.51-0.02c-0.28 0-0.5 0.22-0.5 0.5 0 0.27 0.22 0.5 0.5 0.5 0.27 0 0.5-0.23 0.5-0.5 0-0.28-0.23-0.5-0.5-0.5zm6.32 0c-0.28 0-0.5 0.22-0.5 0.5 0 0.27 0.22 0.5 0.5 0.5 0.27 0 0.5-0.23 0.5-0.5 0-0.28-0.23-0.5-0.5-0.5zm6.32 0c-0.28 0-0.5 0.22-0.5 0.5 0 0.27 0.22 0.5 0.5 0.5 0.28 0 0.5-0.23 0.5-0.5 0-0.28-0.22-0.5-0.5-0.5zm6.32 0c-0.27 0-0.5 0.22-0.5 0.5 0 0.27 0.23 0.5 0.5 0.5 0.28 0 0.5-0.23 0.5-0.5 0-0.28-0.22-0.5-0.5-0.5zm6.69 0.01q-0.08-0.01-0.17-0.01c-0.46 0-0.83 0.22-0.83 0.5 0 0.27 0.37 0.5 0.83 0.5q0.09 0 0.17-0.01m-38.3-11.29c-0.27 0-0.5 0.23-0.5 0.5 0 0.28 0.23 0.5 0.5 0.5 0.28 0 0.5-0.22 0.5-0.5 0-0.27-0.22-0.5-0.5-0.5zm6.32 0c-0.27 0-0.5 0.23-0.5 0.5 0 0.28 0.23 0.5 0.5 0.5 0.28 0 0.5-0.22 0.5-0.5 0-0.27-0.22-0.5-0.5-0.5zm-13.17 0.98q0.1 0.02 0.22 0.02c0.42 0 0.77-0.22 0.77-0.5 0-0.27-0.35-0.5-0.77-0.5q-0.12 0-0.23 0.03m19.51-0.03c-0.28 0-0.5 0.23-0.5 0.5 0 0.28 0.22 0.5 0.5 0.5 0.27 0 0.5-0.22 0.5-0.5 0-0.27-0.23-0.5-0.5-0.5zm6.32 0c-0.28 0-0.5 0.23-0.5 0.5 0 0.28 0.22 0.5 0.5 0.5 0.27 0 0.5-0.22 0.5-0.5 0-0.27-0.23-0.5-0.5-0.5zm6.32 0c-0.28 0-0.5 0.23-0.5 0.5 0 0.28 0.22 0.5 0.5 0.5 0.28 0 0.5-0.22 0.5-0.5 0-0.27-0.22-0.5-0.5-0.5zm6.32 0c-0.27 0-0.5 0.23-0.5 0.5 0 0.28 0.23 0.5 0.5 0.5 0.28 0 0.5-0.22 0.5-0.5 0-0.27-0.22-0.5-0.5-0.5zm6.69 0.01q-0.08-0.01-0.17-0.01c-0.46 0-0.83 0.23-0.83 0.5 0 0.28 0.37 0.5 0.83 0.5q0.09 0 0.17-0.01m-38.3-11.28c-0.27 0-0.5 0.22-0.5 0.5 0 0.27 0.23 0.5 0.5 0.5 0.28 0 0.5-0.23 0.5-0.5 0-0.28-0.22-0.5-0.5-0.5zm6.32 0c-0.27 0-0.5 0.22-0.5 0.5 0 0.27 0.23 0.5 0.5 0.5 0.28 0 0.5-0.23 0.5-0.5 0-0.28-0.22-0.5-0.5-0.5zm-13.17 0.98q0.1 0.02 0.22 0.02c0.42 0 0.77-0.23 0.77-0.5 0-0.28-0.35-0.5-0.77-0.5q-0.12 0-0.23 0.02m19.51-0.02c-0.28 0-0.5 0.22-0.5 0.5 0 0.27 0.22 0.5 0.5 0.5 0.27 0 0.5-0.23 0.5-0.5 0-0.28-0.23-0.5-0.5-0.5zm6.32 0c-0.28 0-0.5 0.22-0.5 0.5 0 0.27 0.22 0.5 0.5 0.5 0.27 0 0.5-0.23 0.5-0.5 0-0.28-0.23-0.5-0.5-0.5zm6.32 0c-0.28 0-0.5 0.22-0.5 0.5 0 0.27 0.22 0.5 0.5 0.5 0.28 0 0.5-0.23 0.5-0.5 0-0.28-0.22-0.5-0.5-0.5zm6.32 0c-0.27 0-0.5 0.22-0.5 0.5 0 0.27 0.23 0.5 0.5 0.5 0.28 0 0.5-0.23 0.5-0.5 0-0.28-0.22-0.5-0.5-0.5zm6.69 0.01q-0.08-0.01-0.17-0.01c-0.46 0-0.83 0.22-0.83 0.5 0 0.27 0.37 0.5 0.83 0.5q0.09 0 0.17-0.01m-41.55 45.34c-0.27 0-0.5 0.22-0.5 0.5 0 0.27 0.23 0.5 0.5 0.5 0.28 0 0.5-0.23 0.5-0.5 0-0.28-0.22-0.5-0.5-0.5zm6.32 0c-0.27 0-0.5 0.22-0.5 0.5 0 0.27 0.23 0.5 0.5 0.5 0.28 0 0.5-0.23 0.5-0.5 0-0.28-0.22-0.5-0.5-0.5zm6.33 0c-0.28 0-0.5 0.22-0.5 0.5 0 0.27 0.22 0.5 0.5 0.5 0.27 0 0.5-0.23 0.5-0.5 0-0.28-0.23-0.5-0.5-0.5zm6.32 0c-0.28 0-0.5 0.22-0.5 0.5 0 0.27 0.22 0.5 0.5 0.5 0.27 0 0.5-0.23 0.5-0.5 0-0.28-0.23-0.5-0.5-0.5zm6.32 0c-0.28 0-0.5 0.22-0.5 0.5 0 0.27 0.22 0.5 0.5 0.5 0.28 0 0.5-0.23 0.5-0.5 0-0.28-0.22-0.5-0.5-0.5zm6.32 0c-0.27 0-0.5 0.22-0.5 0.5 0 0.27 0.23 0.5 0.5 0.5 0.28 0 0.5-0.23 0.5-0.5 0-0.28-0.22-0.5-0.5-0.5zm6.32 0c-0.27 0-0.5 0.22-0.5 0.5 0 0.27 0.23 0.5 0.5 0.5 0.28 0 0.5-0.23 0.5-0.5 0-0.28-0.22-0.5-0.5-0.5z"/>
				</g>
			</g>
			<g id="settings">
				<path id="dial 00000101084361463923787200000005047909955883315602 " fill="currentColor" stroke="currentColor" stroke-linecap="round" stroke-miterlimit="10" d="m3799.11 1640.56c0 2.48-2.02 4.5-4.5 4.5-2.49 0-4.5-2.02-4.5-4.5 0-2.49 2.01-4.5 4.5-4.5 2.48 0 4.5 2.01 4.5 4.5z"/>
				<path id="dials-plate" fill="currentColor" stroke="currentColor" stroke-linecap="round" stroke-miterlimit="10" d="m3786.61 1629.84c0-4.41 3.58-8 8-8 4.42 0 8 3.59 8 8v41.43c0 4.42-3.58 8-8 8-4.42 0-8-3.58-8-8z"/>
				<path id="balance" fill="currentColor" stroke="currentColor" stroke-linecap="round" stroke-miterlimit="10" d="m3794.61 1667.06v6m0-26v7m0-26v6"/>
				<path id="dial" fill="currentColor" stroke="currentColor" stroke-linecap="round" stroke-miterlimit="10" d="m3799.11 1660.56c0 2.48-2.02 4.5-4.5 4.5-2.49 0-4.5-2.02-4.5-4.5 0-2.49 2.01-4.5 4.5-4.5 2.48 0 4.5 2.01 4.5 4.5zm-6.76-2.26l1.67 1.67"/>
				<g id="icons">
					<g id="icons 00000019667652264526957540000000820085573151472519 ">
						<path id="&lt;Compound Path&gt;" fill="currentColor" d="m3799.73 1654.44q-0.4 0-0.71 0.29c-0.39 0.39-0.39 1.03 0 1.42q0.31 0.29 0.71 0.29 0.4 0 0.7-0.29c0.39-0.39 0.39-1.03 0-1.42q-0.3-0.29-0.7-0.29zm-10.24 0q-0.4 0-0.71 0.29c-0.39 0.39-0.39 1.03 0 1.42q0.31 0.29 0.71 0.29 0.4 0 0.71-0.29c0.39-0.39 0.39-1.03 0-1.42q-0.31-0.29-0.71-0.29zm10.24 1q0 0 0 0zm-10.24 0q0 0 0 0z"/>
					</g>
				</g>
			</g>
			<path id="stand" fill="currentColor" stroke="currentColor" stroke-linecap="round" stroke-linejoin="round" d="m3830.31 1647.06v-2h14v83.62h-14v-69.62m-11.12-2h12.12c1.23-0.91 2.03-2.36 2.03-4 0-1.64-0.8-3.09-2.03-4h-12.12m-78.5 79.62v8h34.18v-1.4c0-1.66 1.34-3 3-3h35.26c1.66 0 3 1.34 3 3v1.4h34.18v-8zm36.18 8h37.26"/>
		</g>
</g>
</svg>