<svg xmlns="http://www.w3.org/2000/svg" viewBox="0 0 223.66 406.13">
<g transform="translate(-618.28,-162.22)">
<g id="Z690-ATX-Motherboard-icon-v3">
			<path id="ram-sticks 00000160909818167431460430000015290422581885347761 " fill="currentColor" stroke="currentColor" stroke-linejoin="round" d="m752.91 381.77h5.27v6.08h-5.27zm7.94 6.08h5.28v-6.08h-5.28zm7.95 0h5.27v-6.08h-5.27zm7.94 0h5.28v-6.08h-5.28zm-23.83 60.08h5.27v-60.08h-5.27zm7.94 0h5.28v-60.08h-5.28zm7.95 0h5.27v-60.08h-5.27zm7.94 0h5.28v-60.07h-5.28zm-23.83 6.07h5.27v-6.07h-5.27zm7.94 0h5.28v-6.08h-5.28zm7.95 0h5.27v-6.08h-5.27zm7.94 0h5.28v-6.08h-5.28z"/>
			<path id="vrms 00000035529561156690696330000014948417413946345638 " fill="currentColor" stroke="currentColor" stroke-linecap="round" stroke-linejoin="round" d="m699.89 442.44c0 1.1-0.9 2-2 2-1.1 0-2-0.9-2-2 0-1.11 0.9-2 2-2 1.1 0 2 0.89 2 2zm-2-8.67c-1.1 0-2 0.9-2 2 0 1.11 0.9 2 2 2 1.1 0 2-0.89 2-2 0-1.1-0.9-2-2-2zm0-6.66c-1.1 0-2 0.89-2 2 0 1.1 0.9 2 2 2 1.1 0 2-0.9 2-2 0-1.11-0.9-2-2-2zm0-6.66c-1.1 0-2 0.89-2 2 0 1.1 0.9 2 2 2 1.1 0 2-0.9 2-2 0-1.11-0.9-2-2-2zm49.75-3c-1.1 0-2 0.89-2 2 0 1.1 0.9 2 2 2 1.11 0 2-0.9 2-2 0-1.11-0.89-2-2-2zm0-8.22c-1.1 0-2 0.89-2 2 0 1.1 0.9 2 2 2 1.11 0 2-0.9 2-2 0-1.11-0.89-2-2-2zm-49.75 4.55c-1.1 0-2 0.9-2 2 0 1.11 0.9 2 2 2 1.1 0 2-0.89 2-2 0-1.1-0.9-2-2-2zm0-6.66c-1.1 0-2 0.89-2 2 0 1.1 0.9 2 2 2 1.1 0 2-0.9 2-2 0-1.11-0.9-2-2-2zm-5.2 16.66c-1.1 0-2 0.89-2 2 0 1.1 0.9 2 2 2 1.11 0 2-0.9 2-2 0-1.11-0.89-2-2-2zm0-6.67c-1.1 0-2 0.9-2 2 0 1.11 0.9 2 2 2 1.11 0 2-0.89 2-2 0-1.1-0.89-2-2-2zm0-6.66c-1.1 0-2 0.89-2 2 0 1.1 0.9 2 2 2 1.11 0 2-0.9 2-2 0-1.11-0.89-2-2-2zm0-6.66c-1.1 0-2 0.89-2 2 0 1.1 0.9 2 2 2 1.11 0 2-0.9 2-2 0-1.11-0.89-2-2-2zm8.67-2.24c-1.11 0-2-0.9-2-2 0-1.11 0.89-2 2-2 1.1 0 2 0.89 2 2 0 1.1-0.9 2-2 2zm8.66-2c0-1.11-0.89-2-2-2-1.1 0-2 0.89-2 2 0 1.1 0.9 2 2 2 1.11 0 2-0.9 2-2zm6.67 0c0-1.11-0.9-2-2-2-1.11 0-2 0.89-2 2 0 1.1 0.89 2 2 2 1.1 0 2-0.9 2-2zm6.66 0c0-1.11-0.9-2-2-2-1.1 0-2 0.89-2 2 0 1.1 0.9 2 2 2 1.1 0 2-0.9 2-2zm6.66 0c0-1.11-0.89-2-2-2-1.1 0-2 0.89-2 2 0 1.1 0.9 2 2 2 1.11 0 2-0.9 2-2zm6.67 0c0-1.11-0.9-2-2-2-1.11 0-2 0.89-2 2 0 1.1 0.89 2 2 2 1.1 0 2-0.9 2-2z"/>
			<g id="cpu 00000015314851847450937110000013424418278633042078 ">
				<g id="smd-pads 00000047778770969548608900000000984537106224009128 ">
					<g id="smd-pads 00000137099848703072415860000000328191840158060424 ">
						<path id="&lt;Compound Path&gt;" fill="currentColor" d="m721.4 417.16c-0.47 0-0.86 0.39-0.86 0.86 0 0.47 0.39 0.85 0.86 0.85 0.47 0 0.85-0.38 0.85-0.85 0-0.47-0.38-0.86-0.85-0.86zm-3.08 0c-0.47 0-0.85 0.39-0.85 0.86 0 0.47 0.38 0.85 0.85 0.85 0.48 0 0.86-0.38 0.86-0.85 0-0.47-0.38-0.86-0.86-0.86zm-3.07 0c-0.47 0-0.85 0.39-0.85 0.86 0 0.47 0.38 0.85 0.85 0.85 0.47 0 0.86-0.38 0.86-0.85 0-0.47-0.39-0.86-0.86-0.86zm-3.07 0c-0.47 0-0.86 0.39-0.86 0.86 0 0.47 0.39 0.85 0.86 0.85 0.47 0 0.85-0.38 0.85-0.85 0-0.47-0.38-0.86-0.85-0.86zm9.22 3.08c-0.47 0-0.86 0.38-0.86 0.85 0 0.47 0.39 0.86 0.86 0.86 0.47 0 0.85-0.39 0.85-0.86 0-0.47-0.38-0.85-0.85-0.85zm-3.08 0c-0.47 0-0.85 0.38-0.85 0.85 0 0.47 0.38 0.86 0.85 0.86 0.48 0 0.86-0.39 0.86-0.86 0-0.47-0.38-0.85-0.86-0.85zm-3.07 0c-0.47 0-0.85 0.38-0.85 0.85 0 0.47 0.38 0.86 0.85 0.86 0.47 0 0.86-0.39 0.86-0.86 0-0.47-0.39-0.85-0.86-0.85zm-3.07 0c-0.47 0-0.86 0.38-0.86 0.85 0 0.47 0.39 0.86 0.86 0.86 0.47 0 0.85-0.39 0.85-0.86 0-0.47-0.38-0.85-0.85-0.85zm9.22 3.07c-0.47 0-0.86 0.38-0.86 0.85 0 0.48 0.39 0.86 0.86 0.86 0.47 0 0.85-0.38 0.85-0.86 0-0.47-0.38-0.85-0.85-0.85zm-3.08 0c-0.47 0-0.85 0.38-0.85 0.85 0 0.48 0.38 0.86 0.85 0.86 0.48 0 0.86-0.38 0.86-0.86 0-0.47-0.38-0.85-0.86-0.85zm-3.07 0c-0.47 0-0.85 0.38-0.85 0.85 0 0.48 0.38 0.86 0.85 0.86 0.47 0 0.86-0.38 0.86-0.86 0-0.47-0.39-0.85-0.86-0.85zm-3.07 0c-0.47 0-0.86 0.38-0.86 0.85 0 0.48 0.39 0.86 0.86 0.86 0.47 0 0.85-0.38 0.85-0.86 0-0.47-0.38-0.85-0.85-0.85zm9.22 3.07c-0.47 0-0.86 0.39-0.86 0.86 0 0.47 0.39 0.85 0.86 0.85 0.47 0 0.85-0.38 0.85-0.85 0-0.47-0.38-0.86-0.85-0.86zm-3.08 0c-0.47 0-0.85 0.39-0.85 0.86 0 0.47 0.38 0.85 0.85 0.85 0.48 0 0.86-0.38 0.86-0.85 0-0.47-0.38-0.86-0.86-0.86zm-3.07 0c-0.47 0-0.85 0.39-0.85 0.86 0 0.47 0.38 0.85 0.85 0.85 0.47 0 0.86-0.38 0.86-0.85 0-0.47-0.39-0.86-0.86-0.86zm-3.07 0c-0.47 0-0.86 0.39-0.86 0.86 0 0.47 0.39 0.85 0.86 0.85 0.47 0 0.85-0.38 0.85-0.85 0-0.47-0.38-0.86-0.85-0.86zm9.22 3.08c-0.47 0-0.86 0.38-0.86 0.85 0 0.47 0.39 0.85 0.86 0.85 0.47 0 0.85-0.38 0.85-0.85 0-0.47-0.38-0.85-0.85-0.85zm-3.08 0c-0.47 0-0.85 0.38-0.85 0.85 0 0.47 0.38 0.85 0.85 0.85 0.48 0 0.86-0.38 0.86-0.85 0-0.47-0.38-0.85-0.86-0.85zm-3.07 0c-0.47 0-0.85 0.38-0.85 0.85 0 0.47 0.38 0.85 0.85 0.85 0.47 0 0.86-0.38 0.86-0.85 0-0.47-0.39-0.85-0.86-0.85zm-3.07 0c-0.47 0-0.86 0.38-0.86 0.85 0 0.47 0.39 0.85 0.86 0.85 0.47 0 0.85-0.38 0.85-0.85 0-0.47-0.38-0.85-0.85-0.85z"/>
					</g>
				</g>
				<path id="cpu-plate 00000054946458038807121920000014129776638470475161 " fill="currentColor" stroke="currentColor" stroke-linecap="round" stroke-linejoin="round" d="m727.2 446.03l1.96 1.96c1.62 1.62 4.38 0.47 4.38-1.81v-42.36h-30.85m26.48 2.34h-24.77c-0.94 0-1.71 0.76-1.71 1.7v32.61c0 0.94 0.77 1.7 1.71 1.7h4.28v2.72c0 0.71 0.57 1.28 1.28 1.28 0.71 0 1.28-0.57 1.28-1.28v-2.72h4.27v2.72c0 0.71 0.57 1.28 1.28 1.28 0.7 0 1.28-0.57 1.28-1.28v-2.72h4.27v2.72c0 0.71 0.57 1.28 1.28 1.28 0.7 0 1.28-0.57 1.28-1.28v-2.72h4.27c0.95 0 1.71-0.76 1.71-1.7v-32.61c0-0.94-0.76-1.7-1.71-1.7zm-2.95 20.21c1.11 0 2.01 0.9 2.01 2v6.01c0 2.43-1.97 4.4-4.4 4.4h-14.08c-2.43 0-4.4-1.97-4.4-4.4v-6.01c0-1.1 0.89-2 2-2 1.06 0 1.91-0.86 1.91-1.91v-0.59c0-1.05-0.85-1.91-1.91-1.91-1.11 0-2-0.9-2-2.01v-6c0-2.43 1.97-4.41 4.4-4.41h14.08c2.43 0 4.4 1.98 4.4 4.41v6c0 1.11-0.9 2.01-2.01 2.01-1.05 0-1.9 0.86-1.9 1.91v0.59c0 1.05 0.85 1.91 1.9 1.91z"/>
			</g>
			<g id="board 00000056417253636289831020000015725673350332632734 ">
				<path id="pcie-slot 00000036234277874235352290000012085814577963591318 " fill="currentColor" stroke="currentColor" stroke-linecap="round" stroke-linejoin="round" d="m718.08 472.31h-67v-4.8h67zm2 0l1 1h7v-6.8h-7l-1 1"/>
				<path id="pcie-slot 00000163033202442660020540000017106833498188066219 " fill="currentColor" stroke="currentColor" stroke-linecap="round" stroke-linejoin="round" d="m718.08 506.31h-67v-4.8h67zm2 0l1 1h7v-6.8h-7l-1 1"/>
				<path id="pcie-slot 00000101794358864371703620000009590206718792473257 " fill="currentColor" stroke="currentColor" stroke-linecap="round" stroke-linejoin="round" d="m718.08 528.31h-67v-4.8h67zm2 0l1 1h7v-6.8h-7l-1 1"/>
			</g>
			<path id="board 00000001649305643288993950000012785259830063850678 " fill="currentColor" stroke="currentColor" stroke-linecap="round" stroke-linejoin="round" d="m633.28 455.74v79.9h164.44v-164.87h-62.81"/>
			<path id="heatsinks 00000010270478669783831500000017370197547337278375 " fill="currentColor" stroke="currentColor" stroke-linejoin="round" d="m686.66 386.35v58.36l-8.03 8.03m-33.95-92.36h-11.4v92.36h45.35v-58.08zm0 0v92.36m-6.07-79.88v38.26m85.54-36.86h19.94v17.73h-51.79l-17.73-17.73h31.58m-31.58 0h-16.14m28.23 37.63l-7.9-7.89m7.9 13.89l-7.9-7.89m7.9 13.89l-7.9-7.89m7.9 13.89l-7.9-7.89m7.9 13.89l-7.9-7.89m10.38-53.74v-9.71h7.31l27.43 27.44m-23.67-27.44h2.24l27.43 27.44m-23.45-27.44h2.02l27.43 27.44m6 0l-27.43-27.44h10.63l9.5 9.5m-20.13-9.5h-1.81m30.44 98.96h-98.4v55.56h148.31v-11.76m-65.64-12.73h-70.57v-15.33h70.57m65.64-15.74h-49.91l-23.4 23.4 20.4 20.4h52.91zm-48.9 0v-9.5h-61.38"/>
		</g>
</g>
</svg>