<svg xmlns="http://www.w3.org/2000/svg" viewBox="0 0 219.68 396.42">
<g transform="translate(-53.04,-156.22)" stroke-width="14.16">
<g id="Z690-ATX-Motherboard-icon-v1">
			<path id="board 00000132056405230053861860000016042239392162475189 " fill="none" stroke="currentColor" stroke-linecap="round" stroke-linejoin="round" d="m257.72 502.5v-129.73h-48.81"/>
			<path id="board 00000158714780269244699210000006943692036089121970 " fill="none" stroke="currentColor" stroke-linecap="round" stroke-linejoin="round" d="m93.28 458.21v79.43h164.44v-20.6"/>
			<path id="ram-sticks 00000134964882146014292960000014836808961952876174 " fill="none" stroke="currentColor" stroke-linejoin="round" d="m212.91 375.77h5.27v6.08h-5.27zm7.94 6.08h5.28v-6.08h-5.28zm7.95 0h5.27v-6.08h-5.27zm7.94 0h5.28v-6.08h-5.28zm-23.83 60.08h5.27v-60.08h-5.27zm7.94 0h5.28v-60.08h-5.28zm7.95 0h5.27v-60.08h-5.27zm7.94 0h5.28v-60.07h-5.28zm-23.83 6.07h5.27v-6.07h-5.27zm7.94 0h5.28v-6.08h-5.28zm7.95 0h5.27v-6.08h-5.27zm7.94 0h5.28v-6.08h-5.28z"/>
			<path id="vrms" fill="none" stroke="currentColor" stroke-linecap="round" stroke-linejoin="round" d="m155.37 432c0 1.11-0.9 2-2 2-1.11 0-2-0.89-2-2 0-1.1 0.89-2 2-2 1.1 0 2 0.9 2 2zm-2-8c-1.11 0-2 0.9-2 2 0 1.11 0.89 2 2 2 1.1 0 2-0.89 2-2 0-1.1-0.9-2-2-2zm0-6c-1.11 0-2 0.9-2 2 0 1.11 0.89 2 2 2 1.1 0 2-0.89 2-2 0-1.1-0.9-2-2-2zm0-6c-1.11 0-2 0.9-2 2 0 1.11 0.89 2 2 2 1.1 0 2-0.89 2-2 0-1.1-0.9-2-2-2zm0-6c-1.11 0-2 0.9-2 2 0 1.11 0.89 2 2 2 1.1 0 2-0.89 2-2 0-1.1-0.9-2-2-2zm0-6c-1.11 0-2 0.9-2 2 0 1.11 0.89 2 2 2 1.1 0 2-0.89 2-2 0-1.1-0.9-2-2-2zm8.83-7.02c-1.1 0-2-0.9-2-2 0-1.11 0.9-2 2-2 1.11 0 2 0.89 2 2 0 1.1-0.89 2-2 2zm8-2c0-1.11-0.89-2-2-2-1.1 0-2 0.89-2 2 0 1.1 0.9 2 2 2 1.11 0 2-0.9 2-2zm6 0c0-1.11-0.89-2-2-2-1.1 0-2 0.89-2 2 0 1.1 0.9 2 2 2 1.11 0 2-0.9 2-2zm6 0c0-1.11-0.89-2-2-2-1.1 0-2 0.89-2 2 0 1.1 0.9 2 2 2 1.11 0 2-0.9 2-2zm6 0c0-1.11-0.89-2-2-2-1.1 0-2 0.89-2 2 0 1.1 0.9 2 2 2 1.11 0 2-0.9 2-2zm6 0c0-1.11-0.89-2-2-2-1.1 0-2 0.89-2 2 0 1.1 0.9 2 2 2 1.11 0 2-0.9 2-2z"/>
			<g id="cpu 00000063626659974805932800000013054595645885887894 ">
				<g id="smd-pads">
					<g id="smd-pads 00000051348532081086325120000006619258090067211691 ">
						<path id="&lt;Compound Path&gt;" fill="none" d="m179.37 410.4c-0.46 0-0.83 0.38-0.83 0.84 0 0.46 0.37 0.84 0.83 0.84 0.47 0 0.84-0.38 0.84-0.84 0-0.46-0.37-0.84-0.84-0.84zm-3.01 0c-0.46 0-0.83 0.38-0.83 0.84 0 0.46 0.37 0.84 0.83 0.84 0.47 0 0.84-0.38 0.84-0.84 0-0.46-0.37-0.84-0.84-0.84zm-3.01 0c-0.46 0-0.83 0.38-0.83 0.84 0 0.46 0.37 0.84 0.83 0.84 0.47 0 0.84-0.38 0.84-0.84 0-0.46-0.37-0.84-0.84-0.84zm-3.01 0c-0.46 0-0.83 0.38-0.83 0.84 0 0.46 0.37 0.84 0.83 0.84 0.47 0 0.84-0.38 0.84-0.84 0-0.46-0.37-0.84-0.84-0.84zm9.03 3.01c-0.46 0-0.83 0.38-0.83 0.84 0 0.46 0.37 0.84 0.83 0.84 0.47 0 0.84-0.38 0.84-0.84 0-0.46-0.37-0.84-0.84-0.84zm-3.01 0c-0.46 0-0.83 0.38-0.83 0.84 0 0.46 0.37 0.84 0.83 0.84 0.47 0 0.84-0.38 0.84-0.84 0-0.46-0.37-0.84-0.84-0.84zm-3.01 0c-0.46 0-0.83 0.38-0.83 0.84 0 0.46 0.37 0.84 0.83 0.84 0.47 0 0.84-0.38 0.84-0.84 0-0.46-0.37-0.84-0.84-0.84zm-3.01 0c-0.46 0-0.83 0.38-0.83 0.84 0 0.46 0.37 0.84 0.83 0.84 0.47 0 0.84-0.38 0.84-0.84 0-0.46-0.37-0.84-0.84-0.84zm9.03 3.01c-0.46 0-0.83 0.38-0.83 0.84 0 0.46 0.37 0.84 0.83 0.84 0.47 0 0.84-0.38 0.84-0.84 0-0.46-0.37-0.84-0.84-0.84zm-3.01 0c-0.46 0-0.83 0.38-0.83 0.84 0 0.46 0.37 0.84 0.83 0.84 0.47 0 0.84-0.38 0.84-0.84 0-0.46-0.37-0.84-0.84-0.84zm-3.01 0c-0.46 0-0.83 0.38-0.83 0.84 0 0.46 0.37 0.84 0.83 0.84 0.47 0 0.84-0.38 0.84-0.84 0-0.46-0.37-0.84-0.84-0.84zm-3.01 0c-0.46 0-0.83 0.38-0.83 0.84 0 0.46 0.37 0.84 0.83 0.84 0.47 0 0.84-0.38 0.84-0.84 0-0.46-0.37-0.84-0.84-0.84zm9.03 3.01c-0.46 0-0.83 0.38-0.83 0.84 0 0.46 0.37 0.84 0.83 0.84 0.47 0 0.84-0.38 0.84-0.84 0-0.46-0.37-0.84-0.84-0.84zm-3.01 0c-0.46 0-0.83 0.38-0.83 0.84 0 0.46 0.37 0.84 0.83 0.84 0.47 0 0.84-0.38 0.84-0.84 0-0.46-0.37-0.84-0.84-0.84zm-3.01 0c-0.46 0-0.83 0.38-0.83 0.84 0 0.46 0.37 0.84 0.83 0.84 0.47 0 0.84-0.38 0.84-0.84 0-0.46-0.37-0.84-0.84-0.84zm-3.01 0c-0.46 0-0.83 0.38-0.83 0.84 0 0.46 0.37 0.84 0.83 0.84 0.47 0 0.84-0.38 0.84-0.84 0-0.46-0.37-0.84-0.84-0.84zm9.03 3.01c-0.46 0-0.83 0.38-0.83 0.84 0 0.46 0.37 0.84 0.83 0.84 0.47 0 0.84-0.38 0.84-0.84 0-0.46-0.37-0.84-0.84-0.84zm-3.01 0c-0.46 0-0.83 0.38-0.83 0.84 0 0.46 0.37 0.84 0.83 0.84 0.47 0 0.84-0.38 0.84-0.84 0-0.46-0.37-0.84-0.84-0.84zm-3.01 0c-0.46 0-0.83 0.38-0.83 0.84 0 0.46 0.37 0.84 0.83 0.84 0.47 0 0.84-0.38 0.84-0.84 0-0.46-0.37-0.84-0.84-0.84zm-3.01 0c-0.46 0-0.83 0.38-0.83 0.84 0 0.46 0.37 0.84 0.83 0.84 0.47 0 0.84-0.38 0.84-0.84 0-0.46-0.37-0.84-0.84-0.84z"/>
					</g>
				</g>
				<path id="cpu-plate" fill="none" stroke="currentColor" stroke-linecap="round" stroke-linejoin="round" d="m185.06 438.68l1.92 1.91c1.58 1.59 4.28 0.47 4.28-1.77v-41.49h-30.2m25.93 2.29h-24.26c-0.92 0-1.67 0.75-1.67 1.68v31.92c0 0.93 0.75 1.68 1.67 1.68h4.19v2.66c0 0.69 0.56 1.25 1.25 1.25 0.69 0 1.25-0.56 1.25-1.25v-2.66h4.18v2.66c0 0.69 0.57 1.25 1.26 1.25 0.69 0 1.25-0.56 1.25-1.25v-2.66h4.18v2.66c0 0.69 0.56 1.25 1.26 1.25 0.69 0 1.25-0.56 1.25-1.25v-2.66h4.19c0.92 0 1.67-0.75 1.67-1.68v-31.92c0-0.93-0.75-1.68-1.67-1.68zm-2.89 19.8c1.08 0 1.96 0.88 1.96 1.96v5.88c0 2.39-1.93 4.32-4.31 4.32h-13.78c-2.39 0-4.32-1.93-4.32-4.32v-5.88c0-1.08 0.88-1.96 1.97-1.96 1.03 0 1.87-0.84 1.87-1.87v-0.58c0-1.03-0.84-1.87-1.87-1.87-1.09 0-1.97-0.88-1.97-1.96v-5.88c0-2.39 1.93-4.32 4.32-4.32h13.78c2.38 0 4.31 1.93 4.31 4.32v5.88c0 1.08-0.88 1.96-1.96 1.96-1.03 0-1.87 0.84-1.87 1.87v0.58c0 1.03 0.84 1.87 1.87 1.87z"/>
			</g>
			<path id="pcie-slot" fill="none" stroke="currentColor" stroke-linecap="round" stroke-linejoin="round" d="m178.08 468.31h-71v-4.8h71zm2 0l1 1h7v-6.8h-7l-1 1"/>
			<path id="pcie-slot 00000010273123009185478460000007527861523563074949 " fill="none" stroke="currentColor" stroke-linecap="round" stroke-linejoin="round" d="m178.08 504.31h-71v-4.8h71zm2 0l1 1h7v-6.8h-7l-1 1"/>
			<path id="pcie-slot 00000165921211816546348530000010461352055606617236 " fill="none" stroke="currentColor" stroke-linecap="round" stroke-linejoin="round" d="m178.08 528.31h-71v-4.8h71zm2 0l1 1h7v-6.8h-7l-1 1"/>
			<g id="heatsinks 00000091003370995052296050000012460351661736136344 ">
				<path id="heatsink 00000136371680320875317880000006073128912410048428 " fill="none" stroke="currentColor" stroke-linejoin="round" d="m142.63 410.37l-24.36 24.37h-24.99v-76.36h8.28l14.38 14.39h13.73l12.96 12.97zm4.46-12.1v-6.08l-4.46-4.46m2-2h64.28v-9.96l-3-3h-13.97l-8.01-8h-6.82l20.96 20.96m-29.38-20.96h2.93l8 8m-57.18 57.79h16.18l8.47-8.48v-8.74l-1.68-1.68m0-6l1.68 1.68v2.93m-1.68-10.61l1.68 1.68v2.93m-22.98 13.55l7.4-7.39v-10.88l-32.64-32.64v25.67zm0.49 10.57l-31.32-31.33m38.02-3.57l-27.39-27.39m0 15.19l15.33 15.32m-15.33-9.32l15.33 15.32m48.37-29.85l-7.99-8h-3.53l-8 8h-15.43m30.03-8h2.93l7.99 8m31.29 12.97l-12.96-12.97m-14.84-8h-2.49m-26.52 8h37.01"/>
				<path id="heatsink 00000128479453870989812790000001933845800594344849 " fill="none" stroke="currentColor" stroke-linecap="round" stroke-linejoin="round" d="m127.97 455.21h-34.69v-17.47h53.81v10.27m-19.12 7.2h53.23c1.96-1.95 3.05-3.05 5-5v-2.2h-54.23c-1.56 1.56-2.44 2.44-4 4z"/>
				<path id="heatsink 00000158022784246800590380000012205013244971234720 " fill="none" stroke="currentColor" stroke-linecap="round" stroke-linejoin="round" d="m194.63 494.18v14.61m57.57-3.29v-50.29h-4.38m-34.64 61.03l10.73-10.74h33.81v8.54c-1.96 1.95-3.05 3.04-5 5h-148.8v-7.25c1.17-1.18 1.83-1.83 3-3h110.71m-86.33 0l-10.25 10.25m16.25-10.25l-10.25 10.25m120.77-63.78l-38.91 38.92h-72.01l18.47-18.47h39.26l20.68-20.68zm-70.71 20.45l-18.47 18.47m26.47-18.47l-18.47 18.47m62.27-32.15l-18.4 18.39h-5.54l18.52-18.51z"/>
			</g>
			<path id="other-bits" fill="none" stroke="currentColor" stroke-linecap="round" stroke-linejoin="round" d="m255.24 399.66h-4.27v-23.89h4.27zm0 8.35h-4.27v13.1h4.27zm-30.43 113.91c-3.66 0-6.63 2.97-6.63 6.63 0 3.65 2.97 6.62 6.63 6.62 3.66 0 6.62-2.97 6.62-6.62 0-3.66-2.96-6.63-6.62-6.63z"/>
		</g>
</g>
</svg>