<svg xmlns="http://www.w3.org/2000/svg" viewBox="78.0 113.0 195.0 195.0">
<g id="Water-Cooled-Motherboard-icon">
			<g id="ram-slots">
				<path id="ram 00000029043023216219405220000010085426144866451119 " fill="currentColor" stroke="currentColor" stroke-linecap="round" stroke-linejoin="round" d="m243.41 164.79l-0.14 56.03h3.55l0.18-63.75h-3.55l-0.03 5.62h3.56"/>
				<path id="ram 00000052094055176363177340000008669182706931547031 " fill="currentColor" stroke="currentColor" stroke-linecap="round" stroke-linejoin="round" d="m236.33 164.79l-0.14 56.03h3.55l0.18-63.75h-3.55l-0.02 5.62h3.56"/>
				<path id="ram 00000017501763493719547280000012410243969089238656 " fill="currentColor" stroke="currentColor" stroke-linecap="round" stroke-linejoin="round" d="m229.26 164.79l-0.14 56.03h3.55l0.18-63.75h-3.55l-0.02 5.62h3.55"/>
				<path id="ram 00000018201594106362015510000003867315708281218717 " fill="currentColor" stroke="currentColor" stroke-linecap="round" stroke-linejoin="round" d="m222.18 164.79l-0.14 56.03h3.55l0.18-63.75h-3.55l-0.02 5.62h3.56"/>
			</g>
			<path id="board" fill="currentColor" stroke="currentColor" stroke-linecap="round" stroke-miterlimit="10" d="m120.69 139.68h133.77c1.96 0 3.54 1.59 3.54 3.54v146.21c0 1.96-1.58 3.54-3.54 3.54h-146.21c-1.95 0-3.54-1.58-3.54-3.54v-63.77"/>
			<g id="water-holes">
				<path id="outlet" fill="currentColor" stroke="currentColor" stroke-linecap="round" stroke-miterlimit="10" d="m210.53 169.36c0 3.23-2.62 5.86-5.86 5.86-3.24 0-5.87-2.63-5.87-5.86 0-3.24 2.63-5.87 5.87-5.87 3.24 0 5.86 2.63 5.86 5.87z"/>
				<path id="inlet" fill="currentColor" stroke="currentColor" stroke-linecap="round" stroke-miterlimit="10" d="m199.04 155.45c0 3.24-2.62 5.86-5.86 5.86-3.24 0-5.86-2.62-5.86-5.86 0-3.24 2.62-5.86 5.86-5.86 3.24 0 5.86 2.62 5.86 5.86z"/>
			</g>
			<g id="PCIe-slots 00000177485883481366958160000007620889564614999713 ">
				<path id="PCIe-slot 00000060716126623842101410000016336832774297517476 " fill="currentColor" stroke="currentColor" stroke-linecap="round" stroke-miterlimit="10" d="m171.3 235.64l-1.84 1.05h-56.73v6.53h56.73l1.84 1.06h8.97v-8.64z"/>
				<path id="PCIe-slot 00000080929198117058032660000010754752003270589099 " fill="currentColor" stroke="currentColor" stroke-linecap="round" stroke-miterlimit="10" d="m114.73 240.02h56.73"/>
				<path id="PCIe-slot" fill="currentColor" stroke="currentColor" stroke-linecap="round" stroke-miterlimit="10" d="m171.3 265.8l-1.84 1.05h-56.73v6.53h56.73l1.84 1.06h18.53l-6.26-8.64z"/>
				<path id="PCIe-slot 00000102525895374597798790000016831948866023747213 " fill="currentColor" stroke="currentColor" stroke-linecap="round" stroke-miterlimit="10" d="m114.73 270.18h56.73"/>
			</g>
			<g id="water-blocks">
				<path id="lower-water-block" fill="currentColor" stroke="currentColor" stroke-linecap="round" stroke-miterlimit="10" d="m108.67 278.79h110.18c0.76 0 1.47 0.36 1.91 0.98l3.38 4.66h19.51l8.06-11.13v-16.53l-14.46-19.97h-17.63c-2.6 0-4.71-2.11-4.71-4.71v-6.43m-71.64-3.54l10.55 14.57m26.45 7.59l24.4 34.81m36.72-25.1l-4.72-6.03h-28.83l-2.86 3.74 13.81 19.07h22.6zm-24.65 13.95h20.8v-12.88l-5.55-7.1m-25.35 6.03h24.54m-16.75 10.75h16.75m-19.35-3.58h19.35m-21.95-3.58h21.95"/>
				<path id="cpu-water-block" fill="currentColor" stroke="currentColor" stroke-linecap="round" stroke-miterlimit="10" d="m122.62 147.09h10.04c0.76 0 1.47-0.36 1.91-0.97l1.07-1.48c0.44-0.61 1.15-0.97 1.91-0.97h76.61c0.65 0 1.18 0.53 1.18 1.18v77.27h-122.34v-94.15h15.67l68.2 94.15m-66.37-79.01l57.23 79.01m-10.86-27.87h33.58c0.97 0 1.52-1.09 0.96-1.87l-22.31-30.99c-0.89-1.23-2.31-1.96-3.83-1.96h-33.63m41.85 57.73h34.07c0.65 0 1.18-0.52 1.18-1.17v-17.08c0-0.65-0.53-1.18-1.18-1.18h-48.17m10.3-16.77c-1.74 0-3.14-1.41-3.14-3.15v-7.8c0-2.32-1.88-4.19-4.2-4.19h-13.34c-2.09 0-3.77 1.75-3.66 3.86 0.1 1.99 1.88 3.48 3.87 3.48h0.96c1.15 0 2.09 0.94 2.09 2.1v7.27c0 3.19 2.58 5.77 5.77 5.77 5.86 0 14.62 0 18.49 0 1.99 0 3.77-1.49 3.87-3.47 0.11-2.12-1.57-3.87-3.67-3.87z"/>
			</g>
		</g>
</svg>