<svg xmlns="http://www.w3.org/2000/svg" viewBox="847.8 323.9 218.4 211.6">
<g id="Z690-Motherboard-Mini-ITX-icon-v1">
			<path id="ram-slots 00000075127785333711978120000007416733107781155972 " fill="currentColor" stroke="currentColor" stroke-linejoin="round" d="m1027.49 398.94h5.28v6.08h-5.28zm7.95 6.08h5.28v-6.08h-5.28zm-7.95 60.08h5.28v-60.08h-5.28zm7.95 0h5.28v-60.08h-5.28zm-7.95 6.08h5.28v-6.08h-5.28zm7.95 0h5.28v-6.08h-5.28z"/>
			<path id="vrms 00000036939935976209885890000001639291653700804488 " fill="currentColor" stroke="currentColor" stroke-linecap="round" stroke-linejoin="round" d="m984.28 455.2c0 1.1-0.9 2-2 2-1.11 0-2-0.9-2-2 0-1.1 0.89-2 2-2 1.1 0 2 0.9 2 2zm-2-7.86c-1.11 0-2 0.89-2 2 0 1.1 0.89 2 2 2 1.1 0 2-0.9 2-2 0-1.11-0.9-2-2-2zm0-5.87c-1.11 0-2 0.9-2 2 0 1.11 0.89 2 2 2 1.1 0 2-0.89 2-2 0-1.1-0.9-2-2-2zm0-5.86c-1.11 0-2 0.89-2 2 0 1.1 0.89 2 2 2 1.1 0 2-0.9 2-2 0-1.11-0.9-2-2-2zm0-5.87c-1.11 0-2 0.9-2 2 0 1.11 0.89 2 2 2 1.1 0 2-0.89 2-2 0-1.1-0.9-2-2-2zm0-5.86c-1.11 0-2 0.9-2 2 0 1.1 0.89 2 2 2 1.1 0 2-0.9 2-2 0-1.1-0.9-2-2-2zm-5 14.86c-1.1 0-2 0.9-2 2 0 1.1 0.9 2 2 2 1.11 0 2-0.9 2-2 0-1.1-0.89-2-2-2zm0-5.86c-1.1 0-2 0.89-2 2 0 1.1 0.9 2 2 2 1.11 0 2-0.9 2-2 0-1.11-0.89-2-2-2zm0-5.87c-1.1 0-2 0.9-2 2 0 1.11 0.9 2 2 2 1.11 0 2-0.89 2-2 0-1.1-0.89-2-2-2zm0-5.86c-1.1 0-2 0.89-2 2 0 1.1 0.9 2 2 2 1.11 0 2-0.9 2-2 0-1.11-0.89-2-2-2zm10.87-2.44c-1.11 0-2-0.9-2-2 0-1.11 0.89-2 2-2 1.1 0 2 0.89 2 2 0 1.1-0.9 2-2 2zm7.86-2c0-1.11-0.89-2-2-2-1.1 0-2 0.89-2 2 0 1.1 0.9 2 2 2 1.11 0 2-0.9 2-2zm5.87 0c0-1.11-0.9-2-2-2-1.11 0-2 0.89-2 2 0 1.1 0.89 2 2 2 1.1 0 2-0.9 2-2zm5.86 0c0-1.11-0.9-2-2-2-1.1 0-2 0.89-2 2 0 1.1 0.9 2 2 2 1.1 0 2-0.9 2-2zm5.86 0c0-1.11-0.89-2-2-2-1.1 0-2 0.89-2 2 0 1.1 0.9 2 2 2 1.11 0 2-0.9 2-2zm5.87 0c0-1.11-0.9-2-2-2-1.11 0-2 0.89-2 2 0 1.1 0.89 2 2 2 1.1 0 2-0.9 2-2z"/>
			<g id="cpu 00000123423289888201943950000009095606152788878781 ">
				<g id="smd-pads 00000170967235851457177400000009860047296968570025 ">
					<g id="smd-pads 00000148625558434390934990000003380283672323322538 ">
						<path id="&lt;Compound Path&gt;" fill="currentColor" d="m1005.99 434.33c-0.47 0-0.86 0.38-0.86 0.85 0 0.47 0.39 0.85 0.86 0.85 0.47 0 0.85-0.38 0.85-0.85 0-0.47-0.38-0.85-0.85-0.85zm-3.08 0c-0.47 0-0.85 0.38-0.85 0.85 0 0.47 0.38 0.85 0.85 0.85 0.48 0 0.86-0.38 0.86-0.85 0-0.47-0.38-0.85-0.86-0.85zm-3.07 0c-0.47 0-0.85 0.38-0.85 0.85 0 0.47 0.38 0.85 0.85 0.85 0.47 0 0.85-0.38 0.85-0.85 0-0.47-0.38-0.85-0.85-0.85zm-3.07 0c-0.47 0-0.86 0.38-0.86 0.85 0 0.47 0.39 0.85 0.86 0.85 0.47 0 0.85-0.38 0.85-0.85 0-0.47-0.38-0.85-0.85-0.85zm9.22 3.07c-0.47 0-0.86 0.38-0.86 0.85 0 0.48 0.39 0.86 0.86 0.86 0.47 0 0.85-0.38 0.85-0.86 0-0.47-0.38-0.85-0.85-0.85zm-3.08 0c-0.47 0-0.85 0.38-0.85 0.85 0 0.48 0.38 0.86 0.85 0.86 0.48 0 0.86-0.38 0.86-0.86 0-0.47-0.38-0.85-0.86-0.85zm-3.07 0c-0.47 0-0.85 0.38-0.85 0.85 0 0.48 0.38 0.86 0.85 0.86 0.47 0 0.85-0.38 0.85-0.86 0-0.47-0.38-0.85-0.85-0.85zm-3.07 0c-0.47 0-0.86 0.38-0.86 0.85 0 0.48 0.39 0.86 0.86 0.86 0.47 0 0.85-0.38 0.85-0.86 0-0.47-0.38-0.85-0.85-0.85zm9.22 3.07c-0.47 0-0.86 0.39-0.86 0.86 0 0.47 0.39 0.85 0.86 0.85 0.47 0 0.85-0.38 0.85-0.85 0-0.47-0.38-0.86-0.85-0.86zm-3.08 0c-0.47 0-0.85 0.39-0.85 0.86 0 0.47 0.38 0.85 0.85 0.85 0.48 0 0.86-0.38 0.86-0.85 0-0.47-0.38-0.86-0.86-0.86zm-3.07 0c-0.47 0-0.85 0.39-0.85 0.86 0 0.47 0.38 0.85 0.85 0.85 0.47 0 0.85-0.38 0.85-0.85 0-0.47-0.38-0.86-0.85-0.86zm-3.07 0c-0.47 0-0.86 0.39-0.86 0.86 0 0.47 0.39 0.85 0.86 0.85 0.47 0 0.85-0.38 0.85-0.85 0-0.47-0.38-0.86-0.85-0.86zm9.22 3.08c-0.47 0-0.86 0.38-0.86 0.85 0 0.47 0.39 0.85 0.86 0.85 0.47 0 0.85-0.38 0.85-0.85 0-0.47-0.38-0.85-0.85-0.85zm-3.08 0c-0.47 0-0.85 0.38-0.85 0.85 0 0.47 0.38 0.85 0.85 0.85 0.48 0 0.86-0.38 0.86-0.85 0-0.47-0.38-0.85-0.86-0.85zm-3.07 0c-0.47 0-0.85 0.38-0.85 0.85 0 0.47 0.38 0.85 0.85 0.85 0.47 0 0.85-0.38 0.85-0.85 0-0.47-0.38-0.85-0.85-0.85zm-3.07 0c-0.47 0-0.86 0.38-0.86 0.85 0 0.47 0.39 0.85 0.86 0.85 0.47 0 0.85-0.38 0.85-0.85 0-0.47-0.38-0.85-0.85-0.85zm9.22 3.07c-0.47 0-0.86 0.38-0.86 0.85 0 0.48 0.39 0.86 0.86 0.86 0.47 0 0.85-0.38 0.85-0.86 0-0.47-0.38-0.85-0.85-0.85zm-3.08 0c-0.47 0-0.85 0.38-0.85 0.85 0 0.48 0.38 0.86 0.85 0.86 0.48 0 0.86-0.38 0.86-0.86 0-0.47-0.38-0.85-0.86-0.85zm-3.07 0c-0.47 0-0.85 0.38-0.85 0.85 0 0.48 0.38 0.86 0.85 0.86 0.47 0 0.85-0.38 0.85-0.86 0-0.47-0.38-0.85-0.85-0.85zm-3.07 0c-0.47 0-0.86 0.38-0.86 0.85 0 0.48 0.39 0.86 0.86 0.86 0.47 0 0.85-0.38 0.85-0.86 0-0.47-0.38-0.85-0.85-0.85z"/>
					</g>
				</g>
				<path id="cpu-plate 00000077288878729747059260000000669158324996904880 " fill="currentColor" stroke="currentColor" stroke-linecap="round" stroke-linejoin="round" d="m1011.79 463.19l1.96 1.96c1.62 1.62 4.38 0.48 4.38-1.81v-42.36h-30.85m26.48 2.34h-24.77c-0.94 0-1.71 0.76-1.71 1.71v32.6c0 0.94 0.77 1.71 1.71 1.71h4.28v2.71c0 0.71 0.57 1.28 1.28 1.28 0.71 0 1.28-0.57 1.28-1.28v-2.71h4.27v2.71c0 0.71 0.57 1.28 1.28 1.28 0.7 0 1.28-0.57 1.28-1.28v-2.71h4.27v2.71c0 0.71 0.57 1.28 1.28 1.28 0.7 0 1.28-0.57 1.28-1.28v-2.71h4.27c0.95 0 1.71-0.77 1.71-1.71v-32.6c0-0.95-0.76-1.71-1.71-1.71zm-2.95 20.21c1.11 0 2.01 0.9 2.01 2.01v6c0 2.44-1.97 4.41-4.41 4.41h-14.07c-2.43 0-4.4-1.97-4.4-4.41v-6c0-1.11 0.89-2.01 2-2.01 1.06 0 1.91-0.85 1.91-1.91v-0.59c0-1.05-0.85-1.91-1.91-1.91-1.11 0-2-0.89-2-2v-6.01c0-2.43 1.97-4.4 4.4-4.4h14.07c2.44 0 4.41 1.97 4.41 4.4v6.01c0 1.11-0.9 2-2.01 2-1.05 0-1.91 0.86-1.91 1.91v0.59c0 1.06 0.86 1.91 1.91 1.91z"/>
			</g>
			<path id="&lt;Path&gt;" fill="currentColor" stroke="currentColor" stroke-linejoin="round" d=""/>
			<path id="pcie-slot 00000000212139247489449820000011681062926728486796 " fill="currentColor" stroke="currentColor" stroke-linecap="round" stroke-linejoin="round" d="m1031.6 515.76h-67v-4.8h67zm2 0l1 1h7v-6.8h-7l-1 1"/>
			<path id="board 00000085953498671747234510000009443607886854402202 " fill="currentColor" stroke="currentColor" stroke-linecap="round" stroke-linejoin="round" d="m975.21 389.42h-22.94m-32.4 127.61v3.44h130.46v-77.3m0-46.8v-6.95h-20.65"/>
			<path id="connector" fill="currentColor" stroke="currentColor" stroke-linejoin="round" d="m1044.33 402.77v-3.4h3.4m0 3.4h-3.4v3.4m3.4 0h-3.4v3.4m3.4 0h-3.4v3.4m3.4 0h-3.4v3.4m3.4 0h-3.4v3.4m3.4 0h-3.4v3.4m3.4 0h-3.4v3.4m3.4 0h-3.4v3.4m3.4 0h-3.4v3.4m3.4 0h-3.4v3.4m3.4 0h-3.4v3.4h3.4m3.4-37.4v-3.4h-3.4v3.4m3.4 3.4v-3.4h-3.4v3.4m3.4 3.4v-3.4h-3.4v3.4m3.4 3.4v-3.4h-3.4v3.4m3.4 3.4v-3.4h-3.4v3.4m3.4 3.4v-3.4h-3.4v3.4m3.4 3.4v-3.4h-3.4v3.4m3.4 3.4v-3.4h-3.4v3.4m3.4 3.4v-3.4h-3.4v3.4m3.4 3.4v-3.4h-3.4v3.4m3.4 3.4v-3.4h-3.4v3.4m3.4 3.4v-3.4h-3.4v3.4z"/>
			<g id="heatsinks 00000023279747881916804040000000492461736982957208 ">
				<path id="heatsink 00000080169547392376521680000015212886821180826017 " fill="currentColor" stroke="currentColor" stroke-linejoin="round" d="m977.01 399.15l9.73-9.73h-8.53l-4 4h-13.06l5.73 5.73h53.8c2.34-2.35 3.65-3.66 6-6v-3.73h-18.94m-6 0h3l-9.73 9.73m-5.27-9.73h3l-9.73 9.73m12.73-9.73h3l-9.73 9.73m26.9 0l-9.6 9.59h-23.96l-9.96-9.95"/>
				<path id="heatsink 00000080202397924387157980000016663387150308381616 " fill="currentColor" stroke="currentColor" stroke-linejoin="round" d="m941.52 506.03l-8 8h-13.65v-37.01m113.62 29.01v-24.01c-3.12-3.12-4.87-4.87-8-8h-78.36 0.14l-10.23 32.01zm-9.89-16h-39.92l11.01 11.01m6.09-5.51h15.95m-57.51-21.51l30.9 30.9m43.37-18.45h-61.1"/>
				<path id="heatsink 00000003093127097074845700000008163339158841485239 " fill="currentColor" stroke="currentColor" stroke-linejoin="round" d="m947.27 474.02v-88.48c-3.9-3.9-6.09-6.09-10-10h-17.4v98.48h27.4 4.86l7.09-7.12v-67.07l-11.95-12.29m11.95 55.56l-11.95 11.95m11.95-29.95l-11.95 11.95m11.95-5.95l-11.95 11.95m11.95-5.95l-11.95 11.95m11.95-47.77l9.56 11.2v26.53l-9.56 27.18m-34.35-38.43v-47.22h10.9c2.54 2.54 3.96 3.96 6.5 6.5v58.11zm5.82-43.82l7.65 7.65"/>
			</g>
		</g>
</svg>