<svg xmlns="http://www.w3.org/2000/svg" viewBox="0 0 196.44 388.42">
<g transform="translate(-347.28,-162.22)">
<g id="Z690-ATX-Motherboard-icon-v2">
			<path id="ram-sticks 00000160882156226073239110000003215623192448628105 " fill="currentColor" stroke="currentColor" stroke-linejoin="round" d="m481.91 381.77h5.27v6.08h-5.27zm7.94 6.08h5.28v-6.08h-5.28zm7.95 0h5.27v-6.08h-5.27zm7.94 0h5.28v-6.08h-5.28zm-23.83 60.08h5.27v-60.08h-5.27zm7.94 0h5.28v-60.08h-5.28zm7.95 0h5.27v-60.08h-5.27zm7.94 0h5.28v-60.07h-5.28zm-23.83 6.07h5.27v-6.07h-5.27zm7.94 0h5.28v-6.08h-5.28zm7.95 0h5.27v-6.08h-5.27zm7.94 0h5.28v-6.08h-5.28z"/>
			<path id="vrms 00000085933146225606593490000001131931294928428177 " fill="currentColor" stroke="currentColor" stroke-linecap="round" stroke-linejoin="round" d="m474.64 411.45c-1.1 0-2 0.89-2 2 0 1.1 0.9 2 2 2 1.11 0 2-0.9 2-2 0-1.11-0.89-2-2-2zm0-6.22c-1.1 0-2 0.89-2 2 0 1.1 0.9 2 2 2 1.11 0 2-0.9 2-2 0-1.11-0.89-2-2-2zm-56.95 10.15c-1.1 0-2 0.89-2 2 0 1.1 0.9 2 2 2 1.11 0 2-0.9 2-2 0-1.11-0.89-2-2-2zm0-5.87c-1.1 0-2 0.9-2 2 0 1.11 0.9 2 2 2 1.11 0 2-0.89 2-2 0-1.1-0.89-2-2-2zm0-5.86c-1.1 0-2 0.89-2 2 0 1.1 0.9 2 2 2 1.11 0 2-0.9 2-2 0-1.11-0.89-2-2-2zm0-5.86c-1.1 0-2 0.89-2 2 0 1.1 0.9 2 2 2 1.11 0 2-0.9 2-2 0-1.11-0.89-2-2-2zm5.6 20.99c-1.1 0-2 0.89-2 2 0 1.1 0.9 2 2 2 1.11 0 2-0.9 2-2 0-1.11-0.89-2-2-2zm0-5.87c-1.1 0-2 0.9-2 2 0 1.11 0.9 2 2 2 1.11 0 2-0.89 2-2 0-1.1-0.89-2-2-2zm0-5.86c-1.1 0-2 0.89-2 2 0 1.1 0.9 2 2 2 1.11 0 2-0.9 2-2 0-1.11-0.89-2-2-2zm0-5.86c-1.1 0-2 0.89-2 2 0 1.1 0.9 2 2 2 1.11 0 2-0.9 2-2 0-1.11-0.89-2-2-2zm0 29.32c-1.1 0-2 0.89-2 2 0 1.1 0.9 2 2 2 1.11 0 2-0.9 2-2 0-1.11-0.89-2-2-2zm0-5.87c-1.1 0-2 0.9-2 2 0 1.11 0.9 2 2 2 1.11 0 2-0.89 2-2 0-1.1-0.89-2-2-2zm22.53-29.39c0 1.1 0.9 2 2 2 1.11 0 2-0.9 2-2 0-1.11-0.89-2-2-2-1.1 0-2 0.89-2 2zm-5.86 0c0 1.1 0.9 2 2 2 1.1 0 2-0.9 2-2 0-1.11-0.9-2-2-2-1.1 0-2 0.89-2 2zm-5.86 0c0 1.1 0.89 2 2 2 1.1 0 2-0.9 2-2 0-1.11-0.9-2-2-2-1.11 0-2 0.89-2 2zm-5.87 0c0 1.1 0.9 2 2 2 1.11 0 2-0.9 2-2 0-1.11-0.89-2-2-2-1.1 0-2 0.89-2 2zm29.32 0c0 1.1 0.9 2 2 2 1.11 0 2-0.9 2-2 0-1.11-0.89-2-2-2-1.1 0-2 0.89-2 2zm-5.86 0c0 1.1 0.89 2 2 2 1.1 0 2-0.9 2-2 0-1.11-0.9-2-2-2-1.11 0-2 0.89-2 2z"/>
			<g id="cpu 00000178921714157897144670000002919632014200685733 ">
				<g id="smd-pads 00000121960530396120068820000009711449395506737589 ">
					<g id="smd-pads 00000086688159231261171670000016426850902704154555 ">
						<path id="&lt;Compound Path&gt;" fill="currentColor" d="m448.4 413.16c-0.47 0-0.86 0.39-0.86 0.86 0 0.47 0.39 0.85 0.86 0.85 0.47 0 0.85-0.38 0.85-0.85 0-0.47-0.38-0.86-0.85-0.86zm-3.08 0c-0.47 0-0.85 0.39-0.85 0.86 0 0.47 0.38 0.85 0.85 0.85 0.48 0 0.86-0.38 0.86-0.85 0-0.47-0.38-0.86-0.86-0.86zm-3.07 0c-0.47 0-0.85 0.39-0.85 0.86 0 0.47 0.38 0.85 0.85 0.85 0.47 0 0.86-0.38 0.86-0.85 0-0.47-0.39-0.86-0.86-0.86zm-3.07 0c-0.47 0-0.86 0.39-0.86 0.86 0 0.47 0.39 0.85 0.86 0.85 0.47 0 0.85-0.38 0.85-0.85 0-0.47-0.38-0.86-0.85-0.86zm9.22 3.08c-0.47 0-0.86 0.38-0.86 0.85 0 0.47 0.39 0.86 0.86 0.86 0.47 0 0.85-0.39 0.85-0.86 0-0.47-0.38-0.85-0.85-0.85zm-3.08 0c-0.47 0-0.85 0.38-0.85 0.85 0 0.47 0.38 0.86 0.85 0.86 0.48 0 0.86-0.39 0.86-0.86 0-0.47-0.38-0.85-0.86-0.85zm-3.07 0c-0.47 0-0.85 0.38-0.85 0.85 0 0.47 0.38 0.86 0.85 0.86 0.47 0 0.86-0.39 0.86-0.86 0-0.47-0.39-0.85-0.86-0.85zm-3.07 0c-0.47 0-0.86 0.38-0.86 0.85 0 0.47 0.39 0.86 0.86 0.86 0.47 0 0.85-0.39 0.85-0.86 0-0.47-0.38-0.85-0.85-0.85zm9.22 3.07c-0.47 0-0.86 0.38-0.86 0.85 0 0.48 0.39 0.86 0.86 0.86 0.47 0 0.85-0.38 0.85-0.86 0-0.47-0.38-0.85-0.85-0.85zm-3.08 0c-0.47 0-0.85 0.38-0.85 0.85 0 0.48 0.38 0.86 0.85 0.86 0.48 0 0.86-0.38 0.86-0.86 0-0.47-0.38-0.85-0.86-0.85zm-3.07 0c-0.47 0-0.85 0.38-0.85 0.85 0 0.48 0.38 0.86 0.85 0.86 0.47 0 0.86-0.38 0.86-0.86 0-0.47-0.39-0.85-0.86-0.85zm-3.07 0c-0.47 0-0.86 0.38-0.86 0.85 0 0.48 0.39 0.86 0.86 0.86 0.47 0 0.85-0.38 0.85-0.86 0-0.47-0.38-0.85-0.85-0.85zm9.22 3.07c-0.47 0-0.86 0.39-0.86 0.86 0 0.47 0.39 0.85 0.86 0.85 0.47 0 0.85-0.38 0.85-0.85 0-0.47-0.38-0.86-0.85-0.86zm-3.08 0c-0.47 0-0.85 0.39-0.85 0.86 0 0.47 0.38 0.85 0.85 0.85 0.48 0 0.86-0.38 0.86-0.85 0-0.47-0.38-0.86-0.86-0.86zm-3.07 0c-0.47 0-0.85 0.39-0.85 0.86 0 0.47 0.38 0.85 0.85 0.85 0.47 0 0.86-0.38 0.86-0.85 0-0.47-0.39-0.86-0.86-0.86zm-3.07 0c-0.47 0-0.86 0.39-0.86 0.86 0 0.47 0.39 0.85 0.86 0.85 0.47 0 0.85-0.38 0.85-0.85 0-0.47-0.38-0.86-0.85-0.86zm9.22 3.08c-0.47 0-0.86 0.38-0.86 0.85 0 0.47 0.39 0.85 0.86 0.85 0.47 0 0.85-0.38 0.85-0.85 0-0.47-0.38-0.85-0.85-0.85zm-3.08 0c-0.47 0-0.85 0.38-0.85 0.85 0 0.47 0.38 0.85 0.85 0.85 0.48 0 0.86-0.38 0.86-0.85 0-0.47-0.38-0.85-0.86-0.85zm-3.07 0c-0.47 0-0.85 0.38-0.85 0.85 0 0.47 0.38 0.85 0.85 0.85 0.47 0 0.86-0.38 0.86-0.85 0-0.47-0.39-0.85-0.86-0.85zm-3.07 0c-0.47 0-0.86 0.38-0.86 0.85 0 0.47 0.39 0.85 0.86 0.85 0.47 0 0.85-0.38 0.85-0.85 0-0.47-0.38-0.85-0.85-0.85z"/>
					</g>
				</g>
				<path id="cpu-plate 00000121973229398349150200000005257609717762825608 " fill="currentColor" stroke="currentColor" stroke-linecap="round" stroke-linejoin="round" d="m454.2 442.03l1.96 1.96c1.62 1.62 4.38 0.47 4.38-1.81v-42.36h-30.85m26.48 2.34h-24.77c-0.94 0-1.71 0.76-1.71 1.7v32.61c0 0.94 0.77 1.7 1.71 1.7h4.28v2.72c0 0.71 0.57 1.28 1.28 1.28 0.71 0 1.28-0.57 1.28-1.28v-2.72h4.27v2.72c0 0.71 0.57 1.28 1.28 1.28 0.7 0 1.28-0.57 1.28-1.28v-2.72h4.27v2.72c0 0.71 0.57 1.28 1.28 1.28 0.7 0 1.28-0.57 1.28-1.28v-2.72h4.27c0.95 0 1.71-0.76 1.71-1.7v-32.61c0-0.94-0.76-1.7-1.71-1.7zm-2.95 20.21c1.11 0 2.01 0.9 2.01 2v6.01c0 2.43-1.97 4.4-4.4 4.4h-14.08c-2.43 0-4.4-1.97-4.4-4.4v-6.01c0-1.1 0.89-2 2-2 1.06 0 1.91-0.86 1.91-1.91v-0.59c0-1.05-0.85-1.91-1.91-1.91-1.11 0-2-0.9-2-2.01v-6c0-2.43 1.97-4.41 4.4-4.41h14.08c2.43 0 4.4 1.98 4.4 4.41v6c0 1.11-0.9 2.01-2.01 2.01-1.05 0-1.9 0.86-1.9 1.91v0.59c0 1.05 0.85 1.91 1.9 1.91z"/>
			</g>
			<g id="pcie-slots">
				<path id="pcie-slot 00000144320093303605775280000001879383484911302560 " fill="currentColor" stroke="currentColor" stroke-linecap="round" stroke-linejoin="round" d="m447.08 470.31h-67v-4.8h67zm2 0l1 1h7v-6.8h-7l-1 1"/>
				<path id="pcie-slot 00000070117613201016392710000006799816304838090116 " fill="currentColor" stroke="currentColor" stroke-linecap="round" stroke-linejoin="round" d="m447.08 506.31h-67v-4.8h67zm2 0l1 1h7v-6.8h-7l-1 1"/>
				<path id="pcie-slot 00000110448054903137643330000003011171481026217659 " fill="currentColor" stroke="currentColor" stroke-linecap="round" stroke-linejoin="round" d="m447.08 530.31h-67v-4.8h67zm2 0l1 1h7v-6.8h-7l-1 1"/>
			</g>
			<g id="srews">
				<path id="srew 00000104672999889562882300000014031867073732136850 " fill="currentColor" stroke="currentColor" stroke-linecap="round" stroke-linejoin="round" d="m471.83 453.26c0 1.11-0.89 2-2 2-1.1 0-2-0.89-2-2 0-1.1 0.9-2 2-2 1.11 0 2 0.9 2 2z"/>
				<path id="srew" fill="currentColor" stroke="currentColor" stroke-linecap="round" stroke-linejoin="round" d="m405.83 453.26c0 1.11-0.89 2-2 2-1.1 0-2-0.89-2-2 0-1.1 0.9-2 2-2 1.11 0 2 0.9 2 2z"/>
				<path id="srew 00000010989713487106395470000016485306440258227332 " fill="currentColor" stroke="currentColor" stroke-linecap="round" stroke-linejoin="round" d="m514.4 470.48c0 1.1-0.89 2-2 2-1.1 0-2-0.9-2-2 0-1.11 0.9-2 2-2 1.11 0 2 0.89 2 2z"/>
				<path id="srew 00000063599247631502173700000008963627224243343526 " fill="currentColor" stroke="currentColor" stroke-linecap="round" stroke-linejoin="round" d="m405.83 485.95c0 1.1-0.89 2-2 2-1.1 0-2-0.9-2-2 0-1.11 0.9-2 2-2 1.11 0 2 0.89 2 2z"/>
				<path id="srew 00000103971182485874048130000004719049534222941875 " fill="currentColor" stroke="currentColor" stroke-linecap="round" stroke-linejoin="round" d="m514.4 511.77c0 1.1-0.89 2-2 2-1.1 0-2-0.9-2-2 0-1.11 0.9-2 2-2 1.11 0 2 0.89 2 2z"/>
				<path id="srew 00000054950054458697792740000002149270200725604490 " fill="currentColor" stroke="currentColor" stroke-linecap="round" stroke-linejoin="round" d="m405.83 515.84c0 1.1-0.89 2-2 2-1.1 0-2-0.9-2-2 0-1.11 0.9-2 2-2 1.11 0 2 0.89 2 2z"/>
			</g>
			<g id="inlet-outlet 00000146481601861569721910000001699645378600591516 ">
				<path id="outlet 00000049902466020821858230000009523412934280023740 " fill="currentColor" stroke="currentColor" stroke-linecap="round" stroke-linejoin="round" d="m407.61 427.83c0 3.87-3.13 7-7 7-3.86 0-7-3.13-7-7 0-3.87 3.14-7 7-7 3.87 0 7 3.13 7 7z"/>
				<path id="inlet 00000139279492979257462490000000533434337700585112 " fill="currentColor" stroke="currentColor" stroke-linecap="round" stroke-linejoin="round" d="m462.23 379.85c0 3.87-3.13 7-7 7-3.87 0-7-3.13-7-7 0-3.86 3.13-7 7-7 3.87 0 7 3.14 7 7z"/>
			</g>
			<g id="board 00000090999353707349247580000016259201042730566560 ">
				<path id="heatsink 00000112596319374154320090000006153548188369397421 " fill="currentColor" stroke="currentColor" stroke-linejoin="round" d="m460.94 370.77h-43.85l19.68 18.97h32.14c3.5-3.5 5.5-5.5 9-9v-7.97l-2-2h-14.97l-8.01-8h-27.84l-8 8"/>
				<path id="&lt;Path&gt;" fill="currentColor" stroke="currentColor" stroke-linecap="round" stroke-linejoin="round" d="m521.2 521.04v-61.83h-4.38"/>
				<path id="&lt;Path&gt;" fill="currentColor" stroke="currentColor" stroke-linecap="round" stroke-linejoin="round" d="m521.2 459.21h5.52v58.83c-1.18 1.17-1.83 1.82-3 3h-154.8v-65.3"/>
				<path id="&lt;Path&gt;" fill="currentColor" stroke="currentColor" stroke-linecap="round" stroke-linejoin="round" d="m463.63 496.18h-87.71v14.61h87.71z"/>
				<path id="&lt;Path&gt;" fill="currentColor" stroke="currentColor" stroke-linecap="round" stroke-linejoin="round" d="m375.92 460.51v15.2h82.91l16.68-16.68 41.31 0.18"/>
				<path id="&lt;Path&gt;" fill="currentColor" stroke="currentColor" stroke-linejoin="round" d="m411.63 392.66v47.71l-12.36 12.37h-36.99v-92.36h17.4z"/>
				<path id="&lt;Path&gt;" fill="currentColor" stroke="currentColor" stroke-linejoin="round" d="m400.95 367.5l17.84 18.01"/>
				<path id="&lt;Path&gt;" fill="currentColor" stroke="currentColor" stroke-linejoin="round" d="m411.63 392.66l7.16-7.15h13.59"/>
				<path id="&lt;Path&gt;" fill="currentColor" stroke="currentColor" stroke-linejoin="round" d="m386.96 367.5h26.89l3.24 3.27"/>
				<path id="&lt;Path&gt;" fill="currentColor" stroke="currentColor" stroke-linejoin="round" d="m390.05 370.86v81.88"/>
				<path id="&lt;Path&gt;" fill="currentColor" stroke="currentColor" stroke-linecap="round" stroke-linejoin="round" d="m373.4 455.74v4.77h100.51c1.56-1.56 2.43-2.44 4-4v-10.5h-68.92"/>
				<path id="&lt;Path&gt;" fill="currentColor" stroke="currentColor" stroke-linecap="round" stroke-linejoin="round" d="m419.69 446.01l-14.5 14.5"/>
				<path id="&lt;Path&gt;" fill="currentColor" stroke="currentColor" stroke-linecap="round" stroke-linejoin="round" d="m465.21 446.01l-14.5 14.5"/>
				<path id="&lt;Path&gt;" fill="currentColor" stroke="currentColor" stroke-miterlimit="10" d="m517.01 459.21v-80.95h-39.1"/>
				<path id="&lt;Path&gt;" fill="currentColor" stroke="currentColor" stroke-miterlimit="10" d="m477.91 374.25h46.3v6.28h4.51v19.29h-7.52v59.39"/>
				<path id="&lt;Path&gt;" fill="currentColor" stroke="currentColor" stroke-linecap="round" stroke-linejoin="round" d="m463.63 506.74l14.29 14.3"/>
				<path id="&lt;Path&gt;" fill="currentColor" stroke="currentColor" stroke-linecap="round" stroke-linejoin="round" d="m432.6 475.71l20.47 20.47"/>
			</g>
			<path id="board 00000049184512676159110480000006665112869794628254 " fill="currentColor" stroke="currentColor" stroke-linecap="round" stroke-linejoin="round" d="m479.91 370.77h46.81v6.76m-164.44 78.21v79.9h164.44v-14.6m0-118.22v53.39"/>
		</g>
</g>
</svg>