<svg xmlns="http://www.w3.org/2000/svg" viewBox="0 0 166.06 211.09">
<g transform="translate(-3732.47,-2002.41)">
<g id="Mouse-icon-v2">
			<path id="main-body" fill="currentColor" stroke="currentColor" stroke-miterlimit="10" d="m3767.77 2064.88l56.48-8.35 4.62 10.13v9.34l-2.85 14.46 10.84 9.32 1.12 20.67c0 0-1.83 50.98-24.92 68.66-12.61 3.71-25.58 4.22-34.99 1.9-7.2-7.21-11.72-18.5-12.79-21.34l-15.45-15.09-2.36-32.29c0 0 11.24-11.58 11.24-18.6l-3.02-6.73 3.2-24.59zm45.29 124.23c11.19-41.99 12.43-107.71 11.19-132.57m-56.48 8.34c0 0 2.13 83.48 10.3 126.13m43.07-48.74c9.5-5.81 17.2-13.32 16.46-28.83m-72.32 56.23l9.22-2.52"/>
			<g id="buttons 00000119802328074926554220000009352823483193169586 ">
				<path id="edge-buttons" fill="currentColor" stroke="currentColor" stroke-miterlimit="10" d="m3772.92 2064.12v38.22l-3.28 5.86-2.94-2.67-2.13-37.95m8.35 18.58l-4.41-0.64-2.78 2.8"/>
				<path id="left-right-side-buttons" fill="currentColor" stroke="currentColor" stroke-miterlimit="10" d="m3803.04 2059.67l-0.28 51.81m-10.04 5.6l0.03-55.89m30.44 57.14l-20.43-6.85-31.77 17.74-12.28-25.53c-5.33 50.36 3.91 46.27 15.11 57.47m-5.19-29.58l-8.87 9.31"/>
				<path id="dpi-button" fill="currentColor" stroke="currentColor" stroke-miterlimit="10" d="m3800.03 2108.2h-4.42c-0.46 0-0.83-0.37-0.83-0.83v-5.24c0-0.46 0.37-0.83 0.83-0.83h4.42c0.46 0 0.83 0.37 0.83 0.83v5.24c0 0.46-0.37 0.83-0.83 0.83z"/>
			</g>
			<path id="wheel" fill="currentColor" stroke="currentColor" stroke-miterlimit="10" d="m3792.72 2072.52h2.67v-2.43h4.7v2.43h2.83m-10.2 21.48h2.67v2.42h4.7v-2.42h2.67m-2.67-21.48v21.48m-4.7-21.48v21.48"/>
			<path id="cable 00000091695515434687361650000008789314710481180087 " fill="currentColor" stroke="currentColor" stroke-miterlimit="10" d="m3793.94 2046.83l0.46-3.64h6.62l0.54 3.64m0.55 4.52l-0.38-2.4h-7.86l-0.35 2.4m9.52 8.32l-0.76-6.21h-8.82l-0.71 7.73m90.78 67.36l-16.85-16.85c-9.78-9.78-15.28-23.05-15.28-36.89v-35.12c0-14.41-11.68-22.28-26.09-22.28h-1.48c-14.41 0-26.09 7.87-26.09 22.28v3.5"/>
		</g>
</g>
</svg>