<svg xmlns="http://www.w3.org/2000/svg" viewBox="0 0 153.98 180.00">
<g transform="translate(-3473.04,-2027.41)" stroke-width="10.59">
<g id="Mouse-icon-v1 00000145756168053207908910000015572000431098693546 ">
			<g id="mouse">
				<path id="button 00000153676787389275226960000003272112532668465058 " fill="none" stroke="currentColor" stroke-linecap="round" stroke-linejoin="round" d="m3497.92 2108.94c-3.28 1.12-5.86 2.46-6.65 4.24-1.61 3.63-6.4 27.57-3.23 30.75 2.43 2.43 15.49 21.46 23.95 37.1 1 1.85 2.44 3.44 4.19 4.61 6.47 4.33 16.1 6.77 16.1 6.77 0.62-1.82 2.39-3.2 4.48-3.3 2.12-0.1 3.89 1.01 4.48 2.76 12.82-2.58 24.25-12.54 28.12-23.81 6.71-19.57 3.28-23.24 2.15-36.13-2.1-24.05 3.29-58.87-7.46-71.57-7.04-8.33-23.79-17.95-23.79-17.95 0 0 5.45 24.6 5.45 44.36 0 19.76-1.62 26.61-1.62 26.61l21.82 6.7m-0.31 6.59l-21.91-5.63-41.1 15.96m-0.76-4.48l28.34-14.3c0 0-3.01-22.98-3.01-34.88 0-11.89 2.01-37.9 2.01-37.9l-23.38 12.5-9.68 27.01c0 0 9.35 18.33 13.79 43.5m31.34 63.42l-2.89-17.83c-0.65-4.02-1.25-5.11-11.44-8.52m5.36 26.89c0 0 2.77-13.76 2.77-18.8 0-5.04-4.05-6.4-4.05-6.4 0 0-4.84-2.01-13.11-5.44-8.26-3.43-12.9-11.9-14.71-21.57-0.93-4.91-6.24-37.27-6.24-37.27l1.18-13.66m7.71 21.57c2.4-26.59 3.38-45.29 3.38-54.73m-13.09 28.84l11.95-2.34-9.57-4.31m63.66-20c3.99 16.81 5.79 63.07 1.45 86.27 4.79 2.39 8.42 6 9.37 9.66m-44.64-96.9h14.68"/>
				<path id="central-buttons" fill="none" stroke="currentColor" stroke-linecap="round" stroke-linejoin="round" d="m3541.24 2105.51h-8.63v-7.81h8.63zm0 3.18h-8.63l1.49 10.91 7.14-1.49z"/>
				<path id="wheel 00000108290372394464799640000007841035096797202068 " fill="none" stroke="currentColor" stroke-linecap="round" stroke-linejoin="round" d="m3541.24 2092.48h-8.63v-24.4h8.63zm-8.63-20h8.63m-8.63 3.9h8.63m-8.63 3.9h8.63m-8.63 3.9h8.63m-8.63 3.9h8.63"/>
			</g>
			<path id="bluetooth 00000009578403472979398580000007107678024766894739 " fill="none" stroke="currentColor" stroke-linecap="round" stroke-linejoin="round" d="m3590.81 2106.81l21.21 21.21-10.6 10.6v-42.41l10.6 10.6-21.21 21.21"/>
		</g>
</g>
</svg>