<svg xmlns="http://www.w3.org/2000/svg" viewBox="0 0 171.26 131.40">
<g transform="translate(-2863.20,-383.34)" stroke-width="10.07">
<g id="Power-Supply-icon-v3 00000129918614100775232030000010156680841884681893 ">
			<path id="case 00000023254186526728607160000007201000090161670797 " fill="none" stroke="currentColor" stroke-linejoin="round" d="m2886.43 403.34v91.4c0 2.76 2.23 5 5 5h117.96c1.33 0 2.6-0.52 3.54-1.46l5.07-5.07c0.94-0.94 1.46-2.21 1.46-3.54v-81.26c0-1.32-0.52-2.6-1.46-3.53l-5.07-5.07c-0.94-0.94-2.21-1.47-3.54-1.47h-117.96c-2.77 0-5 2.24-5 5z"/>
			<path id="intake 00000055687033799516324480000014321795405225011590 " fill="none" stroke="currentColor" stroke-miterlimit="10" d="m2962.35 483.24c-8.31-0.28-16.1-3.51-22.17-9.18m24.53-55.28c7.25 0.28 14.06 3.1 19.38 8.03m-9.47 12.81c1.99 2.33 3.17 5.19 3.41 8.24m-13.32-13.32c3.05 0.24 5.91 1.43 8.24 3.41m-18.84 0c2.33-1.98 5.19-3.17 8.24-3.41m-13.33 13.32c0.25-3.05 1.43-5.91 3.42-8.24m0 18.84c-1.99-2.33-3.17-5.19-3.42-8.24m13.33 13.33c-3.05-0.25-5.91-1.43-8.24-3.42m18.84 0c-2.33 1.99-5.19 3.17-8.24 3.42m13.32-13.33c-0.24 3.05-1.42 5.91-3.41 8.24m2.79-21.63c2.72 3.08 4.31 6.93 4.57 11.03m-17.27-17.26c4.1 0.25 7.95 1.84 11.03 4.56m-24.42 0c3.08-2.72 6.93-4.31 11.03-4.56m-17.27 17.26c0.26-4.1 1.85-7.95 4.57-11.03m0 24.42c-2.72-3.08-4.31-6.93-4.57-11.03m17.27 17.27c-4.1-0.26-7.95-1.85-11.03-4.57m24.42 0c-3.08 2.72-6.93 4.31-11.03 4.57m17.27-17.27c-0.26 4.1-1.85 7.95-4.57 11.03m2.78-27.2c3.46 3.83 5.46 8.66 5.73 13.81m-21.21-21.2c5.15 0.26 9.98 2.26 13.81 5.72m-29.99 0c3.83-3.46 8.67-5.46 13.82-5.72m-21.21 21.2c0.27-5.15 2.27-9.98 5.72-13.81m0 29.99c-3.45-3.83-5.45-8.67-5.72-13.82m21.21 21.21c-5.15-0.27-9.99-2.27-13.82-5.72m29.99 0c-3.83 3.45-8.66 5.45-13.81 5.72m21.21-21.21c-0.27 5.15-2.27 9.99-5.73 13.82m2.79-32.78c4.19 4.58 6.6 10.4 6.87 16.6m-25.14-25.14c6.2 0.27 12.02 2.68 16.6 6.87m-35.56 0c4.58-4.19 10.4-6.6 16.6-6.87m-25.14 25.14c0.27-6.2 2.68-12.02 6.87-16.6m0 35.56c-4.19-4.58-6.6-10.39-6.87-16.6m25.14 25.15c-6.2-0.28-12.02-2.69-16.6-6.88m35.56 0c-4.58 4.19-10.4 6.6-16.6 6.88m25.14-25.15c-0.27 6.21-2.68 12.02-6.87 16.6m2.78-38.34c4.93 5.32 7.75 12.13 8.03 19.38m-50.82-21.05c5.32-4.93 12.12-7.75 19.38-8.03m-29.08 29.08c0.27-7.25 3.09-14.06 8.03-19.38m0 41.12c-4.94-5.32-7.75-12.12-8.03-19.38m29.08 29.08c-7.26-0.27-14.06-3.09-19.38-8.03m41.12 0c-5.32 4.94-12.13 7.76-19.38 8.03m29.08-29.08c-0.28 7.26-3.1 14.06-8.03 19.38m2.78-43.9c5.68 6.07 8.9 13.86 9.18 22.16m-33.01-33.01c8.3 0.28 16.09 3.5 22.16 9.18m-46.69 0c6.07-5.68 13.86-8.9 22.17-9.18m-33.02 33.01c0.28-8.3 3.51-16.09 9.18-22.16m0 46.69c-5.67-6.07-8.9-13.86-9.18-22.17m57.54 23.84c-6.07 5.67-13.86 8.9-22.16 9.18m33.01-33.02c-0.28 8.31-3.5 16.1-9.18 22.17m2.78-49.48c6.42 6.82 10.06 15.6 10.34 24.95m-36.95-36.95c9.35 0.28 18.13 3.92 24.95 10.34m-52.26 0c6.82-6.42 15.59-10.06 24.95-10.34m-36.95 36.95c0.28-9.35 3.92-18.13 10.33-24.95m0 52.26c-6.41-6.81-10.05-15.59-10.33-24.95m36.95 36.95c-9.36-0.28-18.13-3.92-24.95-10.33m52.26 0c-6.82 6.41-15.6 10.05-24.95 10.33m36.95-36.95c-0.28 9.36-3.92 18.14-10.34 24.95"/>
			<path id="fins 00000132798867321364199950000013766513149193668238 " fill="none" stroke="currentColor" stroke-miterlimit="10" d="m2944.65 415.87h-54.22m121.56 0h-29.59m-46.97 7.37h-45m121.56 0h-20.36m-61.52 7.38h-39.68m121.56 0h-15.04m-69.95 7.37h-36.57m121.56 0h-11.93m-74.5 7.37h-35.13m121.56 0h-10.49m-75.94 7.37h-35.13m121.56 0h-10.49m-74.5 7.37h-36.57m121.56 0h-11.93m-69.95 7.37h-39.68m121.56 0h-15.04m-61.52 7.37h-45m121.56 0h-20.36m-46.98 7.37h-54.22m121.56 0h-29.59"/>
			<path id="power-socket 00000007419236910762471600000018259519960268329406 " fill="none" stroke="currentColor" stroke-linecap="round" stroke-linejoin="round" d="m2885.23 478.61h-1.83v-30.7h1.83"/>
			<path id="power-switch 00000024688181201164544380000005458449322167382917 " fill="none" stroke="currentColor" stroke-linecap="round" stroke-linejoin="round" d="m2885.23 441.21h-1.83v-21.5h1.83m-2.03 2.43h-5v16.64h5"/>
			<g id="bolts 00000005966144565519385870000002302475873745491119 ">
				<path id="bolt 00000048470764125521970370000008296227748974963585 " fill="none" stroke="currentColor" stroke-miterlimit="10" d="m2885.23 404.84h-1.55c-0.55 0-1 0.45-1 1v3c0 0.55 0.45 1 1 1h1.55"/>
				<path id="bolt 00000023983524137616024550000016657934992156662448 " fill="none" stroke="currentColor" stroke-miterlimit="10" d="m2885.23 488.24h-1.55c-0.55 0-1 0.45-1 1v3c0 0.56 0.45 1 1 1h1.55"/>
			</g>
			<g id="screws 00000063628526369941106760000004689174887647095961 ">
				<path id="screw 00000010288796695882979090000010643526409490107056 " fill="none" stroke="currentColor" stroke-miterlimit="10" d="m2897.93 407.34c0 1.38-1.12 2.5-2.5 2.5-1.38 0-2.5-1.12-2.5-2.5 0-1.38 1.12-2.5 2.5-2.5 1.38 0 2.5 1.12 2.5 2.5z"/>
				<path id="screw 00000103967115374647054920000017685861660733859499 " fill="none" stroke="currentColor" stroke-miterlimit="10" d="m3006.96 407.34c0 1.38-1.12 2.5-2.5 2.5-1.38 0-2.5-1.12-2.5-2.5 0-1.38 1.12-2.5 2.5-2.5 1.38 0 2.5 1.12 2.5 2.5z"/>
				<path id="screw 00000042697576505203787150000006765371517859856523 " fill="none" stroke="currentColor" stroke-miterlimit="10" d="m2897.93 490.74c0 1.38-1.12 2.5-2.5 2.5-1.38 0-2.5-1.12-2.5-2.5 0-1.38 1.12-2.5 2.5-2.5 1.38 0 2.5 1.12 2.5 2.5z"/>
				<path id="screw 00000027581748040668761530000010723833213514836132 " fill="none" stroke="currentColor" stroke-miterlimit="10" d="m3006.96 490.74c0 1.38-1.12 2.5-2.5 2.5-1.38 0-2.5-1.12-2.5-2.5 0-1.38 1.12-2.5 2.5-2.5 1.38 0 2.5 1.12 2.5 2.5z"/>
			</g>
		</g>
</g>
</svg>