<svg xmlns="http://www.w3.org/2000/svg" viewBox="2543.8 1111.1 270.1 105.0">
<g id="360mm-Radiator-icon-v2 00000021833827184554074060000004638216503544589477 ">
			<g id="fixing-holes 00000058586621768863063800000016293250908358289855 ">
				<path id="hole 00000157298722904328197800000011887400896475971215 " fill="currentColor" stroke="currentColor" stroke-miterlimit="10" d="m2583.03 1131.99c0 1.1-0.9 1.99-2 1.99-1.1 0-1.99-0.89-1.99-1.99 0-1.1 0.89-1.99 1.99-1.99 1.1 0 2 0.89 2 1.99z"/>
				<path id="hole 00000095309335295523314180000001670490971899361680 " fill="currentColor" stroke="currentColor" stroke-miterlimit="10" d="m2645.96 1131.99c0 1.1-0.9 1.99-2 1.99-1.1 0-1.99-0.89-1.99-1.99 0-1.1 0.89-1.99 1.99-1.99 1.1 0 2 0.89 2 1.99z"/>
				<path id="hole 00000095315324490018766440000005305314926695864965 " fill="currentColor" stroke="currentColor" stroke-miterlimit="10" d="m2653.34 1131.99c0 1.1-0.89 1.99-1.99 1.99-1.1 0-2-0.89-2-1.99 0-1.1 0.9-1.99 2-1.99 1.1 0 1.99 0.89 1.99 1.99z"/>
				<path id="hole 00000136387968242208607620000009261902471701180819 " fill="currentColor" stroke="currentColor" stroke-miterlimit="10" d="m2716.27 1131.99c0 1.1-0.89 1.99-1.99 1.99-1.1 0-2-0.89-2-1.99 0-1.1 0.9-1.99 2-1.99 1.1 0 1.99 0.89 1.99 1.99z"/>
				<path id="hole 00000074410631128023629960000002116649362317716630 " fill="currentColor" stroke="currentColor" stroke-miterlimit="10" d="m2723.65 1131.99c0 1.1-0.89 1.99-1.99 1.99-1.1 0-1.99-0.89-1.99-1.99 0-1.1 0.89-1.99 1.99-1.99 1.1 0 1.99 0.89 1.99 1.99z"/>
				<path id="hole 00000029006956136679014320000006812394612034703520 " fill="currentColor" stroke="currentColor" stroke-miterlimit="10" d="m2786.58 1131.99c0 1.1-0.89 1.99-1.99 1.99-1.1 0-1.99-0.89-1.99-1.99 0-1.1 0.89-1.99 1.99-1.99 1.1 0 1.99 0.89 1.99 1.99z"/>
				<path id="hole 00000008832282780591314280000005895129842402405289 " fill="currentColor" stroke="currentColor" stroke-miterlimit="10" d="m2584.02 1195.27c0 1.1-0.89 1.99-1.99 1.99-1.1 0-1.99-0.89-1.99-1.99 0-1.1 0.89-1.99 1.99-1.99 1.1 0 1.99 0.89 1.99 1.99z"/>
				<path id="hole 00000003086290605705032720000005299511274932253855 " fill="currentColor" stroke="currentColor" stroke-miterlimit="10" d="m2645.96 1195.27c0 1.1-0.9 1.99-2 1.99-1.1 0-1.99-0.89-1.99-1.99 0-1.1 0.89-1.99 1.99-1.99 1.1 0 2 0.89 2 1.99z"/>
				<path id="hole 00000018950217243245223890000014950296155492933292 " fill="currentColor" stroke="currentColor" stroke-miterlimit="10" d="m2653.34 1195.27c0 1.1-0.89 1.99-1.99 1.99-1.1 0-2-0.89-2-1.99 0-1.1 0.9-1.99 2-1.99 1.1 0 1.99 0.89 1.99 1.99z"/>
				<path id="hole 00000153687670990717651060000006044552020044314284 " fill="currentColor" stroke="currentColor" stroke-miterlimit="10" d="m2716.27 1195.27c0 1.1-0.89 1.99-1.99 1.99-1.1 0-2-0.89-2-1.99 0-1.1 0.9-1.99 2-1.99 1.1 0 1.99 0.89 1.99 1.99z"/>
				<path id="hole 00000052809214278822979140000012297239815863734963 " fill="currentColor" stroke="currentColor" stroke-miterlimit="10" d="m2723.65 1195.27c0 1.1-0.89 1.99-1.99 1.99-1.1 0-1.99-0.89-1.99-1.99 0-1.1 0.89-1.99 1.99-1.99 1.1 0 1.99 0.89 1.99 1.99z"/>
				<path id="hole 00000077310709261536128770000011297111948297397421 " fill="currentColor" stroke="currentColor" stroke-miterlimit="10" d="m2786.58 1195.27c0 1.1-0.89 1.99-1.99 1.99-1.1 0-1.99-0.89-1.99-1.99 0-1.1 0.89-1.99 1.99-1.99 1.1 0 1.99 0.89 1.99 1.99z"/>
			</g>
			<g id="fins-T 00000098925078529944845250000007060560608754608810 ">
				<path id="fin 00000057107276413515587700000013215861939818582193 " fill="currentColor" stroke="currentColor" stroke-linecap="round" stroke-miterlimit="10" d="m2734.31 1135.01h37.48"/>
				<path id="fin 00000050662036309473836320000012852103712069919108 " fill="currentColor" stroke="currentColor" stroke-linecap="round" stroke-miterlimit="10" d="m2664.09 1135.01h37.62"/>
				<path id="fin 00000016052475340692014980000004844970596400309381 " fill="currentColor" stroke="currentColor" stroke-linecap="round" stroke-miterlimit="10" d="m2593.69 1135.01h37.62"/>
			</g>
			<g id="fins-B 00000163074940013663953970000010610561769754632378 ">
				<path id="fin 00000078018043726218978120000000109386802585122746 " fill="currentColor" stroke="currentColor" stroke-linecap="round" stroke-miterlimit="10" d="m2734.31 1192.25h37.48"/>
				<path id="fin 00000042712181836449950790000011210792914116687290 " fill="currentColor" stroke="currentColor" stroke-linecap="round" stroke-miterlimit="10" d="m2664.09 1192.25h37.62"/>
				<path id="fin 00000017508319432749605340000001432231938359194275 " fill="currentColor" stroke="currentColor" stroke-linecap="round" stroke-miterlimit="10" d="m2593.69 1192.25h37.62"/>
			</g>
			<g id="ends 00000118391829825911765570000012349868584291971460 ">
				<path id="end 00000136399772691162736920000014048495332293442436 " fill="currentColor" stroke="currentColor" stroke-linejoin="round" d="m2794.27 1132.75h2.61c1.1 0 1.99 0.89 1.99 1.99v57.77c0 1.11-0.89 2-1.99 2h-2.61"/>
				<path id="inlet 00000046297889046220876400000018304909089038854568 " fill="currentColor" stroke="currentColor" stroke-linejoin="round" d="m2572.19 1149.21c0 2.43-1.97 4.4-4.4 4.4-2.42 0-4.39-1.97-4.39-4.4 0-2.42 1.97-4.39 4.39-4.39 2.43 0 4.4 1.97 4.4 4.39z"/>
				<path id="outlet 00000074435960920124706650000015222179950890265505 " fill="currentColor" stroke="currentColor" stroke-linejoin="round" d="m2572.19 1178.04c0 2.43-1.97 4.4-4.4 4.4-2.42 0-4.39-1.97-4.39-4.4 0-2.42 1.97-4.39 4.39-4.39 2.43 0 4.4 1.97 4.4 4.39z"/>
				<path id="end 00000085963504906213806790000007065060621684703670 " fill="currentColor" stroke="currentColor" stroke-linejoin="round" d="m2571.57 1194.51h-7.37c-0.53 0-1.04-0.21-1.41-0.59l-3.41-3.41c-0.38-0.37-0.59-0.88-0.59-1.41v-23.48h14.9m-2.12-32.87h-7.37c-0.53 0-1.04 0.21-1.41 0.58l-3.41 3.42c-0.38 0.37-0.59 0.88-0.59 1.41v23.48h14.9m-12.65 0v3.98"/>
			</g>
			<path id="sides-fins 00000136410467670932925720000016842492826898906771 " fill="currentColor" stroke="currentColor" stroke-linejoin="round" d="m2790.07 1190.58h0.62c1.1 0 2 0.89 2 1.99v6.57c0 1.1-0.9 1.99-2 1.99h-214.76c-1.1 0-1.99-0.89-1.99-1.99v-6.57c0-1.1 0.89-1.99 1.99-1.99h6.8c1.05 0 2.07 0.42 2.81 1.17l4.7 4.7c0.75 0.74 1.76 1.16 2.82 1.16h38.88c1.06 0 2.07-0.42 2.82-1.16l4.7-4.7c0.75-0.75 1.76-1.17 2.82-1.17h10.9c1.07 0 2.1 0.43 2.85 1.2l4.52 4.63c0.75 0.77 1.77 1.2 2.85 1.2h38.88c1.04 0 2.04-0.4 2.79-1.13l4.88-4.77c0.74-0.72 1.74-1.13 2.78-1.13h10.62c1.06 0 2.07 0.42 2.82 1.17l4.69 4.7c0.75 0.74 1.76 1.16 2.82 1.16h38.84c1.08 0 2.12-0.44 2.87-1.23l4.39-4.57c0.75-0.79 1.79-1.23 2.88-1.23h5.62v-49.85h-206.95v5.73h202.97v5.72h-202.97v5.72h202.97v5.73h-202.97v5.72h202.97v5.73h-202.97v5.72h202.97v5.72h-206.96v-49.84h5.63c1.08 0 2.12-0.45 2.88-1.23l4.38-4.58c0.75-0.78 1.79-1.23 2.88-1.23h38.83c1.06 0 2.07 0.42 2.82 1.17l4.7 4.7c0.74 0.75 1.76 1.17 2.81 1.17h10.62c1.04 0 2.04-0.41 2.78-1.14l4.89-4.76c0.74-0.73 1.74-1.14 2.78-1.14h38.89c1.07 0 2.1 0.44 2.85 1.21l4.52 4.62c0.75 0.77 1.77 1.21 2.85 1.21h10.9c1.05 0 2.07-0.42 2.81-1.17l4.7-4.7c0.75-0.75 1.76-1.17 2.82-1.17h38.89c1.05 0 2.07 0.42 2.82 1.17l4.69 4.7c0.75 0.75 1.76 1.17 2.82 1.17h7.79c1.1 0 1.99-0.9 1.99-2v-6.56c0-1.1-0.89-1.99-1.99-1.99h-214.76c-1.1 0-1.99 0.89-1.99 1.99v6.56c0 1.1 0.89 2 1.99 2h0.02"/>
		</g>
</svg>