<svg xmlns="http://www.w3.org/2000/svg" viewBox="0 0 199.70 105.00">
<g transform="translate(-2578.98,-1349.67)" stroke-width="11.75">
<g id="240mm-Radiator-icon-v2 00000001638881270087596880000012892033702646850961 ">
			<g id="fixing-holes 00000162311332800205730890000013549887937489113222 ">
				<path id="hole 00000118381599684176978900000012199663700196867988 " fill="none" stroke="currentColor" stroke-miterlimit="10" d="m2618.21 1370.53c0 1.09-0.89 1.99-1.99 1.99-1.1 0-2-0.9-2-1.99 0-1.1 0.9-2 2-2 1.1 0 1.99 0.9 1.99 2z"/>
				<path id="hole 00000083793747763030233810000005605751998136657327 " fill="none" stroke="currentColor" stroke-miterlimit="10" d="m2681.11 1370.53c0 1.09-0.89 1.99-1.99 1.99-1.1 0-1.99-0.9-1.99-1.99 0-1.1 0.89-2 1.99-2 1.1 0 1.99 0.9 1.99 2z"/>
				<path id="hole 00000103971656564100829850000009814192672455343489 " fill="none" stroke="currentColor" stroke-miterlimit="10" d="m2688.49 1370.53c0 1.09-0.89 1.99-1.99 1.99-1.1 0-1.99-0.9-1.99-1.99 0-1.1 0.89-2 1.99-2 1.1 0 1.99 0.9 1.99 2z"/>
				<path id="hole 00000178181168034425954240000017162170495173714333 " fill="none" stroke="currentColor" stroke-miterlimit="10" d="m2751.4 1370.56c0 1.1-0.9 1.99-2 1.99-1.1 0-1.99-0.89-1.99-1.99 0-1.1 0.89-1.99 1.99-1.99 1.1 0 2 0.89 2 1.99z"/>
				<path id="hole 00000039118649314482034360000009471744693784794262 " fill="none" stroke="currentColor" stroke-miterlimit="10" d="m2619.2 1433.78c0 1.1-0.89 1.99-1.99 1.99-1.1 0-1.99-0.89-1.99-1.99 0-1.1 0.89-1.99 1.99-1.99 1.1 0 1.99 0.89 1.99 1.99z"/>
				<path id="hole 00000182518188118876650410000017261595710662137767 " fill="none" stroke="currentColor" stroke-miterlimit="10" d="m2681.11 1433.78c0 1.1-0.89 1.99-1.99 1.99-1.1 0-1.99-0.89-1.99-1.99 0-1.1 0.89-1.99 1.99-1.99 1.1 0 1.99 0.89 1.99 1.99z"/>
				<path id="hole 00000078756109129293306620000001035916764350550412 " fill="none" stroke="currentColor" stroke-miterlimit="10" d="m2688.49 1433.78c0 1.1-0.89 1.99-1.99 1.99-1.1 0-1.99-0.89-1.99-1.99 0-1.1 0.89-1.99 1.99-1.99 1.1 0 1.99 0.89 1.99 1.99z"/>
				<path id="hole 00000181069882557345193050000011334357899977194659 " fill="none" stroke="currentColor" stroke-miterlimit="10" d="m2751.4 1433.81c0 1.1-0.9 1.99-2 1.99-1.1 0-1.99-0.89-1.99-1.99 0-1.1 0.89-1.99 1.99-1.99 1.1 0 2 0.89 2 1.99z"/>
			</g>
			<g id="fins-T 00000178187440590736064440000004460998903812665475 ">
				<path id="fin 00000064331593725753417170000017863401212180578186 " fill="none" stroke="currentColor" stroke-linecap="round" stroke-miterlimit="10" d="m2699.23 1373.55h37.61"/>
				<path id="fin 00000165933530245218926170000012990347687542647183 " fill="none" stroke="currentColor" stroke-linecap="round" stroke-miterlimit="10" d="m2628.86 1373.55h37.61"/>
			</g>
			<g id="fins-B 00000104677050905015217450000015882071471738298263 ">
				<path id="fin 00000005960860867389423730000004236399937129853101 " fill="none" stroke="currentColor" stroke-linecap="round" stroke-miterlimit="10" d="m2699.23 1430.76h37.61"/>
				<path id="fin 00000021811020063900436250000006931573709443951778 " fill="none" stroke="currentColor" stroke-linecap="round" stroke-miterlimit="10" d="m2628.86 1430.76h37.61"/>
			</g>
			<g id="ends 00000021811163774477834120000014064529413917246349 ">
				<path id="end 00000055685594211490743520000017782442663414972861 " fill="none" stroke="currentColor" stroke-linejoin="round" d="m2759.08 1371.32h2.61c1.1 0 1.99 0.89 1.99 1.99v57.75c0 1.1-0.89 1.99-1.99 1.99h-2.61"/>
				<path id="inlet 00000060009153505785393160000005493562554357705371 " fill="none" stroke="currentColor" stroke-linejoin="round" d="m2607.37 1387.74c0 2.43-1.96 4.4-4.39 4.4-2.43 0-4.39-1.97-4.39-4.4 0-2.42 1.96-4.39 4.39-4.39 2.43 0 4.39 1.97 4.39 4.39z"/>
				<path id="outlet 00000094595153150560365990000014829947277257437061 " fill="none" stroke="currentColor" stroke-linejoin="round" d="m2607.37 1416.56c0 2.42-1.96 4.39-4.39 4.39-2.43 0-4.39-1.97-4.39-4.39 0-2.43 1.96-4.39 4.39-4.39 2.43 0 4.39 1.96 4.39 4.39z"/>
				<path id="end 00000073695838496136816480000015559217568140990111 " fill="none" stroke="currentColor" stroke-linejoin="round" d="m2606.75 1433.02h-7.36c-0.53 0-1.04-0.21-1.41-0.59l-3.41-3.41c-0.38-0.37-0.59-0.88-0.59-1.41v-23.47h14.89m-2.12-32.85h-7.36c-0.53 0-1.04 0.21-1.41 0.58l-3.41 3.41c-0.38 0.38-0.59 0.88-0.59 1.41v23.47h14.89m-12.63 0v3.98"/>
			</g>
			<path id="sides-fins 00000078734390804595733390000011685374664500051596 " fill="none" stroke="currentColor" stroke-linejoin="round" d="m2754.89 1429.13h0.62c1.1 0 1.99 0.89 1.99 1.99v6.56c0 1.1-0.89 1.99-1.99 1.99l-144.39-0.04c-1.1 0-1.99-0.89-1.99-1.99v-6.56c0-1.1 0.89-1.99 1.99-1.99h6.79c1.05 0 2.07 0.42 2.81 1.17l4.7 4.69c0.74 0.75 1.76 1.17 2.81 1.17h38.87c1.06 0 2.07-0.42 2.82-1.17l4.69-4.69c0.75-0.75 1.76-1.17 2.82-1.17h10.9c1.07 0 2.1 0.44 2.84 1.2l4.52 4.63c0.75 0.77 1.78 1.2 2.85 1.2h38.87c1.04 0 2.04-0.41 2.78-1.13l4.41-4.64c0.75-0.78 1.79-1.22 2.87-1.22h5.62v-49.83l-136.58-0.03v5.72l132.6 0.03v5.72l-132.6-0.03v5.72l132.6 0.03v5.73l-132.6-0.04v5.72l132.6 0.04v5.72l-132.6-0.04v5.72l132.6 0.04v5.72l-136.58-0.03v-49.83h5.62c1.09 0 2.12-0.44 2.88-1.23l4.38-4.57c0.75-0.78 1.79-1.23 2.87-1.23h38.82c1.06 0 2.07 0.42 2.82 1.17l4.69 4.69c0.75 0.75 1.76 1.17 2.82 1.17h10.61c1.04 0 2.04-0.41 2.78-1.13l4.88-4.77c0.75-0.72 1.75-1.13 2.78-1.13h38.87c1.08 0 2.1 0.44 2.85 1.2l4.7 4.7c0.74 0.74 1.76 1.16 2.81 1.16h7.79c1.1 0 1.99-0.89 1.99-1.99l0.01-6.56c0-1.1-0.9-1.99-2-1.99l-144.38-0.03c-1.1 0-1.99 0.89-1.99 1.99v6.56c0 1.1 0.89 1.99 1.99 1.99h0.01"/>
		</g>
</g>
</svg>