<svg xmlns="http://www.w3.org/2000/svg" viewBox="0 0 130.43 105.00">
<g transform="translate(-2883.62,-1588.21)" stroke-width="7.67">
<g id="120mm-Radiator-icon-v3 00000147921086750226260420000004248632172640320682 ">
			<g id="fixing-holes 00000006679274360825889990000000166341324007306638 ">
				<path id="hole 00000181082532027634286630000011217931946972671641 " fill="currentColor" stroke="currentColor" stroke-miterlimit="10" d="m2919.07 1609.07c0 1.1-0.89 1.99-1.99 1.99-1.1 0-2-0.89-2-1.99 0-1.1 0.9-1.99 2-1.99 1.1 0 1.99 0.89 1.99 1.99z"/>
				<path id="hole 00000180349062927614523330000015398151783991432603 " fill="currentColor" stroke="currentColor" stroke-miterlimit="10" d="m2982 1609.07c0 1.1-0.89 1.99-1.99 1.99-1.1 0-2-0.89-2-1.99 0-1.1 0.9-1.99 2-1.99 1.1 0 1.99 0.89 1.99 1.99z"/>
				<path id="hole 00000163032374997113422580000010457769785394291355 " fill="currentColor" stroke="currentColor" stroke-miterlimit="10" d="m2919.07 1672.35c0 1.1-0.89 1.99-1.99 1.99-1.1 0-2-0.89-2-1.99 0-1.1 0.9-1.99 2-1.99 1.1 0 1.99 0.89 1.99 1.99z"/>
				<path id="hole 00000050652036724981146050000002208053133730447770 " fill="currentColor" stroke="currentColor" stroke-miterlimit="10" d="m2982 1672.35c0 1.1-0.89 1.99-1.99 1.99-1.1 0-2-0.89-2-1.99 0-1.1 0.9-1.99 2-1.99 1.1 0 1.99 0.89 1.99 1.99z"/>
			</g>
			<g id="fins 00000047056235783427114860000010424647130918779317 ">
				<path id="fin 00000070830968871825035630000000045893951817089689 " fill="currentColor" stroke="currentColor" stroke-linecap="round" stroke-miterlimit="10" d="m2929.73 1612.09h37.62"/>
			</g>
			<g id="fins 00000067958718025484056310000008778617901071248529 ">
				<path id="fin 00000102512182275158037190000006634101131679087524 " fill="currentColor" stroke="currentColor" stroke-linecap="round" stroke-miterlimit="10" d="m2929.73 1669.33h37.62"/>
			</g>
			<g id="inlet-outlet 00000034083005773018316490000013746729817974365622 ">
				<path id="outlet 00000052811752549319906540000003119144665980113558 " fill="currentColor" stroke="currentColor" stroke-linejoin="round" d="m2996.06 1659.11c0 2.42-1.97 4.39-4.39 4.39-2.43 0-4.4-1.97-4.4-4.39 0-2.43 1.97-4.4 4.4-4.4 2.42 0 4.39 1.97 4.39 4.4z"/>
				<path id="inlet 00000024701004936299126770000000773925723942027658 " fill="currentColor" stroke="currentColor" stroke-linejoin="round" d="m2910.4 1622.31c0 2.43-1.97 4.39-4.4 4.39-2.43 0-4.39-1.96-4.39-4.39 0-2.43 1.96-4.39 4.39-4.39 2.43 0 4.4 1.96 4.4 4.39z"/>
			</g>
			<path id="case-and-fins 00000149360107894927401780000017589823886603579288 " fill="currentColor" stroke="currentColor" stroke-linejoin="round" d="m2987.7 1603.21l10.63 47.72q0.72 3.23 0.72 6.53v15.77c0 2.75-2.23 4.98-4.98 4.98h-82.69v-10.55h9.04c1.83 1.83 5.2 5.2 7.03 7.03h42.18c0 0 4.91-5.2 6.74-7.03h7.33v-49.85h-65.34v5.73h60.36v5.72h-60.36v5.72h60.36v5.73h-60.36v5.72h60.36v5.73h-60.36v5.72h60.36v5.72h-65.34v-49.84h7.33c1.83-1.84 4.91-5.21 6.74-7.04h42.18c1.83 1.83 5.2 5.2 7.03 7.04h9.04v-10.55h-82.1c-2.75 0-4.98 2.23-4.98 4.98v15.94q0 3.13 0.65 6.2l10.11 47.88"/>
		</g>
</g>
</svg>