<svg xmlns="http://www.w3.org/2000/svg" viewBox="0 0 129.41 105.00">
<g transform="translate(-2614.13,-1588.21)" stroke-width="7.61">
<g id="120mm-Radiator-icon-v2 00000079475228738539956820000000545734152321846420 ">
			<g id="fixing-holes 00000083792594592189567250000004032243726298763140 ">
				<path id="hole 00000074408873411755603030000017287575394207743378 " fill="currentColor" stroke="currentColor" stroke-miterlimit="10" d="m2653.35 1609.07c0 1.09-0.89 1.99-1.99 1.99-1.1 0-1.99-0.9-1.99-1.99 0-1.1 0.89-2 1.99-2 1.1 0 1.99 0.9 1.99 2z"/>
				<path id="hole 00000183240050033759723310000001177045524558545038 " fill="currentColor" stroke="currentColor" stroke-miterlimit="10" d="m2716.25 1609.1c0 1.1-0.89 1.99-1.99 1.99-1.1 0-1.99-0.89-1.99-1.99 0-1.1 0.89-1.99 1.99-1.99 1.1 0 1.99 0.89 1.99 1.99z"/>
				<path id="hole 00000173856981995245400730000017052885376753620140 " fill="currentColor" stroke="currentColor" stroke-miterlimit="10" d="m2654.35 1672.32c0 1.1-0.9 1.99-1.99 1.99-1.1 0-2-0.89-2-1.99 0-1.1 0.9-1.99 2-1.99 1.09 0 1.99 0.89 1.99 1.99z"/>
				<path id="hole 00000102523349673189183590000008596284893704138911 " fill="currentColor" stroke="currentColor" stroke-miterlimit="10" d="m2716.25 1672.35c0 1.1-0.89 1.99-1.99 1.99-1.1 0-1.99-0.89-1.99-1.99 0-1.1 0.89-1.99 1.99-1.99 1.1 0 1.99 0.89 1.99 1.99z"/>
			</g>
			<g id="fins-T 00000140006216697366403020000006487594414589505206 ">
				<path id="fin 00000147902073448576896470000011692858641546006206 " fill="currentColor" stroke="currentColor" stroke-linecap="round" stroke-miterlimit="10" d="m2664.01 1612.09h37.6"/>
			</g>
			<g id="fins-B 00000117672982554463595650000008621576324256478905 ">
				<path id="fin 00000119829155005277619980000017859602976622740642 " fill="currentColor" stroke="currentColor" stroke-linecap="round" stroke-miterlimit="10" d="m2664.01 1669.3h37.6"/>
			</g>
			<g id="ends 00000096749543546334985660000010789920608431605688 ">
				<path id="end 00000168099423359477797790000017155641611832108710 " fill="currentColor" stroke="currentColor" stroke-linejoin="round" d="m2723.94 1609.86h2.61c1.1 0 1.99 0.89 1.99 1.99v57.75c0 1.1-0.89 1.99-1.99 1.99h-2.61"/>
				<path id="inlet 00000021081019728788373400000000599252279649919667 " fill="currentColor" stroke="currentColor" stroke-linejoin="round" d="m2642.52 1626.28c0 2.43-1.97 4.4-4.4 4.4-2.42 0-4.39-1.97-4.39-4.4 0-2.42 1.97-4.39 4.39-4.39 2.43 0 4.4 1.97 4.4 4.39z"/>
				<path id="outlet 00000167377155764536296160000013905560352649000638 " fill="currentColor" stroke="currentColor" stroke-linejoin="round" d="m2642.52 1655.1c0 2.43-1.97 4.39-4.4 4.39-2.42 0-4.39-1.96-4.39-4.39 0-2.43 1.97-4.39 4.39-4.39 2.43 0 4.4 1.96 4.4 4.39z"/>
				<path id="end 00000083085485523097606660000011169791310552309650 " fill="currentColor" stroke="currentColor" stroke-linejoin="round" d="m2641.89 1671.56h-7.36c-0.53 0-1.03-0.21-1.41-0.59l-3.41-3.41c-0.37-0.37-0.58-0.88-0.58-1.41v-23.47h14.88m-2.12-32.85h-7.36c-0.53 0-1.03 0.21-1.41 0.58l-3.41 3.41c-0.37 0.38-0.58 0.88-0.58 1.41v23.47h14.88m-12.63 0v3.98"/>
			</g>
			<path id="sides-fins 00000106853536187192898880000004928581938419311493 " fill="currentColor" stroke="currentColor" stroke-linejoin="round" d="m2719.74 1667.67h0.62c1.1 0 1.99 0.89 1.99 1.99v6.56c0 1.1-0.89 1.99-1.99 1.99l-74.1-0.04c-1.1 0-1.99-0.89-1.99-1.99v-6.56c0-1.1 0.89-1.99 1.99-1.99h6.79c1.06 0 2.07 0.42 2.82 1.17l4.69 4.69c0.75 0.75 1.76 1.17 2.82 1.17h38.86c1.06 0 2.07-0.42 2.82-1.17l4.39-4.6c0.75-0.78 1.79-1.22 2.88-1.22h5.62v-49.83l-66.3-0.03v5.72l62.32 0.03v5.72l-62.32-0.03v5.72l62.32 0.03v5.73l-62.32-0.04v5.72l62.32 0.04v5.72l-62.32-0.04v5.72l62.32 0.04v5.72l-66.3-0.03v-49.83h5.62c1.09 0 2.13-0.44 2.88-1.23l4.38-4.57c0.75-0.78 1.79-1.23 2.88-1.23h38.81c1.06 0 2.07 0.42 2.82 1.17v0.03l4.69 4.7c0.75 0.74 1.76 1.16 2.82 1.16h7.79c1.09 0 1.99-0.89 1.99-1.99v-6.55c0-1.11-0.89-2-1.99-2l-74.1-0.03c-1.1 0-1.99 0.89-1.99 1.99v6.56c0 1.1 0.89 1.99 1.99 1.99h0.02"/>
		</g>
</g>
</svg>