<svg xmlns="http://www.w3.org/2000/svg" viewBox="0 0 271.05 105.00">
<g transform="translate(-2273.31,-1111.13)">
<g id="360mm-Radiator-icon-v1 00000116222765120883923970000017637457731194082963 ">
			<path id="end 00000124854770438520105830000012164033426542761124 " fill="currentColor" stroke="currentColor" stroke-linejoin="round" d="m2522.25 1199.4h4.12c1.65 0 2.99-1.34 2.99-2.99v-65.56c0-1.65-1.34-2.99-2.99-2.99h-4.12z"/>
			<g id="edges 00000075878996897725105690000000775232848705513395 ">
				<path id="top 00000131362471482203316470000010476732982485991338 " fill="currentColor" stroke="currentColor" stroke-linecap="round" stroke-linejoin="round" d="m2308.05 1136.68h7.33c1.83-1.84 4.9-5.21 6.73-7.04h42.19c1.83 1.83 5.2 5.2 7.03 7.04h13.89c1.83-1.84 5.38-5.21 7.21-7.04h42.18c1.84 1.83 5.04 5.2 6.87 7.04h14.23c1.83-1.84 5.2-5.21 7.03-7.04h42.19c1.83 1.83 5.2 5.2 7.03 7.04h7.03v-10.55h-210.94z"/>
				<path id="bottom 00000084498046464935034940000014137691540660814223 " fill="currentColor" stroke="currentColor" stroke-linecap="round" stroke-linejoin="round" d="m2518.99 1190.58h-7.33c-1.83 1.83-4.9 5.2-6.73 7.03h-42.19c-1.83-1.83-5.2-5.2-7.03-7.03h-13.89c-1.83 1.83-5.37 5.2-7.21 7.03h-42.18c-1.83-1.83-5.04-5.2-6.87-7.03h-14.22c-1.84 1.83-5.21 5.2-7.04 7.03h-42.19c-1.83-1.83-5.19-5.2-7.02-7.03h-7.04v10.55h210.94z"/>
			</g>
			<g id="fixing-holes 00000027603216019034453830000009115566601301322892 ">
				<path id="hole 00000072984856552925374730000000525150562666956969 " fill="currentColor" stroke="currentColor" stroke-miterlimit="10" d="m2314.73 1131.99c0 1.1-0.89 1.99-1.99 1.99-1.1 0-1.99-0.89-1.99-1.99 0-1.1 0.89-1.99 1.99-1.99 1.1 0 1.99 0.89 1.99 1.99z"/>
				<path id="hole 00000096054634386477503540000015724269984558407097 " fill="currentColor" stroke="currentColor" stroke-miterlimit="10" d="m2375.67 1131.99c0 1.1-0.89 1.99-1.99 1.99-1.1 0-2-0.89-2-1.99 0-1.1 0.9-1.99 2-1.99 1.1 0 1.99 0.89 1.99 1.99z"/>
				<path id="hole 00000114767142434940155390000013243562672903641241 " fill="currentColor" stroke="currentColor" stroke-miterlimit="10" d="m2385.04 1131.99c0 1.1-0.89 1.99-1.99 1.99-1.1 0-1.99-0.89-1.99-1.99 0-1.1 0.89-1.99 1.99-1.99 1.1 0 1.99 0.89 1.99 1.99z"/>
				<path id="hole 00000104702994941978224040000007160631273607558564 " fill="currentColor" stroke="currentColor" stroke-miterlimit="10" d="m2445.98 1131.99c0 1.1-0.89 1.99-1.99 1.99-1.1 0-1.99-0.89-1.99-1.99 0-1.1 0.89-1.99 1.99-1.99 1.1 0 1.99 0.89 1.99 1.99z"/>
				<path id="hole 00000065754730763238856650000016347960925042811801 " fill="currentColor" stroke="currentColor" stroke-miterlimit="10" d="m2455.36 1131.99c0 1.1-0.9 1.99-2 1.99-1.1 0-1.99-0.89-1.99-1.99 0-1.1 0.89-1.99 1.99-1.99 1.1 0 2 0.89 2 1.99z"/>
				<path id="hole 00000153670831339312775710000015162556232074928261 " fill="currentColor" stroke="currentColor" stroke-miterlimit="10" d="m2516.29 1131.99c0 1.1-0.89 1.99-1.99 1.99-1.1 0-1.99-0.89-1.99-1.99 0-1.1 0.89-1.99 1.99-1.99 1.1 0 1.99 0.89 1.99 1.99z"/>
				<path id="hole 00000057866278623739936660000003378177454087204995 " fill="currentColor" stroke="currentColor" stroke-miterlimit="10" d="m2314.73 1195.27c0 1.1-0.89 1.99-1.99 1.99-1.1 0-1.99-0.89-1.99-1.99 0-1.1 0.89-1.99 1.99-1.99 1.1 0 1.99 0.89 1.99 1.99z"/>
				<path id="hole 00000007391002725743406170000004422709259156255386 " fill="currentColor" stroke="currentColor" stroke-miterlimit="10" d="m2375.67 1195.27c0 1.1-0.89 1.99-1.99 1.99-1.1 0-2-0.89-2-1.99 0-1.1 0.9-1.99 2-1.99 1.1 0 1.99 0.89 1.99 1.99z"/>
				<path id="hole 00000154425385744627983940000005885724746234042530 " fill="currentColor" stroke="currentColor" stroke-miterlimit="10" d="m2385.04 1195.27c0 1.1-0.89 1.99-1.99 1.99-1.1 0-1.99-0.89-1.99-1.99 0-1.1 0.89-1.99 1.99-1.99 1.1 0 1.99 0.89 1.99 1.99z"/>
				<path id="hole 00000040540998791915616350000003239257725328080812 " fill="currentColor" stroke="currentColor" stroke-miterlimit="10" d="m2445.98 1195.27c0 1.1-0.89 1.99-1.99 1.99-1.1 0-1.99-0.89-1.99-1.99 0-1.1 0.89-1.99 1.99-1.99 1.1 0 1.99 0.89 1.99 1.99z"/>
				<path id="hole 00000096050110166529217850000008090052030603026351 " fill="currentColor" stroke="currentColor" stroke-miterlimit="10" d="m2455.36 1195.27c0 1.1-0.9 1.99-2 1.99-1.1 0-1.99-0.89-1.99-1.99 0-1.1 0.89-1.99 1.99-1.99 1.1 0 2 0.89 2 1.99z"/>
				<path id="hole 00000083770200212254967440000002050479330822419083 " fill="currentColor" stroke="currentColor" stroke-miterlimit="10" d="m2516.29 1195.27c0 1.1-0.89 1.99-1.99 1.99-1.1 0-1.99-0.89-1.99-1.99 0-1.1 0.89-1.99 1.99-1.99 1.1 0 1.99 0.89 1.99 1.99z"/>
			</g>
			<g id="fins 00000051376868316291552650000010908344139429118087 ">
				<path id="fins 00000167396532761290547510000006681109113614297228 " fill="currentColor" stroke="currentColor" stroke-linecap="round" stroke-miterlimit="10" d="m2310.04 1186.52h206.96v-5.72h-206.96v-5.72h206.96v-5.73h-206.96v-5.72h206.96v-5.73h-206.96v-5.72h206.96v-5.72h-206.96v-5.73h206.96"/>
				<g id="top-fins 00000147213581859400878930000011254876947904096930 ">
					<path id="fin 00000004507436628982899580000006346410848730677380 " fill="currentColor" stroke="currentColor" stroke-linecap="round" stroke-miterlimit="10" d="m2465.02 1135.01h37.47"/>
					<path id="fin 00000158740626557447091360000000925786782356434321 " fill="currentColor" stroke="currentColor" stroke-linecap="round" stroke-miterlimit="10" d="m2394.79 1135.01h37.63"/>
					<path id="fin 00000175293633993522546170000008485008828578079408 " fill="currentColor" stroke="currentColor" stroke-linecap="round" stroke-miterlimit="10" d="m2324.4 1135.01h37.62"/>
				</g>
				<g id="bottom-fins 00000158030913499519721060000014108479303351637891 ">
					<path id="fin 00000182528949319336086350000007410022353949782961 " fill="currentColor" stroke="currentColor" stroke-linecap="round" stroke-miterlimit="10" d="m2465.02 1192.25h37.47"/>
					<path id="fin 00000164474645603587522390000004552414686463256240 " fill="currentColor" stroke="currentColor" stroke-linecap="round" stroke-miterlimit="10" d="m2394.79 1192.25h37.63"/>
					<path id="fin 00000049900284408594136660000003505569678328864183 " fill="currentColor" stroke="currentColor" stroke-linecap="round" stroke-miterlimit="10" d="m2324.4 1192.25h37.62"/>
				</g>
			</g>
			<g id="inlet-outlet 00000167377850705247627910000012492265235702884259 ">
				<path id="outlet 00000140015982151288909180000000599759074809108889 " fill="currentColor" stroke="currentColor" stroke-linejoin="round" d="m2300.9 1185.25c0 2.43-1.96 4.39-4.39 4.39-2.43 0-4.4-1.96-4.4-4.39 0-2.43 1.97-4.4 4.4-4.4 2.43 0 4.39 1.97 4.39 4.4z"/>
				<path id="inlet 00000168831367754814066100000012152600434522212509 " fill="currentColor" stroke="currentColor" stroke-linejoin="round" d="m2300.9 1142.01c0 2.42-1.96 4.39-4.39 4.39-2.43 0-4.4-1.97-4.4-4.39 0-2.43 1.97-4.4 4.4-4.4 2.43 0 4.39 1.97 4.39 4.4z"/>
				<path id="start 00000124153461218154985200000001082916330903997854 " fill="currentColor" stroke="currentColor" stroke-linejoin="round" d="m2293.29 1127.86h11.42v34.27h-6.44c-3.89-3.89-6.07-6.07-9.96-9.96v-19.33c0-2.75 2.23-4.98 4.98-4.98zm-4.98 47.22v19.34c0 2.75 2.23 4.98 4.98 4.98h11.42v-34.28h-6.44c-3.89 3.89-6.07 6.07-9.96 9.96zm3.8-17.43v11.95"/>
			</g>
		</g>
</g>
</svg>