<svg xmlns="http://www.w3.org/2000/svg" viewBox="0 0 200.74 105.00">
<g transform="translate(-2848.46,-1349.67)" stroke-width="11.81">
<g id="240mm-Radiator-icon-v3 00000045606818325004217860000018347219969342765446 ">
			<g id="fixing-holes 00000036949035560758405650000016480250524739267978 ">
				<path id="hole 00000106147967705388801520000011840659433646513072 " fill="none" stroke="currentColor" stroke-miterlimit="10" d="m2883.91 1370.53c0 1.1-0.89 1.99-1.99 1.99-1.1 0-1.99-0.89-1.99-1.99 0-1.1 0.89-1.99 1.99-1.99 1.1 0 1.99 0.89 1.99 1.99z"/>
				<path id="hole 00000129894897638763834960000003892884572141935278 " fill="none" stroke="currentColor" stroke-miterlimit="10" d="m2946.84 1370.53c0 1.1-0.89 1.99-1.99 1.99-1.1 0-1.99-0.89-1.99-1.99 0-1.1 0.89-1.99 1.99-1.99 1.1 0 1.99 0.89 1.99 1.99z"/>
				<path id="hole 00000138539068397349188600000008355422471635636096 " fill="none" stroke="currentColor" stroke-miterlimit="10" d="m2954.22 1370.53c0 1.1-0.89 1.99-1.99 1.99-1.1 0-1.99-0.89-1.99-1.99 0-1.1 0.89-1.99 1.99-1.99 1.1 0 1.99 0.89 1.99 1.99z"/>
				<path id="hole 00000090981260217646259000000000733937401706844839 " fill="none" stroke="currentColor" stroke-miterlimit="10" d="m3017.15 1370.53c0 1.1-0.89 1.99-1.99 1.99-1.1 0-1.99-0.89-1.99-1.99 0-1.1 0.89-1.99 1.99-1.99 1.1 0 1.99 0.89 1.99 1.99z"/>
				<path id="hole 00000116195406777574774610000009342500611581275279 " fill="none" stroke="currentColor" stroke-miterlimit="10" d="m2883.91 1433.81c0 1.1-0.89 1.99-1.99 1.99-1.1 0-1.99-0.89-1.99-1.99 0-1.1 0.89-1.99 1.99-1.99 1.1 0 1.99 0.89 1.99 1.99z"/>
				<path id="hole 00000132059109101664864710000002286089869333608833 " fill="none" stroke="currentColor" stroke-miterlimit="10" d="m2946.84 1433.81c0 1.1-0.89 1.99-1.99 1.99-1.1 0-1.99-0.89-1.99-1.99 0-1.1 0.89-1.99 1.99-1.99 1.1 0 1.99 0.89 1.99 1.99z"/>
				<path id="hole 00000181085049167336310970000015968052585118388408 " fill="none" stroke="currentColor" stroke-miterlimit="10" d="m2954.22 1433.81c0 1.1-0.89 1.99-1.99 1.99-1.1 0-1.99-0.89-1.99-1.99 0-1.1 0.89-1.99 1.99-1.99 1.1 0 1.99 0.89 1.99 1.99z"/>
				<path id="hole 00000108288845634104462010000010483802161498024585 " fill="none" stroke="currentColor" stroke-miterlimit="10" d="m3017.15 1433.81c0 1.1-0.89 1.99-1.99 1.99-1.1 0-1.99-0.89-1.99-1.99 0-1.1 0.89-1.99 1.99-1.99 1.1 0 1.99 0.89 1.99 1.99z"/>
			</g>
			<g id="fins 00000153682998468584524720000001491306558769305765 ">
				<path id="fin 00000083062058787666144440000006788749754887708859 " fill="none" stroke="currentColor" stroke-linecap="round" stroke-miterlimit="10" d="m2964.97 1373.55h37.63"/>
				<path id="fin 00000121241723263673469200000008373268835784820909 " fill="none" stroke="currentColor" stroke-linecap="round" stroke-miterlimit="10" d="m2894.57 1373.55h37.63"/>
			</g>
			<g id="fins 00000023973842054236666180000005707685285489402015 ">
				<path id="fin 00000042718577808550283270000018280271234793055107 " fill="none" stroke="currentColor" stroke-linecap="round" stroke-miterlimit="10" d="m2964.97 1430.79h37.63"/>
				<path id="fin 00000003827184244832631550000011129496411040767662 " fill="none" stroke="currentColor" stroke-linecap="round" stroke-miterlimit="10" d="m2894.57 1430.79h37.63"/>
			</g>
			<g id="inlet-outlet 00000103978875822126143050000003156968723250972587 ">
				<path id="outlet 00000128471982345705828270000013299278143646124193 " fill="none" stroke="currentColor" stroke-linejoin="round" d="m3031.22 1420.57c0 2.42-1.97 4.39-4.4 4.39-2.43 0-4.39-1.97-4.39-4.39 0-2.43 1.96-4.4 4.39-4.4 2.43 0 4.4 1.97 4.4 4.4z"/>
				<path id="inlet 00000015356312975484025890000004741545391804374159 " fill="none" stroke="currentColor" stroke-linejoin="round" d="m2875.24 1383.77c0 2.43-1.97 4.39-4.39 4.39-2.43 0-4.4-1.96-4.4-4.39 0-2.43 1.97-4.39 4.4-4.39 2.42 0 4.39 1.96 4.39 4.39z"/>
			</g>
			<path id="case-and-fins 00000122678520690766328210000018107480717131766200 " fill="none" stroke="currentColor" stroke-linejoin="round" d="m3022.85 1364.67l10.64 47.72q0.71 3.23 0.71 6.53v15.77c0 2.75-2.23 4.98-4.98 4.98h-152.99v-10.55h9.03c1.83 1.83 5.2 5.2 7.03 7.03h42.19c1.83-1.83 5.2-5.2 7.03-7.03h14.23c1.83 1.83 5.03 5.2 6.86 7.03h42.19c0 0 4.91-5.2 6.74-7.03h7.32v-49.85h-135.64v5.73h130.66v5.72h-130.66v5.72h130.66v5.73h-130.66v5.72h130.66v5.73h-130.66v5.72h130.66v5.72h-135.64v-49.84h7.32c1.83-1.84 4.91-5.21 6.74-7.04h42.19c1.83 1.83 5.2 5.2 7.03 7.04h13.89c1.83-1.84 5.37-5.21 7.2-7.04h42.19c1.83 1.83 5.2 5.2 7.03 7.04h9.03v-10.55h-152.41c-2.75 0-4.98 2.23-4.98 4.98v15.94q0 3.13 0.65 6.2l10.12 47.88"/>
		</g>
</g>
</svg>