<svg xmlns="http://www.w3.org/2000/svg" viewBox="0 0 271.05 105.00">
<g transform="translate(-2813.31,-1111.13)">
<g id="360mm-Radiator-icon-v3 00000049917132383308878930000004498661289024767417 ">
			<g id="fixing-holes 00000159443420359332188160000011417946607785088417 ">
				<path id="hole 00000153671850184279405340000013700456922558259363 " fill="currentColor" stroke="currentColor" stroke-miterlimit="10" d="m2848.76 1131.99c0 1.1-0.9 1.99-2 1.99-1.1 0-1.99-0.89-1.99-1.99 0-1.1 0.89-1.99 1.99-1.99 1.1 0 2 0.89 2 1.99z"/>
				<path id="hole 00000088850248659923429040000003306952930777593495 " fill="currentColor" stroke="currentColor" stroke-miterlimit="10" d="m2911.68 1131.99c0 1.1-0.89 1.99-1.99 1.99-1.1 0-1.99-0.89-1.99-1.99 0-1.1 0.89-1.99 1.99-1.99 1.1 0 1.99 0.89 1.99 1.99z"/>
				<path id="hole 00000075156350579279152740000004717008484088143277 " fill="currentColor" stroke="currentColor" stroke-miterlimit="10" d="m2919.07 1131.99c0 1.1-0.89 1.99-1.99 1.99-1.1 0-2-0.89-2-1.99 0-1.1 0.9-1.99 2-1.99 1.1 0 1.99 0.89 1.99 1.99z"/>
				<path id="hole 00000144314888787484247650000003953607757073226683 " fill="currentColor" stroke="currentColor" stroke-miterlimit="10" d="m2982 1131.99c0 1.1-0.89 1.99-1.99 1.99-1.1 0-2-0.89-2-1.99 0-1.1 0.9-1.99 2-1.99 1.1 0 1.99 0.89 1.99 1.99z"/>
				<path id="hole 00000176728129943131277890000005791856120787391636 " fill="currentColor" stroke="currentColor" stroke-miterlimit="10" d="m2989.38 1131.99c0 1.1-0.89 1.99-1.99 1.99-1.1 0-1.99-0.89-1.99-1.99 0-1.1 0.89-1.99 1.99-1.99 1.1 0 1.99 0.89 1.99 1.99z"/>
				<path id="hole 00000005254519102117959120000011234628950408397221 " fill="currentColor" stroke="currentColor" stroke-miterlimit="10" d="m3052.31 1131.99c0 1.1-0.89 1.99-1.99 1.99-1.1 0-1.99-0.89-1.99-1.99 0-1.1 0.89-1.99 1.99-1.99 1.1 0 1.99 0.89 1.99 1.99z"/>
				<path id="hole 00000121280377232779057650000010863448868280074148 " fill="currentColor" stroke="currentColor" stroke-miterlimit="10" d="m2848.76 1195.27c0 1.1-0.9 1.99-2 1.99-1.1 0-1.99-0.89-1.99-1.99 0-1.1 0.89-1.99 1.99-1.99 1.1 0 2 0.89 2 1.99z"/>
				<path id="hole 00000100366599871895950920000001923179558843381138 " fill="currentColor" stroke="currentColor" stroke-miterlimit="10" d="m2911.68 1195.27c0 1.1-0.89 1.99-1.99 1.99-1.1 0-1.99-0.89-1.99-1.99 0-1.1 0.89-1.99 1.99-1.99 1.1 0 1.99 0.89 1.99 1.99z"/>
				<path id="hole 00000046317018362355048910000014738575945603285942 " fill="currentColor" stroke="currentColor" stroke-miterlimit="10" d="m2919.07 1195.27c0 1.1-0.89 1.99-1.99 1.99-1.1 0-2-0.89-2-1.99 0-1.1 0.9-1.99 2-1.99 1.1 0 1.99 0.89 1.99 1.99z"/>
				<path id="hole 00000176006621776840431160000012540291668003220129 " fill="currentColor" stroke="currentColor" stroke-miterlimit="10" d="m2982 1195.27c0 1.1-0.89 1.99-1.99 1.99-1.1 0-2-0.89-2-1.99 0-1.1 0.9-1.99 2-1.99 1.1 0 1.99 0.89 1.99 1.99z"/>
				<path id="hole 00000075162505496965759230000002324677955832158600 " fill="currentColor" stroke="currentColor" stroke-miterlimit="10" d="m2989.38 1195.27c0 1.1-0.89 1.99-1.99 1.99-1.1 0-1.99-0.89-1.99-1.99 0-1.1 0.89-1.99 1.99-1.99 1.1 0 1.99 0.89 1.99 1.99z"/>
				<path id="hole 00000045621087704315378080000005126030775160929445 " fill="currentColor" stroke="currentColor" stroke-miterlimit="10" d="m3052.31 1195.27c0 1.1-0.89 1.99-1.99 1.99-1.1 0-1.99-0.89-1.99-1.99 0-1.1 0.89-1.99 1.99-1.99 1.1 0 1.99 0.89 1.99 1.99z"/>
			</g>
			<g id="fins 00000145765091846350980520000002222259746688684471 ">
				<path id="fin 00000073688844653908096410000007581586428446550656 " fill="currentColor" stroke="currentColor" stroke-linecap="round" stroke-miterlimit="10" d="m3000.04 1135.01h37.47"/>
				<path id="fin 00000084511465925545084660000013635011450499700380 " fill="currentColor" stroke="currentColor" stroke-linecap="round" stroke-miterlimit="10" d="m2929.81 1135.01h37.63"/>
				<path id="fin 00000116233402873510831690000002216911786147707056 " fill="currentColor" stroke="currentColor" stroke-linecap="round" stroke-miterlimit="10" d="m2859.42 1135.01h37.62"/>
			</g>
			<g id="fins 00000047033735241304255550000007527446493403243146 ">
				<path id="fin 00000002367587829792555630000007563823594804239799 " fill="currentColor" stroke="currentColor" stroke-linecap="round" stroke-miterlimit="10" d="m3000.04 1192.25h37.47"/>
				<path id="fin 00000063605772928381469710000006263944492135168396 " fill="currentColor" stroke="currentColor" stroke-linecap="round" stroke-miterlimit="10" d="m2929.81 1192.25h37.63"/>
				<path id="fin 00000065767825907295959660000016448522830632694205 " fill="currentColor" stroke="currentColor" stroke-linecap="round" stroke-miterlimit="10" d="m2859.42 1192.25h37.62"/>
			</g>
			<g id="inlet-outlet 00000128450907705919714790000013645401962878580096 ">
				<path id="outlet 00000037651503786538462240000006035071334653408388 " fill="currentColor" stroke="currentColor" stroke-linejoin="round" d="m3066.37 1182.03c0 2.42-1.97 4.39-4.39 4.39-2.43 0-4.4-1.97-4.4-4.39 0-2.43 1.97-4.4 4.4-4.4 2.42 0 4.39 1.97 4.39 4.4z"/>
				<path id="inlet 00000116933708202588837360000000652332213151431335 " fill="currentColor" stroke="currentColor" stroke-linejoin="round" d="m2840.08 1145.23c0 2.43-1.96 4.39-4.39 4.39-2.43 0-4.4-1.96-4.4-4.39 0-2.43 1.97-4.39 4.4-4.39 2.43 0 4.39 1.96 4.39 4.39z"/>
			</g>
			<path id="case-and-fins 00000169530374258544989760000015299328973346971552 " fill="currentColor" stroke="currentColor" stroke-linejoin="round" d="m3058.01 1126.13l10.63 47.72q0.72 3.23 0.72 6.53v15.77c0 2.75-2.23 4.98-4.98 4.98h-223.31v-10.55h9.03c1.84 1.83 5.2 5.2 7.03 7.03h42.19c1.83-1.83 5.2-5.2 7.03-7.03h14.23c1.83 1.83 5.04 5.2 6.87 7.03h42.18c1.83-1.83 5.38-5.2 7.21-7.03h13.89c1.83 1.83 5.2 5.2 7.03 7.03h42.19c1.83-1.83 4.9-5.2 6.73-7.03h7.33v-49.85h-205.96v5.73h200.98v5.72h-200.98v5.72h200.98v5.73h-200.98v5.72h200.98v5.73h-200.98v5.72h200.98v5.72h-205.96v-49.84h7.33c1.83-1.84 4.9-5.21 6.73-7.04h42.19c1.83 1.83 5.2 5.2 7.03 7.04h13.89c1.83-1.84 5.38-5.21 7.21-7.04h42.18c1.83 1.83 5.04 5.2 6.87 7.04h14.23c1.83-1.84 5.2-5.21 7.03-7.04h42.19c1.83 1.83 5.2 5.2 7.03 7.04h9.03v-10.55h-222.72c-2.75 0-4.98 2.23-4.98 4.98v15.94q0 3.13 0.64 6.2l10.12 47.88"/>
		</g>
</g>
</svg>