<svg xmlns="http://www.w3.org/2000/svg" viewBox="0 0 200.74 105.00">
<g transform="translate(-2308.46,-1349.67)">
<g id="240mm-Radiator-icon-v1 00000159457885514465862380000010304414615552102044 ">
			<path id="end 00000038376067654572594630000015261003585089580945 " fill="currentColor" stroke="currentColor" stroke-linejoin="round" d="m2487.1 1437.94h4.12c1.65 0 2.98-1.34 2.98-2.99v-65.56c0-1.65-1.33-2.99-2.98-2.99h-4.12z"/>
			<g id="edges 00000045611265193192051640000018351242474485574574 ">
				<path id="top 00000132781166438530941800000018262202497883848352 " fill="currentColor" stroke="currentColor" stroke-linecap="round" stroke-linejoin="round" d="m2469.77 1368.18c1.83 1.83 5.2 5.2 7.03 7.04h7.03v-10.55h-140.62v10.55h7.32c1.83-1.84 4.91-5.21 6.74-7.04h42.19c1.83 1.83 5.2 5.2 7.03 7.04h13.89c1.83-1.84 5.37-5.21 7.2-7.04h42.19z"/>
				<path id="bottom 00000041292910970173146530000008906696412905417107 " fill="currentColor" stroke="currentColor" stroke-linecap="round" stroke-linejoin="round" d="m2427.58 1436.15c-1.83-1.83-5.03-5.2-6.86-7.03h-14.23c-1.83 1.83-5.2 5.2-7.03 7.03h-42.19c-1.83-1.83-5.2-5.2-7.03-7.03h-7.03v10.55h140.62v-10.55h-7.32c-1.83 1.83-4.91 5.2-6.74 7.03z"/>
			</g>
			<g id="fixing-holes 00000180334891678153618110000013550171458808271036 ">
				<path id="hole 00000060717079449803363530000013172416733865812888 " fill="currentColor" stroke="currentColor" stroke-miterlimit="10" d="m2349.89 1370.53c0 1.1-0.89 1.99-1.99 1.99-1.1 0-2-0.89-2-1.99 0-1.1 0.9-1.99 2-1.99 1.1 0 1.99 0.89 1.99 1.99z"/>
				<path id="hole 00000159444862641484044110000016621766409987773334 " fill="currentColor" stroke="currentColor" stroke-miterlimit="10" d="m2410.83 1370.53c0 1.1-0.9 1.99-2 1.99-1.1 0-1.99-0.89-1.99-1.99 0-1.1 0.89-1.99 1.99-1.99 1.1 0 2 0.89 2 1.99z"/>
				<path id="hole 00000177465540404934159860000008578393690430381217 " fill="currentColor" stroke="currentColor" stroke-miterlimit="10" d="m2420.2 1370.53c0 1.1-0.89 1.99-1.99 1.99-1.1 0-1.99-0.89-1.99-1.99 0-1.1 0.89-1.99 1.99-1.99 1.1 0 1.99 0.89 1.99 1.99z"/>
				<path id="hole 00000023988972655422211580000015890341360073221268 " fill="currentColor" stroke="currentColor" stroke-miterlimit="10" d="m2481.14 1370.53c0 1.1-0.89 1.99-1.99 1.99-1.1 0-2-0.89-2-1.99 0-1.1 0.9-1.99 2-1.99 1.1 0 1.99 0.89 1.99 1.99z"/>
				<path id="hole 00000068665231006316282630000014641558335105905548 " fill="currentColor" stroke="currentColor" stroke-miterlimit="10" d="m2349.89 1433.81c0 1.1-0.89 1.99-1.99 1.99-1.1 0-2-0.89-2-1.99 0-1.1 0.9-1.99 2-1.99 1.1 0 1.99 0.89 1.99 1.99z"/>
				<path id="hole 00000088814854343527461110000015803071579345470910 " fill="currentColor" stroke="currentColor" stroke-miterlimit="10" d="m2410.83 1433.81c0 1.1-0.9 1.99-2 1.99-1.1 0-1.99-0.89-1.99-1.99 0-1.1 0.89-1.99 1.99-1.99 1.1 0 2 0.89 2 1.99z"/>
				<path id="hole 00000062163467205921033500000014735965082216154026 " fill="currentColor" stroke="currentColor" stroke-miterlimit="10" d="m2420.2 1433.81c0 1.1-0.89 1.99-1.99 1.99-1.1 0-1.99-0.89-1.99-1.99 0-1.1 0.89-1.99 1.99-1.99 1.1 0 1.99 0.89 1.99 1.99z"/>
				<path id="hole 00000016795777150367555870000009638224234757771659 " fill="currentColor" stroke="currentColor" stroke-miterlimit="10" d="m2481.14 1433.81c0 1.1-0.89 1.99-1.99 1.99-1.1 0-2-0.89-2-1.99 0-1.1 0.9-1.99 2-1.99 1.1 0 1.99 0.89 1.99 1.99z"/>
			</g>
			<g id="fins 00000004505403275139148240000010795637076411312522 ">
				<path id="fins 00000067211484319875504290000008736710715586045864 " fill="currentColor" stroke="currentColor" stroke-linecap="round" stroke-miterlimit="10" d="m2345.2 1425.06h136.64v-5.72h-136.64v-5.72h136.64v-5.73h-136.64v-5.72h136.64v-5.73h-136.64v-5.72h136.64v-5.72h-136.64v-5.73h136.64"/>
				<g id="top-fins 00000093885419857666486380000004688504045755319963 ">
					<path id="fin 00000118379471467921725550000013588298108625640858 " fill="currentColor" stroke="currentColor" stroke-linecap="round" stroke-miterlimit="10" d="m2429.95 1373.55h37.63"/>
					<path id="fin 00000175289671968554488370000007118989710272167040 " fill="currentColor" stroke="currentColor" stroke-linecap="round" stroke-miterlimit="10" d="m2359.55 1373.55h37.63"/>
				</g>
				<g id="bottom-fins 00000103243105590494438880000013457706952662079672 ">
					<path id="fin 00000156584802447043892980000016344707863738906262 " fill="currentColor" stroke="currentColor" stroke-linecap="round" stroke-miterlimit="10" d="m2429.95 1430.79h37.63"/>
					<path id="fin 00000083078139860975498190000008213575772895947912 " fill="currentColor" stroke="currentColor" stroke-linecap="round" stroke-miterlimit="10" d="m2359.55 1430.79h37.63"/>
				</g>
			</g>
			<g id="inlet-outlet 00000133492000512650240040000012805254575698571419 ">
				<path id="outlet 00000132787712147443648140000005118336101451111314 " fill="currentColor" stroke="currentColor" stroke-linejoin="round" d="m2336.06 1423.79c0 2.43-1.97 4.39-4.39 4.39-2.43 0-4.4-1.96-4.4-4.39 0-2.43 1.97-4.4 4.4-4.4 2.42 0 4.39 1.97 4.39 4.4z"/>
				<path id="inlet 00000103987014240794212830000005194027755992668597 " fill="currentColor" stroke="currentColor" stroke-linejoin="round" d="m2336.06 1380.55c0 2.43-1.97 4.39-4.39 4.39-2.43 0-4.4-1.96-4.4-4.39 0-2.43 1.97-4.4 4.4-4.4 2.42 0 4.39 1.97 4.39 4.4z"/>
				<path id="start 00000183244240564612054750000000006536389752838305 " fill="currentColor" stroke="currentColor" stroke-linejoin="round" d="m2328.44 1366.4h11.43v34.27h-6.45c-3.89-3.89-6.07-6.07-9.96-9.96v-19.33c0-2.75 2.23-4.98 4.98-4.98zm-4.98 47.22v19.34c0 2.75 2.23 4.98 4.98 4.98h11.43v-34.28h-6.45c-3.89 3.89-6.07 6.07-9.96 9.96zm3.81-17.43v11.95"/>
			</g>
		</g>
</g>
</svg>