<svg xmlns="http://www.w3.org/2000/svg" viewBox="2343.6 1588.2 130.4 105.0">
<g id="120mm-Radiator-icon-v1 00000090285589842144906460000007851514488178288052 ">
			<path id="end 00000109732583601077791040000004167084148391414715 " fill="currentColor" stroke="currentColor" stroke-linejoin="round" d="m2451.94 1676.48h4.12c1.65 0 2.99-1.34 2.99-2.99v-65.56c0-1.65-1.34-2.99-2.99-2.99h-4.12z"/>
			<g id="edges 00000093867951562615863000000017722318917079839634 ">
				<path id="top 00000116198047250048398630000000029583698147375540 " fill="currentColor" stroke="currentColor" stroke-linecap="round" stroke-linejoin="round" d="m2434.61 1606.72c1.84 1.83 5.2 5.2 7.03 7.04h7.04v-10.55h-70.32v10.55h7.33c1.83-1.84 4.91-5.21 6.74-7.04z"/>
				<path id="bottom 00000155841064770404164440000000341530321240528304 " fill="currentColor" stroke="currentColor" stroke-linecap="round" stroke-linejoin="round" d="m2434.61 1674.69h-42.18c-1.83-1.83-5.2-5.2-7.03-7.03h-7.04v10.55h70.32v-10.55h-7.33c-1.83 1.83-4.9 5.2-6.74 7.03z"/>
			</g>
			<g id="fixing-holes 00000143588162901594875860000017486502116457131176 ">
				<path id="hole 00000116952754218835559900000015019337363449145531 " fill="currentColor" stroke="currentColor" stroke-miterlimit="10" d="m2385.04 1609.07c0 1.1-0.89 1.99-1.99 1.99-1.1 0-1.99-0.89-1.99-1.99 0-1.1 0.89-1.99 1.99-1.99 1.1 0 1.99 0.89 1.99 1.99z"/>
				<path id="hole 00000075842114491164952600000007792002495858249909 " fill="currentColor" stroke="currentColor" stroke-miterlimit="10" d="m2445.98 1609.07c0 1.1-0.89 1.99-1.99 1.99-1.1 0-1.99-0.89-1.99-1.99 0-1.1 0.89-1.99 1.99-1.99 1.1 0 1.99 0.89 1.99 1.99z"/>
				<path id="hole 00000159466621089289547310000002187079273409155985 " fill="currentColor" stroke="currentColor" stroke-miterlimit="10" d="m2385.04 1672.35c0 1.1-0.89 1.99-1.99 1.99-1.1 0-1.99-0.89-1.99-1.99 0-1.1 0.89-1.99 1.99-1.99 1.1 0 1.99 0.89 1.99 1.99z"/>
				<path id="hole 00000027578776685509184740000004725364578780992656 " fill="currentColor" stroke="currentColor" stroke-miterlimit="10" d="m2445.98 1672.35c0 1.1-0.89 1.99-1.99 1.99-1.1 0-1.99-0.89-1.99-1.99 0-1.1 0.89-1.99 1.99-1.99 1.1 0 1.99 0.89 1.99 1.99z"/>
			</g>
			<g id="fins 00000096059292967711701380000009053723571169439651 ">
				<path id="fins 00000034063421644569409960000009932205544987211451 " fill="currentColor" stroke="currentColor" stroke-linecap="round" stroke-miterlimit="10" d="m2380.36 1663.6h66.32v-5.72h-66.32v-5.72h66.32v-5.73h-66.32v-5.72h66.32v-5.73h-66.32v-5.72h66.32v-5.72h-66.32v-5.73h66.32"/>
				<g id="top-fins 00000126316244263328397160000009762385915281171844 ">
					<path id="fin 00000147199037409984954610000007975610113904783000 " fill="currentColor" stroke="currentColor" stroke-linecap="round" stroke-miterlimit="10" d="m2394.71 1612.09h37.62"/>
				</g>
				<g id="bottom-fins 00000080201546912065268740000011556450609925177985 ">
					<path id="fin 00000110458329181911015300000017589715093622590134 " fill="currentColor" stroke="currentColor" stroke-linecap="round" stroke-miterlimit="10" d="m2394.71 1669.33h37.62"/>
				</g>
			</g>
			<g id="inlet-outlet 00000014626053946116613770000008465465754737443495 ">
				<path id="outlet 00000180336287695498030930000005006533796445679754 " fill="currentColor" stroke="currentColor" stroke-linejoin="round" d="m2371.22 1662.33c0 2.43-1.97 4.39-4.4 4.39-2.43 0-4.39-1.96-4.39-4.39 0-2.43 1.96-4.4 4.39-4.4 2.43 0 4.4 1.97 4.4 4.4z"/>
				<path id="inlet 00000130632947549809945850000006837355366387359930 " fill="currentColor" stroke="currentColor" stroke-linejoin="round" d="m2371.22 1619.09c0 2.43-1.97 4.39-4.4 4.39-2.43 0-4.39-1.96-4.39-4.39 0-2.43 1.96-4.4 4.39-4.4 2.43 0 4.4 1.97 4.4 4.4z"/>
				<path id="start 00000098214060248069170760000002061076045642324383 " fill="currentColor" stroke="currentColor" stroke-linejoin="round" d="m2363.6 1604.94h11.42v34.27h-6.44c-3.89-3.89-6.07-6.07-9.96-9.96v-19.33c0-2.75 2.23-4.98 4.98-4.98zm-4.98 47.22v19.34c0 2.75 2.23 4.98 4.98 4.98h11.42v-34.28h-6.44c-3.89 3.89-6.07 6.07-9.96 9.96zm3.81-17.43v11.95"/>
			</g>
		</g>
</svg>