<svg xmlns="http://www.w3.org/2000/svg" viewBox="1729.1 164.8 376.3 91.4">
<g id="RAM-icon-v3">
			<path id="centre 00000023283260232989912550000016102383838830358966 " fill="currentColor" stroke="currentColor" stroke-linecap="round" stroke-linejoin="round" d="m1744.52 201.2v15c0 0.39 0.34 0.71 0.75 0.71h0.37c0.41 0 0.74 0.31 0.74 0.7v2.38c0 0.38-0.33 0.7-0.74 0.7h-0.37c-0.41 0-0.75 0.32-0.75 0.71v2.37c0 0.39 0.34 0.7 0.75 0.7h0.37c0.41 0 0.74 0.32 0.74 0.71v2.37c0 0.39-0.33 0.71-0.74 0.71h-0.37c-0.41 0-0.75 0.31-0.75 0.7v10.32c0 1.04 0.89 1.88 1.98 1.88h97.13v-6.23c0-0.8 0.64-1.46 1.44-1.49l0.68-0.03c0.85-0.04 1.56 0.64 1.56 1.5v6.25h70.52c1.09 0 1.98-0.84 1.98-1.88v-10.32c0-0.39-0.33-0.7-0.74-0.7h-0.37c-0.41 0-0.74-0.32-0.74-0.71v-2.37c0-0.39 0.33-0.71 0.74-0.71h0.37c0.41 0 0.74-0.31 0.74-0.7v-2.37c0-0.39-0.33-0.71-0.74-0.71h-0.37c-0.41 0-0.74-0.32-0.74-0.7v-2.38c0-0.39 0.33-0.7 0.74-0.7h0.37c0.41 0 0.74-0.32 0.74-0.71v-15"/>
			<path id="text 00000109748117451636306800000018197067257672652733 " fill="currentColor" stroke="currentColor" stroke-linecap="round" stroke-linejoin="round" d="m1896.03 206.28h12.36m-43.93 0h25.96"/>
			<path id="rgb 00000086680417916913817470000017413433391797856387 " fill="currentColor" stroke="currentColor" stroke-linecap="round" stroke-linejoin="round" d="m1744.13 198.2v-18.42h176.08v18.42zm5.81 15v16.75h164.45v-16.75z"/>
			<path id="branding 00000036941197390796947570000003960680745879434395 " fill="currentColor" stroke="currentColor" stroke-linecap="round" stroke-linejoin="round" d="m1818.8 184.05h9.82v9.64m24.74-9.64h-21.19v9.64"/>
		</g>
</svg>