<svg xmlns="http://www.w3.org/2000/svg" viewBox="1457.2 404.6 210.0 90.0">
<g id="RAM-icon-v6">
			<path id="connector 00000031901017959156560670000003776349712486302644 " fill="currentColor" stroke="currentColor" stroke-linecap="round" stroke-linejoin="round" d="m1474.52 451.38v3.31c0 0.38 0.34 0.7 0.75 0.7h0.37c0.41 0 0.74 0.32 0.74 0.71v2.37c0 0.39-0.33 0.7-0.74 0.7h-0.37c-0.41 0-0.75 0.32-0.75 0.71v2.37c0 0.39 0.34 0.71 0.75 0.71h0.37c0.41 0 0.74 0.31 0.74 0.7v2.37c0 0.39-0.33 0.71-0.74 0.71h-0.37c-0.41 0-0.75 0.32-0.75 0.7v10.32c0 1.04 0.89 1.88 1.98 1.88h97.13v-6.22c0-0.81 0.64-1.47 1.44-1.5l0.68-0.03c0.85-0.03 1.56 0.65 1.56 1.5v6.25h70.52c1.09 0 1.98-0.84 1.98-1.88v-10.32c0-0.38-0.33-0.7-0.74-0.7h-0.37c-0.41 0-0.74-0.32-0.74-0.71v-2.37c0-0.39 0.33-0.7 0.74-0.7h0.37c0.41 0 0.74-0.32 0.74-0.71v-2.37c0-0.39-0.33-0.71-0.74-0.71h-0.37c-0.41 0-0.74-0.31-0.74-0.7v-2.37c0-0.39 0.33-0.71 0.74-0.71h0.37c0.41 0 0.74-0.32 0.74-0.7v-3.31"/>
			<g id="RGB 00000155841369836179048910000008603222427290361217 ">
				<path id="left 00000072240689577280082330000009283530372576871321 " fill="currentColor" stroke="currentColor" stroke-linecap="round" stroke-linejoin="round" d="m1558.21 424.07v-4.43h-77.43l-8.61 6.32v15.64l1.96 1.86"/>
				<path id="right 00000078030016759735996310000010348047279907391874 " fill="currentColor" stroke="currentColor" stroke-linecap="round" stroke-linejoin="round" d="m1650.21 443.46l1.96-1.86v-15.64l-8.62-6.32h-77.42v4.43"/>
				<path id="centre 00000141441292047716305130000011510727037230990779 " fill="currentColor" stroke="currentColor" stroke-linecap="round" stroke-linejoin="round" d="m1541.49 437.85v4.14h41.35v-4.14z"/>
			</g>
			<g id="body 00000003792733878791040700000016483968375661438874 ">
				<path id="main 00000119814024159758135490000008073865509524613525 " fill="currentColor" stroke="currentColor" stroke-linecap="round" stroke-linejoin="round" d="m1537.53 468.43h-57.59v-15.22l-5.81-5.53v-16.41l9.46-7.2h157.15l9.47 7.2v16.41l-5.82 5.53v15.22h-57.59"/>
				<path id="centre 00000129204283970479522210000010112332916543131062 " fill="currentColor" stroke="currentColor" stroke-linecap="round" stroke-linejoin="round" d="m1541.49 444.91v23.52h41.35v-23.52"/>
				<path id="half 00000136409664651486902610000012378393516258748801 " fill="currentColor" stroke="currentColor" stroke-linecap="round" stroke-linejoin="round" d="m1562.17 424.07v10.84"/>
			</g>
			<path id="text 00000007427721874494494410000014844339778437285258 " fill="currentColor" stroke="currentColor" stroke-linecap="round" stroke-linejoin="round" d="m1599.1 431.67h36.18"/>
			<path id="text 00000060020745611326094530000013704762576633518769 " fill="currentColor" stroke="currentColor" stroke-linecap="round" stroke-linejoin="round" d="m1599.1 435.43h22.31"/>
		</g>
</svg>