<svg xmlns="http://www.w3.org/2000/svg" viewBox="0 0 213.29 105.96">
<g transform="translate(-1995.52,-157.49)" stroke-width="12.55">
<g id="RAM-icon-v4">
			<path id="connector 00000076577717386575437540000010803946149712034475 " fill="currentColor" stroke="currentColor" stroke-linecap="round" stroke-linejoin="round" d="m2014.52 220.43v3.06c0 0.39 0.34 0.71 0.75 0.71h0.37c0.41 0 0.74 0.32 0.74 0.7v2.38c0 0.39-0.33 0.7-0.74 0.7h-0.37c-0.41 0-0.75 0.32-0.75 0.71v2.37c0 0.39 0.34 0.71 0.75 0.71h0.37c0.41 0 0.74 0.31 0.74 0.7v2.37c0 0.39-0.33 0.71-0.74 0.71h-0.37c-0.41 0-0.75 0.31-0.75 0.7v10.32c0 1.04 0.89 1.88 1.98 1.88h97.13v-6.22c0-0.81 0.64-1.47 1.44-1.5l0.68-0.03c0.85-0.04 1.56 0.65 1.56 1.5v6.25h70.52c1.09 0 1.98-0.84 1.98-1.88v-10.32c0-0.39-0.33-0.7-0.74-0.7h-0.37c-0.41 0-0.74-0.32-0.74-0.71v-2.37c0-0.39 0.33-0.7 0.74-0.7h0.37c0.41 0 0.74-0.32 0.74-0.71v-2.37c0-0.39-0.33-0.71-0.74-0.71h-0.37c-0.41 0-0.74-0.31-0.74-0.7v-2.38c0-0.38 0.33-0.7 0.74-0.7h0.37c0.41 0 0.74-0.32 0.74-0.71v-3.06"/>
			<path id="main 00000183966849159189577670000017497140216560740242 " fill="currentColor" stroke="currentColor" stroke-linecap="round" stroke-linejoin="round" d="m2174.39 187.08h-144.45l-10 10.43v39.73h164.45v-39.73z"/>
			<path id="ribs" fill="currentColor" stroke="currentColor" stroke-linecap="round" stroke-linejoin="round" d="m2029.94 178.49v8.59m9.63-8.59v8.59m9.63-8.59v8.59m9.63-8.59v8.59m9.63-8.59v8.59m9.63-8.59v8.59m9.63-8.59v8.59m9.63-8.59v8.59m9.63-8.59v8.59m9.63-8.59v8.59m9.63-8.59v8.59m9.63-8.59v8.59m9.63-8.59v8.59m9.63-8.59v8.59m9.63-8.59v8.59m9.63-8.59v8.59"/>
			<path id="top-bar" fill="currentColor" stroke="currentColor" stroke-linecap="round" stroke-linejoin="round" d="m2174.39 178.49l13.42 14v6.59l-3.42 3.42v10.93l4.29 4.29c0.39 0.39 1.02 0.39 1.41 0l3.72-3.71v-23.93l-16.86-17.59h-149.57l-16.86 17.59v23.93l3.72 3.71c0.39 0.39 1.02 0.39 1.41 0l4.29-4.29v-10.93l-3.42-3.42v-6.59l13.42-14z"/>
			<path id="rivets" fill="currentColor" stroke="currentColor" stroke-linecap="round" stroke-linejoin="round" d="m2016.52 204.82c0 0.83-0.67 1.5-1.5 1.5-0.82 0-1.5-0.67-1.5-1.5 0-0.83 0.68-1.5 1.5-1.5 0.83 0 1.5 0.67 1.5 1.5zm-1.5 4.5c-0.82 0-1.5 0.67-1.5 1.5 0 0.83 0.68 1.5 1.5 1.5 0.83 0 1.5-0.67 1.5-1.5 0-0.83-0.67-1.5-1.5-1.5zm172.79-4.5c0 0.83 0.67 1.5 1.5 1.5 0.83 0 1.5-0.67 1.5-1.5 0-0.83-0.67-1.5-1.5-1.5-0.83 0-1.5 0.67-1.5 1.5zm0 6c0 0.83 0.67 1.5 1.5 1.5 0.83 0 1.5-0.67 1.5-1.5 0-0.83-0.67-1.5-1.5-1.5-0.83 0-1.5 0.67-1.5 1.5z"/>
			<path id="branding 00000003066489087345402050000015904364723796598949 " fill="currentColor" stroke="currentColor" stroke-linecap="round" stroke-linejoin="round" d="m2089.94 216.16h24.45m-16.45-20h8.45m-28.45 12h48.45"/>
		</g>
</g>
</svg>