<svg xmlns="http://www.w3.org/2000/svg" viewBox="0 0 206.08 88.38">
<g transform="translate(-1189.13,-166.28)" stroke-width="7.36">
<g id="RAM-icon-v1">
			<path id="centre 00000097482525301393712280000002171312235715114118 " fill="none" stroke="currentColor" stroke-linecap="round" stroke-linejoin="round" d="m1204.52 211.4v3.3c0 0.39 0.34 0.71 0.75 0.71h0.37c0.41 0 0.74 0.31 0.74 0.7v2.38c0 0.38-0.33 0.7-0.74 0.7h-0.37c-0.41 0-0.75 0.32-0.75 0.71v2.37c0 0.39 0.34 0.7 0.75 0.7h0.37c0.41 0 0.74 0.32 0.74 0.71v2.37c0 0.39-0.33 0.71-0.74 0.71h-0.37c-0.41 0-0.75 0.31-0.75 0.7v10.32c0 1.04 0.89 1.88 1.98 1.88h97.13v-6.23c0-0.8 0.64-1.46 1.44-1.49l0.68-0.03c0.85-0.04 1.56 0.64 1.56 1.5v6.25h70.52c1.09 0 1.98-0.84 1.98-1.88v-10.32c0-0.39-0.33-0.7-0.74-0.7h-0.37c-0.41 0-0.74-0.32-0.74-0.71v-2.37c0-0.39 0.33-0.71 0.74-0.71h0.37c0.41 0 0.74-0.31 0.74-0.7v-2.37c0-0.39-0.33-0.71-0.74-0.71h-0.37c-0.41 0-0.74-0.32-0.74-0.7v-2.38c0-0.39 0.33-0.7 0.74-0.7h0.37c0.41 0 0.74-0.32 0.74-0.71v-3.3"/>
			<path id="main 00000053525633702856470360000010353394179340178864 " fill="none" stroke="currentColor" stroke-linecap="round" stroke-linejoin="round" d="m1234.67 193.78h-16.8m0 3h43.93"/>
			<path id="main 00000118360817964661989450000004812629255735399103 " fill="none" stroke="currentColor" stroke-linecap="round" stroke-linejoin="round" d="m1378.21 181.28h-172.08c-1.11 0-2 0.9-2 2v24.42h1.81c2.21 0 4 1.79 4 4v16.75h164.45v-16.75c0-2.21 1.79-4 4-4h1.82v-24.42c0-1.1-0.9-2-2-2zm-174.08 22.2h176.08m-176.08-16.2h176.08"/>
		</g>
</g>
</svg>