<svg xmlns="http://www.w3.org/2000/svg" viewBox="0 0 207.70 150.04">
<g transform="translate(-1458.32,-108.62)">
<g id="RAM-icon-v2">
			<path id="connector 00000087389497090296462710000007656292756449663376 " fill="currentColor" stroke="currentColor" stroke-linecap="round" stroke-linejoin="round" d="m1474.52 214.49v4.21c0 0.39 0.34 0.71 0.75 0.71h0.37c0.41 0 0.74 0.31 0.74 0.7v2.38c0 0.38-0.33 0.7-0.74 0.7h-0.37c-0.41 0-0.75 0.32-0.75 0.71v2.37c0 0.39 0.34 0.7 0.75 0.7h0.37c0.41 0 0.74 0.32 0.74 0.71v2.37c0 0.39-0.33 0.71-0.74 0.71h-0.37c-0.41 0-0.75 0.31-0.75 0.7v10.32c0 1.04 0.89 1.88 1.98 1.88h97.13v-6.23c0-0.8 0.64-1.46 1.44-1.49l0.68-0.03c0.85-0.04 1.56 0.64 1.56 1.5v6.25h70.52c1.09 0 1.98-0.84 1.98-1.88v-10.32c0-0.39-0.33-0.7-0.74-0.7h-0.37c-0.41 0-0.74-0.32-0.74-0.71v-2.37c0-0.39 0.33-0.71 0.74-0.71h0.37c0.41 0 0.74-0.31 0.74-0.7v-2.37c0-0.39-0.33-0.71-0.74-0.71h-0.37c-0.41 0-0.74-0.32-0.74-0.7v-2.38c0-0.39 0.33-0.7 0.74-0.7h0.37c0.41 0 0.74-0.32 0.74-0.71v-4.21"/>
			<g id="branding 00000153694797800378102370000006530153424355169961 ">
				<path id="centre 00000114783525606386927860000013904492946868124327 " fill="currentColor" stroke="currentColor" stroke-linecap="round" stroke-linejoin="round" d="m1606.81 202.7h36.37"/>
				<path id="text 00000088813611110951090280000016439825787391148711 " fill="currentColor" stroke="currentColor" stroke-linecap="round" stroke-linejoin="round" d="m1606.81 188.7h36.37"/>
			</g>
			<path id="rgb 00000175300542605668496950000001950051131260680593 " fill="currentColor" stroke="currentColor" stroke-linecap="round" stroke-linejoin="round" d="m1506.94 195.7h-33.62v-18.42h33.62m60 18.42v-18.42h84.08v18.42zm-40 0h20v-18.42h-20z"/>
			<path id="heatspreader" fill="currentColor" stroke="currentColor" stroke-linecap="round" stroke-linejoin="round" d="m1651.02 198.7v10.26c0 1.11-0.46 2.17-1.27 2.92l-3.67 3.43c-0.8 0.76-1.26 1.81-1.26 2.92v12.72h-165.3v-12.72c0-1.11-0.46-2.16-1.27-2.92l-3.67-3.43c-0.8-0.75-1.26-1.81-1.26-2.92v-10.26m33.62 32.25h20v-35.25l-20-18.42zm40 0h20v-35.25l-20-18.41z"/>
		</g>
</g>
</svg>