<svg xmlns="http://www.w3.org/2000/svg" viewBox="0 0 212.00 96.47">
<g transform="translate(-1186.17,-399.77)" stroke-width="12.47">
<g id="RAM-icon-v5">
			<path id="marking 00000080898741451495822890000006091089616112508341 " fill="none" stroke="currentColor" stroke-linecap="round" stroke-linejoin="round" d="m1202.57 444.3v12.45c0 0.38 0.34 0.69 0.76 0.69h0.38c0.42 0 0.76 0.31 0.76 0.69v2.33c0 0.38-0.34 0.69-0.76 0.69h-0.38c-0.42 0-0.76 0.31-0.76 0.69v2.33c0 0.39 0.34 0.7 0.76 0.7h0.38c0.42 0 0.76 0.31 0.76 0.69v2.33c0 0.38-0.34 0.69-0.76 0.69h-0.38c-0.42 0-0.76 0.31-0.76 0.69v10.13c0 1.02 0.91 1.84 2.03 1.84h99.24v-6.11c0-0.81 0.64-1.47 1.45-1.5l0.8-0.03c0.85-0.04 1.56 0.64 1.56 1.5v6.14h72.09c1.12 0 2.02-0.82 2.02-1.84v-10.13c0-0.38-0.34-0.69-0.76-0.69h-0.37c-0.42 0-0.76-0.31-0.76-0.69v-2.33c0-0.38 0.34-0.69 0.76-0.69h0.37c0.42 0 0.76-0.31 0.76-0.7v-2.33c0-0.38-0.34-0.69-0.76-0.69h-0.37c-0.42 0-0.76-0.31-0.76-0.69v-2.33c0-0.38 0.34-0.69 0.76-0.69h0.37c0.42 0 0.76-0.31 0.76-0.69v-13.25"/>
			<path id="heat-spreader" fill="none" stroke="currentColor" stroke-linecap="round" stroke-linejoin="round" d="m1367.66 417.01h4.23l9.68 7.06v7.5m-164.9-14.56h-4.23l-9.67 7.06v7.5m174.45 34.67v-20.95l5.95-5.42v-6.3h-7.76l-21.76 21.77h-122.96l-21.77-21.77h-7.75v6.3l5.94 5.42v20.95c0 2.21 1.79 4 4 4h162.11c2.21 0 4-1.79 4-4zm-42.95-14.57l7.61-6.82c0.67-0.61 0.24-1.73-0.67-1.73h-98.08c-0.91 0-1.35 1.12-0.68 1.73l7.61 6.82"/>
			<path id="rgb 00000090258847122179066080000015773026401988714152 " fill="none" stroke="currentColor" stroke-linecap="round" stroke-linejoin="round" d="m1354.83 425.54l3.7-3.7h10.93l-7.07-7.07h-44.83l-3.42 3.42h-43.95l-3.41-3.42h-44.84l-7.06 7.07h10.92l3.7 3.7z"/>
			<path id="branding 00000116921848226125728060000012965074997616331449 " fill="none" stroke="currentColor" stroke-linecap="round" stroke-linejoin="round" d="m1275.4 434.23h33.53"/>
		</g>
</g>
</svg>