<svg xmlns="http://www.w3.org/2000/svg" viewBox="3667.3 876.2 256.4 95.5">
<g id="Soft-Tube-Cutters-icon">
			<path id="blade 00000166638412314933845290000000090054897750302646 " fill="currentColor" stroke="currentColor" stroke-miterlimit="10" d="m3755.39 912.39l0.17-0.08h-57.84c-4.8 0-8.69 3.58-8.69 8v9.34"/>
			<path id="handle 00000039853358780746144810000006642945778288562089 " fill="currentColor" stroke="currentColor" stroke-miterlimit="10" d="m3805.09 913.58l102.76 20.96c0.49 0.1 0.85 0.51 0.85 0.98v5.57c0 1.34-0.29 2.66-0.86 3.89l-3.75 8.18c-1.23 2.68-4.68 3.84-7.49 2.49-10.59-5.07-35.72-15.68-58.37-14.59l-33.12 1.6q-3.66 0.17-7.33-0.03l-7.89-0.44m3.9-3.79l4.26 0.24c2.26 0.12 4.57 0.13 6.84 0.02l37.45-1.8 4.56-14.75"/>
			<path id="handle 00000176757372187445703100000004961396603482335888 " fill="currentColor" stroke="currentColor" stroke-miterlimit="10" d="m3893.94 901.27c8.37 0.73 14.76 7.2 14.76 14.94v2.25c0 0.61-0.59 1.08-1.25 0.99-7.98-1.13-52.13-7.24-70.92-7.24-20.71 0-33.9 1.63-33.9 1.63 0 0 5.06 32.8-46.55 42.9-41.33 8.09-63.76-3.25-71.06-8.09-1.69-1.13-2.69-2.94-2.69-4.87v-10.12c0-1.34 0.97-2.52 2.37-2.88l8.26-2.15c6.42 4.83 16.55 7.95 27.95 7.95 19.42 0 35.17-9.04 35.17-20.2q-0.01-2.05-0.69-3.99l47.32-21.19c0 0 10.16 5.09 25.54 6.45 15.38 1.36 65.69 3.62 65.69 3.62zm-211.64 39.71l3.07 2.8c0.18 0.16 5.46 4.72 16.46 8.09 10.35 3.18 28 5.92 53.35 0.96 46.75-9.15 43.32-37.26 43.15-38.45l-16.57-8.8-20.87 9.34q0.07 0.73 0.07 1.46c0 13.85-17.59 24.7-40.05 24.7-12.15 0-23.47-3.27-31.04-8.96l-2.65-2"/>
			<path id="branding 00000148627227092713682200000007911749312710421412 " fill="currentColor" stroke="currentColor" stroke-miterlimit="10" d="m3800.74 905.58h37.56"/>
			<path id="nut 00000167386487319459906730000007290153515874732979 " fill="currentColor" stroke="currentColor" stroke-miterlimit="10" d="m3784.89 914.04l-10.24-1.65-6.67 7.34 3.57 9 10.24 1.65 6.67-7.34zm-5.72 2.32c-3.01-0.49-5.88 1.37-6.4 4.14-0.53 2.77 1.48 5.42 4.49 5.9 3.01 0.49 5.88-1.37 6.41-4.14 0.53-2.77-1.49-5.42-4.5-5.9zm2.32 5.55c-0.32 1.66-2.04 2.77-3.85 2.48-1.8-0.29-3.01-1.87-2.69-3.54 0.31-1.66 2.03-2.77 3.84-2.48 1.81 0.29 3.01 1.87 2.7 3.54z"/>
			<path id="fixing 00000168092648003095401460000000781641888144316836 " fill="currentColor" stroke="currentColor" stroke-miterlimit="10" d="m3810.92 919.4c-3.86 0-7 2.89-7 6.45 0 3.56 3.14 6.45 7 6.45 3.87 0 7-2.89 7-6.45 0-3.56-3.13-6.45-7-6.45zm3.43 6.45c0 1.74-1.54 3.15-3.43 3.15-1.89 0-3.42-1.41-3.42-3.15 0-1.74 1.53-3.16 3.42-3.16 1.89 0 3.43 1.42 3.43 3.16z"/>
			<path id="fixing 00000000202330242129143360000007707065619860960169 " fill="currentColor" stroke="currentColor" stroke-miterlimit="10" d="m3830.01 922.56c-3.86 0-7 2.88-7 6.44 0 3.57 3.14 6.45 7 6.45 3.87 0 7-2.88 7-6.45 0-3.56-3.13-6.44-7-6.44zm3.43 6.44c0 1.75-1.54 3.16-3.43 3.16-1.89 0-3.42-1.41-3.42-3.16 0-1.74 1.53-3.15 3.42-3.15 1.89 0 3.43 1.41 3.43 3.15z"/>
		</g>
</svg>