<svg xmlns="http://www.w3.org/2000/svg" viewBox="0 0 144.40 110.00">
<g transform="translate(-1489.97,-632.18)" stroke-width="5.16">
<g id="SSD-icon-v1">
			<path id="profile 15 " fill="none" stroke="currentColor" stroke-miterlimit="10" d="m1611.1 702.3v-39.14h8.27v-11.98c0-2.21-1.79-4-4-4h-106.4c-2.21 0-4 1.79-4 4v72c0 2.2 1.79 4 4 4h106.4c2.21 0 4-1.8 4-4v-20.88z"/>
			<g id="connectors 1 ">
				<path id="&lt;Path&gt;" fill="none" stroke="currentColor" stroke-miterlimit="10" d="m1612.9 666.09h4.07v20.63h-4.07"/>
				<path id="&lt;Path&gt;" fill="none" stroke="currentColor" stroke-miterlimit="10" d="m1612.9 689.43h4.07v9.94h-4.07"/>
			</g>
			<g id="fixings 1 ">
				<path id="screwhole 31 " fill="none" stroke="currentColor" stroke-miterlimit="10" d="m1523.77 658.18c0 1.65-1.35 3-3 3-1.66 0-3-1.35-3-3 0-1.66 1.34-3 3-3 1.65 0 3 1.34 3 3z"/>
				<path id="screwhole 30 " fill="none" stroke="currentColor" stroke-miterlimit="10" d="m1604.17 658.18c0 1.65-1.35 3-3 3-1.66 0-3-1.35-3-3 0-1.66 1.34-3 3-3 1.65 0 3 1.34 3 3z"/>
				<path id="screwhole 29 " fill="none" stroke="currentColor" stroke-miterlimit="10" d="m1604.17 716.18c0 1.65-1.35 3-3 3-1.66 0-3-1.35-3-3 0-1.66 1.34-3 3-3 1.65 0 3 1.34 3 3z"/>
				<path id="screwhole 28 " fill="none" stroke="currentColor" stroke-miterlimit="10" d="m1523.77 716.18c0 1.65-1.35 3-3 3-1.66 0-3-1.35-3-3 0-1.66 1.34-3 3-3 1.65 0 3 1.34 3 3z"/>
			</g>
			<path id="label 5 " fill="none" stroke="currentColor" stroke-miterlimit="10" d="m1589.73 708.22h-57.53c-2.21 0-4-1.79-4-4v-34.09c0-2.21 1.79-4 4-4h57.53c2.21 0 4 1.79 4 4v34.09c0 2.21-1.79 4-4 4z"/>
			<g id="SSD 1 ">
				<path id="&lt;Path&gt;" fill="none" stroke="currentColor" stroke-miterlimit="10" d="m1554.33 681.45h-4.12c-1.22 0-2.21 0.99-2.21 2.22v1.43c0 1.22 0.99 2.21 2.21 2.21h1.91c1.22 0 2.21 0.99 2.21 2.21v1.16c0 1.23-0.99 2.22-2.21 2.22h-4.12"/>
				<path id="&lt;Path&gt;" fill="none" stroke="currentColor" stroke-miterlimit="10" d="m1563.3 681.45h-4.12c-1.22 0-2.21 0.99-2.21 2.22v1.43c0 1.22 0.99 2.21 2.21 2.21h1.91c1.22 0 2.21 0.99 2.21 2.21v1.16c0 1.23-0.99 2.22-2.21 2.22h-4.12"/>
				<path id="&lt;Path&gt;" fill="none" stroke="currentColor" stroke-miterlimit="10" d="m1565.93 692.9v-11.45h4.68c1.84 0 3.32 1.49 3.32 3.32v4.81c0 1.83-1.48 3.32-3.32 3.32z"/>
			</g>
		</g>
</g>
</svg>