<svg xmlns="http://www.w3.org/2000/svg" viewBox="4221.8 826.0 226.6 195.8">
<g id="Thermal-Pads-icon 00000112616787144738727630000008559336226014978708 ">
			<g id="pads 00000136377150517250122510000009504849579713345982 ">
				<path id="pad 00000098206039546142184890000007988759981792042138 " fill="currentColor" stroke="currentColor" stroke-linecap="round" stroke-linejoin="round" d="m4236.77 841.04h100v30h-100z"/>
				<path id="pad 00000054981866046566515240000002205763331256981381 " fill="currentColor" stroke="currentColor" stroke-linecap="round" stroke-linejoin="round" d="m4236.77 882.97h100v25h-100z"/>
				<path id="pad 00000085218994752479724510000008808442085981824432 " fill="currentColor" stroke="currentColor" stroke-linecap="round" stroke-linejoin="round" d="m4236.77 919.91h100v20h-100z"/>
				<path id="pad 00000014592448959778065150000017660367090314342020 " fill="currentColor" stroke="currentColor" stroke-linecap="round" stroke-linejoin="round" d="m4236.77 951.84h100v15h-100z"/>
				<path id="pad 00000139255287237156885820000010113054197040333236 " fill="currentColor" stroke="currentColor" stroke-linecap="round" stroke-linejoin="round" d="m4236.77 978.77h100v10h-100z"/>
				<path id="pad 00000042701148336254800890000014257360480809885609 " fill="currentColor" stroke="currentColor" stroke-linecap="round" stroke-linejoin="round" d="m4236.77 1000.71h100v5h-100z"/>
			</g>
			<g id="thicknesses 00000013154676533382180580000007895441267093576065 ">
				<g id="&lt;Group&gt;">
					<path id="&lt;Compound Path&gt;" fill="currentColor" d="m4402.19 1002.75c0 2.65-0.98 4.11-2.71 4.11-1.52 0-2.55-1.42-2.58-4 0-2.62 1.13-4.06 2.71-4.06 1.65 0 2.58 1.47 2.58 3.95zm-4.23 0.12c0 2.03 0.62 3.18 1.58 3.18 1.08 0 1.6-1.26 1.6-3.25 0-1.92-0.49-3.18-1.59-3.18-0.92 0-1.59 1.13-1.59 3.25z"/>
					<path id="&lt;Compound Path&gt;" fill="currentColor" d="m4403.25 1006.11c0-0.45 0.3-0.76 0.72-0.76 0.42 0 0.71 0.31 0.71 0.76 0 0.43-0.28 0.75-0.72 0.75-0.42 0-0.71-0.32-0.71-0.75z"/>
					<path id="&lt;Compound Path&gt;" fill="currentColor" d="m4410.3 999.82h-2.97l-0.3 2.01c0.18-0.03 0.35-0.05 0.64-0.05 0.6 0 1.2 0.13 1.67 0.42 0.62 0.34 1.12 1.02 1.12 2 0 1.52-1.21 2.66-2.9 2.66-0.85 0-1.57-0.24-1.94-0.48l0.26-0.8c0.32 0.19 0.96 0.43 1.67 0.43 0.99 0 1.84-0.65 1.84-1.69-0.01-1.01-0.68-1.73-2.24-1.73-0.44 0-0.79 0.05-1.08 0.09l0.5-3.75h3.73z"/>
					<path id="&lt;Compound Path&gt;" fill="currentColor" d="m4414.69 1002.5c0-0.6-0.02-1.09-0.05-1.57h0.92l0.05 0.93h0.04c0.32-0.55 0.86-1.07 1.82-1.07 0.79 0 1.39 0.48 1.64 1.17h0.03q0.27-0.49 0.64-0.76c0.35-0.26 0.74-0.41 1.29-0.41 0.77 0 1.9 0.51 1.9 2.52v3.42h-1.03v-3.29c0-1.11-0.4-1.78-1.26-1.78-0.6 0-1.06 0.44-1.24 0.96q-0.08 0.22-0.09 0.52v3.59h-1.03v-3.48c0-0.92-0.41-1.59-1.21-1.59-0.66 0-1.14 0.52-1.31 1.05q-0.08 0.24-0.08 0.52v3.5h-1.03z"/>
					<path id="&lt;Compound Path&gt;" fill="currentColor" d="m4424.7 1002.5c0-0.6-0.02-1.09-0.05-1.57h0.92l0.05 0.93h0.03c0.33-0.55 0.87-1.07 1.83-1.07 0.79 0 1.39 0.48 1.64 1.17h0.02q0.28-0.49 0.65-0.76c0.35-0.26 0.73-0.41 1.29-0.41 0.76 0 1.9 0.51 1.9 2.52v3.42h-1.03v-3.29c0-1.11-0.41-1.78-1.26-1.78-0.6 0-1.07 0.44-1.25 0.96q-0.07 0.22-0.08 0.52v3.59h-1.03v-3.48c0-0.92-0.41-1.59-1.21-1.59-0.66 0-1.14 0.52-1.31 1.05q-0.09 0.24-0.08 0.52v3.5h-1.03z"/>
				</g>
				<g id="&lt;Group&gt;">
					<path id="&lt;Compound Path&gt;" fill="currentColor" d="m4399.7 980.48h-0.02l-1.35 0.74-0.21-0.81 1.7-0.91h0.9v7.8h-1.02z"/>
					<path id="&lt;Compound Path&gt;" fill="currentColor" d="m4403.65 986.67c0-0.44 0.3-0.75 0.72-0.75 0.42 0 0.71 0.31 0.71 0.75 0 0.43-0.27 0.76-0.72 0.76-0.42 0-0.71-0.33-0.71-0.76z"/>
					<path id="&lt;Compound Path&gt;" fill="currentColor" d="m4411.23 983.32c0 2.65-0.98 4.11-2.71 4.11-1.52 0-2.55-1.43-2.57-4.01 0-2.61 1.12-4.05 2.71-4.05 1.64 0 2.57 1.46 2.57 3.95zm-4.23 0.11c0 2.03 0.62 3.18 1.58 3.18 1.08 0 1.6-1.26 1.6-3.25 0-1.92-0.49-3.18-1.58-3.18-0.93 0-1.6 1.13-1.6 3.25z"/>
					<path id="&lt;Compound Path&gt;" fill="currentColor" d="m4415.09 983.06c0-0.6-0.01-1.09-0.05-1.57h0.92l0.05 0.94h0.04c0.32-0.55 0.86-1.07 1.82-1.07 0.79 0 1.39 0.48 1.64 1.16h0.03q0.28-0.48 0.65-0.75c0.34-0.27 0.73-0.41 1.28-0.41 0.77 0 1.91 0.5 1.91 2.52v3.42h-1.03v-3.29c0-1.11-0.41-1.79-1.26-1.79-0.6 0-1.07 0.45-1.25 0.96q-0.08 0.23-0.09 0.53v3.59h-1.03v-3.48c0-0.92-0.4-1.6-1.21-1.6-0.66 0-1.14 0.53-1.3 1.06q-0.09 0.24-0.09 0.51v3.51h-1.03z"/>
					<path id="&lt;Compound Path&gt;" fill="currentColor" d="m4425.1 983.06c0-0.6-0.02-1.09-0.05-1.57h0.92l0.05 0.94h0.04c0.32-0.55 0.86-1.07 1.82-1.07 0.79 0 1.39 0.48 1.64 1.16h0.03q0.28-0.48 0.64-0.75c0.35-0.27 0.74-0.41 1.29-0.41 0.77 0 1.9 0.5 1.9 2.52v3.42h-1.03v-3.29c0-1.11-0.4-1.79-1.26-1.79-0.6 0-1.06 0.45-1.24 0.96q-0.08 0.23-0.09 0.53v3.59h-1.03v-3.48c0-0.92-0.41-1.6-1.21-1.6-0.66 0-1.14 0.53-1.31 1.06q-0.08 0.24-0.08 0.51v3.51h-1.03z"/>
				</g>
				<g id="&lt;Group&gt;">
					<path id="&lt;Compound Path&gt;" fill="currentColor" d="m4399.7 956.05h-0.02l-1.35 0.73-0.21-0.8 1.7-0.91h0.9v7.79h-1.02z"/>
					<path id="&lt;Compound Path&gt;" fill="currentColor" d="m4403.65 962.24c0-0.44 0.3-0.76 0.72-0.76 0.42 0 0.71 0.32 0.71 0.76 0 0.43-0.27 0.76-0.72 0.76-0.42 0-0.71-0.33-0.71-0.76z"/>
					<path id="&lt;Compound Path&gt;" fill="currentColor" d="m4410.71 955.96h-2.98l-0.3 2c0.18-0.03 0.35-0.05 0.64-0.05 0.6 0 1.2 0.13 1.68 0.42 0.61 0.35 1.11 1.02 1.11 2 0 1.53-1.21 2.67-2.9 2.67-0.85 0-1.57-0.25-1.94-0.48l0.26-0.81c0.33 0.19 0.96 0.43 1.67 0.43 0.99 0 1.84-0.64 1.84-1.69-0.01-1-0.68-1.72-2.24-1.72-0.44 0-0.79 0.04-1.08 0.08l0.51-3.74h3.73z"/>
					<path id="&lt;Compound Path&gt;" fill="currentColor" d="m4415.09 958.63c0-0.6-0.01-1.09-0.05-1.57h0.92l0.05 0.93h0.04c0.32-0.55 0.86-1.06 1.82-1.06 0.79 0 1.39 0.48 1.64 1.16h0.03q0.28-0.49 0.65-0.76c0.34-0.26 0.73-0.4 1.28-0.4 0.77 0 1.91 0.5 1.91 2.52v3.41h-1.03v-3.28c0-1.12-0.41-1.79-1.26-1.79-0.6 0-1.07 0.44-1.25 0.96q-0.08 0.23-0.09 0.53v3.58h-1.03v-3.48c0-0.92-0.4-1.59-1.21-1.59-0.66 0-1.14 0.53-1.3 1.06q-0.09 0.24-0.09 0.51v3.5h-1.03z"/>
					<path id="&lt;Compound Path&gt;" fill="currentColor" d="m4425.1 958.63c0-0.6-0.02-1.09-0.05-1.57h0.92l0.05 0.93h0.04c0.32-0.55 0.86-1.06 1.82-1.06 0.79 0 1.39 0.48 1.64 1.16h0.03q0.28-0.49 0.64-0.76c0.35-0.26 0.74-0.4 1.29-0.4 0.77 0 1.9 0.5 1.9 2.52v3.41h-1.03v-3.28c0-1.12-0.4-1.79-1.26-1.79-0.6 0-1.06 0.44-1.24 0.96q-0.08 0.23-0.09 0.53v3.58h-1.03v-3.48c0-0.92-0.41-1.59-1.21-1.59-0.66 0-1.14 0.53-1.31 1.06q-0.08 0.24-0.08 0.51v3.5h-1.03z"/>
				</g>
				<g id="&lt;Group&gt;">
					<path id="&lt;Compound Path&gt;" fill="currentColor" d="m4397.01 933.43v-0.65l0.83-0.8c1.99-1.9 2.89-2.9 2.9-4.08 0-0.79-0.38-1.52-1.55-1.52-0.7 0-1.29 0.36-1.65 0.66l-0.34-0.75c0.54-0.45 1.31-0.79 2.21-0.79 1.68 0 2.39 1.15 2.39 2.27 0 1.44-1.05 2.6-2.69 4.18l-0.62 0.58v0.02h3.5v0.88z"/>
					<path id="&lt;Compound Path&gt;" fill="currentColor" d="m4403.25 932.81c0-0.45 0.3-0.76 0.72-0.76 0.42 0 0.71 0.31 0.71 0.76 0 0.43-0.28 0.75-0.72 0.75-0.42 0-0.71-0.32-0.71-0.75z"/>
					<path id="&lt;Compound Path&gt;" fill="currentColor" d="m4410.83 929.45c0 2.65-0.98 4.11-2.71 4.11-1.52 0-2.55-1.43-2.58-4 0-2.62 1.13-4.06 2.71-4.06 1.65 0 2.58 1.46 2.58 3.95zm-4.23 0.12c0 2.02 0.62 3.18 1.58 3.18 1.08 0 1.6-1.26 1.6-3.25 0-1.92-0.49-3.18-1.59-3.18-0.92 0-1.59 1.13-1.59 3.25z"/>
					<path id="&lt;Compound Path&gt;" fill="currentColor" d="m4414.69 929.2c0-0.6-0.02-1.1-0.05-1.58h0.92l0.05 0.94h0.04c0.32-0.55 0.86-1.07 1.82-1.07 0.79 0 1.39 0.48 1.64 1.17h0.03q0.27-0.49 0.64-0.76c0.35-0.26 0.74-0.41 1.29-0.41 0.77 0 1.9 0.51 1.9 2.52v3.42h-1.03v-3.29c0-1.11-0.4-1.78-1.26-1.78-0.6 0-1.06 0.44-1.24 0.96q-0.08 0.22-0.09 0.52v3.59h-1.03v-3.48c0-0.92-0.41-1.59-1.21-1.59-0.66 0-1.14 0.52-1.31 1.05q-0.08 0.24-0.08 0.52v3.5h-1.03z"/>
					<path id="&lt;Compound Path&gt;" fill="currentColor" d="m4424.7 929.2c0-0.6-0.02-1.1-0.05-1.58h0.92l0.05 0.94h0.03c0.33-0.55 0.87-1.07 1.83-1.07 0.79 0 1.39 0.48 1.64 1.17h0.02q0.28-0.49 0.65-0.76c0.35-0.26 0.73-0.41 1.29-0.41 0.76 0 1.9 0.51 1.9 2.52v3.42h-1.03v-3.29c0-1.11-0.41-1.78-1.26-1.78-0.6 0-1.07 0.44-1.25 0.96q-0.07 0.22-0.08 0.52v3.59h-1.03v-3.48c0-0.92-0.41-1.59-1.21-1.59-0.66 0-1.14 0.52-1.31 1.05q-0.09 0.24-0.08 0.52v3.5h-1.03z"/>
				</g>
				<g id="&lt;Group&gt;">
					<path id="&lt;Compound Path&gt;" fill="currentColor" d="m4397.01 899v-0.65l0.83-0.81c1.99-1.89 2.89-2.9 2.9-4.07 0-0.79-0.38-1.53-1.55-1.53-0.7 0-1.29 0.36-1.65 0.66l-0.34-0.74c0.54-0.46 1.31-0.79 2.21-0.79 1.68 0 2.39 1.15 2.39 2.27 0 1.43-1.05 2.6-2.69 4.18l-0.62 0.58v0.02h3.5v0.88z"/>
					<path id="&lt;Compound Path&gt;" fill="currentColor" d="m4403.25 898.37c0-0.44 0.3-0.75 0.72-0.75 0.42 0 0.71 0.31 0.71 0.75 0 0.43-0.28 0.76-0.72 0.76-0.42 0-0.71-0.33-0.71-0.76z"/>
					<path id="&lt;Compound Path&gt;" fill="currentColor" d="m4410.3 892.09h-2.97l-0.3 2c0.18-0.02 0.35-0.05 0.64-0.05 0.6 0 1.2 0.13 1.67 0.42 0.62 0.35 1.12 1.02 1.12 2.01 0 1.52-1.21 2.66-2.9 2.66-0.85 0-1.57-0.24-1.94-0.48l0.26-0.81c0.32 0.2 0.96 0.44 1.67 0.44 0.99 0 1.84-0.65 1.84-1.69-0.01-1.01-0.68-1.73-2.24-1.73-0.44 0-0.79 0.05-1.08 0.08l0.5-3.74h3.73z"/>
					<path id="&lt;Compound Path&gt;" fill="currentColor" d="m4414.69 894.76c0-0.6-0.02-1.09-0.05-1.57h0.92l0.05 0.94h0.04c0.32-0.55 0.86-1.07 1.82-1.07 0.79 0 1.39 0.48 1.64 1.16h0.03q0.27-0.48 0.64-0.75c0.35-0.27 0.74-0.41 1.29-0.41 0.77 0 1.9 0.5 1.9 2.52v3.42h-1.03v-3.29c0-1.12-0.4-1.79-1.26-1.79-0.6 0-1.06 0.45-1.24 0.96q-0.08 0.23-0.09 0.53v3.59h-1.03v-3.48c0-0.93-0.41-1.6-1.21-1.6-0.66 0-1.14 0.53-1.31 1.06q-0.08 0.24-0.08 0.51v3.51h-1.03z"/>
					<path id="&lt;Compound Path&gt;" fill="currentColor" d="m4424.7 894.76c0-0.6-0.02-1.09-0.05-1.57h0.92l0.05 0.94h0.03c0.33-0.55 0.87-1.07 1.83-1.07 0.79 0 1.39 0.48 1.64 1.16h0.02q0.28-0.48 0.65-0.75c0.35-0.27 0.73-0.41 1.29-0.41 0.76 0 1.9 0.5 1.9 2.52v3.42h-1.03v-3.29c0-1.12-0.41-1.79-1.26-1.79-0.6 0-1.07 0.45-1.25 0.96q-0.07 0.23-0.08 0.53v3.59h-1.03v-3.48c0-0.93-0.41-1.6-1.21-1.6-0.66 0-1.14 0.53-1.31 1.06q-0.09 0.24-0.08 0.51v3.51h-1.03z"/>
				</g>
				<g id="&lt;Group&gt;">
					<path id="&lt;Compound Path&gt;" fill="currentColor" d="m4397.26 858.35c0.3 0.19 1 0.49 1.73 0.49 1.36 0 1.78-0.86 1.76-1.51-0.01-1.09-0.99-1.56-2.01-1.56h-0.59v-0.79h0.59c0.77 0 1.74-0.39 1.74-1.32 0-0.62-0.4-1.17-1.37-1.17-0.62 0-1.22 0.27-1.56 0.51l-0.27-0.77c0.4-0.29 1.19-0.59 2.03-0.59 1.54 0 2.23 0.91 2.23 1.85 0 0.81-0.47 1.49-1.43 1.84v0.02c0.96 0.2 1.73 0.92 1.73 2.01 0 1.24-0.97 2.33-2.84 2.33-0.87 0-1.64-0.27-2.02-0.52z"/>
					<path id="&lt;Compound Path&gt;" fill="currentColor" d="m4403.25 858.94c0-0.44 0.3-0.76 0.72-0.76 0.42 0 0.71 0.32 0.71 0.76 0 0.43-0.28 0.75-0.72 0.75-0.42 0-0.71-0.32-0.71-0.75z"/>
					<path id="&lt;Compound Path&gt;" fill="currentColor" d="m4410.83 855.58c0 2.65-0.98 4.11-2.71 4.11-1.52 0-2.55-1.42-2.58-4 0-2.62 1.13-4.05 2.71-4.05 1.65 0 2.58 1.46 2.58 3.94zm-4.23 0.12c0 2.03 0.62 3.18 1.58 3.18 1.08 0 1.6-1.26 1.6-3.25 0-1.92-0.49-3.18-1.59-3.18-0.92 0-1.59 1.13-1.59 3.25z"/>
					<path id="&lt;Compound Path&gt;" fill="currentColor" d="m4414.69 855.33c0-0.6-0.02-1.09-0.05-1.57h0.92l0.05 0.93h0.04c0.32-0.55 0.86-1.06 1.82-1.06 0.79 0 1.39 0.48 1.64 1.16h0.03q0.27-0.49 0.64-0.76c0.35-0.26 0.74-0.4 1.29-0.4 0.77 0 1.9 0.5 1.9 2.51v3.42h-1.03v-3.28c0-1.12-0.4-1.79-1.26-1.79-0.6 0-1.06 0.44-1.24 0.96q-0.08 0.23-0.09 0.53v3.58h-1.03v-3.48c0-0.92-0.41-1.59-1.21-1.59-0.66 0-1.14 0.53-1.31 1.06q-0.08 0.23-0.08 0.51v3.5h-1.03z"/>
					<path id="&lt;Compound Path&gt;" fill="currentColor" d="m4424.7 855.33c0-0.6-0.02-1.09-0.05-1.57h0.92l0.05 0.93h0.03c0.33-0.55 0.87-1.06 1.83-1.06 0.79 0 1.39 0.48 1.64 1.16h0.02q0.28-0.49 0.65-0.76c0.35-0.26 0.73-0.4 1.29-0.4 0.76 0 1.9 0.5 1.9 2.51v3.42h-1.03v-3.28c0-1.12-0.41-1.79-1.26-1.79-0.6 0-1.07 0.44-1.25 0.96q-0.07 0.23-0.08 0.53v3.58h-1.03v-3.48c0-0.92-0.41-1.59-1.21-1.59-0.66 0-1.14 0.53-1.31 1.06q-0.09 0.23-0.08 0.51v3.5h-1.03z"/>
				</g>
			</g>
			<g id="marker-lines 00000015324179239342762350000017847214699516139937 ">
				<path id="&lt;Path&gt;" fill="currentColor" stroke="currentColor" stroke-linecap="round" stroke-linejoin="round" stroke-dasharray="5,5,5,5,5,5" d="m4344.36 1003.21h44.68"/>
				<path id="&lt;Path&gt;" fill="currentColor" stroke="currentColor" stroke-linecap="round" stroke-linejoin="round" stroke-dasharray="5,5,5,5,5,5" d="m4344.36 983.77h44.68"/>
				<path id="&lt;Path&gt;" fill="currentColor" stroke="currentColor" stroke-linecap="round" stroke-linejoin="round" stroke-dasharray="5,5,5,5,5,5" d="m4344.36 959.34h44.68"/>
				<path id="&lt;Path&gt;" fill="currentColor" stroke="currentColor" stroke-linecap="round" stroke-linejoin="round" stroke-dasharray="5,5,5,5,5,5" d="m4344.36 929.91h44.68"/>
				<path id="&lt;Path&gt;" fill="currentColor" stroke="currentColor" stroke-linecap="round" stroke-linejoin="round" stroke-dasharray="5,5,5,5,5,5" d="m4344.36 895.47h44.68"/>
				<path id="&lt;Path&gt;" fill="currentColor" stroke="currentColor" stroke-linecap="round" stroke-linejoin="round" stroke-dasharray="5,5,5,5,5,5" d="m4344.36 856.04h44.68"/>
			</g>
		</g>
</svg>