<svg xmlns="http://www.w3.org/2000/svg" viewBox="0 0 230.00 119.53">
<g transform="translate(-4220.50,-1107.91)" stroke-width="13.53">
<g id="Thermal-Paste-icon-v2 00000142897505320441555760000009138709755182826904 ">
			<path id="spreader 00000173135577477398916760000005680958516588992662 " fill="currentColor" stroke="currentColor" stroke-linecap="round" stroke-linejoin="round" d="m4257.72 1173.47h-11.97c-1.45 0-2.62 1.18-2.62 2.63v2.7c0 1.45 1.17 2.63 2.62 2.63h11.97m54.95-7.96h42.56c3.98 0 7.83-1.35 10.94-3.83l3.32-2.65c3.26-2.61 7.31-4.03 11.48-4.03l30.76 0.07c1.41 0 2.68 0.85 3.22 2.14l12.15 28.94c0.49 1.15-0.36 2.43-1.61 2.43h-10.22c-2.58 0-5.15-0.38-7.62-1.13l-40.02-12.11c-4.12-1.24-8.39-1.87-12.69-1.87h-42.27m-51.44-7.96h47.94m0 7.96h-47.94m0-7.96h-3.51v7.96h3.51zm51.44 0h-3.5v7.95h3.5zm110.2 23.06l-14.07-33.5"/>
			<path id="grip 00000083080391621465760980000004746066720599538825 " fill="currentColor" stroke="currentColor" stroke-linecap="round" stroke-linejoin="round" d="m4314.92 1124.66v33.11c0 0.97-0.78 1.76-1.75 1.76h-1.15c-0.97 0-1.75-0.79-1.75-1.76v-33.11c0-0.97 0.78-1.75 1.75-1.75h1.15c0.97 0 1.75 0.78 1.75 1.75z"/>
			<path id="plunger 00000177442185797671901980000004880156156992505229 " fill="currentColor" stroke="currentColor" stroke-linecap="round" stroke-linejoin="round" d="m4310.27 1146.71h-36.78l-34.14-2.45m70.92-8.54h-36.78l-34.14 2.45m-3.85 16.19h3.85v-26.28h-3.85z"/>
			<path id="text 00000160180238382337229090000005309044111627064707 " fill="currentColor" stroke="currentColor" stroke-linecap="round" stroke-linejoin="round" d="m4337.93 1139.46h28.17m-28.17 3.51h24.66m34.91-3.51h15.9m-28.16 3.51h28.16"/>
			<path id="syringe 00000057137794338279555520000014280161539876835207 " fill="currentColor" stroke="currentColor" stroke-linecap="round" stroke-linejoin="round" d="m4314.92 1132.82h102.98v16.79h-102.98m102.98-2.02h17.6v-12.75h-17.6m-37.48-2.02v16.79"/>
			<path id="branding 00000096743743335445893770000005902854162155676591 " fill="currentColor" stroke="currentColor" stroke-miterlimit="10" d="m4324.56 1141.83v1.78c0 0.88 0.71 1.59 1.59 1.59h4.79c0.88 0 1.6-0.71 1.6-1.59v-4.79c0-0.88-0.72-1.59-1.6-1.59h-4.79c-0.88 0-1.59 0.71-1.59 1.59v0.8c0 0.88 0.71 1.6 1.59 1.6h2.88c0.88 0 1.59 0.71 1.59 1.59v0.69"/>
		</g>
</g>
</svg>