<svg xmlns="http://www.w3.org/2000/svg" viewBox="0 0 176.22 209.40">
<g transform="translate(-4013.39,-2006.86)" stroke-width="7.48">
<g id="Trackball-icon 00000010306438384767325940000006610972744443263372 ">
			<path id="body 00000131366670681085948940000006538791486970613657 " fill="none" stroke="currentColor" stroke-miterlimit="10" d="m4032.69 2074.52c23.3-7.27 45.28-10.17 65.28-6.55 0 0 17.73 23.53 20.71 56.61 3.24 35.89-12.72 74-47.3 76.68-30.12 2.34-42.99-23.79-42.99-36.57 0-12.77 1.84-15.51 1.84-21.92 0-6.41-2.05-59.7 2.46-68.25zm11.74 119.49c0 0 3.41-27.55 4.43-38.72 1.02-11.16-1.43-16.07-2.46-18.94-1.02-2.87-11.5-30.08-12.35-41.15-0.75-9.77-0.24-14.03 1.73-21.62"/>
			<path id="buttons 00000047764635327440096430000011069016236618650268 " fill="none" stroke="currentColor" stroke-miterlimit="10" d="m4039.12 2115.68l7.1-3.49m23.37-45.32l-0.09 5.21m24.63 41.69l12.8 14.59c1.05 1.2 3.03 0.62 3.27-0.95 2.99-19.72 0.37-33.85-2.39-42.27m-7.76 35.37c2.28-10.95 2.66-32.86 0.66-48.47m-30.09 0.02c-15.18 0-27.48 12.3-27.48 27.48 0 15.18 12.3 27.48 27.48 27.48 15.18 0 27.48-12.3 27.48-27.48 0-15.18-12.3-27.48-27.48-27.48z"/>
			<path id="ball 00000099656475514981188950000010422166949204303273 " fill="none" stroke="currentColor" stroke-miterlimit="10" d="m4092.93 2099.54c0 12.32-9.99 22.31-22.31 22.31-12.32 0-22.31-9.99-22.31-22.31 0-12.32 9.99-22.31 22.31-22.31 12.32 0 22.31 9.99 22.31 22.31zm-22.31 16.9c9.34 0 16.9-7.57 16.9-16.9m-25.03-11.83c-3 0-5.43 2.43-5.43 5.43 0 3 2.43 5.43 5.43 5.43 3 0 5.43-2.43 5.43-5.43 0-3-2.43-5.43-5.43-5.43z"/>
			<path id="branding 00000114755715076543175490000016540857058296011433 " fill="none" stroke="currentColor" stroke-miterlimit="10" d="m4080.85 2134.13h15.05m0 3.87h-8.09"/>
			<path id="side-buttons 00000117643249645197675810000006622753806317273745 " fill="none" stroke="currentColor" stroke-miterlimit="10" d="m4029.8 2105.03l13.56 36.34c0.94 2.5 1.33 5.26 1.14 7.96l-1.73 24.55c-0.15 2.11-1.68 3.78-3.72 4.04q-0.28 0.04-0.56 0.04c-1.8 0-3.4-1.15-4.01-2.94l-5.88-17.2m1.63-15.05q0-0.33-0.01-0.82l6.28 18.36c0.1 0.29 0.52 0.24 0.55-0.07l0.8-11.38c0.12-1.75-0.13-3.54-0.74-5.16l-7.24-19.41"/>
			<path id="cable 00000074434210964297400040000008017886444522454702 " fill="none" stroke="currentColor" stroke-miterlimit="10" d="m4066.17 2057.86l0.39-3.08h5.61l0.46 3.08m0.47 3.83l-0.33-2.04h-6.66l-0.29 2.04m7.8 4.9l-0.38-3.11h-7.48l-0.35 3.81m109.2-45.43c0.21 22.9-8.85 45.43-29.96 50.18-13.82 3.12-34.8-5.63-39.24-28.39-4.35-22.32-35.65-17.76-36.02 0v11.13"/>
		</g>
</g>
</svg>