<svg xmlns="http://www.w3.org/2000/svg" viewBox="0 0 210.38 130.00">
<g transform="translate(-3448.52,-1830.44)">
<g id="Webcam-icon-v1">
			<path id="lens" fill="currentColor" stroke="currentColor" stroke-linecap="round" stroke-miterlimit="10" d="m3525.5 1856.71c-12.45 0-22.54 10.09-22.54 22.54 0 12.44 10.09 22.53 22.54 22.53 12.45 0 22.54-10.09 22.54-22.53 0-12.45-10.09-22.54-22.54-22.54zm0 4.23c-10.11 0-18.31 8.2-18.31 18.31 0 10.11 8.2 18.31 18.31 18.31 10.11 0 18.31-8.2 18.31-18.31 0-10.11-8.2-18.31-18.31-18.31zm0 5.63c-7 0-12.68 5.68-12.68 12.68 0 7 5.68 12.68 12.68 12.68 7 0 12.68-5.68 12.68-12.68 0-7-5.68-12.68-12.68-12.68zm0 2.82c-5.45 0-9.86 4.41-9.86 9.86 0 5.44 4.41 9.86 9.86 9.86 5.45 0 9.86-4.42 9.86-9.86 0-5.45-4.41-9.86-9.86-9.86zm6.04 9.86c0 3.34-2.7 6.04-6.04 6.04-3.34 0-6.04-2.7-6.04-6.04 0-3.34 2.7-6.04 6.04-6.04 3.34 0 6.04 2.7 6.04 6.04zm-1.81 0c0-2.34-1.9-4.23-4.23-4.23"/>
			<path id="unit" fill="currentColor" stroke="currentColor" stroke-linecap="round" stroke-miterlimit="10" d="m3463.52 1879.25c0 8.32 1.65 16.25 4.62 23.5 2.57 6.28 8.78 10.3 15.56 10.3h83.6c6.78 0 12.99-4.02 15.56-10.3 2.97-7.25 4.62-15.18 4.62-23.5 0-8.32-1.65-16.26-4.62-23.5-2.57-6.28-8.78-10.31-15.56-10.31h-83.6c-6.78 0-12.99 4.03-15.56 10.31-2.97 7.24-4.62 15.18-4.62 23.5zm30.49-23.73c2.12-2.81 5.45-4.44 8.97-4.44h64.31c4.6 0 8.73 2.79 10.46 7.05 2.64 6.52 4.09 13.65 4.09 21.12 0 7.47-1.45 14.59-4.09 21.12-1.73 4.26-5.86 7.05-10.46 7.05h-64.31c-3.52 0-6.85-1.63-8.97-4.44-4.99-6.6-7.95-14.82-7.95-23.73 0-8.91 2.96-17.13 7.95-23.73z"/>
			<path id="power 00000062913912362203157590000010744683590800890499 " fill="currentColor" stroke="currentColor" stroke-linecap="round" stroke-miterlimit="10" d="m3570.24 1891.23c2.03 2.03 2.03 5.33 0 7.36-2.03 2.04-5.33 2.04-7.37 0-2.03-2.03-2.03-5.33 0-7.36m3.69 4.44v-7.02"/>
			<path id="signal" fill="currentColor" stroke="currentColor" stroke-linecap="round" stroke-linejoin="round" d="m3565.2 1864.39c0.75-0.75 1.96-0.75 2.71 0m1.99-1.99c-1.84-1.85-4.84-1.85-6.69 0m8.55-1.86c-2.87-2.88-7.54-2.88-10.41 0"/>
			<path id="clip" fill="currentColor" stroke="currentColor" stroke-linecap="round" stroke-miterlimit="10" d="m3567.41 1922.47v8.04c0 3.11-2.53 5.63-5.64 5.63h-72.54c-3.11 0-5.64-2.52-5.64-5.63v-8.04c0-0.46 0.38-0.83 0.84-0.83h18.53v-8.59h45.08v8.59h18.53c0.46 0 0.84 0.37 0.84 0.83zm-66.14-6.4h-17.6c-1.32 1.32-2.06 2.06-3.38 3.38v22.61c1.32 1.32 2.06 2.06 3.38 3.38h83.66c1.32-1.32 2.06-2.06 3.38-3.38v-22.61c-1.32-1.32-2.06-2.06-3.38-3.38h-17.6m-63.67 8.01c0 1.56 1.19 2.49 2.65 2.49h73.58c1.46 0 2.65-0.93 2.65-2.49zm-0.09 12.72v5.78h79.05v-5.78"/>
		</g>
</g>
</svg>