<svg xmlns="http://www.w3.org/2000/svg" viewBox="4213.6 1764.3 251.0 228.9">
<g id="Webcam-icon-v4">
			<g id="camera 00000137117719263676731920000016457889336577207176 ">
				<path id="thread 00000042725024228031463980000004260730966480361135 " fill="currentColor" stroke="currentColor" stroke-linecap="round" stroke-linejoin="round" d="m4270.19 1783.09v29.24m2.48-29.24v29.24m2.48-29.24v29.24m2.49-29.24v29.24m2.48-29.24v29.24m2.48-29.24v29.24"/>
				<path id="case 00000114064968003824808790000011349396681359517106 " fill="currentColor" stroke="currentColor" stroke-linecap="round" stroke-miterlimit="10" d="m4285.08 1779.25v36.92h32.67c2.68-2.33 6.87-3.84 11.58-3.84h23.63c4.71 0 8.9 1.51 11.59 3.84h32.66v-36.92z"/>
				<g id="lens-unit 00000179626779147891272970000001817890158631985598 ">
					<path id="lens 00000000943271849512225860000010829627981474420108 " fill="currentColor" stroke="currentColor" stroke-linecap="round" stroke-miterlimit="10" d="m4335.5 1793.94c-2.08 0-3.76 1.69-3.76 3.77 0 2.08 1.68 3.76 3.76 3.76 2.08 0 3.76-1.68 3.76-3.76 0-2.08-1.68-3.77-3.76-3.77zm1.88 3.77c0 1.04-0.84 1.88-1.88 1.88-1.04 0-1.88-0.84-1.88-1.88 0-1.04 0.84-1.88 1.88-1.88 1.04 0 1.88 0.84 1.88 1.88z"/>
					<path id="unit 00000150099935224563605100000003099241443514170510 " fill="currentColor" stroke="currentColor" stroke-linecap="round" stroke-miterlimit="10" d="m4335.5 1787.83c5.45 0 9.88 4.43 9.88 9.88 0 5.45-4.43 9.88-9.88 9.88h-23.53c-5.45 0-9.88-4.43-9.88-9.88 0-5.45 4.43-9.88 9.88-9.88zm0 16.94c3.9 0 7.06-3.16 7.06-7.06 0-3.9-3.16-7.06-7.06-7.06h-23.53c-3.89 0-7.05 3.16-7.05 7.06 0 3.9 3.16 7.06 7.05 7.06zm-4.67 0c-2.29-1.52-3.8-4.11-3.8-7.06 0-2.95 1.51-5.54 3.8-7.06"/>
					<path id="shutter 00000009554783339332478280000005955256844849529481 " fill="currentColor" stroke="currentColor" stroke-linecap="round" stroke-miterlimit="10" d="m4344.82 1788.39c5.14 5.15 5.14 13.49 0 18.64"/>
				</g>
				<path id="branding 00000005265667051955340370000010185744122708423561 " fill="currentColor" stroke="currentColor" stroke-linecap="round" stroke-miterlimit="10" d="m4363.54 1799.59h25.64m-25.64-3.76h8.7"/>
			</g>
			<g id="stand 00000169559087553674592540000011043219400172226489 ">
				<path id="mount 00000124159884724048271160000005969268144235406501 " fill="currentColor" stroke="currentColor" stroke-linecap="round" stroke-miterlimit="10" d="m4348.13 1813.84v2.33h-25.26v-1.32"/>
				<path id="base 00000163764153054754354850000000512553432620987281 " fill="currentColor" stroke="currentColor" stroke-linecap="round" stroke-miterlimit="10" d="m4356.7 1843.6h-42.42c-2.59 0-4.7-2.11-4.7-4.7v-7.48c0-2.6 2.11-4.7 4.7-4.7h42.42c2.6 0 4.7 2.1 4.7 4.7v7.48c0 2.59-2.1 4.7-4.7 4.7z"/>
				<path id="ball-joint 00000085942716560193141530000000116168010959886726 " fill="currentColor" stroke="currentColor" stroke-linecap="round" stroke-miterlimit="10" d="m4325.2 1825.87c0.04-3 1.36-5.67 3.43-7.53m17.15 7.53c-0.04-3-1.36-5.67-3.43-7.53"/>
				<path id="screw 00000075884360998201933150000014772770881520476545 " fill="currentColor" stroke="currentColor" stroke-linecap="round" stroke-miterlimit="10" d="m4350.62 1845.2v8.56h-30.26v-8.56m5.25 5.46v-3.77c0-0.52-0.42-0.94-0.94-0.94h-0.94c-0.52 0-0.94 0.42-0.94 0.94v3.77c0 0.52 0.42 0.94 0.94 0.94h0.94c0.52 0 0.94-0.42 0.94-0.94zm5.65 0v-3.77c0-0.52-0.42-0.94-0.94-0.94h-0.95c-0.52 0-0.94 0.42-0.94 0.94v3.77c0 0.52 0.42 0.94 0.94 0.94h0.95c0.52 0 0.94-0.42 0.94-0.94zm5.64 0v-3.77c0-0.52-0.42-0.94-0.94-0.94h-0.94c-0.52 0-0.94 0.42-0.94 0.94v3.77c0 0.52 0.42 0.94 0.94 0.94h0.94c0.52 0 0.94-0.42 0.94-0.94zm5.65 0v-3.77c0-0.52-0.42-0.94-0.94-0.94h-0.94c-0.52 0-0.94 0.42-0.94 0.94v3.77c0 0.52 0.42 0.94 0.94 0.94h0.94c0.52 0 0.94-0.42 0.94-0.94zm5.65 0v-3.77c0-0.52-0.42-0.94-0.94-0.94h-0.95c-0.52 0-0.94 0.42-0.94 0.94v3.77c0 0.52 0.42 0.94 0.94 0.94h0.95c0.52 0 0.94-0.42 0.94-0.94z"/>
				<path id="legs 00000010281858661890717570000013292052509207786668 " fill="currentColor" stroke="currentColor" stroke-miterlimit="10" d="m4342.09 1915.27v50.36c0 1.81-2.95 3.28-6.59 3.28-3.64 0-6.59-1.47-6.59-3.28v-50.36m21.1 2.6l90.51 60.27c3.03 2.02 7.12 1.2 9.14-1.83 2.02-3.03 1.2-7.12-1.83-9.13l-90.52-60.27zm-36.32-10.97l-90.51 60.27c-3.03 2.02-3.85 6.11-1.84 9.13 2.02 3.03 6.11 3.85 9.14 1.84l90.51-60.27z"/>
				<path id="stand 00000119114229509398489500000000552724543798776730 " fill="currentColor" stroke="currentColor" stroke-miterlimit="10" d="m4320.31 1913.45h30.38m-10.49-59.69h-9.41v12.02h9.41zm-13.65 32.64v-18.74c0.74-0.73 1.15-1.14 1.88-1.88h14.12c0.74 0.74 1.15 1.15 1.88 1.88v18.74m-25.88 17.35v-14.53c1.1-1.1 1.72-1.72 2.83-2.82h28.23c1.1 1.1 1.72 1.72 2.82 2.82v14.53m-36.7 2.82v-1.41c0.55-0.55 0.86-0.86 1.41-1.41h36.7c0.55 0.55 0.86 0.86 1.41 1.41v1.44m-19.76-4.47c-3.89 0-7.06-3.17-7.06-7.06 0-3.89 3.17-7.06 7.06-7.06 3.89 0 7.06 3.17 7.06 7.06 0 3.89-3.17 7.06-7.06 7.06zm0-12c-2.72 0-4.94 2.22-4.94 4.94"/>
			</g>
		</g>
</svg>