<svg xmlns="http://www.w3.org/2000/svg" viewBox="3703.1 1777.6 184.8 203.5">
<g id="Webcam-icon-v2">
			<path id="lens 00000043430133436547017210000002243599431149853574 " fill="currentColor" stroke="currentColor" stroke-linecap="round" stroke-miterlimit="10" d="m3795.5 1860.54c-10.33 0-18.71 8.38-18.71 18.71 0 10.33 8.38 18.71 18.71 18.71 10.33 0 18.71-8.38 18.71-18.71 0-10.33-8.38-18.71-18.71-18.71zm-15.31 18.71c0 3.52 1.2 6.76 3.21 9.35h24.2c2.01-2.59 3.21-5.83 3.21-9.35 0-3.52-1.2-6.77-3.21-9.36h-24.2c-2.01 2.59-3.21 5.84-3.21 9.36zm15.31-7.65c-4.22 0-7.65 3.43-7.65 7.65 0 4.22 3.43 7.65 7.65 7.65 4.22 0 7.65-3.43 7.65-7.65 0-4.22-3.43-7.65-7.65-7.65zm0 3.4c2.35 0 4.25 1.9 4.25 4.25 0 2.35-1.9 4.25-4.25 4.25-2.35 0-4.25-1.9-4.25-4.25 0-2.35 1.9-4.25 4.25-4.25zm7.34 13.6c2.77-2.18 4.56-5.56 4.56-9.35 0-3.8-1.79-7.17-4.56-9.36m-14.68 0c-2.77 2.19-4.56 5.56-4.56 9.36 0 3.79 1.79 7.17 4.56 9.35m4.79-9.35c0-1.41 1.14-2.55 2.55-2.55"/>
			<path id="body" fill="currentColor" stroke="currentColor" stroke-linecap="round" stroke-miterlimit="10" d="m3820.65 1905.38h8.51l39.89-1.97c2.5-7.6 3.85-15.72 3.85-24.16 0-8.44-1.35-16.56-3.85-24.16l-39.89-1.97h-8.51m-50.3 0h-8.51l-39.89 1.97c-2.5 7.6-3.85 15.72-3.85 24.16 0 8.44 1.35 16.56 3.85 24.16l39.89 1.97h8.51m8.05-4.13h34.2m0-44.01h-34.2m44.41 44.01h2.16c4.59-6.13 7.31-13.75 7.31-22 0-8.25-2.72-15.87-7.31-22.01h-2.16m-54.62 0h-2.16c-4.59 6.14-7.31 13.76-7.31 22.01 0 8.25 2.72 15.87 7.31 22h2.16m41.74-48.13h-28.86m0 52.26h28.86m-48.09-52.26c-5.61 7.22-8.96 16.28-8.96 26.13 0 9.85 3.35 18.91 8.96 26.13m67.32-52.26c5.61 7.22 8.96 16.28 8.96 26.13 0 9.85-3.35 18.91-8.96 26.13"/>
			<path id="privacy-cover" fill="currentColor" stroke="currentColor" stroke-linecap="round" stroke-miterlimit="10" d="m3780.19 1849.17v2.5c-5.58 6.49-9.16 16.44-9.16 27.58 0 11.14 3.58 21.09 9.16 27.58v5.56h-2.45c-7.37-7.51-12.16-19.57-12.16-33.14 0-13.57 4.79-25.63 12.16-33.15h1.95m31.12 3.07v2.5c5.58 6.49 9.16 16.44 9.16 27.58 0 11.14-3.58 21.09-9.16 27.58v5.56h2.45c7.37-7.51 12.16-19.57 12.16-33.14 0-13.57-4.79-25.63-12.16-33.15h-1.95m-0.5-48.55v-4.95h-30.62v4.95c-5.58 5.78-9.16 14.63-9.16 24.54 0 9.92 3.58 18.77 9.16 24.55v2.53h30.62v-2.53c5.58-5.78 9.16-14.63 9.16-24.55 0-9.91-3.58-18.76-9.16-24.54z"/>
			<path id="clip 00000183947585949856806990000002036939565974014652 " fill="currentColor" stroke="currentColor" stroke-linecap="round" stroke-miterlimit="10" d="m3835.21 1905.08v9.15c0 3.11-2.82 5.63-6.3 5.63h-66.82c-3.48 0-6.3-2.52-6.3-5.63v-9.15m71.79 14.78h-64.16l-2.66 13.48c-0.26 1.29 0.85 2.48 2.32 2.48h64.84c1.47 0 2.58-1.19 2.32-2.48zm6.28 26.78v-10.83h-76.71v10.83c0 3.29 2.66 5.96 5.95 5.96h64.8c3.29 0 5.96-2.67 5.96-5.96z"/>
		</g>
</svg>