<svg xmlns="http://www.w3.org/2000/svg" viewBox="0 0 121.26 162.35">
<g transform="translate(-3158.20,-2272.22)" stroke-width="5.80">
<g id="WiFi-USB-Extender-icon-v2">
			<path id="connection 00000040559011029848055690000001550130036285975460 " fill="none" stroke="currentColor" stroke-miterlimit="10" d="m3174.94 2287.22l2.58 2.8c0.78 0.85 1.25 1.94 1.32 3.1l4.77 104.93c0.08 1.35-0.39 2.68-1.31 3.68l-2.57 2.8v15.04h-6.53v-131.67c0-0.91 1.12-1.35 1.74-0.68z"/>
			<path id="ariel-base" fill="none" stroke="currentColor" stroke-linecap="round" stroke-linejoin="round" d="m3179.73 2408.89h3.25v-0.6c0-0.56 0.45-1 1-1h9.05l2 2 2-2h4.05c0.78 0.78 1.22 1.21 2 2v6.28c-0.78 0.78-1.22 1.22-2 2h-4.05l-2-2-2 2h-9.05c-0.55 0-1-0.45-1-1v-0.6h-3.25m15.3-5.18v3.28"/>
			<path id="usb-hub" fill="none" stroke="currentColor" stroke-linecap="round" stroke-linejoin="round" d="m3206.14 2414.07h-3.06m0-3.28h3.06m2.16-1.5h-2.16v6.28h2.16m0 2h44.74v-6.28c0-1.11-0.9-2-2-2h-9.97q-2.49-0.01-4.91-0.61l-3.08-0.78q-2.41-0.61-4.9-0.61h-19.88z"/>
			<path id="usb 00000054953941739656522780000003594559592598310536 " fill="none" stroke="currentColor" stroke-linecap="round" stroke-linejoin="round" d="m3253.04 2416.4h11.42v-3.97h-11.42"/>
		</g>
</g>
</svg>